<svg width="531" height="463" viewBox="0 0 531 463" fill="none" xmlns="http://www.w3.org/2000/svg">
<path d="M495.937 90.6184H453.7C434.759 90.6184 419.41 75.2605 419.41 56.3092C419.41 37.358 404.061 22 385.12 22H35.2899C16.3598 22 1.0105 37.358 1.0105 56.3092V428.294C1.0105 447.246 16.3598 462.604 35.3004 462.604H385.12C404.061 462.604 419.41 447.246 419.41 428.294V252.411C419.41 233.46 434.759 218.102 453.7 218.102H495.937C514.877 218.102 530.227 202.744 530.227 183.793V124.938C530.227 105.987 514.877 90.6289 495.937 90.6289V90.6184Z" fill="#2ECEC1" stroke="#00C9B8" stroke-width="0.75" stroke-miterlimit="10"/>
<path d="M495.937 69.6184H453.7C434.759 69.6184 419.41 54.2605 419.41 35.3092C419.41 16.358 404.061 1 385.12 1H35.2899C16.3598 1 1.0105 16.358 1.0105 35.3092V407.294C1.0105 426.246 16.3598 441.604 35.3004 441.604H385.12C404.061 441.604 419.41 426.246 419.41 407.294V231.411C419.41 212.46 434.759 197.102 453.7 197.102H495.937C514.877 197.102 530.227 181.744 530.227 162.793V103.938C530.227 84.9868 514.877 69.6289 495.937 69.6289V69.6184Z" fill="#EBFBF9" stroke="#00C9B8" stroke-width="0.75" stroke-miterlimit="10"/>
<path d="M76.8044 32.2812H344.81C364.63 32.2812 380.733 48.383 380.733 68.2247V367.118C380.733 386.949 364.641 403.062 344.81 403.062H76.8044C56.9843 403.062 40.8811 386.96 40.8811 367.118V68.2247C40.8811 48.3935 56.9738 32.2812 76.8044 32.2812Z" fill="#102870"/>
<path d="M344.789 32.6788C364.41 32.6788 380.314 48.592 380.314 68.2242V367.118C380.314 386.75 364.41 402.663 344.789 402.663H76.7938C57.1727 402.663 41.2684 386.75 41.2684 367.118V68.2242C41.2684 48.592 57.1727 32.6788 76.7938 32.6788H344.8M344.8 31.8931H76.7938C56.7748 31.8931 40.4832 48.1939 40.4832 68.2242V367.118C40.4832 387.148 56.7748 403.449 76.7938 403.449H344.8C364.819 403.449 381.11 387.148 381.11 367.118V68.2242C381.11 48.1939 364.819 31.8931 344.8 31.8931Z" fill="#00C9B8"/>
<path d="M344.663 30.9194H76.6577C57.0376 30.9194 41.1323 46.8336 41.1323 66.4648V348.628C41.1323 368.259 57.0376 384.173 76.6577 384.173H344.663C364.284 384.173 380.189 368.259 380.189 348.628V66.4648C380.189 46.8336 364.284 30.9194 344.663 30.9194Z" fill="white" stroke="#00C9B8" stroke-width="0.75" stroke-miterlimit="10"/>
<path d="M82.029 83.4986C80.9296 83.4986 79.9035 83.2996 78.9612 82.912C78.0189 82.5243 77.1917 81.9796 76.4798 81.2777C75.7678 80.5758 75.2129 79.7587 74.8255 78.8368C74.4381 77.9149 74.2391 76.9092 74.2391 75.8301C74.2391 74.7511 74.4381 73.7559 74.8255 72.8235C75.2129 71.9016 75.7678 71.0844 76.4798 70.3825C77.1917 69.6806 78.0293 69.1359 78.9717 68.7483C79.9245 68.3607 80.9401 68.1616 82.029 68.1616C82.8038 68.1616 83.5681 68.2664 84.3115 68.4654C85.0549 68.6749 85.7459 68.9683 86.3741 69.3454C87.0023 69.7225 87.5468 70.1835 88.0179 70.7283L86.5312 72.2578C85.9762 71.5873 85.3061 71.0844 84.5104 70.7387C83.7147 70.393 82.8875 70.2149 82.029 70.2149C81.2332 70.2149 80.5003 70.3616 79.8302 70.6445C79.1601 70.9273 78.5738 71.3254 78.0817 71.8178C77.5896 72.3206 77.2022 72.9073 76.93 73.5882C76.6578 74.2692 76.5112 75.013 76.5112 75.8196C76.5112 76.6263 76.6473 77.3492 76.93 78.0301C77.2022 78.711 77.6001 79.3082 78.1026 79.811C78.6052 80.3139 79.202 80.712 79.8826 81.0053C80.5631 81.2882 81.2961 81.4348 82.0918 81.4348C82.9503 81.4348 83.767 81.2567 84.5418 80.911C85.3166 80.5653 85.9658 80.0729 86.5102 79.4339L87.976 80.9215C87.4839 81.4453 86.9186 81.9062 86.2903 82.2939C85.6621 82.6815 84.9816 82.9853 84.2486 83.1843C83.5157 83.3939 82.7828 83.4881 82.029 83.4881V83.4986Z" fill="#102870"/>
<path d="M90.1538 83.2684V68.4028H101.106V70.3514H92.384V74.8142H98.1112V76.6999H92.384V81.3094H101.189V83.2579H90.1538V83.2684Z" fill="#102870"/>
<path d="M101.996 83.2684L107.681 75.579L102.31 68.4028H105.001L109.011 73.8818L113 68.4028H115.586L110.278 75.558L116.026 83.2684H113.356L108.958 77.2342L104.54 83.2684H101.975H101.996Z" fill="#102870"/>
<path d="M121.973 83.2684V68.4028H124.203V81.2884H132.757V83.2684H121.973Z" fill="#102870"/>
<path d="M135.825 70.7179C135.469 70.7179 135.165 70.5922 134.914 70.3198C134.663 70.0579 134.527 69.7541 134.527 69.3979C134.527 69.0417 134.652 68.717 134.914 68.476C135.176 68.2351 135.469 68.1094 135.825 68.1094C136.181 68.1094 136.505 68.2351 136.757 68.476C137.008 68.717 137.134 69.0313 137.134 69.3979C137.134 69.7646 137.008 70.0579 136.757 70.3198C136.505 70.5817 136.191 70.7179 135.825 70.7179ZM134.767 83.2683V72.4569H136.893V83.2683H134.767Z" fill="#102870"/>
<path d="M143.091 83.4781C142.159 83.4781 141.28 83.342 140.474 83.0591C139.657 82.7867 138.955 82.3886 138.359 81.8858L139.531 80.482C140.086 80.922 140.652 81.2572 141.238 81.4877C141.824 81.7182 142.421 81.8334 143.028 81.8334C143.793 81.8334 144.41 81.6867 144.892 81.3829C145.374 81.0896 145.615 80.6915 145.615 80.2201C145.615 79.822 145.478 79.5077 145.185 79.2877C144.903 79.0572 144.463 78.9106 143.866 78.8163L141.908 78.5439C140.83 78.3868 140.023 78.0515 139.489 77.5487C138.955 77.0458 138.683 76.3544 138.683 75.5058C138.683 74.8563 138.861 74.2801 139.217 73.7982C139.573 73.3163 140.065 72.9287 140.704 72.6563C141.343 72.384 142.086 72.2373 142.934 72.2373C143.709 72.2373 144.463 72.3525 145.185 72.5725C145.908 72.7925 146.599 73.1487 147.269 73.6306L146.19 75.0344C145.594 74.6363 145.018 74.343 144.463 74.1649C143.908 73.9763 143.342 73.8925 142.777 73.8925C142.128 73.8925 141.604 74.0287 141.207 74.3116C140.809 74.5839 140.61 74.9401 140.61 75.3801C140.61 75.7782 140.746 76.082 141.018 76.302C141.29 76.522 141.751 76.6687 142.39 76.763L144.348 77.0354C145.426 77.1925 146.232 77.5172 146.787 78.0201C147.342 78.5229 147.614 79.1934 147.614 80.0525C147.614 80.702 147.415 81.2886 147.018 81.802C146.62 82.3153 146.086 82.7239 145.405 83.0277C144.725 83.321 143.95 83.4781 143.091 83.4781Z" fill="#102870"/>
<path d="M153.666 83.4566C152.619 83.4566 151.823 83.2157 151.268 82.7233C150.714 82.2309 150.441 81.5186 150.441 80.5862V74.2377H148.148V72.4567H150.441V69.6911L152.546 69.1777V72.4463H155.729V74.2272H152.546V80.0833C152.546 80.6386 152.671 81.0262 152.912 81.2567C153.164 81.4871 153.561 81.6024 154.137 81.6024C154.43 81.6024 154.703 81.5814 154.933 81.5395C155.163 81.4976 155.415 81.4348 155.687 81.351V83.1319C155.404 83.2262 155.08 83.31 154.703 83.3519C154.326 83.4043 153.98 83.4252 153.677 83.4252V83.4566H153.666Z" fill="#102870"/>
<path d="M158.357 70.7179C158.001 70.7179 157.697 70.5922 157.446 70.3198C157.195 70.0579 157.058 69.7541 157.058 69.3979C157.058 69.0417 157.184 68.717 157.446 68.476C157.708 68.2351 158.001 68.1094 158.357 68.1094C158.713 68.1094 159.037 68.2351 159.289 68.476C159.54 68.717 159.665 69.0313 159.665 69.3979C159.665 69.7646 159.54 70.0579 159.289 70.3198C159.037 70.5817 158.723 70.7179 158.357 70.7179ZM157.299 83.2683V72.4569H159.425V83.2683H157.299Z" fill="#102870"/>
<path d="M161.927 83.2686V72.4573H164.053V73.5573C164.89 72.6773 165.969 72.2373 167.298 72.2373C168.136 72.2373 168.869 72.4154 169.497 72.7716C170.125 73.1278 170.628 73.6201 170.984 74.2592C171.34 74.8982 171.528 75.6316 171.528 76.4696V83.2686H169.403V76.8363C169.403 75.9877 169.162 75.3173 168.691 74.8249C168.22 74.3325 167.56 74.0916 166.701 74.0916C166.136 74.0916 165.623 74.2173 165.173 74.4478C164.723 74.6887 164.346 75.0344 164.053 75.4849V83.2581H161.927V83.2686Z" fill="#102870"/>
<path d="M179.297 87.8145C178.501 87.8145 177.737 87.7203 176.983 87.5422C176.229 87.3536 175.549 87.0917 174.941 86.7565L175.748 85.1012C176.386 85.426 176.983 85.6669 177.538 85.8136C178.093 85.9603 178.658 86.0336 179.224 86.0336C180.177 86.0336 180.889 85.8136 181.381 85.3736C181.873 84.9336 182.114 84.2946 182.114 83.446V82.2098C181.161 82.9641 180.082 83.3308 178.868 83.3308C177.873 83.3308 176.973 83.0898 176.146 82.5975C175.318 82.1051 174.659 81.4451 174.177 80.5965C173.696 79.7584 173.455 78.8261 173.455 77.7994C173.455 76.7727 173.696 75.8299 174.188 74.9813C174.68 74.1432 175.329 73.4728 176.166 72.9804C176.994 72.488 177.925 72.2471 178.962 72.2471C179.538 72.2471 180.103 72.3414 180.648 72.5299C181.192 72.7185 181.695 72.9909 182.145 73.3471V72.4356H184.249V83.4146C184.249 84.8184 183.82 85.8974 182.962 86.6517C182.103 87.406 180.889 87.7831 179.297 87.7831V87.8145ZM179.151 81.5079C179.768 81.5079 180.334 81.4032 180.847 81.1832C181.36 80.9632 181.779 80.6489 182.124 80.2403V75.4004C181.789 75.0023 181.36 74.688 180.836 74.468C180.323 74.2375 179.758 74.1328 179.151 74.1328C178.47 74.1328 177.863 74.3004 177.318 74.6251C176.774 74.9499 176.344 75.3899 176.02 75.9556C175.706 76.5108 175.538 77.1394 175.538 77.8308C175.538 78.5223 175.695 79.1508 176.02 79.706C176.334 80.2613 176.774 80.7118 177.318 81.0365C177.863 81.3613 178.47 81.5289 179.151 81.5289V81.5079Z" fill="#102870"/>
<path d="M188.155 74.9192C187.788 74.9192 187.474 74.7935 187.213 74.5211C186.951 74.2592 186.815 73.9449 186.815 73.5782C186.815 73.2116 186.94 72.8973 187.213 72.6354C187.474 72.3735 187.788 72.2373 188.155 72.2373C188.521 72.2373 188.835 72.3735 189.097 72.6354C189.359 72.8973 189.495 73.2116 189.495 73.5782C189.495 73.9449 189.369 74.2592 189.097 74.5211C188.835 74.783 188.521 74.9192 188.155 74.9192ZM188.155 83.4153C187.788 83.4153 187.474 83.2791 187.213 83.0172C186.951 82.7553 186.815 82.441 186.815 82.0744C186.815 81.7077 186.94 81.3934 187.213 81.1315C187.485 80.8696 187.788 80.7334 188.155 80.7334C188.521 80.7334 188.835 80.8591 189.097 81.1315C189.359 81.4039 189.495 81.7077 189.495 82.0744C189.495 82.441 189.369 82.7553 189.097 83.0172C188.835 83.2791 188.521 83.4153 188.155 83.4153Z" fill="#102870"/>
<path d="M203.902 83.4986C202.803 83.4986 201.777 83.2996 200.834 82.912C199.892 82.5243 199.065 81.9796 198.353 81.2777C197.641 80.5758 197.086 79.7587 196.699 78.8368C196.311 77.9149 196.112 76.9092 196.112 75.8301C196.112 74.7511 196.311 73.7559 196.699 72.8235C197.086 71.9016 197.641 71.0844 198.353 70.3825C199.065 69.6806 199.902 69.1359 200.845 68.7483C201.798 68.3607 202.813 68.1616 203.902 68.1616C204.677 68.1616 205.441 68.2664 206.185 68.4654C206.928 68.6749 207.619 68.9683 208.247 69.3454C208.875 69.7225 209.42 70.1835 209.891 70.7283L208.404 72.2578C207.849 71.5873 207.179 71.0844 206.383 70.7387C205.588 70.393 204.761 70.2149 203.902 70.2149C203.106 70.2149 202.373 70.3616 201.703 70.6445C201.033 70.9273 200.447 71.3254 199.955 71.8178C199.463 72.3206 199.075 72.9073 198.803 73.5882C198.531 74.2692 198.384 75.013 198.384 75.8196C198.384 76.6263 198.52 77.3492 198.803 78.0301C199.075 78.711 199.473 79.3082 199.976 79.811C200.478 80.3139 201.075 80.712 201.756 81.0053C202.436 81.2882 203.169 81.4348 203.965 81.4348C204.823 81.4348 205.64 81.2567 206.415 80.911C207.19 80.5653 207.839 80.0729 208.383 79.4339L209.849 80.9215C209.357 81.4453 208.792 81.9062 208.163 82.2939C207.535 82.6815 206.855 82.9853 206.122 83.1843C205.389 83.3939 204.656 83.4881 203.902 83.4881V83.4986Z" fill="#102870"/>
<path d="M212.027 83.2684V68.4028H222.979V70.3514H214.257V74.8142H219.984V76.6999H214.257V81.3094H223.063V83.2579H212.027V83.2684Z" fill="#102870"/>
<path d="M225.356 83.2684V68.4028H227.586V81.2884H236.14V83.2684H225.356Z" fill="#102870"/>
<path d="M238.38 83.2684V68.4028H244.809C245.783 68.4028 246.631 68.5705 247.353 68.8952C248.076 69.22 248.631 69.6809 249.029 70.2676C249.426 70.8542 249.625 71.5457 249.625 72.3418C249.625 73.0647 249.437 73.7037 249.071 74.2485C248.704 74.8037 248.191 75.2437 247.521 75.5685C248.359 75.8618 249.008 76.3123 249.489 76.9199C249.96 77.517 250.201 78.2294 250.201 79.0361C250.201 79.8951 249.992 80.6494 249.563 81.2884C249.133 81.9275 248.547 82.4199 247.783 82.7656C247.018 83.1113 246.118 83.2894 245.092 83.2894H238.38V83.2684ZM240.611 74.7094H244.683C245.521 74.7094 246.181 74.5104 246.683 74.1123C247.175 73.7142 247.427 73.1799 247.427 72.499C247.427 71.818 247.175 71.2838 246.683 70.8857C246.191 70.4876 245.521 70.2885 244.683 70.2885H240.611V74.7094ZM240.611 81.3722H244.924C245.856 81.3722 246.6 81.1522 247.144 80.7122C247.688 80.2722 247.961 79.6751 247.961 78.9313C247.961 78.1875 247.688 77.6008 247.144 77.1608C246.6 76.7104 245.856 76.4904 244.924 76.4904H240.611V81.3722Z" fill="#102870"/>
<path d="M73.3911 148.807L79.5266 133.941H82.1546L88.2273 148.807H85.8087L84.0916 144.449H77.4535L75.7154 148.807H73.3911ZM78.1655 142.605H83.3692L80.783 136.068L78.1759 142.605H78.1655Z" fill="#102870"/>
<path d="M95.0853 149.016C93.9022 149.016 92.7504 148.786 91.6511 148.314C90.5517 147.843 89.5675 147.193 88.7194 146.334L90.0805 144.763C90.8867 145.559 91.7139 146.146 92.5515 146.523C93.3891 146.9 94.2686 147.099 95.19 147.099C95.9125 147.099 96.5407 146.994 97.0851 146.795C97.6296 146.586 98.0484 146.293 98.352 145.915C98.6452 145.538 98.8022 145.098 98.8022 144.616C98.8022 143.946 98.5719 143.443 98.1007 143.087C97.6296 142.731 96.8652 142.469 95.7868 142.28L93.3054 141.882C91.9442 141.641 90.9286 141.201 90.2585 140.562C89.5884 139.923 89.2534 139.075 89.2534 138.016C89.2534 137.168 89.4837 136.424 89.934 135.775C90.3842 135.136 91.0229 134.633 91.85 134.276C92.6772 133.92 93.6404 133.742 94.7293 133.742C95.8182 133.742 96.8652 133.92 97.9018 134.266C98.9383 134.612 99.8807 135.115 100.718 135.764L99.4828 137.461C97.8808 136.246 96.2684 135.638 94.6246 135.638C93.9755 135.638 93.4101 135.733 92.9284 135.911C92.4468 136.099 92.0699 136.351 91.8081 136.686C91.5359 137.021 91.3998 137.409 91.3998 137.838C91.3998 138.446 91.6092 138.907 92.0175 139.232C92.4259 139.546 93.1064 139.776 94.0592 139.923L96.4569 140.332C98.0274 140.583 99.1791 141.044 99.9121 141.714C100.645 142.385 101.011 143.296 101.011 144.459C101.011 145.36 100.76 146.156 100.268 146.848C99.776 147.539 99.0745 148.073 98.1845 148.451C97.2945 148.838 96.258 149.027 95.0853 149.027V149.016Z" fill="#102870"/>
<path d="M106.833 148.807V135.921H101.608V133.952H114.277V135.921H109.053V148.807H106.822H106.833Z" fill="#102870"/>
<path d="M116.141 148.807V133.941H118.371V148.807H116.141Z" fill="#102870"/>
<path d="M119.921 148.807L126.056 133.941H128.684L134.757 148.807H132.338L130.621 144.449H123.983L122.245 148.807H119.921ZM124.695 142.605H129.899L127.313 136.068L124.705 142.605H124.695Z" fill="#102870"/>
<path d="M136.286 148.807V133.941H138.453L146.756 144.983V133.941H148.86V148.807H146.902L138.411 137.43V148.807H136.286Z" fill="#102870"/>
<path d="M155.854 148.807V147.319L161.885 140.908C162.293 140.479 162.618 140.101 162.838 139.766C163.058 139.431 163.225 139.106 163.32 138.802C163.414 138.499 163.456 138.174 163.456 137.839C163.456 137.179 163.183 136.623 162.649 136.183C162.115 135.743 161.435 135.523 160.608 135.523C159.927 135.523 159.289 135.659 158.692 135.921C158.095 136.194 157.435 136.655 156.723 137.325L155.582 135.921C156.378 135.188 157.195 134.633 158.032 134.266C158.87 133.9 159.749 133.711 160.65 133.711C161.55 133.711 162.43 133.879 163.152 134.224C163.875 134.56 164.44 135.031 164.838 135.639C165.236 136.236 165.445 136.927 165.445 137.713C165.445 138.205 165.382 138.666 165.257 139.085C165.131 139.504 164.911 139.944 164.597 140.405C164.283 140.866 163.843 141.39 163.278 141.987L158.44 147.078L165.738 147.057V148.817H155.844H155.854V148.807Z" fill="#102870"/>
<path d="M169.235 148.953C168.869 148.953 168.555 148.817 168.293 148.555C168.031 148.293 167.895 147.979 167.895 147.612C167.895 147.246 168.021 146.931 168.293 146.67C168.565 146.408 168.869 146.271 169.235 146.271C169.602 146.271 169.916 146.397 170.178 146.67C170.439 146.942 170.576 147.246 170.576 147.612C170.576 147.979 170.45 148.293 170.178 148.555C169.916 148.817 169.602 148.953 169.235 148.953Z" fill="#102870"/>
<path d="M178.48 149.048C177.235 149.048 176.146 148.723 175.214 148.084C174.282 147.445 173.549 146.544 173.015 145.392C172.481 144.239 172.219 142.899 172.219 141.39C172.219 139.881 172.481 138.54 173.015 137.388C173.549 136.236 174.282 135.335 175.214 134.696C176.146 134.057 177.235 133.732 178.48 133.732C179.726 133.732 180.794 134.057 181.726 134.696C182.658 135.335 183.391 136.236 183.925 137.388C184.459 138.54 184.721 139.881 184.721 141.39C184.721 142.899 184.459 144.239 183.925 145.392C183.391 146.544 182.658 147.445 181.726 148.084C180.794 148.723 179.706 149.048 178.48 149.048ZM178.48 147.204C179.329 147.204 180.061 146.963 180.69 146.492C181.307 146.02 181.789 145.339 182.135 144.459C182.48 143.579 182.648 142.553 182.648 141.379C182.648 140.206 182.48 139.159 182.135 138.289C181.8 137.42 181.318 136.749 180.69 136.267C180.072 135.796 179.329 135.555 178.48 135.555C177.632 135.555 176.889 135.796 176.261 136.267C175.633 136.739 175.151 137.409 174.805 138.289C174.46 139.169 174.292 140.185 174.292 141.379C174.292 142.574 174.46 143.579 174.805 144.459C175.151 145.339 175.633 146.01 176.261 146.492C176.889 146.963 177.632 147.204 178.48 147.204Z" fill="#102870"/>
<path d="M197.568 149.048C196.28 149.048 195.159 148.775 194.217 148.241C193.264 147.707 192.542 146.942 192.029 145.957C191.516 144.973 191.265 143.81 191.265 142.469V133.952H193.495V142.469C193.495 143.391 193.662 144.187 193.997 144.868C194.332 145.549 194.803 146.072 195.421 146.439C196.039 146.806 196.751 146.994 197.578 146.994C198.405 146.994 199.159 146.806 199.766 146.439C200.374 146.072 200.845 145.549 201.18 144.868C201.515 144.187 201.682 143.391 201.682 142.469V133.952H203.913V142.469C203.913 143.81 203.651 144.983 203.138 145.957C202.625 146.942 201.892 147.707 200.939 148.241C199.986 148.775 198.876 149.048 197.589 149.048H197.568Z" fill="#102870"/>
<path d="M206.404 153.144V138.006H208.509V139.043C209.409 138.237 210.519 137.828 211.818 137.828C212.833 137.828 213.755 138.08 214.582 138.572C215.409 139.064 216.068 139.735 216.55 140.573C217.032 141.411 217.273 142.354 217.273 143.401C217.273 144.449 217.032 145.392 216.54 146.24C216.048 147.079 215.398 147.749 214.571 148.252C213.744 148.744 212.812 148.996 211.776 148.996C211.179 148.996 210.603 148.901 210.059 148.713C209.504 148.524 209.001 148.252 208.53 147.896V153.165H206.404V153.144ZM211.545 147.131C212.236 147.131 212.854 146.974 213.399 146.639C213.943 146.303 214.383 145.874 214.707 145.308C215.032 144.753 215.199 144.114 215.199 143.412C215.199 142.71 215.032 142.071 214.707 141.505C214.383 140.94 213.943 140.489 213.399 140.164C212.854 139.84 212.236 139.672 211.545 139.672C210.938 139.672 210.373 139.787 209.849 140.007C209.326 140.238 208.886 140.552 208.53 140.96V145.842C208.886 146.24 209.326 146.555 209.86 146.775C210.394 147.005 210.949 147.11 211.545 147.11V147.131Z" fill="#102870"/>
<path d="M224.246 148.974C223.241 148.974 222.319 148.723 221.482 148.23C220.644 147.738 219.984 147.067 219.513 146.219C219.032 145.381 218.791 144.427 218.791 143.38C218.791 142.332 219.032 141.389 219.524 140.551C220.016 139.713 220.675 139.053 221.513 138.55C222.351 138.058 223.272 137.806 224.298 137.806C224.895 137.806 225.471 137.901 226.015 138.079C226.57 138.267 227.073 138.529 227.544 138.885V133.92L229.669 133.511V148.775H227.565V147.738C226.643 148.544 225.544 148.953 224.256 148.953V148.974H224.246ZM224.518 147.13C225.136 147.13 225.712 147.015 226.225 146.795C226.738 146.564 227.177 146.24 227.533 145.821V140.96C227.177 140.562 226.748 140.247 226.225 140.017C225.712 139.786 225.136 139.671 224.518 139.671C223.837 139.671 223.22 139.839 222.675 140.164C222.12 140.488 221.68 140.928 221.356 141.494C221.031 142.049 220.864 142.688 220.864 143.39C220.864 144.092 221.031 144.731 221.356 145.297C221.68 145.863 222.12 146.313 222.675 146.648C223.23 146.983 223.837 147.151 224.518 147.151V147.13Z" fill="#102870"/>
<path d="M235.585 148.996C234.81 148.996 234.119 148.86 233.522 148.577C232.925 148.294 232.465 147.917 232.119 147.424C231.774 146.932 231.606 146.356 231.606 145.706C231.606 144.69 231.994 143.883 232.779 143.297C233.554 142.71 234.622 142.417 235.983 142.417C237.04 142.417 238.024 142.626 238.935 143.035V141.893C238.935 141.118 238.715 140.531 238.265 140.154C237.815 139.777 237.166 139.578 236.297 139.578C235.805 139.578 235.281 139.651 234.747 139.798C234.213 139.944 233.606 140.175 232.946 140.489L232.161 138.897C232.978 138.52 233.742 138.237 234.454 138.059C235.166 137.881 235.878 137.797 236.6 137.797C238.003 137.797 239.092 138.132 239.857 138.792C240.621 139.452 241.008 140.405 241.008 141.642V148.818H238.925V147.885C238.443 148.273 237.93 148.556 237.375 148.734C236.82 148.922 236.224 149.006 235.574 149.006L235.585 148.996ZM233.658 145.664C233.658 146.188 233.878 146.618 234.328 146.943C234.779 147.267 235.354 147.435 236.077 147.435C236.642 147.435 237.166 147.351 237.637 147.183C238.108 147.016 238.548 146.754 238.946 146.398V144.575C238.537 144.334 238.108 144.156 237.658 144.051C237.208 143.946 236.716 143.894 236.161 143.894C235.386 143.894 234.768 144.051 234.328 144.376C233.889 144.69 233.658 145.13 233.658 145.685V145.664Z" fill="#102870"/>
<path d="M247.762 148.995C246.715 148.995 245.919 148.754 245.364 148.262C244.809 147.77 244.537 147.057 244.537 146.125V139.776H242.244V137.995H244.537V135.23L246.641 134.716V137.985H249.824V139.766H246.641V145.622C246.641 146.177 246.767 146.565 247.008 146.795C247.259 147.026 247.657 147.141 248.233 147.141C248.526 147.141 248.798 147.12 249.029 147.078C249.259 147.036 249.51 146.973 249.782 146.89V148.67C249.5 148.765 249.175 148.849 248.798 148.89C248.421 148.943 248.076 148.964 247.772 148.964V148.995H247.762Z" fill="#102870"/>
<path d="M256.379 148.995C255.321 148.995 254.358 148.744 253.499 148.251C252.641 147.759 251.96 147.078 251.458 146.229C250.955 145.381 250.704 144.428 250.704 143.38C250.704 142.332 250.945 141.41 251.426 140.562C251.908 139.724 252.557 139.043 253.384 138.54C254.201 138.037 255.122 137.786 256.117 137.786C257.112 137.786 258.012 138.037 258.787 138.54C259.562 139.043 260.179 139.724 260.64 140.583C261.101 141.442 261.331 142.406 261.331 143.485V144.082H252.819C252.934 144.679 253.154 145.203 253.489 145.674C253.824 146.146 254.243 146.512 254.766 146.774C255.279 147.047 255.845 147.183 256.452 147.183C256.976 147.183 257.478 147.099 257.97 146.942C258.462 146.774 258.86 146.544 259.195 146.229L260.556 147.57C259.918 148.052 259.269 148.408 258.588 148.639C257.918 148.869 257.175 148.985 256.368 148.985H256.379V148.995ZM252.861 142.5H259.248C259.164 141.934 258.965 141.431 258.661 141.002C258.358 140.572 257.981 140.227 257.541 139.986C257.091 139.734 256.609 139.619 256.086 139.619C255.562 139.619 255.049 139.734 254.599 139.975C254.149 140.216 253.772 140.551 253.468 140.981C253.164 141.41 252.965 141.924 252.861 142.5Z" fill="#102870"/>
<path d="M264.765 140.468C264.399 140.468 264.085 140.342 263.823 140.069C263.561 139.808 263.425 139.493 263.425 139.127C263.425 138.76 263.551 138.446 263.823 138.184C264.085 137.922 264.399 137.786 264.765 137.786C265.132 137.786 265.446 137.922 265.708 138.184C265.969 138.446 266.106 138.76 266.106 139.127C266.106 139.493 265.98 139.808 265.708 140.069C265.446 140.331 265.132 140.468 264.765 140.468ZM264.765 148.964C264.399 148.964 264.085 148.827 263.823 148.566C263.561 148.304 263.425 147.989 263.425 147.623C263.425 147.256 263.551 146.942 263.823 146.68C264.095 146.418 264.399 146.282 264.765 146.282C265.132 146.282 265.446 146.407 265.708 146.68C265.969 146.952 266.106 147.256 266.106 147.623C266.106 147.989 265.98 148.304 265.708 148.566C265.446 148.827 265.132 148.964 264.765 148.964Z" fill="#102870"/>
<path opacity="0.8" d="M81.9661 181.817C80.8876 181.817 79.893 181.618 78.9611 181.22C78.0397 180.822 77.2231 180.277 76.5216 179.575C75.8201 178.873 75.2756 178.056 74.8777 177.134C74.4799 176.212 74.2809 175.217 74.2809 174.148C74.2809 173.08 74.4799 172.095 74.8673 171.163C75.2547 170.23 75.7991 169.424 76.5006 168.722C77.2021 168.02 78.0188 167.475 78.9402 167.077C79.872 166.679 80.8667 166.48 81.9451 166.48C83.0864 166.48 84.1753 166.69 85.1909 167.119C86.2065 167.549 87.0755 168.146 87.798 168.921L86.6986 170.042C86.1332 169.392 85.4317 168.889 84.5836 168.523C83.746 168.167 82.856 167.978 81.9451 167.978C81.097 167.978 80.3118 168.135 79.5789 168.449C78.846 168.764 78.2177 169.193 77.6733 169.759C77.1288 170.325 76.6996 170.974 76.3959 171.708C76.0923 172.451 75.9352 173.258 75.9352 174.138C75.9352 175.018 76.0923 175.804 76.3959 176.558C76.6996 177.312 77.1288 177.962 77.6733 178.527C78.2177 179.093 78.8564 179.523 79.5789 179.837C80.3013 180.151 81.097 180.308 81.9451 180.308C82.9503 180.308 83.8612 180.088 84.6779 179.648C85.4945 179.208 86.1542 178.611 86.6463 177.847C87.1488 177.082 87.442 176.223 87.5258 175.259H82.1964V173.813H89.18V174.473C89.18 175.51 88.9916 176.474 88.6251 177.365C88.2587 178.255 87.7456 179.03 87.0965 179.701C86.4473 180.371 85.683 180.885 84.8035 181.262C83.924 181.639 82.9817 181.827 81.9556 181.827H81.9661V181.817Z" fill="#102870"/>
<path opacity="0.8" d="M94.7711 181.775C93.9964 181.775 93.3053 181.639 92.719 181.367C92.1327 181.094 91.672 180.728 91.3369 180.246C91.0019 179.764 90.8344 179.209 90.8344 178.57C90.8344 177.564 91.2218 176.768 91.9756 176.191C92.7295 175.615 93.7765 175.322 95.0748 175.322C96.216 175.322 97.2631 175.563 98.1949 176.045V174.641C98.1949 173.792 97.9541 173.153 97.4725 172.724C96.9908 172.294 96.2893 172.074 95.3679 172.074C94.8444 172.074 94.3209 172.148 93.7869 172.294C93.253 172.441 92.6771 172.682 92.0384 173.007L91.4416 171.791C92.2059 171.425 92.9179 171.152 93.5671 170.985C94.2162 170.817 94.8654 170.733 95.5145 170.733C96.8547 170.733 97.8913 171.048 98.6242 171.687C99.3571 172.326 99.7131 173.237 99.7131 174.421V181.576H98.1844V180.539C97.7028 180.948 97.1793 181.262 96.6034 181.461C96.0276 181.67 95.4098 181.765 94.7502 181.765H94.7711V181.775ZM92.3525 178.528C92.3525 179.125 92.6038 179.607 93.1064 179.984C93.609 180.361 94.2581 180.549 95.0434 180.549C95.6821 180.549 96.2579 180.455 96.7814 180.256C97.3049 180.057 97.7761 179.743 98.2054 179.324V177.323C97.7656 177.03 97.2945 176.81 96.8024 176.673C96.3103 176.537 95.7449 176.474 95.1271 176.474C94.279 176.474 93.5985 176.663 93.0959 177.04C92.5933 177.417 92.3421 177.91 92.3421 178.538H92.3525V178.528Z" fill="#102870"/>
<path opacity="0.8" d="M102.362 181.576V170.932H103.933V172.095C104.739 171.173 105.775 170.712 107.053 170.712C107.807 170.712 108.466 170.89 109.053 171.236C109.628 171.582 110.089 172.053 110.414 172.65C110.853 172.001 111.377 171.519 111.984 171.194C112.591 170.88 113.282 170.712 114.068 170.712C114.853 170.712 115.523 170.89 116.109 171.236C116.685 171.582 117.146 172.064 117.481 172.682C117.816 173.3 117.984 174.012 117.984 174.84V181.576H116.434V175.165C116.434 174.211 116.183 173.468 115.691 172.923C115.199 172.378 114.528 172.106 113.67 172.106C113.094 172.106 112.56 172.252 112.078 172.546C111.597 172.839 111.188 173.269 110.843 173.855C110.874 174.012 110.895 174.17 110.916 174.337C110.937 174.505 110.948 174.672 110.948 174.861V181.597H109.398V175.186C109.398 174.232 109.147 173.489 108.655 172.944C108.163 172.399 107.492 172.127 106.655 172.127C106.089 172.127 105.576 172.252 105.116 172.525C104.655 172.787 104.268 173.174 103.943 173.677V181.597H102.373V181.576H102.362Z" fill="#102870"/>
<path opacity="0.8" d="M125.585 181.775C124.569 181.775 123.637 181.534 122.81 181.042C121.983 180.55 121.324 179.89 120.831 179.051C120.339 178.213 120.099 177.281 120.099 176.244C120.099 175.207 120.329 174.306 120.8 173.468C121.271 172.64 121.899 171.98 122.685 171.488C123.48 170.995 124.36 170.754 125.334 170.754C126.307 170.754 127.135 170.995 127.888 171.488C128.642 171.98 129.25 172.63 129.689 173.468C130.129 174.306 130.359 175.217 130.359 176.244V176.736H121.638C121.721 177.428 121.941 178.056 122.308 178.601C122.674 179.146 123.135 179.586 123.721 179.911C124.297 180.225 124.936 180.392 125.627 180.392C126.182 180.392 126.716 180.309 127.239 180.141C127.763 179.973 128.203 179.732 128.558 179.418L129.532 180.455C128.935 180.895 128.318 181.22 127.679 181.44C127.03 181.66 126.328 181.765 125.564 181.765H125.585V181.775ZM121.701 175.49H128.81C128.726 174.851 128.517 174.285 128.182 173.782C127.847 173.279 127.438 172.881 126.936 172.588C126.444 172.294 125.899 172.148 125.302 172.148C124.705 172.148 124.13 172.294 123.627 172.577C123.114 172.86 122.695 173.258 122.35 173.751C122.015 174.253 121.795 174.83 121.69 175.479L121.701 175.49Z" fill="#102870"/>
<path opacity="0.8" d="M144.431 181.817C143.353 181.817 142.348 181.618 141.416 181.23C140.484 180.843 139.657 180.298 138.955 179.596C138.243 178.894 137.699 178.077 137.312 177.155C136.924 176.233 136.725 175.228 136.725 174.148C136.725 173.069 136.924 172.074 137.312 171.142C137.699 170.22 138.254 169.403 138.955 168.701C139.657 167.999 140.484 167.454 141.416 167.067C142.348 166.679 143.353 166.48 144.431 166.48C145.206 166.48 145.96 166.574 146.672 166.763C147.384 166.951 148.054 167.234 148.672 167.59C149.29 167.947 149.834 168.397 150.316 168.921L149.237 170.063C148.661 169.392 147.939 168.889 147.091 168.523C146.243 168.167 145.353 167.978 144.442 167.978C143.583 167.978 142.777 168.135 142.044 168.449C141.311 168.764 140.673 169.193 140.128 169.759C139.584 170.325 139.154 170.974 138.851 171.708C138.547 172.451 138.39 173.258 138.39 174.138C138.39 175.018 138.547 175.804 138.851 176.558C139.154 177.312 139.584 177.962 140.139 178.527C140.693 179.083 141.343 179.523 142.086 179.837C142.829 180.151 143.636 180.308 144.494 180.308C145.416 180.308 146.295 180.13 147.122 179.764C147.96 179.407 148.661 178.905 149.227 178.266L150.284 179.366C149.792 179.879 149.237 180.319 148.619 180.686C148.002 181.052 147.342 181.335 146.63 181.524C145.918 181.712 145.196 181.807 144.442 181.807L144.431 181.817Z" fill="#102870"/>
<path opacity="0.8" d="M157.121 181.775C156.106 181.775 155.174 181.534 154.347 181.042C153.519 180.55 152.86 179.89 152.368 179.051C151.876 178.213 151.635 177.281 151.635 176.244C151.635 175.207 151.865 174.306 152.336 173.468C152.807 172.64 153.436 171.98 154.221 171.488C155.017 170.995 155.896 170.754 156.87 170.754C157.844 170.754 158.671 170.995 159.425 171.488C160.178 171.98 160.786 172.63 161.226 173.468C161.665 174.306 161.896 175.217 161.896 176.244V176.736H153.174C153.258 177.428 153.478 178.056 153.844 178.601C154.21 179.146 154.671 179.586 155.258 179.911C155.833 180.225 156.472 180.392 157.163 180.392C157.718 180.392 158.252 180.309 158.775 180.141C159.299 179.973 159.739 179.732 160.095 179.418L161.068 180.455C160.472 180.895 159.854 181.22 159.215 181.44C158.566 181.66 157.865 181.765 157.1 181.765H157.121V181.775ZM153.237 175.49H160.346C160.262 174.851 160.053 174.285 159.718 173.782C159.383 173.279 158.974 172.881 158.472 172.588C157.98 172.294 157.435 172.148 156.839 172.148C156.242 172.148 155.666 172.294 155.163 172.577C154.65 172.86 154.231 173.258 153.886 173.751C153.551 174.253 153.331 174.83 153.226 175.479L153.237 175.49Z" fill="#102870"/>
<path opacity="0.8" d="M164.105 181.575V170.932H165.675V172.189C166.513 171.215 167.623 170.722 169.026 170.722C169.832 170.722 170.544 170.9 171.162 171.246C171.78 171.592 172.261 172.074 172.607 172.692C172.952 173.31 173.13 174.022 173.13 174.85V181.586H171.581V175.175C171.581 174.221 171.319 173.477 170.785 172.933C170.251 172.388 169.528 172.115 168.607 172.115C167.968 172.115 167.403 172.262 166.911 172.545C166.419 172.828 166 173.236 165.675 173.76V181.596H164.105V181.575Z" fill="#102870"/>
<path opacity="0.8" d="M179.622 181.796C178.7 181.796 177.999 181.576 177.496 181.136C177.004 180.696 176.753 180.057 176.753 179.23V172.284H174.46V170.943H176.753V168.251L178.302 167.853V170.953H181.506V172.294H178.302V178.831C178.302 179.397 178.428 179.806 178.679 180.057C178.931 180.309 179.349 180.424 179.936 180.424C180.229 180.424 180.501 180.403 180.732 180.361C180.962 180.319 181.213 180.246 181.485 180.151V181.534C181.213 181.629 180.92 181.702 180.585 181.744C180.25 181.786 179.936 181.807 179.622 181.807V181.796Z" fill="#102870"/>
<path opacity="0.8" d="M183.192 181.576V170.932H184.763V172.441C185.087 171.886 185.506 171.456 186.009 171.152C186.511 170.849 187.087 170.691 187.736 170.691C188.103 170.691 188.438 170.744 188.731 170.838V172.284C188.542 172.21 188.364 172.169 188.176 172.137C187.987 172.106 187.809 172.095 187.621 172.095C186.972 172.095 186.396 172.284 185.914 172.661C185.422 173.038 185.045 173.583 184.763 174.285V181.566H183.192V181.576Z" fill="#102870"/>
<path opacity="0.8" d="M194.783 181.775C193.767 181.775 192.835 181.534 192.008 181.042C191.181 180.55 190.521 179.89 190.029 179.051C189.537 178.213 189.296 177.281 189.296 176.244C189.296 175.207 189.526 174.306 189.998 173.468C190.469 172.64 191.097 171.98 191.882 171.488C192.678 170.995 193.558 170.754 194.531 170.754C195.505 170.754 196.332 170.995 197.086 171.488C197.84 171.98 198.447 172.63 198.887 173.468C199.327 174.306 199.557 175.217 199.557 176.244V176.736H190.835C190.919 177.428 191.139 178.056 191.505 178.601C191.872 179.146 192.332 179.586 192.919 179.911C193.495 180.225 194.133 180.392 194.824 180.392C195.379 180.392 195.913 180.309 196.437 180.141C196.96 179.973 197.4 179.732 197.756 179.418L198.73 180.455C198.133 180.895 197.515 181.22 196.877 181.44C196.227 181.66 195.526 181.765 194.762 181.765H194.783V181.775ZM190.898 175.49H198.007C197.924 174.851 197.714 174.285 197.379 173.782C197.044 173.279 196.636 172.881 196.133 172.588C195.641 172.294 195.097 172.148 194.5 172.148C193.903 172.148 193.327 172.294 192.825 172.577C192.312 172.86 191.893 173.258 191.547 173.751C191.212 174.253 190.992 174.83 190.888 175.479L190.898 175.49Z" fill="#102870"/>
<path opacity="0.8" d="M77.3174 214.345L74.1135 199.479H75.7678L78.2911 211.757L81.9662 199.479H83.5577L87.2327 211.716L89.777 199.479H91.3684L88.1645 214.345H86.5102L82.7514 201.753L78.9717 214.345H77.3174Z" fill="#102870"/>
<path opacity="0.8" d="M97.4097 214.565C96.4045 214.565 95.4936 214.324 94.6665 213.832C93.8393 213.34 93.1797 212.68 92.6981 211.841C92.2165 211.003 91.9756 210.071 91.9756 209.034C91.9756 207.997 92.2165 207.064 92.6981 206.226C93.1797 205.388 93.8289 204.728 94.6665 204.236C95.4936 203.743 96.415 203.502 97.4097 203.502C98.4043 203.502 99.3467 203.743 100.163 204.236C100.98 204.728 101.64 205.388 102.121 206.226C102.603 207.064 102.844 207.997 102.844 209.034C102.844 210.071 102.603 211.003 102.121 211.841C101.64 212.68 100.99 213.34 100.163 213.832C99.3467 214.324 98.4253 214.565 97.4097 214.565ZM97.4097 213.161C98.1321 213.161 98.7813 212.973 99.3781 212.606C99.9644 212.24 100.436 211.747 100.781 211.119C101.127 210.49 101.305 209.799 101.305 209.034C101.305 208.269 101.127 207.557 100.781 206.939C100.436 206.321 99.9644 205.828 99.3781 205.461C98.7917 205.095 98.1321 204.906 97.4097 204.906C96.6872 204.906 96.0381 205.095 95.4413 205.461C94.855 205.828 94.3838 206.321 94.0383 206.939C93.6928 207.557 93.5148 208.248 93.5148 209.034C93.5148 209.82 93.6928 210.49 94.0383 211.119C94.3838 211.747 94.855 212.24 95.4413 212.606C96.0276 212.973 96.6872 213.161 97.4097 213.161Z" fill="#102870"/>
<path opacity="0.8" d="M105.021 214.346V203.702H106.592V205.21C106.917 204.655 107.335 204.226 107.838 203.922C108.341 203.618 108.916 203.461 109.566 203.461C109.932 203.461 110.267 203.513 110.56 203.608V205.053C110.372 204.98 110.194 204.938 110.005 204.907C109.817 204.875 109.639 204.865 109.45 204.865C108.801 204.865 108.225 205.053 107.744 205.43C107.252 205.808 106.875 206.352 106.592 207.054V214.335H105.021V214.346Z" fill="#102870"/>
<path opacity="0.8" d="M112.361 214.345V199.48L113.932 199.124V214.345H112.361Z" fill="#102870"/>
<path opacity="0.8" d="M121.47 214.523C120.476 214.523 119.575 214.282 118.769 213.79C117.952 213.298 117.314 212.648 116.842 211.81C116.371 210.982 116.13 210.05 116.13 209.013C116.13 207.976 116.371 207.054 116.842 206.226C117.314 205.409 117.963 204.749 118.769 204.257C119.586 203.764 120.496 203.523 121.502 203.523C122.119 203.523 122.727 203.628 123.302 203.827C123.878 204.037 124.412 204.33 124.894 204.728V199.459L126.464 199.103V214.324H124.915V213.203C123.983 214.062 122.831 214.502 121.481 214.502V214.523H121.47ZM121.617 213.14C122.287 213.14 122.905 213.015 123.47 212.742C124.046 212.481 124.517 212.114 124.883 211.653V206.383C124.517 205.933 124.046 205.577 123.47 205.315C122.894 205.053 122.276 204.917 121.617 204.917C120.884 204.917 120.214 205.095 119.606 205.451C118.999 205.807 118.528 206.289 118.183 206.907C117.837 207.525 117.659 208.217 117.659 209.002C117.659 209.788 117.837 210.48 118.183 211.108C118.528 211.737 118.999 212.229 119.606 212.596C120.203 212.962 120.873 213.151 121.617 213.151V213.14Z" fill="#102870"/>
<path opacity="0.8" d="M138.641 214.565C137.636 214.565 136.725 214.324 135.898 213.832C135.071 213.34 134.411 212.68 133.93 211.841C133.448 211.003 133.207 210.071 133.207 209.034C133.207 207.997 133.448 207.064 133.93 206.226C134.411 205.388 135.061 204.728 135.898 204.236C136.725 203.743 137.647 203.502 138.641 203.502C139.636 203.502 140.578 203.743 141.395 204.236C142.212 204.728 142.871 205.388 143.353 206.226C143.835 207.064 144.075 207.997 144.075 209.034C144.075 210.071 143.835 211.003 143.353 211.841C142.871 212.68 142.222 213.34 141.395 213.832C140.578 214.324 139.657 214.565 138.641 214.565ZM138.641 213.161C139.364 213.161 140.013 212.973 140.61 212.606C141.196 212.24 141.667 211.747 142.013 211.119C142.358 210.49 142.536 209.799 142.536 209.034C142.536 208.269 142.358 207.557 142.013 206.939C141.667 206.321 141.196 205.828 140.61 205.461C140.023 205.095 139.364 204.906 138.641 204.906C137.919 204.906 137.27 205.095 136.673 205.461C136.087 205.828 135.615 206.321 135.27 206.939C134.924 207.557 134.746 208.248 134.746 209.034C134.746 209.82 134.924 210.49 135.27 211.119C135.615 211.747 136.087 212.24 136.673 212.606C137.259 212.973 137.919 213.161 138.641 213.161Z" fill="#102870"/>
<path opacity="0.8" d="M147.038 214.345V205.043H144.536V203.702H147.038V201.68C147.038 200.632 147.321 199.836 147.887 199.281C148.452 198.725 149.269 198.453 150.326 198.453C150.609 198.453 150.86 198.464 151.09 198.495C151.321 198.526 151.541 198.568 151.75 198.642V200.045C151.509 199.972 151.289 199.92 151.09 199.888C150.891 199.857 150.672 199.836 150.431 199.836C149.813 199.836 149.342 199.993 149.038 200.297C148.735 200.601 148.578 201.083 148.578 201.732V203.712H151.74V205.053H148.578V214.356H147.028H147.038V214.345Z" fill="#102870"/>
<path opacity="0.8" d="M158.315 214.345V199.479H168.953V200.925H159.959V206.237H165.853V207.661H159.959V214.356H158.315V214.345Z" fill="#102870"/>
<path opacity="0.8" d="M172.67 214.544C171.895 214.544 171.204 214.408 170.617 214.136C170.031 213.863 169.57 213.497 169.235 213.015C168.9 212.533 168.733 211.978 168.733 211.339C168.733 210.333 169.12 209.537 169.874 208.961C170.628 208.384 171.675 208.091 172.973 208.091C174.114 208.091 175.161 208.332 176.093 208.814V207.41C176.093 206.561 175.852 205.922 175.371 205.493C174.889 205.063 174.188 204.843 173.266 204.843C172.743 204.843 172.219 204.917 171.685 205.063C171.151 205.21 170.575 205.451 169.937 205.776L169.34 204.561C170.104 204.194 170.816 203.922 171.465 203.754C172.115 203.586 172.764 203.502 173.413 203.502C174.753 203.502 175.79 203.817 176.523 204.456C177.255 205.095 177.611 206.006 177.611 207.19V214.345H176.083V213.308C175.601 213.717 175.078 214.031 174.502 214.23C173.926 214.44 173.308 214.534 172.649 214.534H172.67V214.544ZM170.251 211.297C170.251 211.894 170.502 212.376 171.005 212.753C171.507 213.13 172.156 213.319 172.942 213.319C173.58 213.319 174.156 213.224 174.68 213.025C175.203 212.826 175.674 212.512 176.104 212.093V210.092C175.664 209.799 175.193 209.579 174.701 209.442C174.209 209.306 173.643 209.243 173.026 209.243C172.177 209.243 171.497 209.432 170.994 209.809C170.492 210.186 170.24 210.679 170.24 211.307H170.251V211.297Z" fill="#102870"/>
<path opacity="0.8" d="M184.124 214.565C183.202 214.565 182.501 214.345 181.998 213.905C181.506 213.465 181.255 212.826 181.255 211.999V205.053H178.962V203.712H181.255V201.02L182.805 200.622V203.723H186.008V205.063H182.805V211.601C182.805 212.166 182.93 212.575 183.181 212.826C183.433 213.078 183.852 213.193 184.438 213.193C184.731 213.193 185.003 213.172 185.234 213.13C185.464 213.088 185.715 213.015 185.987 212.921V214.303C185.715 214.398 185.422 214.471 185.087 214.513C184.752 214.555 184.438 214.576 184.124 214.576V214.565Z" fill="#102870"/>
<path opacity="0.8" d="M192.458 214.544C191.443 214.544 190.511 214.303 189.684 213.811C188.856 213.319 188.197 212.659 187.705 211.82C187.213 210.982 186.972 210.05 186.972 209.013C186.972 207.976 187.202 207.075 187.673 206.237C188.144 205.409 188.773 204.749 189.558 204.257C190.354 203.764 191.233 203.523 192.207 203.523C193.181 203.523 194.008 203.764 194.762 204.257C195.515 204.749 196.123 205.399 196.562 206.237C197.002 207.075 197.233 207.986 197.233 209.013V209.505H188.511C188.595 210.197 188.814 210.825 189.181 211.37C189.547 211.915 190.008 212.355 190.594 212.68C191.17 212.994 191.809 213.161 192.5 213.161C193.055 213.161 193.589 213.078 194.112 212.91C194.636 212.742 195.076 212.501 195.432 212.187L196.405 213.224C195.809 213.664 195.191 213.989 194.552 214.209C193.903 214.429 193.202 214.534 192.437 214.534H192.458V214.544ZM188.574 208.259H195.683C195.599 207.62 195.39 207.054 195.055 206.551C194.72 206.048 194.311 205.65 193.809 205.357C193.317 205.063 192.772 204.917 192.175 204.917C191.579 204.917 191.003 205.063 190.5 205.346C189.987 205.629 189.568 206.027 189.223 206.52C188.888 207.022 188.668 207.599 188.563 208.248L188.574 208.259Z" fill="#102870"/>
<path opacity="0.8" d="M209.315 218.871C207.598 217.855 206.289 216.503 205.389 214.827C204.478 213.151 204.028 211.224 204.028 209.065C204.028 206.907 204.478 204.98 205.389 203.304C206.289 201.627 207.598 200.286 209.315 199.281L210.142 200.339C208.666 201.198 207.535 202.392 206.74 203.911C205.944 205.43 205.535 207.148 205.535 209.076C205.535 211.004 205.933 212.722 206.74 214.251C207.535 215.77 208.677 216.954 210.142 217.813L209.315 218.892V218.871Z" fill="#102870"/>
<path opacity="0.8" d="M216.655 214.345V200.946H211.284V199.479H223.659V200.946H218.288V214.345H216.655Z" fill="#102870"/>
<path opacity="0.8" d="M226.476 214.544C225.701 214.544 225.01 214.408 224.424 214.136C223.837 213.863 223.377 213.497 223.042 213.015C222.707 212.533 222.539 211.978 222.539 211.339C222.539 210.333 222.926 209.537 223.68 208.961C224.434 208.384 225.481 208.091 226.779 208.091C227.921 208.091 228.968 208.332 229.9 208.814V207.41C229.9 206.561 229.659 205.922 229.177 205.493C228.695 205.063 227.994 204.843 227.073 204.843C226.549 204.843 226.026 204.917 225.492 205.063C224.958 205.21 224.382 205.451 223.743 205.776L223.146 204.561C223.911 204.194 224.623 203.922 225.272 203.754C225.921 203.586 226.57 203.502 227.219 203.502C228.559 203.502 229.596 203.817 230.329 204.456C231.062 205.095 231.418 206.006 231.418 207.19V214.345H229.889V213.308C229.407 213.717 228.884 214.031 228.308 214.23C227.732 214.44 227.114 214.534 226.455 214.534H226.476V214.544ZM224.057 211.297C224.057 211.894 224.308 212.376 224.811 212.753C225.314 213.13 225.963 213.319 226.748 213.319C227.387 213.319 227.963 213.224 228.486 213.025C229.01 212.826 229.481 212.512 229.91 212.093V210.092C229.47 209.799 228.999 209.579 228.507 209.442C228.015 209.306 227.45 209.243 226.832 209.243C225.984 209.243 225.303 209.432 224.801 209.809C224.298 210.186 224.047 210.679 224.047 211.307H224.057V211.297Z" fill="#102870"/>
<path opacity="0.8" d="M234.077 214.346V203.702H235.648V205.21C235.972 204.655 236.391 204.226 236.894 203.922C237.396 203.618 237.972 203.461 238.621 203.461C238.988 203.461 239.323 203.513 239.616 203.608V205.053C239.427 204.98 239.249 204.938 239.061 204.907C238.873 204.875 238.695 204.865 238.506 204.865C237.857 204.865 237.281 205.053 236.799 205.43C236.307 205.808 235.93 206.352 235.648 207.054V214.335H234.077V214.346Z" fill="#102870"/>
<path opacity="0.8" d="M245.636 214.565C244.631 214.565 243.72 214.324 242.893 213.832C242.066 213.34 241.406 212.68 240.925 211.841C240.443 211.003 240.202 210.071 240.202 209.034C240.202 207.997 240.443 207.064 240.925 206.226C241.406 205.388 242.055 204.728 242.893 204.236C243.72 203.743 244.642 203.502 245.636 203.502C246.631 203.502 247.573 203.743 248.39 204.236C249.207 204.728 249.866 205.388 250.348 206.226C250.829 207.064 251.07 207.997 251.07 209.034C251.07 210.071 250.829 211.003 250.348 211.841C249.866 212.68 249.217 213.34 248.39 213.832C247.573 214.324 246.652 214.565 245.636 214.565ZM245.636 213.161C246.359 213.161 247.008 212.973 247.605 212.606C248.191 212.24 248.662 211.747 249.008 211.119C249.353 210.49 249.531 209.799 249.531 209.034C249.531 208.269 249.353 207.557 249.008 206.939C248.662 206.321 248.191 205.828 247.605 205.461C247.018 205.095 246.359 204.906 245.636 204.906C244.914 204.906 244.265 205.095 243.668 205.461C243.082 205.828 242.61 206.321 242.265 206.939C241.919 207.557 241.741 208.248 241.741 209.034C241.741 209.82 241.919 210.49 242.265 211.119C242.61 211.747 243.082 212.24 243.668 212.606C244.254 212.973 244.914 213.161 245.636 213.161Z" fill="#102870"/>
<path opacity="0.8" d="M256.693 214.565C255.771 214.565 255.07 214.345 254.567 213.905C254.075 213.465 253.824 212.826 253.824 211.999V205.053H251.531V203.712H253.824V201.02L255.374 200.622V203.723H258.577V205.063H255.374V211.601C255.374 212.166 255.499 212.575 255.75 212.826C256.002 213.078 256.421 213.193 257.007 213.193C257.3 213.193 257.572 213.172 257.803 213.13C258.033 213.088 258.284 213.015 258.556 212.921V214.303C258.284 214.398 257.991 214.471 257.656 214.513C257.321 214.555 257.007 214.576 256.693 214.576V214.565Z" fill="#102870"/>
<path opacity="0.8" d="M260.525 199.144C262.231 200.161 263.54 201.512 264.451 203.188C265.352 204.864 265.812 206.792 265.812 208.95C265.812 211.108 265.362 213.036 264.451 214.712C263.54 216.388 262.231 217.729 260.525 218.735L259.698 217.677C261.174 216.818 262.305 215.623 263.101 214.104C263.896 212.585 264.305 210.867 264.305 208.94C264.305 207.012 263.907 205.294 263.101 203.764C262.305 202.245 261.164 201.062 259.698 200.203L260.525 199.124V199.144Z" fill="#102870"/>
<path opacity="0.8" d="M80.8248 247.356C79.5684 247.356 78.4795 247.094 77.5581 246.56C76.6367 246.025 75.9352 245.271 75.4327 244.297C74.9406 243.323 74.6893 242.17 74.6893 240.84V232.26H76.3226V240.84C76.3226 241.856 76.5111 242.746 76.8775 243.49C77.244 244.244 77.7675 244.821 78.4481 245.229C79.1286 245.638 79.9244 245.847 80.8248 245.847C81.7252 245.847 82.5419 245.638 83.212 245.229C83.8821 244.821 84.4056 244.234 84.7721 243.49C85.1385 242.736 85.327 241.856 85.327 240.84V232.26H86.9603V240.84C86.9603 242.17 86.7091 243.323 86.2065 244.297C85.7039 245.271 84.9919 246.025 84.081 246.56C83.1701 247.094 82.0812 247.356 80.8248 247.356Z" fill="#102870"/>
<path opacity="0.8" d="M88.3739 247.125L94.1011 239.415L88.7299 232.26H90.7297L95.0853 238.158L99.4409 232.26H101.346L96.0381 239.394L101.786 247.125H99.8074L95.0539 240.651L90.2795 247.125H88.3739Z" fill="#102870"/>
<path opacity="0.8" d="M100.624 251.452L109.555 232.26H111.147L102.194 251.452H100.624Z" fill="#102870"/>
<path opacity="0.8" d="M119.219 247.356C117.963 247.356 116.874 247.094 115.952 246.56C115.031 246.025 114.329 245.271 113.827 244.297C113.335 243.323 113.083 242.17 113.083 240.84V232.26H114.717V240.84C114.717 241.856 114.905 242.746 115.272 243.49C115.638 244.244 116.162 244.821 116.842 245.229C117.523 245.638 118.319 245.847 119.219 245.847C120.119 245.847 120.936 245.638 121.606 245.229C122.276 244.821 122.8 244.234 123.166 243.49C123.533 242.736 123.721 241.856 123.721 240.84V232.26H125.355V240.84C125.355 242.17 125.103 243.323 124.601 244.297C124.098 245.271 123.386 246.025 122.475 246.56C121.564 247.094 120.475 247.356 119.219 247.356Z" fill="#102870"/>
<path opacity="0.8" d="M128.318 247.125V232.26H129.951V247.125H128.318Z" fill="#102870"/>
<path opacity="0.8" d="M143.625 247.356C142.369 247.356 141.28 247.094 140.358 246.56C139.437 246.025 138.736 245.271 138.233 244.297C137.741 243.323 137.49 242.17 137.49 240.84V232.26H139.123V240.84C139.123 241.856 139.311 242.746 139.678 243.49C140.044 244.244 140.568 244.821 141.248 245.229C141.929 245.638 142.725 245.847 143.625 245.847C144.526 245.847 145.342 245.638 146.012 245.229C146.682 244.821 147.206 244.234 147.572 243.49C147.939 242.736 148.127 241.856 148.127 240.84V232.26H149.761V240.84C149.761 242.17 149.509 243.323 149.007 244.297C148.504 245.271 147.792 246.025 146.881 246.56C145.97 247.094 144.882 247.356 143.625 247.356Z" fill="#102870"/>
<path opacity="0.8" d="M152.441 251.452V236.481H153.991V237.623C154.912 236.743 156.053 236.303 157.425 236.303C158.43 236.303 159.33 236.544 160.137 237.037C160.943 237.529 161.582 238.178 162.053 239.006C162.524 239.823 162.765 240.756 162.765 241.793C162.765 242.83 162.524 243.762 162.053 244.59C161.582 245.417 160.943 246.077 160.137 246.57C159.33 247.062 158.42 247.303 157.404 247.303C156.786 247.303 156.179 247.198 155.603 246.989C155.027 246.779 154.493 246.476 154.012 246.077V251.473H152.441V251.452ZM157.278 245.91C158.032 245.91 158.702 245.732 159.299 245.365C159.896 244.998 160.367 244.516 160.713 243.898C161.058 243.28 161.236 242.589 161.236 241.803C161.236 241.017 161.058 240.326 160.713 239.697C160.367 239.069 159.896 238.587 159.299 238.22C158.702 237.864 158.032 237.676 157.278 237.676C156.619 237.676 155.99 237.801 155.425 238.074C154.86 238.346 154.378 238.702 154.012 239.163V244.433C154.378 244.883 154.849 245.239 155.436 245.501C156.011 245.763 156.629 245.899 157.278 245.899V245.91Z" fill="#102870"/>
<path opacity="0.8" d="M169.811 247.293C168.816 247.293 167.916 247.052 167.11 246.56C166.293 246.067 165.654 245.418 165.183 244.58C164.712 243.752 164.471 242.82 164.471 241.782C164.471 240.745 164.712 239.823 165.183 238.996C165.654 238.179 166.304 237.519 167.11 237.026C167.926 236.534 168.837 236.293 169.843 236.293C170.46 236.293 171.068 236.398 171.643 236.597C172.219 236.806 172.753 237.1 173.235 237.498V232.228L174.805 231.872V247.094H173.256V245.973C172.324 246.832 171.172 247.272 169.822 247.272V247.293H169.811ZM169.958 245.91C170.628 245.91 171.246 245.784 171.811 245.512C172.387 245.25 172.858 244.883 173.224 244.422V239.153C172.858 238.702 172.387 238.346 171.811 238.084C171.235 237.822 170.617 237.686 169.958 237.686C169.225 237.686 168.555 237.864 167.947 238.221C167.34 238.577 166.869 239.059 166.523 239.677C166.178 240.295 166 240.986 166 241.772C166 242.558 166.178 243.249 166.523 243.878C166.869 244.506 167.34 244.999 167.947 245.365C168.544 245.732 169.214 245.921 169.958 245.921V245.91Z" fill="#102870"/>
<path opacity="0.8" d="M180.826 247.314C180.051 247.314 179.36 247.178 178.774 246.905C178.187 246.633 177.727 246.266 177.392 245.784C177.056 245.302 176.889 244.747 176.889 244.108C176.889 243.102 177.276 242.306 178.03 241.73C178.784 241.154 179.831 240.861 181.129 240.861C182.271 240.861 183.318 241.101 184.25 241.583V240.18C184.25 239.331 184.009 238.692 183.527 238.262C183.045 237.833 182.344 237.613 181.423 237.613C180.899 237.613 180.376 237.686 179.842 237.833C179.308 237.98 178.732 238.221 178.093 238.545L177.496 237.33C178.261 236.963 178.973 236.691 179.622 236.523C180.271 236.356 180.92 236.272 181.569 236.272C182.909 236.272 183.946 236.586 184.679 237.225C185.412 237.864 185.768 238.776 185.768 239.96V247.115H184.239V246.078C183.757 246.486 183.234 246.8 182.658 247C182.082 247.209 181.464 247.303 180.805 247.303H180.826V247.314ZM178.407 244.066C178.407 244.663 178.658 245.145 179.161 245.522C179.664 245.9 180.313 246.088 181.098 246.088C181.737 246.088 182.313 245.994 182.836 245.795C183.36 245.596 183.831 245.281 184.26 244.862V242.861C183.82 242.568 183.349 242.348 182.857 242.212C182.365 242.076 181.8 242.013 181.182 242.013C180.334 242.013 179.653 242.201 179.151 242.579C178.648 242.956 178.397 243.448 178.397 244.077H178.407V244.066Z" fill="#102870"/>
<path opacity="0.8" d="M192.301 247.335C191.38 247.335 190.678 247.115 190.176 246.675C189.684 246.235 189.432 245.596 189.432 244.769V237.823H187.139V236.482H189.432V233.79L190.982 233.392V236.493H194.186V237.833H190.982V244.371C190.982 244.936 191.108 245.345 191.359 245.596C191.61 245.848 192.029 245.963 192.615 245.963C192.908 245.963 193.181 245.942 193.411 245.9C193.641 245.858 193.893 245.785 194.165 245.691V247.073C193.893 247.168 193.599 247.241 193.264 247.283C192.929 247.325 192.615 247.346 192.301 247.346V247.335Z" fill="#102870"/>
<path opacity="0.8" d="M200.625 247.313C199.609 247.313 198.677 247.072 197.85 246.58C197.023 246.088 196.364 245.428 195.871 244.59C195.379 243.751 195.138 242.819 195.138 241.782C195.138 240.745 195.369 239.844 195.84 239.006C196.311 238.178 196.939 237.518 197.725 237.026C198.52 236.533 199.4 236.292 200.374 236.292C201.347 236.292 202.174 236.533 202.928 237.026C203.682 237.518 204.289 238.168 204.729 239.006C205.169 239.844 205.399 240.755 205.399 241.782V242.274H196.678C196.761 242.966 196.981 243.594 197.348 244.139C197.714 244.684 198.175 245.124 198.761 245.449C199.337 245.763 199.976 245.93 200.667 245.93C201.222 245.93 201.756 245.847 202.279 245.679C202.803 245.511 203.242 245.27 203.598 244.956L204.572 245.993C203.975 246.433 203.358 246.758 202.719 246.978C202.07 247.198 201.368 247.303 200.604 247.303H200.625V247.313ZM196.74 241.028H203.85C203.766 240.389 203.557 239.823 203.221 239.32C202.886 238.817 202.478 238.419 201.976 238.126C201.483 237.832 200.939 237.686 200.342 237.686C199.745 237.686 199.17 237.832 198.667 238.115C198.154 238.398 197.735 238.796 197.39 239.289C197.055 239.791 196.835 240.368 196.73 241.017L196.74 241.028Z" fill="#102870"/>
<path d="M435.074 153.909C433.796 153.909 432.76 152.872 432.76 151.594V120.207C432.76 119.359 432.069 118.667 431.231 118.667C431.043 118.667 430.844 118.709 430.666 118.783L426.174 120.584C425.891 120.7 425.609 120.752 425.315 120.752C424.719 120.752 424.132 120.511 423.703 120.092C423.253 119.652 423.002 119.065 423.002 118.426V113.136C423.002 112.183 423.577 111.334 424.457 110.978L436.717 106.065C436.99 105.96 437.283 105.897 437.576 105.897H442.152C443.429 105.897 444.465 106.934 444.465 108.212V151.583C444.465 152.861 443.429 153.898 442.152 153.898H435.074V153.909Z" fill="#7DE3DB"/>
<path d="M442.152 106.284C443.22 106.284 444.078 107.143 444.078 108.212V151.583C444.078 152.651 443.22 153.51 442.152 153.51H435.084C434.016 153.51 433.158 152.651 433.158 151.583V120.196C433.158 119.086 432.247 118.269 431.231 118.269C430.99 118.269 430.75 118.311 430.519 118.405L426.028 120.207C425.787 120.301 425.546 120.343 425.316 120.343C424.3 120.343 423.389 119.515 423.389 118.415V113.125C423.389 112.339 423.871 111.627 424.604 111.333L436.875 106.42C437.105 106.326 437.346 106.284 437.587 106.284H442.162M442.162 105.498H437.587C437.241 105.498 436.906 105.561 436.582 105.697L424.31 110.611C423.274 111.03 422.604 112.014 422.604 113.125V118.415C422.604 119.913 423.818 121.129 425.316 121.129C425.661 121.129 425.996 121.066 426.321 120.93L430.812 119.128C430.949 119.075 431.095 119.044 431.242 119.044C431.786 119.044 432.383 119.484 432.383 120.186V151.572C432.383 153.07 433.598 154.285 435.095 154.285H442.162C443.659 154.285 444.874 153.07 444.874 151.572V108.201C444.874 106.703 443.659 105.488 442.162 105.488V105.498Z" fill="#00C9B8"/>
<path d="M491.351 156.308C490.639 156.308 489.979 155.983 489.529 155.428L488.147 153.689C487.854 153.322 487.404 153.102 486.953 153.102C486.796 153.102 486.639 153.123 486.493 153.175C485.341 153.563 484.147 153.877 482.922 154.129C481.258 154.474 479.499 154.642 477.687 154.642C474.107 154.642 470.714 154.013 467.625 152.756C464.537 151.51 461.794 149.739 459.48 147.476C457.155 145.224 455.323 142.573 454.035 139.598C452.737 136.613 452.077 133.354 452.077 129.897C452.077 126.44 452.737 123.182 454.035 120.197C455.333 117.221 457.166 114.571 459.48 112.318C461.794 110.066 464.537 108.296 467.625 107.039C470.714 105.792 474.096 105.153 477.687 105.153C481.279 105.153 484.66 105.781 487.749 107.039C490.838 108.285 493.581 110.066 495.895 112.318C498.209 114.571 500.041 117.221 501.339 120.197C502.638 123.182 503.297 126.44 503.297 129.897C503.297 133.354 502.659 136.393 501.413 139.326C500.376 141.767 498.994 143.988 497.308 145.947C496.837 146.492 496.827 147.298 497.288 147.874L499.214 150.305C499.685 150.891 499.832 151.646 499.633 152.369C499.434 153.091 498.91 153.657 498.209 153.919L492.168 156.161C491.906 156.255 491.634 156.308 491.361 156.308H491.351ZM477.698 116.603C475.876 116.603 474.159 116.949 472.599 117.619C471.028 118.29 469.657 119.233 468.505 120.396C467.353 121.569 466.442 122.973 465.793 124.586C465.144 126.199 464.809 127.98 464.809 129.897C464.809 131.814 465.144 133.554 465.793 135.177C466.442 136.812 467.353 138.226 468.505 139.399C469.657 140.573 471.028 141.505 472.599 142.175C474.159 142.846 475.876 143.192 477.698 143.192C478.179 143.192 478.661 143.171 479.111 143.129C479.352 143.108 479.582 143.076 479.813 143.045L477.405 139.975C476.944 139.389 476.797 138.634 476.996 137.912C477.195 137.189 477.719 136.623 478.42 136.361L484.462 134.13C484.723 134.035 484.985 133.983 485.268 133.983C485.99 133.983 486.66 134.308 487.1 134.874L487.173 134.968C487.466 135.345 487.896 135.554 488.367 135.554C489.047 135.554 489.634 135.135 489.843 134.486C489.906 134.297 489.969 134.109 490.021 133.92C490.388 132.632 490.576 131.28 490.576 129.876C490.576 127.959 490.241 126.168 489.592 124.565C488.943 122.962 488.032 121.548 486.88 120.375C485.728 119.201 484.357 118.269 482.786 117.598C481.226 116.928 479.509 116.582 477.677 116.582L477.698 116.603Z" fill="#7DE3DB"/>
<path d="M477.687 105.551C481.237 105.551 484.545 106.169 487.603 107.405C490.66 108.641 493.33 110.37 495.623 112.601C497.916 114.833 499.706 117.41 500.984 120.364C502.261 123.308 502.91 126.493 502.91 129.908C502.91 133.323 502.292 136.288 501.057 139.179C500.031 141.589 498.68 143.768 497.015 145.695C496.419 146.387 496.419 147.403 496.984 148.126L498.91 150.556C499.727 151.583 499.298 153.102 498.073 153.563L492.032 155.805C491.812 155.888 491.592 155.92 491.361 155.92C490.786 155.92 490.22 155.658 489.854 155.187L488.472 153.448C488.105 152.976 487.54 152.714 486.964 152.714C486.765 152.714 486.577 152.746 486.378 152.809C485.236 153.186 484.053 153.5 482.849 153.751C481.205 154.087 479.488 154.254 477.687 154.254C474.138 154.254 470.829 153.636 467.772 152.4C464.715 151.164 462.045 149.435 459.752 147.204C457.459 144.972 455.669 142.395 454.391 139.441C453.114 136.487 452.475 133.312 452.475 129.897C452.475 126.482 453.114 123.297 454.391 120.354C455.669 117.41 457.459 114.822 459.752 112.591C462.045 110.37 464.715 108.631 467.772 107.395C470.829 106.158 474.128 105.54 477.687 105.54M477.687 143.59C478.179 143.59 478.661 143.569 479.132 143.527C479.603 143.485 480.064 143.411 480.514 143.328L477.698 139.745C476.892 138.718 477.321 137.199 478.546 136.749L484.587 134.517C484.807 134.433 485.027 134.402 485.257 134.402C485.844 134.402 486.409 134.664 486.776 135.146L486.849 135.24C487.247 135.743 487.802 135.984 488.357 135.984C489.142 135.984 489.917 135.512 490.21 134.643C490.273 134.454 490.335 134.255 490.388 134.056C490.765 132.726 490.964 131.343 490.964 129.908C490.964 127.928 490.629 126.105 489.948 124.439C489.278 122.774 488.336 121.338 487.152 120.123C485.959 118.908 484.556 117.955 482.943 117.253C481.321 116.561 479.572 116.205 477.687 116.205C475.803 116.205 474.044 116.551 472.431 117.253C470.808 117.955 469.405 118.908 468.222 120.123C467.029 121.338 466.097 122.774 465.427 124.439C464.757 126.105 464.411 127.928 464.411 129.908C464.411 131.888 464.746 133.648 465.427 135.334C466.107 137.021 467.029 138.467 468.222 139.682C469.416 140.897 470.819 141.85 472.431 142.552C474.054 143.254 475.803 143.6 477.687 143.6M477.687 104.765C474.054 104.765 470.62 105.404 467.479 106.682C464.338 107.95 461.553 109.752 459.207 112.036C456.852 114.319 454.988 117.022 453.679 120.039C452.36 123.067 451.69 126.388 451.69 129.897C451.69 133.407 452.36 136.728 453.679 139.755C454.998 142.783 456.852 145.475 459.207 147.759C461.563 150.053 464.348 151.855 467.479 153.123C470.61 154.39 474.044 155.04 477.687 155.04C479.53 155.04 481.321 154.862 483.006 154.516C484.242 154.265 485.456 153.94 486.618 153.552C486.723 153.521 486.838 153.5 486.954 153.5C487.289 153.5 487.624 153.668 487.843 153.94L489.226 155.679C489.739 156.328 490.513 156.706 491.351 156.706C491.676 156.706 491.99 156.653 492.293 156.538L498.335 154.296C499.162 153.992 499.769 153.332 500.01 152.484C500.251 151.635 500.073 150.755 499.528 150.064L497.602 147.633C497.267 147.204 497.267 146.607 497.612 146.209C499.319 144.229 500.722 141.966 501.779 139.493C503.046 136.508 503.695 133.281 503.695 129.908C503.695 126.534 503.025 123.077 501.706 120.05C500.387 117.022 498.534 114.33 496.178 112.046C493.822 109.762 491.037 107.96 487.906 106.682C484.765 105.415 481.331 104.765 477.698 104.765H477.687ZM477.687 142.814C475.918 142.814 474.253 142.479 472.735 141.83C471.217 141.18 469.887 140.269 468.767 139.137C467.657 138.006 466.767 136.623 466.139 135.041C465.511 133.459 465.186 131.731 465.186 129.897C465.186 128.064 465.511 126.294 466.139 124.733C466.767 123.172 467.657 121.799 468.767 120.668C469.877 119.536 471.217 118.625 472.735 117.975C474.243 117.326 475.918 116.991 477.687 116.991C479.457 116.991 481.122 117.326 482.64 117.975C484.158 118.625 485.488 119.536 486.608 120.668C487.718 121.799 488.608 123.172 489.236 124.733C489.864 126.294 490.189 128.033 490.189 129.897C490.189 131.259 490.011 132.579 489.644 133.826C489.592 134.014 489.529 134.192 489.477 134.381C489.278 134.978 488.754 135.188 488.367 135.188C488.168 135.188 487.781 135.135 487.477 134.748L487.404 134.653C486.891 133.983 486.105 133.606 485.268 133.606C484.943 133.606 484.629 133.658 484.325 133.773L478.284 136.005C477.457 136.309 476.85 136.969 476.619 137.817C476.379 138.666 476.557 139.546 477.101 140.227L479.08 142.751C478.64 142.793 478.179 142.814 477.708 142.814H477.687Z" fill="#00C9B8"/>
<path d="M433.147 143.181V111.795C433.147 110.433 431.776 109.501 430.509 110.004L426.017 111.806C424.75 112.308 423.378 111.376 423.378 110.014V104.724C423.378 103.938 423.86 103.226 424.593 102.932L436.864 98.019C437.094 97.9247 437.335 97.8828 437.576 97.8828H442.152C443.22 97.8828 444.078 98.7418 444.078 99.8104V143.181C444.078 144.25 443.22 145.109 442.152 145.109H435.084C434.016 145.109 433.158 144.25 433.158 143.181H433.147Z" fill="white" stroke="#00C9B8" stroke-width="0.75" stroke-miterlimit="10"/>
<path d="M489.843 146.775L488.461 145.036C487.969 144.407 487.132 144.145 486.378 144.397C485.237 144.774 484.053 145.088 482.849 145.339C481.205 145.675 479.488 145.842 477.687 145.842C474.138 145.842 470.83 145.224 467.772 143.988C464.715 142.752 462.045 141.023 459.752 138.792C457.459 136.56 455.669 133.983 454.391 131.029C453.114 128.075 452.465 124.901 452.465 121.485C452.465 118.07 453.103 114.885 454.391 111.942C455.669 108.998 457.459 106.41 459.752 104.179C462.045 101.958 464.715 100.219 467.772 98.9827C470.83 97.7465 474.128 97.1284 477.687 97.1284C481.247 97.1284 484.545 97.7465 487.603 98.9827C490.66 100.219 493.33 101.947 495.623 104.179C497.916 106.41 499.706 108.987 500.984 111.942C502.261 114.885 502.91 118.07 502.91 121.485C502.91 124.901 502.292 127.865 501.057 130.757C500.031 133.166 498.68 135.345 497.015 137.273C496.419 137.964 496.419 138.98 496.984 139.703L498.911 142.134C499.727 143.16 499.298 144.679 498.073 145.14L492.032 147.382C491.246 147.676 490.367 147.424 489.854 146.775H489.843ZM477.698 135.188C478.19 135.188 478.672 135.167 479.143 135.125C479.614 135.083 480.075 135.01 480.525 134.926L477.708 131.343C476.902 130.317 477.332 128.798 478.557 128.347L484.598 126.116C485.383 125.822 486.273 126.074 486.786 126.744L486.859 126.839C487.812 128.064 489.728 127.719 490.22 126.241C490.283 126.053 490.346 125.854 490.398 125.655C490.775 124.324 490.974 122.942 490.974 121.506C490.974 119.526 490.639 117.703 489.959 116.038C489.288 114.372 488.346 112.937 487.163 111.722C485.969 110.506 484.566 109.553 482.954 108.851C481.331 108.16 479.583 107.804 477.698 107.804C475.813 107.804 474.054 108.149 472.442 108.851C470.819 109.553 469.416 110.506 468.233 111.722C467.039 112.937 466.107 114.372 465.437 116.038C464.767 117.703 464.422 119.526 464.422 121.506C464.422 123.486 464.757 125.246 465.437 126.933C466.118 128.62 467.039 130.065 468.233 131.28C469.427 132.496 470.83 133.449 472.442 134.151C474.065 134.853 475.813 135.199 477.698 135.199V135.188Z" fill="white" stroke="#00C9B8" stroke-width="0.75" stroke-miterlimit="10"/>
</svg>
