<svg width="531" height="463" viewBox="0 0 531 463" fill="none" xmlns="http://www.w3.org/2000/svg">
<path d="M35.0735 393.985H77.3103C96.2509 393.985 111.6 409.343 111.6 428.294C111.6 447.246 126.949 462.604 145.89 462.604H495.71C514.651 462.604 530 447.246 530 428.294V56.3092C530 37.358 514.651 22 495.71 22H145.89C126.949 22 111.6 37.358 111.6 56.3092V232.192C111.6 251.144 96.2509 266.502 77.3103 266.502H35.0735C16.1329 266.502 0.783569 281.859 0.783569 300.811V359.665C0.783569 378.617 16.1329 393.975 35.0735 393.975V393.985Z" fill="#32ACC7" stroke="#029CBE" stroke-width="0.75" stroke-miterlimit="10"/>
<path d="M35.0735 372.985H77.3103C96.2509 372.985 111.6 388.343 111.6 407.294C111.6 426.246 126.949 441.604 145.89 441.604H495.71C514.651 441.604 530 426.246 530 407.294V35.3092C530 16.358 514.651 1 495.71 1H145.89C126.949 1 111.6 16.358 111.6 35.3092V211.192C111.6 230.144 96.2509 245.502 77.3103 245.502H35.0735C16.1329 245.502 0.783569 260.859 0.783569 279.811V338.665C0.783569 357.617 16.1329 372.975 35.0735 372.975V372.985Z" fill="#EBF7FA" stroke="#029CBE" stroke-width="0.75" stroke-miterlimit="10"/>
<path d="M188.001 32.2812H456.007C475.827 32.2812 491.93 48.383 491.93 68.2247V367.118C491.93 386.949 475.837 403.062 456.007 403.062H188.001C168.181 403.062 152.078 386.96 152.078 367.118V68.2247C152.078 48.3935 168.171 32.2812 188.001 32.2812Z" fill="#102870"/>
<path d="M456.007 32.6788C475.628 32.6788 491.532 48.592 491.532 68.2242V367.118C491.532 386.75 475.628 402.663 456.007 402.663H188.001C168.38 402.663 152.476 386.75 152.476 367.118V68.2242C152.476 48.592 168.38 32.6788 188.001 32.6788H456.007ZM456.007 31.8931H188.001C167.982 31.8931 151.691 48.1939 151.691 68.2242V367.118C151.691 387.148 167.982 403.449 188.001 403.449H456.007C476.026 403.449 492.318 387.148 492.318 367.118V68.2242C492.318 48.1939 476.026 31.8931 456.007 31.8931Z" fill="#029CBE"/>
<path d="M455.881 30.9194H187.876C168.255 30.9194 152.35 46.8336 152.35 66.4648V348.628C152.35 368.259 168.255 384.173 187.876 384.173H455.881C475.501 384.173 491.407 368.259 491.407 348.628V66.4648C491.407 46.8336 475.501 30.9194 455.881 30.9194Z" fill="white" stroke="#029CBE" stroke-width="0.75" stroke-miterlimit="10"/>
<path d="M33.5028 331.887C32.2359 331.887 31.1993 330.85 31.1993 329.582V324.931C31.1993 324.323 31.4506 323.726 31.8799 323.296L51.1241 304.24C51.857 303.549 52.4539 302.857 52.8727 302.197C53.3019 301.537 53.616 300.867 53.8359 300.186C54.0453 299.516 54.15 298.835 54.15 298.164C54.15 296.76 53.5532 295.629 52.3282 294.697C51.0927 293.754 49.5117 293.272 47.648 293.272C45.6168 293.272 43.6903 293.701 41.9313 294.539C40.5702 295.189 39.0834 296.205 37.5338 297.567C37.1045 297.944 36.5601 298.154 35.9947 298.154C35.3036 298.154 34.6545 297.85 34.2148 297.316L30.9062 293.272C30.1104 292.308 30.2466 290.852 31.1993 290.045C33.4818 288.107 35.9109 286.578 38.4238 285.488C41.4706 284.179 44.685 283.519 47.9831 283.519C51.2812 283.519 54.3699 284.105 56.8827 285.258C59.4165 286.42 61.4163 288.065 62.8298 290.15C64.2538 292.235 64.9762 294.718 64.9762 297.504C64.9762 299.013 64.7563 300.479 64.327 301.873C63.8873 303.266 63.2068 304.638 62.2959 305.958C61.3954 307.268 60.2018 308.64 58.7674 310.034L48.6741 319.787C48.1297 320.311 48.1297 320.992 48.3181 321.452C48.5066 321.913 48.9673 322.406 49.7316 322.406L63.3429 322.364C64.6202 322.364 65.6568 323.401 65.6568 324.669V329.603C65.6568 330.87 64.6202 331.908 63.3533 331.908H33.5132V331.887H33.5028Z" fill="#7ECDDE"/>
<path d="M47.9938 283.886C51.3443 283.886 54.255 284.452 56.726 285.594C59.2074 286.736 61.1339 288.317 62.516 290.35C63.898 292.382 64.5891 294.76 64.5891 297.484C64.5891 298.961 64.3797 300.375 63.9504 301.737C63.5211 303.099 62.8719 304.43 61.9715 305.718C61.0815 307.017 59.9194 308.348 58.4954 309.741L48.4021 319.494C47.1666 320.689 48.0147 322.784 49.7319 322.784L63.3326 322.742C64.3901 322.742 65.2487 323.601 65.2487 324.659V329.604C65.2487 330.662 64.3901 331.521 63.3326 331.521H33.4926C32.4351 331.521 31.5765 330.662 31.5765 329.604V324.952C31.5765 324.439 31.7754 323.947 32.1419 323.59L51.3861 304.534C52.14 303.822 52.7473 303.12 53.1975 302.429C53.6477 301.737 53.9828 301.035 54.2026 300.323C54.4225 299.611 54.5377 298.898 54.5377 298.175C54.5377 296.656 53.878 295.399 52.5588 294.394C51.2396 293.388 49.6062 292.885 47.6378 292.885C45.5438 292.885 43.5754 293.325 41.7431 294.195C40.3401 294.865 38.8428 295.892 37.2514 297.285C36.8849 297.61 36.4242 297.767 35.9635 297.767C35.4191 297.767 34.8746 297.536 34.4977 297.075L31.1891 293.032C30.5295 292.225 30.6342 291.031 31.4299 290.35C33.6915 288.422 36.0682 286.924 38.5601 285.856C41.5756 284.557 44.7062 283.917 47.9624 283.917M47.9624 283.132C44.6119 283.132 41.3452 283.802 38.246 285.133C35.6913 286.233 33.2308 287.783 30.9169 289.753C29.7966 290.706 29.65 292.403 30.5714 293.535L33.88 297.578C34.393 298.207 35.1469 298.563 35.9531 298.563C36.6127 298.563 37.2514 298.322 37.7539 297.882C39.2826 296.541 40.7275 295.546 42.0572 294.907C43.7743 294.09 45.638 293.681 47.6064 293.681C49.3863 293.681 50.8836 294.132 52.0458 295.022C53.1661 295.881 53.7105 296.908 53.7105 298.186C53.7105 298.814 53.6058 299.464 53.4069 300.093C53.2079 300.732 52.8938 301.381 52.496 302.01C52.0876 302.649 51.5223 303.309 50.8103 303.969L31.5556 323.046C31.0425 323.549 30.7598 324.25 30.7598 324.963V329.614C30.7598 331.102 31.9744 332.317 33.4612 332.317H63.3012C64.788 332.317 66.0025 331.102 66.0025 329.614V324.669C66.0025 323.182 64.788 321.967 63.3012 321.967L49.69 322.009C48.978 322.009 48.7058 321.464 48.643 321.307C48.5801 321.139 48.4021 320.563 48.9047 320.07L58.998 310.317C60.4533 308.903 61.6574 307.51 62.5788 306.179C63.5106 304.828 64.2122 303.413 64.6519 301.978C65.1021 300.543 65.322 299.034 65.322 297.494C65.322 294.624 64.5786 292.078 63.1128 289.92C61.6574 287.783 59.5948 286.086 56.9982 284.892C54.433 283.708 51.3757 283.111 47.931 283.111L47.9624 283.132Z" fill="#029CBE"/>
<path d="M109.349 334.275C108.637 334.275 107.977 333.961 107.538 333.406L106.166 331.677C105.873 331.311 105.433 331.101 104.983 331.101C104.826 331.101 104.679 331.122 104.533 331.175C103.391 331.552 102.198 331.876 100.994 332.128C99.3499 332.463 97.5909 332.641 95.79 332.641C92.2302 332.641 88.8693 332.013 85.8015 330.766C82.7337 329.53 80.0114 327.77 77.708 325.528C75.4045 323.286 73.5827 320.657 72.2949 317.702C71.0071 314.738 70.3579 311.5 70.3579 308.075C70.3579 304.649 71.0071 301.401 72.2949 298.437C73.5827 295.482 75.4046 292.842 77.6975 290.611C80.001 288.38 82.7232 286.62 85.791 285.373C88.8588 284.137 92.2197 283.508 95.7796 283.508C99.3394 283.508 102.7 284.137 105.768 285.373C108.836 286.62 111.558 288.38 113.862 290.611C116.165 292.842 117.987 295.482 119.275 298.437C120.563 301.401 121.212 304.639 121.212 308.075C121.212 311.511 120.583 314.518 119.338 317.44C118.301 319.86 116.929 322.071 115.265 324.009C114.804 324.543 114.793 325.35 115.244 325.916L117.149 328.336C117.61 328.922 117.767 329.666 117.558 330.389C117.359 331.112 116.835 331.667 116.134 331.929L110.134 334.15C109.872 334.244 109.611 334.296 109.338 334.296V334.275H109.349ZM95.79 294.864C93.9787 294.864 92.272 295.2 90.7224 295.87C89.1728 296.541 87.8012 297.473 86.66 298.625C85.5187 299.788 84.6184 301.192 83.9692 302.784C83.3201 304.377 82.9954 306.158 82.9954 308.064C82.9954 309.971 83.3201 311.689 83.9692 313.313C84.6184 314.926 85.5187 316.34 86.66 317.503C87.8012 318.666 89.1624 319.598 90.7224 320.269C92.272 320.939 93.9787 321.275 95.79 321.275C96.2717 321.275 96.7533 321.254 97.193 321.212C97.4338 321.191 97.6642 321.159 97.8946 321.128L95.5073 318.09C95.0466 317.503 94.9 316.759 95.099 316.037C95.2979 315.314 95.8215 314.759 96.5125 314.497L102.512 312.276C102.774 312.181 103.035 312.129 103.308 312.129C104.02 312.129 104.69 312.454 105.129 313.019L105.203 313.114C105.496 313.491 105.915 313.7 106.386 313.7C107.056 313.7 107.632 313.281 107.852 312.642C107.915 312.454 107.977 312.265 108.03 312.077C108.396 310.799 108.585 309.447 108.585 308.064C108.585 306.158 108.26 304.387 107.611 302.784C106.962 301.192 106.061 299.788 104.92 298.625C103.779 297.462 102.418 296.53 100.858 295.87C99.308 295.2 97.6014 294.864 95.79 294.864Z" fill="#7ECDDE"/>
<path d="M95.8006 283.886C99.329 283.886 102.606 284.504 105.643 285.73C108.679 286.955 111.328 288.673 113.61 290.884C115.882 293.094 117.662 295.661 118.929 298.584C120.196 301.507 120.835 304.67 120.835 308.065C120.835 311.459 120.217 314.392 118.992 317.273C117.966 319.672 116.636 321.82 114.982 323.737C114.396 324.418 114.385 325.434 114.951 326.146L116.856 328.566C117.662 329.583 117.244 331.102 116.019 331.552L110.019 333.773C109.799 333.857 109.579 333.888 109.359 333.888C108.784 333.888 108.229 333.626 107.862 333.165L106.491 331.437C106.124 330.976 105.569 330.703 104.993 330.703C104.805 330.703 104.606 330.735 104.418 330.798C103.276 331.175 102.114 331.489 100.921 331.73C99.2872 332.065 97.5805 332.233 95.8006 332.233C92.2721 332.233 88.9949 331.615 85.9586 330.389C82.9222 329.163 80.2732 327.445 77.9907 325.235C75.7187 323.024 73.9388 320.458 72.6719 317.535C71.405 314.612 70.7663 311.448 70.7663 308.054C70.7663 304.66 71.405 301.507 72.6719 298.573C73.9388 295.65 75.7187 293.084 77.9907 290.873C80.2628 288.663 82.9222 286.945 85.9586 285.719C88.9949 284.493 92.2721 283.875 95.8006 283.875M95.8006 321.642C96.2927 321.642 96.7743 321.621 97.235 321.579C97.7061 321.537 98.1564 321.464 98.6066 321.38L95.811 317.818C95.0048 316.802 95.4341 315.293 96.6486 314.843L102.648 312.622C102.868 312.538 103.088 312.507 103.308 312.507C103.884 312.507 104.449 312.768 104.815 313.25L104.889 313.345C105.276 313.847 105.831 314.078 106.386 314.078C107.161 314.078 107.936 313.606 108.229 312.747C108.292 312.559 108.354 312.36 108.407 312.171C108.784 310.851 108.972 309.479 108.972 308.054C108.972 306.095 108.637 304.283 107.967 302.628C107.297 300.972 106.375 299.548 105.192 298.343C104.009 297.138 102.617 296.185 101.004 295.493C99.4023 294.802 97.6538 294.456 95.7796 294.456C93.9054 294.456 92.1674 294.802 90.555 295.493C88.953 296.185 87.55 297.138 86.3669 298.343C85.1838 299.548 84.2624 300.983 83.5923 302.628C82.9222 304.283 82.5872 306.085 82.5872 308.054C82.5872 310.024 82.9222 311.773 83.5923 313.449C84.2624 315.126 85.1838 316.561 86.3669 317.765C87.55 318.97 88.9426 319.924 90.555 320.615C92.1569 321.306 93.9054 321.652 95.7796 321.652M95.7796 283.1C92.1674 283.1 88.7646 283.739 85.6445 284.996C82.5243 286.253 79.7602 288.045 77.4253 290.318C75.0905 292.591 73.2373 295.263 71.9285 298.269C70.6197 301.276 69.9601 304.576 69.9601 308.054C69.9601 311.532 70.6197 314.832 71.9285 317.839C73.2373 320.845 75.08 323.517 77.4253 325.79C79.7707 328.063 82.5348 329.855 85.6445 331.112C88.7541 332.369 92.1674 333.008 95.7796 333.008C97.6119 333.008 99.3813 332.83 101.057 332.495C102.282 332.243 103.486 331.919 104.648 331.531C104.753 331.5 104.868 331.479 104.972 331.479C105.308 331.479 105.632 331.636 105.852 331.908L107.224 333.637C107.737 334.286 108.511 334.663 109.339 334.663C109.663 334.663 109.977 334.611 110.27 334.496L116.27 332.275C117.086 331.971 117.694 331.311 117.935 330.473C118.175 329.635 117.997 328.755 117.453 328.074L115.547 325.654C115.212 325.235 115.223 324.638 115.558 324.25C117.254 322.281 118.647 320.039 119.694 317.577C120.96 314.612 121.599 311.406 121.599 308.065C121.599 304.723 120.94 301.287 119.631 298.28C118.322 295.273 116.479 292.602 114.134 290.329C111.799 288.055 109.035 286.264 105.915 285.007C102.795 283.75 99.3918 283.111 95.7796 283.111V283.1ZM95.7796 320.866C94.0206 320.866 92.3663 320.542 90.8691 319.892C89.3614 319.243 88.0421 318.342 86.9323 317.221C85.8329 316.1 84.9534 314.727 84.3252 313.156C83.697 311.585 83.3724 309.867 83.3724 308.054C83.3724 306.242 83.6865 304.471 84.3147 302.921C84.9429 301.37 85.8224 300.019 86.9218 298.888C88.0212 297.767 89.3509 296.866 90.8586 296.216C92.3558 295.567 94.0101 295.242 95.7691 295.242C97.5281 295.242 99.1824 295.567 100.68 296.216C102.187 296.866 103.507 297.767 104.616 298.888C105.716 300.019 106.595 301.37 107.224 302.921C107.852 304.471 108.166 306.2 108.166 308.054C108.166 309.406 107.988 310.715 107.632 311.951C107.58 312.14 107.517 312.318 107.464 312.496C107.265 313.083 106.752 313.292 106.375 313.292C106.177 313.292 105.789 313.24 105.496 312.852L105.423 312.758C104.91 312.098 104.135 311.721 103.297 311.721C102.973 311.721 102.659 311.773 102.365 311.888L96.3659 314.109C95.5493 314.413 94.942 315.063 94.7012 315.911C94.4604 316.749 94.6383 317.629 95.1723 318.31L97.1302 320.804C96.701 320.845 96.2403 320.866 95.7691 320.866H95.7796Z" fill="#029CBE"/>
<path d="M31.6079 320.824V316.173C31.6079 315.66 31.8068 315.178 32.1733 314.811L51.4175 295.755C52.1714 295.043 52.7787 294.341 53.2289 293.649C53.6791 292.958 54.0141 292.256 54.234 291.544C54.4539 290.831 54.5691 290.119 54.5691 289.396C54.5691 287.877 53.9094 286.62 52.5902 285.614C51.2709 284.609 49.6376 284.106 47.6692 284.106C45.5752 284.106 43.6068 284.546 41.7745 285.415C40.3715 286.086 38.8742 287.112 37.2828 288.506C36.4661 289.229 35.2201 289.145 34.5291 288.296L31.2205 284.252C30.5609 283.446 30.6656 282.251 31.4613 281.571C33.7229 279.643 36.0996 278.145 38.5915 277.076C41.6069 275.777 44.7375 275.138 47.9938 275.138C51.25 275.138 54.255 275.704 56.7259 276.846C59.2074 277.988 61.1339 279.57 62.5159 281.602C63.898 283.634 64.589 286.012 64.589 288.736C64.589 290.213 64.3796 291.628 63.9504 292.989C63.5211 294.351 62.8719 295.682 61.9715 296.97C61.0815 298.269 59.9193 299.6 58.4954 300.993L48.4021 310.746C47.1666 311.941 48.0147 314.046 49.7318 314.036L63.3326 313.994C64.3901 313.994 65.2486 314.853 65.2486 315.911V320.856C65.2486 321.914 64.3901 322.773 63.3326 322.773H33.4925C32.4351 322.773 31.5765 321.914 31.5765 320.856L31.6079 320.824Z" fill="white" stroke="#029CBE" stroke-width="0.75" stroke-miterlimit="10"/>
<path d="M107.862 324.397L106.491 322.668C105.999 322.05 105.171 321.778 104.418 322.029C103.276 322.407 102.114 322.721 100.921 322.962C99.2872 323.297 97.5805 323.465 95.8006 323.465C92.2722 323.465 88.995 322.846 85.9586 321.621C82.9222 320.395 80.2733 318.677 77.9908 316.467C75.7188 314.256 73.9388 311.689 72.6719 308.767C71.405 305.844 70.7664 302.68 70.7664 299.286C70.7664 295.892 71.405 292.738 72.6719 289.805C73.9388 286.882 75.7188 284.315 77.9908 282.105C80.2628 279.895 82.9222 278.176 85.9586 276.951C88.995 275.725 92.2722 275.107 95.8006 275.107C99.3291 275.107 102.606 275.725 105.643 276.951C108.679 278.176 111.328 279.895 113.61 282.105C115.882 284.315 117.662 286.882 118.929 289.805C120.196 292.728 120.835 295.892 120.835 299.286C120.835 302.68 120.217 305.613 118.992 308.494C117.966 310.893 116.636 313.041 114.982 314.958C114.396 315.639 114.385 316.655 114.951 317.367L116.856 319.787C117.662 320.804 117.244 322.323 116.019 322.773L110.019 324.994C109.244 325.277 108.375 325.036 107.862 324.386V324.397ZM95.8111 312.894C96.3032 312.894 96.7848 312.873 97.2455 312.831C97.7167 312.789 98.1669 312.716 98.6171 312.632L95.8215 309.07C95.0153 308.054 95.4446 306.546 96.6592 306.095L102.659 303.874C103.444 303.581 104.323 303.832 104.836 304.492L104.91 304.587C105.852 305.802 107.758 305.456 108.25 304C108.313 303.811 108.375 303.612 108.428 303.424C108.805 302.104 108.993 300.731 108.993 299.307C108.993 297.348 108.658 295.535 107.988 293.88C107.318 292.225 106.396 290.8 105.213 289.595C104.03 288.391 102.638 287.437 101.025 286.746C99.4233 286.054 97.6748 285.709 95.8006 285.709C93.9264 285.709 92.1884 286.054 90.576 286.746C88.9741 287.437 87.571 288.391 86.3879 289.595C85.2048 290.8 84.2834 292.235 83.6133 293.88C82.9432 295.535 82.6081 297.337 82.6081 299.307C82.6081 301.276 82.9432 303.026 83.6133 304.702C84.2834 306.378 85.2048 307.813 86.3879 309.018C87.571 310.223 88.9636 311.176 90.576 311.868C92.1779 312.559 93.9264 312.905 95.8006 312.905H95.8111V312.894Z" fill="white" stroke="#029CBE" stroke-width="0.75" stroke-miterlimit="10"/>
<path opacity="0.8" d="M191.32 83.2684V68.4028H192.954L201.885 80.4608V68.4028H203.434V83.2684H201.989L192.859 70.8857V83.2684H191.31H191.32Z" fill="#029CBE"/>
<path opacity="0.8" d="M206.712 83.2684V68.4028H217.349V69.8485H208.355V75.0552H214.229V76.4799H208.355V81.8332H217.433V83.2789H206.712V83.2684Z" fill="#029CBE"/>
<path opacity="0.8" d="M219.789 83.2684V68.4028H226.155C227.128 68.4028 227.977 68.5809 228.699 68.9371C229.421 69.2933 229.987 69.7857 230.385 70.4247C230.793 71.0638 230.992 71.8076 230.992 72.6771C230.992 73.6514 230.709 74.4894 230.133 75.1913C229.558 75.8932 228.793 76.3856 227.83 76.6685L231.159 83.2684H229.359L226.176 76.878H221.422V83.2684H219.789ZM221.422 75.4952H226.05C227.055 75.4952 227.861 75.2437 228.458 74.7304C229.055 74.2171 229.359 73.5361 229.359 72.6666C229.359 71.7971 229.055 71.1371 228.458 70.6238C227.861 70.1104 227.055 69.859 226.05 69.859H221.422V75.4847V75.4952Z" fill="#029CBE"/>
<path opacity="0.8" d="M233.484 83.2684V68.4028H238.384C239.515 68.4028 240.551 68.5914 241.504 68.9581C242.457 69.3247 243.273 69.8381 243.975 70.5085C244.676 71.179 245.221 71.9647 245.608 72.8656C245.996 73.7771 246.195 74.7618 246.195 75.8409C246.195 76.9199 246.006 77.9047 245.619 78.8161C245.242 79.7275 244.697 80.5132 243.996 81.1732C243.294 81.8437 242.467 82.357 241.514 82.7237C240.562 83.0903 239.515 83.2789 238.384 83.2789H233.484V83.2684ZM235.117 81.7808H238.468C239.326 81.7808 240.132 81.6341 240.865 81.3303C241.598 81.037 242.247 80.618 242.792 80.0732C243.347 79.5389 243.776 78.9104 244.08 78.1875C244.383 77.4647 244.54 76.6789 244.54 75.8304C244.54 74.9818 244.383 74.1961 244.08 73.4733C243.776 72.7504 243.347 72.1218 242.792 71.5876C242.237 71.0533 241.598 70.6342 240.865 70.3304C240.132 70.0371 239.326 69.88 238.468 69.88H235.117V81.7703V81.7808Z" fill="#029CBE"/>
<path opacity="0.8" d="M248.749 83.2684V68.4028H250.383V83.2684H248.749Z" fill="#029CBE"/>
<path opacity="0.8" d="M258.225 83.2684V68.4028H260.518L265.585 78.9523L270.632 68.4028H272.925V83.2684H271.375V70.2676L265.564 82.1998L259.753 70.2885V83.2684H258.225Z" fill="#029CBE"/>
<path opacity="0.8" d="M283.154 83.4986C282.076 83.4986 281.081 83.2996 280.149 82.912C279.228 82.5243 278.411 81.9796 277.71 81.2777C277.008 80.5758 276.464 79.7587 276.077 78.8368C275.689 77.9149 275.49 76.9092 275.49 75.8301C275.49 74.7511 275.689 73.7559 276.077 72.8235C276.464 71.9016 277.008 71.0844 277.71 70.3825C278.411 69.6806 279.228 69.1359 280.149 68.7483C281.081 68.3607 282.076 68.1616 283.154 68.1616C284.233 68.1616 285.207 68.3607 286.138 68.7483C287.06 69.1359 287.876 69.6806 288.578 70.3825C289.279 71.0844 289.824 71.9016 290.211 72.8235C290.599 73.7559 290.798 74.7511 290.798 75.8301C290.798 76.9092 290.599 77.9044 290.211 78.8368C289.824 79.7691 289.279 80.5758 288.578 81.2777C287.876 81.9796 287.06 82.5243 286.138 82.912C285.207 83.2996 284.222 83.4986 283.154 83.4986ZM283.154 81.9901C284.003 81.9901 284.788 81.8329 285.51 81.5186C286.233 81.2044 286.861 80.7748 287.405 80.2091C287.95 79.6434 288.379 78.9939 288.683 78.2396C288.986 77.4853 289.143 76.6787 289.143 75.8196C289.143 74.9606 288.986 74.133 288.683 73.3892C288.379 72.6454 287.95 71.9959 287.405 71.4406C286.861 70.8854 286.233 70.4454 285.51 70.1311C284.788 69.8168 284.003 69.6597 283.154 69.6597C282.306 69.6597 281.521 69.8168 280.788 70.1311C280.055 70.4454 279.427 70.8749 278.883 71.4406C278.338 72.0063 277.909 72.6559 277.605 73.3892C277.302 74.133 277.145 74.9396 277.145 75.7987C277.145 76.6577 277.302 77.4853 277.605 78.2396C277.909 78.9939 278.338 79.6434 278.883 80.2091C279.427 80.7748 280.066 81.2044 280.788 81.5186C281.511 81.8329 282.306 81.9901 283.154 81.9901Z" fill="#029CBE"/>
<path opacity="0.8" d="M300.325 83.4986C299.247 83.4986 298.252 83.2996 297.321 82.912C296.399 82.5243 295.582 81.9796 294.881 81.2777C294.179 80.5758 293.635 79.7587 293.248 78.8368C292.86 77.9149 292.661 76.9092 292.661 75.8301C292.661 74.7511 292.86 73.7559 293.248 72.8235C293.635 71.9016 294.179 71.0844 294.881 70.3825C295.582 69.6806 296.399 69.1359 297.321 68.7483C298.252 68.3607 299.247 68.1616 300.325 68.1616C301.404 68.1616 302.378 68.3607 303.309 68.7483C304.231 69.1359 305.048 69.6806 305.749 70.3825C306.451 71.0844 306.995 71.9016 307.382 72.8235C307.77 73.7559 307.969 74.7511 307.969 75.8301C307.969 76.9092 307.77 77.9044 307.382 78.8368C306.995 79.7691 306.451 80.5758 305.749 81.2777C305.048 81.9796 304.231 82.5243 303.309 82.912C302.378 83.2996 301.393 83.4986 300.325 83.4986ZM300.325 81.9901C301.174 81.9901 301.959 81.8329 302.681 81.5186C303.404 81.2044 304.032 80.7748 304.576 80.2091C305.121 79.6434 305.55 78.9939 305.854 78.2396C306.157 77.4853 306.314 76.6787 306.314 75.8196C306.314 74.9606 306.157 74.133 305.854 73.3892C305.55 72.6454 305.121 71.9959 304.576 71.4406C304.032 70.8854 303.404 70.4454 302.681 70.1311C301.959 69.8168 301.174 69.6597 300.325 69.6597C299.477 69.6597 298.692 69.8168 297.959 70.1311C297.226 70.4454 296.598 70.8749 296.054 71.4406C295.509 72.0063 295.08 72.6559 294.776 73.3892C294.473 74.133 294.316 74.9396 294.316 75.7987C294.316 76.6577 294.473 77.4853 294.776 78.2396C295.08 78.9939 295.509 79.6434 296.054 80.2091C296.598 80.7748 297.237 81.2044 297.959 81.5186C298.682 81.8329 299.477 81.9901 300.325 81.9901Z" fill="#029CBE"/>
<path opacity="0.8" d="M310.534 83.2684V68.4028H315.434C316.565 68.4028 317.601 68.5914 318.554 68.9581C319.507 69.3247 320.324 69.8381 321.025 70.5085C321.727 71.179 322.271 71.9647 322.658 72.8656C323.046 73.7771 323.245 74.7618 323.245 75.8409C323.245 76.9199 323.056 77.9047 322.669 78.8161C322.292 79.7275 321.748 80.5132 321.046 81.1732C320.345 81.8437 319.517 82.357 318.565 82.7237C317.612 83.0903 316.565 83.2789 315.434 83.2789H310.534V83.2684ZM312.167 81.7808H315.518C316.376 81.7808 317.183 81.6341 317.915 81.3303C318.648 81.037 319.298 80.618 319.842 80.0732C320.397 79.5389 320.826 78.9104 321.13 78.1875C321.433 77.4647 321.59 76.6789 321.59 75.8304C321.59 74.9818 321.433 74.1961 321.13 73.4733C320.826 72.7504 320.397 72.1218 319.842 71.5876C319.287 71.0533 318.648 70.6342 317.915 70.3304C317.183 70.0371 316.376 69.88 315.518 69.88H312.167V81.7703V81.7808Z" fill="#029CBE"/>
<path opacity="0.8" d="M325.81 83.2684V68.4028H327.444V83.2684H325.81Z" fill="#029CBE"/>
<path d="M196.231 113.817C195.048 113.817 193.896 113.586 192.797 113.115C191.697 112.643 190.713 111.994 189.865 111.135L191.226 109.563C192.032 110.36 192.859 110.946 193.697 111.323C194.535 111.7 195.414 111.9 196.335 111.9C197.058 111.9 197.686 111.795 198.231 111.596C198.775 111.386 199.194 111.093 199.497 110.716C199.791 110.339 199.948 109.899 199.948 109.417C199.948 108.746 199.717 108.243 199.246 107.887C198.775 107.531 198.011 107.269 196.932 107.08L194.451 106.682C193.09 106.441 192.074 106.001 191.404 105.362C190.734 104.723 190.399 103.875 190.399 102.817C190.399 101.968 190.629 101.224 191.079 100.575C191.53 99.9358 192.168 99.4329 192.995 99.0768C193.823 98.7206 194.786 98.5425 195.875 98.5425C196.964 98.5425 198.011 98.7206 199.047 99.0663C200.084 99.412 201.026 99.9148 201.864 100.564L200.628 102.261C199.026 101.046 197.414 100.439 195.77 100.439C195.121 100.439 194.556 100.533 194.074 100.711C193.592 100.9 193.215 101.151 192.954 101.486C192.681 101.821 192.545 102.209 192.545 102.639C192.545 103.246 192.755 103.707 193.163 104.032C193.571 104.346 194.252 104.577 195.205 104.723L197.602 105.132C199.173 105.383 200.325 105.844 201.058 106.515C201.79 107.185 202.157 108.097 202.157 109.26C202.157 110.16 201.906 110.957 201.414 111.648C200.921 112.339 200.22 112.874 199.33 113.251C198.44 113.639 197.403 113.827 196.231 113.827V113.817Z" fill="#029CBE"/>
<path d="M209.339 113.795C208.282 113.795 207.319 113.544 206.46 113.052C205.602 112.559 204.921 111.878 204.418 111.03C203.916 110.181 203.665 109.228 203.665 108.18C203.665 107.133 203.905 106.211 204.387 105.362C204.869 104.524 205.518 103.843 206.345 103.34C207.162 102.837 208.083 102.586 209.078 102.586C210.072 102.586 210.973 102.837 211.748 103.34C212.522 103.843 213.14 104.524 213.601 105.383C214.062 106.242 214.292 107.206 214.292 108.285V108.882H205.78C205.895 109.479 206.115 110.003 206.45 110.474C206.785 110.946 207.203 111.313 207.727 111.574C208.24 111.847 208.805 111.983 209.413 111.983C209.936 111.983 210.439 111.899 210.931 111.742C211.423 111.574 211.821 111.344 212.156 111.03L213.517 112.371C212.878 112.853 212.229 113.209 211.549 113.439C210.879 113.67 210.135 113.785 209.329 113.785L209.339 113.795ZM205.821 107.3H212.208C212.125 106.734 211.926 106.232 211.622 105.802C211.318 105.373 210.941 105.027 210.502 104.786C210.051 104.534 209.57 104.419 209.046 104.419C208.523 104.419 208.01 104.534 207.559 104.775C207.109 105.016 206.732 105.352 206.429 105.781C206.125 106.211 205.926 106.724 205.821 107.3Z" fill="#029CBE"/>
<path d="M219.59 113.796C218.815 113.796 218.124 113.66 217.527 113.377C216.93 113.094 216.47 112.717 216.124 112.225C215.779 111.732 215.611 111.156 215.611 110.507C215.611 109.49 215.999 108.684 216.784 108.097C217.559 107.51 218.627 107.217 219.988 107.217C221.045 107.217 222.029 107.427 222.94 107.835V106.693C222.94 105.918 222.72 105.331 222.27 104.954C221.82 104.577 221.171 104.378 220.302 104.378C219.81 104.378 219.286 104.451 218.752 104.598C218.218 104.745 217.611 104.975 216.951 105.29L216.166 103.697C216.983 103.32 217.747 103.037 218.459 102.859C219.171 102.681 219.883 102.597 220.606 102.597C222.009 102.597 223.097 102.932 223.862 103.592C224.626 104.252 225.013 105.206 225.013 106.442V113.618H222.93V112.686C222.448 113.073 221.935 113.356 221.38 113.534C220.825 113.723 220.229 113.807 219.579 113.807L219.59 113.796ZM217.663 110.465C217.663 110.989 217.883 111.418 218.333 111.743C218.784 112.068 219.36 112.235 220.082 112.235C220.647 112.235 221.171 112.151 221.642 111.984C222.113 111.816 222.553 111.554 222.951 111.198V109.375C222.542 109.134 222.113 108.956 221.663 108.851C221.213 108.747 220.721 108.694 220.166 108.694C219.391 108.694 218.773 108.851 218.333 109.176C217.894 109.49 217.663 109.93 217.663 110.486V110.465Z" fill="#029CBE"/>
<path d="M231.18 113.817C230.248 113.817 229.369 113.681 228.563 113.398C227.746 113.126 227.045 112.728 226.448 112.225L227.62 110.821C228.175 111.261 228.741 111.596 229.327 111.827C229.913 112.057 230.51 112.172 231.117 112.172C231.882 112.172 232.5 112.026 232.981 111.722C233.463 111.428 233.704 111.03 233.704 110.559C233.704 110.161 233.568 109.847 233.274 109.627C232.992 109.396 232.552 109.249 231.955 109.155L229.997 108.883C228.919 108.726 228.113 108.39 227.579 107.888C227.045 107.385 226.772 106.693 226.772 105.845C226.772 105.195 226.95 104.619 227.306 104.137C227.662 103.655 228.154 103.268 228.793 102.995C229.432 102.723 230.175 102.576 231.023 102.576C231.798 102.576 232.552 102.691 233.274 102.911C233.997 103.131 234.688 103.488 235.358 103.969L234.28 105.373C233.683 104.975 233.107 104.682 232.552 104.504C231.997 104.315 231.432 104.231 230.866 104.231C230.217 104.231 229.694 104.368 229.296 104.65C228.898 104.923 228.699 105.279 228.699 105.719C228.699 106.117 228.835 106.421 229.107 106.641C229.379 106.861 229.84 107.008 230.479 107.102L232.437 107.374C233.515 107.531 234.321 107.856 234.876 108.359C235.431 108.862 235.703 109.532 235.703 110.391C235.703 111.041 235.504 111.628 235.107 112.141C234.709 112.654 234.175 113.063 233.494 113.367C232.814 113.66 232.039 113.817 231.18 113.817Z" fill="#029CBE"/>
<path d="M242.582 113.816C241.535 113.816 240.582 113.565 239.724 113.072C238.865 112.58 238.195 111.91 237.693 111.051C237.2 110.202 236.949 109.249 236.949 108.201C236.949 107.153 237.2 106.2 237.693 105.352C238.185 104.503 238.865 103.822 239.724 103.319C240.582 102.816 241.535 102.565 242.582 102.565C243.629 102.565 244.603 102.816 245.451 103.319C246.299 103.822 246.969 104.493 247.472 105.352C247.964 106.2 248.215 107.153 248.215 108.201C248.215 109.249 247.964 110.202 247.472 111.051C246.98 111.899 246.299 112.57 245.451 113.072C244.603 113.565 243.65 113.816 242.582 113.816ZM242.582 111.952C243.242 111.952 243.849 111.784 244.383 111.449C244.917 111.113 245.346 110.663 245.66 110.097C245.975 109.532 246.132 108.892 246.132 108.191C246.132 107.489 245.975 106.871 245.65 106.315C245.336 105.76 244.907 105.31 244.373 104.964C243.839 104.618 243.242 104.451 242.582 104.451C241.923 104.451 241.315 104.618 240.792 104.964C240.268 105.31 239.839 105.75 239.514 106.315C239.2 106.871 239.033 107.499 239.033 108.191C239.033 108.882 239.19 109.532 239.504 110.097C239.818 110.663 240.237 111.113 240.781 111.449C241.315 111.784 241.923 111.952 242.582 111.952Z" fill="#029CBE"/>
<path d="M250.226 113.607V102.796H252.351V103.896C253.189 103.016 254.267 102.576 255.597 102.576C256.435 102.576 257.167 102.754 257.796 103.11C258.424 103.467 258.926 103.959 259.282 104.598C259.638 105.237 259.827 105.97 259.827 106.809V113.607H257.701V107.175C257.701 106.327 257.461 105.656 256.989 105.164C256.518 104.671 255.859 104.43 255 104.43C254.435 104.43 253.922 104.556 253.471 104.787C253.021 105.028 252.644 105.373 252.351 105.824V113.597H250.226V113.607Z" fill="#029CBE"/>
<path d="M266.947 113.607V98.7412H269.114L277.417 109.783V98.7412H279.521V113.607H277.563L269.072 102.23V113.607H266.947Z" fill="#029CBE"/>
<path d="M282.558 113.607V98.7412H293.551V100.69H284.788V105.257H290.557V107.143H284.788V113.596H282.558V113.607Z" fill="#029CBE"/>
<path d="M299.771 113.607V100.721H294.546V98.752H307.215V100.721H301.99V113.607H299.76H299.771Z" fill="#029CBE"/>
<path d="M313.529 113.607V98.7412H316.523L321.172 108.253L325.821 98.7412H328.794V113.607H326.69V101.465L321.151 112.549L315.612 101.465V113.607H313.529Z" fill="#029CBE"/>
<path d="M332.605 101.057C332.249 101.057 331.946 100.931 331.694 100.659C331.443 100.397 331.307 100.093 331.307 99.7368C331.307 99.3806 331.433 99.0559 331.694 98.8149C331.956 98.574 332.249 98.4482 332.605 98.4482C332.961 98.4482 333.286 98.574 333.537 98.8149C333.788 99.0559 333.914 99.3702 333.914 99.7368C333.914 100.103 333.788 100.397 333.537 100.659C333.286 100.921 332.972 101.057 332.605 101.057ZM331.548 113.607V102.796H333.673V113.607H331.548Z" fill="#029CBE"/>
<path d="M336.176 113.607V102.796H338.301V103.896C339.139 103.016 340.217 102.576 341.547 102.576C342.384 102.576 343.117 102.754 343.746 103.11C344.374 103.467 344.876 103.959 345.232 104.598C345.588 105.237 345.777 105.97 345.777 106.809V113.607H343.651V107.175C343.651 106.327 343.41 105.656 342.939 105.164C342.468 104.671 341.809 104.43 340.95 104.43C340.385 104.43 339.872 104.556 339.421 104.787C338.971 105.028 338.594 105.373 338.301 105.824V113.597H336.176V113.607Z" fill="#029CBE"/>
<path d="M352.52 113.796C351.473 113.796 350.677 113.555 350.122 113.063C349.567 112.57 349.295 111.858 349.295 110.926V104.577H347.002V102.796H349.295V100.03L351.399 99.5171V102.786H354.582V104.567H351.399V110.423C351.399 110.978 351.525 111.366 351.766 111.596C352.017 111.826 352.415 111.942 352.991 111.942C353.284 111.942 353.556 111.921 353.786 111.879C354.017 111.837 354.268 111.774 354.54 111.69V113.471C354.258 113.566 353.933 113.649 353.556 113.691C353.179 113.744 352.834 113.765 352.53 113.765V113.796H352.52Z" fill="#029CBE"/>
<path d="M357.2 101.057C356.844 101.057 356.54 100.931 356.289 100.659C356.038 100.397 355.901 100.093 355.901 99.7368C355.901 99.3806 356.027 99.0559 356.289 98.8149C356.551 98.574 356.844 98.4482 357.2 98.4482C357.556 98.4482 357.88 98.574 358.132 98.8149C358.383 99.0559 358.509 99.3702 358.509 99.7368C358.509 100.103 358.383 100.397 358.132 100.659C357.88 100.921 357.566 101.057 357.2 101.057ZM356.142 113.607V102.796H358.268V113.607H356.142Z" fill="#029CBE"/>
<path d="M360.77 113.607V102.796H362.895V103.896C363.733 103.016 364.812 102.576 366.141 102.576C366.979 102.576 367.712 102.754 368.34 103.11C368.968 103.467 369.471 103.959 369.827 104.598C370.183 105.237 370.371 105.97 370.371 106.809V113.607H368.246V107.175C368.246 106.327 368.005 105.656 367.534 105.164C367.063 104.671 366.403 104.43 365.544 104.43C364.979 104.43 364.466 104.556 364.016 104.787C363.566 105.028 363.189 105.373 362.895 105.824V113.597H360.77V113.607Z" fill="#029CBE"/>
<path d="M378.15 118.144C377.355 118.144 376.59 118.049 375.837 117.871C375.083 117.683 374.402 117.421 373.795 117.086L374.601 115.43C375.24 115.755 375.837 115.996 376.392 116.143C376.946 116.289 377.512 116.363 378.077 116.363C379.03 116.363 379.742 116.143 380.234 115.703C380.726 115.263 380.967 114.624 380.967 113.775V112.539C380.014 113.293 378.936 113.66 377.721 113.66C376.727 113.66 375.826 113.419 374.999 112.927C374.172 112.434 373.512 111.774 373.031 110.926C372.549 110.088 372.308 109.155 372.308 108.129C372.308 107.102 372.549 106.159 373.041 105.31C373.533 104.472 374.182 103.802 375.02 103.31C375.847 102.817 376.779 102.576 377.815 102.576C378.391 102.576 378.957 102.67 379.501 102.859C380.046 103.048 380.548 103.32 380.998 103.676V102.765H383.103V113.744C383.103 115.147 382.674 116.227 381.815 116.981C380.957 117.735 379.742 118.112 378.15 118.112V118.144ZM378.004 111.837C378.622 111.837 379.187 111.732 379.7 111.512C380.213 111.292 380.632 110.978 380.977 110.569V105.729C380.642 105.331 380.213 105.017 379.69 104.797C379.177 104.567 378.611 104.462 378.004 104.462C377.323 104.462 376.716 104.629 376.172 104.954C375.627 105.279 375.198 105.719 374.873 106.285C374.559 106.84 374.392 107.469 374.392 108.16C374.392 108.851 374.549 109.48 374.873 110.035C375.187 110.59 375.627 111.041 376.172 111.366C376.716 111.69 377.323 111.858 378.004 111.858V111.837Z" fill="#029CBE"/>
<path d="M196.231 174.484C195.048 174.484 193.896 174.254 192.797 173.782C191.697 173.311 190.713 172.661 189.865 171.802L191.226 170.231C192.032 171.027 192.859 171.614 193.697 171.991C194.535 172.368 195.414 172.567 196.335 172.567C197.058 172.567 197.686 172.462 198.231 172.263C198.775 172.054 199.194 171.76 199.497 171.383C199.791 171.006 199.948 170.566 199.948 170.084C199.948 169.414 199.717 168.911 199.246 168.555C198.775 168.198 198.011 167.937 196.932 167.748L194.451 167.35C193.09 167.109 192.074 166.669 191.404 166.03C190.734 165.391 190.399 164.542 190.399 163.484C190.399 162.636 190.629 161.892 191.079 161.242C191.53 160.603 192.168 160.1 192.995 159.744C193.823 159.388 194.786 159.21 195.875 159.21C196.964 159.21 198.011 159.388 199.047 159.734C200.084 160.079 201.026 160.582 201.864 161.232L200.628 162.929C199.026 161.714 197.414 161.106 195.77 161.106C195.121 161.106 194.556 161.2 194.074 161.379C193.592 161.567 193.215 161.819 192.954 162.154C192.681 162.489 192.545 162.877 192.545 163.306C192.545 163.914 192.755 164.375 193.163 164.699C193.571 165.014 194.252 165.244 195.205 165.391L197.602 165.799C199.173 166.051 200.325 166.512 201.058 167.182C201.79 167.853 202.157 168.764 202.157 169.927C202.157 170.828 201.906 171.624 201.414 172.316C200.921 173.007 200.22 173.541 199.33 173.918C198.44 174.306 197.403 174.495 196.231 174.495V174.484Z" fill="#029CBE"/>
<path d="M203.958 174.274V163.463H206.083V164.563C206.921 163.683 207.999 163.243 209.329 163.243C210.167 163.243 210.899 163.421 211.528 163.777C212.156 164.133 212.659 164.626 213.015 165.265C213.371 165.904 213.559 166.637 213.559 167.475V174.274H211.434V167.842C211.434 166.993 211.193 166.323 210.722 165.83C210.25 165.338 209.591 165.097 208.732 165.097C208.167 165.097 207.654 165.223 207.204 165.453C206.753 165.694 206.376 166.04 206.083 166.49V174.264H203.958V174.274Z" fill="#029CBE"/>
<path d="M221.16 174.463C220.103 174.463 219.14 174.211 218.281 173.719C217.422 173.227 216.742 172.546 216.239 171.697C215.737 170.849 215.485 169.895 215.485 168.848C215.485 167.8 215.726 166.878 216.208 166.03C216.69 165.192 217.339 164.511 218.166 164.008C218.983 163.505 219.904 163.253 220.899 163.253C221.893 163.253 222.794 163.505 223.568 164.008C224.343 164.511 224.961 165.192 225.422 166.051C225.882 166.91 226.113 167.873 226.113 168.952V169.55H217.6C217.716 170.147 217.935 170.671 218.271 171.142C218.606 171.613 219.024 171.98 219.548 172.242C220.061 172.514 220.626 172.65 221.234 172.65C221.757 172.65 222.26 172.567 222.752 172.41C223.244 172.242 223.642 172.011 223.977 171.697L225.338 173.038C224.699 173.52 224.05 173.876 223.37 174.107C222.699 174.337 221.956 174.452 221.15 174.452L221.16 174.463ZM217.642 167.968H224.029C223.945 167.402 223.746 166.899 223.443 166.47C223.139 166.04 222.762 165.694 222.322 165.453C221.872 165.202 221.391 165.087 220.867 165.087C220.344 165.087 219.831 165.202 219.38 165.443C218.93 165.684 218.553 166.019 218.25 166.449C217.946 166.878 217.747 167.391 217.642 167.968Z" fill="#029CBE"/>
<path d="M231.421 174.463C230.646 174.463 229.955 174.326 229.359 174.044C228.762 173.761 228.301 173.384 227.956 172.891C227.61 172.399 227.443 171.823 227.443 171.173C227.443 170.157 227.83 169.35 228.615 168.764C229.39 168.177 230.458 167.884 231.819 167.884C232.877 167.884 233.861 168.093 234.772 168.502V167.36C234.772 166.585 234.552 165.998 234.102 165.621C233.651 165.244 233.002 165.045 232.133 165.045C231.641 165.045 231.118 165.118 230.584 165.265C230.05 165.411 229.442 165.642 228.783 165.956L227.997 164.364C228.814 163.987 229.578 163.704 230.29 163.526C231.002 163.347 231.714 163.264 232.437 163.264C233.84 163.264 234.929 163.599 235.693 164.259C236.457 164.919 236.845 165.872 236.845 167.108V174.285H234.761V173.352C234.28 173.74 233.767 174.023 233.212 174.201C232.657 174.389 232.06 174.473 231.411 174.473L231.421 174.463ZM229.495 171.131C229.495 171.655 229.715 172.085 230.165 172.409C230.615 172.734 231.191 172.902 231.913 172.902C232.479 172.902 233.002 172.818 233.473 172.65C233.945 172.483 234.384 172.221 234.782 171.865V170.042C234.374 169.801 233.945 169.623 233.494 169.518C233.044 169.413 232.552 169.361 231.997 169.361C231.222 169.361 230.604 169.518 230.165 169.843C229.725 170.157 229.495 170.597 229.495 171.152V171.131Z" fill="#029CBE"/>
<path d="M239.295 174.274V159.409L241.42 159V168.198L246.666 163.463H249.147L243.567 168.512L249.44 174.264H246.634L241.41 169.193V174.264H239.284H239.295V174.274Z" fill="#029CBE"/>
<path d="M255.115 174.275V159.409H261.994C262.968 159.409 263.816 159.598 264.539 159.975C265.261 160.352 265.826 160.865 266.235 161.536C266.643 162.206 266.852 162.971 266.852 163.851C266.852 164.731 266.643 165.496 266.235 166.166C265.826 166.837 265.251 167.35 264.528 167.727C263.795 168.104 262.958 168.293 261.994 168.293H257.346V174.285H255.115V174.275ZM257.346 166.397H261.764C262.643 166.397 263.335 166.166 263.858 165.705C264.371 165.244 264.633 164.637 264.633 163.872C264.633 163.107 264.371 162.5 263.858 162.049C263.345 161.599 262.643 161.368 261.764 161.368H257.346V166.397Z" fill="#029CBE"/>
<path d="M272.873 174.463C271.815 174.463 270.852 174.211 269.993 173.719C269.135 173.227 268.454 172.546 267.952 171.697C267.449 170.849 267.198 169.895 267.198 168.848C267.198 167.8 267.439 166.878 267.92 166.03C268.402 165.192 269.051 164.511 269.878 164.008C270.695 163.505 271.616 163.253 272.611 163.253C273.606 163.253 274.506 163.505 275.281 164.008C276.056 164.511 276.673 165.192 277.134 166.051C277.595 166.91 277.825 167.873 277.825 168.952V169.55H269.313C269.428 170.147 269.648 170.671 269.983 171.142C270.318 171.613 270.737 171.98 271.26 172.242C271.773 172.514 272.339 172.65 272.946 172.65C273.47 172.65 273.972 172.567 274.464 172.41C274.956 172.242 275.354 172.011 275.689 171.697L277.05 173.038C276.412 173.52 275.762 173.876 275.082 174.107C274.412 174.337 273.668 174.452 272.862 174.452L272.873 174.463ZM269.355 167.968H275.742C275.658 167.402 275.459 166.899 275.155 166.47C274.852 166.04 274.475 165.694 274.035 165.453C273.585 165.202 273.103 165.087 272.58 165.087C272.056 165.087 271.543 165.202 271.093 165.443C270.643 165.684 270.266 166.019 269.962 166.449C269.658 166.878 269.459 167.391 269.355 167.968Z" fill="#029CBE"/>
<path d="M285.06 174.463C284.003 174.463 283.039 174.211 282.181 173.719C281.322 173.227 280.642 172.546 280.139 171.697C279.636 170.849 279.385 169.895 279.385 168.848C279.385 167.8 279.626 166.878 280.108 166.03C280.589 165.192 281.238 164.511 282.066 164.008C282.882 163.505 283.804 163.253 284.798 163.253C285.793 163.253 286.693 163.505 287.468 164.008C288.243 164.511 288.861 165.192 289.321 166.051C289.782 166.91 290.012 167.873 290.012 168.952V169.55H281.5C281.615 170.147 281.835 170.671 282.17 171.142C282.505 171.613 282.924 171.98 283.448 172.242C283.961 172.514 284.526 172.65 285.133 172.65C285.657 172.65 286.159 172.567 286.651 172.41C287.144 172.242 287.541 172.011 287.877 171.697L289.238 173.038C288.599 173.52 287.95 173.876 287.269 174.107C286.599 174.337 285.856 174.452 285.05 174.452L285.06 174.463ZM281.542 167.968H287.929C287.845 167.402 287.646 166.899 287.343 166.47C287.039 166.04 286.662 165.694 286.222 165.453C285.772 165.202 285.29 165.087 284.767 165.087C284.243 165.087 283.73 165.202 283.28 165.443C282.83 165.684 282.453 166.019 282.149 166.449C281.846 166.878 281.647 167.391 281.542 167.968Z" fill="#029CBE"/>
<path d="M292.033 174.274V159.409L294.159 159V168.198L299.404 163.463H301.886L296.305 168.512L302.179 174.264H299.373L294.148 169.193V174.264H292.023H292.033V174.274Z" fill="#029CBE"/>
<path d="M312.722 174.484C311.675 174.484 310.722 174.232 309.864 173.74C309.005 173.248 308.335 172.577 307.833 171.718C307.341 170.869 307.089 169.916 307.089 168.869C307.089 167.821 307.341 166.868 307.833 166.019C308.325 165.17 309.005 164.49 309.864 163.987C310.722 163.484 311.675 163.232 312.722 163.232C313.769 163.232 314.743 163.484 315.591 163.987C316.439 164.49 317.109 165.16 317.612 166.019C318.104 166.868 318.355 167.821 318.355 168.869C318.355 169.916 318.104 170.869 317.612 171.718C317.12 172.567 316.439 173.237 315.591 173.74C314.743 174.232 313.79 174.484 312.722 174.484ZM312.722 172.619C313.382 172.619 313.989 172.451 314.523 172.116C315.057 171.781 315.486 171.33 315.8 170.765C316.115 170.199 316.272 169.56 316.272 168.858C316.272 168.156 316.115 167.538 315.79 166.983C315.476 166.428 315.047 165.977 314.513 165.631C313.979 165.286 313.382 165.118 312.722 165.118C312.063 165.118 311.455 165.286 310.932 165.631C310.408 165.977 309.979 166.417 309.654 166.983C309.34 167.538 309.173 168.167 309.173 168.858C309.173 169.55 309.33 170.199 309.644 170.765C309.958 171.33 310.377 171.781 310.921 172.116C311.455 172.451 312.063 172.619 312.722 172.619Z" fill="#029CBE"/>
<path d="M321.36 174.275V165.255H318.858V163.474H321.36V161.84C321.36 160.708 321.674 159.839 322.302 159.252C322.931 158.655 323.831 158.362 325.004 158.362C325.297 158.362 325.58 158.383 325.841 158.414C326.103 158.446 326.344 158.498 326.553 158.571V160.394C326.302 160.321 326.072 160.268 325.873 160.237C325.674 160.206 325.454 160.185 325.213 160.185C324.616 160.185 324.177 160.321 323.883 160.604C323.59 160.876 323.444 161.316 323.444 161.913V163.485H326.543V165.266H323.444V174.285H321.339H321.36V174.275Z" fill="#029CBE"/>
<path d="M191.205 204.613V189.748H193.373L201.675 200.789V189.748H203.78V204.613H201.822L193.331 193.236V204.613H191.205Z" fill="#029CBE"/>
<path d="M211.716 204.802C210.659 204.802 209.695 204.55 208.837 204.058C207.978 203.566 207.298 202.885 206.795 202.036C206.293 201.187 206.041 200.234 206.041 199.187C206.041 198.139 206.282 197.217 206.764 196.368C207.245 195.53 207.895 194.849 208.722 194.347C209.538 193.844 210.46 193.592 211.454 193.592C212.449 193.592 213.35 193.844 214.124 194.347C214.899 194.849 215.517 195.53 215.978 196.389C216.438 197.248 216.669 198.212 216.669 199.291V199.888H208.156C208.272 200.486 208.491 201.009 208.826 201.481C209.162 201.952 209.58 202.319 210.104 202.581C210.617 202.853 211.182 202.989 211.79 202.989C212.313 202.989 212.816 202.906 213.308 202.748C213.8 202.581 214.198 202.35 214.533 202.036L215.894 203.377C215.255 203.859 214.606 204.215 213.925 204.446C213.255 204.676 212.512 204.791 211.706 204.791L211.716 204.802ZM208.198 198.307H214.585C214.501 197.741 214.302 197.238 213.999 196.808C213.695 196.379 213.318 196.033 212.878 195.792C212.428 195.541 211.947 195.426 211.423 195.426C210.9 195.426 210.387 195.541 209.936 195.782C209.486 196.023 209.109 196.358 208.806 196.787C208.502 197.217 208.303 197.73 208.198 198.307Z" fill="#029CBE"/>
<path d="M220.522 204.613L217.506 193.801H219.569L221.673 201.742L224.134 193.801H225.956L228.416 201.742L230.521 193.801H232.52L229.484 204.613H227.442L225.024 196.693L222.584 204.613H220.522Z" fill="#029CBE"/>
<path d="M238.708 204.613V189.748H240.939V204.613H238.708Z" fill="#029CBE"/>
<path d="M243.965 204.613V189.748H250.843C251.817 189.748 252.665 189.936 253.388 190.313C254.11 190.69 254.676 191.204 255.084 191.874C255.492 192.545 255.702 193.309 255.702 194.189C255.702 195.069 255.492 195.834 255.084 196.505C254.676 197.175 254.1 197.688 253.377 198.066C252.644 198.443 251.807 198.631 250.843 198.631H246.195V204.624H243.965V204.613ZM246.195 196.735H250.613C251.493 196.735 252.184 196.505 252.707 196.044C253.22 195.583 253.482 194.975 253.482 194.21C253.482 193.446 253.22 192.838 252.707 192.388C252.194 191.937 251.493 191.707 250.613 191.707H246.195V196.735Z" fill="#029CBE"/>
<path d="M262.434 204.613V189.748H269.313C270.286 189.748 271.135 189.936 271.857 190.313C272.579 190.69 273.145 191.204 273.553 191.874C273.962 192.545 274.171 193.309 274.171 194.189C274.171 195.069 273.962 195.834 273.553 196.505C273.145 197.175 272.569 197.688 271.847 198.066C271.114 198.443 270.276 198.631 269.313 198.631H264.664V204.624H262.434V204.613ZM264.664 196.735H269.082C269.962 196.735 270.653 196.505 271.176 196.044C271.69 195.583 271.951 194.975 271.951 194.21C271.951 193.446 271.69 192.838 271.176 192.388C270.663 191.937 269.962 191.707 269.082 191.707H264.664V196.735Z" fill="#029CBE"/>
<path d="M276.108 204.614V193.802H278.233V195.185C278.568 194.672 278.998 194.274 279.5 193.981C280.003 193.687 280.568 193.541 281.207 193.541C281.647 193.551 282.003 193.614 282.285 193.729V195.636C282.086 195.552 281.877 195.489 281.668 195.458C281.458 195.426 281.238 195.405 281.029 195.405C280.411 195.405 279.856 195.573 279.375 195.908C278.893 196.243 278.516 196.725 278.233 197.364V204.603H276.108V204.614Z" fill="#029CBE"/>
<path d="M288.505 204.823C287.458 204.823 286.505 204.571 285.646 204.079C284.788 203.586 284.118 202.916 283.615 202.057C283.123 201.208 282.872 200.255 282.872 199.207C282.872 198.16 283.123 197.206 283.615 196.358C284.107 195.509 284.788 194.828 285.646 194.326C286.505 193.823 287.458 193.571 288.505 193.571C289.552 193.571 290.525 193.823 291.374 194.326C292.222 194.828 292.892 195.499 293.394 196.358C293.886 197.206 294.138 198.16 294.138 199.207C294.138 200.255 293.886 201.208 293.394 202.057C292.902 202.905 292.222 203.576 291.374 204.079C290.525 204.571 289.573 204.823 288.505 204.823ZM288.505 202.958C289.164 202.958 289.772 202.79 290.306 202.455C290.84 202.12 291.269 201.669 291.583 201.104C291.897 200.538 292.054 199.899 292.054 199.197C292.054 198.495 291.897 197.877 291.572 197.322C291.258 196.766 290.829 196.316 290.295 195.97C289.761 195.625 289.164 195.457 288.505 195.457C287.845 195.457 287.238 195.625 286.714 195.97C286.191 196.316 285.761 196.756 285.437 197.322C285.123 197.877 284.955 198.506 284.955 199.197C284.955 199.888 285.112 200.538 285.426 201.104C285.741 201.669 286.159 202.12 286.704 202.455C287.238 202.79 287.845 202.958 288.505 202.958Z" fill="#029CBE"/>
<path d="M295.195 209.16C294.965 209.16 294.745 209.139 294.525 209.107C294.305 209.076 294.127 209.044 293.981 209.013V207.316C294.221 207.368 294.504 207.4 294.829 207.4C295.3 207.4 295.635 207.295 295.834 207.096C296.043 206.886 296.137 206.551 296.137 206.09V193.812H298.263V206.237C298.263 207.169 298.001 207.892 297.467 208.405C296.933 208.919 296.179 209.17 295.185 209.17H295.195V209.16ZM297.205 192.063C296.849 192.063 296.546 191.937 296.295 191.665C296.043 191.403 295.907 191.099 295.907 190.743C295.907 190.386 296.033 190.062 296.295 189.821C296.556 189.58 296.849 189.454 297.205 189.454C297.561 189.454 297.886 189.58 298.137 189.821C298.389 190.062 298.514 190.376 298.514 190.743C298.514 191.109 298.389 191.403 298.137 191.665C297.886 191.926 297.572 192.063 297.205 192.063Z" fill="#029CBE"/>
<path d="M305.948 204.802C304.89 204.802 303.927 204.55 303.069 204.058C302.21 203.566 301.53 202.885 301.027 202.036C300.524 201.187 300.273 200.234 300.273 199.187C300.273 198.139 300.514 197.217 300.996 196.368C301.477 195.53 302.126 194.849 302.953 194.347C303.77 193.844 304.691 193.592 305.686 193.592C306.681 193.592 307.581 193.844 308.356 194.347C309.131 194.849 309.749 195.53 310.209 196.389C310.67 197.248 310.9 198.212 310.9 199.291V199.888H302.388C302.503 200.486 302.723 201.009 303.058 201.481C303.393 201.952 303.812 202.319 304.336 202.581C304.849 202.853 305.414 202.989 306.021 202.989C306.545 202.989 307.047 202.906 307.539 202.748C308.031 202.581 308.429 202.35 308.764 202.036L310.126 203.377C309.487 203.859 308.838 204.215 308.157 204.446C307.487 204.676 306.744 204.791 305.937 204.791L305.948 204.802ZM302.43 198.307H308.817C308.733 197.741 308.534 197.238 308.23 196.808C307.927 196.379 307.55 196.033 307.11 195.792C306.66 195.541 306.178 195.426 305.655 195.426C305.131 195.426 304.618 195.541 304.168 195.782C303.718 196.023 303.341 196.358 303.037 196.787C302.734 197.217 302.535 197.73 302.43 198.307Z" fill="#029CBE"/>
<path d="M318.041 204.802C317.005 204.802 316.062 204.55 315.214 204.058C314.366 203.565 313.696 202.885 313.204 202.036C312.712 201.187 312.471 200.234 312.471 199.186C312.471 198.139 312.722 197.196 313.214 196.347C313.706 195.509 314.377 194.828 315.225 194.326C316.062 193.823 317.005 193.571 318.041 193.571C318.858 193.571 319.653 193.728 320.407 194.043C321.161 194.357 321.821 194.797 322.376 195.363L321.057 196.829C320.648 196.379 320.187 196.033 319.674 195.813C319.161 195.583 318.638 195.478 318.083 195.478C317.434 195.478 316.837 195.646 316.313 195.97C315.78 196.295 315.361 196.746 315.047 197.311C314.732 197.877 314.575 198.506 314.575 199.197C314.575 199.888 314.732 200.517 315.047 201.083C315.361 201.648 315.78 202.099 316.324 202.434C316.868 202.769 317.465 202.937 318.125 202.937C318.68 202.937 319.193 202.832 319.674 202.612C320.156 202.392 320.606 202.067 321.036 201.648L322.334 203.01C321.768 203.586 321.109 204.037 320.365 204.351C319.622 204.665 318.847 204.823 318.041 204.823V204.802Z" fill="#029CBE"/>
<path d="M328.846 204.801C327.799 204.801 327.004 204.56 326.449 204.068C325.894 203.576 325.621 202.863 325.621 201.931V195.582H323.328V193.801H325.621V191.036L327.726 190.522V193.791H330.909V195.572H327.726V201.428C327.726 201.983 327.852 202.371 328.092 202.601C328.344 202.832 328.742 202.947 329.317 202.947C329.611 202.947 329.883 202.926 330.113 202.884C330.344 202.842 330.595 202.779 330.867 202.696V204.477C330.584 204.571 330.26 204.655 329.883 204.697C329.506 204.749 329.16 204.77 328.857 204.77V204.801H328.846Z" fill="#029CBE"/>
</svg>
