<svg width="531" height="463" viewBox="0 0 531 463" fill="none" xmlns="http://www.w3.org/2000/svg">
<path d="M495.937 90.0149H453.7C434.76 90.0149 419.41 74.6569 419.41 55.7057C419.41 36.7544 404.061 21.3965 385.12 21.3965H35.2899C16.3493 21.3965 1 36.7544 1 55.7057V427.691C1 446.642 16.3493 462 35.2899 462H385.11C404.05 462 419.4 446.642 419.4 427.691V251.808C419.4 232.856 434.749 217.499 453.69 217.499H495.926C514.867 217.499 530.216 202.141 530.216 183.189V124.335C530.216 105.383 514.867 90.0254 495.926 90.0254L495.937 90.0149Z" fill="#32ACC7" stroke="#029CBE" stroke-width="0.75" stroke-miterlimit="10"/>
<path d="M495.937 69.0149H453.7C434.76 69.0149 419.41 53.6569 419.41 34.7057C419.41 15.7544 404.061 0.396484 385.12 0.396484H35.2899C16.3493 0.396484 1 15.7544 1 34.7057V406.691C1 425.642 16.3493 441 35.2899 441H385.11C404.05 441 419.4 425.642 419.4 406.691V230.808C419.4 211.856 434.749 196.499 453.69 196.499H495.926C514.867 196.499 530.216 181.141 530.216 162.189V103.335C530.216 84.3833 514.867 69.0254 495.926 69.0254L495.937 69.0149Z" fill="#EBF7FA" stroke="#029CBE" stroke-width="0.75" stroke-miterlimit="10"/>
<path d="M344.789 31.6782H76.7939C56.954 31.6782 40.8706 47.7707 40.8706 67.6217V366.505C40.8706 386.356 56.954 402.448 76.7939 402.448H344.789C364.629 402.448 380.712 386.356 380.712 366.505V67.6217C380.712 47.7707 364.629 31.6782 344.789 31.6782Z" fill="#102870"/>
<path d="M344.789 32.0757C364.41 32.0757 380.314 47.9889 380.314 67.6211V366.515C380.314 386.147 364.41 402.06 344.789 402.06H76.7938C57.1727 402.06 41.2684 386.147 41.2684 366.515V67.6211C41.2684 47.9889 57.1727 32.0757 76.7938 32.0757H344.8M344.8 31.29H76.7938C56.7748 31.29 40.4832 47.5908 40.4832 67.6211V366.515C40.4832 386.545 56.7748 402.846 76.7938 402.846H344.8C364.819 402.846 381.11 386.545 381.11 366.515V67.6211C381.11 47.5908 364.819 31.29 344.8 31.29Z" fill="#029CBE"/>
<path d="M344.663 30.3159H76.6577C57.0376 30.3159 41.1323 46.2301 41.1323 65.8613V348.024C41.1323 367.656 57.0376 383.57 76.6577 383.57H344.663C364.284 383.57 380.189 367.656 380.189 348.024V65.8613C380.189 46.2301 364.284 30.3159 344.663 30.3159Z" fill="white" stroke="#029CBE" stroke-width="0.75" stroke-miterlimit="10"/>
<path d="M493.612 156.459C492.9 156.459 492.241 156.134 491.791 155.579L490.409 153.84C490.115 153.473 489.665 153.253 489.215 153.253C489.058 153.253 488.911 153.274 488.754 153.327C487.603 153.714 486.409 154.029 485.184 154.28C483.53 154.626 481.76 154.793 479.949 154.793C476.368 154.793 472.976 154.165 469.887 152.908C466.798 151.661 464.055 149.88 461.741 147.628C459.427 145.375 457.595 142.725 456.297 139.75C454.998 136.764 454.339 133.506 454.339 130.049C454.339 126.592 454.998 123.334 456.297 120.348C457.595 117.373 459.427 114.712 461.741 112.47C464.055 110.218 466.798 108.447 469.887 107.19C472.976 105.943 476.358 105.304 479.949 105.304C483.54 105.304 486.922 105.933 490.011 107.19C493.099 108.437 495.843 110.218 498.157 112.47C500.481 114.722 502.313 117.373 503.601 120.348C504.899 123.334 505.559 126.592 505.559 130.049C505.559 133.506 504.92 136.544 503.674 139.477C502.638 141.918 501.256 144.15 499.57 146.098C499.099 146.643 499.088 147.45 499.549 148.026L501.476 150.456C501.947 151.043 502.093 151.797 501.894 152.52C501.695 153.243 501.172 153.809 500.47 154.07L494.429 156.312C494.167 156.407 493.906 156.459 493.623 156.459H493.612ZM479.959 116.755C478.138 116.755 476.42 117.1 474.85 117.771C473.279 118.441 471.908 119.384 470.756 120.547C469.604 121.72 468.693 123.135 468.044 124.737C467.395 126.34 467.06 128.132 467.06 130.049C467.06 131.966 467.395 133.705 468.044 135.329C468.693 136.963 469.604 138.377 470.756 139.551C471.908 140.724 473.279 141.656 474.85 142.327C476.41 142.997 478.127 143.343 479.959 143.343C480.451 143.343 480.923 143.322 481.373 143.28C481.614 143.259 481.844 143.228 482.074 143.196L479.666 140.127C479.205 139.54 479.059 138.786 479.258 138.063C479.467 137.34 479.98 136.774 480.682 136.513L486.723 134.281C486.985 134.187 487.257 134.134 487.529 134.134C488.252 134.134 488.922 134.459 489.362 135.035L489.435 135.13C489.728 135.517 490.157 135.727 490.628 135.727C491.309 135.727 491.895 135.308 492.105 134.658C492.168 134.47 492.23 134.281 492.283 134.093C492.649 132.804 492.838 131.442 492.838 130.049C492.838 128.132 492.503 126.34 491.853 124.737C491.204 123.135 490.293 121.72 489.142 120.547C487.99 119.374 486.618 118.441 485.048 117.771C483.488 117.1 481.771 116.755 479.949 116.755H479.959Z" fill="#7ECDDE"/>
<path d="M479.97 105.702C483.519 105.702 486.828 106.32 489.885 107.556C492.942 108.792 495.612 110.521 497.905 112.752C500.198 114.984 501.989 117.561 503.266 120.515C504.543 123.459 505.182 126.643 505.182 130.059C505.182 133.474 504.564 136.439 503.329 139.33C502.303 141.74 500.952 143.919 499.287 145.846C498.691 146.538 498.691 147.554 499.256 148.277L501.183 150.707C501.999 151.734 501.57 153.253 500.334 153.714L494.293 155.956C494.073 156.039 493.853 156.071 493.623 156.071C493.047 156.071 492.482 155.809 492.115 155.337L490.733 153.598C490.367 153.127 489.801 152.865 489.226 152.865C489.027 152.865 488.838 152.897 488.65 152.959C487.508 153.337 486.325 153.651 485.121 153.902C483.477 154.237 481.76 154.405 479.959 154.405C476.41 154.405 473.101 153.787 470.044 152.551C466.987 151.315 464.317 149.586 462.024 147.355C459.731 145.123 457.941 142.546 456.663 139.592C455.386 136.648 454.747 133.463 454.747 130.048C454.747 126.633 455.386 123.448 456.663 120.504C457.941 117.561 459.731 114.973 462.024 112.742C464.317 110.521 466.987 108.782 470.044 107.546C473.101 106.309 476.4 105.691 479.959 105.691M479.959 143.74C480.452 143.74 480.933 143.719 481.404 143.678C481.875 143.636 482.336 143.562 482.786 143.479L479.97 139.896C479.164 138.869 479.593 137.35 480.818 136.9L486.859 134.668C487.079 134.584 487.299 134.553 487.529 134.553C488.116 134.553 488.681 134.815 489.048 135.297L489.121 135.391C489.519 135.894 490.074 136.135 490.629 136.135C491.414 136.135 492.189 135.663 492.482 134.794C492.545 134.605 492.607 134.406 492.66 134.207C493.037 132.877 493.236 131.494 493.236 130.059C493.236 128.079 492.901 126.256 492.22 124.59C491.55 122.924 490.608 121.489 489.424 120.274C488.231 119.059 486.828 118.105 485.215 117.404C483.593 116.712 481.844 116.356 479.959 116.356C478.075 116.356 476.316 116.702 474.703 117.404C473.081 118.105 471.678 119.059 470.494 120.274C469.301 121.489 468.369 122.924 467.699 124.59C467.029 126.256 466.683 128.079 466.683 130.059C466.683 132.039 467.018 133.799 467.699 135.485C468.369 137.172 469.301 138.618 470.494 139.833C471.688 141.048 473.091 142.001 474.703 142.703C476.326 143.405 478.075 143.751 479.959 143.751M479.959 104.916C476.326 104.916 472.892 105.555 469.751 106.833C466.61 108.101 463.835 109.903 461.48 112.186C459.124 114.47 457.26 117.173 455.951 120.19C454.632 123.228 453.962 126.539 453.962 130.048C453.962 133.558 454.632 136.879 455.951 139.906C457.271 142.934 459.134 145.626 461.49 147.91C463.846 150.204 466.631 152.006 469.761 153.274C472.892 154.541 476.326 155.191 479.97 155.191C481.813 155.191 483.603 155.013 485.289 154.667C486.524 154.416 487.739 154.091 488.901 153.703C489.006 153.672 489.121 153.651 489.236 153.651C489.571 153.651 489.906 153.818 490.126 154.091L491.508 155.83C492.021 156.479 492.796 156.857 493.634 156.857C493.958 156.857 494.272 156.804 494.576 156.689L500.617 154.447C501.444 154.143 502.052 153.483 502.292 152.635C502.533 151.786 502.355 150.906 501.811 150.215L499.884 147.784C499.549 147.355 499.549 146.758 499.895 146.359C501.601 144.379 503.004 142.117 504.062 139.644C505.329 136.659 505.978 133.432 505.978 130.059C505.978 126.685 505.308 123.228 503.989 120.201C502.669 117.173 500.806 114.481 498.45 112.197C496.094 109.913 493.309 108.111 490.178 106.833C487.037 105.566 483.603 104.916 479.97 104.916H479.959ZM479.959 142.965C478.19 142.965 476.525 142.63 475.007 141.98C473.489 141.331 472.159 140.419 471.039 139.288C469.929 138.157 469.039 136.774 468.411 135.192C467.783 133.61 467.458 131.881 467.458 130.059C467.458 128.236 467.783 126.455 468.411 124.894C469.039 123.333 469.929 121.971 471.039 120.829C472.149 119.698 473.489 118.786 475.007 118.137C476.525 117.487 478.19 117.152 479.959 117.152C481.729 117.152 483.394 117.487 484.912 118.137C486.43 118.786 487.76 119.698 488.88 120.829C489.99 121.961 490.88 123.333 491.508 124.894C492.136 126.455 492.461 128.194 492.461 130.059C492.461 131.421 492.283 132.741 491.916 133.987C491.864 134.176 491.801 134.354 491.749 134.542C491.55 135.129 491.026 135.339 490.639 135.339C490.44 135.339 490.053 135.286 489.749 134.899L489.676 134.804C489.163 134.134 488.377 133.757 487.54 133.757C487.215 133.757 486.901 133.809 486.598 133.924L480.556 136.156C479.729 136.46 479.122 137.12 478.891 137.958C478.651 138.806 478.829 139.686 479.373 140.367L481.352 142.892C480.912 142.934 480.452 142.955 479.98 142.955H479.959V142.965Z" fill="#029CBE"/>
<path d="M492.105 146.935L490.723 145.196C490.231 144.568 489.393 144.306 488.639 144.557C487.498 144.934 486.315 145.249 485.111 145.5C483.467 145.835 481.75 146.003 479.949 146.003C476.4 146.003 473.091 145.385 470.034 144.149C466.976 142.912 464.306 141.184 462.013 138.953C459.72 136.721 457.93 134.144 456.653 131.19C455.375 128.235 454.726 125.061 454.726 121.646C454.726 118.231 455.365 115.046 456.653 112.102C457.93 109.158 459.72 106.571 462.013 104.339C464.306 102.119 466.976 100.38 470.034 99.1434C473.091 97.9072 476.389 97.2891 479.949 97.2891C483.509 97.2891 486.807 97.9072 489.864 99.1434C492.921 100.38 495.591 102.108 497.884 104.339C500.177 106.571 501.968 109.148 503.245 112.102C504.522 115.046 505.172 118.231 505.172 121.646C505.172 125.061 504.554 128.026 503.318 130.917C502.292 133.327 500.942 135.506 499.277 137.433C498.68 138.125 498.68 139.141 499.245 139.864L501.172 142.294C501.989 143.321 501.559 144.84 500.334 145.301L494.293 147.543C493.508 147.836 492.628 147.585 492.115 146.935H492.105ZM479.959 135.349C480.451 135.349 480.933 135.328 481.404 135.286C481.875 135.244 482.336 135.171 482.786 135.087L479.97 131.504C479.164 130.477 479.593 128.958 480.818 128.508L486.859 126.276C487.645 125.983 488.534 126.235 489.048 126.905L489.121 126.999C490.074 128.225 491.99 127.879 492.482 126.402C492.545 126.214 492.607 126.014 492.66 125.815C493.037 124.485 493.236 123.102 493.236 121.667C493.236 119.687 492.901 117.864 492.22 116.198C491.55 114.533 490.608 113.097 489.424 111.882C488.231 110.667 486.828 109.714 485.215 109.012C483.593 108.32 481.844 107.964 479.959 107.964C478.075 107.964 476.316 108.31 474.703 109.012C473.08 109.714 471.677 110.667 470.494 111.882C469.301 113.097 468.369 114.533 467.699 116.198C467.029 117.864 466.683 119.687 466.683 121.667C466.683 123.647 467.018 125.407 467.699 127.094C468.379 128.78 469.301 130.226 470.494 131.441C471.688 132.656 473.091 133.61 474.703 134.312C476.326 135.013 478.075 135.359 479.959 135.359V135.349Z" fill="white" stroke="#029CBE" stroke-width="0.75" stroke-miterlimit="10"/>
<path d="M431.095 156.458C427.2 156.458 423.515 155.756 420.143 154.363C417.494 153.263 415.18 151.817 413.264 150.068C412.783 149.628 412.521 149.02 412.51 148.36C412.51 147.69 412.783 147.051 413.275 146.6L417.557 142.64C417.986 142.242 418.552 142.022 419.149 142.022C419.745 142.022 420.342 142.253 420.782 142.672C422.08 143.877 423.358 144.757 424.572 145.291C426.195 146.003 428.331 146.359 430.938 146.359C432.634 146.359 434.131 146.118 435.388 145.657C436.623 145.207 437.587 144.547 438.257 143.709C438.916 142.871 439.241 141.928 439.241 140.807C439.241 139.843 439 139.005 438.518 138.345C438.037 137.675 437.346 137.13 436.466 136.753C435.576 136.365 434.508 136.166 433.283 136.166H429.043C427.734 136.166 426.677 135.108 426.677 133.799V128.98C426.677 127.67 427.734 126.612 429.043 126.612H432.174C434.048 126.612 435.514 126.172 436.54 125.292C437.566 124.422 438.058 123.218 438.058 121.625C438.058 120.567 437.744 119.614 437.136 118.786C436.519 117.948 435.66 117.278 434.603 116.806C433.535 116.324 432.278 116.083 430.865 116.083C428.593 116.083 426.645 116.482 425.075 117.246C423.86 117.843 422.562 118.818 421.201 120.138C420.751 120.578 420.154 120.819 419.526 120.819C418.939 120.819 418.384 120.599 417.955 120.211L413.631 116.293C413.139 115.853 412.856 115.214 412.846 114.554C412.846 113.894 413.097 113.276 413.568 112.825C415.589 110.898 417.986 109.305 420.677 108.09C424.049 106.582 427.619 105.817 431.294 105.817C434.969 105.817 438.058 106.424 440.77 107.608C443.492 108.803 445.659 110.5 447.209 112.637C448.769 114.795 449.565 117.32 449.565 120.148C449.565 122.977 448.675 125.26 446.916 127.303C446.172 128.162 445.324 128.927 444.403 129.566C443.932 129.891 443.68 130.415 443.722 130.97C443.764 131.536 444.089 132.028 444.602 132.279C445.837 132.898 446.926 133.673 447.858 134.595C449.816 136.522 450.8 138.911 450.8 141.677C450.8 144.442 449.941 147.082 448.235 149.303C446.549 151.514 444.193 153.274 441.251 154.531C438.32 155.788 434.896 156.427 431.095 156.427V156.458Z" fill="#7ECDDE"/>
<path d="M431.305 106.226C434.843 106.226 437.953 106.813 440.623 107.986C443.293 109.159 445.387 110.794 446.905 112.889C448.423 114.984 449.177 117.414 449.177 120.17C449.177 122.925 448.329 125.093 446.622 127.073C445.9 127.911 445.083 128.645 444.183 129.273C442.937 130.132 443.073 131.987 444.424 132.668C445.628 133.275 446.675 134.019 447.586 134.909C449.47 136.774 450.413 139.037 450.413 141.708C450.413 144.38 449.586 146.936 447.931 149.094C446.277 151.263 443.994 152.96 441.105 154.206C438.204 155.453 434.875 156.071 431.095 156.071C427.315 156.071 423.63 155.38 420.3 153.997C417.683 152.918 415.432 151.504 413.537 149.775C412.689 149 412.72 147.659 413.558 146.884L417.84 142.924C418.217 142.578 418.688 142.41 419.159 142.41C419.63 142.41 420.143 142.588 420.531 142.955C421.86 144.191 423.169 145.092 424.436 145.647C426.111 146.381 428.289 146.747 430.959 146.747C432.708 146.747 434.236 146.507 435.545 146.025C436.854 145.543 437.869 144.851 438.581 143.95C439.293 143.049 439.649 142.002 439.649 140.808C439.649 139.749 439.388 138.848 438.854 138.115C438.32 137.382 437.587 136.806 436.644 136.387C435.702 135.968 434.582 135.769 433.294 135.769H429.053C427.965 135.769 427.085 134.889 427.085 133.799V128.98C427.085 127.891 427.965 127.011 429.053 127.011H432.184C434.163 127.011 435.702 126.539 436.812 125.596C437.911 124.653 438.466 123.333 438.466 121.626C438.466 120.473 438.131 119.447 437.461 118.556C436.791 117.655 435.901 116.953 434.77 116.451C433.639 115.948 432.341 115.696 430.875 115.696C428.53 115.696 426.541 116.105 424.907 116.901C423.651 117.519 422.332 118.504 420.929 119.866C420.541 120.243 420.028 120.442 419.526 120.442C419.054 120.442 418.594 120.274 418.217 119.939L413.893 116.032C413.044 115.267 413.013 113.936 413.84 113.14C415.84 111.234 418.175 109.673 420.834 108.478C424.164 106.98 427.65 106.236 431.284 106.236M431.284 105.451C427.556 105.451 423.934 106.226 420.51 107.766C417.777 108.992 415.348 110.605 413.296 112.574C412.751 113.098 412.437 113.832 412.448 114.596C412.448 115.361 412.793 116.105 413.359 116.618L417.683 120.526C418.185 120.987 418.835 121.238 419.526 121.238C420.258 121.238 420.949 120.955 421.473 120.442C422.803 119.143 424.08 118.2 425.253 117.613C426.771 116.87 428.666 116.482 430.875 116.482C432.226 116.482 433.43 116.712 434.456 117.173C435.451 117.624 436.257 118.252 436.843 119.028C437.409 119.792 437.691 120.641 437.691 121.636C437.691 123.113 437.241 124.213 436.309 125.01C435.356 125.827 433.974 126.235 432.195 126.235H429.064C427.546 126.235 426.31 127.471 426.31 128.991V133.809C426.31 135.329 427.546 136.565 429.064 136.565H433.304C434.477 136.565 435.493 136.753 436.341 137.12C437.147 137.476 437.786 137.968 438.225 138.587C438.665 139.194 438.874 139.928 438.874 140.818C438.874 141.845 438.581 142.714 437.974 143.468C437.356 144.244 436.445 144.862 435.283 145.291C434.069 145.742 432.613 145.972 430.969 145.972C428.425 145.972 426.331 145.627 424.761 144.935C423.578 144.422 422.342 143.563 421.075 142.379C420.552 141.897 419.882 141.625 419.17 141.625C418.458 141.625 417.819 141.887 417.316 142.348L413.034 146.307C412.469 146.831 412.144 147.586 412.144 148.361C412.144 149.136 412.469 149.848 413.024 150.362C414.971 152.153 417.327 153.62 420.018 154.73C423.431 156.145 427.169 156.857 431.116 156.857C435.063 156.857 438.445 156.207 441.429 154.929C444.445 153.641 446.842 151.839 448.57 149.576C450.329 147.282 451.219 144.642 451.219 141.708C451.219 138.775 450.193 136.355 448.162 134.354C447.198 133.401 446.068 132.605 444.801 131.966C444.403 131.767 444.162 131.41 444.131 130.981C444.099 130.551 444.288 130.174 444.644 129.923C445.596 129.263 446.465 128.477 447.23 127.597C449.052 125.481 449.973 122.988 449.973 120.18C449.973 117.372 449.156 114.659 447.544 112.438C445.952 110.238 443.733 108.499 440.948 107.274C438.194 106.058 434.948 105.451 431.315 105.451H431.284Z" fill="#029CBE"/>
<path d="M431.095 147.145C427.231 147.145 423.63 146.454 420.3 145.071C417.683 143.992 415.431 142.577 413.536 140.849C412.688 140.074 412.72 138.733 413.557 137.958L417.84 133.998C418.604 133.296 419.777 133.317 420.53 134.019C421.86 135.255 423.169 136.156 424.436 136.711C426.111 137.444 428.289 137.811 430.959 137.811C432.707 137.811 434.236 137.57 435.545 137.088C436.854 136.606 437.869 135.915 438.581 135.014C439.293 134.113 439.649 133.065 439.649 131.871C439.649 130.813 439.387 129.912 438.853 129.179C438.319 128.445 437.586 127.869 436.644 127.45C435.702 127.031 434.581 126.832 433.294 126.832H429.053C427.964 126.832 427.085 125.952 427.085 124.862V120.043C427.085 118.954 427.964 118.074 429.053 118.074H432.184C434.163 118.074 435.702 117.602 436.812 116.66C437.911 115.717 438.466 114.397 438.466 112.689C438.466 111.537 438.131 110.51 437.461 109.62C436.791 108.719 435.901 108.017 434.77 107.514C433.639 107.011 432.341 106.76 430.875 106.76C428.53 106.76 426.54 107.168 424.907 107.964C423.651 108.583 422.331 109.567 420.928 110.929C420.174 111.663 418.991 111.704 418.217 111.002L413.892 107.095C413.044 106.33 413.013 105 413.84 104.204C415.84 102.297 418.175 100.736 420.834 99.5416C424.164 98.0436 427.65 97.2998 431.283 97.2998C434.917 97.2998 437.932 97.8865 440.602 99.0598C443.272 100.233 445.366 101.867 446.884 103.963C448.402 106.058 449.156 108.488 449.156 111.243C449.156 113.999 448.308 116.167 446.601 118.147C445.879 118.985 445.062 119.719 444.162 120.347C442.916 121.206 443.052 123.061 444.403 123.741C445.607 124.349 446.654 125.093 447.565 125.983C449.449 127.848 450.391 130.111 450.391 132.782C450.391 135.454 449.564 138.01 447.91 140.168C446.256 142.337 443.973 144.034 441.083 145.28C438.194 146.527 434.854 147.145 431.074 147.145H431.095Z" fill="white" stroke="#029CBE" stroke-width="0.75" stroke-miterlimit="10"/>
<path d="M80.0919 83.9227V69.0571H82.2593L90.5621 80.0989V69.0571H92.6666V83.9227H90.7087L82.2174 72.5457V83.9227H80.0919Z" fill="#029CBE"/>
<path d="M100.624 84.1215C99.5665 84.1215 98.6032 83.8701 97.7446 83.3777C96.8861 82.8853 96.2055 82.2044 95.703 81.3558C95.2004 80.5073 94.9491 79.554 94.9491 78.5064C94.9491 77.4588 95.1899 76.5369 95.6715 75.6883C96.1532 74.8502 96.8023 74.1693 97.6295 73.6664C98.4461 73.1636 99.3675 72.9121 100.362 72.9121C101.357 72.9121 102.257 73.1636 103.032 73.6664C103.807 74.1693 104.425 74.8502 104.885 75.7092C105.346 76.5682 105.576 77.5321 105.576 78.6111V79.2083H97.0641C97.1793 79.8054 97.3991 80.3292 97.7342 80.8006C98.0692 81.2721 98.488 81.6387 99.0115 81.9006C99.5246 82.173 100.09 82.3092 100.697 82.3092C101.221 82.3092 101.723 82.2253 102.215 82.0682C102.708 81.9006 103.105 81.6701 103.44 81.3558L104.802 82.6968C104.163 83.1787 103.514 83.5349 102.833 83.7653C102.163 83.9958 101.42 84.1111 100.613 84.1111H100.624V84.1215ZM97.106 77.6264H103.493C103.409 77.0606 103.21 76.5578 102.906 76.1283C102.603 75.6988 102.226 75.3531 101.786 75.1121C101.336 74.8607 100.854 74.7454 100.331 74.7454C99.8073 74.7454 99.2942 74.8607 98.844 75.1016C98.3938 75.3426 98.0169 75.6778 97.7132 76.1073C97.4096 76.5368 97.2107 77.0502 97.106 77.6264Z" fill="#029CBE"/>
<path d="M109.398 83.9222L106.383 73.1108H108.445L110.55 81.0517L113.01 73.1108H114.832L117.293 81.0517L119.397 73.1108H121.397L118.36 83.9222H116.319L113.9 76.0023L111.461 83.9222H109.398Z" fill="#029CBE"/>
<path d="M127.585 83.9227V69.0571H129.815V83.9227H127.585Z" fill="#029CBE"/>
<path d="M132.851 83.9227V69.0571H139.73C140.704 69.0571 141.552 69.2457 142.274 69.6228C142.997 70 143.562 70.5133 143.971 71.1838C144.379 71.8543 144.588 72.619 144.588 73.499C144.588 74.379 144.379 75.1438 143.971 75.8142C143.562 76.4847 142.986 76.998 142.264 77.3752C141.531 77.7523 140.693 77.9408 139.73 77.9408H135.081V83.9332H132.851V83.9227ZM135.081 76.0447H139.5C140.379 76.0447 141.07 75.8142 141.594 75.3533C142.107 74.8923 142.369 74.2847 142.369 73.52C142.369 72.7552 142.107 72.1476 141.594 71.6971C141.081 71.2467 140.379 71.0162 139.5 71.0162H135.081V76.0447Z" fill="#029CBE"/>
<path d="M151.31 83.9227V69.0571H158.189C159.163 69.0571 160.011 69.2457 160.733 69.6228C161.456 70 162.021 70.5133 162.43 71.1838C162.838 71.8543 163.047 72.619 163.047 73.499C163.047 74.379 162.838 75.1438 162.43 75.8142C162.021 76.4847 161.445 76.998 160.723 77.3752C159.99 77.7523 159.152 77.9408 158.189 77.9408H153.54V83.9332H151.31V83.9227ZM153.54 76.0447H157.959C158.838 76.0447 159.529 75.8142 160.053 75.3533C160.566 74.8923 160.828 74.2847 160.828 73.52C160.828 72.7552 160.566 72.1476 160.053 71.6971C159.54 71.2467 158.838 71.0162 157.959 71.0162H153.54V76.0447Z" fill="#029CBE"/>
<path d="M165.016 83.9219V73.1105H167.141V74.4934C167.476 73.9801 167.905 73.5819 168.408 73.2886C168.911 72.9953 169.476 72.8486 170.115 72.8486C170.554 72.8486 170.91 72.922 171.193 73.0372V74.9439C170.994 74.86 170.785 74.7972 170.575 74.7658C170.366 74.7343 170.146 74.7134 169.937 74.7134C169.319 74.7134 168.764 74.881 168.282 75.2162C167.801 75.5515 167.424 76.0334 167.141 76.6724V83.9114H165.016V83.9219Z" fill="#029CBE"/>
<path d="M177.391 84.1415C176.344 84.1415 175.392 83.8901 174.533 83.3977C173.675 82.9053 173.004 82.2349 172.502 81.3758C172.01 80.5272 171.758 79.5739 171.758 78.5263C171.758 77.4787 172.01 76.5254 172.502 75.6768C172.994 74.8283 173.675 74.1473 174.533 73.6444C175.392 73.1416 176.344 72.8901 177.391 72.8901C178.438 72.8901 179.412 73.1416 180.26 73.6444C181.108 74.1473 181.778 74.8178 182.281 75.6768C182.773 76.5254 183.024 77.4787 183.024 78.5263C183.024 79.5739 182.773 80.5272 182.281 81.3758C181.789 82.2244 181.108 82.8948 180.26 83.3977C179.412 83.8901 178.459 84.1415 177.391 84.1415ZM177.391 82.2767C178.051 82.2767 178.658 82.1091 179.192 81.7739C179.726 81.4387 180.156 80.9882 180.47 80.4225C180.784 79.8567 180.941 79.2178 180.941 78.5159C180.941 77.814 180.784 77.1958 180.459 76.6406C180.145 76.0854 179.716 75.6349 179.182 75.2892C178.648 74.9435 178.051 74.7759 177.391 74.7759C176.732 74.7759 176.125 74.9435 175.601 75.2892C175.078 75.6349 174.648 76.0749 174.324 76.6406C174.01 77.1958 173.842 77.8244 173.842 78.5159C173.842 79.2073 173.999 79.8567 174.313 80.4225C174.627 80.9882 175.046 81.4387 175.591 81.7739C176.125 82.1091 176.732 82.2767 177.391 82.2767Z" fill="#029CBE"/>
<path d="M184.082 88.4687C183.852 88.4687 183.632 88.4477 183.412 88.4163C183.192 88.3849 183.014 88.3535 182.867 88.322V86.6249C183.108 86.6773 183.391 86.7087 183.715 86.7087C184.187 86.7087 184.522 86.6039 184.721 86.4049C184.93 86.1954 185.024 85.8601 185.024 85.3992V73.1212H187.15V85.5458C187.15 86.4782 186.888 87.2011 186.354 87.7144C185.82 88.2277 185.066 88.4791 184.071 88.4791H184.082V88.4687ZM186.092 71.3717C185.736 71.3717 185.433 71.246 185.181 70.9736C184.93 70.7117 184.794 70.4079 184.794 70.0517C184.794 69.6955 184.92 69.3708 185.181 69.1298C185.443 68.8889 185.736 68.7632 186.092 68.7632C186.448 68.7632 186.773 68.8889 187.024 69.1298C187.275 69.3708 187.401 69.6851 187.401 70.0517C187.401 70.4184 187.275 70.7117 187.024 70.9736C186.773 71.2355 186.459 71.3717 186.092 71.3717Z" fill="#029CBE"/>
<path d="M194.856 84.1215C193.798 84.1215 192.835 83.8701 191.976 83.3777C191.118 82.8853 190.437 82.2044 189.935 81.3558C189.432 80.5073 189.181 79.554 189.181 78.5064C189.181 77.4588 189.422 76.5369 189.903 75.6883C190.385 74.8502 191.034 74.1693 191.861 73.6664C192.678 73.1636 193.599 72.9121 194.594 72.9121C195.589 72.9121 196.489 73.1636 197.264 73.6664C198.039 74.1693 198.656 74.8502 199.117 75.7092C199.578 76.5682 199.808 77.5321 199.808 78.6111V79.2083H191.296C191.411 79.8054 191.631 80.3292 191.966 80.8006C192.301 81.2721 192.72 81.6387 193.243 81.9006C193.756 82.173 194.322 82.3092 194.929 82.3092C195.453 82.3092 195.955 82.2253 196.447 82.0682C196.939 81.9006 197.337 81.6701 197.672 81.3558L199.033 82.6968C198.395 83.1787 197.746 83.5349 197.065 83.7653C196.395 83.9958 195.651 84.1111 194.845 84.1111H194.856V84.1215ZM191.338 77.6264H197.725C197.641 77.0606 197.442 76.5578 197.138 76.1283C196.835 75.6988 196.458 75.3531 196.018 75.1121C195.568 74.8607 195.086 74.7454 194.563 74.7454C194.039 74.7454 193.526 74.8607 193.076 75.1016C192.626 75.3426 192.249 75.6778 191.945 76.1073C191.641 76.5368 191.442 77.0502 191.338 77.6264Z" fill="#029CBE"/>
<path d="M206.917 84.1205C205.881 84.1205 204.939 83.8691 204.09 83.3767C203.242 82.8843 202.572 82.2034 202.08 81.3548C201.588 80.5063 201.347 79.553 201.347 78.5054C201.347 77.4578 201.599 76.5149 202.091 75.6663C202.583 74.8282 203.253 74.1473 204.101 73.6444C204.939 73.1416 205.881 72.8901 206.917 72.8901C207.734 72.8901 208.53 73.0473 209.284 73.3616C210.038 73.6759 210.697 74.1159 211.252 74.6816L209.933 76.1483C209.525 75.6978 209.064 75.352 208.551 75.132C208.038 74.9016 207.514 74.7968 206.959 74.7968C206.31 74.7968 205.713 74.9644 205.19 75.2892C204.656 75.614 204.237 76.0644 203.923 76.6301C203.609 77.1958 203.452 77.8244 203.452 78.5159C203.452 79.2073 203.609 79.8358 203.923 80.4015C204.237 80.9673 204.656 81.4177 205.2 81.7529C205.745 82.0882 206.342 82.2558 207.001 82.2558C207.556 82.2558 208.069 82.151 208.551 81.931C209.032 81.711 209.483 81.3863 209.912 80.9672L211.21 82.3291C210.645 82.9053 209.985 83.3558 209.242 83.6701C208.498 83.9844 207.724 84.1415 206.917 84.1415V84.1205Z" fill="#029CBE"/>
<path d="M217.754 84.1212C216.707 84.1212 215.911 83.8802 215.356 83.3879C214.802 82.8955 214.529 82.1831 214.529 81.2508V74.9023H212.236V73.1213H214.529V70.3556L216.634 69.8423V73.1108H219.817V74.8918H216.634V80.7479C216.634 81.3031 216.759 81.6908 217 81.9213C217.252 82.1517 217.649 82.2669 218.225 82.2669C218.518 82.2669 218.791 82.246 219.021 82.2041C219.251 82.1622 219.503 82.0993 219.775 82.0155V83.7965C219.492 83.8907 219.168 83.9746 218.791 84.0165C218.414 84.0689 218.068 84.0897 217.765 84.0897V84.1212H217.754Z" fill="#029CBE"/>
<path d="M80.0919 114.261V99.395H86.5206C87.4944 99.395 88.3424 99.5626 89.0649 99.8874C89.7873 100.212 90.3422 100.673 90.7401 101.26C91.138 101.846 91.3369 102.538 91.3369 103.334C91.3369 104.057 91.1485 104.696 90.782 105.241C90.4155 105.796 89.9025 106.236 89.2324 106.561C90.07 106.854 90.7192 107.304 91.2008 107.912C91.672 108.509 91.9128 109.222 91.9128 110.028C91.9128 110.887 91.7034 111.642 91.2741 112.281C90.8448 112.92 90.2585 113.412 89.4942 113.758C88.7298 114.103 87.8294 114.282 86.8033 114.282H80.0919V114.261ZM82.3221 105.702H86.395C87.2326 105.702 87.8922 105.503 88.3948 105.104C88.8869 104.706 89.1382 104.172 89.1382 103.491C89.1382 102.81 88.8869 102.276 88.3948 101.878C87.9027 101.48 87.2326 101.281 86.395 101.281H82.3221V105.702ZM82.3221 112.364H86.6358C87.5676 112.364 88.311 112.144 88.8555 111.704C89.3999 111.264 89.6721 110.667 89.6721 109.923C89.6721 109.18 89.3999 108.593 88.8555 108.153C88.311 107.703 87.5676 107.483 86.6358 107.483H82.3221V112.364Z" fill="#029CBE"/>
<path d="M99.0534 114.449C97.9959 114.449 97.0326 114.198 96.1741 113.705C95.3155 113.213 94.635 112.532 94.1324 111.683C93.6298 110.835 93.3785 109.882 93.3785 108.834C93.3785 107.786 93.6194 106.865 94.101 106.016C94.5826 105.178 95.2318 104.497 96.0589 103.994C96.8756 103.491 97.797 103.24 98.7916 103.24C99.7863 103.24 100.687 103.491 101.462 103.994C102.236 104.497 102.854 105.178 103.315 106.037C103.775 106.896 104.006 107.86 104.006 108.939V109.536H95.4935C95.6087 110.133 95.8286 110.657 96.1636 111.128C96.4987 111.6 96.9175 111.966 97.441 112.228C97.954 112.501 98.5194 112.637 99.1267 112.637C99.6502 112.637 100.153 112.553 100.645 112.396C101.137 112.228 101.535 111.998 101.87 111.683L103.231 113.024C102.592 113.506 101.943 113.862 101.263 114.093C100.593 114.323 99.8491 114.439 99.0429 114.439H99.0534V114.449ZM95.5354 107.954H101.922C101.838 107.388 101.64 106.885 101.336 106.456C101.032 106.026 100.655 105.681 100.216 105.44C99.7654 105.188 99.2837 105.073 98.7602 105.073C98.2367 105.073 97.7237 105.188 97.2735 105.429C96.8232 105.67 96.4463 106.005 96.1427 106.435C95.839 106.864 95.6401 107.378 95.5354 107.954Z" fill="#029CBE"/>
<path d="M110.33 114.449C109.283 114.449 108.487 114.208 107.932 113.716C107.377 113.224 107.105 112.511 107.105 111.579V105.23H104.812V103.449H107.105V100.684L109.21 100.17V103.439H112.393V105.22H109.21V111.076C109.21 111.631 109.335 112.019 109.576 112.249C109.827 112.48 110.225 112.595 110.801 112.595C111.094 112.595 111.366 112.574 111.597 112.532C111.827 112.49 112.078 112.427 112.351 112.344V114.125C112.068 114.219 111.743 114.303 111.366 114.345C110.99 114.397 110.644 114.418 110.34 114.418V114.449H110.33Z" fill="#029CBE"/>
<path d="M117.376 114.45C116.601 114.45 115.91 114.314 115.314 114.031C114.717 113.748 114.256 113.371 113.911 112.879C113.565 112.386 113.398 111.81 113.398 111.16C113.398 110.144 113.785 109.338 114.57 108.751C115.345 108.164 116.413 107.871 117.774 107.871C118.832 107.871 119.816 108.08 120.727 108.489V107.347C120.727 106.572 120.507 105.985 120.057 105.608C119.606 105.231 118.957 105.032 118.088 105.032C117.596 105.032 117.073 105.105 116.539 105.252C116.005 105.399 115.397 105.629 114.738 105.943L113.953 104.351C114.769 103.974 115.534 103.691 116.245 103.513C116.957 103.335 117.669 103.251 118.392 103.251C119.795 103.251 120.884 103.586 121.648 104.246C122.412 104.906 122.8 105.86 122.8 107.096V114.272H120.716V113.339C120.235 113.727 119.722 114.01 119.167 114.188C118.612 114.377 118.015 114.46 117.366 114.46L117.376 114.45ZM115.45 111.119C115.45 111.642 115.67 112.072 116.12 112.397C116.57 112.721 117.146 112.889 117.868 112.889C118.434 112.889 118.957 112.805 119.428 112.638C119.9 112.47 120.339 112.208 120.737 111.852V110.029C120.329 109.788 119.9 109.61 119.449 109.505C118.999 109.4 118.507 109.348 117.952 109.348C117.177 109.348 116.56 109.505 116.12 109.83C115.68 110.144 115.45 110.584 115.45 111.139V111.119Z" fill="#029CBE"/>
<path d="M129.941 114.261V99.395H132.171V112.281H140.725V114.261H129.941Z" fill="#029CBE"/>
<path d="M146.138 114.45C145.363 114.45 144.672 114.314 144.075 114.031C143.479 113.748 143.018 113.371 142.672 112.879C142.327 112.386 142.159 111.81 142.159 111.16C142.159 110.144 142.547 109.338 143.332 108.751C144.107 108.164 145.175 107.871 146.536 107.871C147.593 107.871 148.578 108.08 149.488 108.489V107.347C149.488 106.572 149.269 105.985 148.818 105.608C148.368 105.231 147.719 105.032 146.85 105.032C146.358 105.032 145.834 105.105 145.3 105.252C144.766 105.399 144.159 105.629 143.499 105.943L142.714 104.351C143.531 103.974 144.295 103.691 145.007 103.513C145.719 103.335 146.431 103.251 147.154 103.251C148.557 103.251 149.646 103.586 150.41 104.246C151.174 104.906 151.562 105.86 151.562 107.096V114.272H149.478V113.339C148.996 113.727 148.483 114.01 147.928 114.188C147.373 114.377 146.777 114.46 146.128 114.46L146.138 114.45ZM144.211 111.119C144.211 111.642 144.431 112.072 144.882 112.397C145.332 112.721 145.908 112.889 146.63 112.889C147.195 112.889 147.719 112.805 148.19 112.638C148.661 112.47 149.101 112.208 149.499 111.852V110.029C149.091 109.788 148.661 109.61 148.211 109.505C147.761 109.4 147.269 109.348 146.714 109.348C145.939 109.348 145.321 109.505 144.882 109.83C144.442 110.144 144.211 110.584 144.211 111.139V111.119Z" fill="#029CBE"/>
<path d="M158.084 114.471C157.247 114.471 156.514 114.293 155.875 113.937C155.236 113.58 154.744 113.088 154.388 112.438C154.032 111.789 153.854 111.056 153.854 110.217V103.439H155.959V109.851C155.959 110.699 156.2 111.37 156.692 111.873C157.184 112.365 157.833 112.617 158.66 112.617C159.236 112.617 159.76 112.491 160.21 112.25C160.66 111.998 161.027 111.653 161.309 111.202V103.45H163.435V114.261H161.309V113.161C160.472 114.041 159.404 114.481 158.084 114.481V114.471Z" fill="#029CBE"/>
<path d="M165.937 114.261V103.45H168.063V104.55C168.9 103.67 169.979 103.23 171.308 103.23C172.146 103.23 172.879 103.408 173.507 103.764C174.135 104.12 174.638 104.613 174.994 105.252C175.35 105.891 175.538 106.624 175.538 107.462V114.261H173.413V107.829C173.413 106.98 173.172 106.31 172.701 105.818C172.23 105.325 171.57 105.084 170.711 105.084C170.146 105.084 169.633 105.21 169.183 105.44C168.733 105.681 168.356 106.027 168.063 106.478V114.251H165.937V114.261Z" fill="#029CBE"/>
<path d="M183.045 114.449C182.009 114.449 181.066 114.198 180.218 113.705C179.37 113.213 178.7 112.532 178.208 111.683C177.716 110.835 177.475 109.882 177.475 108.834C177.475 107.786 177.727 106.844 178.219 105.995C178.711 105.157 179.381 104.476 180.229 103.973C181.067 103.47 182.009 103.219 183.045 103.219C183.862 103.219 184.658 103.376 185.412 103.69C186.165 104.004 186.825 104.444 187.38 105.01L186.061 106.477C185.652 106.026 185.192 105.681 184.679 105.461C184.166 105.23 183.642 105.125 183.087 105.125C182.438 105.125 181.841 105.293 181.318 105.618C180.784 105.943 180.365 106.393 180.051 106.959C179.737 107.524 179.58 108.153 179.58 108.844C179.58 109.536 179.737 110.164 180.051 110.73C180.365 111.296 180.784 111.746 181.328 112.082C181.873 112.417 182.47 112.584 183.129 112.584C183.684 112.584 184.197 112.48 184.679 112.26C185.16 112.04 185.611 111.715 186.04 111.296L187.338 112.658C186.773 113.234 186.113 113.684 185.37 113.999C184.626 114.313 183.852 114.47 183.045 114.47V114.449Z" fill="#029CBE"/>
<path d="M189.024 114.261V99.3953L191.149 98.9238V104.549C191.987 103.669 193.065 103.229 194.395 103.229C195.233 103.229 195.966 103.408 196.594 103.764C197.222 104.12 197.725 104.612 198.081 105.251C198.437 105.89 198.625 106.624 198.625 107.462V114.261H196.5V107.829C196.5 106.98 196.259 106.309 195.777 105.817C195.296 105.325 194.636 105.084 193.809 105.084C193.243 105.084 192.73 105.209 192.28 105.44C191.83 105.681 191.453 106.027 191.16 106.477V114.25H189.024V114.261Z" fill="#029CBE"/>
<path opacity="0.8" d="M87.2221 175.169C86.1436 175.169 85.1385 174.97 84.2066 174.582C83.2748 174.195 82.4476 173.65 81.7461 172.948C81.0342 172.246 80.4897 171.429 80.1023 170.507C79.7149 169.585 79.516 168.58 79.516 167.501C79.516 166.422 79.7149 165.426 80.1023 164.494C80.4897 163.572 81.0446 162.755 81.7461 162.053C82.4476 161.351 83.2748 160.806 84.2066 160.419C85.1385 160.031 86.1436 159.832 87.2221 159.832C87.9969 159.832 88.7507 159.926 89.4627 160.115C90.1747 160.303 90.8447 160.586 91.4625 160.942C92.0802 161.299 92.6247 161.749 93.1063 162.273L92.0279 163.415C91.452 162.744 90.7296 162.241 89.8815 161.875C89.0334 161.519 88.1434 161.33 87.2325 161.33C86.374 161.33 85.5678 161.487 84.8349 161.802C84.1019 162.116 83.4633 162.545 82.9188 163.111C82.3744 163.677 81.9451 164.326 81.6414 165.06C81.3378 165.803 81.1807 166.61 81.1807 167.49C81.1807 168.37 81.3378 169.156 81.6414 169.91C81.9451 170.664 82.3744 171.314 82.9293 171.88C83.4842 172.435 84.1334 172.875 84.8767 173.189C85.6201 173.503 86.4263 173.66 87.2849 173.66C88.2063 173.66 89.0858 173.482 89.9129 173.116C90.7505 172.76 91.452 172.257 92.0174 171.618L93.0749 172.718C92.5828 173.231 92.0279 173.671 91.4101 174.038C90.7924 174.404 90.1328 174.687 89.4208 174.876C88.7088 175.064 87.9864 175.159 87.2325 175.159L87.2221 175.169Z" fill="#029CBE"/>
<path opacity="0.8" d="M99.9119 175.127C98.8963 175.127 97.9645 174.886 97.1373 174.394C96.3102 173.902 95.6506 173.242 95.1585 172.404C94.6664 171.565 94.4255 170.633 94.4255 169.596C94.4255 168.559 94.6559 167.658 95.127 166.82C95.5982 165.992 96.2264 165.332 97.0117 164.84C97.8074 164.347 98.6869 164.106 99.6606 164.106C100.634 164.106 101.462 164.347 102.215 164.84C102.969 165.332 103.576 165.982 104.016 166.82C104.456 167.658 104.686 168.569 104.686 169.596V170.088H95.9647C96.0484 170.78 96.2683 171.408 96.6348 171.953C97.0012 172.498 97.4619 172.938 98.0482 173.263C98.6241 173.577 99.2628 173.744 99.9538 173.744C100.509 173.744 101.043 173.661 101.566 173.493C102.09 173.325 102.529 173.084 102.885 172.77L103.859 173.807C103.262 174.247 102.645 174.572 102.006 174.792C101.357 175.012 100.655 175.117 99.891 175.117H99.9119V175.127ZM96.0275 168.842H103.137C103.053 168.203 102.844 167.637 102.509 167.134C102.173 166.631 101.765 166.233 101.263 165.94C100.77 165.646 100.226 165.5 99.6292 165.5C99.0324 165.5 98.4566 165.646 97.954 165.929C97.441 166.212 97.0221 166.61 96.6766 167.103C96.3416 167.606 96.1217 168.182 96.017 168.831L96.0275 168.842Z" fill="#029CBE"/>
<path opacity="0.8" d="M106.906 174.939V160.074L108.477 159.717V174.939H106.906Z" fill="#029CBE"/>
<path opacity="0.8" d="M115.209 175.148C114.403 175.148 113.691 174.97 113.063 174.624C112.434 174.279 111.953 173.797 111.607 173.179C111.262 172.561 111.084 171.848 111.084 171.021V164.284H112.633V170.696C112.633 171.649 112.905 172.393 113.439 172.938C113.973 173.482 114.696 173.755 115.607 173.755C116.245 173.755 116.811 173.608 117.313 173.315C117.816 173.021 118.224 172.613 118.538 172.089V164.274H120.109V174.918H118.538V173.681C117.701 174.645 116.591 175.127 115.209 175.127V175.148Z" fill="#029CBE"/>
<path opacity="0.8" d="M126.161 174.939L121.554 164.295H123.292L126.925 172.896L130.558 164.295H132.234L127.648 174.939H126.161Z" fill="#029CBE"/>
<path opacity="0.8" d="M133.982 174.938V160.072H140.432C141.405 160.072 142.253 160.25 142.965 160.607C143.677 160.963 144.232 161.455 144.63 162.105C145.028 162.754 145.227 163.498 145.227 164.367C145.227 165.237 145.028 165.981 144.63 166.63C144.232 167.28 143.677 167.772 142.955 168.139C142.233 168.495 141.395 168.684 140.432 168.684H135.615V174.948H133.982V174.938ZM135.615 167.248H140.306C141.311 167.248 142.107 166.986 142.704 166.473C143.3 165.96 143.594 165.258 143.594 164.378C143.594 163.498 143.3 162.807 142.704 162.293C142.107 161.78 141.311 161.528 140.306 161.528H135.615V167.238V167.248Z" fill="#029CBE"/>
<path opacity="0.8" d="M147.405 174.939V160.074L148.975 159.717V174.939H147.405Z" fill="#029CBE"/>
<path opacity="0.8" d="M155.006 175.127C154.231 175.127 153.54 174.991 152.954 174.719C152.368 174.446 151.907 174.08 151.572 173.598C151.237 173.116 151.069 172.561 151.069 171.922C151.069 170.916 151.457 170.12 152.211 169.543C152.964 168.967 154.012 168.674 155.31 168.674C156.451 168.674 157.498 168.915 158.43 169.397V167.993C158.43 167.144 158.189 166.505 157.708 166.076C157.226 165.646 156.524 165.426 155.603 165.426C155.079 165.426 154.556 165.5 154.022 165.646C153.488 165.793 152.912 166.034 152.273 166.359L151.677 165.144C152.441 164.777 153.153 164.504 153.802 164.337C154.451 164.169 155.1 164.085 155.75 164.085C157.09 164.085 158.126 164.4 158.859 165.039C159.592 165.678 159.948 166.589 159.948 167.773V174.928H158.419V173.891C157.938 174.3 157.414 174.614 156.838 174.813C156.263 175.022 155.645 175.117 154.985 175.117H155.006V175.127ZM152.588 171.88C152.588 172.477 152.839 172.959 153.341 173.336C153.844 173.713 154.493 173.902 155.278 173.902C155.917 173.902 156.493 173.807 157.016 173.608C157.54 173.409 158.011 173.095 158.44 172.676V170.675C158.001 170.382 157.53 170.162 157.037 170.025C156.545 169.889 155.98 169.826 155.362 169.826C154.514 169.826 153.834 170.015 153.331 170.392C152.828 170.769 152.577 171.262 152.577 171.89H152.588V171.88Z" fill="#029CBE"/>
<path opacity="0.8" d="M162.848 179.475C162.649 179.475 162.461 179.475 162.283 179.443C162.105 179.412 161.958 179.401 161.843 179.37V177.945C162.084 177.998 162.377 178.029 162.733 178.029C163.665 178.029 164.377 177.474 164.859 176.374L165.497 174.907L161.173 164.295H162.911L166.345 173.022L170.062 164.295H171.758L166.45 176.594C166.157 177.275 165.832 177.83 165.497 178.249C165.162 178.668 164.775 178.982 164.346 179.181C163.916 179.381 163.414 179.475 162.848 179.475Z" fill="#029CBE"/>
<path opacity="0.8" d="M178.072 174.938V160.072H182.972C184.103 160.072 185.139 160.261 186.092 160.627C187.045 160.994 187.862 161.508 188.563 162.178C189.265 162.848 189.809 163.634 190.197 164.535C190.584 165.447 190.783 166.431 190.783 167.51C190.783 168.589 190.594 169.574 190.207 170.486C189.83 171.397 189.286 172.183 188.584 172.843C187.883 173.513 187.055 174.026 186.103 174.393C185.15 174.76 184.103 174.948 182.972 174.948H178.072V174.938ZM179.705 173.45H183.056C183.914 173.45 184.721 173.304 185.454 173C186.186 172.706 186.836 172.287 187.38 171.743C187.935 171.208 188.364 170.58 188.668 169.857C188.971 169.134 189.129 168.348 189.129 167.5C189.129 166.651 188.971 165.866 188.668 165.143C188.364 164.42 187.935 163.791 187.38 163.257C186.825 162.723 186.186 162.304 185.454 162C184.721 161.707 183.914 161.549 183.056 161.549H179.705V173.44V173.45Z" fill="#029CBE"/>
<path opacity="0.8" d="M191.066 174.938L197.222 160.072H199.201L205.316 174.938H203.536L201.672 170.265H194.667L192.783 174.938H191.066ZM195.222 168.862H201.075L198.143 161.581L195.212 168.862H195.222Z" fill="#029CBE"/>
<path opacity="0.8" d="M213.241 175.169C212.163 175.169 211.168 174.97 210.237 174.582C209.315 174.195 208.498 173.65 207.797 172.948C207.095 172.246 206.551 171.429 206.164 170.507C205.776 169.585 205.577 168.58 205.577 167.501C205.577 166.422 205.776 165.426 206.164 164.494C206.551 163.572 207.095 162.755 207.797 162.053C208.498 161.351 209.315 160.806 210.237 160.419C211.168 160.031 212.163 159.832 213.241 159.832C214.32 159.832 215.294 160.031 216.225 160.419C217.147 160.806 217.964 161.351 218.665 162.053C219.367 162.755 219.911 163.572 220.298 164.494C220.686 165.426 220.885 166.422 220.885 167.501C220.885 168.58 220.686 169.575 220.298 170.507C219.911 171.44 219.367 172.246 218.665 172.948C217.964 173.65 217.147 174.195 216.225 174.582C215.294 174.97 214.309 175.169 213.241 175.169ZM213.241 173.66C214.09 173.66 214.875 173.503 215.597 173.189C216.32 172.875 216.948 172.445 217.492 171.88C218.037 171.314 218.466 170.664 218.77 169.91C219.073 169.156 219.23 168.349 219.23 167.49C219.23 166.631 219.073 165.803 218.77 165.06C218.466 164.316 218.037 163.666 217.492 163.111C216.948 162.556 216.32 162.116 215.597 161.802C214.875 161.487 214.09 161.33 213.241 161.33C212.393 161.33 211.608 161.487 210.875 161.802C210.142 162.116 209.514 162.545 208.97 163.111C208.425 163.677 207.996 164.326 207.692 165.06C207.389 165.803 207.232 166.61 207.232 167.469C207.232 168.328 207.389 169.156 207.692 169.91C207.996 170.664 208.425 171.314 208.97 171.88C209.514 172.445 210.153 172.875 210.875 173.189C211.598 173.503 212.393 173.66 213.241 173.66Z" fill="#029CBE"/>
<path d="M83.1492 189.814L81.83 194.759H79.5789L81.5263 189.814H83.1492ZM86.5206 189.814L85.2014 194.759H82.9503L84.9082 189.814H86.5206Z" fill="#029CBE"/>
<path d="M91.4207 205.267L88.1749 190.401H90.4679L92.7818 201.757L96.1323 190.401H98.2577L101.608 201.737L103.943 190.401H106.131L102.886 205.267H100.593L97.1793 193.586L93.7451 205.267H91.4207Z" fill="#029CBE"/>
<path d="M110.497 205.466C109.723 205.466 109.032 205.33 108.435 205.047C107.838 204.764 107.377 204.387 107.032 203.895C106.686 203.402 106.519 202.826 106.519 202.177C106.519 201.16 106.906 200.354 107.691 199.767C108.466 199.18 109.534 198.887 110.895 198.887C111.953 198.887 112.937 199.097 113.848 199.505V198.363C113.848 197.588 113.628 197.001 113.178 196.624C112.728 196.247 112.078 196.048 111.209 196.048C110.717 196.048 110.194 196.121 109.66 196.268C109.126 196.415 108.518 196.645 107.859 196.959L107.074 195.367C107.89 194.99 108.655 194.707 109.367 194.529C110.079 194.351 110.791 194.267 111.513 194.267C112.916 194.267 114.005 194.602 114.769 195.262C115.534 195.922 115.921 196.876 115.921 198.112V205.288H113.837V204.356C113.356 204.743 112.843 205.026 112.288 205.204C111.733 205.393 111.136 205.477 110.487 205.477L110.497 205.466ZM108.571 202.135C108.571 202.658 108.791 203.088 109.241 203.413C109.691 203.737 110.267 203.905 110.989 203.905C111.555 203.905 112.078 203.821 112.55 203.654C113.021 203.486 113.46 203.224 113.858 202.868V201.045C113.45 200.804 113.021 200.626 112.57 200.521C112.12 200.417 111.628 200.364 111.073 200.364C110.298 200.364 109.681 200.521 109.241 200.846C108.801 201.16 108.571 201.6 108.571 202.156V202.135Z" fill="#029CBE"/>
<path d="M118.371 205.266V194.455H120.496V195.555C121.334 194.675 122.412 194.235 123.742 194.235C124.58 194.235 125.313 194.413 125.941 194.769C126.569 195.125 127.072 195.618 127.428 196.257C127.784 196.896 127.972 197.629 127.972 198.467V205.266H125.847V198.834C125.847 197.985 125.606 197.315 125.135 196.822C124.664 196.33 124.004 196.089 123.145 196.089C122.58 196.089 122.067 196.215 121.617 196.445C121.166 196.686 120.79 197.032 120.496 197.482V205.256H118.371V205.266Z" fill="#029CBE"/>
<path d="M135.375 205.434C134.369 205.434 133.448 205.183 132.61 204.69C131.773 204.198 131.113 203.527 130.642 202.679C130.16 201.841 129.92 200.887 129.92 199.84C129.92 198.792 130.16 197.849 130.652 197.011C131.145 196.173 131.804 195.513 132.642 195.01C133.479 194.518 134.401 194.266 135.427 194.266C136.024 194.266 136.6 194.361 137.144 194.539C137.699 194.727 138.201 194.989 138.673 195.345V190.38L140.798 189.971V205.235H138.694V204.198C137.772 205.004 136.673 205.413 135.385 205.413V205.434H135.375ZM135.647 203.59C136.264 203.59 136.84 203.475 137.353 203.255C137.866 203.024 138.306 202.7 138.662 202.281V197.42C138.306 197.022 137.877 196.707 137.353 196.477C136.84 196.246 136.264 196.131 135.647 196.131C134.966 196.131 134.348 196.299 133.804 196.624C133.249 196.948 132.809 197.388 132.485 197.954C132.16 198.509 131.993 199.148 131.993 199.85C131.993 200.552 132.16 201.191 132.485 201.757C132.809 202.323 133.249 202.773 133.804 203.108C134.359 203.443 134.966 203.611 135.647 203.611V203.59Z" fill="#029CBE"/>
<path d="M148.473 205.465C147.415 205.465 146.452 205.214 145.593 204.721C144.735 204.229 144.054 203.548 143.552 202.7C143.049 201.851 142.798 200.898 142.798 199.85C142.798 198.802 143.039 197.881 143.52 197.032C144.002 196.194 144.651 195.513 145.478 195.01C146.295 194.507 147.216 194.256 148.211 194.256C149.206 194.256 150.106 194.507 150.881 195.01C151.656 195.513 152.273 196.194 152.734 197.053C153.195 197.912 153.425 198.876 153.425 199.955V200.552H144.913C145.028 201.149 145.248 201.673 145.583 202.144C145.918 202.616 146.337 202.982 146.86 203.244C147.373 203.517 147.939 203.653 148.546 203.653C149.07 203.653 149.572 203.569 150.064 203.412C150.556 203.244 150.954 203.014 151.289 202.7L152.65 204.04C152.012 204.522 151.363 204.879 150.682 205.109C150.012 205.34 149.269 205.455 148.462 205.455H148.473V205.465ZM144.955 198.97H151.342C151.258 198.404 151.059 197.902 150.755 197.472C150.452 197.043 150.075 196.697 149.635 196.456C149.185 196.204 148.703 196.089 148.18 196.089C147.656 196.089 147.143 196.204 146.693 196.445C146.243 196.686 145.866 197.022 145.562 197.451C145.258 197.881 145.059 198.394 144.955 198.97Z" fill="#029CBE"/>
<path d="M155.456 205.267V194.455H157.582V195.838C157.917 195.325 158.346 194.927 158.849 194.633C159.351 194.34 159.917 194.193 160.555 194.193C160.995 194.193 161.351 194.267 161.634 194.382V196.289C161.435 196.205 161.225 196.142 161.016 196.111C160.807 196.079 160.587 196.058 160.377 196.058C159.76 196.058 159.205 196.226 158.723 196.561C158.241 196.896 157.865 197.378 157.582 198.017V205.256H155.456V205.267Z" fill="#029CBE"/>
<path d="M167.015 205.486C166.084 205.486 165.204 205.35 164.398 205.067C163.581 204.795 162.88 204.397 162.283 203.894L163.456 202.49C164.011 202.93 164.576 203.266 165.162 203.496C165.749 203.726 166.345 203.842 166.953 203.842C167.717 203.842 168.335 203.695 168.816 203.391C169.298 203.098 169.539 202.7 169.539 202.228C169.539 201.83 169.403 201.516 169.11 201.296C168.827 201.066 168.387 200.919 167.79 200.825L165.832 200.552C164.754 200.395 163.948 200.06 163.414 199.557C162.88 199.054 162.608 198.363 162.608 197.514C162.608 196.865 162.786 196.288 163.142 195.807C163.497 195.325 163.99 194.937 164.628 194.665C165.267 194.392 166.01 194.246 166.858 194.246C167.633 194.246 168.387 194.361 169.11 194.581C169.832 194.801 170.523 195.157 171.193 195.639L170.115 197.043C169.518 196.645 168.942 196.351 168.387 196.173C167.832 195.985 167.267 195.901 166.701 195.901C166.052 195.901 165.529 196.037 165.131 196.32C164.733 196.592 164.534 196.948 164.534 197.388C164.534 197.787 164.67 198.09 164.942 198.31C165.215 198.53 165.675 198.677 166.314 198.771L168.272 199.044C169.35 199.201 170.157 199.526 170.711 200.028C171.266 200.531 171.539 201.202 171.539 202.061C171.539 202.71 171.34 203.297 170.942 203.81C170.544 204.324 170.01 204.732 169.329 205.036C168.649 205.329 167.874 205.486 167.015 205.486Z" fill="#029CBE"/>
<path d="M173.182 205.266V190.401L175.308 189.929V195.555C176.146 194.675 177.224 194.235 178.554 194.235C179.391 194.235 180.124 194.413 180.752 194.769C181.381 195.125 181.883 195.618 182.239 196.257C182.595 196.896 182.784 197.629 182.784 198.467V205.266H180.658V198.834C180.658 197.985 180.417 197.315 179.936 196.822C179.454 196.33 178.795 196.089 177.967 196.089C177.402 196.089 176.889 196.215 176.439 196.445C175.988 196.686 175.612 197.032 175.318 197.482V205.256H173.182V205.266Z" fill="#029CBE"/>
<path d="M186.281 192.716C185.925 192.716 185.621 192.591 185.37 192.318C185.118 192.056 184.982 191.753 184.982 191.397C184.982 191.04 185.108 190.716 185.37 190.475C185.631 190.234 185.925 190.108 186.281 190.108C186.637 190.108 186.961 190.234 187.212 190.475C187.464 190.716 187.589 191.03 187.589 191.397C187.589 191.763 187.464 192.056 187.212 192.318C186.961 192.58 186.647 192.716 186.281 192.716ZM185.223 205.267V194.456H187.349V205.267H185.223Z" fill="#029CBE"/>
<path d="M189.83 209.604V194.466H191.935V195.503C192.835 194.697 193.945 194.288 195.243 194.288C196.259 194.288 197.18 194.54 198.007 195.032C198.834 195.524 199.494 196.195 199.976 197.033C200.457 197.871 200.698 198.814 200.698 199.861C200.698 200.909 200.457 201.852 199.965 202.7C199.473 203.539 198.824 204.209 197.997 204.712C197.17 205.204 196.238 205.456 195.201 205.456C194.604 205.456 194.029 205.361 193.484 205.173C192.929 204.984 192.427 204.712 191.956 204.356V209.625H189.83V209.604ZM194.971 203.591C195.662 203.591 196.28 203.434 196.824 203.099C197.369 202.763 197.808 202.334 198.133 201.768C198.458 201.213 198.625 200.574 198.625 199.872C198.625 199.17 198.458 198.531 198.133 197.965C197.808 197.399 197.369 196.949 196.824 196.624C196.28 196.3 195.662 196.132 194.971 196.132C194.364 196.132 193.798 196.247 193.275 196.467C192.751 196.698 192.312 197.012 191.956 197.42V202.302C192.312 202.7 192.751 203.015 193.285 203.235C193.819 203.465 194.374 203.57 194.971 203.57V203.591Z" fill="#029CBE"/>
<path d="M205.923 205.267L212.058 190.401H214.686L220.759 205.267H218.34L216.623 200.909H209.985L208.247 205.267H205.923ZM210.697 199.065H215.901L213.315 192.528L210.708 199.065H210.697Z" fill="#029CBE"/>
<path d="M222.026 205.266V190.401L224.151 189.992V205.256H222.026V205.266Z" fill="#029CBE"/>
<path d="M226.654 209.604V194.466H228.758V195.503C229.659 194.697 230.769 194.288 232.067 194.288C233.083 194.288 234.004 194.54 234.831 195.032C235.658 195.524 236.318 196.195 236.799 197.033C237.281 197.871 237.522 198.814 237.522 199.861C237.522 200.909 237.281 201.852 236.789 202.7C236.297 203.539 235.648 204.209 234.821 204.712C233.993 205.204 233.062 205.456 232.025 205.456C231.428 205.456 230.852 205.361 230.308 205.173C229.753 204.984 229.25 204.712 228.779 204.356V209.625H226.654V209.604ZM231.795 203.591C232.486 203.591 233.103 203.434 233.648 203.099C234.192 202.763 234.632 202.334 234.957 201.768C235.281 201.213 235.449 200.574 235.449 199.872C235.449 199.17 235.281 198.531 234.957 197.965C234.632 197.399 234.192 196.949 233.648 196.624C233.103 196.3 232.486 196.132 231.795 196.132C231.187 196.132 230.622 196.247 230.098 196.467C229.575 196.698 229.135 197.012 228.779 197.42V202.302C229.135 202.7 229.575 203.015 230.109 203.235C230.643 203.465 231.198 203.57 231.795 203.57V203.591Z" fill="#029CBE"/>
<path d="M239.542 205.266V190.401L241.668 189.929V195.555C242.506 194.675 243.584 194.235 244.914 194.235C245.751 194.235 246.484 194.413 247.112 194.769C247.741 195.125 248.243 195.618 248.599 196.257C248.955 196.896 249.144 197.629 249.144 198.467V205.266H247.018V198.834C247.018 197.985 246.777 197.315 246.296 196.822C245.814 196.33 245.155 196.089 244.327 196.089C243.762 196.089 243.249 196.215 242.799 196.445C242.348 196.686 241.972 197.032 241.678 197.482V205.256H239.542V205.266Z" fill="#029CBE"/>
<path d="M254.986 205.466C254.211 205.466 253.52 205.33 252.924 205.047C252.327 204.764 251.866 204.387 251.521 203.895C251.175 203.402 251.008 202.826 251.008 202.177C251.008 201.16 251.395 200.354 252.18 199.767C252.955 199.18 254.023 198.887 255.384 198.887C256.442 198.887 257.426 199.097 258.337 199.505V198.363C258.337 197.588 258.117 197.001 257.667 196.624C257.216 196.247 256.567 196.048 255.698 196.048C255.206 196.048 254.683 196.121 254.149 196.268C253.615 196.415 253.007 196.645 252.348 196.959L251.562 195.367C252.379 194.99 253.143 194.707 253.855 194.529C254.567 194.351 255.279 194.267 256.002 194.267C257.405 194.267 258.494 194.602 259.258 195.262C260.022 195.922 260.41 196.876 260.41 198.112V205.288H258.326V204.356C257.845 204.743 257.332 205.026 256.777 205.204C256.222 205.393 255.625 205.477 254.976 205.477L254.986 205.466ZM253.06 202.135C253.06 202.658 253.28 203.088 253.73 203.413C254.18 203.737 254.756 203.905 255.478 203.905C256.044 203.905 256.567 203.821 257.038 203.654C257.51 203.486 257.949 203.224 258.347 202.868V201.045C257.939 200.804 257.51 200.626 257.059 200.521C256.609 200.417 256.117 200.364 255.562 200.364C254.787 200.364 254.17 200.521 253.73 200.846C253.29 201.16 253.06 201.6 253.06 202.156V202.135Z" fill="#029CBE"/>
<path d="M262.033 194.738L263.352 189.793H265.603L263.655 194.738H262.033ZM265.404 194.738L266.723 189.793H268.974L267.016 194.738H265.404Z" fill="#029CBE"/>
<path d="M87.243 235.837C86.1436 235.837 85.1176 235.637 84.1752 235.25C83.2329 234.862 82.4058 234.317 81.6938 233.616C80.9818 232.914 80.4269 232.097 80.0395 231.175C79.6521 230.253 79.4532 229.247 79.4532 228.168C79.4532 227.089 79.6521 226.094 80.0395 225.161C80.4269 224.239 80.9818 223.422 81.6938 222.72C82.4058 222.019 83.2434 221.474 84.1857 221.086C85.1385 220.699 86.1541 220.5 87.243 220.5C88.0178 220.5 88.7821 220.604 89.5255 220.803C90.2689 221.013 90.9599 221.306 91.5881 221.683C92.2164 222.06 92.7608 222.521 93.232 223.066L91.7452 224.596C91.1903 223.925 90.5202 223.422 89.7245 223.077C88.9287 222.731 88.1016 222.553 87.243 222.553C86.4473 222.553 85.7144 222.699 85.0443 222.982C84.3742 223.265 83.7878 223.663 83.2957 224.156C82.8036 224.659 82.4163 225.245 82.144 225.926C81.8718 226.607 81.7252 227.351 81.7252 228.158C81.7252 228.964 81.8613 229.687 82.144 230.368C82.4163 231.049 82.8141 231.646 83.3167 232.149C83.8297 232.662 84.4161 233.05 85.0966 233.343C85.7772 233.626 86.5101 233.773 87.3058 233.773C88.1644 233.773 88.9811 233.595 89.7559 233.249C90.5307 232.903 91.1798 232.411 91.7243 231.772L93.1901 233.259C92.698 233.783 92.1326 234.244 91.5044 234.632C90.8762 235.019 90.1956 235.323 89.4627 235.522C88.7298 235.732 87.9969 235.826 87.243 235.826V235.837Z" fill="#029CBE"/>
<path d="M99.933 235.815C98.8859 235.815 97.9331 235.564 97.0746 235.072C96.216 234.579 95.5459 233.909 95.0434 233.05C94.5513 232.201 94.3 231.248 94.3 230.2C94.3 229.152 94.5513 228.199 95.0434 227.351C95.5355 226.502 96.216 225.821 97.0746 225.318C97.9331 224.815 98.8859 224.564 99.933 224.564C100.98 224.564 101.954 224.815 102.802 225.318C103.65 225.821 104.32 226.492 104.823 227.351C105.315 228.199 105.566 229.152 105.566 230.2C105.566 231.248 105.315 232.201 104.823 233.05C104.33 233.898 103.65 234.569 102.802 235.072C101.954 235.564 101.001 235.815 99.933 235.815ZM99.933 233.951C100.593 233.951 101.2 233.783 101.734 233.448C102.268 233.112 102.697 232.662 103.011 232.096C103.325 231.531 103.482 230.892 103.482 230.19C103.482 229.488 103.325 228.87 103.001 228.314C102.687 227.759 102.257 227.309 101.723 226.963C101.189 226.617 100.593 226.45 99.933 226.45C99.2733 226.45 98.6661 226.617 98.1425 226.963C97.619 227.309 97.1898 227.749 96.8652 228.314C96.5511 228.87 96.3836 229.498 96.3836 230.19C96.3836 230.881 96.5406 231.531 96.8547 232.096C97.1688 232.662 97.5876 233.112 98.1321 233.448C98.6661 233.783 99.2733 233.951 99.933 233.951Z" fill="#029CBE"/>
<path d="M107.576 235.605V224.794H109.702V225.831C110.508 224.993 111.523 224.574 112.738 224.574C113.471 224.574 114.131 224.741 114.706 225.066C115.282 225.391 115.732 225.831 116.078 226.386C116.528 225.789 117.062 225.338 117.669 225.035C118.277 224.731 118.968 224.574 119.732 224.574C120.538 224.574 121.24 224.752 121.847 225.108C122.444 225.464 122.925 225.957 123.271 226.596C123.617 227.235 123.795 227.968 123.795 228.806V235.605H121.669V229.173C121.669 228.324 121.449 227.654 120.999 227.161C120.549 226.669 119.952 226.428 119.188 226.428C118.664 226.428 118.193 226.554 117.764 226.784C117.334 227.025 116.968 227.392 116.664 227.884C116.696 228.031 116.717 228.177 116.727 228.335C116.738 228.492 116.748 228.649 116.748 228.806V235.605H114.644V229.173C114.644 228.324 114.424 227.654 113.973 227.161C113.523 226.669 112.926 226.428 112.162 226.428C111.649 226.428 111.188 226.533 110.78 226.753C110.372 226.973 110.016 227.298 109.723 227.738V235.595H107.576V235.605Z" fill="#029CBE"/>
<path d="M126.203 235.605V224.794H128.328V225.831C129.134 224.993 130.15 224.574 131.365 224.574C132.097 224.574 132.757 224.741 133.333 225.066C133.909 225.391 134.359 225.831 134.705 226.386C135.155 225.789 135.689 225.338 136.296 225.035C136.903 224.731 137.594 224.574 138.359 224.574C139.165 224.574 139.866 224.752 140.474 225.108C141.07 225.464 141.552 225.957 141.898 226.596C142.243 227.235 142.421 227.968 142.421 228.806V235.605H140.296V229.173C140.296 228.324 140.076 227.654 139.626 227.161C139.175 226.669 138.578 226.428 137.814 226.428C137.291 226.428 136.819 226.554 136.39 226.784C135.961 227.025 135.594 227.392 135.291 227.884C135.322 228.031 135.343 228.177 135.354 228.335C135.364 228.492 135.375 228.649 135.375 228.806V235.605H133.27V229.173C133.27 228.324 133.05 227.654 132.6 227.161C132.15 226.669 131.553 226.428 130.789 226.428C130.276 226.428 129.815 226.533 129.407 226.753C128.998 226.973 128.642 227.298 128.349 227.738V235.595H126.203V235.605Z" fill="#029CBE"/>
<path d="M148.913 235.815C148.075 235.815 147.342 235.637 146.703 235.281C146.065 234.925 145.573 234.432 145.217 233.783C144.861 233.133 144.683 232.4 144.683 231.562V224.784H146.787V231.195C146.787 232.044 147.028 232.714 147.52 233.217C148.012 233.709 148.661 233.961 149.488 233.961C150.064 233.961 150.588 233.835 151.038 233.594C151.488 233.343 151.855 232.997 152.137 232.546V224.794H154.263V235.605H152.137V234.505C151.3 235.385 150.232 235.825 148.913 235.825V235.815Z" fill="#029CBE"/>
<path d="M156.765 235.605V224.794H158.891V225.894C159.728 225.014 160.807 224.574 162.136 224.574C162.974 224.574 163.707 224.752 164.335 225.108C164.963 225.464 165.466 225.957 165.822 226.596C166.178 227.235 166.366 227.968 166.366 228.806V235.605H164.241V229.173C164.241 228.324 164 227.654 163.529 227.161C163.058 226.669 162.398 226.428 161.54 226.428C160.974 226.428 160.461 226.554 160.011 226.784C159.561 227.025 159.184 227.371 158.891 227.821V235.595H156.765V235.605Z" fill="#029CBE"/>
<path d="M169.863 223.055C169.507 223.055 169.204 222.93 168.953 222.657C168.701 222.395 168.565 222.092 168.565 221.735C168.565 221.379 168.691 221.054 168.953 220.813C169.214 220.572 169.507 220.447 169.863 220.447C170.219 220.447 170.544 220.572 170.795 220.813C171.047 221.054 171.172 221.369 171.172 221.735C171.172 222.102 171.047 222.395 170.795 222.657C170.544 222.919 170.23 223.055 169.863 223.055ZM168.806 235.606V224.794H170.931V235.606H168.806Z" fill="#029CBE"/>
<path d="M178.051 235.794C177.004 235.794 176.208 235.553 175.653 235.061C175.098 234.568 174.826 233.856 174.826 232.924V226.575H172.533V224.794H174.826V222.028L176.931 221.515V224.784H180.114V226.565H176.931V232.421C176.931 232.976 177.056 233.364 177.297 233.594C177.548 233.825 177.946 233.94 178.522 233.94C178.815 233.94 179.088 233.919 179.318 233.877C179.548 233.835 179.8 233.772 180.072 233.688V235.469C179.789 235.564 179.465 235.647 179.088 235.689C178.711 235.742 178.365 235.763 178.062 235.763V235.794H178.051Z" fill="#029CBE"/>
<path d="M182.616 240.173C182.386 240.173 182.176 240.173 181.978 240.142C181.779 240.121 181.622 240.089 181.485 240.047V238.183C181.737 238.235 182.051 238.267 182.417 238.267C183.412 238.267 184.124 237.732 184.564 236.674L185.035 235.637L180.7 224.805H183.056L186.197 233.039L189.673 224.805H191.966L186.741 236.947C186.406 237.711 186.04 238.329 185.663 238.801C185.286 239.272 184.846 239.618 184.344 239.838C183.852 240.058 183.265 240.163 182.606 240.163L182.616 240.173Z" fill="#029CBE"/>
<path d="M205.075 235.837C203.996 235.837 202.991 235.637 202.059 235.25C201.127 234.862 200.3 234.317 199.588 233.616C198.876 232.914 198.321 232.097 197.934 231.175C197.547 230.253 197.348 229.247 197.348 228.168C197.348 227.089 197.547 226.094 197.934 225.161C198.321 224.239 198.876 223.422 199.588 222.72C200.3 222.019 201.127 221.474 202.059 221.086C202.991 220.699 203.996 220.5 205.075 220.5C206.153 220.5 207.158 220.699 208.101 221.086C209.043 221.474 209.87 222.019 210.572 222.72C211.273 223.422 211.828 224.239 212.226 225.161C212.624 226.094 212.823 227.089 212.823 228.168C212.823 229.247 212.624 230.242 212.226 231.175C211.828 232.107 211.273 232.914 210.572 233.616C209.86 234.317 209.043 234.862 208.101 235.25C207.158 235.637 206.153 235.837 205.075 235.837ZM205.096 233.773C205.86 233.773 206.572 233.637 207.232 233.343C207.891 233.06 208.467 232.662 208.959 232.17C209.451 231.667 209.839 231.07 210.132 230.389C210.415 229.698 210.561 228.964 210.561 228.168C210.561 227.372 210.415 226.618 210.132 225.937C209.849 225.256 209.462 224.669 208.959 224.166C208.467 223.663 207.891 223.276 207.232 222.993C206.572 222.71 205.86 222.563 205.096 222.563C204.331 222.563 203.598 222.71 202.928 222.993C202.258 223.276 201.682 223.674 201.19 224.166C200.698 224.669 200.311 225.256 200.039 225.937C199.766 226.618 199.62 227.351 199.62 228.147C199.62 228.943 199.756 229.698 200.039 230.389C200.311 231.08 200.698 231.667 201.19 232.17C201.682 232.673 202.269 233.06 202.928 233.343C203.588 233.626 204.31 233.773 205.096 233.773Z" fill="#029CBE"/>
<path d="M214.917 239.943V224.805H217.021V225.842C217.922 225.035 219.031 224.626 220.33 224.626C221.345 224.626 222.267 224.878 223.094 225.37C223.921 225.863 224.581 226.533 225.062 227.371C225.544 228.209 225.785 229.152 225.785 230.2C225.785 231.247 225.544 232.19 225.052 233.039C224.56 233.877 223.911 234.547 223.083 235.05C222.256 235.543 221.324 235.794 220.288 235.794C219.691 235.794 219.115 235.7 218.571 235.511C218.016 235.323 217.513 235.05 217.042 234.694V239.963H214.917V239.943ZM220.058 233.929C220.749 233.929 221.366 233.772 221.911 233.437C222.455 233.102 222.895 232.672 223.22 232.106C223.544 231.551 223.712 230.912 223.712 230.21C223.712 229.508 223.544 228.869 223.22 228.304C222.895 227.738 222.455 227.287 221.911 226.963C221.366 226.638 220.749 226.47 220.058 226.47C219.45 226.47 218.885 226.586 218.361 226.806C217.838 227.036 217.398 227.35 217.042 227.759V232.641C217.398 233.039 217.838 233.353 218.372 233.573C218.906 233.803 219.461 233.908 220.058 233.908V233.929Z" fill="#029CBE"/>
<path d="M232.978 235.794C231.92 235.794 230.957 235.543 230.098 235.051C229.24 234.558 228.559 233.877 228.057 233.029C227.554 232.18 227.303 231.227 227.303 230.179C227.303 229.132 227.544 228.21 228.025 227.361C228.507 226.523 229.156 225.842 229.983 225.339C230.8 224.836 231.721 224.585 232.716 224.585C233.711 224.585 234.611 224.836 235.386 225.339C236.161 225.842 236.778 226.523 237.239 227.382C237.7 228.241 237.93 229.205 237.93 230.284V230.881H229.418C229.533 231.478 229.753 232.002 230.088 232.473C230.423 232.945 230.842 233.312 231.365 233.573C231.878 233.846 232.444 233.982 233.051 233.982C233.575 233.982 234.077 233.898 234.569 233.741C235.061 233.573 235.459 233.343 235.794 233.029L237.155 234.37C236.517 234.851 235.868 235.208 235.187 235.438C234.517 235.669 233.774 235.784 232.967 235.784H232.978V235.794ZM229.46 229.299H235.847C235.763 228.733 235.564 228.231 235.26 227.801C234.957 227.372 234.58 227.026 234.14 226.785C233.69 226.533 233.208 226.418 232.685 226.418C232.161 226.418 231.648 226.533 231.198 226.774C230.748 227.015 230.371 227.351 230.067 227.78C229.763 228.21 229.564 228.723 229.46 229.299Z" fill="#029CBE"/>
<path d="M239.961 235.605V224.794H242.087V225.894C242.924 225.014 244.003 224.574 245.333 224.574C246.17 224.574 246.903 224.752 247.531 225.108C248.16 225.464 248.662 225.957 249.018 226.596C249.374 227.235 249.563 227.968 249.563 228.806V235.605H247.437V229.173C247.437 228.324 247.196 227.654 246.725 227.161C246.254 226.669 245.594 226.428 244.736 226.428C244.17 226.428 243.657 226.554 243.207 226.784C242.757 227.025 242.38 227.371 242.087 227.821V235.595H239.961V235.605Z" fill="#029CBE"/>
</svg>
