<svg width="531" height="463" viewBox="0 0 531 463" fill="none" xmlns="http://www.w3.org/2000/svg">
<path d="M35.0735 393.382H77.3103C96.2509 393.382 111.6 408.74 111.6 427.691C111.6 446.642 126.949 462 145.89 462H495.71C514.651 462 530 446.642 530 427.691V55.7057C530 36.7544 514.651 21.3965 495.71 21.3965H145.89C126.949 21.3965 111.6 36.7544 111.6 55.7057V231.589C111.6 250.54 96.2509 265.898 77.3103 265.898H35.0735C16.1329 265.898 0.783569 281.256 0.783569 300.207V359.062C0.783569 378.013 16.1329 393.371 35.0735 393.371V393.382Z" fill="#32ACC7" stroke="#029CBE" stroke-width="0.75" stroke-miterlimit="10"/>
<path d="M35.0735 372.382H77.3103C96.2509 372.382 111.6 387.74 111.6 406.691C111.6 425.642 126.949 441 145.89 441H495.71C514.651 441 530 425.642 530 406.691V34.7057C530 15.7544 514.651 0.396484 495.71 0.396484H145.89C126.949 0.396484 111.6 15.7544 111.6 34.7057V210.589C111.6 229.54 96.2509 244.898 77.3103 244.898H35.0735C16.1329 244.898 0.783569 260.256 0.783569 279.207V338.062C0.783569 357.013 16.1329 372.371 35.0735 372.371V372.382Z" fill="#EBF7FA" stroke="#029CBE" stroke-width="0.75" stroke-miterlimit="10"/>
<path d="M188.001 31.6782H456.007C475.827 31.6782 491.93 47.78 491.93 67.6217V366.515C491.93 386.346 475.837 402.459 456.007 402.459H188.001C168.181 402.459 152.078 386.357 152.078 366.515V67.6217C152.078 47.7905 168.171 31.6782 188.001 31.6782Z" fill="#102870"/>
<path d="M456.007 32.0757C475.628 32.0757 491.532 47.9889 491.532 67.6211V366.515C491.532 386.147 475.628 402.06 456.007 402.06H188.001C168.38 402.06 152.476 386.147 152.476 366.515V67.6211C152.476 47.9889 168.38 32.0757 188.001 32.0757H456.007ZM456.007 31.29H188.001C167.982 31.29 151.691 47.5908 151.691 67.6211V366.515C151.691 386.545 167.982 402.846 188.001 402.846H456.007C476.026 402.846 492.318 386.545 492.318 366.515V67.6211C492.318 47.5908 476.026 31.29 456.007 31.29Z" fill="#029CBE"/>
<path d="M455.881 30.3159H187.876C168.255 30.3159 152.35 46.2301 152.35 65.8613V348.024C152.35 367.656 168.255 383.57 187.876 383.57H455.881C475.501 383.57 491.407 367.656 491.407 348.024V65.8613C491.407 46.2301 475.501 30.3159 455.881 30.3159Z" fill="white" stroke="#029CBE" stroke-width="0.75" stroke-miterlimit="10"/>
<path d="M111.632 335.191C110.92 335.191 110.27 334.877 109.831 334.322L108.459 332.593C108.166 332.226 107.726 332.017 107.276 332.017C107.119 332.017 106.972 332.038 106.826 332.09C105.684 332.467 104.491 332.792 103.287 333.044C101.643 333.379 99.8945 333.557 98.0936 333.557C94.5338 333.557 91.1728 332.928 88.105 331.682C85.0372 330.446 82.315 328.686 80.0116 326.444C77.7081 324.202 75.8863 321.572 74.5985 318.618C73.3107 315.653 72.6615 312.416 72.6615 308.98C72.6615 305.544 73.3107 302.307 74.5985 299.352C75.8863 296.398 77.7081 293.758 80.0116 291.527C82.315 289.295 85.0372 287.535 88.105 286.289C91.1728 285.053 94.5338 284.414 98.0936 284.414C101.653 284.414 105.014 285.042 108.082 286.289C111.15 287.535 113.872 289.295 116.176 291.527C118.479 293.758 120.301 296.398 121.589 299.352C122.877 302.317 123.526 305.554 123.526 308.98C123.526 312.406 122.898 315.423 121.652 318.346C120.615 320.766 119.243 322.976 117.579 324.914C117.118 325.448 117.107 326.255 117.558 326.821L119.463 329.241C119.924 329.827 120.081 330.571 119.872 331.294C119.673 332.017 119.149 332.572 118.448 332.834L112.448 335.055C112.186 335.149 111.925 335.202 111.653 335.202H111.632V335.191ZM98.0727 295.77C96.2613 295.77 94.5547 296.105 93.0051 296.775C91.445 297.446 90.0839 298.378 88.9427 299.531C87.8014 300.693 86.901 302.087 86.2518 303.69C85.6027 305.282 85.2781 307.063 85.2781 308.97C85.2781 310.876 85.6027 312.594 86.2518 314.218C86.901 315.831 87.8014 317.246 88.9427 318.409C90.0839 319.571 91.445 320.504 93.0051 321.164C94.5547 321.834 96.2613 322.169 98.0727 322.169C98.5543 322.169 99.015 322.148 99.4757 322.107C99.706 322.086 99.9468 322.054 100.167 322.023L97.7795 318.974C97.3188 318.388 97.1722 317.644 97.3712 316.921C97.5701 316.198 98.0936 315.643 98.7951 315.381L104.795 313.16C105.056 313.066 105.318 313.013 105.59 313.013C106.302 313.013 106.972 313.338 107.412 313.904L107.485 313.998C107.779 314.375 108.197 314.585 108.669 314.585C109.339 314.585 109.914 314.166 110.134 313.527C110.197 313.338 110.25 313.15 110.312 312.961C110.679 311.683 110.867 310.331 110.867 308.949C110.867 307.042 110.543 305.271 109.894 303.669C109.244 302.076 108.344 300.672 107.203 299.51C106.061 298.347 104.7 297.414 103.14 296.744C101.591 296.073 99.884 295.738 98.0727 295.738V295.77Z" fill="#7ECDDE"/>
<path d="M98.0832 284.801C101.612 284.801 104.889 285.419 107.925 286.645C110.962 287.87 113.611 289.588 115.893 291.799C118.165 294.009 119.945 296.576 121.212 299.499C122.479 302.422 123.117 305.585 123.117 308.98C123.117 312.374 122.5 315.307 121.275 318.188C120.249 320.587 118.919 322.735 117.265 324.652C116.678 325.333 116.668 326.349 117.233 327.061L119.139 329.481C119.945 330.498 119.526 332.017 118.301 332.467L112.302 334.688C112.082 334.772 111.862 334.803 111.642 334.803C111.066 334.803 110.511 334.541 110.145 334.08L108.773 332.352C108.407 331.891 107.852 331.619 107.276 331.619C107.088 331.619 106.889 331.65 106.7 331.713C105.559 332.09 104.397 332.404 103.203 332.645C101.57 332.98 99.8632 333.148 98.0832 333.148C94.5548 333.148 91.2776 332.53 88.2412 331.304C85.2049 330.079 82.5559 328.36 80.2734 326.15C78.0014 323.94 76.2215 321.373 74.9546 318.45C73.6877 315.527 73.049 312.363 73.049 308.969C73.049 305.575 73.6877 302.422 74.9546 299.488C76.2215 296.566 78.0014 293.999 80.2734 291.788C82.5455 289.578 85.2049 287.86 88.2412 286.634C91.2776 285.408 94.5548 284.79 98.0832 284.79M98.0832 322.557C98.5753 322.557 99.057 322.536 99.5177 322.494C99.9888 322.452 100.439 322.379 100.889 322.295L98.0937 318.733C97.2875 317.717 97.7168 316.208 98.9313 315.758L104.931 313.537C105.151 313.453 105.37 313.422 105.59 313.422C106.166 313.422 106.732 313.683 107.098 314.165L107.171 314.26C107.559 314.762 108.114 314.993 108.669 314.993C109.443 314.993 110.218 314.522 110.511 313.662C110.574 313.474 110.637 313.275 110.689 313.086C111.066 311.766 111.255 310.394 111.255 308.969C111.255 307.01 110.92 305.198 110.25 303.543C109.58 301.887 108.658 300.463 107.475 299.258C106.292 298.053 104.899 297.1 103.287 296.408C101.685 295.717 99.9365 295.371 98.0623 295.371C96.1881 295.371 94.4501 295.717 92.8377 296.408C91.2357 297.1 89.8327 298.053 88.6496 299.258C87.4665 300.463 86.5451 301.898 85.875 303.543C85.2049 305.198 84.8699 307 84.8699 308.969C84.8699 310.939 85.2049 312.688 85.875 314.364C86.5451 316.041 87.4665 317.476 88.6496 318.681C89.8327 319.885 91.2253 320.839 92.8377 321.53C94.4396 322.221 96.1881 322.567 98.0623 322.567M98.0623 284.015C94.4501 284.015 91.0368 284.654 87.9271 285.911C84.807 287.168 82.0429 288.96 79.7081 291.233C77.3732 293.506 75.5199 296.178 74.2112 299.185C72.9024 302.191 72.2428 305.491 72.2428 308.969C72.2428 312.447 72.9024 315.747 74.2112 318.754C75.5199 321.76 77.3627 324.432 79.7081 326.705C82.0534 328.979 84.8175 330.77 87.9271 332.027C91.0368 333.284 94.4501 333.923 98.0623 333.923C99.8946 333.923 101.664 333.745 103.339 333.41C104.564 333.159 105.768 332.834 106.931 332.446C107.035 332.415 107.15 332.394 107.255 332.394C107.59 332.394 107.915 332.551 108.135 332.823L109.506 334.552C110.019 335.201 110.794 335.578 111.621 335.578C111.946 335.578 112.26 335.526 112.553 335.411L118.552 333.19C119.369 332.886 119.976 332.226 120.217 331.388C120.458 330.55 120.28 329.67 119.736 328.989L117.83 326.569C117.495 326.15 117.505 325.553 117.841 325.165C119.537 323.196 120.929 320.954 121.976 318.492C123.243 315.527 123.882 312.322 123.882 308.98C123.882 305.638 123.222 302.202 121.913 299.195C120.605 296.188 118.762 293.517 116.417 291.244C114.082 288.97 111.318 287.189 108.197 285.922C105.088 284.665 101.675 284.026 98.0623 284.026V284.015ZM98.0623 321.781C96.3033 321.781 94.649 321.457 93.1518 320.807C91.6441 320.158 90.3248 319.257 89.215 318.136C88.1156 317.015 87.2361 315.642 86.6079 314.071C85.9797 312.5 85.6551 310.782 85.6551 308.969C85.6551 307.157 85.9692 305.386 86.5974 303.836C87.2256 302.285 88.1052 300.934 89.2045 299.803C90.3039 298.682 91.6336 297.781 93.1413 297.131C94.6385 296.482 96.2928 296.157 98.0518 296.157C99.8108 296.157 101.465 296.482 102.962 297.131C104.47 297.781 105.789 298.682 106.899 299.803C108.009 300.934 108.878 302.285 109.506 303.836C110.134 305.386 110.449 307.115 110.449 308.969C110.449 310.31 110.271 311.63 109.915 312.866C109.862 313.055 109.799 313.233 109.747 313.411C109.548 313.998 109.035 314.207 108.658 314.207C108.459 314.207 108.072 314.155 107.779 313.767L107.705 313.673C107.192 313.013 106.417 312.636 105.58 312.636C105.255 312.636 104.941 312.688 104.648 312.803L98.6486 315.024C97.8319 315.328 97.2247 315.978 96.9839 316.826C96.7431 317.664 96.921 318.544 97.455 319.225L99.413 321.719C98.9837 321.76 98.523 321.781 98.0518 321.781H98.0623Z" fill="#029CBE"/>
<path d="M110.124 325.312L108.752 323.584C108.26 322.966 107.433 322.693 106.679 322.945C105.538 323.322 104.376 323.636 103.182 323.877C101.549 324.212 99.8421 324.38 98.0622 324.38C94.5337 324.38 91.2566 323.762 88.2202 322.536C85.1839 321.311 82.5349 319.593 80.2524 317.382C77.9803 315.172 76.2004 312.605 74.9335 309.682C73.6666 306.759 73.028 303.596 73.028 300.201C73.028 296.807 73.6666 293.654 74.9335 290.72C76.2004 287.798 77.9803 285.231 80.2524 283.02C82.5244 280.81 85.1839 279.092 88.2202 277.866C91.2566 276.641 94.5337 276.022 98.0622 276.022C101.591 276.022 104.868 276.641 107.904 277.866C110.941 279.092 113.59 280.81 115.872 283.02C118.144 285.231 119.924 287.798 121.191 290.72C122.458 293.643 123.096 296.807 123.096 300.201C123.096 303.596 122.479 306.529 121.254 309.41C120.228 311.809 118.898 313.956 117.244 315.873C116.657 316.554 116.647 317.571 117.212 318.283L119.118 320.703C119.924 321.719 119.505 323.238 118.28 323.689L112.281 325.91C111.506 326.192 110.637 325.951 110.124 325.302V325.312ZM98.0727 313.81C98.5648 313.81 99.0464 313.789 99.5071 313.747C99.9782 313.705 100.428 313.632 100.879 313.548L98.0831 309.986C97.2769 308.97 97.7062 307.461 98.9207 307.011L104.92 304.79C105.705 304.497 106.585 304.748 107.098 305.408L107.171 305.502C108.114 306.717 110.019 306.372 110.511 304.916C110.574 304.727 110.637 304.528 110.689 304.339C111.066 303.019 111.255 301.647 111.255 300.222C111.255 298.263 110.92 296.451 110.25 294.796C109.579 293.14 108.658 291.716 107.475 290.511C106.292 289.306 104.899 288.353 103.287 287.661C101.685 286.97 99.9363 286.624 98.0622 286.624C96.188 286.624 94.45 286.97 92.8376 287.661C91.2356 288.353 89.8326 289.306 88.6495 290.511C87.4663 291.716 86.5449 293.151 85.8748 294.796C85.2048 296.451 84.8698 298.253 84.8698 300.222C84.8698 302.192 85.2048 303.941 85.8748 305.617C86.5449 307.294 87.4663 308.729 88.6495 309.934C89.8326 311.138 91.2251 312.092 92.8376 312.783C94.4395 313.475 96.188 313.82 98.0622 313.82H98.0727V313.81Z" fill="white" stroke="#029CBE" stroke-width="0.75" stroke-miterlimit="10"/>
<path d="M52.433 335.191C51.1033 335.191 50.0144 334.101 50.0144 332.771V325.836C50.0144 324.935 49.2815 324.201 48.3811 324.201H24.5299C23.2002 324.201 22.1113 323.112 22.1113 321.781V315.297C22.1113 314.71 22.3312 314.134 22.7186 313.694L47.5958 285.618C48.0565 285.105 48.7161 284.801 49.4071 284.801H59.8564C61.1861 284.801 62.275 285.89 62.275 287.221V312.217C62.275 313.118 63.0079 313.851 63.9084 313.851H66.0234C67.3531 313.851 68.442 314.94 68.442 316.271V321.792C68.442 323.122 67.3531 324.212 66.0234 324.212H63.9084C63.0079 324.212 62.275 324.945 62.275 325.846V332.781C62.275 334.112 61.1861 335.201 59.8564 335.201H52.433V335.191ZM48.3706 301.489C47.9099 301.489 47.4911 301.688 47.1665 302.034L39.0521 311.138C38.6124 311.62 38.5181 312.301 38.7799 312.887C39.0416 313.484 39.6175 313.851 40.2667 313.851H48.3811C49.2815 313.851 50.0144 313.118 50.0144 312.217V303.113C50.0144 302.086 49.1768 301.479 48.3706 301.479V301.489Z" fill="#7ECDDE"/>
<path d="M59.8669 285.199C60.9872 285.199 61.8876 286.1 61.8876 287.221V312.217C61.8876 313.338 62.7985 314.239 63.9083 314.239H66.0233C67.1437 314.239 68.0441 315.15 68.0441 316.261V321.782C68.0441 322.903 67.1437 323.804 66.0233 323.804H63.9083C62.788 323.804 61.8876 324.715 61.8876 325.826V332.761C61.8876 333.882 60.9767 334.783 59.8669 334.783H52.4435C51.3232 334.783 50.4227 333.871 50.4227 332.761V325.826C50.4227 324.705 49.5223 323.804 48.402 323.804H24.5509C23.4306 323.804 22.5301 322.903 22.5301 321.782V315.297C22.5301 314.805 22.7081 314.323 23.0432 313.956L47.9204 285.88C48.3078 285.451 48.8522 285.199 49.4385 285.199H59.8878M40.2981 314.249H48.4125C49.5328 314.249 50.4332 313.349 50.4332 312.228V303.124C50.4332 301.898 49.4281 301.091 48.3915 301.091C47.8575 301.091 47.3235 301.301 46.8943 301.772L38.7799 310.876C37.6177 312.186 38.5391 314.249 40.2876 314.249M59.8773 284.414H49.4281C48.6219 284.414 47.8575 284.759 47.3236 285.356L22.4463 313.432C21.9857 313.946 21.7344 314.606 21.7344 315.297V321.782C21.7344 323.332 22.9908 324.589 24.5404 324.589H48.3915C49.0721 324.589 49.627 325.145 49.627 325.826V332.761C49.627 334.311 50.8834 335.568 52.433 335.568H59.8564C61.406 335.568 62.6624 334.311 62.6624 332.761V325.826C62.6624 325.145 63.2173 324.589 63.8979 324.589H66.0129C67.5625 324.589 68.8189 323.332 68.8189 321.782V316.261C68.8189 314.71 67.5625 313.453 66.0129 313.453H63.8979C63.2173 313.453 62.6624 312.898 62.6624 312.217V287.221C62.6624 285.671 61.406 284.414 59.8564 284.414H59.8773ZM40.2876 313.464C39.785 313.464 39.3662 313.191 39.1568 312.73C38.9474 312.269 39.0311 311.777 39.3662 311.4L47.4806 302.296C47.7842 301.951 48.1402 301.877 48.3915 301.877C49.0092 301.877 49.6479 302.338 49.6479 303.124V312.228C49.6479 312.909 49.093 313.464 48.4125 313.464H40.2876Z" fill="#029CBE"/>
<path d="M50.4124 323.615V316.679C50.4124 315.559 49.5015 314.658 48.3916 314.658H24.5405C23.4202 314.658 22.5198 313.746 22.5198 312.636V306.151C22.5198 305.659 22.6978 305.177 23.0328 304.81L47.91 276.734C48.2974 276.305 48.8419 276.053 49.4282 276.053H59.8774C60.9978 276.053 61.8982 276.965 61.8982 278.075V303.071C61.8982 304.192 62.8091 305.093 63.919 305.093H66.0339C67.1542 305.093 68.0547 306.004 68.0547 307.115V312.636C68.0547 313.757 67.1438 314.658 66.0339 314.658H63.919C62.7986 314.658 61.8982 315.569 61.8982 316.679V323.615C61.8982 324.736 60.9873 325.637 59.8774 325.637H52.4541C51.3338 325.637 50.4333 324.725 50.4333 323.615H50.4124ZM40.2668 305.093H48.3812C49.5015 305.093 50.4019 304.182 50.4019 303.071V293.967C50.4019 292.113 48.109 291.233 46.8735 292.616L38.7591 301.72C37.5969 303.029 38.5183 305.093 40.2668 305.093Z" fill="white" stroke="#029CBE" stroke-width="0.75" stroke-miterlimit="10"/>
<path d="M191.205 83.9227V69.0571H193.373L201.675 80.0989V69.0571H203.78V83.9227H201.822L193.331 72.5457V83.9227H191.205Z" fill="#029CBE"/>
<path d="M211.716 84.1215C210.659 84.1215 209.695 83.8701 208.837 83.3777C207.978 82.8853 207.298 82.2044 206.795 81.3558C206.293 80.5073 206.041 79.554 206.041 78.5064C206.041 77.4588 206.282 76.5369 206.764 75.6883C207.245 74.8502 207.895 74.1693 208.722 73.6664C209.538 73.1636 210.46 72.9121 211.454 72.9121C212.449 72.9121 213.35 73.1636 214.124 73.6664C214.899 74.1693 215.517 74.8502 215.978 75.7092C216.438 76.5682 216.669 77.5321 216.669 78.6111V79.2083H208.156C208.272 79.8054 208.491 80.3292 208.826 80.8006C209.162 81.2721 209.58 81.6387 210.104 81.9006C210.617 82.173 211.182 82.3092 211.79 82.3092C212.313 82.3092 212.816 82.2253 213.308 82.0682C213.8 81.9006 214.198 81.6701 214.533 81.3558L215.894 82.6968C215.255 83.1787 214.606 83.5349 213.925 83.7653C213.255 83.9958 212.512 84.1111 211.706 84.1111L211.716 84.1215ZM208.198 77.6264H214.585C214.501 77.0606 214.302 76.5578 213.999 76.1283C213.695 75.6988 213.318 75.3531 212.878 75.1121C212.428 74.8607 211.947 74.7454 211.423 74.7454C210.9 74.7454 210.387 74.8607 209.936 75.1016C209.486 75.3426 209.109 75.6778 208.806 76.1073C208.502 76.5368 208.303 77.0502 208.198 77.6264Z" fill="#029CBE"/>
<path d="M220.522 83.9222L217.506 73.1108H219.569L221.673 81.0517L224.134 73.1108H225.956L228.416 81.0517L230.521 73.1108H232.52L229.484 83.9222H227.442L225.024 76.0023L222.584 83.9222H220.522Z" fill="#029CBE"/>
<path d="M238.708 83.9227V69.0571H240.939V83.9227H238.708Z" fill="#029CBE"/>
<path d="M243.975 83.9227V69.0571H250.854C251.828 69.0571 252.676 69.2457 253.398 69.6228C254.121 70 254.686 70.5133 255.094 71.1838C255.503 71.8543 255.712 72.619 255.712 73.499C255.712 74.379 255.503 75.1438 255.094 75.8142C254.686 76.4847 254.11 76.998 253.388 77.3752C252.655 77.7523 251.817 77.9408 250.854 77.9408H246.205V83.9332H243.975V83.9227ZM246.205 76.0447H250.624C251.503 76.0447 252.194 75.8142 252.718 75.3533C253.231 74.8923 253.492 74.2847 253.492 73.52C253.492 72.7552 253.231 72.1476 252.718 71.6971C252.205 71.2467 251.503 71.0162 250.624 71.0162H246.205V76.0447Z" fill="#029CBE"/>
<path d="M262.434 83.9227V69.0571H269.313C270.286 69.0571 271.135 69.2457 271.857 69.6228C272.579 70 273.145 70.5133 273.553 71.1838C273.962 71.8543 274.171 72.619 274.171 73.499C274.171 74.379 273.962 75.1438 273.553 75.8142C273.145 76.4847 272.569 76.998 271.847 77.3752C271.114 77.7523 270.276 77.9408 269.313 77.9408H264.664V83.9332H262.434V83.9227ZM264.664 76.0447H269.082C269.962 76.0447 270.653 75.8142 271.176 75.3533C271.69 74.8923 271.951 74.2847 271.951 73.52C271.951 72.7552 271.69 72.1476 271.176 71.6971C270.663 71.2467 269.962 71.0162 269.082 71.0162H264.664V76.0447Z" fill="#029CBE"/>
<path d="M276.108 83.9219V73.1105H278.233V74.4934C278.568 73.9801 278.998 73.5819 279.5 73.2886C280.003 72.9953 280.568 72.8486 281.207 72.8486C281.647 72.8486 282.003 72.922 282.285 73.0372V74.9439C282.086 74.86 281.877 74.7972 281.668 74.7658C281.458 74.7343 281.238 74.7134 281.029 74.7134C280.411 74.7134 279.856 74.881 279.375 75.2162C278.893 75.5515 278.516 76.0334 278.233 76.6724V83.9114H276.108V83.9219Z" fill="#029CBE"/>
<path d="M288.505 84.1415C287.458 84.1415 286.505 83.8901 285.646 83.3977C284.788 82.9053 284.118 82.2349 283.615 81.3758C283.123 80.5272 282.872 79.5739 282.872 78.5263C282.872 77.4787 283.123 76.5254 283.615 75.6768C284.107 74.8283 284.788 74.1473 285.646 73.6444C286.505 73.1416 287.458 72.8901 288.505 72.8901C289.552 72.8901 290.525 73.1416 291.374 73.6444C292.222 74.1473 292.892 74.8178 293.394 75.6768C293.886 76.5254 294.138 77.4787 294.138 78.5263C294.138 79.5739 293.886 80.5272 293.394 81.3758C292.902 82.2244 292.222 82.8948 291.374 83.3977C290.525 83.8901 289.573 84.1415 288.505 84.1415ZM288.505 82.2767C289.164 82.2767 289.772 82.1091 290.306 81.7739C290.84 81.4387 291.269 80.9882 291.583 80.4225C291.897 79.8567 292.054 79.2178 292.054 78.5159C292.054 77.814 291.897 77.1958 291.572 76.6406C291.258 76.0854 290.829 75.6349 290.295 75.2892C289.761 74.9435 289.164 74.7759 288.505 74.7759C287.845 74.7759 287.238 74.9435 286.714 75.2892C286.191 75.6349 285.761 76.0749 285.437 76.6406C285.123 77.1958 284.955 77.8244 284.955 78.5159C284.955 79.2073 285.112 79.8567 285.426 80.4225C285.741 80.9882 286.159 81.4387 286.704 81.7739C287.238 82.1091 287.845 82.2767 288.505 82.2767Z" fill="#029CBE"/>
<path d="M295.195 88.4687C294.965 88.4687 294.745 88.4477 294.525 88.4163C294.305 88.3849 294.127 88.3535 293.981 88.322V86.6249C294.221 86.6773 294.504 86.7087 294.829 86.7087C295.3 86.7087 295.635 86.6039 295.834 86.4049C296.043 86.1954 296.137 85.8601 296.137 85.3992V73.1212H298.263V85.5458C298.263 86.4782 298.001 87.2011 297.467 87.7144C296.933 88.2277 296.179 88.4791 295.185 88.4791H295.195V88.4687ZM297.205 71.3717C296.849 71.3717 296.546 71.246 296.295 70.9736C296.043 70.7117 295.907 70.4079 295.907 70.0517C295.907 69.6955 296.033 69.3708 296.295 69.1298C296.556 68.8889 296.849 68.7632 297.205 68.7632C297.561 68.7632 297.886 68.8889 298.137 69.1298C298.389 69.3708 298.514 69.6851 298.514 70.0517C298.514 70.4184 298.389 70.7117 298.137 70.9736C297.886 71.2355 297.572 71.3717 297.205 71.3717Z" fill="#029CBE"/>
<path d="M305.948 84.1215C304.89 84.1215 303.927 83.8701 303.069 83.3777C302.21 82.8853 301.53 82.2044 301.027 81.3558C300.524 80.5073 300.273 79.554 300.273 78.5064C300.273 77.4588 300.514 76.5369 300.996 75.6883C301.477 74.8502 302.126 74.1693 302.953 73.6664C303.77 73.1636 304.691 72.9121 305.686 72.9121C306.681 72.9121 307.581 73.1636 308.356 73.6664C309.131 74.1693 309.749 74.8502 310.209 75.7092C310.67 76.5682 310.9 77.5321 310.9 78.6111V79.2083H302.388C302.503 79.8054 302.723 80.3292 303.058 80.8006C303.393 81.2721 303.812 81.6387 304.336 81.9006C304.849 82.173 305.414 82.3092 306.021 82.3092C306.545 82.3092 307.047 82.2253 307.539 82.0682C308.031 81.9006 308.429 81.6701 308.764 81.3558L310.126 82.6968C309.487 83.1787 308.838 83.5349 308.157 83.7653C307.487 83.9958 306.744 84.1111 305.937 84.1111L305.948 84.1215ZM302.43 77.6264H308.817C308.733 77.0606 308.534 76.5578 308.23 76.1283C307.927 75.6988 307.55 75.3531 307.11 75.1121C306.66 74.8607 306.178 74.7454 305.655 74.7454C305.131 74.7454 304.618 74.8607 304.168 75.1016C303.718 75.3426 303.341 75.6778 303.037 76.1073C302.734 76.5368 302.535 77.0502 302.43 77.6264Z" fill="#029CBE"/>
<path d="M318.041 84.1205C317.005 84.1205 316.062 83.8691 315.214 83.3767C314.366 82.8843 313.696 82.2034 313.204 81.3548C312.712 80.5063 312.471 79.553 312.471 78.5054C312.471 77.4578 312.722 76.5149 313.214 75.6663C313.706 74.8282 314.377 74.1473 315.225 73.6444C316.062 73.1416 317.005 72.8901 318.041 72.8901C318.858 72.8901 319.653 73.0473 320.407 73.3616C321.161 73.6759 321.821 74.1159 322.376 74.6816L321.057 76.1483C320.648 75.6978 320.187 75.352 319.674 75.132C319.161 74.9016 318.638 74.7968 318.083 74.7968C317.434 74.7968 316.837 74.9644 316.313 75.2892C315.78 75.614 315.361 76.0644 315.047 76.6301C314.732 77.1958 314.575 77.8244 314.575 78.5159C314.575 79.2073 314.732 79.8358 315.047 80.4015C315.361 80.9673 315.78 81.4177 316.324 81.7529C316.868 82.0882 317.465 82.2558 318.125 82.2558C318.68 82.2558 319.193 82.151 319.674 81.931C320.156 81.711 320.606 81.3863 321.036 80.9672L322.334 82.3291C321.768 82.9053 321.109 83.3558 320.365 83.6701C319.622 83.9844 318.847 84.1415 318.041 84.1415V84.1205Z" fill="#029CBE"/>
<path d="M328.857 84.1212C327.81 84.1212 327.014 83.8802 326.459 83.3879C325.904 82.8955 325.632 82.1831 325.632 81.2508V74.9023H323.339V73.1213H325.632V70.3556L327.736 69.8423V73.1108H330.919V74.8918H327.736V80.7479C327.736 81.3031 327.862 81.6908 328.103 81.9213C328.354 82.1517 328.752 82.2669 329.328 82.2669C329.621 82.2669 329.893 82.246 330.124 82.2041C330.354 82.1622 330.605 82.0993 330.877 82.0155V83.7965C330.595 83.8907 330.27 83.9746 329.893 84.0165C329.516 84.0689 329.171 84.0897 328.867 84.0897V84.1212H328.857Z" fill="#029CBE"/>
<path d="M198.293 114.491C197.215 114.491 196.21 114.292 195.278 113.905C194.346 113.517 193.519 112.972 192.807 112.27C192.095 111.568 191.54 110.751 191.153 109.829C190.765 108.908 190.566 107.902 190.566 106.823C190.566 105.744 190.765 104.749 191.153 103.816C191.54 102.894 192.095 102.077 192.807 101.375C193.519 100.673 194.346 100.129 195.278 99.741C196.21 99.3533 197.215 99.1543 198.293 99.1543C199.372 99.1543 200.377 99.3533 201.319 99.741C202.262 100.129 203.089 100.673 203.79 101.375C204.492 102.077 205.047 102.894 205.445 103.816C205.842 104.749 206.041 105.744 206.041 106.823C206.041 107.902 205.842 108.897 205.445 109.829C205.047 110.762 204.492 111.568 203.79 112.27C203.078 112.972 202.262 113.517 201.319 113.905C200.377 114.292 199.372 114.491 198.293 114.491ZM198.314 112.428C199.079 112.428 199.791 112.291 200.45 111.998C201.11 111.715 201.686 111.317 202.178 110.825C202.67 110.322 203.057 109.725 203.35 109.044C203.633 108.352 203.78 107.619 203.78 106.823C203.78 106.027 203.633 105.272 203.35 104.591C203.068 103.91 202.68 103.324 202.178 102.821C201.686 102.318 201.11 101.93 200.45 101.648C199.791 101.365 199.079 101.218 198.314 101.218C197.55 101.218 196.817 101.365 196.147 101.648C195.477 101.93 194.901 102.329 194.409 102.821C193.917 103.324 193.529 103.91 193.257 104.591C192.985 105.272 192.838 106.006 192.838 106.802C192.838 107.598 192.974 108.352 193.257 109.044C193.529 109.735 193.917 110.322 194.409 110.825C194.901 111.328 195.487 111.715 196.147 111.998C196.807 112.281 197.529 112.428 198.314 112.428Z" fill="#029CBE"/>
<path d="M209.748 114.261V105.241H207.246V103.46H209.748V101.826C209.748 100.694 210.062 99.8248 210.69 99.2381C211.318 98.641 212.219 98.3477 213.392 98.3477C213.685 98.3477 213.967 98.3686 214.229 98.4C214.491 98.4315 214.732 98.4838 214.941 98.5571V100.38C214.69 100.307 214.46 100.254 214.261 100.223C214.062 100.191 213.842 100.17 213.601 100.17C213.004 100.17 212.564 100.307 212.271 100.589C211.978 100.862 211.832 101.302 211.832 101.899V103.47H214.931V105.251H211.832V114.271H209.727H209.748V114.261Z" fill="#029CBE"/>
<path d="M218.333 114.261V105.241H215.831V103.46H218.333V101.826C218.333 100.694 218.647 99.8248 219.276 99.2381C219.904 98.641 220.804 98.3477 221.977 98.3477C222.27 98.3477 222.553 98.3686 222.815 98.4C223.076 98.4315 223.317 98.4838 223.527 98.5571V100.38C223.275 100.307 223.045 100.254 222.846 100.223C222.647 100.191 222.427 100.17 222.186 100.17C221.589 100.17 221.15 100.307 220.857 100.589C220.563 100.862 220.417 101.302 220.417 101.899V103.47H223.516V105.251H220.417V114.271H218.312H218.333V114.261Z" fill="#029CBE"/>
<path d="M226.196 101.711C225.841 101.711 225.537 101.585 225.286 101.312C225.034 101.051 224.898 100.747 224.898 100.391C224.898 100.034 225.024 99.7097 225.286 99.4688C225.547 99.2278 225.841 99.1021 226.196 99.1021C226.552 99.1021 226.877 99.2278 227.128 99.4688C227.38 99.7097 227.505 100.024 227.505 100.391C227.505 100.757 227.38 101.051 227.128 101.312C226.877 101.574 226.563 101.711 226.196 101.711ZM225.139 114.261V103.45H227.264V114.261H225.139Z" fill="#029CBE"/>
<path d="M234.834 114.449C233.798 114.449 232.856 114.198 232.007 113.705C231.159 113.213 230.489 112.532 229.997 111.683C229.505 110.835 229.264 109.882 229.264 108.834C229.264 107.786 229.516 106.844 230.008 105.995C230.5 105.157 231.17 104.476 232.018 103.973C232.856 103.47 233.798 103.219 234.834 103.219C235.651 103.219 236.447 103.376 237.201 103.69C237.955 104.004 238.614 104.444 239.169 105.01L237.85 106.477C237.442 106.026 236.981 105.681 236.468 105.461C235.955 105.23 235.431 105.125 234.876 105.125C234.227 105.125 233.63 105.293 233.107 105.618C232.573 105.943 232.154 106.393 231.84 106.959C231.526 107.524 231.369 108.153 231.369 108.844C231.369 109.536 231.526 110.164 231.84 110.73C232.154 111.296 232.573 111.746 233.117 112.082C233.662 112.417 234.259 112.584 234.918 112.584C235.473 112.584 235.986 112.48 236.468 112.26C236.949 112.04 237.4 111.715 237.829 111.296L239.127 112.658C238.562 113.234 237.902 113.684 237.159 113.999C236.415 114.313 235.641 114.47 234.834 114.47V114.449Z" fill="#029CBE"/>
<path d="M241.891 101.711C241.535 101.711 241.232 101.585 240.98 101.312C240.729 101.051 240.593 100.747 240.593 100.391C240.593 100.034 240.719 99.7097 240.98 99.4688C241.242 99.2278 241.535 99.1021 241.891 99.1021C242.247 99.1021 242.572 99.2278 242.823 99.4688C243.074 99.7097 243.2 100.024 243.2 100.391C243.2 100.757 243.074 101.051 242.823 101.312C242.572 101.574 242.258 101.711 241.891 101.711ZM240.834 114.261V103.45H242.959V114.261H240.834Z" fill="#029CBE"/>
<path d="M248.865 114.45C248.09 114.45 247.399 114.314 246.802 114.031C246.205 113.748 245.744 113.371 245.399 112.879C245.053 112.386 244.886 111.81 244.886 111.16C244.886 110.144 245.273 109.338 246.059 108.751C246.833 108.164 247.901 107.871 249.262 107.871C250.32 107.871 251.304 108.08 252.215 108.489V107.347C252.215 106.572 251.995 105.985 251.545 105.608C251.095 105.231 250.446 105.032 249.576 105.032C249.084 105.032 248.561 105.105 248.027 105.252C247.493 105.399 246.886 105.629 246.226 105.943L245.441 104.351C246.257 103.974 247.022 103.691 247.734 103.513C248.446 103.335 249.158 103.251 249.88 103.251C251.283 103.251 252.372 103.586 253.136 104.246C253.901 104.906 254.288 105.86 254.288 107.096V114.272H252.205V113.339C251.723 113.727 251.21 114.01 250.655 114.188C250.1 114.377 249.503 114.46 248.854 114.46L248.865 114.45ZM246.938 111.119C246.938 111.642 247.158 112.072 247.608 112.397C248.058 112.721 248.634 112.889 249.357 112.889C249.922 112.889 250.445 112.805 250.917 112.638C251.388 112.47 251.828 112.208 252.225 111.852V110.029C251.817 109.788 251.388 109.61 250.938 109.505C250.487 109.4 249.995 109.348 249.44 109.348C248.666 109.348 248.048 109.505 247.608 109.83C247.168 110.144 246.938 110.584 246.938 111.139V111.119Z" fill="#029CBE"/>
<path d="M256.738 114.261V99.3954L258.864 98.9868V114.25H256.738V114.261Z" fill="#029CBE"/>
<path d="M266.067 114.261V99.395H268.297V112.281H276.851V114.261H266.067Z" fill="#029CBE"/>
<path d="M282.243 114.45C281.469 114.45 280.778 114.314 280.181 114.031C279.584 113.748 279.123 113.371 278.778 112.879C278.432 112.386 278.265 111.81 278.265 111.16C278.265 110.144 278.652 109.338 279.437 108.751C280.212 108.164 281.28 107.871 282.641 107.871C283.699 107.871 284.683 108.08 285.594 108.489V107.347C285.594 106.572 285.374 105.985 284.924 105.608C284.474 105.231 283.824 105.032 282.955 105.032C282.463 105.032 281.94 105.105 281.406 105.252C280.872 105.399 280.265 105.629 279.605 105.943L278.82 104.351C279.636 103.974 280.401 103.691 281.113 103.513C281.825 103.335 282.537 103.251 283.259 103.251C284.662 103.251 285.751 103.586 286.515 104.246C287.28 104.906 287.667 105.86 287.667 107.096V114.272H285.583V113.339C285.102 113.727 284.589 114.01 284.034 114.188C283.479 114.377 282.882 114.46 282.233 114.46L282.243 114.45ZM280.317 111.119C280.317 111.642 280.537 112.072 280.987 112.397C281.437 112.721 282.013 112.889 282.736 112.889C283.301 112.889 283.824 112.805 284.296 112.638C284.767 112.47 285.207 112.208 285.604 111.852V110.029C285.196 109.788 284.767 109.61 284.317 109.505C283.866 109.4 283.374 109.348 282.819 109.348C282.045 109.348 281.427 109.505 280.987 109.83C280.547 110.144 280.317 110.584 280.317 111.139V111.119Z" fill="#029CBE"/>
<path d="M294.201 114.471C293.363 114.471 292.63 114.293 291.991 113.937C291.353 113.58 290.86 113.088 290.505 112.438C290.149 111.789 289.971 111.056 289.971 110.217V103.439H292.075V109.851C292.075 110.699 292.316 111.37 292.808 111.873C293.3 112.365 293.949 112.617 294.776 112.617C295.352 112.617 295.876 112.491 296.326 112.25C296.776 111.998 297.143 111.653 297.425 111.202V103.45H299.551V114.261H297.425V113.161C296.588 114.041 295.52 114.481 294.201 114.481V114.471Z" fill="#029CBE"/>
<path d="M302.053 114.261V103.45H304.179V104.55C305.016 103.67 306.095 103.23 307.424 103.23C308.262 103.23 308.995 103.408 309.623 103.764C310.251 104.12 310.754 104.613 311.11 105.252C311.466 105.891 311.654 106.624 311.654 107.462V114.261H309.529V107.829C309.529 106.98 309.288 106.31 308.817 105.818C308.346 105.325 307.686 105.084 306.828 105.084C306.262 105.084 305.749 105.21 305.299 105.44C304.849 105.681 304.472 106.027 304.179 106.478V114.251H302.053V114.261Z" fill="#029CBE"/>
<path d="M319.151 114.449C318.114 114.449 317.172 114.198 316.324 113.705C315.476 113.213 314.806 112.532 314.314 111.683C313.822 110.835 313.581 109.882 313.581 108.834C313.581 107.786 313.832 106.844 314.324 105.995C314.816 105.157 315.486 104.476 316.334 103.973C317.172 103.47 318.114 103.219 319.151 103.219C319.968 103.219 320.763 103.376 321.517 103.69C322.271 104.004 322.931 104.444 323.486 105.01L322.166 106.477C321.758 106.026 321.297 105.681 320.784 105.461C320.271 105.23 319.748 105.125 319.193 105.125C318.544 105.125 317.947 105.293 317.423 105.618C316.889 105.943 316.471 106.393 316.156 106.959C315.842 107.524 315.685 108.153 315.685 108.844C315.685 109.536 315.842 110.164 316.156 110.73C316.471 111.296 316.889 111.746 317.434 112.082C317.978 112.417 318.575 112.584 319.235 112.584C319.79 112.584 320.303 112.48 320.784 112.26C321.266 112.04 321.716 111.715 322.145 111.296L323.444 112.658C322.878 113.234 322.219 113.684 321.475 113.999C320.732 114.313 319.957 114.47 319.151 114.47V114.449Z" fill="#029CBE"/>
<path d="M325.14 114.261V99.3953L327.265 98.9238V104.549C328.103 103.669 329.181 103.229 330.511 103.229C331.349 103.229 332.082 103.408 332.71 103.764C333.338 104.12 333.841 104.612 334.197 105.251C334.553 105.89 334.741 106.624 334.741 107.462V114.261H332.616V107.829C332.616 106.98 332.375 106.309 331.893 105.817C331.412 105.325 330.752 105.084 329.925 105.084C329.359 105.084 328.846 105.209 328.396 105.44C327.946 105.681 327.569 106.027 327.276 106.477V114.25H325.14V114.261Z" fill="#029CBE"/>
<path d="M191.205 174.938V160.072H197.634C198.608 160.072 199.456 160.24 200.178 160.565C200.901 160.889 201.456 161.35 201.853 161.937C202.251 162.524 202.45 163.215 202.45 164.011C202.45 164.734 202.262 165.373 201.895 165.918C201.529 166.473 201.016 166.913 200.346 167.238C201.183 167.531 201.832 167.982 202.314 168.589C202.785 169.186 203.026 169.899 203.026 170.706C203.026 171.565 202.817 172.319 202.387 172.958C201.958 173.597 201.372 174.089 200.607 174.435C199.843 174.781 198.943 174.959 197.917 174.959H191.205V174.938ZM193.435 166.379H197.508C198.346 166.379 199.005 166.18 199.508 165.782C200 165.384 200.251 164.849 200.251 164.168C200.251 163.487 200 162.953 199.508 162.555C199.016 162.157 198.346 161.958 197.508 161.958H193.435V166.379ZM193.435 173.042H197.749C198.681 173.042 199.424 172.822 199.969 172.382C200.513 171.942 200.785 171.345 200.785 170.601C200.785 169.857 200.513 169.27 199.969 168.83C199.424 168.38 198.681 168.16 197.749 168.16H193.435V173.042Z" fill="#029CBE"/>
<path d="M205.183 174.938V160.073L207.308 159.664V174.928H205.183V174.938Z" fill="#029CBE"/>
<path d="M214.952 175.148C213.905 175.148 212.952 174.896 212.093 174.404C211.235 173.912 210.565 173.241 210.062 172.382C209.57 171.534 209.319 170.58 209.319 169.533C209.319 168.485 209.57 167.532 210.062 166.683C210.554 165.835 211.235 165.154 212.093 164.651C212.952 164.148 213.905 163.896 214.952 163.896C215.999 163.896 216.972 164.148 217.82 164.651C218.668 165.154 219.339 165.824 219.841 166.683C220.333 167.532 220.585 168.485 220.585 169.533C220.585 170.58 220.333 171.534 219.841 172.382C219.349 173.231 218.668 173.901 217.82 174.404C216.972 174.896 216.02 175.148 214.952 175.148ZM214.952 173.283C215.611 173.283 216.218 173.115 216.752 172.78C217.286 172.445 217.716 171.995 218.03 171.429C218.344 170.863 218.501 170.224 218.501 169.522C218.501 168.82 218.344 168.202 218.019 167.647C217.705 167.092 217.276 166.641 216.742 166.295C216.208 165.95 215.611 165.782 214.952 165.782C214.292 165.782 213.685 165.95 213.161 166.295C212.638 166.641 212.208 167.081 211.884 167.647C211.57 168.202 211.402 168.831 211.402 169.522C211.402 170.214 211.559 170.863 211.873 171.429C212.187 171.995 212.606 172.445 213.151 172.78C213.685 173.115 214.292 173.283 214.952 173.283Z" fill="#029CBE"/>
<path d="M227.662 175.127C226.626 175.127 225.684 174.875 224.835 174.383C223.987 173.891 223.317 173.21 222.825 172.361C222.333 171.513 222.092 170.559 222.092 169.512C222.092 168.464 222.344 167.521 222.836 166.673C223.328 165.835 223.998 165.154 224.846 164.651C225.684 164.148 226.626 163.896 227.662 163.896C228.479 163.896 229.275 164.054 230.029 164.368C230.783 164.682 231.442 165.122 231.997 165.688L230.678 167.155C230.27 166.704 229.809 166.358 229.296 166.138C228.783 165.908 228.259 165.803 227.704 165.803C227.055 165.803 226.458 165.971 225.935 166.295C225.401 166.62 224.982 167.071 224.668 167.636C224.354 168.202 224.197 168.831 224.197 169.522C224.197 170.214 224.354 170.842 224.668 171.408C224.982 171.974 225.401 172.424 225.945 172.759C226.49 173.094 227.087 173.262 227.746 173.262C228.301 173.262 228.814 173.157 229.296 172.937C229.777 172.717 230.228 172.393 230.657 171.974L231.955 173.335C231.39 173.912 230.73 174.362 229.987 174.676C229.243 174.991 228.469 175.148 227.662 175.148V175.127Z" fill="#029CBE"/>
<path d="M233.651 174.938V160.073L235.777 159.664V168.862L241.022 164.127H243.504L237.923 169.176L243.797 174.928H240.991L235.766 169.857V174.928H233.641H233.651V174.938Z" fill="#029CBE"/>
<path d="M248.886 175.127C247.849 175.127 246.907 174.875 246.059 174.383C245.211 173.891 244.54 173.21 244.048 172.361C243.556 171.513 243.315 170.559 243.315 169.512C243.315 168.464 243.567 167.521 244.059 166.673C244.551 165.835 245.221 165.154 246.069 164.651C246.907 164.148 247.849 163.896 248.886 163.896C249.702 163.896 250.498 164.054 251.252 164.368C252.006 164.682 252.665 165.122 253.22 165.688L251.901 167.155C251.493 166.704 251.032 166.358 250.519 166.138C250.006 165.908 249.482 165.803 248.927 165.803C248.278 165.803 247.681 165.971 247.158 166.295C246.624 166.62 246.205 167.071 245.891 167.636C245.577 168.202 245.42 168.831 245.42 169.522C245.42 170.214 245.577 170.842 245.891 171.408C246.205 171.974 246.624 172.424 247.168 172.759C247.713 173.094 248.31 173.262 248.969 173.262C249.524 173.262 250.037 173.157 250.519 172.937C251 172.717 251.451 172.393 251.88 171.974L253.178 173.335C252.613 173.912 251.953 174.362 251.21 174.676C250.467 174.991 249.692 175.148 248.886 175.148V175.127Z" fill="#029CBE"/>
<path d="M254.864 174.939V160.073L256.989 159.602V165.227C257.827 164.347 258.906 163.907 260.235 163.907C261.073 163.907 261.806 164.085 262.434 164.442C263.062 164.798 263.565 165.29 263.921 165.929C264.277 166.568 264.465 167.302 264.465 168.14V174.939H262.34V168.506C262.34 167.658 262.099 166.987 261.617 166.495C261.136 166.002 260.476 165.762 259.649 165.762C259.084 165.762 258.57 165.887 258.12 166.118C257.67 166.359 257.293 166.704 257 167.155V174.928H254.864V174.939Z" fill="#029CBE"/>
<path d="M270.318 175.127C269.543 175.127 268.852 174.991 268.255 174.708C267.659 174.425 267.198 174.048 266.852 173.556C266.507 173.063 266.339 172.487 266.339 171.838C266.339 170.821 266.727 170.015 267.512 169.428C268.287 168.842 269.355 168.548 270.716 168.548C271.773 168.548 272.758 168.758 273.668 169.166V168.024C273.668 167.249 273.449 166.662 272.998 166.285C272.548 165.908 271.899 165.709 271.03 165.709C270.538 165.709 270.014 165.783 269.48 165.929C268.946 166.076 268.339 166.306 267.68 166.621L266.894 165.028C267.711 164.651 268.475 164.368 269.187 164.19C269.899 164.012 270.611 163.928 271.334 163.928C272.737 163.928 273.826 164.263 274.59 164.923C275.354 165.583 275.742 166.537 275.742 167.773V174.949H273.658V174.017C273.176 174.404 272.663 174.687 272.108 174.865C271.554 175.054 270.957 175.138 270.308 175.138L270.318 175.127ZM268.391 171.796C268.391 172.32 268.611 172.749 269.062 173.074C269.512 173.399 270.088 173.566 270.81 173.566C271.375 173.566 271.899 173.482 272.37 173.315C272.841 173.147 273.281 172.885 273.679 172.529V170.706C273.271 170.465 272.841 170.287 272.391 170.182C271.941 170.078 271.449 170.025 270.894 170.025C270.119 170.025 269.501 170.182 269.062 170.507C268.622 170.822 268.391 171.262 268.391 171.817V171.796Z" fill="#029CBE"/>
<path d="M279.249 162.388C278.893 162.388 278.589 162.263 278.338 161.99C278.087 161.728 277.951 161.425 277.951 161.068C277.951 160.712 278.076 160.387 278.338 160.146C278.6 159.906 278.893 159.78 279.249 159.78C279.605 159.78 279.93 159.906 280.181 160.146C280.432 160.387 280.558 160.702 280.558 161.068C280.558 161.435 280.432 161.728 280.181 161.99C279.93 162.252 279.615 162.388 279.249 162.388ZM278.192 174.939V164.127H280.317V174.939H278.192Z" fill="#029CBE"/>
<path d="M282.83 174.939V164.127H284.955V165.227C285.793 164.347 286.871 163.907 288.201 163.907C289.039 163.907 289.772 164.085 290.4 164.442C291.028 164.798 291.531 165.29 291.887 165.929C292.243 166.568 292.431 167.302 292.431 168.14V174.939H290.306V168.506C290.306 167.658 290.065 166.987 289.594 166.495C289.123 166.002 288.463 165.762 287.604 165.762C287.039 165.762 286.526 165.887 286.076 166.118C285.625 166.359 285.249 166.704 284.955 167.155V174.928H282.83V174.939Z" fill="#029CBE"/>
<path d="M299.54 174.938V160.072H306.419C307.393 160.072 308.241 160.261 308.963 160.638C309.686 161.015 310.251 161.528 310.66 162.199C311.068 162.869 311.277 163.634 311.277 164.514C311.277 165.394 311.068 166.159 310.66 166.829C310.251 167.5 309.675 168.013 308.953 168.39C308.22 168.767 307.382 168.956 306.419 168.956H301.77V174.948H299.54V174.938ZM301.77 167.06H306.189C307.068 167.06 307.759 166.829 308.283 166.368C308.796 165.907 309.058 165.3 309.058 164.535C309.058 163.77 308.796 163.163 308.283 162.712C307.77 162.262 307.068 162.031 306.189 162.031H301.77V167.06Z" fill="#029CBE"/>
<path d="M316.188 175.127C315.413 175.127 314.722 174.991 314.125 174.708C313.529 174.425 313.068 174.048 312.722 173.556C312.377 173.063 312.209 172.487 312.209 171.838C312.209 170.821 312.597 170.015 313.382 169.428C314.157 168.842 315.225 168.548 316.586 168.548C317.643 168.548 318.628 168.758 319.538 169.166V168.024C319.538 167.249 319.319 166.662 318.868 166.285C318.418 165.908 317.769 165.709 316.9 165.709C316.408 165.709 315.884 165.783 315.35 165.929C314.816 166.076 314.209 166.306 313.55 166.621L312.764 165.028C313.581 164.651 314.345 164.368 315.057 164.19C315.769 164.012 316.481 163.928 317.204 163.928C318.607 163.928 319.696 164.263 320.46 164.923C321.224 165.583 321.612 166.537 321.612 167.773V174.949H319.528V174.017C319.046 174.404 318.533 174.687 317.978 174.865C317.424 175.054 316.827 175.138 316.178 175.138L316.188 175.127ZM314.261 171.796C314.261 172.32 314.481 172.749 314.932 173.074C315.382 173.399 315.958 173.566 316.68 173.566C317.245 173.566 317.769 173.482 318.24 173.315C318.711 173.147 319.151 172.885 319.549 172.529V170.706C319.141 170.465 318.711 170.287 318.261 170.182C317.811 170.078 317.319 170.025 316.764 170.025C315.989 170.025 315.371 170.182 314.932 170.507C314.492 170.822 314.261 171.262 314.261 171.817V171.796Z" fill="#029CBE"/>
<path d="M324.575 179.496C324.344 179.496 324.135 179.496 323.936 179.464C323.737 179.444 323.58 179.412 323.444 179.37V177.505C323.695 177.558 324.009 177.589 324.376 177.589C325.37 177.589 326.082 177.055 326.522 175.997L326.993 174.96L322.659 164.127H325.014L328.155 172.362L331.632 164.127H333.925L328.7 176.269C328.365 177.034 327.998 177.652 327.621 178.123C327.245 178.595 326.805 178.941 326.302 179.161C325.81 179.381 325.224 179.485 324.564 179.485H324.575V179.496Z" fill="#029CBE"/>
<path d="M335.244 174.939V164.127H337.369V165.164C338.175 164.326 339.191 163.907 340.406 163.907C341.138 163.907 341.798 164.075 342.374 164.4C342.95 164.724 343.4 165.164 343.746 165.72C344.196 165.122 344.73 164.672 345.337 164.368C345.944 164.064 346.635 163.907 347.4 163.907C348.206 163.907 348.907 164.085 349.515 164.442C350.111 164.798 350.593 165.29 350.939 165.929C351.284 166.568 351.462 167.302 351.462 168.14V174.939H349.337V168.506C349.337 167.658 349.117 166.987 348.667 166.495C348.216 166.002 347.62 165.762 346.855 165.762C346.332 165.762 345.861 165.887 345.431 166.118C345.002 166.359 344.636 166.725 344.332 167.218C344.363 167.364 344.384 167.511 344.395 167.668C344.405 167.825 344.416 167.982 344.416 168.14V174.939H342.311V168.506C342.311 167.658 342.091 166.987 341.641 166.495C341.191 166.002 340.594 165.762 339.83 165.762C339.317 165.762 338.856 165.866 338.448 166.086C338.039 166.306 337.683 166.631 337.39 167.071V174.928H335.244V174.939Z" fill="#029CBE"/>
<path d="M359.053 175.127C357.996 175.127 357.032 174.875 356.174 174.383C355.315 173.891 354.635 173.21 354.132 172.361C353.629 171.513 353.378 170.559 353.378 169.512C353.378 168.464 353.619 167.542 354.101 166.694C354.582 165.856 355.231 165.175 356.059 164.672C356.875 164.169 357.797 163.917 358.791 163.917C359.786 163.917 360.686 164.169 361.461 164.672C362.236 165.175 362.854 165.856 363.314 166.715C363.775 167.574 364.005 168.537 364.005 169.616V170.214H355.493C355.608 170.811 355.828 171.335 356.163 171.806C356.498 172.277 356.917 172.644 357.441 172.906C357.954 173.178 358.519 173.315 359.126 173.315C359.65 173.315 360.152 173.231 360.644 173.074C361.137 172.906 361.534 172.675 361.869 172.361L363.231 173.702C362.592 174.184 361.943 174.54 361.262 174.771C360.592 175.001 359.849 175.116 359.043 175.116L359.053 175.127ZM355.535 168.632H361.922C361.838 168.066 361.639 167.563 361.336 167.134C361.032 166.704 360.655 166.358 360.215 166.117C359.765 165.866 359.283 165.751 358.76 165.751C358.236 165.751 357.723 165.866 357.273 166.107C356.823 166.348 356.446 166.683 356.142 167.113C355.839 167.542 355.64 168.056 355.535 168.632Z" fill="#029CBE"/>
<path d="M366.037 174.939V164.127H368.162V165.227C369 164.347 370.078 163.907 371.408 163.907C372.245 163.907 372.978 164.085 373.607 164.442C374.235 164.798 374.737 165.29 375.093 165.929C375.449 166.568 375.638 167.302 375.638 168.14V174.939H373.512V168.506C373.512 167.658 373.272 166.987 372.8 166.495C372.329 166.002 371.67 165.762 370.811 165.762C370.246 165.762 369.733 165.887 369.282 166.118C368.832 166.359 368.455 166.704 368.162 167.155V174.928H366.037V174.939Z" fill="#029CBE"/>
<path d="M382.381 175.127C381.334 175.127 380.538 174.886 379.983 174.394C379.428 173.901 379.156 173.189 379.156 172.257V165.908H376.863V164.127H379.156V161.361L381.26 160.848V164.117H384.443V165.898H381.26V171.754C381.26 172.309 381.386 172.697 381.627 172.927C381.878 173.158 382.276 173.273 382.852 173.273C383.145 173.273 383.417 173.252 383.647 173.21C383.878 173.168 384.129 173.105 384.401 173.021V174.802C384.119 174.897 383.794 174.98 383.417 175.022C383.04 175.075 382.695 175.096 382.391 175.096V175.127H382.381Z" fill="#029CBE"/>
<path d="M191.205 205.267V190.401H198.084C199.058 190.401 199.906 190.59 200.628 190.967C201.351 191.344 201.916 191.858 202.325 192.528C202.733 193.198 202.942 193.963 202.942 194.843C202.942 195.723 202.733 196.488 202.325 197.158C201.916 197.829 201.34 198.342 200.618 198.719C199.885 199.097 199.047 199.285 198.084 199.285H193.435V205.277H191.205V205.267ZM193.435 197.389H197.854C198.733 197.389 199.424 197.158 199.948 196.698C200.461 196.237 200.723 195.629 200.723 194.864C200.723 194.099 200.461 193.492 199.948 193.041C199.435 192.591 198.733 192.36 197.854 192.36H193.435V197.389Z" fill="#029CBE"/>
<path d="M204.89 205.267V194.455H207.015V195.838C207.35 195.325 207.779 194.927 208.282 194.633C208.785 194.34 209.35 194.193 209.989 194.193C210.428 194.193 210.784 194.267 211.067 194.382V196.289C210.868 196.205 210.659 196.142 210.449 196.111C210.24 196.079 210.02 196.058 209.811 196.058C209.193 196.058 208.638 196.226 208.156 196.561C207.675 196.896 207.298 197.378 207.015 198.017V205.256H204.89V205.267Z" fill="#029CBE"/>
<path d="M217.286 205.486C216.239 205.486 215.287 205.235 214.428 204.742C213.57 204.25 212.899 203.58 212.397 202.721C211.905 201.872 211.653 200.919 211.653 199.871C211.653 198.823 211.905 197.87 212.397 197.022C212.889 196.173 213.57 195.492 214.428 194.989C215.287 194.486 216.239 194.235 217.286 194.235C218.333 194.235 219.307 194.486 220.155 194.989C221.003 195.492 221.673 196.163 222.176 197.022C222.668 197.87 222.919 198.823 222.919 199.871C222.919 200.919 222.668 201.872 222.176 202.721C221.684 203.569 221.003 204.24 220.155 204.742C219.307 205.235 218.354 205.486 217.286 205.486ZM217.286 203.621C217.946 203.621 218.553 203.454 219.087 203.119C219.621 202.783 220.051 202.333 220.365 201.767C220.679 201.201 220.836 200.562 220.836 199.861C220.836 199.159 220.679 198.541 220.354 197.985C220.04 197.43 219.611 196.98 219.077 196.634C218.543 196.288 217.946 196.121 217.286 196.121C216.627 196.121 216.02 196.288 215.496 196.634C214.973 196.98 214.543 197.42 214.219 197.985C213.905 198.541 213.737 199.169 213.737 199.861C213.737 200.552 213.894 201.201 214.208 201.767C214.522 202.333 214.941 202.783 215.486 203.119C216.02 203.454 216.627 203.621 217.286 203.621Z" fill="#029CBE"/>
<path d="M228.94 205.465C227.893 205.465 227.097 205.224 226.542 204.732C225.987 204.24 225.715 203.527 225.715 202.595V196.246H223.422V194.466H225.715V191.7L227.819 191.187V194.455H231.002V196.236H227.819V202.092C227.819 202.647 227.945 203.035 228.186 203.265C228.437 203.496 228.835 203.611 229.411 203.611C229.704 203.611 229.976 203.59 230.207 203.548C230.437 203.506 230.688 203.444 230.96 203.36V205.141C230.678 205.235 230.353 205.319 229.976 205.361C229.599 205.413 229.254 205.434 228.95 205.434V205.465H228.94Z" fill="#029CBE"/>
<path d="M237.504 205.486C236.457 205.486 235.505 205.235 234.646 204.742C233.787 204.25 233.117 203.58 232.615 202.721C232.123 201.872 231.871 200.919 231.871 199.871C231.871 198.823 232.123 197.87 232.615 197.022C233.107 196.173 233.787 195.492 234.646 194.989C235.505 194.486 236.457 194.235 237.504 194.235C238.551 194.235 239.525 194.486 240.373 194.989C241.221 195.492 241.891 196.163 242.394 197.022C242.886 197.87 243.137 198.823 243.137 199.871C243.137 200.919 242.886 201.872 242.394 202.721C241.902 203.569 241.221 204.24 240.373 204.742C239.525 205.235 238.572 205.486 237.504 205.486ZM237.504 203.621C238.164 203.621 238.771 203.454 239.305 203.119C239.839 202.783 240.268 202.333 240.583 201.767C240.897 201.201 241.054 200.562 241.054 199.861C241.054 199.159 240.897 198.541 240.572 197.985C240.258 197.43 239.829 196.98 239.295 196.634C238.761 196.288 238.164 196.121 237.504 196.121C236.845 196.121 236.237 196.288 235.714 196.634C235.19 196.98 234.761 197.42 234.437 197.985C234.122 198.541 233.955 199.169 233.955 199.861C233.955 200.552 234.112 201.201 234.426 201.767C234.74 202.333 235.159 202.783 235.703 203.119C236.237 203.454 236.845 203.621 237.504 203.621Z" fill="#029CBE"/>
<path d="M250.236 205.465C249.2 205.465 248.257 205.214 247.409 204.721C246.561 204.229 245.891 203.548 245.399 202.7C244.907 201.851 244.666 200.898 244.666 199.85C244.666 198.802 244.917 197.86 245.409 197.011C245.902 196.173 246.572 195.492 247.42 194.989C248.257 194.486 249.2 194.235 250.236 194.235C251.053 194.235 251.849 194.392 252.602 194.706C253.356 195.021 254.016 195.461 254.571 196.026L253.252 197.493C252.843 197.042 252.383 196.697 251.87 196.477C251.356 196.246 250.833 196.142 250.278 196.142C249.629 196.142 249.032 196.309 248.509 196.634C247.975 196.959 247.556 197.409 247.242 197.975C246.928 198.541 246.771 199.169 246.771 199.861C246.771 200.552 246.928 201.18 247.242 201.746C247.556 202.312 247.975 202.762 248.519 203.098C249.063 203.433 249.66 203.6 250.32 203.6C250.875 203.6 251.388 203.496 251.87 203.276C252.351 203.056 252.801 202.731 253.231 202.312L254.529 203.674C253.964 204.25 253.304 204.701 252.561 205.015C251.817 205.329 251.042 205.486 250.236 205.486V205.465Z" fill="#029CBE"/>
<path d="M261.021 205.486C259.974 205.486 259.021 205.235 258.162 204.742C257.304 204.25 256.634 203.58 256.131 202.721C255.639 201.872 255.388 200.919 255.388 199.871C255.388 198.823 255.639 197.87 256.131 197.022C256.623 196.173 257.304 195.492 258.162 194.989C259.021 194.486 259.974 194.235 261.021 194.235C262.068 194.235 263.041 194.486 263.889 194.989C264.737 195.492 265.408 196.163 265.91 197.022C266.402 197.87 266.654 198.823 266.654 199.871C266.654 200.919 266.402 201.872 265.91 202.721C265.418 203.569 264.737 204.24 263.889 204.742C263.041 205.235 262.089 205.486 261.021 205.486ZM261.021 203.621C261.68 203.621 262.287 203.454 262.821 203.119C263.355 202.783 263.785 202.333 264.099 201.767C264.413 201.201 264.57 200.562 264.57 199.861C264.57 199.159 264.413 198.541 264.088 197.985C263.774 197.43 263.345 196.98 262.811 196.634C262.277 196.288 261.68 196.121 261.021 196.121C260.361 196.121 259.754 196.288 259.23 196.634C258.707 196.98 258.277 197.42 257.953 197.985C257.639 198.541 257.471 199.169 257.471 199.861C257.471 200.552 257.628 201.201 257.942 201.767C258.256 202.333 258.675 202.783 259.22 203.119C259.754 203.454 260.361 203.621 261.021 203.621Z" fill="#029CBE"/>
<path d="M268.664 205.266V190.401L270.789 189.992V205.256H268.664V205.266Z" fill="#029CBE"/>
<path d="M274.705 196.927C274.339 196.927 274.024 196.802 273.763 196.529C273.501 196.267 273.365 195.953 273.365 195.587C273.365 195.22 273.49 194.906 273.763 194.644C274.024 194.382 274.339 194.246 274.705 194.246C275.071 194.246 275.385 194.382 275.647 194.644C275.909 194.906 276.045 195.22 276.045 195.587C276.045 195.953 275.919 196.267 275.647 196.529C275.385 196.791 275.071 196.927 274.705 196.927ZM274.705 205.424C274.339 205.424 274.024 205.287 273.763 205.025C273.501 204.764 273.365 204.449 273.365 204.083C273.365 203.716 273.49 203.402 273.763 203.14C274.035 202.878 274.339 202.742 274.705 202.742C275.071 202.742 275.385 202.867 275.647 203.14C275.909 203.412 276.045 203.716 276.045 204.083C276.045 204.449 275.919 204.764 275.647 205.025C275.385 205.287 275.071 205.424 274.705 205.424Z" fill="#029CBE"/>
<path opacity="0.8" d="M191.32 235.605V220.74H192.954V234.139H201.801V235.605H191.32Z" fill="#029CBE"/>
<path opacity="0.8" d="M204.628 222.929C204.345 222.929 204.094 222.824 203.885 222.615C203.675 222.405 203.57 222.143 203.57 221.85C203.57 221.557 203.675 221.326 203.885 221.117C204.094 220.907 204.345 220.813 204.628 220.813C204.911 220.813 205.172 220.918 205.382 221.117C205.591 221.326 205.685 221.578 205.685 221.871C205.685 222.164 205.581 222.405 205.382 222.615C205.172 222.824 204.921 222.929 204.628 222.929ZM203.843 235.605V224.962H205.413V235.605H203.843Z" fill="#029CBE"/>
<path opacity="0.8" d="M211.465 235.606L206.858 224.962H208.596L212.229 233.563L215.862 224.962H217.538L212.952 235.606H211.465Z" fill="#029CBE"/>
<path opacity="0.8" d="M223.663 235.795C222.647 235.795 221.715 235.554 220.888 235.061C220.061 234.569 219.401 233.909 218.909 233.071C218.417 232.233 218.176 231.301 218.176 230.263C218.176 229.226 218.407 228.325 218.878 227.487C219.349 226.66 219.977 226 220.763 225.507C221.558 225.015 222.438 224.774 223.411 224.774C224.385 224.774 225.212 225.015 225.966 225.507C226.72 226 227.327 226.649 227.767 227.487C228.207 228.325 228.437 229.237 228.437 230.263V230.756H219.715C219.799 231.447 220.019 232.076 220.386 232.621C220.752 233.165 221.213 233.605 221.799 233.93C222.375 234.244 223.014 234.412 223.705 234.412C224.26 234.412 224.794 234.328 225.317 234.16C225.841 233.993 226.28 233.752 226.636 233.438L227.61 234.475C227.013 234.915 226.395 235.24 225.757 235.46C225.108 235.68 224.406 235.784 223.642 235.784H223.663V235.795ZM219.778 229.509H226.888C226.804 228.87 226.594 228.304 226.259 227.802C225.924 227.299 225.516 226.901 225.013 226.607C224.521 226.314 223.977 226.167 223.38 226.167C222.783 226.167 222.207 226.314 221.705 226.597C221.192 226.88 220.773 227.278 220.427 227.77C220.092 228.273 219.873 228.849 219.768 229.499L219.778 229.509Z" fill="#029CBE"/>
<path opacity="0.8" d="M234.143 235.815C233.264 235.815 232.447 235.669 231.672 235.375C230.898 235.082 230.228 234.673 229.662 234.15L230.615 233.133C231.107 233.584 231.651 233.94 232.248 234.181C232.845 234.432 233.452 234.548 234.07 234.548C234.918 234.548 235.609 234.37 236.154 234.013C236.688 233.657 236.96 233.196 236.96 232.63C236.96 232.159 236.803 231.803 236.478 231.541C236.164 231.279 235.662 231.101 234.981 230.996L233.138 230.745C232.081 230.588 231.285 230.273 230.772 229.791C230.259 229.31 229.997 228.66 229.997 227.843C229.997 227.246 230.165 226.722 230.51 226.251C230.856 225.779 231.316 225.412 231.924 225.151C232.521 224.878 233.212 224.752 233.997 224.752C234.782 224.752 235.504 224.868 236.185 225.088C236.866 225.318 237.525 225.664 238.185 226.146L237.358 227.204C236.761 226.795 236.185 226.491 235.63 226.303C235.075 226.114 234.499 226.02 233.923 226.02C233.191 226.02 232.594 226.188 232.144 226.512C231.693 226.837 231.463 227.267 231.463 227.791C231.463 228.272 231.62 228.639 231.934 228.88C232.248 229.131 232.751 229.299 233.442 229.404L235.285 229.655C236.342 229.802 237.138 230.106 237.672 230.588C238.206 231.07 238.468 231.73 238.468 232.568C238.468 233.175 238.279 233.73 237.892 234.223C237.504 234.715 237.002 235.103 236.353 235.386C235.703 235.669 234.981 235.815 234.154 235.815H234.143Z" fill="#029CBE"/>
<path opacity="0.8" d="M244.174 235.815C243.252 235.815 242.551 235.595 242.048 235.155C241.556 234.715 241.305 234.076 241.305 233.249V226.303H239.012V224.962H241.305V222.27L242.855 221.872V224.973H246.058V226.313H242.855V232.851C242.855 233.416 242.98 233.825 243.231 234.076C243.483 234.328 243.902 234.443 244.488 234.443C244.781 234.443 245.053 234.422 245.284 234.38C245.514 234.338 245.765 234.265 246.037 234.171V235.553C245.765 235.648 245.472 235.721 245.137 235.763C244.802 235.805 244.488 235.826 244.174 235.826V235.815Z" fill="#029CBE"/>
<path opacity="0.8" d="M247.744 235.605V224.962H249.315V226.47C249.639 225.915 250.058 225.485 250.561 225.182C251.063 224.878 251.639 224.721 252.288 224.721C252.655 224.721 252.99 224.773 253.283 224.867V226.313C253.094 226.24 252.916 226.198 252.728 226.166C252.54 226.135 252.361 226.124 252.173 226.124C251.524 226.124 250.948 226.313 250.466 226.69C249.974 227.067 249.597 227.612 249.315 228.314V235.595H247.744V235.605Z" fill="#029CBE"/>
<path opacity="0.8" d="M259.324 235.795C258.309 235.795 257.377 235.554 256.55 235.061C255.722 234.569 255.063 233.909 254.571 233.071C254.079 232.233 253.838 231.301 253.838 230.263C253.838 229.226 254.068 228.325 254.539 227.487C255.011 226.66 255.639 226 256.424 225.507C257.22 225.015 258.099 224.774 259.073 224.774C260.047 224.774 260.874 225.015 261.628 225.507C262.382 226 262.989 226.649 263.429 227.487C263.868 228.325 264.099 229.237 264.099 230.263V230.756H255.377C255.461 231.447 255.681 232.076 256.047 232.621C256.414 233.165 256.874 233.605 257.461 233.93C258.036 234.244 258.675 234.412 259.366 234.412C259.921 234.412 260.455 234.328 260.979 234.16C261.502 233.993 261.942 233.752 262.298 233.438L263.272 234.475C262.675 234.915 262.057 235.24 261.418 235.46C260.769 235.68 260.068 235.784 259.303 235.784H259.324V235.795ZM255.44 229.509H262.549C262.465 228.87 262.256 228.304 261.921 227.802C261.586 227.299 261.177 226.901 260.675 226.607C260.183 226.314 259.638 226.167 259.042 226.167C258.445 226.167 257.869 226.314 257.366 226.597C256.853 226.88 256.434 227.278 256.089 227.77C255.754 228.273 255.534 228.849 255.429 229.499L255.44 229.509Z" fill="#029CBE"/>
<path opacity="0.8" d="M269.449 235.794C268.674 235.794 267.983 235.658 267.397 235.386C266.81 235.113 266.35 234.747 266.015 234.265C265.68 233.783 265.512 233.228 265.512 232.589C265.512 231.583 265.9 230.787 266.653 230.211C267.407 229.634 268.454 229.341 269.753 229.341C270.894 229.341 271.941 229.582 272.873 230.064V228.66C272.873 227.811 272.632 227.172 272.15 226.743C271.669 226.313 270.967 226.093 270.046 226.093C269.522 226.093 268.999 226.167 268.465 226.313C267.931 226.46 267.355 226.701 266.716 227.026L266.119 225.811C266.884 225.444 267.596 225.171 268.245 225.004C268.894 224.836 269.543 224.752 270.192 224.752C271.532 224.752 272.569 225.067 273.302 225.706C274.035 226.345 274.391 227.256 274.391 228.44V235.595H272.862V234.558C272.381 234.967 271.857 235.281 271.281 235.48C270.705 235.689 270.088 235.784 269.428 235.784H269.449V235.794ZM267.03 232.547C267.03 233.144 267.282 233.626 267.784 234.003C268.287 234.38 268.936 234.569 269.721 234.569C270.36 234.569 270.936 234.474 271.459 234.275C271.983 234.076 272.454 233.762 272.883 233.343V231.342C272.443 231.049 271.972 230.829 271.48 230.692C270.988 230.556 270.423 230.493 269.805 230.493C268.957 230.493 268.276 230.682 267.774 231.059C267.271 231.436 267.02 231.929 267.02 232.557L267.03 232.547Z" fill="#029CBE"/>
<path opacity="0.8" d="M277.061 235.605V224.962H278.631V226.125C279.438 225.203 280.474 224.742 281.751 224.742C282.505 224.742 283.165 224.92 283.751 225.266C284.327 225.611 284.788 226.083 285.112 226.68C285.552 226.03 286.076 225.548 286.683 225.224C287.29 224.909 287.981 224.742 288.766 224.742C289.552 224.742 290.222 224.92 290.808 225.266C291.384 225.611 291.845 226.093 292.18 226.711C292.515 227.329 292.682 228.042 292.682 228.869V235.605H291.133V229.194C291.133 228.241 290.881 227.497 290.389 226.952C289.897 226.407 289.227 226.135 288.369 226.135C287.793 226.135 287.259 226.282 286.777 226.575C286.295 226.868 285.887 227.298 285.542 227.885C285.573 228.042 285.594 228.199 285.615 228.366C285.636 228.534 285.646 228.702 285.646 228.89V235.626H284.097V229.215C284.097 228.262 283.845 227.518 283.353 226.973C282.861 226.428 282.191 226.156 281.354 226.156C280.788 226.156 280.275 226.282 279.814 226.554C279.354 226.816 278.966 227.204 278.642 227.706V235.626H277.071V235.605H277.061Z" fill="#029CBE"/>
<path opacity="0.8" d="M296.075 222.929C295.792 222.929 295.541 222.824 295.331 222.615C295.122 222.405 295.017 222.143 295.017 221.85C295.017 221.557 295.122 221.326 295.331 221.117C295.541 220.907 295.792 220.813 296.075 220.813C296.357 220.813 296.619 220.918 296.828 221.117C297.038 221.326 297.132 221.578 297.132 221.871C297.132 222.164 297.027 222.405 296.828 222.615C296.619 222.824 296.368 222.929 296.075 222.929ZM295.289 235.605V224.962H296.86V235.605H295.289Z" fill="#029CBE"/>
<path opacity="0.8" d="M299.519 235.606V224.962H301.09V226.219C301.927 225.245 303.037 224.752 304.44 224.752C305.246 224.752 305.958 224.931 306.576 225.276C307.194 225.622 307.676 226.104 308.021 226.722C308.367 227.34 308.545 228.052 308.545 228.88V235.616H306.995V229.205C306.995 228.251 306.733 227.508 306.199 226.963C305.665 226.418 304.943 226.146 304.021 226.146C303.383 226.146 302.817 226.292 302.325 226.575C301.833 226.858 301.414 227.267 301.09 227.791V235.627H299.519V235.606Z" fill="#029CBE"/>
<path opacity="0.8" d="M316.366 240.152C315.633 240.152 314.9 240.058 314.178 239.869C313.455 239.681 312.796 239.409 312.209 239.052L312.89 237.816C313.528 238.151 314.115 238.403 314.659 238.56C315.204 238.717 315.748 238.79 316.303 238.79C317.308 238.79 318.073 238.549 318.596 238.068C319.12 237.586 319.381 236.873 319.381 235.941V234.453C318.408 235.27 317.277 235.689 316.01 235.689C315.036 235.689 314.146 235.449 313.34 234.967C312.534 234.485 311.895 233.835 311.424 232.997C310.953 232.17 310.712 231.248 310.712 230.221C310.712 229.194 310.953 228.283 311.424 227.445C311.895 226.617 312.534 225.957 313.34 225.475C314.146 224.993 315.047 224.752 316.052 224.752C316.659 224.752 317.256 224.857 317.821 225.067C318.397 225.276 318.921 225.591 319.402 225.999V224.941H320.952V235.899C320.952 237.261 320.554 238.298 319.758 239.031C318.963 239.765 317.832 240.121 316.366 240.121V240.152ZM316.136 234.317C316.816 234.317 317.434 234.191 317.999 233.93C318.565 233.678 319.025 233.311 319.381 232.85V227.623C319.025 227.172 318.565 226.816 317.989 226.565C317.413 226.313 316.795 226.188 316.136 226.188C315.403 226.188 314.743 226.366 314.146 226.722C313.549 227.078 313.099 227.56 312.754 228.178C312.419 228.796 312.241 229.488 312.241 230.252C312.241 231.017 312.419 231.709 312.764 232.327C313.11 232.945 313.581 233.427 314.167 233.793C314.754 234.16 315.413 234.338 316.136 234.338V234.317Z" fill="#029CBE"/>
<path opacity="0.8" d="M191.32 265.944V251.079H192.954V265.944H191.32Z" fill="#029CBE"/>
<path opacity="0.8" d="M195.938 265.945V255.301H197.508V256.558C198.346 255.584 199.456 255.091 200.859 255.091C201.665 255.091 202.377 255.269 202.995 255.615C203.612 255.961 204.094 256.443 204.44 257.061C204.785 257.679 204.963 258.391 204.963 259.219V265.955H203.413V259.544C203.413 258.59 203.152 257.847 202.618 257.302C202.084 256.757 201.361 256.485 200.44 256.485C199.801 256.485 199.236 256.631 198.744 256.914C198.252 257.197 197.833 257.606 197.508 258.129V265.965H195.938V265.945Z" fill="#029CBE"/>
<path opacity="0.8" d="M211.444 266.154C210.523 266.154 209.821 265.934 209.318 265.494C208.826 265.054 208.575 264.415 208.575 263.587V256.641H206.282V255.3H208.575V252.608L210.125 252.21V255.311H213.329V256.652H210.125V263.189C210.125 263.755 210.25 264.163 210.502 264.415C210.753 264.666 211.172 264.781 211.758 264.781C212.051 264.781 212.323 264.76 212.554 264.718C212.784 264.677 213.035 264.603 213.308 264.509V265.892C213.035 265.986 212.742 266.059 212.407 266.101C212.072 266.143 211.758 266.164 211.444 266.164V266.154Z" fill="#029CBE"/>
<path opacity="0.8" d="M219.789 266.133C218.773 266.133 217.841 265.892 217.014 265.399C216.187 264.907 215.527 264.247 215.035 263.409C214.543 262.571 214.302 261.638 214.302 260.601C214.302 259.564 214.533 258.663 215.004 257.825C215.475 256.998 216.103 256.338 216.888 255.845C217.684 255.353 218.564 255.112 219.537 255.112C220.511 255.112 221.338 255.353 222.092 255.845C222.846 256.338 223.453 256.987 223.893 257.825C224.333 258.663 224.563 259.575 224.563 260.601V261.094H215.841C215.925 261.785 216.145 262.414 216.512 262.958C216.878 263.503 217.339 263.943 217.925 264.268C218.501 264.582 219.14 264.75 219.831 264.75C220.386 264.75 220.92 264.666 221.443 264.498C221.967 264.331 222.406 264.09 222.762 263.776L223.736 264.813C223.139 265.253 222.521 265.577 221.883 265.797C221.234 266.017 220.532 266.122 219.768 266.122H219.789V266.133ZM215.904 259.847H223.014C222.93 259.208 222.72 258.642 222.385 258.139C222.05 257.637 221.642 257.238 221.139 256.945C220.647 256.652 220.103 256.505 219.506 256.505C218.909 256.505 218.333 256.652 217.831 256.935C217.318 257.218 216.899 257.616 216.553 258.108C216.218 258.611 215.999 259.187 215.894 259.837L215.904 259.847Z" fill="#029CBE"/>
<path opacity="0.8" d="M231.945 270.491C231.212 270.491 230.479 270.397 229.756 270.208C229.034 270.02 228.374 269.747 227.788 269.391L228.468 268.155C229.107 268.49 229.693 268.742 230.238 268.899C230.782 269.056 231.327 269.129 231.882 269.129C232.887 269.129 233.651 268.888 234.175 268.406C234.698 267.924 234.96 267.212 234.96 266.28V264.792C233.986 265.609 232.855 266.028 231.589 266.028C230.615 266.028 229.725 265.787 228.919 265.306C228.112 264.824 227.474 264.174 227.003 263.336C226.531 262.508 226.291 261.586 226.291 260.56C226.291 259.533 226.531 258.622 227.003 257.784C227.474 256.956 228.112 256.296 228.919 255.814C229.725 255.332 230.625 255.091 231.63 255.091C232.238 255.091 232.835 255.196 233.4 255.406C233.976 255.615 234.499 255.929 234.981 256.338V255.28H236.53V266.238C236.53 267.6 236.133 268.637 235.337 269.37C234.541 270.104 233.41 270.46 231.945 270.46V270.491ZM231.714 264.656C232.395 264.656 233.012 264.53 233.578 264.268C234.143 264.017 234.604 263.65 234.96 263.189V257.962C234.604 257.511 234.143 257.155 233.567 256.904C232.992 256.652 232.374 256.527 231.714 256.527C230.981 256.527 230.322 256.705 229.725 257.061C229.128 257.417 228.678 257.899 228.332 258.517C227.997 259.135 227.819 259.827 227.819 260.591C227.819 261.356 227.997 262.047 228.343 262.666C228.688 263.284 229.159 263.766 229.746 264.132C230.332 264.499 230.992 264.677 231.714 264.677V264.656Z" fill="#029CBE"/>
<path opacity="0.8" d="M239.201 265.944V255.3H240.771V256.809C241.096 256.253 241.514 255.824 242.017 255.52C242.52 255.216 243.096 255.059 243.745 255.059C244.111 255.059 244.446 255.111 244.739 255.206V256.651C244.551 256.578 244.373 256.536 244.184 256.505C243.996 256.473 243.818 256.463 243.63 256.463C242.98 256.463 242.404 256.651 241.923 257.029C241.431 257.406 241.054 257.95 240.771 258.652V265.933H239.201V265.944Z" fill="#029CBE"/>
<path opacity="0.8" d="M249.367 266.133C248.592 266.133 247.901 265.997 247.315 265.725C246.729 265.452 246.268 265.085 245.933 264.604C245.598 264.122 245.43 263.566 245.43 262.927C245.43 261.922 245.818 261.125 246.572 260.549C247.325 259.973 248.372 259.68 249.671 259.68C250.812 259.68 251.859 259.921 252.791 260.403V258.999C252.791 258.15 252.55 257.511 252.068 257.082C251.587 256.652 250.885 256.432 249.964 256.432C249.44 256.432 248.917 256.506 248.383 256.652C247.849 256.799 247.273 257.04 246.634 257.365L246.038 256.149C246.802 255.783 247.514 255.51 248.163 255.343C248.812 255.175 249.461 255.091 250.111 255.091C251.451 255.091 252.487 255.406 253.22 256.045C253.953 256.684 254.309 257.595 254.309 258.779V265.934H252.78V264.897C252.299 265.305 251.775 265.62 251.199 265.819C250.624 266.028 250.006 266.123 249.346 266.123H249.367V266.133ZM246.948 262.886C246.948 263.483 247.2 263.965 247.702 264.342C248.205 264.719 248.854 264.907 249.639 264.907C250.278 264.907 250.854 264.813 251.377 264.614C251.901 264.415 252.372 264.101 252.801 263.682V261.681C252.362 261.387 251.89 261.167 251.398 261.031C250.906 260.895 250.341 260.832 249.723 260.832C248.875 260.832 248.194 261.021 247.692 261.398C247.189 261.775 246.938 262.267 246.938 262.896L246.948 262.886Z" fill="#029CBE"/>
<path opacity="0.8" d="M260.842 266.154C259.921 266.154 259.22 265.934 258.717 265.494C258.225 265.054 257.974 264.415 257.974 263.587V256.641H255.681V255.3H257.974V252.608L259.523 252.21V255.311H262.727V256.652H259.523V263.189C259.523 263.755 259.649 264.163 259.9 264.415C260.151 264.666 260.57 264.781 261.157 264.781C261.45 264.781 261.722 264.76 261.952 264.718C262.183 264.677 262.434 264.603 262.706 264.509V265.892C262.434 265.986 262.141 266.059 261.806 266.101C261.471 266.143 261.157 266.164 260.842 266.164V266.154Z" fill="#029CBE"/>
<path opacity="0.8" d="M265.188 253.268C264.905 253.268 264.654 253.163 264.444 252.954C264.235 252.744 264.13 252.482 264.13 252.189C264.13 251.896 264.235 251.665 264.444 251.456C264.654 251.246 264.905 251.152 265.188 251.152C265.47 251.152 265.732 251.257 265.942 251.456C266.151 251.665 266.245 251.917 266.245 252.21C266.245 252.503 266.14 252.744 265.942 252.954C265.732 253.163 265.481 253.268 265.188 253.268ZM264.402 265.944V255.3H265.973V265.944H264.402Z" fill="#029CBE"/>
<path opacity="0.8" d="M273.585 266.154C272.58 266.154 271.669 265.913 270.841 265.421C270.014 264.928 269.355 264.268 268.873 263.43C268.391 262.592 268.151 261.66 268.151 260.623C268.151 259.586 268.391 258.653 268.873 257.815C269.355 256.977 270.004 256.317 270.841 255.825C271.669 255.332 272.59 255.091 273.585 255.091C274.579 255.091 275.522 255.332 276.338 255.825C277.155 256.317 277.815 256.977 278.296 257.815C278.778 258.653 279.019 259.586 279.019 260.623C279.019 261.66 278.778 262.592 278.296 263.43C277.815 264.268 277.165 264.928 276.338 265.421C275.522 265.913 274.6 266.154 273.585 266.154ZM273.585 264.75C274.307 264.75 274.956 264.562 275.553 264.195C276.139 263.828 276.611 263.336 276.956 262.707C277.302 262.079 277.48 261.387 277.48 260.623C277.48 259.858 277.302 259.146 276.956 258.527C276.611 257.909 276.139 257.417 275.553 257.05C274.967 256.684 274.307 256.495 273.585 256.495C272.862 256.495 272.213 256.684 271.616 257.05C271.03 257.417 270.559 257.909 270.213 258.527C269.868 259.146 269.69 259.837 269.69 260.623C269.69 261.408 269.868 262.079 270.213 262.707C270.559 263.336 271.03 263.828 271.616 264.195C272.203 264.562 272.862 264.75 273.585 264.75Z" fill="#029CBE"/>
<path opacity="0.8" d="M281.207 265.945V255.301H282.778V256.558C283.615 255.584 284.725 255.091 286.128 255.091C286.934 255.091 287.646 255.269 288.264 255.615C288.882 255.961 289.363 256.443 289.709 257.061C290.054 257.679 290.232 258.391 290.232 259.219V265.955H288.683V259.544C288.683 258.59 288.421 257.847 287.887 257.302C287.353 256.757 286.631 256.485 285.709 256.485C285.071 256.485 284.505 256.631 284.013 256.914C283.521 257.197 283.102 257.606 282.778 258.129V265.965H281.207V265.945Z" fill="#029CBE"/>
</svg>
