<svg width="198" height="36" viewBox="0 0 198 36" fill="none" xmlns="http://www.w3.org/2000/svg">
<g id="Frame 11">
<g id="Frame 6">
<g id="ABOUT US">
<g id="Frame 3">
<g id="Frame 1">
<path id="Rectangle 26" d="M-725 -1829H1191V4507H-725V-1829Z" fill="white"/>
</g>
</g>
<g id="Group 62">
<rect id="Rectangle 27" x="-724" y="-553" width="1915" height="2151" fill="url(#paint0_linear_0_1)" fill-opacity="0.5"/>
<rect id="Rectangle 28" x="-724" y="-553" width="1915" height="622" fill="url(#paint1_linear_0_1)"/>
<g id="CLOUD" opacity="0.6">
</g>
<g id="ASTIAN DAPP/NFT/GAMECENTER" filter="url(#filter0_d_0_1)">
<g id="astian dapp">
<g id="Frame 14">
<path id="Vector" d="M358.494 0.0649414H264.302C257.959 0.0649414 252.131 -3.57139 249.489 -9.33221C243.354 -22.7115 229.837 -32 214.144 -32H-224.112C-245.585 -31.9901 -262.99 -14.6187 -262.99 6.83366V63.3747C-262.99 84.8172 -245.585 102.198 -224.112 102.198H214.144C229.837 102.198 243.354 92.91 249.489 79.5306C252.131 73.7698 257.959 70.1335 264.302 70.1335H358.494C369.705 70.1335 378.789 61.0624 378.789 49.8669V20.3513C378.789 9.15577 369.705 0.0847015 358.494 0.0847015V0.0649414Z" fill="#F2F7FF" stroke="#629EFF" stroke-width="0.75" stroke-miterlimit="10"/>
</g>
<path id="Vector_2" d="M209.909 -4.46667H-12.1384C-26.3472 -4.46667 -37.8657 7.03579 -37.8657 21.2248V53.8826C-37.8657 68.0716 -26.3472 79.5741 -12.1384 79.5741H209.909C224.117 79.5741 235.636 68.0716 235.636 53.8826V21.2248C235.636 7.03579 224.117 -4.46667 209.909 -4.46667Z" fill="#B2CFFF" stroke="#629EFF" stroke-width="0.75" stroke-miterlimit="10"/>
<path id="Vector_3" d="M206.774 -23H-15.2726C-29.4815 -23 -41 -11.4975 -41 2.69147V35.3493C-41 49.5383 -29.4815 61.0408 -15.2726 61.0408H206.774C220.983 61.0408 232.502 49.5383 232.502 35.3493V2.69147C232.502 -11.4975 220.983 -23 206.774 -23Z" fill="white" stroke="#629EFF" stroke-width="0.75" stroke-miterlimit="10"/>
<g id="Group">
<path id="Vector_4" d="M20.3475 2.42042C20.1595 1.96588 19.724 1.67932 19.2392 1.67932H13.688C13.2032 1.67932 12.7678 1.97576 12.5798 2.42042L1.22014 29.9894C0.893597 30.7799 1.4774 31.6395 2.32839 31.6395H6.19739C6.69215 31.6395 7.13743 31.3332 7.31555 30.8787L9.80911 24.525C9.98722 24.0704 10.4325 23.7641 10.9273 23.7641H21.6734C22.1682 23.7641 22.6134 24.0704 22.7916 24.525L25.2455 30.8688C25.4236 31.3332 25.8689 31.6297 26.3637 31.6297H30.49C31.341 31.6297 31.9149 30.77 31.5982 29.9795L20.3573 2.41054H20.3475V2.42042ZM18.8533 18.7938H13.7771C12.936 18.7938 12.3522 17.9539 12.6589 17.1634L15.202 10.6219C15.5978 9.60415 17.0425 9.60415 17.4383 10.6219L19.9813 17.1634C20.2881 17.944 19.7043 18.7938 18.8632 18.7938H18.8533Z" fill="#629EFF" stroke="#629EFF" stroke-miterlimit="10"/>
<path id="Vector_5" d="M59.1759 1.66956H55.7423C55.0793 1.66956 54.545 2.20315 54.545 2.8652V17.5093C54.545 18.6457 53.1003 19.1398 52.3977 18.2406L39.9892 2.14386C39.7616 1.84742 39.4153 1.67944 39.0393 1.67944H34.913C34.2501 1.67944 33.7157 2.21303 33.7157 2.87508V30.444C33.7157 31.1061 34.2501 31.6397 34.913 31.6397H38.3961C39.0591 31.6397 39.5934 31.1061 39.5934 30.444V15.1477C39.5934 14.0015 41.048 13.5173 41.7407 14.4264L54.5351 31.1752C54.7627 31.4717 55.109 31.6495 55.485 31.6495H59.1858C59.8488 31.6495 60.3831 31.1159 60.3831 30.4539V2.88496C60.3831 2.22291 59.8488 1.68932 59.1858 1.68932V1.66956H59.1759Z" fill="#629EFF" stroke="#629EFF" stroke-miterlimit="10"/>
<path id="Vector_6" d="M87.5554 5.99758C86.1305 4.62408 84.4582 3.56677 82.5385 2.80591C80.6189 2.05493 78.5409 1.66956 76.2848 1.66956H65.9543C65.2913 1.66956 64.757 2.20315 64.757 2.8652V30.4341C64.757 31.0962 65.2913 31.6298 65.9543 31.6298H76.2848C78.5409 31.6298 80.6288 31.2543 82.5385 30.4934C84.4483 29.7424 86.1305 28.6851 87.5752 27.3215C89.0199 25.9678 90.138 24.3867 90.9395 22.5883C91.741 20.7899 92.1368 18.8236 92.1368 16.6793C92.1368 14.5351 91.7311 12.5983 90.9197 10.7703C90.1083 8.94222 88.9803 7.34144 87.5554 5.97782V5.99758ZM85.0024 20.4243C84.5275 21.5706 83.8546 22.5686 82.9838 23.4184C82.113 24.2781 81.0939 24.9401 79.9361 25.4045C78.7784 25.8788 77.5316 26.1061 76.1859 26.1061H72.1486C71.4857 26.1061 70.9513 25.5725 70.9513 24.9105V8.37898C70.9513 7.71694 71.4857 7.18334 72.1486 7.18334H76.1859C77.5316 7.18334 78.7784 7.43038 79.9361 7.91456C81.0939 8.39875 82.1032 9.07068 82.9541 9.93035C83.8051 10.79 84.478 11.788 84.9727 12.9442C85.4576 14.1003 85.705 15.3453 85.705 16.6892C85.705 18.0331 85.4675 19.2682 85.0024 20.4145V20.4243Z" fill="#629EFF" stroke="#629EFF" stroke-miterlimit="10"/>
<path id="Vector_7" d="M115.064 20.3748C114.747 19.7819 114.985 19.0606 115.578 18.7444C116.845 18.0626 117.884 17.1535 118.715 16.0073C119.774 14.5547 120.298 12.865 120.298 10.9579C120.298 9.0508 119.863 7.51919 118.992 6.12592C118.121 4.73265 116.904 3.63582 115.351 2.8552C113.797 2.07457 111.996 1.67932 109.968 1.67932H96.5005C95.8376 1.67932 95.3032 2.21291 95.3032 2.87496V30.4439C95.3032 31.1059 95.8376 31.6395 96.5005 31.6395H100.32C100.983 31.6395 101.517 31.1059 101.517 30.4439V21.3629C101.517 20.7009 102.052 20.1673 102.715 20.1673H107.553C107.999 20.1673 108.414 20.4143 108.622 20.8195L113.827 30.9874C114.035 31.3826 114.44 31.6395 114.896 31.6395H119.111C120.011 31.6395 120.595 30.6712 120.17 29.8807L115.064 20.3847V20.3748ZM112.778 13.9618C111.937 14.7029 110.809 15.0784 109.414 15.0784H102.725C102.062 15.0784 101.527 14.5448 101.527 13.8828V8.23065C101.527 7.5686 102.062 7.035 102.725 7.035H109.414C110.809 7.035 111.937 7.4105 112.778 8.1516C113.619 8.8927 114.045 9.86107 114.045 11.0666C114.045 12.2721 113.619 13.2306 112.778 13.9816V13.9618Z" fill="#629EFF" stroke="#629EFF" stroke-miterlimit="10"/>
<path id="Vector_8" d="M149.34 5.67144C147.896 4.25841 146.214 3.16158 144.284 2.37107C142.355 1.59045 140.277 1.19519 138.05 1.19519C135.824 1.19519 133.746 1.59045 131.836 2.37107C129.916 3.1517 128.244 4.25841 126.799 5.67144C125.355 7.08447 124.227 8.72477 123.415 10.5923C122.604 12.4599 122.198 14.4856 122.198 16.6496C122.198 18.8136 122.604 20.8393 123.415 22.7069C124.227 24.5744 125.355 26.2147 126.799 27.6278C128.244 29.0408 129.916 30.1376 131.836 30.9281C133.746 31.7088 135.824 32.104 138.05 32.104C140.277 32.104 142.355 31.7088 144.284 30.9281C146.214 30.1475 147.896 29.0408 149.34 27.6278C150.785 26.2147 151.903 24.5744 152.705 22.7069C153.506 20.8393 153.902 18.8235 153.902 16.6496C153.902 14.4757 153.506 12.4599 152.705 10.5923C151.903 8.72477 150.785 7.08447 149.34 5.67144ZM146.837 20.5033C146.352 21.699 145.679 22.7365 144.818 23.6061C143.958 24.4756 142.958 25.1574 141.82 25.6614C140.672 26.1653 139.416 26.4124 138.05 26.4124C136.685 26.4124 135.468 26.1653 134.32 25.6614C133.172 25.1673 132.172 24.4756 131.321 23.6061C130.461 22.7365 129.788 21.699 129.303 20.5033C128.818 19.3077 128.571 18.0033 128.571 16.6101C128.571 15.2168 128.818 13.9619 129.303 12.7761C129.788 11.5904 130.461 10.5627 131.321 9.69314C132.182 8.82359 133.182 8.14177 134.32 7.63782C135.458 7.14376 136.704 6.88684 138.05 6.88684C139.396 6.88684 140.682 7.13387 141.82 7.63782C142.958 8.14177 143.967 8.82359 144.818 9.69314C145.679 10.5627 146.342 11.5904 146.837 12.7761C147.322 13.9619 147.569 15.2563 147.569 16.6496C147.569 18.0429 147.322 19.3077 146.837 20.5033Z" fill="#629EFF" stroke="#629EFF" stroke-miterlimit="10"/>
<path id="Vector_9" d="M162.135 1.66956H158.315C157.654 1.66956 157.118 2.20487 157.118 2.8652V30.4341C157.118 31.0945 157.654 31.6298 158.315 31.6298H162.135C162.796 31.6298 163.332 31.0945 163.332 30.4341V2.8652C163.332 2.20487 162.796 1.66956 162.135 1.66956Z" fill="#629EFF" stroke="#629EFF" stroke-miterlimit="10"/>
<path id="Vector_10" d="M193.057 24.189C193.364 23.6752 193.651 23.1515 193.898 22.608C194.7 20.8096 195.096 18.8432 195.096 16.699C195.096 14.5547 194.69 12.618 193.879 10.7899C193.621 10.2168 193.324 9.67335 193.008 9.14964L196.808 5.35521C197.659 4.50542 197.659 3.12203 196.808 2.27223C195.957 1.42244 194.571 1.42244 193.72 2.27223L190.237 5.75046C188.872 4.50542 187.298 3.5074 185.497 2.80583C183.588 2.05485 181.5 1.66947 179.244 1.66947H168.913C168.25 1.66947 167.716 2.20307 167.716 2.86512V30.434C167.716 31.0961 168.25 31.6297 168.913 31.6297H179.244C181.5 31.6297 183.588 31.2542 185.497 30.4933C187.298 29.7819 188.882 28.7937 190.267 27.5586L193.73 31.017C194.581 31.8668 195.966 31.8668 196.817 31.017C197.668 30.1673 197.668 28.7839 196.817 27.9341L193.067 24.189H193.057ZM182.905 25.4044C181.747 25.8788 180.5 26.106 179.155 26.106H175.117C174.454 26.106 173.92 25.5724 173.92 24.9104V8.3789C173.92 7.71685 174.454 7.18326 175.117 7.18326H179.155C180.5 7.18326 181.747 7.43029 182.905 7.91448C184.063 8.39866 185.072 9.07059 185.923 9.93027C186.784 10.7899 187.447 11.788 187.941 12.9441C188.426 14.1002 188.674 15.3452 188.674 16.6891C188.674 18.033 188.436 19.2681 187.971 20.4144C187.496 21.5606 186.823 22.5586 185.953 23.4084C185.082 24.2681 184.063 24.9301 182.905 25.3946V25.4044Z" fill="#629EFF" stroke="#629EFF" stroke-miterlimit="10"/>
<g id="Group 70">
<g id="Vector_11">
<mask id="path-14-outside-1_0_1" maskUnits="userSpaceOnUse" x="0.128174" y="3.48413" width="33" height="32" fill="black">
<rect fill="white" x="0.128174" y="3.48413" width="33" height="32"/>
<path d="M20.3475 5.22523C20.1595 4.77069 19.724 4.48413 19.2392 4.48413H13.688C13.2032 4.48413 12.7678 4.78057 12.5798 5.22523L1.22014 32.7942C0.893597 33.5847 1.4774 34.4443 2.32839 34.4443H6.19739C6.69215 34.4443 7.13743 34.138 7.31555 33.6835L9.80911 27.3298C9.98722 26.8752 10.4325 26.5689 10.9273 26.5689H21.6734C22.1682 26.5689 22.6134 26.8752 22.7916 27.3298L25.2455 33.6736C25.4236 34.138 25.8689 34.4345 26.3637 34.4345H30.49C31.341 34.4345 31.9149 33.5748 31.5982 32.7843L20.3573 5.21535H20.3475V5.22523ZM18.8533 21.5986H13.7771C12.936 21.5986 12.3522 20.7587 12.6589 19.9682L15.202 13.4267C15.5978 12.409 17.0425 12.409 17.4383 13.4267L19.9813 19.9682C20.2881 20.7488 19.7043 21.5986 18.8632 21.5986H18.8533Z"/>
</mask>
<path d="M20.3475 5.22523C20.1595 4.77069 19.724 4.48413 19.2392 4.48413H13.688C13.2032 4.48413 12.7678 4.78057 12.5798 5.22523L1.22014 32.7942C0.893597 33.5847 1.4774 34.4443 2.32839 34.4443H6.19739C6.69215 34.4443 7.13743 34.138 7.31555 33.6835L9.80911 27.3298C9.98722 26.8752 10.4325 26.5689 10.9273 26.5689H21.6734C22.1682 26.5689 22.6134 26.8752 22.7916 27.3298L25.2455 33.6736C25.4236 34.138 25.8689 34.4345 26.3637 34.4345H30.49C31.341 34.4345 31.9149 33.5748 31.5982 32.7843L20.3573 5.21535H20.3475V5.22523ZM18.8533 21.5986H13.7771C12.936 21.5986 12.3522 20.7587 12.6589 19.9682L15.202 13.4267C15.5978 12.409 17.0425 12.409 17.4383 13.4267L19.9813 19.9682C20.2881 20.7488 19.7043 21.5986 18.8632 21.5986H18.8533Z" fill="#C0D8FF"/>
<path d="M20.3475 5.22523C20.1595 4.77069 19.724 4.48413 19.2392 4.48413H13.688C13.2032 4.48413 12.7678 4.78057 12.5798 5.22523L1.22014 32.7942C0.893597 33.5847 1.4774 34.4443 2.32839 34.4443H6.19739C6.69215 34.4443 7.13743 34.138 7.31555 33.6835L9.80911 27.3298C9.98722 26.8752 10.4325 26.5689 10.9273 26.5689H21.6734C22.1682 26.5689 22.6134 26.8752 22.7916 27.3298L25.2455 33.6736C25.4236 34.138 25.8689 34.4345 26.3637 34.4345H30.49C31.341 34.4345 31.9149 33.5748 31.5982 32.7843L20.3573 5.21535H20.3475V5.22523ZM18.8533 21.5986H13.7771C12.936 21.5986 12.3522 20.7587 12.6589 19.9682L15.202 13.4267C15.5978 12.409 17.0425 12.409 17.4383 13.4267L19.9813 19.9682C20.2881 20.7488 19.7043 21.5986 18.8632 21.5986H18.8533Z" stroke="#629EFF" stroke-miterlimit="10" mask="url(#path-14-outside-1_0_1)"/>
</g>
<g id="Vector_12">
<mask id="path-15-outside-2_0_1" maskUnits="userSpaceOnUse" x="32.7157" y="3.47424" width="29" height="32" fill="black">
<rect fill="white" x="32.7157" y="3.47424" width="29" height="32"/>
<path d="M59.1759 4.47424H55.7423C55.0793 4.47424 54.545 5.00783 54.545 5.66988V20.314C54.545 21.4504 53.1003 21.9444 52.3977 21.0452L39.9892 4.94855C39.7616 4.65211 39.4153 4.48412 39.0393 4.48412H34.913C34.2501 4.48412 33.7157 5.01772 33.7157 5.67977V33.2487C33.7157 33.9107 34.2501 34.4443 34.913 34.4443H38.3961C39.0591 34.4443 39.5934 33.9107 39.5934 33.2487V17.9524C39.5934 16.8062 41.048 16.322 41.7407 17.231L54.5351 33.9799C54.7627 34.2764 55.109 34.4542 55.485 34.4542H59.1858C59.8488 34.4542 60.3831 33.9206 60.3831 33.2586V5.68965C60.3831 5.0276 59.8488 4.49401 59.1858 4.49401V4.47424H59.1759Z"/>
</mask>
<path d="M59.1759 4.47424H55.7423C55.0793 4.47424 54.545 5.00783 54.545 5.66988V20.314C54.545 21.4504 53.1003 21.9444 52.3977 21.0452L39.9892 4.94855C39.7616 4.65211 39.4153 4.48412 39.0393 4.48412H34.913C34.2501 4.48412 33.7157 5.01772 33.7157 5.67977V33.2487C33.7157 33.9107 34.2501 34.4443 34.913 34.4443H38.3961C39.0591 34.4443 39.5934 33.9107 39.5934 33.2487V17.9524C39.5934 16.8062 41.048 16.322 41.7407 17.231L54.5351 33.9799C54.7627 34.2764 55.109 34.4542 55.485 34.4542H59.1858C59.8488 34.4542 60.3831 33.9206 60.3831 33.2586V5.68965C60.3831 5.0276 59.8488 4.49401 59.1858 4.49401V4.47424H59.1759Z" fill="#C0D8FF"/>
<path d="M59.1759 4.47424H55.7423C55.0793 4.47424 54.545 5.00783 54.545 5.66988V20.314C54.545 21.4504 53.1003 21.9444 52.3977 21.0452L39.9892 4.94855C39.7616 4.65211 39.4153 4.48412 39.0393 4.48412H34.913C34.2501 4.48412 33.7157 5.01772 33.7157 5.67977V33.2487C33.7157 33.9107 34.2501 34.4443 34.913 34.4443H38.3961C39.0591 34.4443 39.5934 33.9107 39.5934 33.2487V17.9524C39.5934 16.8062 41.048 16.322 41.7407 17.231L54.5351 33.9799C54.7627 34.2764 55.109 34.4542 55.485 34.4542H59.1858C59.8488 34.4542 60.3831 33.9206 60.3831 33.2586V5.68965C60.3831 5.0276 59.8488 4.49401 59.1858 4.49401V4.47424H59.1759Z" stroke="#629EFF" stroke-miterlimit="10" mask="url(#path-15-outside-2_0_1)"/>
</g>
<g id="Vector_13">
<mask id="path-16-outside-3_0_1" maskUnits="userSpaceOnUse" x="63.757" y="3.47424" width="29" height="32" fill="black">
<rect fill="white" x="63.757" y="3.47424" width="29" height="32"/>
<path d="M87.5554 8.80227C86.1305 7.42876 84.4582 6.37146 82.5385 5.6106C80.6189 4.85962 78.5409 4.47424 76.2848 4.47424H65.9543C65.2913 4.47424 64.757 5.00783 64.757 5.66988V33.2388C64.757 33.9009 65.2913 34.4345 65.9543 34.4345H76.2848C78.5409 34.4345 80.6288 34.059 82.5385 33.2981C84.4483 32.5471 86.1305 31.4898 87.5752 30.1262C89.0199 28.7725 90.138 27.1914 90.9395 25.393C91.741 23.5946 92.1368 21.6282 92.1368 19.484C92.1368 17.3397 91.7311 15.403 90.9197 13.575C90.1083 11.7469 88.9803 10.1461 87.5554 8.78251V8.80227ZM85.0024 23.229C84.5275 24.3753 83.8546 25.3733 82.9838 26.2231C82.113 27.0827 81.0939 27.7448 79.9361 28.2092C78.7784 28.6835 77.5316 28.9108 76.1859 28.9108H72.1486C71.4857 28.9108 70.9513 28.3772 70.9513 27.7151V11.1837C70.9513 10.5216 71.4857 9.98803 72.1486 9.98803H76.1859C77.5316 9.98803 78.7784 10.2351 79.9361 10.7192C81.0939 11.2034 82.1032 11.8754 82.9541 12.735C83.8051 13.5947 84.478 14.5927 84.9727 15.7488C85.4576 16.905 85.705 18.15 85.705 19.4939C85.705 20.8377 85.4675 22.0729 85.0024 23.2191V23.229Z"/>
</mask>
<path d="M87.5554 8.80227C86.1305 7.42876 84.4582 6.37146 82.5385 5.6106C80.6189 4.85962 78.5409 4.47424 76.2848 4.47424H65.9543C65.2913 4.47424 64.757 5.00783 64.757 5.66988V33.2388C64.757 33.9009 65.2913 34.4345 65.9543 34.4345H76.2848C78.5409 34.4345 80.6288 34.059 82.5385 33.2981C84.4483 32.5471 86.1305 31.4898 87.5752 30.1262C89.0199 28.7725 90.138 27.1914 90.9395 25.393C91.741 23.5946 92.1368 21.6282 92.1368 19.484C92.1368 17.3397 91.7311 15.403 90.9197 13.575C90.1083 11.7469 88.9803 10.1461 87.5554 8.78251V8.80227ZM85.0024 23.229C84.5275 24.3753 83.8546 25.3733 82.9838 26.2231C82.113 27.0827 81.0939 27.7448 79.9361 28.2092C78.7784 28.6835 77.5316 28.9108 76.1859 28.9108H72.1486C71.4857 28.9108 70.9513 28.3772 70.9513 27.7151V11.1837C70.9513 10.5216 71.4857 9.98803 72.1486 9.98803H76.1859C77.5316 9.98803 78.7784 10.2351 79.9361 10.7192C81.0939 11.2034 82.1032 11.8754 82.9541 12.735C83.8051 13.5947 84.478 14.5927 84.9727 15.7488C85.4576 16.905 85.705 18.15 85.705 19.4939C85.705 20.8377 85.4675 22.0729 85.0024 23.2191V23.229Z" fill="#C0D8FF"/>
<path d="M87.5554 8.80227C86.1305 7.42876 84.4582 6.37146 82.5385 5.6106C80.6189 4.85962 78.5409 4.47424 76.2848 4.47424H65.9543C65.2913 4.47424 64.757 5.00783 64.757 5.66988V33.2388C64.757 33.9009 65.2913 34.4345 65.9543 34.4345H76.2848C78.5409 34.4345 80.6288 34.059 82.5385 33.2981C84.4483 32.5471 86.1305 31.4898 87.5752 30.1262C89.0199 28.7725 90.138 27.1914 90.9395 25.393C91.741 23.5946 92.1368 21.6282 92.1368 19.484C92.1368 17.3397 91.7311 15.403 90.9197 13.575C90.1083 11.7469 88.9803 10.1461 87.5554 8.78251V8.80227ZM85.0024 23.229C84.5275 24.3753 83.8546 25.3733 82.9838 26.2231C82.113 27.0827 81.0939 27.7448 79.9361 28.2092C78.7784 28.6835 77.5316 28.9108 76.1859 28.9108H72.1486C71.4857 28.9108 70.9513 28.3772 70.9513 27.7151V11.1837C70.9513 10.5216 71.4857 9.98803 72.1486 9.98803H76.1859C77.5316 9.98803 78.7784 10.2351 79.9361 10.7192C81.0939 11.2034 82.1032 11.8754 82.9541 12.735C83.8051 13.5947 84.478 14.5927 84.9727 15.7488C85.4576 16.905 85.705 18.15 85.705 19.4939C85.705 20.8377 85.4675 22.0729 85.0024 23.2191V23.229Z" stroke="#629EFF" stroke-miterlimit="10" mask="url(#path-16-outside-3_0_1)"/>
</g>
<g id="Vector_14">
<mask id="path-17-outside-4_0_1" maskUnits="userSpaceOnUse" x="94.3032" y="3.48413" width="27" height="32" fill="black">
<rect fill="white" x="94.3032" y="3.48413" width="27" height="32"/>
<path d="M115.064 23.1796C114.747 22.5867 114.985 21.8654 115.578 21.5492C116.845 20.8674 117.884 19.9583 118.715 18.8121C119.774 17.3595 120.298 15.6698 120.298 13.7627C120.298 11.8556 119.863 10.324 118.992 8.93073C118.121 7.53746 116.904 6.44064 115.351 5.66001C113.797 4.87939 111.996 4.48413 109.968 4.48413H96.5005C95.8376 4.48413 95.3032 5.01773 95.3032 5.67978V33.2487C95.3032 33.9108 95.8376 34.4443 96.5005 34.4443H100.32C100.983 34.4443 101.517 33.9108 101.517 33.2487V24.1678C101.517 23.5057 102.052 22.9721 102.715 22.9721H107.553C107.999 22.9721 108.414 23.2191 108.622 23.6243L113.827 33.7922C114.035 34.1874 114.44 34.4443 114.896 34.4443H119.111C120.011 34.4443 120.595 33.476 120.17 32.6855L115.064 23.1895V23.1796ZM112.778 16.7666C111.937 17.5077 110.809 17.8832 109.414 17.8832H102.725C102.062 17.8832 101.527 17.3496 101.527 16.6876V11.0355C101.527 10.3734 102.062 9.83982 102.725 9.83982H109.414C110.809 9.83982 111.937 10.2153 112.778 10.9564C113.619 11.6975 114.045 12.6659 114.045 13.8714C114.045 15.0769 113.619 16.0354 112.778 16.7864V16.7666Z"/>
</mask>
<path d="M115.064 23.1796C114.747 22.5867 114.985 21.8654 115.578 21.5492C116.845 20.8674 117.884 19.9583 118.715 18.8121C119.774 17.3595 120.298 15.6698 120.298 13.7627C120.298 11.8556 119.863 10.324 118.992 8.93073C118.121 7.53746 116.904 6.44064 115.351 5.66001C113.797 4.87939 111.996 4.48413 109.968 4.48413H96.5005C95.8376 4.48413 95.3032 5.01773 95.3032 5.67978V33.2487C95.3032 33.9108 95.8376 34.4443 96.5005 34.4443H100.32C100.983 34.4443 101.517 33.9108 101.517 33.2487V24.1678C101.517 23.5057 102.052 22.9721 102.715 22.9721H107.553C107.999 22.9721 108.414 23.2191 108.622 23.6243L113.827 33.7922C114.035 34.1874 114.44 34.4443 114.896 34.4443H119.111C120.011 34.4443 120.595 33.476 120.17 32.6855L115.064 23.1895V23.1796ZM112.778 16.7666C111.937 17.5077 110.809 17.8832 109.414 17.8832H102.725C102.062 17.8832 101.527 17.3496 101.527 16.6876V11.0355C101.527 10.3734 102.062 9.83982 102.725 9.83982H109.414C110.809 9.83982 111.937 10.2153 112.778 10.9564C113.619 11.6975 114.045 12.6659 114.045 13.8714C114.045 15.0769 113.619 16.0354 112.778 16.7864V16.7666Z" fill="#C0D8FF"/>
<path d="M115.064 23.1796C114.747 22.5867 114.985 21.8654 115.578 21.5492C116.845 20.8674 117.884 19.9583 118.715 18.8121C119.774 17.3595 120.298 15.6698 120.298 13.7627C120.298 11.8556 119.863 10.324 118.992 8.93073C118.121 7.53746 116.904 6.44064 115.351 5.66001C113.797 4.87939 111.996 4.48413 109.968 4.48413H96.5005C95.8376 4.48413 95.3032 5.01773 95.3032 5.67978V33.2487C95.3032 33.9108 95.8376 34.4443 96.5005 34.4443H100.32C100.983 34.4443 101.517 33.9108 101.517 33.2487V24.1678C101.517 23.5057 102.052 22.9721 102.715 22.9721H107.553C107.999 22.9721 108.414 23.2191 108.622 23.6243L113.827 33.7922C114.035 34.1874 114.44 34.4443 114.896 34.4443H119.111C120.011 34.4443 120.595 33.476 120.17 32.6855L115.064 23.1895V23.1796ZM112.778 16.7666C111.937 17.5077 110.809 17.8832 109.414 17.8832H102.725C102.062 17.8832 101.527 17.3496 101.527 16.6876V11.0355C101.527 10.3734 102.062 9.83982 102.725 9.83982H109.414C110.809 9.83982 111.937 10.2153 112.778 10.9564C113.619 11.6975 114.045 12.6659 114.045 13.8714C114.045 15.0769 113.619 16.0354 112.778 16.7864V16.7666Z" stroke="#629EFF" stroke-miterlimit="10" mask="url(#path-17-outside-4_0_1)"/>
</g>
<g id="Vector_15">
<mask id="path-18-outside-5_0_1" maskUnits="userSpaceOnUse" x="121.198" y="3" width="34" height="33" fill="black">
<rect fill="white" x="121.198" y="3" width="34" height="33"/>
<path d="M149.34 8.47624C147.896 7.06321 146.214 5.96638 144.284 5.17588C142.355 4.39525 140.277 4 138.05 4C135.824 4 133.746 4.39525 131.836 5.17588C129.916 5.9565 128.244 7.06321 126.799 8.47624C125.355 9.88928 124.227 11.5296 123.415 13.3972C122.604 15.2647 122.198 17.2904 122.198 19.4544C122.198 21.6184 122.604 23.6441 123.415 25.5117C124.227 27.3792 125.355 29.0195 126.799 30.4326C128.244 31.8456 129.916 32.9424 131.836 33.7329C133.746 34.5136 135.824 34.9088 138.05 34.9088C140.277 34.9088 142.355 34.5136 144.284 33.7329C146.214 32.9523 147.896 31.8456 149.34 30.4326C150.785 29.0195 151.903 27.3792 152.705 25.5117C153.506 23.6441 153.902 21.6283 153.902 19.4544C153.902 17.2805 153.506 15.2647 152.705 13.3972C151.903 11.5296 150.785 9.88928 149.34 8.47624ZM146.837 23.3081C146.352 24.5038 145.679 25.5413 144.818 26.4109C143.958 27.2804 142.958 27.9622 141.82 28.4662C140.672 28.9701 139.416 29.2172 138.05 29.2172C136.685 29.2172 135.468 28.9701 134.32 28.4662C133.172 27.9721 132.172 27.2804 131.321 26.4109C130.461 25.5413 129.788 24.5038 129.303 23.3081C128.818 22.1125 128.571 20.8082 128.571 19.4149C128.571 18.0216 128.818 16.7667 129.303 15.5809C129.788 14.3952 130.461 13.3675 131.321 12.4979C132.182 11.6284 133.182 10.9466 134.32 10.4426C135.458 9.94857 136.704 9.69165 138.05 9.69165C139.396 9.69165 140.682 9.93868 141.82 10.4426C142.958 10.9466 143.967 11.6284 144.818 12.4979C145.679 13.3675 146.342 14.3952 146.837 15.5809C147.322 16.7667 147.569 18.0611 147.569 19.4544C147.569 20.8477 147.322 22.1125 146.837 23.3081Z"/>
</mask>
<path d="M149.34 8.47624C147.896 7.06321 146.214 5.96638 144.284 5.17588C142.355 4.39525 140.277 4 138.05 4C135.824 4 133.746 4.39525 131.836 5.17588C129.916 5.9565 128.244 7.06321 126.799 8.47624C125.355 9.88928 124.227 11.5296 123.415 13.3972C122.604 15.2647 122.198 17.2904 122.198 19.4544C122.198 21.6184 122.604 23.6441 123.415 25.5117C124.227 27.3792 125.355 29.0195 126.799 30.4326C128.244 31.8456 129.916 32.9424 131.836 33.7329C133.746 34.5136 135.824 34.9088 138.05 34.9088C140.277 34.9088 142.355 34.5136 144.284 33.7329C146.214 32.9523 147.896 31.8456 149.34 30.4326C150.785 29.0195 151.903 27.3792 152.705 25.5117C153.506 23.6441 153.902 21.6283 153.902 19.4544C153.902 17.2805 153.506 15.2647 152.705 13.3972C151.903 11.5296 150.785 9.88928 149.34 8.47624ZM146.837 23.3081C146.352 24.5038 145.679 25.5413 144.818 26.4109C143.958 27.2804 142.958 27.9622 141.82 28.4662C140.672 28.9701 139.416 29.2172 138.05 29.2172C136.685 29.2172 135.468 28.9701 134.32 28.4662C133.172 27.9721 132.172 27.2804 131.321 26.4109C130.461 25.5413 129.788 24.5038 129.303 23.3081C128.818 22.1125 128.571 20.8082 128.571 19.4149C128.571 18.0216 128.818 16.7667 129.303 15.5809C129.788 14.3952 130.461 13.3675 131.321 12.4979C132.182 11.6284 133.182 10.9466 134.32 10.4426C135.458 9.94857 136.704 9.69165 138.05 9.69165C139.396 9.69165 140.682 9.93868 141.82 10.4426C142.958 10.9466 143.967 11.6284 144.818 12.4979C145.679 13.3675 146.342 14.3952 146.837 15.5809C147.322 16.7667 147.569 18.0611 147.569 19.4544C147.569 20.8477 147.322 22.1125 146.837 23.3081Z" fill="#C0D8FF"/>
<path d="M149.34 8.47624C147.896 7.06321 146.214 5.96638 144.284 5.17588C142.355 4.39525 140.277 4 138.05 4C135.824 4 133.746 4.39525 131.836 5.17588C129.916 5.9565 128.244 7.06321 126.799 8.47624C125.355 9.88928 124.227 11.5296 123.415 13.3972C122.604 15.2647 122.198 17.2904 122.198 19.4544C122.198 21.6184 122.604 23.6441 123.415 25.5117C124.227 27.3792 125.355 29.0195 126.799 30.4326C128.244 31.8456 129.916 32.9424 131.836 33.7329C133.746 34.5136 135.824 34.9088 138.05 34.9088C140.277 34.9088 142.355 34.5136 144.284 33.7329C146.214 32.9523 147.896 31.8456 149.34 30.4326C150.785 29.0195 151.903 27.3792 152.705 25.5117C153.506 23.6441 153.902 21.6283 153.902 19.4544C153.902 17.2805 153.506 15.2647 152.705 13.3972C151.903 11.5296 150.785 9.88928 149.34 8.47624ZM146.837 23.3081C146.352 24.5038 145.679 25.5413 144.818 26.4109C143.958 27.2804 142.958 27.9622 141.82 28.4662C140.672 28.9701 139.416 29.2172 138.05 29.2172C136.685 29.2172 135.468 28.9701 134.32 28.4662C133.172 27.9721 132.172 27.2804 131.321 26.4109C130.461 25.5413 129.788 24.5038 129.303 23.3081C128.818 22.1125 128.571 20.8082 128.571 19.4149C128.571 18.0216 128.818 16.7667 129.303 15.5809C129.788 14.3952 130.461 13.3675 131.321 12.4979C132.182 11.6284 133.182 10.9466 134.32 10.4426C135.458 9.94857 136.704 9.69165 138.05 9.69165C139.396 9.69165 140.682 9.93868 141.82 10.4426C142.958 10.9466 143.967 11.6284 144.818 12.4979C145.679 13.3675 146.342 14.3952 146.837 15.5809C147.322 16.7667 147.569 18.0611 147.569 19.4544C147.569 20.8477 147.322 22.1125 146.837 23.3081Z" stroke="#629EFF" stroke-miterlimit="10" mask="url(#path-18-outside-5_0_1)"/>
</g>
<g id="Vector_16">
<mask id="path-19-outside-6_0_1" maskUnits="userSpaceOnUse" x="156.118" y="3.47424" width="8" height="32" fill="black">
<rect fill="white" x="156.118" y="3.47424" width="8" height="32"/>
<path d="M162.135 4.47424H158.315C157.654 4.47424 157.118 5.00955 157.118 5.66988V33.2388C157.118 33.8992 157.654 34.4345 158.315 34.4345H162.135C162.796 34.4345 163.332 33.8992 163.332 33.2388V5.66988C163.332 5.00955 162.796 4.47424 162.135 4.47424Z"/>
</mask>
<path d="M162.135 4.47424H158.315C157.654 4.47424 157.118 5.00955 157.118 5.66988V33.2388C157.118 33.8992 157.654 34.4345 158.315 34.4345H162.135C162.796 34.4345 163.332 33.8992 163.332 33.2388V5.66988C163.332 5.00955 162.796 4.47424 162.135 4.47424Z" fill="#C0D8FF"/>
<path d="M162.135 4.47424H158.315C157.654 4.47424 157.118 5.00955 157.118 5.66988V33.2388C157.118 33.8992 157.654 34.4345 158.315 34.4345H162.135C162.796 34.4345 163.332 33.8992 163.332 33.2388V5.66988C163.332 5.00955 162.796 4.47424 162.135 4.47424Z" stroke="#629EFF" stroke-miterlimit="10" mask="url(#path-19-outside-6_0_1)"/>
</g>
<g id="Vector_17">
<mask id="path-20-outside-7_0_1" maskUnits="userSpaceOnUse" x="166.716" y="3.4397" width="32" height="32" fill="black">
<rect fill="white" x="166.716" y="3.4397" width="32" height="32"/>
<path d="M193.057 26.9938C193.364 26.48 193.651 25.9563 193.898 25.4128C194.7 23.6144 195.096 21.648 195.096 19.5038C195.096 17.3595 194.69 15.4228 193.879 13.5948C193.621 13.0216 193.324 12.4782 193.008 11.9545L196.808 8.16002C197.659 7.31022 197.659 5.92684 196.808 5.07704C195.957 4.22725 194.571 4.22725 193.72 5.07704L190.237 8.55527C188.872 7.31023 187.298 6.31221 185.497 5.61064C183.588 4.85965 181.5 4.47428 179.244 4.47428H168.913C168.25 4.47428 167.716 5.00787 167.716 5.66992V33.2389C167.716 33.9009 168.25 34.4345 168.913 34.4345H179.244C181.5 34.4345 183.588 34.059 185.497 33.2981C187.298 32.5867 188.882 31.5985 190.267 30.3634L193.73 33.8218C194.581 34.6716 195.966 34.6716 196.817 33.8218C197.668 32.9721 197.668 31.5887 196.817 30.7389L193.067 26.9938H193.057ZM182.905 28.2092C181.747 28.6836 180.5 28.9108 179.155 28.9108H175.117C174.454 28.9108 173.92 28.3772 173.92 27.7152V11.1837C173.92 10.5217 174.454 9.98807 175.117 9.98807H179.155C180.5 9.98807 181.747 10.2351 182.905 10.7193C184.063 11.2035 185.072 11.8754 185.923 12.7351C186.784 13.5948 187.447 14.5928 187.941 15.7489C188.426 16.905 188.674 18.1501 188.674 19.4939C188.674 20.8378 188.436 22.0729 187.971 23.2192C187.496 24.3654 186.823 25.3634 185.953 26.2132C185.082 27.0729 184.063 27.735 182.905 28.1994V28.2092Z"/>
</mask>
<path d="M193.057 26.9938C193.364 26.48 193.651 25.9563 193.898 25.4128C194.7 23.6144 195.096 21.648 195.096 19.5038C195.096 17.3595 194.69 15.4228 193.879 13.5948C193.621 13.0216 193.324 12.4782 193.008 11.9545L196.808 8.16002C197.659 7.31022 197.659 5.92684 196.808 5.07704C195.957 4.22725 194.571 4.22725 193.72 5.07704L190.237 8.55527C188.872 7.31023 187.298 6.31221 185.497 5.61064C183.588 4.85965 181.5 4.47428 179.244 4.47428H168.913C168.25 4.47428 167.716 5.00787 167.716 5.66992V33.2389C167.716 33.9009 168.25 34.4345 168.913 34.4345H179.244C181.5 34.4345 183.588 34.059 185.497 33.2981C187.298 32.5867 188.882 31.5985 190.267 30.3634L193.73 33.8218C194.581 34.6716 195.966 34.6716 196.817 33.8218C197.668 32.9721 197.668 31.5887 196.817 30.7389L193.067 26.9938H193.057ZM182.905 28.2092C181.747 28.6836 180.5 28.9108 179.155 28.9108H175.117C174.454 28.9108 173.92 28.3772 173.92 27.7152V11.1837C173.92 10.5217 174.454 9.98807 175.117 9.98807H179.155C180.5 9.98807 181.747 10.2351 182.905 10.7193C184.063 11.2035 185.072 11.8754 185.923 12.7351C186.784 13.5948 187.447 14.5928 187.941 15.7489C188.426 16.905 188.674 18.1501 188.674 19.4939C188.674 20.8378 188.436 22.0729 187.971 23.2192C187.496 24.3654 186.823 25.3634 185.953 26.2132C185.082 27.0729 184.063 27.735 182.905 28.1994V28.2092Z" fill="#C0D8FF"/>
<path d="M193.057 26.9938C193.364 26.48 193.651 25.9563 193.898 25.4128C194.7 23.6144 195.096 21.648 195.096 19.5038C195.096 17.3595 194.69 15.4228 193.879 13.5948C193.621 13.0216 193.324 12.4782 193.008 11.9545L196.808 8.16002C197.659 7.31022 197.659 5.92684 196.808 5.07704C195.957 4.22725 194.571 4.22725 193.72 5.07704L190.237 8.55527C188.872 7.31023 187.298 6.31221 185.497 5.61064C183.588 4.85965 181.5 4.47428 179.244 4.47428H168.913C168.25 4.47428 167.716 5.00787 167.716 5.66992V33.2389C167.716 33.9009 168.25 34.4345 168.913 34.4345H179.244C181.5 34.4345 183.588 34.059 185.497 33.2981C187.298 32.5867 188.882 31.5985 190.267 30.3634L193.73 33.8218C194.581 34.6716 195.966 34.6716 196.817 33.8218C197.668 32.9721 197.668 31.5887 196.817 30.7389L193.067 26.9938H193.057ZM182.905 28.2092C181.747 28.6836 180.5 28.9108 179.155 28.9108H175.117C174.454 28.9108 173.92 28.3772 173.92 27.7152V11.1837C173.92 10.5217 174.454 9.98807 175.117 9.98807H179.155C180.5 9.98807 181.747 10.2351 182.905 10.7193C184.063 11.2035 185.072 11.8754 185.923 12.7351C186.784 13.5948 187.447 14.5928 187.941 15.7489C188.426 16.905 188.674 18.1501 188.674 19.4939C188.674 20.8378 188.436 22.0729 187.971 23.2192C187.496 24.3654 186.823 25.3634 185.953 26.2132C185.082 27.0729 184.063 27.735 182.905 28.1994V28.2092Z" stroke="#629EFF" stroke-miterlimit="10" mask="url(#path-20-outside-7_0_1)"/>
</g>
</g>
</g>
</g>
</g>
</g>
</g>
</g>
</g>
<defs>
<filter id="filter0_d_0_1" x="-293.375" y="-47.375" width="1048.75" height="503.375" filterUnits="userSpaceOnUse" color-interpolation-filters="sRGB">
<feFlood flood-opacity="0" result="BackgroundImageFix"/>
<feColorMatrix in="SourceAlpha" type="matrix" values="0 0 0 0 0 0 0 0 0 0 0 0 0 0 0 0 0 0 127 0" result="hardAlpha"/>
<feOffset dy="15"/>
<feGaussianBlur stdDeviation="15"/>
<feComposite in2="hardAlpha" operator="out"/>
<feColorMatrix type="matrix" values="0 0 0 0 0.0156863 0 0 0 0 0.611765 0 0 0 0 0.745098 0 0 0 0.3 0"/>
<feBlend mode="normal" in2="BackgroundImageFix" result="effect1_dropShadow_0_1"/>
<feBlend mode="normal" in="SourceGraphic" in2="effect1_dropShadow_0_1" result="shape"/>
</filter>
<linearGradient id="paint0_linear_0_1" x1="-554.68" y1="-660.711" x2="1260.81" y2="-379.013" gradientUnits="userSpaceOnUse">
<stop stop-color="#81D2E3"/>
<stop offset="1" stop-color="#029CBE"/>
</linearGradient>
<linearGradient id="paint1_linear_0_1" x1="275.582" y1="-462.438" x2="275.582" y2="59.8736" gradientUnits="userSpaceOnUse">
<stop stop-color="white"/>
<stop offset="1" stop-color="white" stop-opacity="0"/>
</linearGradient>
</defs>
</svg>
