<svg width="198" height="36" viewBox="0 0 198 36" fill="none" xmlns="http://www.w3.org/2000/svg">
<path d="M20.2193 2.22529C20.0313 1.77075 19.5959 1.48419 19.111 1.48419H13.5598C13.075 1.48419 12.6396 1.78063 12.4516 2.22529L1.09196 29.7942C0.765423 30.5847 1.34923 31.4444 2.20021 31.4444H6.06922C6.56397 31.4444 7.00926 31.1381 7.18737 30.6835L9.68094 24.3298C9.85905 23.8753 10.3043 23.569 10.7991 23.569H21.5452C22.04 23.569 22.4853 23.8753 22.6634 24.3298L25.1174 30.6737C25.2955 31.1381 25.7408 31.4345 26.2355 31.4345H30.3618C31.2128 31.4345 31.7867 30.5748 31.4701 29.7843L20.2292 2.21541H20.2193V2.22529ZM18.7251 18.5987H13.6489C12.8078 18.5987 12.224 17.7588 12.5307 16.9682L15.0738 10.4268C15.4696 9.40902 16.9143 9.40902 17.3101 10.4268L19.8531 16.9682C20.1599 17.7489 19.5761 18.5987 18.735 18.5987H18.7251Z" fill="#629EFF" stroke="#629EFF" stroke-miterlimit="10"/>
<path d="M59.0476 1.47432H55.614C54.951 1.47432 54.4167 2.00791 54.4167 2.66996V17.3141C54.4167 18.4505 52.972 18.9445 52.2694 18.0453L39.8609 1.94863C39.6333 1.65219 39.287 1.4842 38.911 1.4842H34.7847C34.1218 1.4842 33.5874 2.01779 33.5874 2.67984V30.2488C33.5874 30.9108 34.1218 31.4444 34.7847 31.4444H38.2678C38.9308 31.4444 39.4651 30.9108 39.4651 30.2488V14.9525C39.4651 13.8062 40.9197 13.322 41.6124 14.2311L54.4068 30.98C54.6344 31.2764 54.9807 31.4543 55.3567 31.4543H59.0575C59.7205 31.4543 60.2548 30.9207 60.2548 30.2587V2.68973C60.2548 2.02768 59.7205 1.49408 59.0575 1.49408V1.47432H59.0476Z" fill="#629EFF" stroke="#629EFF" stroke-miterlimit="10"/>
<path d="M87.4273 5.80235C86.0024 4.42884 84.3301 3.37154 82.4105 2.61067C80.4908 1.85969 78.4129 1.47432 76.1568 1.47432H65.8262C65.1633 1.47432 64.6289 2.00791 64.6289 2.66996V30.2389C64.6289 30.9009 65.1633 31.4345 65.8262 31.4345H76.1568C78.4129 31.4345 80.5007 31.059 82.4105 30.2982C84.3202 29.5472 86.0024 28.4899 87.4471 27.1263C88.8918 25.7725 90.01 24.1915 90.8115 22.3931C91.613 20.5947 92.0088 18.6283 92.0088 16.4841C92.0088 14.3398 91.6031 12.4031 90.7917 10.575C89.9803 8.74699 88.8522 7.14621 87.4273 5.78258V5.80235ZM84.8744 20.2291C84.3994 21.3753 83.7265 22.3733 82.8558 23.2231C81.985 24.0828 80.9658 24.7449 79.8081 25.2093C78.6503 25.6836 77.4035 25.9109 76.0578 25.9109H72.0206C71.3576 25.9109 70.8233 25.3773 70.8233 24.7152V8.18375C70.8233 7.5217 71.3576 6.98811 72.0206 6.98811H76.0578C77.4035 6.98811 78.6503 7.23514 79.8081 7.71932C80.9658 8.20351 81.9751 8.87544 82.8261 9.73512C83.6771 10.5948 84.3499 11.5928 84.8447 12.7489C85.3296 13.905 85.5769 15.1501 85.5769 16.494C85.5769 17.8378 85.3395 19.073 84.8744 20.2192V20.2291Z" fill="#629EFF" stroke="#629EFF" stroke-miterlimit="10"/>
<path d="M114.936 20.1797C114.619 19.5868 114.856 18.8655 115.45 18.5493C116.717 17.8674 117.756 16.9584 118.587 15.8121C119.646 14.3596 120.17 12.6699 120.17 10.7628C120.17 8.85567 119.735 7.32406 118.864 5.93079C117.993 4.53753 116.776 3.4407 115.223 2.66007C113.669 1.87944 111.868 1.48419 109.84 1.48419H96.3724C95.7094 1.48419 95.175 2.01778 95.175 2.67983V30.2488C95.175 30.9108 95.7094 31.4444 96.3724 31.4444H100.192C100.855 31.4444 101.389 30.9108 101.389 30.2488V21.1678C101.389 20.5058 101.924 19.9722 102.586 19.9722H107.425C107.87 19.9722 108.286 20.2192 108.494 20.6243L113.699 30.7922C113.907 31.1875 114.312 31.4444 114.767 31.4444H118.983C119.883 31.4444 120.467 30.476 120.042 29.6855L114.936 20.1896V20.1797ZM112.65 13.7667C111.809 14.5078 110.681 14.8833 109.285 14.8833H102.596C101.933 14.8833 101.399 14.3497 101.399 13.6876V8.03552C101.399 7.37347 101.933 6.83987 102.596 6.83987H109.285C110.681 6.83987 111.809 7.21537 112.65 7.95647C113.491 8.69757 113.916 9.66594 113.916 10.8715C113.916 12.077 113.491 13.0355 112.65 13.7865V13.7667Z" fill="#629EFF" stroke="#629EFF" stroke-miterlimit="10"/>
<path d="M149.212 5.47625C147.767 4.06322 146.085 2.96639 144.156 2.17588C142.226 1.39526 140.148 1 137.922 1C135.695 1 133.617 1.39526 131.708 2.17588C129.788 2.95651 128.116 4.06322 126.671 5.47625C125.226 6.88928 124.098 8.52958 123.287 10.3972C122.476 12.2647 122.07 14.2904 122.07 16.4544C122.07 18.6184 122.476 20.6441 123.287 22.5117C124.098 24.3792 125.226 26.0195 126.671 27.4326C128.116 28.8456 129.788 29.9424 131.708 30.7329C133.617 31.5136 135.695 31.9088 137.922 31.9088C140.148 31.9088 142.226 31.5136 144.156 30.7329C146.085 29.9523 147.767 28.8456 149.212 27.4326C150.657 26.0195 151.775 24.3792 152.577 22.5117C153.378 20.6441 153.774 18.6283 153.774 16.4544C153.774 14.2805 153.378 12.2647 152.577 10.3972C151.775 8.52958 150.657 6.88928 149.212 5.47625ZM146.709 20.3081C146.224 21.5038 145.551 22.5413 144.69 23.4109C143.829 24.2804 142.83 24.9622 141.692 25.4662C140.544 25.9701 139.287 26.2172 137.922 26.2172C136.556 26.2172 135.339 25.9701 134.191 25.4662C133.044 24.9721 132.044 24.2804 131.193 23.4109C130.332 22.5413 129.659 21.5038 129.175 20.3081C128.69 19.1125 128.442 17.8082 128.442 16.4149C128.442 15.0216 128.69 13.7667 129.175 12.5809C129.659 11.3952 130.332 10.3675 131.193 9.49795C132.054 8.62839 133.053 7.94658 134.191 7.44263C135.329 6.94857 136.576 6.69165 137.922 6.69165C139.268 6.69165 140.554 6.93868 141.692 7.44263C142.83 7.94658 143.839 8.62839 144.69 9.49795C145.551 10.3675 146.214 11.3952 146.709 12.5809C147.194 13.7667 147.441 15.0611 147.441 16.4544C147.441 17.8477 147.194 19.1125 146.709 20.3081Z" fill="#629EFF" stroke="#629EFF" stroke-miterlimit="10"/>
<path d="M162.007 1.47432H158.187C157.526 1.47432 156.99 2.00963 156.99 2.66996V30.2389C156.99 30.8992 157.526 31.4345 158.187 31.4345H162.007C162.668 31.4345 163.204 30.8992 163.204 30.2389V2.66996C163.204 2.00963 162.668 1.47432 162.007 1.47432Z" fill="#629EFF" stroke="#629EFF" stroke-miterlimit="10"/>
<path d="M192.929 23.9938C193.236 23.48 193.523 22.9563 193.77 22.4128C194.572 20.6144 194.967 18.648 194.967 16.5038C194.967 14.3595 194.562 12.4228 193.75 10.5948C193.493 10.0216 193.196 9.47816 192.88 8.95445L196.679 5.16002C197.53 4.31023 197.53 2.92684 196.679 2.07704C195.828 1.22725 194.443 1.22725 193.592 2.07704L190.109 5.55527C188.743 4.31023 187.17 3.31221 185.369 2.61064C183.459 1.85965 181.372 1.47428 179.115 1.47428H168.785C168.122 1.47428 167.588 2.00788 167.588 2.66993V30.2389C167.588 30.9009 168.122 31.4345 168.785 31.4345H179.115C181.372 31.4345 183.459 31.059 185.369 30.2981C187.17 29.5867 188.753 28.5986 190.139 27.3634L193.602 30.8219C194.453 31.6717 195.838 31.6717 196.689 30.8219C197.54 29.9721 197.54 28.5887 196.689 27.7389L192.939 23.9938H192.929ZM182.777 25.2093C181.619 25.6836 180.372 25.9108 179.026 25.9108H174.989C174.326 25.9108 173.792 25.3772 173.792 24.7152V8.18371C173.792 7.52166 174.326 6.98807 174.989 6.98807H179.026C180.372 6.98807 181.619 7.2351 182.777 7.71929C183.934 8.20347 184.944 8.8754 185.795 9.73508C186.656 10.5948 187.319 11.5928 187.813 12.7489C188.298 13.905 188.546 15.1501 188.546 16.4939C188.546 17.8378 188.308 19.0729 187.843 20.2192C187.368 21.3654 186.695 22.3634 185.824 23.2132C184.954 24.0729 183.934 24.735 182.777 25.1994V25.2093Z" fill="#629EFF" stroke="#629EFF" stroke-miterlimit="10"/>
<mask id="path-8-outside-1_0_1" maskUnits="userSpaceOnUse" x="0" y="3.28894" width="33" height="32" fill="black">
<rect fill="white" y="3.28894" width="33" height="32"/>
<path d="M20.2193 5.03004C20.0313 4.5755 19.5959 4.28894 19.111 4.28894H13.5598C13.075 4.28894 12.6396 4.58538 12.4516 5.03004L1.09196 32.599C0.765423 33.3895 1.34923 34.2492 2.20021 34.2492H6.06922C6.56397 34.2492 7.00926 33.9428 7.18737 33.4883L9.68094 27.1346C9.85905 26.68 10.3043 26.3737 10.7991 26.3737H21.5452C22.04 26.3737 22.4853 26.68 22.6634 27.1346L25.1174 33.4784C25.2955 33.9428 25.7408 34.2393 26.2355 34.2393H30.3618C31.2128 34.2393 31.7867 33.3796 31.4701 32.5891L20.2292 5.02016H20.2193V5.03004ZM18.7251 21.4034H13.6489C12.8078 21.4034 12.224 20.5635 12.5307 19.773L15.0738 13.2316C15.4696 12.2138 16.9143 12.2138 17.3101 13.2316L19.8531 19.773C20.1599 20.5536 19.5761 21.4034 18.735 21.4034H18.7251Z"/>
</mask>
<path d="M20.2193 5.03004C20.0313 4.5755 19.5959 4.28894 19.111 4.28894H13.5598C13.075 4.28894 12.6396 4.58538 12.4516 5.03004L1.09196 32.599C0.765423 33.3895 1.34923 34.2492 2.20021 34.2492H6.06922C6.56397 34.2492 7.00926 33.9428 7.18737 33.4883L9.68094 27.1346C9.85905 26.68 10.3043 26.3737 10.7991 26.3737H21.5452C22.04 26.3737 22.4853 26.68 22.6634 27.1346L25.1174 33.4784C25.2955 33.9428 25.7408 34.2393 26.2355 34.2393H30.3618C31.2128 34.2393 31.7867 33.3796 31.4701 32.5891L20.2292 5.02016H20.2193V5.03004ZM18.7251 21.4034H13.6489C12.8078 21.4034 12.224 20.5635 12.5307 19.773L15.0738 13.2316C15.4696 12.2138 16.9143 12.2138 17.3101 13.2316L19.8531 19.773C20.1599 20.5536 19.5761 21.4034 18.735 21.4034H18.7251Z" fill="#C0D8FF"/>
<path d="M20.2193 5.03004C20.0313 4.5755 19.5959 4.28894 19.111 4.28894H13.5598C13.075 4.28894 12.6396 4.58538 12.4516 5.03004L1.09196 32.599C0.765423 33.3895 1.34923 34.2492 2.20021 34.2492H6.06922C6.56397 34.2492 7.00926 33.9428 7.18737 33.4883L9.68094 27.1346C9.85905 26.68 10.3043 26.3737 10.7991 26.3737H21.5452C22.04 26.3737 22.4853 26.68 22.6634 27.1346L25.1174 33.4784C25.2955 33.9428 25.7408 34.2393 26.2355 34.2393H30.3618C31.2128 34.2393 31.7867 33.3796 31.4701 32.5891L20.2292 5.02016H20.2193V5.03004ZM18.7251 21.4034H13.6489C12.8078 21.4034 12.224 20.5635 12.5307 19.773L15.0738 13.2316C15.4696 12.2138 16.9143 12.2138 17.3101 13.2316L19.8531 19.773C20.1599 20.5536 19.5761 21.4034 18.735 21.4034H18.7251Z" stroke="#629EFF" stroke-miterlimit="10" mask="url(#path-8-outside-1_0_1)"/>
<mask id="path-9-outside-2_0_1" maskUnits="userSpaceOnUse" x="32.5874" y="3.27905" width="29" height="32" fill="black">
<rect fill="white" x="32.5874" y="3.27905" width="29" height="32"/>
<path d="M59.0476 4.27905H55.614C54.951 4.27905 54.4167 4.81264 54.4167 5.47469V20.1188C54.4167 21.2552 52.972 21.7493 52.2694 20.8501L39.8609 4.75336C39.6333 4.45692 39.287 4.28893 38.911 4.28893H34.7847C34.1218 4.28893 33.5874 4.82253 33.5874 5.48458V33.0535C33.5874 33.7156 34.1218 34.2492 34.7847 34.2492H38.2678C38.9308 34.2492 39.4651 33.7156 39.4651 33.0535V17.7572C39.4651 16.611 40.9197 16.1268 41.6124 17.0359L54.4068 33.7847C54.6344 34.0812 54.9807 34.259 55.3567 34.259H59.0575C59.7205 34.259 60.2548 33.7254 60.2548 33.0634V5.49446C60.2548 4.83241 59.7205 4.29882 59.0575 4.29882V4.27905H59.0476Z"/>
</mask>
<path d="M59.0476 4.27905H55.614C54.951 4.27905 54.4167 4.81264 54.4167 5.47469V20.1188C54.4167 21.2552 52.972 21.7493 52.2694 20.8501L39.8609 4.75336C39.6333 4.45692 39.287 4.28893 38.911 4.28893H34.7847C34.1218 4.28893 33.5874 4.82253 33.5874 5.48458V33.0535C33.5874 33.7156 34.1218 34.2492 34.7847 34.2492H38.2678C38.9308 34.2492 39.4651 33.7156 39.4651 33.0535V17.7572C39.4651 16.611 40.9197 16.1268 41.6124 17.0359L54.4068 33.7847C54.6344 34.0812 54.9807 34.259 55.3567 34.259H59.0575C59.7205 34.259 60.2548 33.7254 60.2548 33.0634V5.49446C60.2548 4.83241 59.7205 4.29882 59.0575 4.29882V4.27905H59.0476Z" fill="#C0D8FF"/>
<path d="M59.0476 4.27905H55.614C54.951 4.27905 54.4167 4.81264 54.4167 5.47469V20.1188C54.4167 21.2552 52.972 21.7493 52.2694 20.8501L39.8609 4.75336C39.6333 4.45692 39.287 4.28893 38.911 4.28893H34.7847C34.1218 4.28893 33.5874 4.82253 33.5874 5.48458V33.0535C33.5874 33.7156 34.1218 34.2492 34.7847 34.2492H38.2678C38.9308 34.2492 39.4651 33.7156 39.4651 33.0535V17.7572C39.4651 16.611 40.9197 16.1268 41.6124 17.0359L54.4068 33.7847C54.6344 34.0812 54.9807 34.259 55.3567 34.259H59.0575C59.7205 34.259 60.2548 33.7254 60.2548 33.0634V5.49446C60.2548 4.83241 59.7205 4.29882 59.0575 4.29882V4.27905H59.0476Z" stroke="#629EFF" stroke-miterlimit="10" mask="url(#path-9-outside-2_0_1)"/>
<mask id="path-10-outside-3_0_1" maskUnits="userSpaceOnUse" x="63.6289" y="3.27905" width="29" height="32" fill="black">
<rect fill="white" x="63.6289" y="3.27905" width="29" height="32"/>
<path d="M87.4273 8.60708C86.0024 7.23357 84.3301 6.17627 82.4105 5.41541C80.4908 4.66443 78.4129 4.27905 76.1568 4.27905H65.8262C65.1633 4.27905 64.6289 4.81264 64.6289 5.47469V33.0436C64.6289 33.7057 65.1633 34.2393 65.8262 34.2393H76.1568C78.4129 34.2393 80.5007 33.8638 82.4105 33.1029C84.3202 32.3519 86.0024 31.2946 87.4471 29.931C88.8918 28.5773 90.01 26.9962 90.8115 25.1978C91.613 23.3994 92.0088 21.4331 92.0088 19.2888C92.0088 17.1446 91.6031 15.2078 90.7917 13.3798C89.9803 11.5517 88.8522 9.95094 87.4273 8.58732V8.60708ZM84.8744 23.0338C84.3994 24.1801 83.7265 25.1781 82.8558 26.0279C81.985 26.8876 80.9658 27.5496 79.8081 28.014C78.6503 28.4883 77.4035 28.7156 76.0578 28.7156H72.0206C71.3576 28.7156 70.8233 28.182 70.8233 27.52V10.9885C70.8233 10.3264 71.3576 9.79284 72.0206 9.79284H76.0578C77.4035 9.79284 78.6503 10.0399 79.8081 10.5241C80.9658 11.0082 81.9751 11.6802 82.8261 12.5399C83.6771 13.3995 84.3499 14.3975 84.8447 15.5537C85.3296 16.7098 85.5769 17.9548 85.5769 19.2987C85.5769 20.6425 85.3395 21.8777 84.8744 23.024V23.0338Z"/>
</mask>
<path d="M87.4273 8.60708C86.0024 7.23357 84.3301 6.17627 82.4105 5.41541C80.4908 4.66443 78.4129 4.27905 76.1568 4.27905H65.8262C65.1633 4.27905 64.6289 4.81264 64.6289 5.47469V33.0436C64.6289 33.7057 65.1633 34.2393 65.8262 34.2393H76.1568C78.4129 34.2393 80.5007 33.8638 82.4105 33.1029C84.3202 32.3519 86.0024 31.2946 87.4471 29.931C88.8918 28.5773 90.01 26.9962 90.8115 25.1978C91.613 23.3994 92.0088 21.4331 92.0088 19.2888C92.0088 17.1446 91.6031 15.2078 90.7917 13.3798C89.9803 11.5517 88.8522 9.95094 87.4273 8.58732V8.60708ZM84.8744 23.0338C84.3994 24.1801 83.7265 25.1781 82.8558 26.0279C81.985 26.8876 80.9658 27.5496 79.8081 28.014C78.6503 28.4883 77.4035 28.7156 76.0578 28.7156H72.0206C71.3576 28.7156 70.8233 28.182 70.8233 27.52V10.9885C70.8233 10.3264 71.3576 9.79284 72.0206 9.79284H76.0578C77.4035 9.79284 78.6503 10.0399 79.8081 10.5241C80.9658 11.0082 81.9751 11.6802 82.8261 12.5399C83.6771 13.3995 84.3499 14.3975 84.8447 15.5537C85.3296 16.7098 85.5769 17.9548 85.5769 19.2987C85.5769 20.6425 85.3395 21.8777 84.8744 23.024V23.0338Z" fill="#C0D8FF"/>
<path d="M87.4273 8.60708C86.0024 7.23357 84.3301 6.17627 82.4105 5.41541C80.4908 4.66443 78.4129 4.27905 76.1568 4.27905H65.8262C65.1633 4.27905 64.6289 4.81264 64.6289 5.47469V33.0436C64.6289 33.7057 65.1633 34.2393 65.8262 34.2393H76.1568C78.4129 34.2393 80.5007 33.8638 82.4105 33.1029C84.3202 32.3519 86.0024 31.2946 87.4471 29.931C88.8918 28.5773 90.01 26.9962 90.8115 25.1978C91.613 23.3994 92.0088 21.4331 92.0088 19.2888C92.0088 17.1446 91.6031 15.2078 90.7917 13.3798C89.9803 11.5517 88.8522 9.95094 87.4273 8.58732V8.60708ZM84.8744 23.0338C84.3994 24.1801 83.7265 25.1781 82.8558 26.0279C81.985 26.8876 80.9658 27.5496 79.8081 28.014C78.6503 28.4883 77.4035 28.7156 76.0578 28.7156H72.0206C71.3576 28.7156 70.8233 28.182 70.8233 27.52V10.9885C70.8233 10.3264 71.3576 9.79284 72.0206 9.79284H76.0578C77.4035 9.79284 78.6503 10.0399 79.8081 10.5241C80.9658 11.0082 81.9751 11.6802 82.8261 12.5399C83.6771 13.3995 84.3499 14.3975 84.8447 15.5537C85.3296 16.7098 85.5769 17.9548 85.5769 19.2987C85.5769 20.6425 85.3395 21.8777 84.8744 23.024V23.0338Z" stroke="#629EFF" stroke-miterlimit="10" mask="url(#path-10-outside-3_0_1)"/>
<mask id="path-11-outside-4_0_1" maskUnits="userSpaceOnUse" x="94.175" y="3.28894" width="27" height="32" fill="black">
<rect fill="white" x="94.175" y="3.28894" width="27" height="32"/>
<path d="M114.936 22.9844C114.619 22.3916 114.856 21.6702 115.45 21.354C116.717 20.6722 117.756 19.7631 118.587 18.6169C119.646 17.1643 120.17 15.4746 120.17 13.5675C120.17 11.6604 119.735 10.1288 118.864 8.73554C117.993 7.34227 116.776 6.24545 115.223 5.46482C113.669 4.6842 111.868 4.28894 109.84 4.28894H96.3724C95.7094 4.28894 95.175 4.82254 95.175 5.48459V33.0535C95.175 33.7156 95.7094 34.2492 96.3724 34.2492H100.192C100.855 34.2492 101.389 33.7156 101.389 33.0535V23.9726C101.389 23.3105 101.924 22.7769 102.586 22.7769H107.425C107.87 22.7769 108.286 23.024 108.494 23.4291L113.699 33.597C113.907 33.9922 114.312 34.2492 114.767 34.2492H118.983C119.883 34.2492 120.467 33.2808 120.042 32.4903L114.936 22.9943V22.9844ZM112.65 16.5714C111.809 17.3125 110.681 17.688 109.285 17.688H102.596C101.933 17.688 101.399 17.1544 101.399 16.4924V10.8403C101.399 10.1782 101.933 9.64463 102.596 9.64463H109.285C110.681 9.64463 111.809 10.0201 112.65 10.7612C113.491 11.5023 113.916 12.4707 113.916 13.6762C113.916 14.8817 113.491 15.8402 112.65 16.5912V16.5714Z"/>
</mask>
<path d="M114.936 22.9844C114.619 22.3916 114.856 21.6702 115.45 21.354C116.717 20.6722 117.756 19.7631 118.587 18.6169C119.646 17.1643 120.17 15.4746 120.17 13.5675C120.17 11.6604 119.735 10.1288 118.864 8.73554C117.993 7.34227 116.776 6.24545 115.223 5.46482C113.669 4.6842 111.868 4.28894 109.84 4.28894H96.3724C95.7094 4.28894 95.175 4.82254 95.175 5.48459V33.0535C95.175 33.7156 95.7094 34.2492 96.3724 34.2492H100.192C100.855 34.2492 101.389 33.7156 101.389 33.0535V23.9726C101.389 23.3105 101.924 22.7769 102.586 22.7769H107.425C107.87 22.7769 108.286 23.024 108.494 23.4291L113.699 33.597C113.907 33.9922 114.312 34.2492 114.767 34.2492H118.983C119.883 34.2492 120.467 33.2808 120.042 32.4903L114.936 22.9943V22.9844ZM112.65 16.5714C111.809 17.3125 110.681 17.688 109.285 17.688H102.596C101.933 17.688 101.399 17.1544 101.399 16.4924V10.8403C101.399 10.1782 101.933 9.64463 102.596 9.64463H109.285C110.681 9.64463 111.809 10.0201 112.65 10.7612C113.491 11.5023 113.916 12.4707 113.916 13.6762C113.916 14.8817 113.491 15.8402 112.65 16.5912V16.5714Z" fill="#C0D8FF"/>
<path d="M114.936 22.9844C114.619 22.3916 114.856 21.6702 115.45 21.354C116.717 20.6722 117.756 19.7631 118.587 18.6169C119.646 17.1643 120.17 15.4746 120.17 13.5675C120.17 11.6604 119.735 10.1288 118.864 8.73554C117.993 7.34227 116.776 6.24545 115.223 5.46482C113.669 4.6842 111.868 4.28894 109.84 4.28894H96.3724C95.7094 4.28894 95.175 4.82254 95.175 5.48459V33.0535C95.175 33.7156 95.7094 34.2492 96.3724 34.2492H100.192C100.855 34.2492 101.389 33.7156 101.389 33.0535V23.9726C101.389 23.3105 101.924 22.7769 102.586 22.7769H107.425C107.87 22.7769 108.286 23.024 108.494 23.4291L113.699 33.597C113.907 33.9922 114.312 34.2492 114.767 34.2492H118.983C119.883 34.2492 120.467 33.2808 120.042 32.4903L114.936 22.9943V22.9844ZM112.65 16.5714C111.809 17.3125 110.681 17.688 109.285 17.688H102.596C101.933 17.688 101.399 17.1544 101.399 16.4924V10.8403C101.399 10.1782 101.933 9.64463 102.596 9.64463H109.285C110.681 9.64463 111.809 10.0201 112.65 10.7612C113.491 11.5023 113.916 12.4707 113.916 13.6762C113.916 14.8817 113.491 15.8402 112.65 16.5912V16.5714Z" stroke="#629EFF" stroke-miterlimit="10" mask="url(#path-11-outside-4_0_1)"/>
<mask id="path-12-outside-5_0_1" maskUnits="userSpaceOnUse" x="121.07" y="2.80481" width="34" height="33" fill="black">
<rect fill="white" x="121.07" y="2.80481" width="34" height="33"/>
<path d="M149.212 8.28105C147.767 6.86802 146.085 5.77119 144.156 4.98069C142.226 4.20006 140.148 3.80481 137.922 3.80481C135.695 3.80481 133.617 4.20006 131.708 4.98069C129.788 5.76131 128.116 6.86802 126.671 8.28105C125.226 9.69409 124.098 11.3344 123.287 13.202C122.476 15.0695 122.07 17.0952 122.07 19.2592C122.07 21.4232 122.476 23.4489 123.287 25.3165C124.098 27.1841 125.226 28.8244 126.671 30.2374C128.116 31.6504 129.788 32.7472 131.708 33.5378C133.617 34.3184 135.695 34.7136 137.922 34.7136C140.148 34.7136 142.226 34.3184 144.156 33.5378C146.085 32.7571 147.767 31.6504 149.212 30.2374C150.657 28.8244 151.775 27.1841 152.577 25.3165C153.378 23.4489 153.774 21.4331 153.774 19.2592C153.774 17.0853 153.378 15.0695 152.577 13.202C151.775 11.3344 150.657 9.69409 149.212 8.28105ZM146.709 23.1129C146.224 24.3086 145.551 25.3461 144.69 26.2157C143.829 27.0852 142.83 27.7671 141.692 28.271C140.544 28.7749 139.287 29.022 137.922 29.022C136.556 29.022 135.339 28.7749 134.191 28.271C133.044 27.7769 132.044 27.0852 131.193 26.2157C130.332 25.3461 129.659 24.3086 129.175 23.1129C128.69 21.9173 128.442 20.613 128.442 19.2197C128.442 17.8264 128.69 16.5715 129.175 15.3857C129.659 14.2 130.332 13.1723 131.193 12.3028C132.054 11.4332 133.053 10.7514 134.191 10.2474C135.329 9.75338 136.576 9.49646 137.922 9.49646C139.268 9.49646 140.554 9.74349 141.692 10.2474C142.83 10.7514 143.839 11.4332 144.69 12.3028C145.551 13.1723 146.214 14.2 146.709 15.3857C147.194 16.5715 147.441 17.866 147.441 19.2592C147.441 20.6525 147.194 21.9173 146.709 23.1129Z"/>
</mask>
<path d="M149.212 8.28105C147.767 6.86802 146.085 5.77119 144.156 4.98069C142.226 4.20006 140.148 3.80481 137.922 3.80481C135.695 3.80481 133.617 4.20006 131.708 4.98069C129.788 5.76131 128.116 6.86802 126.671 8.28105C125.226 9.69409 124.098 11.3344 123.287 13.202C122.476 15.0695 122.07 17.0952 122.07 19.2592C122.07 21.4232 122.476 23.4489 123.287 25.3165C124.098 27.1841 125.226 28.8244 126.671 30.2374C128.116 31.6504 129.788 32.7472 131.708 33.5378C133.617 34.3184 135.695 34.7136 137.922 34.7136C140.148 34.7136 142.226 34.3184 144.156 33.5378C146.085 32.7571 147.767 31.6504 149.212 30.2374C150.657 28.8244 151.775 27.1841 152.577 25.3165C153.378 23.4489 153.774 21.4331 153.774 19.2592C153.774 17.0853 153.378 15.0695 152.577 13.202C151.775 11.3344 150.657 9.69409 149.212 8.28105ZM146.709 23.1129C146.224 24.3086 145.551 25.3461 144.69 26.2157C143.829 27.0852 142.83 27.7671 141.692 28.271C140.544 28.7749 139.287 29.022 137.922 29.022C136.556 29.022 135.339 28.7749 134.191 28.271C133.044 27.7769 132.044 27.0852 131.193 26.2157C130.332 25.3461 129.659 24.3086 129.175 23.1129C128.69 21.9173 128.442 20.613 128.442 19.2197C128.442 17.8264 128.69 16.5715 129.175 15.3857C129.659 14.2 130.332 13.1723 131.193 12.3028C132.054 11.4332 133.053 10.7514 134.191 10.2474C135.329 9.75338 136.576 9.49646 137.922 9.49646C139.268 9.49646 140.554 9.74349 141.692 10.2474C142.83 10.7514 143.839 11.4332 144.69 12.3028C145.551 13.1723 146.214 14.2 146.709 15.3857C147.194 16.5715 147.441 17.866 147.441 19.2592C147.441 20.6525 147.194 21.9173 146.709 23.1129Z" fill="#C0D8FF"/>
<path d="M149.212 8.28105C147.767 6.86802 146.085 5.77119 144.156 4.98069C142.226 4.20006 140.148 3.80481 137.922 3.80481C135.695 3.80481 133.617 4.20006 131.708 4.98069C129.788 5.76131 128.116 6.86802 126.671 8.28105C125.226 9.69409 124.098 11.3344 123.287 13.202C122.476 15.0695 122.07 17.0952 122.07 19.2592C122.07 21.4232 122.476 23.4489 123.287 25.3165C124.098 27.1841 125.226 28.8244 126.671 30.2374C128.116 31.6504 129.788 32.7472 131.708 33.5378C133.617 34.3184 135.695 34.7136 137.922 34.7136C140.148 34.7136 142.226 34.3184 144.156 33.5378C146.085 32.7571 147.767 31.6504 149.212 30.2374C150.657 28.8244 151.775 27.1841 152.577 25.3165C153.378 23.4489 153.774 21.4331 153.774 19.2592C153.774 17.0853 153.378 15.0695 152.577 13.202C151.775 11.3344 150.657 9.69409 149.212 8.28105ZM146.709 23.1129C146.224 24.3086 145.551 25.3461 144.69 26.2157C143.829 27.0852 142.83 27.7671 141.692 28.271C140.544 28.7749 139.287 29.022 137.922 29.022C136.556 29.022 135.339 28.7749 134.191 28.271C133.044 27.7769 132.044 27.0852 131.193 26.2157C130.332 25.3461 129.659 24.3086 129.175 23.1129C128.69 21.9173 128.442 20.613 128.442 19.2197C128.442 17.8264 128.69 16.5715 129.175 15.3857C129.659 14.2 130.332 13.1723 131.193 12.3028C132.054 11.4332 133.053 10.7514 134.191 10.2474C135.329 9.75338 136.576 9.49646 137.922 9.49646C139.268 9.49646 140.554 9.74349 141.692 10.2474C142.83 10.7514 143.839 11.4332 144.69 12.3028C145.551 13.1723 146.214 14.2 146.709 15.3857C147.194 16.5715 147.441 17.866 147.441 19.2592C147.441 20.6525 147.194 21.9173 146.709 23.1129Z" stroke="#629EFF" stroke-miterlimit="10" mask="url(#path-12-outside-5_0_1)"/>
<mask id="path-13-outside-6_0_1" maskUnits="userSpaceOnUse" x="155.99" y="3.27905" width="8" height="32" fill="black">
<rect fill="white" x="155.99" y="3.27905" width="8" height="32"/>
<path d="M162.007 4.27905H158.187C157.526 4.27905 156.99 4.81436 156.99 5.47469V33.0436C156.99 33.704 157.526 34.2393 158.187 34.2393H162.007C162.668 34.2393 163.204 33.704 163.204 33.0436V5.47469C163.204 4.81436 162.668 4.27905 162.007 4.27905Z"/>
</mask>
<path d="M162.007 4.27905H158.187C157.526 4.27905 156.99 4.81436 156.99 5.47469V33.0436C156.99 33.704 157.526 34.2393 158.187 34.2393H162.007C162.668 34.2393 163.204 33.704 163.204 33.0436V5.47469C163.204 4.81436 162.668 4.27905 162.007 4.27905Z" fill="#C0D8FF"/>
<path d="M162.007 4.27905H158.187C157.526 4.27905 156.99 4.81436 156.99 5.47469V33.0436C156.99 33.704 157.526 34.2393 158.187 34.2393H162.007C162.668 34.2393 163.204 33.704 163.204 33.0436V5.47469C163.204 4.81436 162.668 4.27905 162.007 4.27905Z" stroke="#629EFF" stroke-miterlimit="10" mask="url(#path-13-outside-6_0_1)"/>
<mask id="path-14-outside-7_0_1" maskUnits="userSpaceOnUse" x="166.588" y="3.24451" width="32" height="32" fill="black">
<rect fill="white" x="166.588" y="3.24451" width="32" height="32"/>
<path d="M192.929 26.7987C193.236 26.2848 193.523 25.7611 193.77 25.2176C194.572 23.4192 194.967 21.4529 194.967 19.3086C194.967 17.1644 194.562 15.2276 193.75 13.3996C193.493 12.8264 193.196 12.283 192.88 11.7593L196.679 7.96483C197.53 7.11503 197.53 5.73165 196.679 4.88185C195.828 4.03206 194.443 4.03206 193.592 4.88185L190.109 8.36008C188.743 7.11504 187.17 6.11702 185.369 5.41545C183.459 4.66446 181.372 4.27909 179.115 4.27909H168.785C168.122 4.27909 167.588 4.81268 167.588 5.47473V33.0437C167.588 33.7057 168.122 34.2393 168.785 34.2393H179.115C181.372 34.2393 183.459 33.8638 185.369 33.1029C187.17 32.3915 188.753 31.4034 190.139 30.1682L193.602 33.6267C194.453 34.4765 195.838 34.4765 196.689 33.6267C197.54 32.7769 197.54 31.3935 196.689 30.5437L192.939 26.7987H192.929ZM182.777 28.0141C181.619 28.4884 180.372 28.7156 179.026 28.7156H174.989C174.326 28.7156 173.792 28.182 173.792 27.52V10.9885C173.792 10.3265 174.326 9.79287 174.989 9.79287H179.026C180.372 9.79287 181.619 10.0399 182.777 10.5241C183.934 11.0083 184.944 11.6802 185.795 12.5399C186.656 13.3996 187.319 14.3976 187.813 15.5537C188.298 16.7098 188.546 17.9549 188.546 19.2987C188.546 20.6426 188.308 21.8778 187.843 23.024C187.368 24.1702 186.695 25.1682 185.824 26.018C184.954 26.8777 183.934 27.5398 182.777 28.0042V28.0141Z"/>
</mask>
<path d="M192.929 26.7987C193.236 26.2848 193.523 25.7611 193.77 25.2176C194.572 23.4192 194.967 21.4529 194.967 19.3086C194.967 17.1644 194.562 15.2276 193.75 13.3996C193.493 12.8264 193.196 12.283 192.88 11.7593L196.679 7.96483C197.53 7.11503 197.53 5.73165 196.679 4.88185C195.828 4.03206 194.443 4.03206 193.592 4.88185L190.109 8.36008C188.743 7.11504 187.17 6.11702 185.369 5.41545C183.459 4.66446 181.372 4.27909 179.115 4.27909H168.785C168.122 4.27909 167.588 4.81268 167.588 5.47473V33.0437C167.588 33.7057 168.122 34.2393 168.785 34.2393H179.115C181.372 34.2393 183.459 33.8638 185.369 33.1029C187.17 32.3915 188.753 31.4034 190.139 30.1682L193.602 33.6267C194.453 34.4765 195.838 34.4765 196.689 33.6267C197.54 32.7769 197.54 31.3935 196.689 30.5437L192.939 26.7987H192.929ZM182.777 28.0141C181.619 28.4884 180.372 28.7156 179.026 28.7156H174.989C174.326 28.7156 173.792 28.182 173.792 27.52V10.9885C173.792 10.3265 174.326 9.79287 174.989 9.79287H179.026C180.372 9.79287 181.619 10.0399 182.777 10.5241C183.934 11.0083 184.944 11.6802 185.795 12.5399C186.656 13.3996 187.319 14.3976 187.813 15.5537C188.298 16.7098 188.546 17.9549 188.546 19.2987C188.546 20.6426 188.308 21.8778 187.843 23.024C187.368 24.1702 186.695 25.1682 185.824 26.018C184.954 26.8777 183.934 27.5398 182.777 28.0042V28.0141Z" fill="#C0D8FF"/>
<path d="M192.929 26.7987C193.236 26.2848 193.523 25.7611 193.77 25.2176C194.572 23.4192 194.967 21.4529 194.967 19.3086C194.967 17.1644 194.562 15.2276 193.75 13.3996C193.493 12.8264 193.196 12.283 192.88 11.7593L196.679 7.96483C197.53 7.11503 197.53 5.73165 196.679 4.88185C195.828 4.03206 194.443 4.03206 193.592 4.88185L190.109 8.36008C188.743 7.11504 187.17 6.11702 185.369 5.41545C183.459 4.66446 181.372 4.27909 179.115 4.27909H168.785C168.122 4.27909 167.588 4.81268 167.588 5.47473V33.0437C167.588 33.7057 168.122 34.2393 168.785 34.2393H179.115C181.372 34.2393 183.459 33.8638 185.369 33.1029C187.17 32.3915 188.753 31.4034 190.139 30.1682L193.602 33.6267C194.453 34.4765 195.838 34.4765 196.689 33.6267C197.54 32.7769 197.54 31.3935 196.689 30.5437L192.939 26.7987H192.929ZM182.777 28.0141C181.619 28.4884 180.372 28.7156 179.026 28.7156H174.989C174.326 28.7156 173.792 28.182 173.792 27.52V10.9885C173.792 10.3265 174.326 9.79287 174.989 9.79287H179.026C180.372 9.79287 181.619 10.0399 182.777 10.5241C183.934 11.0083 184.944 11.6802 185.795 12.5399C186.656 13.3996 187.319 14.3976 187.813 15.5537C188.298 16.7098 188.546 17.9549 188.546 19.2987C188.546 20.6426 188.308 21.8778 187.843 23.024C187.368 24.1702 186.695 25.1682 185.824 26.018C184.954 26.8777 183.934 27.5398 182.777 28.0042V28.0141Z" stroke="#629EFF" stroke-miterlimit="10" mask="url(#path-14-outside-7_0_1)"/>
</svg>
