<svg width="704" height="196" viewBox="0 0 704 196" fill="none" xmlns="http://www.w3.org/2000/svg">
<g filter="url(#filter0_dd_115_149)">
<path d="M652.484 48.0649H558.292C551.949 48.0649 546.121 44.4286 543.479 38.6678C537.344 25.2885 523.827 16 508.134 16H69.878C48.4055 16.0099 31 33.3813 31 54.8337V111.375C31 132.817 48.4055 150.198 69.878 150.198H508.134C523.827 150.198 537.344 140.91 543.479 127.531C546.121 121.77 551.949 118.134 558.292 118.134H652.484C663.695 118.134 672.779 109.062 672.779 97.8669V68.3513C672.779 57.1558 663.695 48.0847 652.484 48.0847V48.0649Z" fill="#F2F7FF"/>
<path d="M652.484 48.0649H558.292C551.949 48.0649 546.121 44.4286 543.479 38.6678C537.344 25.2885 523.827 16 508.134 16H69.878C48.4055 16.0099 31 33.3813 31 54.8337V111.375C31 132.817 48.4055 150.198 69.878 150.198H508.134C523.827 150.198 537.344 140.91 543.479 127.531C546.121 121.77 551.949 118.134 558.292 118.134H652.484C663.695 118.134 672.779 109.062 672.779 97.8669V68.3513C672.779 57.1558 663.695 48.0847 652.484 48.0847V48.0649Z" stroke="#629EFF" stroke-width="0.75" stroke-miterlimit="10"/>
</g>
<path d="M566.683 80.6437L572.917 65.624H574.916L581.101 80.6437H579.29L577.4 75.9204H570.305L568.395 80.6437H566.673H566.683ZM570.899 74.5073H576.826L573.857 67.1458L570.889 74.5073H570.899Z" fill="#629EFF"/>
<path d="M589.126 80.861C587.938 80.861 586.8 80.6239 585.712 80.1397C584.623 79.6654 583.664 78.9737 582.832 78.0646L583.931 76.9283C584.703 77.7583 585.534 78.3808 586.414 78.7958C587.295 79.2109 588.225 79.4184 589.195 79.4184C589.987 79.4184 590.679 79.2899 591.293 79.0429C591.906 78.7958 592.381 78.4401 592.718 77.9955C593.054 77.5508 593.232 77.037 593.232 76.4639C593.232 75.6931 592.965 75.1002 592.431 74.6852C591.896 74.2702 591.006 73.9639 589.779 73.7662L587.612 73.4204C586.167 73.1734 585.098 72.7485 584.406 72.1358C583.713 71.5232 583.377 70.6833 583.377 69.626C583.377 68.7959 583.594 68.0647 584.04 67.4323C584.485 66.7999 585.108 66.3157 585.9 65.96C586.691 65.6043 587.612 65.4363 588.661 65.4363C589.71 65.4363 590.758 65.6043 591.787 65.9501C592.817 66.296 593.747 66.79 594.588 67.4323L593.638 68.7169C591.985 67.4718 590.303 66.8493 588.591 66.8493C587.879 66.8493 587.246 66.958 586.701 67.1853C586.157 67.4027 585.732 67.7189 585.435 68.1042C585.138 68.4995 584.98 68.9639 584.98 69.4876C584.98 70.1892 585.217 70.7228 585.692 71.0983C586.167 71.4738 586.949 71.7406 588.037 71.9184L590.184 72.2643C591.827 72.541 593.024 72.9955 593.776 73.6477C594.519 74.2998 594.895 75.2089 594.895 76.3848C594.895 77.2544 594.647 78.035 594.162 78.7168C593.677 79.3986 592.995 79.9223 592.134 80.3077C591.263 80.6832 590.264 80.8808 589.136 80.8808V80.861H589.126Z" fill="#629EFF"/>
<path d="M602.029 80.6437V67.1062H596.587V65.624H609.114V67.1062H603.672V80.6437H602.019H602.029Z" fill="#629EFF"/>
<path d="M612.221 80.6437V65.624H613.873V80.6437H612.221Z" fill="#629EFF"/>
<path d="M616.693 80.6437L622.927 65.624H624.926L631.111 80.6437H629.3L627.41 75.9204H620.315L618.405 80.6437H616.683H616.693ZM620.909 74.5073H626.836L623.867 67.1458L620.899 74.5073H620.909Z" fill="#629EFF"/>
<path d="M633.921 80.6437V65.624H635.573L644.617 77.8176V65.624H646.181V80.6437H644.716L635.474 68.1339V80.6437H633.901H633.921Z" fill="#629EFF"/>
<path d="M578.706 102.106V87.0864H583.673C584.821 87.0864 585.87 87.2742 586.83 87.6398C587.79 88.0153 588.621 88.539 589.333 89.2109C590.046 89.8828 590.59 90.6734 590.986 91.5923C591.382 92.5113 591.579 93.5093 591.579 94.5962C591.579 95.6832 591.382 96.6812 590.996 97.6002C590.61 98.5191 590.066 99.3096 589.353 99.9816C588.641 100.654 587.809 101.177 586.84 101.553C585.87 101.928 584.821 102.106 583.673 102.106H578.706ZM580.358 100.604H583.752C584.623 100.604 585.435 100.456 586.177 100.15C586.919 99.8531 587.572 99.4282 588.136 98.8847C588.69 98.3413 589.125 97.7089 589.432 96.9776C589.739 96.2464 589.897 95.4559 589.897 94.5962C589.897 93.7366 589.739 92.9461 589.432 92.2148C589.125 91.4836 588.69 90.8512 588.136 90.3077C587.572 89.7643 586.929 89.3394 586.177 89.0429C585.435 88.7465 584.623 88.5884 583.752 88.5884H580.358V100.604Z" fill="#629EFF"/>
<path d="M592.925 102.106L599.159 87.0864H601.158L607.343 102.106H605.532L603.642 97.3828H596.547L594.637 102.106H592.915H592.925ZM597.141 95.9698H603.068L600.099 88.6082L597.131 95.9698H597.141Z" fill="#629EFF"/>
<path d="M610.162 102.106V87.0864H616.693C617.683 87.0864 618.534 87.2643 619.266 87.62C619.988 87.9757 620.552 88.4797 620.958 89.1319C621.364 89.784 621.562 90.5449 621.562 91.4145C621.562 92.284 621.364 93.0449 620.958 93.697C620.552 94.3492 619.988 94.8532 619.256 95.2188C618.524 95.5844 617.673 95.7622 616.703 95.7622H611.825V102.096H610.162V102.106ZM611.815 94.3393H616.565C617.584 94.3393 618.395 94.0824 618.989 93.5587C619.593 93.035 619.889 92.3334 619.889 91.4441C619.889 90.5548 619.593 89.8532 618.989 89.3394C618.385 88.8255 617.574 88.5686 616.565 88.5686H611.815V94.3393Z" fill="#629EFF"/>
<path d="M625.144 102.106V87.0864H631.675C632.664 87.0864 633.515 87.2643 634.247 87.62C634.97 87.9757 635.534 88.4797 635.939 89.1319C636.345 89.784 636.543 90.5449 636.543 91.4145C636.543 92.284 636.345 93.0449 635.939 93.697C635.534 94.3492 634.97 94.8532 634.238 95.2188C633.505 95.5844 632.654 95.7622 631.685 95.7622H626.806V102.096H625.144V102.106ZM626.796 94.3393H631.546C632.565 94.3393 633.377 94.0824 633.97 93.5587C634.574 93.035 634.871 92.3334 634.871 91.4441C634.871 90.5548 634.574 89.8532 633.97 89.3394C633.367 88.8255 632.555 88.5686 631.546 88.5686H626.796V94.3393Z" fill="#629EFF"/>
<defs>
<filter id="filter0_dd_115_149" x="0.625" y="0.625" width="702.529" height="194.948" filterUnits="userSpaceOnUse" color-interpolation-filters="sRGB">
<feFlood flood-opacity="0" result="BackgroundImageFix"/>
<feColorMatrix in="SourceAlpha" type="matrix" values="0 0 0 0 0 0 0 0 0 0 0 0 0 0 0 0 0 0 127 0" result="hardAlpha"/>
<feOffset dy="4"/>
<feGaussianBlur stdDeviation="2"/>
<feComposite in2="hardAlpha" operator="out"/>
<feColorMatrix type="matrix" values="0 0 0 0 0 0 0 0 0 0 0 0 0 0 0 0 0 0 0.25 0"/>
<feBlend mode="normal" in2="BackgroundImageFix" result="effect1_dropShadow_115_149"/>
<feColorMatrix in="SourceAlpha" type="matrix" values="0 0 0 0 0 0 0 0 0 0 0 0 0 0 0 0 0 0 127 0" result="hardAlpha"/>
<feOffset dy="15"/>
<feGaussianBlur stdDeviation="15"/>
<feComposite in2="hardAlpha" operator="out"/>
<feColorMatrix type="matrix" values="0 0 0 0 0.0156863 0 0 0 0 0.611765 0 0 0 0 0.745098 0 0 0 0.3 0"/>
<feBlend mode="normal" in2="effect1_dropShadow_115_149" result="effect2_dropShadow_115_149"/>
<feBlend mode="normal" in="SourceGraphic" in2="effect2_dropShadow_115_149" result="shape"/>
</filter>
</defs>
</svg>
