<svg width="1390" height="590" viewBox="0 0 1390 590" fill="none" xmlns="http://www.w3.org/2000/svg">
<path d="M284.024 99.1533H148.918C136.426 99.1533 126.299 109.276 126.299 121.763V121.772C126.299 134.259 136.426 144.382 148.918 144.382H284.024C296.516 144.382 306.643 134.259 306.643 121.772V121.763C306.643 109.276 296.516 99.1533 284.024 99.1533Z" fill="white"/>
<path d="M208.785 63.0143H185.168C169.565 63.0143 156.916 75.658 156.916 91.2547V114.862C156.916 130.459 169.565 143.102 185.168 143.102H208.785C224.388 143.102 237.037 130.459 237.037 114.862V91.2547C237.037 75.658 224.388 63.0143 208.785 63.0143Z" fill="white"/>
<path d="M244.1 80.5058H220.484C204.88 80.5058 192.232 93.1495 192.232 108.746V116.053C192.232 131.65 204.88 144.294 220.484 144.294H244.1C259.703 144.294 272.352 131.65 272.352 116.053V108.746C272.352 93.1495 259.703 80.5058 244.1 80.5058Z" fill="white"/>
<path d="M1345.86 136.572H1210.75C1198.26 136.572 1188.13 146.695 1188.13 159.182V159.191C1188.13 171.678 1198.26 181.801 1210.75 181.801H1345.86C1358.35 181.801 1368.47 171.678 1368.47 159.191V159.182C1368.47 146.695 1358.35 136.572 1345.86 136.572Z" fill="white"/>
<path d="M1270.63 100.442H1247.01C1231.41 100.442 1218.76 113.085 1218.76 128.682V152.29C1218.76 167.886 1231.41 180.53 1247.01 180.53H1270.63C1286.23 180.53 1298.88 167.886 1298.88 152.29V128.682C1298.88 113.085 1286.23 100.442 1270.63 100.442Z" fill="white"/>
<path d="M1305.94 117.933H1282.32C1266.72 117.933 1254.07 130.577 1254.07 146.174V153.481C1254.07 169.078 1266.72 181.721 1282.32 181.721H1305.94C1321.54 181.721 1334.19 169.078 1334.19 153.481V146.174C1334.19 130.577 1321.54 117.933 1305.94 117.933Z" fill="white"/>
<path d="M157.764 363.81H22.6581C10.1659 363.81 0.0389404 373.933 0.0389404 386.421V386.429C0.0389404 398.917 10.1659 409.039 22.6581 409.039H157.764C170.256 409.039 180.383 398.917 180.383 386.429V386.421C180.383 373.933 170.256 363.81 157.764 363.81Z" fill="white"/>
<path d="M121.513 327.663H97.8966C82.2935 327.663 69.6447 340.306 69.6447 355.903V379.51C69.6447 395.107 82.2935 407.751 97.8966 407.751H121.513C137.117 407.751 149.765 395.107 149.765 379.51V355.903C149.765 340.306 137.117 327.663 121.513 327.663Z" fill="white"/>
<path d="M86.1984 345.163H62.5815C46.9784 345.163 34.3296 357.807 34.3296 373.403V380.711C34.3296 396.307 46.9784 408.951 62.5815 408.951H86.1984C101.801 408.951 114.45 396.307 114.45 380.711V373.403C114.45 357.807 101.801 345.163 86.1984 345.163Z" fill="white"/>
<path d="M1275.83 413.17H1140.72C1128.23 413.17 1118.1 423.293 1118.1 435.78V435.789C1118.1 448.276 1128.23 458.399 1140.72 458.399H1275.83C1288.32 458.399 1298.45 448.276 1298.45 435.789V435.78C1298.45 423.293 1288.32 413.17 1275.83 413.17Z" fill="white"/>
<path d="M1239.57 377.031H1215.96C1200.35 377.031 1187.71 389.674 1187.71 405.271V428.878C1187.71 444.475 1200.35 457.119 1215.96 457.119H1239.57C1255.18 457.119 1267.83 444.475 1267.83 428.878V405.271C1267.83 389.674 1255.18 377.031 1239.57 377.031Z" fill="white"/>
<path d="M1204.25 394.531H1180.63C1165.03 394.531 1152.38 407.175 1152.38 422.772V430.079C1152.38 445.676 1165.03 458.319 1180.63 458.319H1204.25C1219.85 458.319 1232.5 445.676 1232.5 430.079V422.772C1232.5 407.175 1219.85 394.531 1204.25 394.531Z" fill="white"/>
<path d="M289.427 589.708H232.764C227.52 589.708 223.273 585.463 223.273 580.221C223.273 574.979 227.52 570.734 232.764 570.734H289.427C294.671 570.734 298.918 574.979 298.918 580.221C298.918 585.463 294.671 589.708 289.427 589.708Z" fill="white"/>
<path d="M269.271 589.178C259.992 589.178 252.47 581.659 252.47 572.384C252.47 563.109 259.992 555.59 269.271 555.59C278.55 555.59 286.072 563.109 286.072 572.384C286.072 581.659 278.55 589.178 269.271 589.178Z" fill="white"/>
<path d="M257.873 562.915H251.04C243.648 562.915 237.656 568.905 237.656 576.294C237.656 583.683 243.648 589.673 251.04 589.673H257.873C265.265 589.673 271.258 583.683 271.258 576.294C271.258 568.905 265.265 562.915 257.873 562.915Z" fill="white"/>
<path d="M1023.8 34.6944H967.138C961.894 34.6944 957.647 30.4495 957.647 25.2074C957.647 19.9652 961.894 15.7203 967.138 15.7203H1023.8C1029.04 15.7203 1033.29 19.9652 1033.29 25.2074C1033.29 30.4495 1029.04 34.6944 1023.8 34.6944Z" fill="white"/>
<path d="M1003.65 34.1649C994.375 34.1649 986.853 26.6459 986.853 17.3707C986.853 8.09544 994.375 0.576416 1003.65 0.576416C1012.93 0.576416 1020.45 8.09544 1020.45 17.3707C1020.45 26.6459 1012.93 34.1649 1003.65 34.1649Z" fill="white"/>
<path d="M992.256 34.6591H985.422C978.033 34.6591 972.038 28.6668 972.038 21.2801C972.038 13.8935 978.033 7.90121 985.422 7.90121H992.256C999.645 7.90121 1005.64 13.8935 1005.64 21.2801C1005.64 28.6668 999.645 34.6591 992.256 34.6591Z" fill="white"/>
<path d="M1380.06 567.071H1323.4C1318.16 567.071 1313.91 562.826 1313.91 557.584C1313.91 552.342 1318.16 548.097 1323.4 548.097H1380.06C1385.31 548.097 1389.55 552.342 1389.55 557.584C1389.55 562.826 1385.31 567.071 1380.06 567.071Z" fill="white"/>
<path d="M1359.91 566.542C1350.63 566.542 1343.11 559.023 1343.11 549.748C1343.11 540.472 1350.63 532.953 1359.91 532.953C1369.19 532.953 1376.71 540.472 1376.71 549.748C1376.71 559.023 1369.19 566.542 1359.91 566.542Z" fill="white"/>
<path d="M1348.52 540.278H1341.68C1334.29 540.278 1328.3 546.268 1328.3 553.657C1328.3 561.046 1334.29 567.036 1341.68 567.036H1348.52C1355.91 567.036 1361.9 561.046 1361.9 553.657C1361.9 546.268 1355.91 540.278 1348.52 540.278Z" fill="white"/>
</svg>
