<svg width="196" height="195" viewBox="0 0 196 195" fill="none" xmlns="http://www.w3.org/2000/svg">
<g filter="url(#filter0_d_26_1380)">
<path d="M129.395 20H66.404C46.2986 20 30 36.2027 30 56.1898V118.81C30 138.797 46.2986 155 66.404 155H129.395C149.5 155 165.799 138.797 165.799 118.81V56.1898C165.799 36.2027 149.5 20 129.395 20Z" fill="#629EFF"/>
<path d="M97.949 43.2946C79.4818 60.0078 61.9412 102.582 61.9412 102.582C68.4977 106.963 71.829 114.514 71.829 114.514C100.085 120.786 124.274 114.514 124.274 114.514C127.139 107.595 133.646 102.54 133.646 102.54C117.562 60.5071 97.949 43.2946 97.949 43.2946ZM110.121 98.8836C110.121 98.8836 109.754 110.373 97.9915 110.738C85.8545 110.373 85.8615 98.8836 85.8615 98.8836C85.4937 84.111 97.9915 74.3867 97.9915 74.3867C97.9915 74.3867 110.489 84.1039 110.121 98.8836Z" fill="white"/>
<path d="M97.9912 58.4679C97.9912 58.4679 74.9337 78.6828 75.6056 109.416C75.6056 109.416 75.6056 111.969 76.3836 115.421C95.1833 118.789 111.621 116.862 119.436 115.505C120.306 112.004 120.384 109.416 120.384 109.416C121.056 78.6828 97.9983 58.4679 97.9983 58.4679H97.9912ZM110.121 98.8836C110.121 98.8836 109.753 110.373 97.9912 110.738C85.8542 110.373 85.8612 98.8836 85.8612 98.8836C85.4934 84.1109 97.9912 74.3867 97.9912 74.3867C97.9912 74.3867 110.489 84.1039 110.121 98.8836Z" fill="#C3DAF9"/>
<path d="M95.7636 131.705C93.0476 131.705 48.3331 130.313 46.8619 114.57C46.4941 110.591 51.332 106.309 57.8461 104.649C57.8461 104.649 46.6073 110.373 66.7508 116.588C66.7508 116.588 77.9259 119.844 95.7707 120.16H100.036C117.88 119.844 129.056 116.588 129.056 116.588C149.199 110.373 137.96 104.649 137.96 104.649C144.474 106.316 149.312 110.598 148.944 114.57C147.473 130.313 102.759 131.705 100.043 131.705H95.7636Z" fill="white"/>
<path d="M97.9915 66.5258C97.9915 66.5258 82.5231 79.4844 82.9758 99.186C82.9758 99.186 82.9687 114.507 97.9915 114.992C112.547 114.507 113.007 99.186 113.007 99.186C113.46 79.4844 97.9915 66.5258 97.9915 66.5258ZM110.121 98.8836C110.121 98.8836 109.754 110.373 97.9915 110.738C85.8544 110.373 85.8615 98.8836 85.8615 98.8836C85.4937 84.1109 97.9915 74.3867 97.9915 74.3867C97.9915 74.3867 110.489 84.1039 110.121 98.8836Z" fill="white"/>
<path d="M136.489 113.495L136.63 113.579C145.365 108.868 138.646 105.015 138.003 104.67C137.239 104.466 136.319 104.305 135.209 104.213C135.209 104.213 130.505 107.476 129.006 111.582C129.006 111.582 134.494 110.731 136.489 113.495Z" fill="#C3DAF9"/>
<path d="M59.1968 113.495L59.0554 113.579C50.3204 108.868 57.0396 105.015 57.6832 104.67C58.4471 104.466 59.3666 104.305 60.477 104.213C60.477 104.213 65.1804 107.476 66.6799 111.582C66.6799 111.582 61.1914 110.731 59.1968 113.495Z" fill="#C3DAF9"/>
<path d="M61.9412 102.582C61.9412 102.582 71.3339 104.241 71.829 114.514C71.829 114.514 69.0282 107.645 61.9412 102.582Z" fill="#C3DAF9"/>
<path d="M133.638 102.582C133.638 102.582 124.762 104.241 124.267 114.514C124.267 114.514 127.025 107.49 133.638 102.582Z" fill="#C3DAF9"/>
<g style="mix-blend-mode:plus-lighter" opacity="0.4">
<path d="M129.395 20H66.404C46.2986 20 30 36.2027 30 56.1898V118.81C30 138.797 46.2986 155 66.404 155H129.395C149.5 155 165.799 138.797 165.799 118.81V56.1898C165.799 36.2027 149.5 20 129.395 20Z" fill="url(#paint0_linear_26_1380)"/>
</g>
</g>
<defs>
<filter id="filter0_d_26_1380" x="0" y="0" width="195.799" height="195" filterUnits="userSpaceOnUse" color-interpolation-filters="sRGB">
<feFlood flood-opacity="0" result="BackgroundImageFix"/>
<feColorMatrix in="SourceAlpha" type="matrix" values="0 0 0 0 0 0 0 0 0 0 0 0 0 0 0 0 0 0 127 0" result="hardAlpha"/>
<feOffset dy="10"/>
<feGaussianBlur stdDeviation="15"/>
<feComposite in2="hardAlpha" operator="out"/>
<feColorMatrix type="matrix" values="0 0 0 0 0.384314 0 0 0 0 0.619608 0 0 0 0 1 0 0 0 0.5 0"/>
<feBlend mode="normal" in2="BackgroundImageFix" result="effect1_dropShadow_26_1380"/>
<feBlend mode="normal" in="SourceGraphic" in2="effect1_dropShadow_26_1380" result="shape"/>
</filter>
<linearGradient id="paint0_linear_26_1380" x1="23" y1="44" x2="156.5" y2="101.5" gradientUnits="userSpaceOnUse">
<stop stop-color="white" stop-opacity="0.58"/>
<stop offset="0.461765" stop-color="white" stop-opacity="0.28"/>
<stop offset="1" stop-color="white" stop-opacity="0"/>
</linearGradient>
</defs>
</svg>
