<svg width="644" height="136" viewBox="0 0 644 136" fill="none" xmlns="http://www.w3.org/2000/svg">
<path d="M622.494 33.0649H528.302C521.959 33.0649 516.131 29.4286 513.489 23.6678C507.354 10.2885 493.837 1 478.144 1H39.8879C18.4154 1.00988 1.00989 18.3813 1.00989 39.8337V96.3747C1.00989 117.817 18.4154 135.198 39.8879 135.198H478.144C493.837 135.198 507.354 125.91 513.489 112.531C516.131 106.77 521.959 103.133 528.302 103.133H622.494C633.705 103.133 642.789 94.0624 642.789 82.8669V53.3513C642.789 42.1558 633.705 33.0847 622.494 33.0847V33.0649Z" fill="#F2F7FF" stroke="#629EFF" stroke-width="0.75" stroke-miterlimit="10"/>
<path d="M536.693 65.6437L542.927 50.624H544.926L551.11 65.6437H549.3L547.41 60.9204H540.315L538.405 65.6437H536.683H536.693ZM540.909 59.5073H546.836L543.867 52.1458L540.899 59.5073H540.909Z" fill="#629EFF"/>
<path d="M559.136 65.861C557.948 65.861 556.81 65.6239 555.722 65.1397C554.633 64.6654 553.673 63.9737 552.842 63.0646L553.941 61.9283C554.712 62.7583 555.544 63.3808 556.424 63.7958C557.305 64.2109 558.235 64.4184 559.205 64.4184C559.996 64.4184 560.689 64.2899 561.303 64.0429C561.916 63.7958 562.391 63.4401 562.728 62.9955C563.064 62.5508 563.242 62.037 563.242 61.4639C563.242 60.6931 562.975 60.1002 562.441 59.6852C561.906 59.2702 561.016 58.9639 559.789 58.7662L557.622 58.4204C556.177 58.1734 555.108 57.7485 554.416 57.1358C553.723 56.5232 553.387 55.6833 553.387 54.626C553.387 53.7959 553.604 53.0647 554.049 52.4323C554.495 51.7999 555.118 51.3157 555.91 50.96C556.701 50.6043 557.622 50.4363 558.671 50.4363C559.719 50.4363 560.768 50.6043 561.797 50.9501C562.826 51.296 563.757 51.79 564.598 52.4323L563.648 53.7169C561.995 52.4718 560.313 51.8493 558.601 51.8493C557.889 51.8493 557.255 51.958 556.711 52.1853C556.167 52.4027 555.742 52.7189 555.445 53.1042C555.148 53.4995 554.99 53.9639 554.99 54.4876C554.99 55.1892 555.227 55.7228 555.702 56.0983C556.177 56.4738 556.959 56.7406 558.047 56.9184L560.194 57.2643C561.837 57.541 563.034 57.9955 563.786 58.6477C564.528 59.2998 564.904 60.2089 564.904 61.3848C564.904 62.2544 564.657 63.035 564.172 63.7168C563.687 64.3986 563.005 64.9223 562.144 65.3077C561.273 65.6832 560.274 65.8808 559.145 65.8808V65.861H559.136Z" fill="#629EFF"/>
<path d="M572.039 65.6437V52.1062H566.596V50.624H579.124V52.1062H573.681V65.6437H572.029H572.039Z" fill="#629EFF"/>
<path d="M582.231 65.6437V50.624H583.883V65.6437H582.231Z" fill="#629EFF"/>
<path d="M586.703 65.6437L592.937 50.624H594.936L601.12 65.6437H599.31L597.42 60.9204H590.325L588.415 65.6437H586.693H586.703ZM590.919 59.5073H596.846L593.877 52.1458L590.909 59.5073H590.919Z" fill="#629EFF"/>
<path d="M603.931 65.6437V50.624H605.583L614.627 62.8176V50.624H616.191V65.6437H614.726L605.484 53.1339V65.6437H603.911H603.931Z" fill="#629EFF"/>
<path d="M548.716 87.1061V72.0864H553.683C554.831 72.0864 555.88 72.2742 556.84 72.6398C557.8 73.0153 558.631 73.539 559.343 74.2109C560.056 74.8828 560.6 75.6734 560.996 76.5923C561.391 77.5113 561.589 78.5093 561.589 79.5962C561.589 80.6832 561.391 81.6812 561.006 82.6002C560.62 83.5191 560.075 84.3096 559.363 84.9816C558.65 85.6535 557.819 86.1772 556.85 86.5527C555.88 86.9282 554.831 87.1061 553.683 87.1061H548.716ZM550.368 85.6041H553.762C554.633 85.6041 555.445 85.4559 556.187 85.1496C556.929 84.8531 557.582 84.4282 558.146 83.8847C558.7 83.3413 559.135 82.7089 559.442 81.9776C559.749 81.2464 559.907 80.4559 559.907 79.5962C559.907 78.7366 559.749 77.9461 559.442 77.2148C559.135 76.4836 558.7 75.8512 558.146 75.3077C557.582 74.7643 556.939 74.3394 556.187 74.0429C555.445 73.7465 554.633 73.5884 553.762 73.5884H550.368V85.6041Z" fill="#629EFF"/>
<path d="M562.935 87.1061L569.169 72.0864H571.168L577.352 87.1061H575.542L573.652 82.3828H566.557L564.647 87.1061H562.925H562.935ZM567.151 80.9698H573.078L570.109 73.6082L567.141 80.9698H567.151Z" fill="#629EFF"/>
<path d="M580.172 87.1061V72.0864H586.703C587.693 72.0864 588.544 72.2643 589.276 72.62C589.998 72.9757 590.562 73.4797 590.968 74.1319C591.374 74.784 591.572 75.5449 591.572 76.4145C591.572 77.284 591.374 78.0449 590.968 78.697C590.562 79.3492 589.998 79.8532 589.266 80.2188C588.534 80.5844 587.683 80.7622 586.713 80.7622H581.835V87.0962H580.172V87.1061ZM581.825 79.3393H586.574C587.594 79.3393 588.405 79.0824 588.999 78.5587C589.602 78.035 589.899 77.3334 589.899 76.4441C589.899 75.5548 589.602 74.8532 588.999 74.3394C588.395 73.8255 587.584 73.5686 586.574 73.5686H581.825V79.3393Z" fill="#629EFF"/>
<path d="M595.154 87.1061V72.0864H601.685C602.674 72.0864 603.525 72.2643 604.257 72.62C604.98 72.9757 605.544 73.4797 605.949 74.1319C606.355 74.784 606.553 75.5449 606.553 76.4145C606.553 77.284 606.355 78.0449 605.949 78.697C605.544 79.3492 604.98 79.8532 604.247 80.2188C603.515 80.5844 602.664 80.7622 601.694 80.7622H596.816V87.0962H595.154V87.1061ZM596.806 79.3393H601.556C602.575 79.3393 603.387 79.0824 603.98 78.5587C604.584 78.035 604.881 77.3334 604.881 76.4441C604.881 75.5548 604.584 74.8532 603.98 74.3394C603.377 73.8255 602.565 73.5686 601.556 73.5686H596.806V79.3393Z" fill="#629EFF"/>
</svg>
