<svg width="186" height="37" viewBox="0 0 186 37" fill="none" xmlns="http://www.w3.org/2000/svg">
<path d="M24.1008 35.4635L0.980895 18.966C-0.326965 18.0285 -0.326965 16.5146 0.980895 15.5771L22.3627 0.318198C23.3092 -0.361312 24.9268 0.120366 24.9268 1.07512V14.8546C24.9268 15.4911 24.574 16.1018 23.9459 16.549L15.7201 22.4152C14.4123 23.3527 14.4123 24.8666 15.7201 25.8041L24.1008 31.7821C25.4086 32.7197 27.5339 32.7197 28.8503 31.7821L37.231 25.8041C38.5388 24.8666 38.5388 23.3527 37.231 22.4152L29.0913 16.6092C28.4632 16.162 28.1104 15.5513 28.1104 14.9148V1.13533C28.1104 0.180576 29.728 -0.301103 30.6745 0.378408L51.9702 15.5771C53.2781 16.5146 53.2781 18.0285 51.9702 18.966L28.8503 35.4635C27.5425 36.4011 25.4172 36.4011 24.1008 35.4635Z" fill="url(#paint0_linear_26_38)"/>
<mask id="mask0_26_38" style="mask-type:luminance" maskUnits="userSpaceOnUse" x="0" y="0" width="53" height="37">
<path d="M24.1008 35.4635L0.980895 18.966C-0.326965 18.0285 -0.326965 16.5146 0.980895 15.5771L22.3627 0.318198C23.3092 -0.361312 24.9268 0.120366 24.9268 1.07512V14.8546C24.9268 15.4911 24.574 16.1018 23.9459 16.549L15.7201 22.4152C14.4123 23.3527 14.4123 24.8666 15.7201 25.8041L24.1008 31.7821C25.4086 32.7197 27.5339 32.7197 28.8503 31.7821L37.231 25.8041C38.5388 24.8666 38.5388 23.3527 37.231 22.4152L29.0913 16.6092C28.4632 16.162 28.1104 15.5513 28.1104 14.9148V1.13533C28.1104 0.180576 29.728 -0.301103 30.6745 0.378408L51.9702 15.5771C53.2781 16.5146 53.2781 18.0285 51.9702 18.966L28.8503 35.4635C27.5425 36.4011 25.4172 36.4011 24.1008 35.4635Z" fill="white"/>
</mask>
<g mask="url(#mask0_26_38)">
<path d="M38.2118 24.2301H14.7478V50.0859H38.2118V24.2301Z" fill="#B9D4FF"/>
</g>
<g clip-path="url(#clip0_26_38)">
<path d="M134.658 27C134.533 27 134.435 26.904 134.435 26.7818V13.3298C134.435 12.3172 135.273 11.4879 136.315 11.4879H145.849C146.883 11.4879 147.73 12.3084 147.73 13.3298V22.6702C147.73 23.6828 146.892 24.5121 145.849 24.5121H137.625C136.832 24.5121 136.191 25.1406 136.191 25.9175V26.7905C136.182 26.9127 136.084 27 135.968 27H134.658ZM137.625 13.2163C136.832 13.2163 136.191 13.8448 136.191 14.6217V21.387C136.191 22.1639 136.832 22.7924 137.625 22.7924H144.531C145.324 22.7924 145.965 22.1639 145.965 21.387V14.6217C145.965 13.8448 145.324 13.2163 144.531 13.2163H137.625Z" fill="url(#paint1_linear_26_38)"/>
<path d="M184.476 27C184.352 27 184.254 26.904 184.254 26.7818V25.9175C184.254 25.1406 183.612 24.5121 182.819 24.5121H174.595C173.561 24.5121 172.714 23.6916 172.714 22.6702V11.7061C172.714 11.5839 172.812 11.4879 172.937 11.4879H174.247C174.372 11.4879 174.47 11.5839 174.47 11.7061V21.3783C174.47 22.1552 175.111 22.7837 175.904 22.7837H182.81C183.603 22.7837 184.245 22.1552 184.245 21.3783V11.7061C184.245 11.5839 184.343 11.4879 184.467 11.4879H185.777C185.902 11.4879 186 11.5839 186 11.7061V26.7818C186 26.904 185.902 27 185.777 27H184.467H184.476Z" fill="url(#paint2_linear_26_38)"/>
<path d="M107.9 24.5034C104.229 24.5034 101.261 21.5878 101.261 18V11.7061C101.261 11.5839 101.359 11.4879 101.484 11.4879H102.794C102.919 11.4879 103.017 11.5839 103.017 11.7061V18C103.017 20.645 105.209 22.7924 107.909 22.7924C110.609 22.7924 112.801 20.645 112.801 18V11.7061C112.801 11.5839 112.899 11.4879 113.023 11.4879H114.333C114.458 11.4879 114.556 11.5839 114.556 11.7061V18C114.556 21.5965 111.58 24.5034 107.918 24.5034H107.9Z" fill="url(#paint3_linear_26_38)"/>
<path d="M151.267 26.9913C151.142 26.9913 151.044 26.8952 151.044 26.773V9.21823C151.044 9.09602 151.142 9 151.267 9H152.577C152.702 9 152.8 9.09602 152.8 9.21823V26.773C152.8 26.8341 152.773 26.8865 152.737 26.9302C152.693 26.9738 152.639 26.9913 152.586 26.9913H151.267Z" fill="url(#paint4_linear_26_38)"/>
<path d="M88.6622 17.1358H85.4366C84.9554 17.1358 84.5634 17.5199 84.5634 17.9913C84.5634 18.4714 84.9554 18.8555 85.4366 18.8555H88.6622C89.1433 18.8555 89.5354 18.4714 89.5354 18C89.5354 17.5199 89.1433 17.1445 88.6622 17.1445V17.1358Z" fill="url(#paint5_linear_26_38)"/>
<path d="M160.276 17.9825V18.0087C160.276 18.4801 160.659 18.8555 161.14 18.8555H164.383C164.864 18.8555 165.248 18.4801 165.248 18.0087V17.9825C165.248 17.5112 164.864 17.1358 164.383 17.1358H161.14C160.659 17.1358 160.276 17.5112 160.276 17.9825Z" fill="url(#paint6_linear_26_38)"/>
<path d="M64.8801 24.5034C63.8465 24.5034 63 23.6828 63 22.6615V13.0592C63 12.1862 63.7217 11.4879 64.6039 11.4879H76.0627C76.1875 11.4879 76.2855 11.5839 76.2855 11.7061V12.9893C76.2855 13.1115 76.1875 13.2076 76.0627 13.2076H66.1899C65.3969 13.2076 64.7554 13.8361 64.7554 14.613V21.3783C64.7554 22.1552 65.3969 22.7837 66.1899 22.7837H76.0627C76.1875 22.7837 76.2855 22.8797 76.2855 23.0019V24.2852C76.2855 24.4074 76.1875 24.5034 76.0627 24.5034H64.8712H64.8801Z" fill="url(#paint7_linear_26_38)"/>
<path d="M96.4054 26.9913C96.2806 26.9913 96.1826 26.8952 96.1826 26.773V9.21823C96.1826 9.09602 96.2806 9 96.4054 9H97.7152C97.84 9 97.938 9.09602 97.938 9.21823V26.773C97.938 26.8341 97.9112 26.8865 97.8756 26.9302C97.8311 26.9738 97.7776 26.9913 97.7241 26.9913H96.4054Z" fill="url(#paint8_linear_26_38)"/>
<path d="M130.889 11.968L129.668 11.5053C129.552 11.4617 129.427 11.5228 129.383 11.6275L125.088 22.3996C124.883 22.9059 124.153 22.9059 123.948 22.3996L119.653 11.6275C119.608 11.5141 119.483 11.4617 119.368 11.5053L118.147 11.968C118.031 12.0116 117.978 12.1339 118.022 12.2473L122.326 23.0369C123.11 24.9922 125.935 24.9922 126.71 23.0369L131.014 12.2473C131.058 12.1339 130.996 12.0116 130.889 11.968Z" fill="url(#paint9_linear_26_38)"/>
<path d="M129.383 11.6275L125.088 22.3996C124.883 22.9059 124.153 22.9059 123.948 22.3996L119.653 11.6275C119.617 11.5402 119.537 11.4879 119.448 11.4879H118.04C117.888 11.4879 117.782 11.645 117.835 11.7847L122.326 23.0368C123.11 24.9922 125.935 24.9922 126.71 23.0368L131.201 11.7847C131.263 11.645 131.147 11.4879 130.996 11.4879H129.597C129.508 11.4879 129.428 11.5402 129.392 11.6275H129.401H129.383Z" fill="url(#paint10_linear_26_38)"/>
<path d="M167.529 11.4879H157.994C156.961 11.4879 156.114 12.3084 156.114 13.3298V24.2939C156.114 24.4161 156.212 24.5121 156.337 24.5121H157.647C157.772 24.5121 157.87 24.4161 157.87 24.2939V19.2745C157.87 19.0475 158.057 18.8642 158.288 18.8642C158.77 18.8642 159.179 18.4976 159.197 18.0349C159.215 17.5723 158.814 17.1532 158.324 17.1532H158.288C158.057 17.1532 157.87 16.9699 157.87 16.743V14.6304C157.87 13.8535 158.511 13.225 159.304 13.225H166.21C167.003 13.225 167.644 13.8535 167.644 14.6304V16.743C167.644 16.9699 167.457 17.1532 167.226 17.1532C166.744 17.1532 166.335 17.5199 166.317 17.9825C166.299 18.4452 166.7 18.8642 167.19 18.8642H167.226C167.457 18.8642 167.644 19.0475 167.644 19.2745V24.2939C167.644 24.4161 167.742 24.5121 167.867 24.5121H169.177C169.302 24.5121 169.4 24.4161 169.4 24.2939V13.3298C169.4 12.3172 168.562 11.4879 167.52 11.4879H167.529Z" fill="url(#paint11_linear_26_38)"/>
<path d="M92.6451 22.7837H82.7723C81.9793 22.7837 81.3378 22.1552 81.3378 21.3783V19.2658C81.3378 19.0388 81.5249 18.8555 81.7565 18.8555C82.2377 18.8555 82.6565 18.4889 82.6654 18.0262C82.6832 17.5635 82.2823 17.1445 81.7922 17.1445H81.7565C81.5249 17.1445 81.3378 16.9612 81.3378 16.7342V14.6217C81.3378 13.8448 81.9793 13.2163 82.7723 13.2163H92.6451C92.7699 13.2163 92.8679 13.1203 92.8679 12.9981V11.7148C92.8679 11.5926 92.7699 11.4966 92.6451 11.4966H81.4536C80.42 11.4966 79.5735 12.3172 79.5735 13.3385V22.679C79.5735 23.6916 80.4111 24.5209 81.4536 24.5209H92.6451C92.7699 24.5209 92.8679 24.4248 92.8679 24.3026V23.0194C92.8679 22.8972 92.7699 22.8012 92.6451 22.8012V22.7837Z" fill="url(#paint12_linear_26_38)"/>
</g>
<defs>
<linearGradient id="paint0_linear_26_38" x1="26.4755" y1="36.1688" x2="26.4755" y2="-5.38958e-05" gradientUnits="userSpaceOnUse">
<stop stop-color="#3166FF"/>
<stop offset="0.11" stop-color="#2A73F5"/>
<stop offset="0.51" stop-color="#13A1D4"/>
<stop offset="0.82" stop-color="#05BEBF"/>
<stop offset="1" stop-color="#00C9B8"/>
</linearGradient>
<linearGradient id="paint1_linear_26_38" x1="63" y1="18" x2="186" y2="18" gradientUnits="userSpaceOnUse">
<stop stop-color="#2BC1D6"/>
<stop offset="1" stop-color="#049CBE"/>
</linearGradient>
<linearGradient id="paint2_linear_26_38" x1="63" y1="18" x2="186" y2="18" gradientUnits="userSpaceOnUse">
<stop stop-color="#2BC1D6"/>
<stop offset="1" stop-color="#049CBE"/>
</linearGradient>
<linearGradient id="paint3_linear_26_38" x1="62.9999" y1="18" x2="186" y2="18" gradientUnits="userSpaceOnUse">
<stop stop-color="#2BC1D6"/>
<stop offset="1" stop-color="#049CBE"/>
</linearGradient>
<linearGradient id="paint4_linear_26_38" x1="63" y1="18" x2="186" y2="18" gradientUnits="userSpaceOnUse">
<stop stop-color="#2BC1D6"/>
<stop offset="1" stop-color="#049CBE"/>
</linearGradient>
<linearGradient id="paint5_linear_26_38" x1="63" y1="18" x2="186" y2="18" gradientUnits="userSpaceOnUse">
<stop stop-color="#2BC1D6"/>
<stop offset="1" stop-color="#049CBE"/>
</linearGradient>
<linearGradient id="paint6_linear_26_38" x1="63" y1="18" x2="186" y2="18" gradientUnits="userSpaceOnUse">
<stop stop-color="#2BC1D6"/>
<stop offset="1" stop-color="#049CBE"/>
</linearGradient>
<linearGradient id="paint7_linear_26_38" x1="63" y1="18" x2="186" y2="18" gradientUnits="userSpaceOnUse">
<stop stop-color="#2BC1D6"/>
<stop offset="1" stop-color="#049CBE"/>
</linearGradient>
<linearGradient id="paint8_linear_26_38" x1="63.0001" y1="18" x2="186" y2="18" gradientUnits="userSpaceOnUse">
<stop stop-color="#2BC1D6"/>
<stop offset="1" stop-color="#049CBE"/>
</linearGradient>
<linearGradient id="paint9_linear_26_38" x1="63" y1="18" x2="186" y2="18" gradientUnits="userSpaceOnUse">
<stop stop-color="#2BC1D6"/>
<stop offset="1" stop-color="#049CBE"/>
</linearGradient>
<linearGradient id="paint10_linear_26_38" x1="63" y1="18" x2="186" y2="18" gradientUnits="userSpaceOnUse">
<stop stop-color="#2BC1D6"/>
<stop offset="1" stop-color="#049CBE"/>
</linearGradient>
<linearGradient id="paint11_linear_26_38" x1="62.9999" y1="18" x2="186" y2="18" gradientUnits="userSpaceOnUse">
<stop stop-color="#2BC1D6"/>
<stop offset="1" stop-color="#049CBE"/>
</linearGradient>
<linearGradient id="paint12_linear_26_38" x1="63" y1="18" x2="186" y2="18" gradientUnits="userSpaceOnUse">
<stop stop-color="#2BC1D6"/>
<stop offset="1" stop-color="#049CBE"/>
</linearGradient>
<clipPath id="clip0_26_38">
<rect width="123" height="18" fill="white" transform="translate(63 9)"/>
</clipPath>
</defs>
</svg>
