<svg width="39" height="22" viewBox="0 0 39 22" fill="none" xmlns="http://www.w3.org/2000/svg">
<path d="M21.7883 11.121C21.7883 17.0944 16.9108 21.9368 10.8941 21.9368C4.87751 21.9368 0 17.0944 0 11.121C0 5.14756 4.87751 0.305176 10.8941 0.305176C16.9108 0.305176 21.7883 5.14756 21.7883 11.121Z" fill="#029CBE"/>
<path d="M33.7393 11.121C33.7393 16.7441 31.3008 21.3024 28.2922 21.3024C25.2841 21.3024 22.8453 16.7441 22.8453 11.121C22.8453 5.49811 25.2841 0.939845 28.2922 0.939845C31.3008 0.939845 33.7393 5.49811 33.7393 11.121Z" fill="#029CBE"/>
<path d="M38.6279 11.1211C38.6279 16.1591 37.77 20.2431 36.7121 20.2431C35.6541 20.2431 34.7966 16.1591 34.7966 11.1211C34.7966 6.08318 35.6541 1.9991 36.7121 1.9991C37.77 1.9991 38.6279 6.08318 38.6279 11.1211Z" fill="#029CBE"/>
</svg>
