<svg width="1847" height="700" viewBox="0 0 1847 700" fill="none" xmlns="http://www.w3.org/2000/svg">
<g opacity="0.6">
<g filter="url(#filter0_d_26_4461)">
<path d="M589.967 120.229H452.495C439.779 120.229 429.47 130.522 429.47 143.22C429.47 155.917 439.779 166.211 452.495 166.211H589.967C602.683 166.211 612.992 155.917 612.992 143.22C612.992 130.522 602.683 120.229 589.967 120.229Z" fill="white"/>
<path d="M511.613 83.4857H491.175C474.304 83.4857 460.628 97.1447 460.628 113.994V134.406C460.628 151.255 474.304 164.914 491.175 164.914H511.613C528.484 164.914 542.16 151.255 542.16 134.406V113.994C542.16 97.1447 528.484 83.4857 511.613 83.4857Z" fill="white"/>
<path d="M547.554 101.266H527.116C510.245 101.266 496.569 114.925 496.569 131.775V135.607C496.569 152.456 510.245 166.115 527.116 166.115H547.554C564.425 166.115 578.101 152.456 578.101 135.607V131.775C578.101 114.925 564.425 101.266 547.554 101.266Z" fill="white"/>
</g>
<g filter="url(#filter1_d_26_4461)">
<path d="M1670.53 158.279H1533.05C1520.34 158.279 1510.03 168.572 1510.03 181.269C1510.03 193.967 1520.34 204.26 1533.05 204.26H1670.53C1683.24 204.26 1693.55 193.967 1693.55 181.269C1693.55 168.572 1683.24 158.279 1670.53 158.279Z" fill="white"/>
<path d="M1592.17 121.535H1571.73C1554.86 121.535 1541.19 135.194 1541.19 152.043V172.455C1541.19 189.304 1554.86 202.963 1571.73 202.963H1592.17C1609.04 202.963 1622.72 189.304 1622.72 172.455V152.043C1622.72 135.194 1609.04 121.535 1592.17 121.535Z" fill="white"/>
<path d="M1628.11 139.316H1607.67C1590.8 139.316 1577.13 152.975 1577.13 169.824V173.656C1577.13 190.506 1590.8 204.165 1607.67 204.165H1628.11C1644.98 204.165 1658.66 190.506 1658.66 173.656V169.824C1658.66 152.975 1644.98 139.316 1628.11 139.316Z" fill="white"/>
</g>
<g filter="url(#filter2_d_26_4461)">
<path d="M324.025 435.293H461.497C474.213 435.293 484.522 424.999 484.522 412.302C484.522 399.604 474.213 389.311 461.497 389.311H324.025C311.309 389.311 301 399.604 301 412.302C301 424.999 311.309 435.293 324.025 435.293Z" fill="white"/>
<path d="M402.378 433.996H422.816C439.687 433.996 453.364 420.337 453.364 403.488V383.076C453.364 366.227 439.687 352.568 422.816 352.568H402.378C385.508 352.568 371.831 366.227 371.831 383.076V403.488C371.831 420.337 385.508 433.996 402.378 433.996Z" fill="white"/>
<path d="M366.428 435.207H386.866C403.737 435.207 417.413 421.548 417.413 404.699V400.866C417.413 384.017 403.737 370.358 386.866 370.358H366.428C349.558 370.358 335.881 384.017 335.881 400.866V404.699C335.881 421.548 349.558 435.207 366.428 435.207Z" fill="white"/>
</g>
<g filter="url(#filter3_d_26_4461)">
<path d="M1461.78 485.479H1599.25C1611.97 485.479 1622.28 475.186 1622.28 462.488C1622.28 449.791 1611.97 439.497 1599.25 439.497H1461.78C1449.07 439.497 1438.76 449.791 1438.76 462.488C1438.76 475.186 1449.07 485.479 1461.78 485.479Z" fill="white"/>
<path d="M1540.14 484.182H1560.57C1577.45 484.182 1591.12 470.523 1591.12 453.674V433.262C1591.12 416.413 1577.45 402.754 1560.57 402.754H1540.14C1523.27 402.754 1509.59 416.413 1509.59 433.262V453.674C1509.59 470.523 1523.27 484.182 1540.14 484.182Z" fill="white"/>
<path d="M1504.2 485.393H1524.63C1541.5 485.393 1555.18 471.734 1555.18 454.885V451.052C1555.18 434.203 1541.5 420.544 1524.63 420.544H1504.2C1487.33 420.544 1473.65 434.203 1473.65 451.052V454.885C1473.65 471.734 1487.33 485.393 1504.2 485.393Z" fill="white"/>
</g>
<g filter="url(#filter4_d_26_4461)">
<path d="M537.826 619H595.475C600.81 619 605.135 614.682 605.135 609.356C605.135 604.031 600.81 599.713 595.475 599.713H537.826C532.491 599.713 528.166 604.031 528.166 609.356C528.166 614.682 532.491 619 537.826 619Z" fill="white"/>
<path d="M557.864 601.372C557.864 610.802 565.518 618.447 574.96 618.447C584.403 618.447 592.057 610.802 592.057 601.372C592.057 591.942 584.403 584.297 574.96 584.297C565.518 584.297 557.864 591.942 557.864 601.372Z" fill="white"/>
<path d="M556.413 618.952H563.362C570.885 618.952 576.984 612.863 576.984 605.352C576.984 597.841 570.885 591.752 563.362 591.752H556.413C548.889 591.752 542.79 597.841 542.79 605.352C542.79 612.863 548.889 618.952 556.413 618.952Z" fill="white"/>
</g>
<g filter="url(#filter5_d_26_4461)">
<path d="M1285.14 54.684L1342.79 54.684C1348.13 54.684 1352.45 50.3664 1352.45 45.0405C1352.45 39.7146 1348.13 35.3971 1342.79 35.3971L1285.14 35.3971C1279.81 35.3971 1275.48 39.7146 1275.48 45.0405C1275.48 50.3664 1279.81 54.684 1285.14 54.684Z" fill="white"/>
<path d="M1305.19 37.0751C1305.19 46.5054 1312.85 54.1501 1322.29 54.1501C1331.73 54.1501 1339.38 46.5054 1339.38 37.0751C1339.38 27.6448 1331.73 20 1322.29 20C1312.85 20 1305.19 27.6448 1305.19 37.0751Z" fill="white"/>
<path d="M1303.74 54.6555H1310.69C1318.21 54.6555 1324.31 48.5666 1324.31 41.0555C1324.31 33.5445 1318.21 27.4556 1310.69 27.4556L1303.74 27.4556C1296.22 27.4556 1290.12 33.5445 1290.12 41.0555C1290.12 48.5666 1296.22 54.6555 1303.74 54.6555Z" fill="white"/>
</g>
<g filter="url(#filter6_d_26_4461)">
<path d="M78.6606 57.684L136.309 57.684C141.644 57.684 145.969 53.3664 145.969 48.0405C145.969 42.7146 141.644 38.3971 136.309 38.3971L78.6606 38.3971C73.3252 38.3971 69 42.7146 69 48.0405C69 53.3664 73.3252 57.684 78.6606 57.684Z" fill="white"/>
<path d="M98.7072 40.0751C98.7072 49.5054 106.362 57.1501 115.804 57.1501C125.246 57.1501 132.901 49.5054 132.901 40.0751C132.901 30.6448 125.246 23 115.804 23C106.362 23 98.7072 30.6448 98.7072 40.0751Z" fill="white"/>
<path d="M97.2561 57.6555H104.206C111.729 57.6555 117.828 51.5666 117.828 44.0555C117.828 36.5445 111.729 30.4556 104.206 30.4556L97.2561 30.4556C89.7328 30.4556 83.6339 36.5445 83.6339 44.0555C83.6339 51.5666 89.7328 57.6555 97.2561 57.6555Z" fill="white"/>
</g>
<g filter="url(#filter7_d_26_4461)">
<path d="M172.661 477.684H230.309C235.644 477.684 239.969 473.367 239.969 468.041C239.969 462.715 235.644 458.397 230.309 458.397H172.661C167.325 458.397 163 462.715 163 468.041C163 473.367 167.325 477.684 172.661 477.684Z" fill="white"/>
<path d="M192.707 460.075C192.707 469.505 200.362 477.15 209.804 477.15C219.246 477.15 226.901 469.505 226.901 460.075C226.901 450.645 219.246 443 209.804 443C200.362 443 192.707 450.645 192.707 460.075Z" fill="white"/>
<path d="M191.256 477.656H198.206C205.729 477.656 211.828 471.567 211.828 464.056C211.828 456.544 205.729 450.456 198.206 450.456H191.256C183.733 450.456 177.634 456.544 177.634 464.056C177.634 471.567 183.733 477.656 191.256 477.656Z" fill="white"/>
</g>
<g filter="url(#filter8_d_26_4461)">
<path d="M1214.66 659.684H1272.31C1277.64 659.684 1281.97 655.367 1281.97 650.041C1281.97 644.715 1277.64 640.397 1272.31 640.397H1214.66C1209.33 640.397 1205 644.715 1205 650.041C1205 655.367 1209.33 659.684 1214.66 659.684Z" fill="white"/>
<path d="M1234.71 642.075C1234.71 651.505 1242.36 659.15 1251.8 659.15C1261.25 659.15 1268.9 651.505 1268.9 642.075C1268.9 632.645 1261.25 625 1251.8 625C1242.36 625 1234.71 632.645 1234.71 642.075Z" fill="white"/>
<path d="M1233.26 659.656H1240.21C1247.73 659.656 1253.83 653.567 1253.83 646.056C1253.83 638.544 1247.73 632.456 1240.21 632.456H1233.26C1225.73 632.456 1219.63 638.544 1219.63 646.056C1219.63 653.567 1225.73 659.656 1233.26 659.656Z" fill="white"/>
</g>
<g filter="url(#filter9_d_26_4461)">
<path d="M1647.69 595.976H1705.34C1710.67 595.976 1715 591.659 1715 586.333C1715 581.007 1710.67 576.689 1705.34 576.689H1647.69C1642.36 576.689 1638.03 581.007 1638.03 586.333C1638.03 591.659 1642.36 595.976 1647.69 595.976Z" fill="white"/>
<path d="M1667.74 578.358C1667.74 587.788 1675.39 595.433 1684.83 595.433C1694.28 595.433 1701.93 587.788 1701.93 578.358C1701.93 568.927 1694.28 561.282 1684.83 561.282C1675.39 561.282 1667.74 568.927 1667.74 578.358Z" fill="white"/>
<path d="M1666.29 595.947H1673.24C1680.76 595.947 1686.86 589.858 1686.86 582.347C1686.86 574.836 1680.76 568.747 1673.24 568.747H1666.29C1658.76 568.747 1652.66 574.836 1652.66 582.347C1652.66 589.858 1658.76 595.947 1666.29 595.947Z" fill="white"/>
</g>
<g filter="url(#filter10_d_26_4461)">
<path d="M1088.35 345.971H1192.71C1202.36 345.971 1210.18 338.159 1210.18 328.524V328.514C1210.18 318.879 1202.36 311.067 1192.71 311.067H1088.35C1078.71 311.067 1070.88 318.879 1070.88 328.514V328.524C1070.88 338.159 1078.71 345.971 1088.35 345.971Z" fill="white"/>
<path d="M1155.18 344.989H1155.98C1172.85 344.989 1186.52 331.33 1186.52 314.481V313.689C1186.52 296.84 1172.85 283.181 1155.98 283.181H1155.18C1138.31 283.181 1124.64 296.84 1124.64 313.689V314.481C1124.64 331.33 1138.31 344.989 1155.18 344.989Z" fill="white"/>
<path d="M1122.01 345.913H1134.6C1148.22 345.913 1159.25 334.894 1159.25 321.302C1159.25 307.709 1148.22 296.69 1134.6 296.69H1122.01C1108.4 296.69 1097.36 307.709 1097.36 321.302C1097.36 334.894 1108.4 345.913 1122.01 345.913Z" fill="white"/>
</g>
<g filter="url(#filter11_d_26_4461)">
<path d="M1694.47 89.7896L1798.83 89.7896C1808.47 89.7896 1816.3 81.9783 1816.3 72.3427V72.3331C1816.3 62.6975 1808.47 54.8863 1798.83 54.8863L1694.47 54.8863C1684.82 54.8863 1677 62.6975 1677 72.3331V72.3427C1677 81.9783 1684.82 89.7896 1694.47 89.7896Z" fill="white"/>
<path d="M1761.3 88.8075H1762.09C1778.96 88.8075 1792.64 75.1485 1792.64 58.2993V57.508C1792.64 40.6588 1778.96 26.9998 1762.09 26.9998H1761.3C1744.43 26.9998 1730.75 40.6588 1730.75 57.508V58.2993C1730.75 75.1485 1744.43 88.8075 1761.3 88.8075Z" fill="white"/>
<path d="M1728.13 89.7323H1740.72C1754.33 89.7323 1765.37 78.7133 1765.37 65.1208C1765.37 51.5282 1754.33 40.5092 1740.72 40.5092L1728.13 40.5092C1714.52 40.5092 1703.48 51.5282 1703.48 65.1208C1703.48 78.7133 1714.52 89.7323 1728.13 89.7323Z" fill="white"/>
</g>
<g filter="url(#filter12_d_26_4461)">
<path d="M47.4691 252.79L151.826 252.79C161.474 252.79 169.295 244.978 169.295 235.343V235.333C169.295 225.697 161.474 217.886 151.826 217.886H47.4691C37.8211 217.886 29.9999 225.697 29.9999 235.333V235.343C29.9999 244.978 37.8211 252.79 47.4691 252.79Z" fill="white"/>
<path d="M114.301 251.808H115.093C131.964 251.808 145.64 238.149 145.64 221.299V220.508C145.64 203.659 131.964 190 115.093 190H114.301C97.4299 190 83.7535 203.659 83.7535 220.508V221.299C83.7535 238.149 97.4299 251.808 114.301 251.808Z" fill="white"/>
<path d="M81.1283 252.732H93.7194C107.332 252.732 118.367 241.713 118.367 228.121C118.367 214.528 107.332 203.509 93.7194 203.509H81.1283C67.5157 203.509 56.4805 214.528 56.4805 228.121C56.4805 241.713 67.5157 252.732 81.1283 252.732Z" fill="white"/>
</g>
</g>
<defs>
<filter id="filter0_d_26_4461" x="399.47" y="63.4857" width="243.522" height="142.725" filterUnits="userSpaceOnUse" color-interpolation-filters="sRGB">
<feFlood flood-opacity="0" result="BackgroundImageFix"/>
<feColorMatrix in="SourceAlpha" type="matrix" values="0 0 0 0 0 0 0 0 0 0 0 0 0 0 0 0 0 0 127 0" result="hardAlpha"/>
<feOffset dy="10"/>
<feGaussianBlur stdDeviation="15"/>
<feColorMatrix type="matrix" values="0 0 0 0 0.0352941 0 0 0 0 0.454902 0 0 0 0 0.709804 0 0 0 0.2 0"/>
<feBlend mode="normal" in2="BackgroundImageFix" result="effect1_dropShadow_26_4461"/>
<feBlend mode="normal" in="SourceGraphic" in2="effect1_dropShadow_26_4461" result="shape"/>
</filter>
<filter id="filter1_d_26_4461" x="1480.03" y="101.535" width="243.522" height="142.725" filterUnits="userSpaceOnUse" color-interpolation-filters="sRGB">
<feFlood flood-opacity="0" result="BackgroundImageFix"/>
<feColorMatrix in="SourceAlpha" type="matrix" values="0 0 0 0 0 0 0 0 0 0 0 0 0 0 0 0 0 0 127 0" result="hardAlpha"/>
<feOffset dy="10"/>
<feGaussianBlur stdDeviation="15"/>
<feColorMatrix type="matrix" values="0 0 0 0 0.0352941 0 0 0 0 0.454902 0 0 0 0 0.709804 0 0 0 0.2 0"/>
<feBlend mode="normal" in2="BackgroundImageFix" result="effect1_dropShadow_26_4461"/>
<feBlend mode="normal" in="SourceGraphic" in2="effect1_dropShadow_26_4461" result="shape"/>
</filter>
<filter id="filter2_d_26_4461" x="271" y="332.568" width="243.522" height="142.725" filterUnits="userSpaceOnUse" color-interpolation-filters="sRGB">
<feFlood flood-opacity="0" result="BackgroundImageFix"/>
<feColorMatrix in="SourceAlpha" type="matrix" values="0 0 0 0 0 0 0 0 0 0 0 0 0 0 0 0 0 0 127 0" result="hardAlpha"/>
<feOffset dy="10"/>
<feGaussianBlur stdDeviation="15"/>
<feColorMatrix type="matrix" values="0 0 0 0 0.0352941 0 0 0 0 0.454902 0 0 0 0 0.709804 0 0 0 0.2 0"/>
<feBlend mode="normal" in2="BackgroundImageFix" result="effect1_dropShadow_26_4461"/>
<feBlend mode="normal" in="SourceGraphic" in2="effect1_dropShadow_26_4461" result="shape"/>
</filter>
<filter id="filter3_d_26_4461" x="1408.76" y="382.754" width="243.522" height="142.725" filterUnits="userSpaceOnUse" color-interpolation-filters="sRGB">
<feFlood flood-opacity="0" result="BackgroundImageFix"/>
<feColorMatrix in="SourceAlpha" type="matrix" values="0 0 0 0 0 0 0 0 0 0 0 0 0 0 0 0 0 0 127 0" result="hardAlpha"/>
<feOffset dy="10"/>
<feGaussianBlur stdDeviation="15"/>
<feColorMatrix type="matrix" values="0 0 0 0 0.0352941 0 0 0 0 0.454902 0 0 0 0 0.709804 0 0 0 0.2 0"/>
<feBlend mode="normal" in2="BackgroundImageFix" result="effect1_dropShadow_26_4461"/>
<feBlend mode="normal" in="SourceGraphic" in2="effect1_dropShadow_26_4461" result="shape"/>
</filter>
<filter id="filter4_d_26_4461" x="498.166" y="564.297" width="136.969" height="94.7031" filterUnits="userSpaceOnUse" color-interpolation-filters="sRGB">
<feFlood flood-opacity="0" result="BackgroundImageFix"/>
<feColorMatrix in="SourceAlpha" type="matrix" values="0 0 0 0 0 0 0 0 0 0 0 0 0 0 0 0 0 0 127 0" result="hardAlpha"/>
<feOffset dy="10"/>
<feGaussianBlur stdDeviation="15"/>
<feColorMatrix type="matrix" values="0 0 0 0 0.0352941 0 0 0 0 0.454902 0 0 0 0 0.709804 0 0 0 0.2 0"/>
<feBlend mode="normal" in2="BackgroundImageFix" result="effect1_dropShadow_26_4461"/>
<feBlend mode="normal" in="SourceGraphic" in2="effect1_dropShadow_26_4461" result="shape"/>
</filter>
<filter id="filter5_d_26_4461" x="1245.48" y="0" width="136.969" height="94.684" filterUnits="userSpaceOnUse" color-interpolation-filters="sRGB">
<feFlood flood-opacity="0" result="BackgroundImageFix"/>
<feColorMatrix in="SourceAlpha" type="matrix" values="0 0 0 0 0 0 0 0 0 0 0 0 0 0 0 0 0 0 127 0" result="hardAlpha"/>
<feOffset dy="10"/>
<feGaussianBlur stdDeviation="15"/>
<feColorMatrix type="matrix" values="0 0 0 0 0.0352941 0 0 0 0 0.454902 0 0 0 0 0.709804 0 0 0 0.2 0"/>
<feBlend mode="normal" in2="BackgroundImageFix" result="effect1_dropShadow_26_4461"/>
<feBlend mode="normal" in="SourceGraphic" in2="effect1_dropShadow_26_4461" result="shape"/>
</filter>
<filter id="filter6_d_26_4461" x="39" y="3" width="136.969" height="94.684" filterUnits="userSpaceOnUse" color-interpolation-filters="sRGB">
<feFlood flood-opacity="0" result="BackgroundImageFix"/>
<feColorMatrix in="SourceAlpha" type="matrix" values="0 0 0 0 0 0 0 0 0 0 0 0 0 0 0 0 0 0 127 0" result="hardAlpha"/>
<feOffset dy="10"/>
<feGaussianBlur stdDeviation="15"/>
<feColorMatrix type="matrix" values="0 0 0 0 0.0352941 0 0 0 0 0.454902 0 0 0 0 0.709804 0 0 0 0.2 0"/>
<feBlend mode="normal" in2="BackgroundImageFix" result="effect1_dropShadow_26_4461"/>
<feBlend mode="normal" in="SourceGraphic" in2="effect1_dropShadow_26_4461" result="shape"/>
</filter>
<filter id="filter7_d_26_4461" x="133" y="423" width="136.969" height="94.6841" filterUnits="userSpaceOnUse" color-interpolation-filters="sRGB">
<feFlood flood-opacity="0" result="BackgroundImageFix"/>
<feColorMatrix in="SourceAlpha" type="matrix" values="0 0 0 0 0 0 0 0 0 0 0 0 0 0 0 0 0 0 127 0" result="hardAlpha"/>
<feOffset dy="10"/>
<feGaussianBlur stdDeviation="15"/>
<feColorMatrix type="matrix" values="0 0 0 0 0.0352941 0 0 0 0 0.454902 0 0 0 0 0.709804 0 0 0 0.2 0"/>
<feBlend mode="normal" in2="BackgroundImageFix" result="effect1_dropShadow_26_4461"/>
<feBlend mode="normal" in="SourceGraphic" in2="effect1_dropShadow_26_4461" result="shape"/>
</filter>
<filter id="filter8_d_26_4461" x="1175" y="605" width="136.969" height="94.6841" filterUnits="userSpaceOnUse" color-interpolation-filters="sRGB">
<feFlood flood-opacity="0" result="BackgroundImageFix"/>
<feColorMatrix in="SourceAlpha" type="matrix" values="0 0 0 0 0 0 0 0 0 0 0 0 0 0 0 0 0 0 127 0" result="hardAlpha"/>
<feOffset dy="10"/>
<feGaussianBlur stdDeviation="15"/>
<feColorMatrix type="matrix" values="0 0 0 0 0.0352941 0 0 0 0 0.454902 0 0 0 0 0.709804 0 0 0 0.2 0"/>
<feBlend mode="normal" in2="BackgroundImageFix" result="effect1_dropShadow_26_4461"/>
<feBlend mode="normal" in="SourceGraphic" in2="effect1_dropShadow_26_4461" result="shape"/>
</filter>
<filter id="filter9_d_26_4461" x="1608.03" y="541.282" width="136.969" height="94.6936" filterUnits="userSpaceOnUse" color-interpolation-filters="sRGB">
<feFlood flood-opacity="0" result="BackgroundImageFix"/>
<feColorMatrix in="SourceAlpha" type="matrix" values="0 0 0 0 0 0 0 0 0 0 0 0 0 0 0 0 0 0 127 0" result="hardAlpha"/>
<feOffset dy="10"/>
<feGaussianBlur stdDeviation="15"/>
<feColorMatrix type="matrix" values="0 0 0 0 0.0352941 0 0 0 0 0.454902 0 0 0 0 0.709804 0 0 0 0.2 0"/>
<feBlend mode="normal" in2="BackgroundImageFix" result="effect1_dropShadow_26_4461"/>
<feBlend mode="normal" in="SourceGraphic" in2="effect1_dropShadow_26_4461" result="shape"/>
</filter>
<filter id="filter10_d_26_4461" x="1040.88" y="263.181" width="199.295" height="122.79" filterUnits="userSpaceOnUse" color-interpolation-filters="sRGB">
<feFlood flood-opacity="0" result="BackgroundImageFix"/>
<feColorMatrix in="SourceAlpha" type="matrix" values="0 0 0 0 0 0 0 0 0 0 0 0 0 0 0 0 0 0 127 0" result="hardAlpha"/>
<feOffset dy="10"/>
<feGaussianBlur stdDeviation="15"/>
<feColorMatrix type="matrix" values="0 0 0 0 0.0352941 0 0 0 0 0.454902 0 0 0 0 0.709804 0 0 0 0.2 0"/>
<feBlend mode="normal" in2="BackgroundImageFix" result="effect1_dropShadow_26_4461"/>
<feBlend mode="normal" in="SourceGraphic" in2="effect1_dropShadow_26_4461" result="shape"/>
</filter>
<filter id="filter11_d_26_4461" x="1647" y="6.99976" width="199.295" height="122.79" filterUnits="userSpaceOnUse" color-interpolation-filters="sRGB">
<feFlood flood-opacity="0" result="BackgroundImageFix"/>
<feColorMatrix in="SourceAlpha" type="matrix" values="0 0 0 0 0 0 0 0 0 0 0 0 0 0 0 0 0 0 127 0" result="hardAlpha"/>
<feOffset dy="10"/>
<feGaussianBlur stdDeviation="15"/>
<feColorMatrix type="matrix" values="0 0 0 0 0.0352941 0 0 0 0 0.454902 0 0 0 0 0.709804 0 0 0 0.2 0"/>
<feBlend mode="normal" in2="BackgroundImageFix" result="effect1_dropShadow_26_4461"/>
<feBlend mode="normal" in="SourceGraphic" in2="effect1_dropShadow_26_4461" result="shape"/>
</filter>
<filter id="filter12_d_26_4461" x="0" y="170" width="199.295" height="122.79" filterUnits="userSpaceOnUse" color-interpolation-filters="sRGB">
<feFlood flood-opacity="0" result="BackgroundImageFix"/>
<feColorMatrix in="SourceAlpha" type="matrix" values="0 0 0 0 0 0 0 0 0 0 0 0 0 0 0 0 0 0 127 0" result="hardAlpha"/>
<feOffset dy="10"/>
<feGaussianBlur stdDeviation="15"/>
<feColorMatrix type="matrix" values="0 0 0 0 0.0352941 0 0 0 0 0.454902 0 0 0 0 0.709804 0 0 0 0.2 0"/>
<feBlend mode="normal" in2="BackgroundImageFix" result="effect1_dropShadow_26_4461"/>
<feBlend mode="normal" in="SourceGraphic" in2="effect1_dropShadow_26_4461" result="shape"/>
</filter>
</defs>
</svg>
