<svg width="256" height="27" viewBox="0 0 256 27" fill="none" xmlns="http://www.w3.org/2000/svg">
<g id="Frame 34">
<g id="Group 179">
<g id="COMING SOON!">
<g id="Vector">
<mask id="path-1-outside-1_0_1" maskUnits="userSpaceOnUse" x="247.839" y="0.19873" width="8" height="26" fill="black">
<rect fill="white" x="247.839" y="0.19873" width="8" height="26"/>
<path d="M250.826 17.3957C250.289 17.3957 249.849 16.9725 249.827 16.4365L249.246 2.23959C249.223 1.67175 249.677 1.19873 250.245 1.19873H253.594C254.162 1.19873 254.616 1.67175 254.593 2.2396L254.012 16.4365C253.99 16.9725 253.55 17.3957 253.013 17.3957H250.826ZM251.92 24.9145C251.08 24.9145 250.352 24.6164 249.733 24.0202C249.137 23.4019 248.839 22.6732 248.839 21.8341C248.839 20.995 249.137 20.2773 249.733 19.6811C250.352 19.0629 251.08 18.7537 251.92 18.7537C252.759 18.7537 253.476 19.0629 254.072 19.6811C254.691 20.2773 255 20.995 255 21.8341C255 22.6732 254.691 23.4019 254.072 24.0202C253.476 24.6164 252.759 24.9145 251.92 24.9145Z"/>
</mask>
<path d="M250.826 17.3957C250.289 17.3957 249.849 16.9725 249.827 16.4365L249.246 2.23959C249.223 1.67175 249.677 1.19873 250.245 1.19873H253.594C254.162 1.19873 254.616 1.67175 254.593 2.2396L254.012 16.4365C253.99 16.9725 253.55 17.3957 253.013 17.3957H250.826ZM251.92 24.9145C251.08 24.9145 250.352 24.6164 249.733 24.0202C249.137 23.4019 248.839 22.6732 248.839 21.8341C248.839 20.995 249.137 20.2773 249.733 19.6811C250.352 19.0629 251.08 18.7537 251.92 18.7537C252.759 18.7537 253.476 19.0629 254.072 19.6811C254.691 20.2773 255 20.995 255 21.8341C255 22.6732 254.691 23.4019 254.072 24.0202C253.476 24.6164 252.759 24.9145 251.92 24.9145Z" fill="#0047BB"/>
<path d="M250.826 17.3957C250.289 17.3957 249.849 16.9725 249.827 16.4365L249.246 2.23959C249.223 1.67175 249.677 1.19873 250.245 1.19873H253.594C254.162 1.19873 254.616 1.67175 254.593 2.2396L254.012 16.4365C253.99 16.9725 253.55 17.3957 253.013 17.3957H250.826ZM251.92 24.9145C251.08 24.9145 250.352 24.6164 249.733 24.0202C249.137 23.4019 248.839 22.6732 248.839 21.8341C248.839 20.995 249.137 20.2773 249.733 19.6811C250.352 19.0629 251.08 18.7537 251.92 18.7537C252.759 18.7537 253.476 19.0629 254.072 19.6811C254.691 20.2773 255 20.995 255 21.8341C255 22.6732 254.691 23.4019 254.072 24.0202C253.476 24.6164 252.759 24.9145 251.92 24.9145Z" stroke="#0047BB" mask="url(#path-1-outside-1_0_1)"/>
</g>
<g id="Vector_2">
<mask id="path-2-outside-2_0_1" maskUnits="userSpaceOnUse" x="223.467" y="0.364014" width="23" height="25" fill="black">
<rect fill="white" x="223.467" y="0.364014" width="23" height="25"/>
<path d="M225.467 24.5498C224.915 24.5498 224.467 24.1021 224.467 23.5498V2.36401C224.467 1.81173 224.915 1.36401 225.467 1.36401H229.346C229.654 1.36401 229.944 1.50539 230.133 1.74739L238.579 12.5299C239.165 13.2782 240.366 12.8638 240.366 11.9133V2.36401C240.366 1.81173 240.814 1.36401 241.366 1.36401H244.732C245.284 1.36401 245.732 1.81173 245.732 2.36401V23.5498C245.732 24.1021 245.284 24.5498 244.732 24.5498H241.187C240.878 24.5498 240.587 24.4073 240.397 24.1635L231.623 12.8745C231.038 12.1226 229.833 12.5359 229.833 13.4882V23.5498C229.833 24.1021 229.385 24.5498 228.833 24.5498H225.467Z"/>
</mask>
<path d="M225.467 24.5498C224.915 24.5498 224.467 24.1021 224.467 23.5498V2.36401C224.467 1.81173 224.915 1.36401 225.467 1.36401H229.346C229.654 1.36401 229.944 1.50539 230.133 1.74739L238.579 12.5299C239.165 13.2782 240.366 12.8638 240.366 11.9133V2.36401C240.366 1.81173 240.814 1.36401 241.366 1.36401H244.732C245.284 1.36401 245.732 1.81173 245.732 2.36401V23.5498C245.732 24.1021 245.284 24.5498 244.732 24.5498H241.187C240.878 24.5498 240.587 24.4073 240.397 24.1635L231.623 12.8745C231.038 12.1226 229.833 12.5359 229.833 13.4882V23.5498C229.833 24.1021 229.385 24.5498 228.833 24.5498H225.467Z" fill="#0047BB"/>
<path d="M225.467 24.5498C224.915 24.5498 224.467 24.1021 224.467 23.5498V2.36401C224.467 1.81173 224.915 1.36401 225.467 1.36401H229.346C229.654 1.36401 229.944 1.50539 230.133 1.74739L238.579 12.5299C239.165 13.2782 240.366 12.8638 240.366 11.9133V2.36401C240.366 1.81173 240.814 1.36401 241.366 1.36401H244.732C245.284 1.36401 245.732 1.81173 245.732 2.36401V23.5498C245.732 24.1021 245.284 24.5498 244.732 24.5498H241.187C240.878 24.5498 240.587 24.4073 240.397 24.1635L231.623 12.8745C231.038 12.1226 229.833 12.5359 229.833 13.4882V23.5498C229.833 24.1021 229.385 24.5498 228.833 24.5498H225.467Z" stroke="#0047BB" mask="url(#path-2-outside-2_0_1)"/>
</g>
<g id="Vector_3">
<mask id="path-3-outside-3_0_1" maskUnits="userSpaceOnUse" x="195.663" y="0" width="27" height="26" fill="black">
<rect fill="white" x="195.663" width="27" height="26"/>
<path d="M209.05 24.9145C207.306 24.9145 205.683 24.6164 204.181 24.0202C202.68 23.4019 201.366 22.5518 200.24 21.4698C199.114 20.3657 198.23 19.096 197.59 17.6607C196.972 16.2033 196.663 14.6355 196.663 12.9573C196.663 11.279 196.972 9.72228 197.59 8.28697C198.23 6.82958 199.114 5.55988 200.24 4.47787C201.366 3.37379 202.68 2.52364 204.181 1.92743C205.683 1.30914 207.306 1 209.05 1C210.795 1 212.418 1.30914 213.919 1.92743C215.421 2.52364 216.735 3.37379 217.861 4.47787C218.987 5.55988 219.859 6.82958 220.478 8.28697C221.118 9.72228 221.438 11.279 221.438 12.9573C221.438 14.6355 221.118 16.2033 220.478 17.6607C219.859 19.096 218.987 20.3657 217.861 21.4698C216.735 22.5518 215.421 23.4019 213.919 24.0202C212.418 24.6164 210.795 24.9145 209.05 24.9145ZM209.05 19.6811C209.978 19.6811 210.839 19.5155 211.634 19.1843C212.429 18.831 213.113 18.3562 213.688 17.76C214.284 17.1638 214.748 16.4572 215.079 15.6402C215.41 14.8011 215.576 13.9068 215.576 12.9573C215.576 11.9857 215.41 11.0914 215.079 10.2743C214.748 9.4573 214.284 8.75069 213.688 8.15448C213.113 7.55827 212.429 7.09456 211.634 6.76333C210.839 6.41002 209.978 6.23337 209.05 6.23337C208.123 6.23337 207.262 6.41002 206.467 6.76333C205.672 7.09456 204.976 7.55827 204.38 8.15448C203.806 8.75069 203.353 9.4573 203.022 10.2743C202.691 11.0914 202.525 11.9746 202.525 12.9241C202.525 13.8957 202.691 14.8011 203.022 15.6402C203.353 16.4572 203.806 17.1638 204.38 17.76C204.976 18.3562 205.672 18.831 206.467 19.1843C207.262 19.5155 208.123 19.6811 209.05 19.6811Z"/>
</mask>
<path d="M209.05 24.9145C207.306 24.9145 205.683 24.6164 204.181 24.0202C202.68 23.4019 201.366 22.5518 200.24 21.4698C199.114 20.3657 198.23 19.096 197.59 17.6607C196.972 16.2033 196.663 14.6355 196.663 12.9573C196.663 11.279 196.972 9.72228 197.59 8.28697C198.23 6.82958 199.114 5.55988 200.24 4.47787C201.366 3.37379 202.68 2.52364 204.181 1.92743C205.683 1.30914 207.306 1 209.05 1C210.795 1 212.418 1.30914 213.919 1.92743C215.421 2.52364 216.735 3.37379 217.861 4.47787C218.987 5.55988 219.859 6.82958 220.478 8.28697C221.118 9.72228 221.438 11.279 221.438 12.9573C221.438 14.6355 221.118 16.2033 220.478 17.6607C219.859 19.096 218.987 20.3657 217.861 21.4698C216.735 22.5518 215.421 23.4019 213.919 24.0202C212.418 24.6164 210.795 24.9145 209.05 24.9145ZM209.05 19.6811C209.978 19.6811 210.839 19.5155 211.634 19.1843C212.429 18.831 213.113 18.3562 213.688 17.76C214.284 17.1638 214.748 16.4572 215.079 15.6402C215.41 14.8011 215.576 13.9068 215.576 12.9573C215.576 11.9857 215.41 11.0914 215.079 10.2743C214.748 9.4573 214.284 8.75069 213.688 8.15448C213.113 7.55827 212.429 7.09456 211.634 6.76333C210.839 6.41002 209.978 6.23337 209.05 6.23337C208.123 6.23337 207.262 6.41002 206.467 6.76333C205.672 7.09456 204.976 7.55827 204.38 8.15448C203.806 8.75069 203.353 9.4573 203.022 10.2743C202.691 11.0914 202.525 11.9746 202.525 12.9241C202.525 13.8957 202.691 14.8011 203.022 15.6402C203.353 16.4572 203.806 17.1638 204.38 17.76C204.976 18.3562 205.672 18.831 206.467 19.1843C207.262 19.5155 208.123 19.6811 209.05 19.6811Z" fill="#0047BB"/>
<path d="M209.05 24.9145C207.306 24.9145 205.683 24.6164 204.181 24.0202C202.68 23.4019 201.366 22.5518 200.24 21.4698C199.114 20.3657 198.23 19.096 197.59 17.6607C196.972 16.2033 196.663 14.6355 196.663 12.9573C196.663 11.279 196.972 9.72228 197.59 8.28697C198.23 6.82958 199.114 5.55988 200.24 4.47787C201.366 3.37379 202.68 2.52364 204.181 1.92743C205.683 1.30914 207.306 1 209.05 1C210.795 1 212.418 1.30914 213.919 1.92743C215.421 2.52364 216.735 3.37379 217.861 4.47787C218.987 5.55988 219.859 6.82958 220.478 8.28697C221.118 9.72228 221.438 11.279 221.438 12.9573C221.438 14.6355 221.118 16.2033 220.478 17.6607C219.859 19.096 218.987 20.3657 217.861 21.4698C216.735 22.5518 215.421 23.4019 213.919 24.0202C212.418 24.6164 210.795 24.9145 209.05 24.9145ZM209.05 19.6811C209.978 19.6811 210.839 19.5155 211.634 19.1843C212.429 18.831 213.113 18.3562 213.688 17.76C214.284 17.1638 214.748 16.4572 215.079 15.6402C215.41 14.8011 215.576 13.9068 215.576 12.9573C215.576 11.9857 215.41 11.0914 215.079 10.2743C214.748 9.4573 214.284 8.75069 213.688 8.15448C213.113 7.55827 212.429 7.09456 211.634 6.76333C210.839 6.41002 209.978 6.23337 209.05 6.23337C208.123 6.23337 207.262 6.41002 206.467 6.76333C205.672 7.09456 204.976 7.55827 204.38 8.15448C203.806 8.75069 203.353 9.4573 203.022 10.2743C202.691 11.0914 202.525 11.9746 202.525 12.9241C202.525 13.8957 202.691 14.8011 203.022 15.6402C203.353 16.4572 203.806 17.1638 204.38 17.76C204.976 18.3562 205.672 18.831 206.467 19.1843C207.262 19.5155 208.123 19.6811 209.05 19.6811Z" stroke="#0047BB" mask="url(#path-3-outside-3_0_1)"/>
</g>
<g id="Vector_4">
<mask id="path-4-outside-4_0_1" maskUnits="userSpaceOnUse" x="168.686" y="0" width="27" height="26" fill="black">
<rect fill="white" x="168.686" width="27" height="26"/>
<path d="M182.074 24.9145C180.329 24.9145 178.706 24.6164 177.205 24.0202C175.703 23.4019 174.389 22.5518 173.263 21.4698C172.137 20.3657 171.254 19.096 170.613 17.6607C169.995 16.2033 169.686 14.6355 169.686 12.9573C169.686 11.279 169.995 9.72228 170.613 8.28697C171.254 6.82958 172.137 5.55988 173.263 4.47787C174.389 3.37379 175.703 2.52364 177.205 1.92743C178.706 1.30914 180.329 1 182.074 1C183.818 1 185.441 1.30914 186.943 1.92743C188.444 2.52364 189.758 3.37379 190.885 4.47787C192.011 5.55988 192.883 6.82958 193.501 8.28697C194.142 9.72228 194.462 11.279 194.462 12.9573C194.462 14.6355 194.142 16.2033 193.501 17.6607C192.883 19.096 192.011 20.3657 190.885 21.4698C189.758 22.5518 188.444 23.4019 186.943 24.0202C185.441 24.6164 183.818 24.9145 182.074 24.9145ZM182.074 19.6811C183.001 19.6811 183.862 19.5155 184.657 19.1843C185.452 18.831 186.137 18.3562 186.711 17.76C187.307 17.1638 187.771 16.4572 188.102 15.6402C188.433 14.8011 188.599 13.9068 188.599 12.9573C188.599 11.9857 188.433 11.0914 188.102 10.2743C187.771 9.4573 187.307 8.75069 186.711 8.15448C186.137 7.55827 185.452 7.09456 184.657 6.76333C183.862 6.41002 183.001 6.23337 182.074 6.23337C181.146 6.23337 180.285 6.41002 179.49 6.76333C178.695 7.09456 178 7.55827 177.404 8.15448C176.829 8.75069 176.377 9.4573 176.046 10.2743C175.714 11.0914 175.549 11.9746 175.549 12.9241C175.549 13.8957 175.714 14.8011 176.046 15.6402C176.377 16.4572 176.829 17.1638 177.404 17.76C178 18.3562 178.695 18.831 179.49 19.1843C180.285 19.5155 181.146 19.6811 182.074 19.6811Z"/>
</mask>
<path d="M182.074 24.9145C180.329 24.9145 178.706 24.6164 177.205 24.0202C175.703 23.4019 174.389 22.5518 173.263 21.4698C172.137 20.3657 171.254 19.096 170.613 17.6607C169.995 16.2033 169.686 14.6355 169.686 12.9573C169.686 11.279 169.995 9.72228 170.613 8.28697C171.254 6.82958 172.137 5.55988 173.263 4.47787C174.389 3.37379 175.703 2.52364 177.205 1.92743C178.706 1.30914 180.329 1 182.074 1C183.818 1 185.441 1.30914 186.943 1.92743C188.444 2.52364 189.758 3.37379 190.885 4.47787C192.011 5.55988 192.883 6.82958 193.501 8.28697C194.142 9.72228 194.462 11.279 194.462 12.9573C194.462 14.6355 194.142 16.2033 193.501 17.6607C192.883 19.096 192.011 20.3657 190.885 21.4698C189.758 22.5518 188.444 23.4019 186.943 24.0202C185.441 24.6164 183.818 24.9145 182.074 24.9145ZM182.074 19.6811C183.001 19.6811 183.862 19.5155 184.657 19.1843C185.452 18.831 186.137 18.3562 186.711 17.76C187.307 17.1638 187.771 16.4572 188.102 15.6402C188.433 14.8011 188.599 13.9068 188.599 12.9573C188.599 11.9857 188.433 11.0914 188.102 10.2743C187.771 9.4573 187.307 8.75069 186.711 8.15448C186.137 7.55827 185.452 7.09456 184.657 6.76333C183.862 6.41002 183.001 6.23337 182.074 6.23337C181.146 6.23337 180.285 6.41002 179.49 6.76333C178.695 7.09456 178 7.55827 177.404 8.15448C176.829 8.75069 176.377 9.4573 176.046 10.2743C175.714 11.0914 175.549 11.9746 175.549 12.9241C175.549 13.8957 175.714 14.8011 176.046 15.6402C176.377 16.4572 176.829 17.1638 177.404 17.76C178 18.3562 178.695 18.831 179.49 19.1843C180.285 19.5155 181.146 19.6811 182.074 19.6811Z" fill="#0047BB"/>
<path d="M182.074 24.9145C180.329 24.9145 178.706 24.6164 177.205 24.0202C175.703 23.4019 174.389 22.5518 173.263 21.4698C172.137 20.3657 171.254 19.096 170.613 17.6607C169.995 16.2033 169.686 14.6355 169.686 12.9573C169.686 11.279 169.995 9.72228 170.613 8.28697C171.254 6.82958 172.137 5.55988 173.263 4.47787C174.389 3.37379 175.703 2.52364 177.205 1.92743C178.706 1.30914 180.329 1 182.074 1C183.818 1 185.441 1.30914 186.943 1.92743C188.444 2.52364 189.758 3.37379 190.885 4.47787C192.011 5.55988 192.883 6.82958 193.501 8.28697C194.142 9.72228 194.462 11.279 194.462 12.9573C194.462 14.6355 194.142 16.2033 193.501 17.6607C192.883 19.096 192.011 20.3657 190.885 21.4698C189.758 22.5518 188.444 23.4019 186.943 24.0202C185.441 24.6164 183.818 24.9145 182.074 24.9145ZM182.074 19.6811C183.001 19.6811 183.862 19.5155 184.657 19.1843C185.452 18.831 186.137 18.3562 186.711 17.76C187.307 17.1638 187.771 16.4572 188.102 15.6402C188.433 14.8011 188.599 13.9068 188.599 12.9573C188.599 11.9857 188.433 11.0914 188.102 10.2743C187.771 9.4573 187.307 8.75069 186.711 8.15448C186.137 7.55827 185.452 7.09456 184.657 6.76333C183.862 6.41002 183.001 6.23337 182.074 6.23337C181.146 6.23337 180.285 6.41002 179.49 6.76333C178.695 7.09456 178 7.55827 177.404 8.15448C176.829 8.75069 176.377 9.4573 176.046 10.2743C175.714 11.0914 175.549 11.9746 175.549 12.9241C175.549 13.8957 175.714 14.8011 176.046 15.6402C176.377 16.4572 176.829 17.1638 177.404 17.76C178 18.3562 178.695 18.831 179.49 19.1843C180.285 19.5155 181.146 19.6811 182.074 19.6811Z" stroke="#0047BB" mask="url(#path-4-outside-4_0_1)"/>
</g>
<g id="Vector_5">
<mask id="path-5-outside-5_0_1" maskUnits="userSpaceOnUse" x="146.277" y="0.0332031" width="23" height="26" fill="black">
<rect fill="white" x="146.277" y="0.0332031" width="23" height="26"/>
<path d="M157.743 24.8815C155.866 24.8815 154.012 24.5392 152.179 23.8547C150.656 23.286 149.271 22.5345 148.023 21.6001C147.595 21.2802 147.532 20.6731 147.858 20.2497L149.83 17.6809C150.173 17.2344 150.816 17.1611 151.267 17.4981C152.371 18.3234 153.404 18.9407 154.365 19.35C155.557 19.8358 156.827 20.0787 158.174 20.0787C159.057 20.0787 159.808 19.9904 160.426 19.8137C161.045 19.6371 161.519 19.3831 161.851 19.0519C162.182 18.6986 162.347 18.2901 162.347 17.8264C162.347 17.186 162.104 16.6892 161.619 16.3358C161.133 15.9825 160.305 15.7065 159.135 15.5078L154.034 14.6135C152.157 14.2822 150.71 13.5646 149.695 12.4605C148.679 11.3564 148.171 9.95422 148.171 8.25393C148.171 6.75237 148.546 5.46059 149.297 4.37859C150.07 3.29658 151.163 2.46852 152.576 1.89439C154.012 1.32027 155.712 1.0332 157.677 1.0332C159.399 1.0332 161.133 1.33131 162.877 1.92751C164.291 2.39276 165.552 3.01027 166.661 3.78003C167.096 4.0818 167.175 4.68129 166.866 5.11152L165.003 7.71146C164.674 8.17107 164.031 8.26327 163.563 7.94558C161.46 6.5171 159.366 5.80286 157.28 5.80286C156.507 5.80286 155.833 5.89118 155.259 6.06784C154.707 6.22241 154.277 6.45427 153.967 6.76341C153.68 7.05047 153.537 7.40378 153.537 7.82334C153.537 8.39746 153.747 8.83909 154.166 9.14824C154.608 9.45738 155.314 9.70028 156.286 9.87694L161.089 10.6719C163.319 11.0252 165.008 11.7649 166.156 12.8911C167.327 14.0173 167.912 15.4747 167.912 17.2633C167.912 18.8311 167.503 20.1891 166.686 21.3374C165.869 22.4635 164.699 23.3358 163.175 23.954C161.652 24.5723 159.841 24.8815 157.743 24.8815Z"/>
</mask>
<path d="M157.743 24.8815C155.866 24.8815 154.012 24.5392 152.179 23.8547C150.656 23.286 149.271 22.5345 148.023 21.6001C147.595 21.2802 147.532 20.6731 147.858 20.2497L149.83 17.6809C150.173 17.2344 150.816 17.1611 151.267 17.4981C152.371 18.3234 153.404 18.9407 154.365 19.35C155.557 19.8358 156.827 20.0787 158.174 20.0787C159.057 20.0787 159.808 19.9904 160.426 19.8137C161.045 19.6371 161.519 19.3831 161.851 19.0519C162.182 18.6986 162.347 18.2901 162.347 17.8264C162.347 17.186 162.104 16.6892 161.619 16.3358C161.133 15.9825 160.305 15.7065 159.135 15.5078L154.034 14.6135C152.157 14.2822 150.71 13.5646 149.695 12.4605C148.679 11.3564 148.171 9.95422 148.171 8.25393C148.171 6.75237 148.546 5.46059 149.297 4.37859C150.07 3.29658 151.163 2.46852 152.576 1.89439C154.012 1.32027 155.712 1.0332 157.677 1.0332C159.399 1.0332 161.133 1.33131 162.877 1.92751C164.291 2.39276 165.552 3.01027 166.661 3.78003C167.096 4.0818 167.175 4.68129 166.866 5.11152L165.003 7.71146C164.674 8.17107 164.031 8.26327 163.563 7.94558C161.46 6.5171 159.366 5.80286 157.28 5.80286C156.507 5.80286 155.833 5.89118 155.259 6.06784C154.707 6.22241 154.277 6.45427 153.967 6.76341C153.68 7.05047 153.537 7.40378 153.537 7.82334C153.537 8.39746 153.747 8.83909 154.166 9.14824C154.608 9.45738 155.314 9.70028 156.286 9.87694L161.089 10.6719C163.319 11.0252 165.008 11.7649 166.156 12.8911C167.327 14.0173 167.912 15.4747 167.912 17.2633C167.912 18.8311 167.503 20.1891 166.686 21.3374C165.869 22.4635 164.699 23.3358 163.175 23.954C161.652 24.5723 159.841 24.8815 157.743 24.8815Z" fill="#0047BB"/>
<path d="M157.743 24.8815C155.866 24.8815 154.012 24.5392 152.179 23.8547C150.656 23.286 149.271 22.5345 148.023 21.6001C147.595 21.2802 147.532 20.6731 147.858 20.2497L149.83 17.6809C150.173 17.2344 150.816 17.1611 151.267 17.4981C152.371 18.3234 153.404 18.9407 154.365 19.35C155.557 19.8358 156.827 20.0787 158.174 20.0787C159.057 20.0787 159.808 19.9904 160.426 19.8137C161.045 19.6371 161.519 19.3831 161.851 19.0519C162.182 18.6986 162.347 18.2901 162.347 17.8264C162.347 17.186 162.104 16.6892 161.619 16.3358C161.133 15.9825 160.305 15.7065 159.135 15.5078L154.034 14.6135C152.157 14.2822 150.71 13.5646 149.695 12.4605C148.679 11.3564 148.171 9.95422 148.171 8.25393C148.171 6.75237 148.546 5.46059 149.297 4.37859C150.07 3.29658 151.163 2.46852 152.576 1.89439C154.012 1.32027 155.712 1.0332 157.677 1.0332C159.399 1.0332 161.133 1.33131 162.877 1.92751C164.291 2.39276 165.552 3.01027 166.661 3.78003C167.096 4.0818 167.175 4.68129 166.866 5.11152L165.003 7.71146C164.674 8.17107 164.031 8.26327 163.563 7.94558C161.46 6.5171 159.366 5.80286 157.28 5.80286C156.507 5.80286 155.833 5.89118 155.259 6.06784C154.707 6.22241 154.277 6.45427 153.967 6.76341C153.68 7.05047 153.537 7.40378 153.537 7.82334C153.537 8.39746 153.747 8.83909 154.166 9.14824C154.608 9.45738 155.314 9.70028 156.286 9.87694L161.089 10.6719C163.319 11.0252 165.008 11.7649 166.156 12.8911C167.327 14.0173 167.912 15.4747 167.912 17.2633C167.912 18.8311 167.503 20.1891 166.686 21.3374C165.869 22.4635 164.699 23.3358 163.175 23.954C161.652 24.5723 159.841 24.8815 157.743 24.8815Z" stroke="#0047BB" mask="url(#path-5-outside-5_0_1)"/>
</g>
<g id="Vector_6">
<mask id="path-6-outside-6_0_1" maskUnits="userSpaceOnUse" x="114.538" y="0" width="26" height="26" fill="black">
<rect fill="white" x="114.538" width="26" height="26"/>
<path d="M127.959 24.9145C126.215 24.9145 124.592 24.6164 123.09 24.0202C121.589 23.4019 120.264 22.5518 119.116 21.4698C117.989 20.3657 117.106 19.096 116.466 17.6607C115.847 16.2033 115.538 14.6355 115.538 12.9573C115.538 11.279 115.847 9.72228 116.466 8.28697C117.106 6.82958 117.978 5.55988 119.082 4.47787C120.209 3.37379 121.522 2.52364 123.024 1.92743C124.526 1.30914 126.138 1 127.86 1C129.825 1 131.68 1.40851 133.425 2.22554C134.866 2.88228 136.088 3.75001 137.092 4.82875C137.45 5.21312 137.395 5.81031 137.005 6.16177L134.491 8.4264C134.058 8.8159 133.39 8.74949 132.979 8.33756C132.403 7.76028 131.768 7.30178 131.073 6.96207C130.101 6.47627 129.03 6.23337 127.86 6.23337C126.932 6.23337 126.071 6.41002 125.276 6.76333C124.504 7.09456 123.819 7.55827 123.223 8.15448C122.649 8.75069 122.196 9.4573 121.865 10.2743C121.556 11.0914 121.401 11.9857 121.401 12.9573C121.401 13.9289 121.567 14.8342 121.898 15.6733C122.229 16.4903 122.693 17.208 123.289 17.8263C123.907 18.4225 124.614 18.8972 125.409 19.2505C126.226 19.5818 127.109 19.7474 128.059 19.7474C128.964 19.7474 129.781 19.5928 130.51 19.2837C131.261 18.9745 131.901 18.5439 132.431 17.9919C132.633 17.7811 132.813 17.559 132.97 17.3257C133.347 16.7663 132.871 16.1039 132.197 16.1039H128.297C127.745 16.1039 127.297 15.6562 127.297 15.1039V12.1686C127.297 11.6164 127.745 11.1686 128.297 11.1686H138.718C139.27 11.1686 139.718 11.6164 139.718 12.1686V12.8248C139.718 14.5692 139.42 16.1812 138.824 17.6607C138.249 19.1181 137.432 20.3988 136.372 21.5029C135.335 22.5849 134.098 23.424 132.663 24.0202C131.227 24.6164 129.66 24.9145 127.959 24.9145Z"/>
</mask>
<path d="M127.959 24.9145C126.215 24.9145 124.592 24.6164 123.09 24.0202C121.589 23.4019 120.264 22.5518 119.116 21.4698C117.989 20.3657 117.106 19.096 116.466 17.6607C115.847 16.2033 115.538 14.6355 115.538 12.9573C115.538 11.279 115.847 9.72228 116.466 8.28697C117.106 6.82958 117.978 5.55988 119.082 4.47787C120.209 3.37379 121.522 2.52364 123.024 1.92743C124.526 1.30914 126.138 1 127.86 1C129.825 1 131.68 1.40851 133.425 2.22554C134.866 2.88228 136.088 3.75001 137.092 4.82875C137.45 5.21312 137.395 5.81031 137.005 6.16177L134.491 8.4264C134.058 8.8159 133.39 8.74949 132.979 8.33756C132.403 7.76028 131.768 7.30178 131.073 6.96207C130.101 6.47627 129.03 6.23337 127.86 6.23337C126.932 6.23337 126.071 6.41002 125.276 6.76333C124.504 7.09456 123.819 7.55827 123.223 8.15448C122.649 8.75069 122.196 9.4573 121.865 10.2743C121.556 11.0914 121.401 11.9857 121.401 12.9573C121.401 13.9289 121.567 14.8342 121.898 15.6733C122.229 16.4903 122.693 17.208 123.289 17.8263C123.907 18.4225 124.614 18.8972 125.409 19.2505C126.226 19.5818 127.109 19.7474 128.059 19.7474C128.964 19.7474 129.781 19.5928 130.51 19.2837C131.261 18.9745 131.901 18.5439 132.431 17.9919C132.633 17.7811 132.813 17.559 132.97 17.3257C133.347 16.7663 132.871 16.1039 132.197 16.1039H128.297C127.745 16.1039 127.297 15.6562 127.297 15.1039V12.1686C127.297 11.6164 127.745 11.1686 128.297 11.1686H138.718C139.27 11.1686 139.718 11.6164 139.718 12.1686V12.8248C139.718 14.5692 139.42 16.1812 138.824 17.6607C138.249 19.1181 137.432 20.3988 136.372 21.5029C135.335 22.5849 134.098 23.424 132.663 24.0202C131.227 24.6164 129.66 24.9145 127.959 24.9145Z" fill="#0047BB"/>
<path d="M127.959 24.9145C126.215 24.9145 124.592 24.6164 123.09 24.0202C121.589 23.4019 120.264 22.5518 119.116 21.4698C117.989 20.3657 117.106 19.096 116.466 17.6607C115.847 16.2033 115.538 14.6355 115.538 12.9573C115.538 11.279 115.847 9.72228 116.466 8.28697C117.106 6.82958 117.978 5.55988 119.082 4.47787C120.209 3.37379 121.522 2.52364 123.024 1.92743C124.526 1.30914 126.138 1 127.86 1C129.825 1 131.68 1.40851 133.425 2.22554C134.866 2.88228 136.088 3.75001 137.092 4.82875C137.45 5.21312 137.395 5.81031 137.005 6.16177L134.491 8.4264C134.058 8.8159 133.39 8.74949 132.979 8.33756C132.403 7.76028 131.768 7.30178 131.073 6.96207C130.101 6.47627 129.03 6.23337 127.86 6.23337C126.932 6.23337 126.071 6.41002 125.276 6.76333C124.504 7.09456 123.819 7.55827 123.223 8.15448C122.649 8.75069 122.196 9.4573 121.865 10.2743C121.556 11.0914 121.401 11.9857 121.401 12.9573C121.401 13.9289 121.567 14.8342 121.898 15.6733C122.229 16.4903 122.693 17.208 123.289 17.8263C123.907 18.4225 124.614 18.8972 125.409 19.2505C126.226 19.5818 127.109 19.7474 128.059 19.7474C128.964 19.7474 129.781 19.5928 130.51 19.2837C131.261 18.9745 131.901 18.5439 132.431 17.9919C132.633 17.7811 132.813 17.559 132.97 17.3257C133.347 16.7663 132.871 16.1039 132.197 16.1039H128.297C127.745 16.1039 127.297 15.6562 127.297 15.1039V12.1686C127.297 11.6164 127.745 11.1686 128.297 11.1686H138.718C139.27 11.1686 139.718 11.6164 139.718 12.1686V12.8248C139.718 14.5692 139.42 16.1812 138.824 17.6607C138.249 19.1181 137.432 20.3988 136.372 21.5029C135.335 22.5849 134.098 23.424 132.663 24.0202C131.227 24.6164 129.66 24.9145 127.959 24.9145Z" stroke="#0047BB" mask="url(#path-6-outside-6_0_1)"/>
</g>
<g id="Vector_7">
<mask id="path-7-outside-7_0_1" maskUnits="userSpaceOnUse" x="90.2654" y="0.364014" width="23" height="25" fill="black">
<rect fill="white" x="90.2654" y="0.364014" width="23" height="25"/>
<path d="M92.2654 24.5498C91.7131 24.5498 91.2654 24.1021 91.2654 23.5498V2.36401C91.2654 1.81173 91.7131 1.36401 92.2654 1.36401H96.1443C96.4517 1.36401 96.742 1.50539 96.9315 1.74739L105.377 12.5299C105.963 13.2782 107.164 12.8638 107.164 11.9133V2.36401C107.164 1.81173 107.612 1.36401 108.164 1.36401H111.53C112.082 1.36401 112.53 1.81173 112.53 2.36401V23.5498C112.53 24.1021 112.082 24.5498 111.53 24.5498H107.985C107.676 24.5498 107.385 24.4073 107.195 24.1635L98.4208 12.8745C97.8364 12.1226 96.6312 12.5359 96.6312 13.4882V23.5498C96.6312 24.1021 96.1835 24.5498 95.6312 24.5498H92.2654Z"/>
</mask>
<path d="M92.2654 24.5498C91.7131 24.5498 91.2654 24.1021 91.2654 23.5498V2.36401C91.2654 1.81173 91.7131 1.36401 92.2654 1.36401H96.1443C96.4517 1.36401 96.742 1.50539 96.9315 1.74739L105.377 12.5299C105.963 13.2782 107.164 12.8638 107.164 11.9133V2.36401C107.164 1.81173 107.612 1.36401 108.164 1.36401H111.53C112.082 1.36401 112.53 1.81173 112.53 2.36401V23.5498C112.53 24.1021 112.082 24.5498 111.53 24.5498H107.985C107.676 24.5498 107.385 24.4073 107.195 24.1635L98.4208 12.8745C97.8364 12.1226 96.6312 12.5359 96.6312 13.4882V23.5498C96.6312 24.1021 96.1835 24.5498 95.6312 24.5498H92.2654Z" fill="#0047BB"/>
<path d="M92.2654 24.5498C91.7131 24.5498 91.2654 24.1021 91.2654 23.5498V2.36401C91.2654 1.81173 91.7131 1.36401 92.2654 1.36401H96.1443C96.4517 1.36401 96.742 1.50539 96.9315 1.74739L105.377 12.5299C105.963 13.2782 107.164 12.8638 107.164 11.9133V2.36401C107.164 1.81173 107.612 1.36401 108.164 1.36401H111.53C112.082 1.36401 112.53 1.81173 112.53 2.36401V23.5498C112.53 24.1021 112.082 24.5498 111.53 24.5498H107.985C107.676 24.5498 107.385 24.4073 107.195 24.1635L98.4208 12.8745C97.8364 12.1226 96.6312 12.5359 96.6312 13.4882V23.5498C96.6312 24.1021 96.1835 24.5498 95.6312 24.5498H92.2654Z" stroke="#0047BB" mask="url(#path-7-outside-7_0_1)"/>
</g>
<g id="Vector_8">
<mask id="path-8-outside-8_0_1" maskUnits="userSpaceOnUse" x="80.7234" y="0.364014" width="8" height="25" fill="black">
<rect fill="white" x="80.7234" y="0.364014" width="8" height="25"/>
<path d="M82.7234 24.5498C82.1711 24.5498 81.7234 24.1021 81.7234 23.5498V2.36401C81.7234 1.81173 82.1711 1.36401 82.7234 1.36401H86.4205C86.9728 1.36401 87.4205 1.81173 87.4205 2.36401V23.5498C87.4205 24.1021 86.9728 24.5498 86.4205 24.5498H82.7234Z"/>
</mask>
<path d="M82.7234 24.5498C82.1711 24.5498 81.7234 24.1021 81.7234 23.5498V2.36401C81.7234 1.81173 82.1711 1.36401 82.7234 1.36401H86.4205C86.9728 1.36401 87.4205 1.81173 87.4205 2.36401V23.5498C87.4205 24.1021 86.9728 24.5498 86.4205 24.5498H82.7234Z" fill="#0047BB"/>
<path d="M82.7234 24.5498C82.1711 24.5498 81.7234 24.1021 81.7234 23.5498V2.36401C81.7234 1.81173 82.1711 1.36401 82.7234 1.36401H86.4205C86.9728 1.36401 87.4205 1.81173 87.4205 2.36401V23.5498C87.4205 24.1021 86.9728 24.5498 86.4205 24.5498H82.7234Z" stroke="#0047BB" mask="url(#path-8-outside-8_0_1)"/>
</g>
<g id="Vector_9">
<mask id="path-9-outside-9_0_1" maskUnits="userSpaceOnUse" x="51.0295" y="0.364014" width="28" height="25" fill="black">
<rect fill="white" x="51.0295" y="0.364014" width="28" height="25"/>
<path d="M53.0295 24.5498C52.4773 24.5498 52.0295 24.1021 52.0295 23.5498V2.36401C52.0295 1.81173 52.4773 1.36401 53.0295 1.36401H58.6123C58.9842 1.36401 59.3253 1.57036 59.498 1.89971L64.0617 10.605C64.4361 11.3193 65.4586 11.3193 65.833 10.605L70.3967 1.89971C70.5694 1.57036 70.9105 1.36401 71.2824 1.36401H76.8652C77.4175 1.36401 77.8652 1.81173 77.8652 2.36401V23.5498C77.8652 24.1021 77.4175 24.5498 76.8652 24.5498H73.4993C72.947 24.5498 72.4993 24.1021 72.4993 23.5498V12.7156C72.4993 11.6768 71.1115 11.3268 70.6189 12.2414L65.7636 21.2554C65.3855 21.9572 64.3785 21.9562 64.0018 21.2537L59.1442 12.1932C58.6529 11.2767 57.2629 11.6258 57.2629 12.6657V23.5498C57.2629 24.1021 56.8152 24.5498 56.2629 24.5498H53.0295Z"/>
</mask>
<path d="M53.0295 24.5498C52.4773 24.5498 52.0295 24.1021 52.0295 23.5498V2.36401C52.0295 1.81173 52.4773 1.36401 53.0295 1.36401H58.6123C58.9842 1.36401 59.3253 1.57036 59.498 1.89971L64.0617 10.605C64.4361 11.3193 65.4586 11.3193 65.833 10.605L70.3967 1.89971C70.5694 1.57036 70.9105 1.36401 71.2824 1.36401H76.8652C77.4175 1.36401 77.8652 1.81173 77.8652 2.36401V23.5498C77.8652 24.1021 77.4175 24.5498 76.8652 24.5498H73.4993C72.947 24.5498 72.4993 24.1021 72.4993 23.5498V12.7156C72.4993 11.6768 71.1115 11.3268 70.6189 12.2414L65.7636 21.2554C65.3855 21.9572 64.3785 21.9562 64.0018 21.2537L59.1442 12.1932C58.6529 11.2767 57.2629 11.6258 57.2629 12.6657V23.5498C57.2629 24.1021 56.8152 24.5498 56.2629 24.5498H53.0295Z" fill="#0047BB"/>
<path d="M53.0295 24.5498C52.4773 24.5498 52.0295 24.1021 52.0295 23.5498V2.36401C52.0295 1.81173 52.4773 1.36401 53.0295 1.36401H58.6123C58.9842 1.36401 59.3253 1.57036 59.498 1.89971L64.0617 10.605C64.4361 11.3193 65.4586 11.3193 65.833 10.605L70.3967 1.89971C70.5694 1.57036 70.9105 1.36401 71.2824 1.36401H76.8652C77.4175 1.36401 77.8652 1.81173 77.8652 2.36401V23.5498C77.8652 24.1021 77.4175 24.5498 76.8652 24.5498H73.4993C72.947 24.5498 72.4993 24.1021 72.4993 23.5498V12.7156C72.4993 11.6768 71.1115 11.3268 70.6189 12.2414L65.7636 21.2554C65.3855 21.9572 64.3785 21.9562 64.0018 21.2537L59.1442 12.1932C58.6529 11.2767 57.2629 11.6258 57.2629 12.6657V23.5498C57.2629 24.1021 56.8152 24.5498 56.2629 24.5498H53.0295Z" stroke="#0047BB" mask="url(#path-9-outside-9_0_1)"/>
</g>
<g id="Vector_10">
<mask id="path-10-outside-10_0_1" maskUnits="userSpaceOnUse" x="23.2246" y="0" width="27" height="26" fill="black">
<rect fill="white" x="23.2246" width="27" height="26"/>
<path d="M36.6125 24.9145C34.868 24.9145 33.245 24.6164 31.7434 24.0202C30.2419 23.4019 28.928 22.5518 27.8018 21.4698C26.6757 20.3657 25.7924 19.096 25.152 17.6607C24.5338 16.2033 24.2246 14.6355 24.2246 12.9573C24.2246 11.279 24.5338 9.72228 25.152 8.28697C25.7924 6.82958 26.6757 5.55988 27.8018 4.47787C28.928 3.37379 30.2419 2.52364 31.7434 1.92743C33.245 1.30914 34.868 1 36.6125 1C38.3569 1 39.9799 1.30914 41.4815 1.92743C42.983 2.52364 44.2969 3.37379 45.4231 4.47787C46.5492 5.55988 47.4215 6.82958 48.0398 8.28697C48.6801 9.72228 49.0003 11.279 49.0003 12.9573C49.0003 14.6355 48.6801 16.2033 48.0398 17.6607C47.4215 19.096 46.5492 20.3657 45.4231 21.4698C44.2969 22.5518 42.983 23.4019 41.4815 24.0202C39.9799 24.6164 38.3569 24.9145 36.6125 24.9145ZM36.6125 19.6811C37.5399 19.6811 38.4011 19.5155 39.196 19.1843C39.991 18.831 40.6755 18.3562 41.2496 17.76C41.8458 17.1638 42.3095 16.4572 42.6408 15.6402C42.972 14.8011 43.1376 13.9068 43.1376 12.9573C43.1376 11.9857 42.972 11.0914 42.6408 10.2743C42.3095 9.4573 41.8458 8.75069 41.2496 8.15448C40.6755 7.55827 39.991 7.09456 39.196 6.76333C38.4011 6.41002 37.5399 6.23337 36.6125 6.23337C35.685 6.23337 34.8238 6.41002 34.0289 6.76333C33.234 7.09456 32.5384 7.55827 31.9422 8.15448C31.368 8.75069 30.9154 9.4573 30.5841 10.2743C30.2529 11.0914 30.0873 11.9746 30.0873 12.9241C30.0873 13.8957 30.2529 14.8011 30.5841 15.6402C30.9154 16.4572 31.368 17.1638 31.9422 17.76C32.5384 18.3562 33.234 18.831 34.0289 19.1843C34.8238 19.5155 35.685 19.6811 36.6125 19.6811Z"/>
</mask>
<path d="M36.6125 24.9145C34.868 24.9145 33.245 24.6164 31.7434 24.0202C30.2419 23.4019 28.928 22.5518 27.8018 21.4698C26.6757 20.3657 25.7924 19.096 25.152 17.6607C24.5338 16.2033 24.2246 14.6355 24.2246 12.9573C24.2246 11.279 24.5338 9.72228 25.152 8.28697C25.7924 6.82958 26.6757 5.55988 27.8018 4.47787C28.928 3.37379 30.2419 2.52364 31.7434 1.92743C33.245 1.30914 34.868 1 36.6125 1C38.3569 1 39.9799 1.30914 41.4815 1.92743C42.983 2.52364 44.2969 3.37379 45.4231 4.47787C46.5492 5.55988 47.4215 6.82958 48.0398 8.28697C48.6801 9.72228 49.0003 11.279 49.0003 12.9573C49.0003 14.6355 48.6801 16.2033 48.0398 17.6607C47.4215 19.096 46.5492 20.3657 45.4231 21.4698C44.2969 22.5518 42.983 23.4019 41.4815 24.0202C39.9799 24.6164 38.3569 24.9145 36.6125 24.9145ZM36.6125 19.6811C37.5399 19.6811 38.4011 19.5155 39.196 19.1843C39.991 18.831 40.6755 18.3562 41.2496 17.76C41.8458 17.1638 42.3095 16.4572 42.6408 15.6402C42.972 14.8011 43.1376 13.9068 43.1376 12.9573C43.1376 11.9857 42.972 11.0914 42.6408 10.2743C42.3095 9.4573 41.8458 8.75069 41.2496 8.15448C40.6755 7.55827 39.991 7.09456 39.196 6.76333C38.4011 6.41002 37.5399 6.23337 36.6125 6.23337C35.685 6.23337 34.8238 6.41002 34.0289 6.76333C33.234 7.09456 32.5384 7.55827 31.9422 8.15448C31.368 8.75069 30.9154 9.4573 30.5841 10.2743C30.2529 11.0914 30.0873 11.9746 30.0873 12.9241C30.0873 13.8957 30.2529 14.8011 30.5841 15.6402C30.9154 16.4572 31.368 17.1638 31.9422 17.76C32.5384 18.3562 33.234 18.831 34.0289 19.1843C34.8238 19.5155 35.685 19.6811 36.6125 19.6811Z" fill="#0047BB"/>
<path d="M36.6125 24.9145C34.868 24.9145 33.245 24.6164 31.7434 24.0202C30.2419 23.4019 28.928 22.5518 27.8018 21.4698C26.6757 20.3657 25.7924 19.096 25.152 17.6607C24.5338 16.2033 24.2246 14.6355 24.2246 12.9573C24.2246 11.279 24.5338 9.72228 25.152 8.28697C25.7924 6.82958 26.6757 5.55988 27.8018 4.47787C28.928 3.37379 30.2419 2.52364 31.7434 1.92743C33.245 1.30914 34.868 1 36.6125 1C38.3569 1 39.9799 1.30914 41.4815 1.92743C42.983 2.52364 44.2969 3.37379 45.4231 4.47787C46.5492 5.55988 47.4215 6.82958 48.0398 8.28697C48.6801 9.72228 49.0003 11.279 49.0003 12.9573C49.0003 14.6355 48.6801 16.2033 48.0398 17.6607C47.4215 19.096 46.5492 20.3657 45.4231 21.4698C44.2969 22.5518 42.983 23.4019 41.4815 24.0202C39.9799 24.6164 38.3569 24.9145 36.6125 24.9145ZM36.6125 19.6811C37.5399 19.6811 38.4011 19.5155 39.196 19.1843C39.991 18.831 40.6755 18.3562 41.2496 17.76C41.8458 17.1638 42.3095 16.4572 42.6408 15.6402C42.972 14.8011 43.1376 13.9068 43.1376 12.9573C43.1376 11.9857 42.972 11.0914 42.6408 10.2743C42.3095 9.4573 41.8458 8.75069 41.2496 8.15448C40.6755 7.55827 39.991 7.09456 39.196 6.76333C38.4011 6.41002 37.5399 6.23337 36.6125 6.23337C35.685 6.23337 34.8238 6.41002 34.0289 6.76333C33.234 7.09456 32.5384 7.55827 31.9422 8.15448C31.368 8.75069 30.9154 9.4573 30.5841 10.2743C30.2529 11.0914 30.0873 11.9746 30.0873 12.9241C30.0873 13.8957 30.2529 14.8011 30.5841 15.6402C30.9154 16.4572 31.368 17.1638 31.9422 17.76C32.5384 18.3562 33.234 18.831 34.0289 19.1843C34.8238 19.5155 35.685 19.6811 36.6125 19.6811Z" stroke="#0047BB" mask="url(#path-10-outside-10_0_1)"/>
</g>
<g id="Vector_11">
<mask id="path-11-outside-11_0_1" maskUnits="userSpaceOnUse" x="0" y="0" width="24" height="26" fill="black">
<rect fill="white" width="24" height="26"/>
<path d="M13.4541 24.8814C11.6876 24.8814 10.0425 24.5833 8.51883 23.9871C7.01727 23.3688 5.70341 22.5186 4.57724 21.4366C3.45107 20.3546 2.5678 19.096 1.92743 17.6607C1.30914 16.2033 1 14.6355 1 12.9573C1 11.257 1.30914 9.68916 1.92743 8.25385C2.5678 6.79645 3.45107 5.52675 4.57724 4.44475C5.72549 3.36274 7.0504 2.52364 8.55195 1.92743C10.0756 1.30914 11.7096 1 13.4541 1C14.7348 1 15.9935 1.18769 17.2301 1.56308C18.4666 1.93847 19.6039 2.46843 20.6417 3.15297C21.435 3.64876 22.1293 4.21876 22.7246 4.86297C23.0666 5.23299 23.022 5.80262 22.6627 6.15577L20.2455 8.53132C19.8206 8.94885 19.131 8.89966 18.712 8.47629C18.0914 7.84921 17.4208 7.35551 16.7001 6.99519C15.7064 6.48731 14.6244 6.23337 13.4541 6.23337C12.5267 6.23337 11.6544 6.41002 10.8374 6.76333C10.0425 7.09456 9.34689 7.55827 8.75069 8.15448C8.15448 8.75069 7.69076 9.4573 7.35954 10.2743C7.02831 11.0914 6.8627 11.9857 6.8627 12.9573C6.8627 13.9068 7.02831 14.79 7.35954 15.6071C7.71285 16.402 8.1876 17.1086 8.78381 17.7269C9.4021 18.3231 10.1198 18.7868 10.9368 19.1181C11.7759 19.4493 12.6812 19.6149 13.6528 19.6149C14.779 19.6149 15.8168 19.372 16.7664 18.8862C17.4394 18.5497 18.0647 18.1019 18.6424 17.5429C19.0657 17.1332 19.746 17.0898 20.1663 17.5026L22.4894 19.7846C22.852 20.1408 22.8933 20.7163 22.5464 21.088C21.9586 21.7177 21.2795 22.2866 20.5092 22.7947C19.4714 23.4571 18.3452 23.976 17.1307 24.3514C15.9162 24.7047 14.6907 24.8814 13.4541 24.8814Z"/>
</mask>
<path d="M13.4541 24.8814C11.6876 24.8814 10.0425 24.5833 8.51883 23.9871C7.01727 23.3688 5.70341 22.5186 4.57724 21.4366C3.45107 20.3546 2.5678 19.096 1.92743 17.6607C1.30914 16.2033 1 14.6355 1 12.9573C1 11.257 1.30914 9.68916 1.92743 8.25385C2.5678 6.79645 3.45107 5.52675 4.57724 4.44475C5.72549 3.36274 7.0504 2.52364 8.55195 1.92743C10.0756 1.30914 11.7096 1 13.4541 1C14.7348 1 15.9935 1.18769 17.2301 1.56308C18.4666 1.93847 19.6039 2.46843 20.6417 3.15297C21.435 3.64876 22.1293 4.21876 22.7246 4.86297C23.0666 5.23299 23.022 5.80262 22.6627 6.15577L20.2455 8.53132C19.8206 8.94885 19.131 8.89966 18.712 8.47629C18.0914 7.84921 17.4208 7.35551 16.7001 6.99519C15.7064 6.48731 14.6244 6.23337 13.4541 6.23337C12.5267 6.23337 11.6544 6.41002 10.8374 6.76333C10.0425 7.09456 9.34689 7.55827 8.75069 8.15448C8.15448 8.75069 7.69076 9.4573 7.35954 10.2743C7.02831 11.0914 6.8627 11.9857 6.8627 12.9573C6.8627 13.9068 7.02831 14.79 7.35954 15.6071C7.71285 16.402 8.1876 17.1086 8.78381 17.7269C9.4021 18.3231 10.1198 18.7868 10.9368 19.1181C11.7759 19.4493 12.6812 19.6149 13.6528 19.6149C14.779 19.6149 15.8168 19.372 16.7664 18.8862C17.4394 18.5497 18.0647 18.1019 18.6424 17.5429C19.0657 17.1332 19.746 17.0898 20.1663 17.5026L22.4894 19.7846C22.852 20.1408 22.8933 20.7163 22.5464 21.088C21.9586 21.7177 21.2795 22.2866 20.5092 22.7947C19.4714 23.4571 18.3452 23.976 17.1307 24.3514C15.9162 24.7047 14.6907 24.8814 13.4541 24.8814Z" fill="#0047BB"/>
<path d="M13.4541 24.8814C11.6876 24.8814 10.0425 24.5833 8.51883 23.9871C7.01727 23.3688 5.70341 22.5186 4.57724 21.4366C3.45107 20.3546 2.5678 19.096 1.92743 17.6607C1.30914 16.2033 1 14.6355 1 12.9573C1 11.257 1.30914 9.68916 1.92743 8.25385C2.5678 6.79645 3.45107 5.52675 4.57724 4.44475C5.72549 3.36274 7.0504 2.52364 8.55195 1.92743C10.0756 1.30914 11.7096 1 13.4541 1C14.7348 1 15.9935 1.18769 17.2301 1.56308C18.4666 1.93847 19.6039 2.46843 20.6417 3.15297C21.435 3.64876 22.1293 4.21876 22.7246 4.86297C23.0666 5.23299 23.022 5.80262 22.6627 6.15577L20.2455 8.53132C19.8206 8.94885 19.131 8.89966 18.712 8.47629C18.0914 7.84921 17.4208 7.35551 16.7001 6.99519C15.7064 6.48731 14.6244 6.23337 13.4541 6.23337C12.5267 6.23337 11.6544 6.41002 10.8374 6.76333C10.0425 7.09456 9.34689 7.55827 8.75069 8.15448C8.15448 8.75069 7.69076 9.4573 7.35954 10.2743C7.02831 11.0914 6.8627 11.9857 6.8627 12.9573C6.8627 13.9068 7.02831 14.79 7.35954 15.6071C7.71285 16.402 8.1876 17.1086 8.78381 17.7269C9.4021 18.3231 10.1198 18.7868 10.9368 19.1181C11.7759 19.4493 12.6812 19.6149 13.6528 19.6149C14.779 19.6149 15.8168 19.372 16.7664 18.8862C17.4394 18.5497 18.0647 18.1019 18.6424 17.5429C19.0657 17.1332 19.746 17.0898 20.1663 17.5026L22.4894 19.7846C22.852 20.1408 22.8933 20.7163 22.5464 21.088C21.9586 21.7177 21.2795 22.2866 20.5092 22.7947C19.4714 23.4571 18.3452 23.976 17.1307 24.3514C15.9162 24.7047 14.6907 24.8814 13.4541 24.8814Z" stroke="#0047BB" mask="url(#path-11-outside-11_0_1)"/>
</g>
</g>
<g id="COMING SOON!_2">
<g id="Vector_12">
<mask id="path-12-outside-12_0_1" maskUnits="userSpaceOnUse" x="247.839" y="1.64673" width="8" height="26" fill="black">
<rect fill="white" x="247.839" y="1.64673" width="8" height="26"/>
<path d="M250.826 18.8437C250.289 18.8437 249.849 18.4205 249.827 17.8845L249.246 3.68759C249.223 3.11975 249.677 2.64673 250.245 2.64673H253.594C254.162 2.64673 254.616 3.11975 254.593 3.68759L254.012 17.8845C253.99 18.4205 253.55 18.8437 253.013 18.8437H250.826ZM251.92 26.3625C251.08 26.3625 250.352 26.0644 249.733 25.4682C249.137 24.8499 248.839 24.1212 248.839 23.2821C248.839 22.443 249.137 21.7253 249.733 21.1291C250.352 20.5109 251.08 20.2017 251.92 20.2017C252.759 20.2017 253.476 20.5109 254.072 21.1291C254.691 21.7253 255 22.443 255 23.2821C255 24.1212 254.691 24.8499 254.072 25.4682C253.476 26.0644 252.759 26.3625 251.92 26.3625Z"/>
</mask>
<path d="M250.826 18.8437C250.289 18.8437 249.849 18.4205 249.827 17.8845L249.246 3.68759C249.223 3.11975 249.677 2.64673 250.245 2.64673H253.594C254.162 2.64673 254.616 3.11975 254.593 3.68759L254.012 17.8845C253.99 18.4205 253.55 18.8437 253.013 18.8437H250.826ZM251.92 26.3625C251.08 26.3625 250.352 26.0644 249.733 25.4682C249.137 24.8499 248.839 24.1212 248.839 23.2821C248.839 22.443 249.137 21.7253 249.733 21.1291C250.352 20.5109 251.08 20.2017 251.92 20.2017C252.759 20.2017 253.476 20.5109 254.072 21.1291C254.691 21.7253 255 22.443 255 23.2821C255 24.1212 254.691 24.8499 254.072 25.4682C253.476 26.0644 252.759 26.3625 251.92 26.3625Z" fill="#C0D8FF"/>
<path d="M250.826 18.8437C250.289 18.8437 249.849 18.4205 249.827 17.8845L249.246 3.68759C249.223 3.11975 249.677 2.64673 250.245 2.64673H253.594C254.162 2.64673 254.616 3.11975 254.593 3.68759L254.012 17.8845C253.99 18.4205 253.55 18.8437 253.013 18.8437H250.826ZM251.92 26.3625C251.08 26.3625 250.352 26.0644 249.733 25.4682C249.137 24.8499 248.839 24.1212 248.839 23.2821C248.839 22.443 249.137 21.7253 249.733 21.1291C250.352 20.5109 251.08 20.2017 251.92 20.2017C252.759 20.2017 253.476 20.5109 254.072 21.1291C254.691 21.7253 255 22.443 255 23.2821C255 24.1212 254.691 24.8499 254.072 25.4682C253.476 26.0644 252.759 26.3625 251.92 26.3625Z" stroke="#0047BB" mask="url(#path-12-outside-12_0_1)"/>
</g>
<g id="Vector_13">
<mask id="path-13-outside-13_0_1" maskUnits="userSpaceOnUse" x="223.467" y="1.81201" width="23" height="25" fill="black">
<rect fill="white" x="223.467" y="1.81201" width="23" height="25"/>
<path d="M225.467 25.9978C224.915 25.9978 224.467 25.5501 224.467 24.9978V3.81201C224.467 3.25973 224.915 2.81201 225.467 2.81201H229.346C229.654 2.81201 229.944 2.95339 230.133 3.19539L238.579 13.9779C239.165 14.7262 240.366 14.3118 240.366 13.3613V3.81201C240.366 3.25973 240.814 2.81201 241.366 2.81201H244.732C245.284 2.81201 245.732 3.25973 245.732 3.81201V24.9978C245.732 25.5501 245.284 25.9978 244.732 25.9978H241.187C240.878 25.9978 240.587 25.8552 240.397 25.6115L231.623 14.3225C231.038 13.5706 229.833 13.9839 229.833 14.9362V24.9978C229.833 25.5501 229.385 25.9978 228.833 25.9978H225.467Z"/>
</mask>
<path d="M225.467 25.9978C224.915 25.9978 224.467 25.5501 224.467 24.9978V3.81201C224.467 3.25973 224.915 2.81201 225.467 2.81201H229.346C229.654 2.81201 229.944 2.95339 230.133 3.19539L238.579 13.9779C239.165 14.7262 240.366 14.3118 240.366 13.3613V3.81201C240.366 3.25973 240.814 2.81201 241.366 2.81201H244.732C245.284 2.81201 245.732 3.25973 245.732 3.81201V24.9978C245.732 25.5501 245.284 25.9978 244.732 25.9978H241.187C240.878 25.9978 240.587 25.8552 240.397 25.6115L231.623 14.3225C231.038 13.5706 229.833 13.9839 229.833 14.9362V24.9978C229.833 25.5501 229.385 25.9978 228.833 25.9978H225.467Z" fill="#C0D8FF"/>
<path d="M225.467 25.9978C224.915 25.9978 224.467 25.5501 224.467 24.9978V3.81201C224.467 3.25973 224.915 2.81201 225.467 2.81201H229.346C229.654 2.81201 229.944 2.95339 230.133 3.19539L238.579 13.9779C239.165 14.7262 240.366 14.3118 240.366 13.3613V3.81201C240.366 3.25973 240.814 2.81201 241.366 2.81201H244.732C245.284 2.81201 245.732 3.25973 245.732 3.81201V24.9978C245.732 25.5501 245.284 25.9978 244.732 25.9978H241.187C240.878 25.9978 240.587 25.8552 240.397 25.6115L231.623 14.3225C231.038 13.5706 229.833 13.9839 229.833 14.9362V24.9978C229.833 25.5501 229.385 25.9978 228.833 25.9978H225.467Z" stroke="#0047BB" mask="url(#path-13-outside-13_0_1)"/>
</g>
<g id="Vector_14">
<mask id="path-14-outside-14_0_1" maskUnits="userSpaceOnUse" x="195.663" y="1.448" width="27" height="26" fill="black">
<rect fill="white" x="195.663" y="1.448" width="27" height="26"/>
<path d="M209.05 26.3625C207.306 26.3625 205.683 26.0644 204.181 25.4682C202.68 24.8499 201.366 23.9998 200.24 22.9178C199.114 21.8137 198.23 20.544 197.59 19.1087C196.972 17.6513 196.663 16.0835 196.663 14.4053C196.663 12.727 196.972 11.1703 197.59 9.73497C198.23 8.27757 199.114 7.00787 200.24 5.92587C201.366 4.82178 202.68 3.97164 204.181 3.37543C205.683 2.75714 207.306 2.448 209.05 2.448C210.795 2.448 212.418 2.75714 213.919 3.37543C215.421 3.97164 216.735 4.82178 217.861 5.92587C218.987 7.00787 219.859 8.27757 220.478 9.73497C221.118 11.1703 221.438 12.727 221.438 14.4053C221.438 16.0835 221.118 17.6513 220.478 19.1087C219.859 20.544 218.987 21.8137 217.861 22.9178C216.735 23.9998 215.421 24.8499 213.919 25.4682C212.418 26.0644 210.795 26.3625 209.05 26.3625ZM209.05 21.1291C209.978 21.1291 210.839 20.9635 211.634 20.6323C212.429 20.279 213.113 19.8042 213.688 19.208C214.284 18.6118 214.748 17.9052 215.079 17.0882C215.41 16.2491 215.576 15.3548 215.576 14.4053C215.576 13.4337 215.41 12.5393 215.079 11.7223C214.748 10.9053 214.284 10.1987 213.688 9.60248C213.113 9.00627 212.429 8.54256 211.634 8.21133C210.839 7.85802 209.978 7.68137 209.05 7.68137C208.123 7.68137 207.262 7.85802 206.467 8.21133C205.672 8.54256 204.976 9.00627 204.38 9.60248C203.806 10.1987 203.353 10.9053 203.022 11.7223C202.691 12.5393 202.525 13.4226 202.525 14.3721C202.525 15.3437 202.691 16.2491 203.022 17.0882C203.353 17.9052 203.806 18.6118 204.38 19.208C204.976 19.8042 205.672 20.279 206.467 20.6323C207.262 20.9635 208.123 21.1291 209.05 21.1291Z"/>
</mask>
<path d="M209.05 26.3625C207.306 26.3625 205.683 26.0644 204.181 25.4682C202.68 24.8499 201.366 23.9998 200.24 22.9178C199.114 21.8137 198.23 20.544 197.59 19.1087C196.972 17.6513 196.663 16.0835 196.663 14.4053C196.663 12.727 196.972 11.1703 197.59 9.73497C198.23 8.27757 199.114 7.00787 200.24 5.92587C201.366 4.82178 202.68 3.97164 204.181 3.37543C205.683 2.75714 207.306 2.448 209.05 2.448C210.795 2.448 212.418 2.75714 213.919 3.37543C215.421 3.97164 216.735 4.82178 217.861 5.92587C218.987 7.00787 219.859 8.27757 220.478 9.73497C221.118 11.1703 221.438 12.727 221.438 14.4053C221.438 16.0835 221.118 17.6513 220.478 19.1087C219.859 20.544 218.987 21.8137 217.861 22.9178C216.735 23.9998 215.421 24.8499 213.919 25.4682C212.418 26.0644 210.795 26.3625 209.05 26.3625ZM209.05 21.1291C209.978 21.1291 210.839 20.9635 211.634 20.6323C212.429 20.279 213.113 19.8042 213.688 19.208C214.284 18.6118 214.748 17.9052 215.079 17.0882C215.41 16.2491 215.576 15.3548 215.576 14.4053C215.576 13.4337 215.41 12.5393 215.079 11.7223C214.748 10.9053 214.284 10.1987 213.688 9.60248C213.113 9.00627 212.429 8.54256 211.634 8.21133C210.839 7.85802 209.978 7.68137 209.05 7.68137C208.123 7.68137 207.262 7.85802 206.467 8.21133C205.672 8.54256 204.976 9.00627 204.38 9.60248C203.806 10.1987 203.353 10.9053 203.022 11.7223C202.691 12.5393 202.525 13.4226 202.525 14.3721C202.525 15.3437 202.691 16.2491 203.022 17.0882C203.353 17.9052 203.806 18.6118 204.38 19.208C204.976 19.8042 205.672 20.279 206.467 20.6323C207.262 20.9635 208.123 21.1291 209.05 21.1291Z" fill="#C0D8FF"/>
<path d="M209.05 26.3625C207.306 26.3625 205.683 26.0644 204.181 25.4682C202.68 24.8499 201.366 23.9998 200.24 22.9178C199.114 21.8137 198.23 20.544 197.59 19.1087C196.972 17.6513 196.663 16.0835 196.663 14.4053C196.663 12.727 196.972 11.1703 197.59 9.73497C198.23 8.27757 199.114 7.00787 200.24 5.92587C201.366 4.82178 202.68 3.97164 204.181 3.37543C205.683 2.75714 207.306 2.448 209.05 2.448C210.795 2.448 212.418 2.75714 213.919 3.37543C215.421 3.97164 216.735 4.82178 217.861 5.92587C218.987 7.00787 219.859 8.27757 220.478 9.73497C221.118 11.1703 221.438 12.727 221.438 14.4053C221.438 16.0835 221.118 17.6513 220.478 19.1087C219.859 20.544 218.987 21.8137 217.861 22.9178C216.735 23.9998 215.421 24.8499 213.919 25.4682C212.418 26.0644 210.795 26.3625 209.05 26.3625ZM209.05 21.1291C209.978 21.1291 210.839 20.9635 211.634 20.6323C212.429 20.279 213.113 19.8042 213.688 19.208C214.284 18.6118 214.748 17.9052 215.079 17.0882C215.41 16.2491 215.576 15.3548 215.576 14.4053C215.576 13.4337 215.41 12.5393 215.079 11.7223C214.748 10.9053 214.284 10.1987 213.688 9.60248C213.113 9.00627 212.429 8.54256 211.634 8.21133C210.839 7.85802 209.978 7.68137 209.05 7.68137C208.123 7.68137 207.262 7.85802 206.467 8.21133C205.672 8.54256 204.976 9.00627 204.38 9.60248C203.806 10.1987 203.353 10.9053 203.022 11.7223C202.691 12.5393 202.525 13.4226 202.525 14.3721C202.525 15.3437 202.691 16.2491 203.022 17.0882C203.353 17.9052 203.806 18.6118 204.38 19.208C204.976 19.8042 205.672 20.279 206.467 20.6323C207.262 20.9635 208.123 21.1291 209.05 21.1291Z" stroke="#0047BB" mask="url(#path-14-outside-14_0_1)"/>
</g>
<g id="Vector_15">
<mask id="path-15-outside-15_0_1" maskUnits="userSpaceOnUse" x="168.686" y="1.448" width="27" height="26" fill="black">
<rect fill="white" x="168.686" y="1.448" width="27" height="26"/>
<path d="M182.074 26.3625C180.329 26.3625 178.706 26.0644 177.205 25.4682C175.703 24.8499 174.389 23.9998 173.263 22.9178C172.137 21.8137 171.254 20.544 170.613 19.1087C169.995 17.6513 169.686 16.0835 169.686 14.4053C169.686 12.727 169.995 11.1703 170.613 9.73497C171.254 8.27757 172.137 7.00787 173.263 5.92587C174.389 4.82178 175.703 3.97164 177.205 3.37543C178.706 2.75714 180.329 2.448 182.074 2.448C183.818 2.448 185.441 2.75714 186.943 3.37543C188.444 3.97164 189.758 4.82178 190.885 5.92587C192.011 7.00787 192.883 8.27757 193.501 9.73497C194.142 11.1703 194.462 12.727 194.462 14.4053C194.462 16.0835 194.142 17.6513 193.501 19.1087C192.883 20.544 192.011 21.8137 190.885 22.9178C189.758 23.9998 188.444 24.8499 186.943 25.4682C185.441 26.0644 183.818 26.3625 182.074 26.3625ZM182.074 21.1291C183.001 21.1291 183.862 20.9635 184.657 20.6323C185.452 20.279 186.137 19.8042 186.711 19.208C187.307 18.6118 187.771 17.9052 188.102 17.0882C188.433 16.2491 188.599 15.3548 188.599 14.4053C188.599 13.4337 188.433 12.5393 188.102 11.7223C187.771 10.9053 187.307 10.1987 186.711 9.60248C186.137 9.00627 185.452 8.54256 184.657 8.21133C183.862 7.85802 183.001 7.68137 182.074 7.68137C181.146 7.68137 180.285 7.85802 179.49 8.21133C178.695 8.54256 178 9.00627 177.404 9.60248C176.829 10.1987 176.377 10.9053 176.046 11.7223C175.714 12.5393 175.549 13.4226 175.549 14.3721C175.549 15.3437 175.714 16.2491 176.046 17.0882C176.377 17.9052 176.829 18.6118 177.404 19.208C178 19.8042 178.695 20.279 179.49 20.6323C180.285 20.9635 181.146 21.1291 182.074 21.1291Z"/>
</mask>
<path d="M182.074 26.3625C180.329 26.3625 178.706 26.0644 177.205 25.4682C175.703 24.8499 174.389 23.9998 173.263 22.9178C172.137 21.8137 171.254 20.544 170.613 19.1087C169.995 17.6513 169.686 16.0835 169.686 14.4053C169.686 12.727 169.995 11.1703 170.613 9.73497C171.254 8.27757 172.137 7.00787 173.263 5.92587C174.389 4.82178 175.703 3.97164 177.205 3.37543C178.706 2.75714 180.329 2.448 182.074 2.448C183.818 2.448 185.441 2.75714 186.943 3.37543C188.444 3.97164 189.758 4.82178 190.885 5.92587C192.011 7.00787 192.883 8.27757 193.501 9.73497C194.142 11.1703 194.462 12.727 194.462 14.4053C194.462 16.0835 194.142 17.6513 193.501 19.1087C192.883 20.544 192.011 21.8137 190.885 22.9178C189.758 23.9998 188.444 24.8499 186.943 25.4682C185.441 26.0644 183.818 26.3625 182.074 26.3625ZM182.074 21.1291C183.001 21.1291 183.862 20.9635 184.657 20.6323C185.452 20.279 186.137 19.8042 186.711 19.208C187.307 18.6118 187.771 17.9052 188.102 17.0882C188.433 16.2491 188.599 15.3548 188.599 14.4053C188.599 13.4337 188.433 12.5393 188.102 11.7223C187.771 10.9053 187.307 10.1987 186.711 9.60248C186.137 9.00627 185.452 8.54256 184.657 8.21133C183.862 7.85802 183.001 7.68137 182.074 7.68137C181.146 7.68137 180.285 7.85802 179.49 8.21133C178.695 8.54256 178 9.00627 177.404 9.60248C176.829 10.1987 176.377 10.9053 176.046 11.7223C175.714 12.5393 175.549 13.4226 175.549 14.3721C175.549 15.3437 175.714 16.2491 176.046 17.0882C176.377 17.9052 176.829 18.6118 177.404 19.208C178 19.8042 178.695 20.279 179.49 20.6323C180.285 20.9635 181.146 21.1291 182.074 21.1291Z" fill="#C0D8FF"/>
<path d="M182.074 26.3625C180.329 26.3625 178.706 26.0644 177.205 25.4682C175.703 24.8499 174.389 23.9998 173.263 22.9178C172.137 21.8137 171.254 20.544 170.613 19.1087C169.995 17.6513 169.686 16.0835 169.686 14.4053C169.686 12.727 169.995 11.1703 170.613 9.73497C171.254 8.27757 172.137 7.00787 173.263 5.92587C174.389 4.82178 175.703 3.97164 177.205 3.37543C178.706 2.75714 180.329 2.448 182.074 2.448C183.818 2.448 185.441 2.75714 186.943 3.37543C188.444 3.97164 189.758 4.82178 190.885 5.92587C192.011 7.00787 192.883 8.27757 193.501 9.73497C194.142 11.1703 194.462 12.727 194.462 14.4053C194.462 16.0835 194.142 17.6513 193.501 19.1087C192.883 20.544 192.011 21.8137 190.885 22.9178C189.758 23.9998 188.444 24.8499 186.943 25.4682C185.441 26.0644 183.818 26.3625 182.074 26.3625ZM182.074 21.1291C183.001 21.1291 183.862 20.9635 184.657 20.6323C185.452 20.279 186.137 19.8042 186.711 19.208C187.307 18.6118 187.771 17.9052 188.102 17.0882C188.433 16.2491 188.599 15.3548 188.599 14.4053C188.599 13.4337 188.433 12.5393 188.102 11.7223C187.771 10.9053 187.307 10.1987 186.711 9.60248C186.137 9.00627 185.452 8.54256 184.657 8.21133C183.862 7.85802 183.001 7.68137 182.074 7.68137C181.146 7.68137 180.285 7.85802 179.49 8.21133C178.695 8.54256 178 9.00627 177.404 9.60248C176.829 10.1987 176.377 10.9053 176.046 11.7223C175.714 12.5393 175.549 13.4226 175.549 14.3721C175.549 15.3437 175.714 16.2491 176.046 17.0882C176.377 17.9052 176.829 18.6118 177.404 19.208C178 19.8042 178.695 20.279 179.49 20.6323C180.285 20.9635 181.146 21.1291 182.074 21.1291Z" stroke="#0047BB" mask="url(#path-15-outside-15_0_1)"/>
</g>
<g id="Vector_16">
<mask id="path-16-outside-16_0_1" maskUnits="userSpaceOnUse" x="146.277" y="1.4812" width="23" height="26" fill="black">
<rect fill="white" x="146.277" y="1.4812" width="23" height="26"/>
<path d="M157.743 26.3295C155.866 26.3295 154.012 25.9872 152.179 25.3027C150.656 24.734 149.271 23.9825 148.023 23.0481C147.595 22.7282 147.532 22.1211 147.858 21.6977L149.83 19.1289C150.173 18.6824 150.816 18.6091 151.267 18.9461C152.371 19.7714 153.404 20.3887 154.365 20.798C155.557 21.2838 156.827 21.5267 158.174 21.5267C159.057 21.5267 159.808 21.4384 160.426 21.2617C161.045 21.0851 161.519 20.8311 161.851 20.4999C162.182 20.1466 162.347 19.7381 162.347 19.2744C162.347 18.634 162.104 18.1371 161.619 17.7838C161.133 17.4305 160.305 17.1545 159.135 16.9558L154.034 16.0615C152.157 15.7302 150.71 15.0126 149.695 13.9085C148.679 12.8044 148.171 11.4022 148.171 9.70193C148.171 8.20037 148.546 6.90859 149.297 5.82658C150.07 4.74458 151.163 3.91651 152.576 3.34239C154.012 2.76826 155.712 2.4812 157.677 2.4812C159.399 2.4812 161.133 2.7793 162.877 3.37551C164.291 3.84076 165.552 4.45826 166.661 5.22802C167.096 5.5298 167.175 6.12929 166.866 6.55952L165.003 9.15946C164.674 9.61907 164.031 9.71127 163.563 9.39358C161.46 7.9651 159.366 7.25085 157.28 7.25085C156.507 7.25085 155.833 7.33918 155.259 7.51584C154.707 7.67041 154.277 7.90227 153.967 8.21141C153.68 8.49847 153.537 8.85178 153.537 9.27133C153.537 9.84546 153.747 10.2871 154.166 10.5962C154.608 10.9054 155.314 11.1483 156.286 11.3249L161.089 12.1199C163.319 12.4732 165.008 13.2129 166.156 14.3391C167.327 15.4653 167.912 16.9227 167.912 18.7113C167.912 20.2791 167.503 21.6371 166.686 22.7854C165.869 23.9115 164.699 24.7837 163.175 25.402C161.652 26.0203 159.841 26.3295 157.743 26.3295Z"/>
</mask>
<path d="M157.743 26.3295C155.866 26.3295 154.012 25.9872 152.179 25.3027C150.656 24.734 149.271 23.9825 148.023 23.0481C147.595 22.7282 147.532 22.1211 147.858 21.6977L149.83 19.1289C150.173 18.6824 150.816 18.6091 151.267 18.9461C152.371 19.7714 153.404 20.3887 154.365 20.798C155.557 21.2838 156.827 21.5267 158.174 21.5267C159.057 21.5267 159.808 21.4384 160.426 21.2617C161.045 21.0851 161.519 20.8311 161.851 20.4999C162.182 20.1466 162.347 19.7381 162.347 19.2744C162.347 18.634 162.104 18.1371 161.619 17.7838C161.133 17.4305 160.305 17.1545 159.135 16.9558L154.034 16.0615C152.157 15.7302 150.71 15.0126 149.695 13.9085C148.679 12.8044 148.171 11.4022 148.171 9.70193C148.171 8.20037 148.546 6.90859 149.297 5.82658C150.07 4.74458 151.163 3.91651 152.576 3.34239C154.012 2.76826 155.712 2.4812 157.677 2.4812C159.399 2.4812 161.133 2.7793 162.877 3.37551C164.291 3.84076 165.552 4.45826 166.661 5.22802C167.096 5.5298 167.175 6.12929 166.866 6.55952L165.003 9.15946C164.674 9.61907 164.031 9.71127 163.563 9.39358C161.46 7.9651 159.366 7.25085 157.28 7.25085C156.507 7.25085 155.833 7.33918 155.259 7.51584C154.707 7.67041 154.277 7.90227 153.967 8.21141C153.68 8.49847 153.537 8.85178 153.537 9.27133C153.537 9.84546 153.747 10.2871 154.166 10.5962C154.608 10.9054 155.314 11.1483 156.286 11.3249L161.089 12.1199C163.319 12.4732 165.008 13.2129 166.156 14.3391C167.327 15.4653 167.912 16.9227 167.912 18.7113C167.912 20.2791 167.503 21.6371 166.686 22.7854C165.869 23.9115 164.699 24.7837 163.175 25.402C161.652 26.0203 159.841 26.3295 157.743 26.3295Z" fill="#C0D8FF"/>
<path d="M157.743 26.3295C155.866 26.3295 154.012 25.9872 152.179 25.3027C150.656 24.734 149.271 23.9825 148.023 23.0481C147.595 22.7282 147.532 22.1211 147.858 21.6977L149.83 19.1289C150.173 18.6824 150.816 18.6091 151.267 18.9461C152.371 19.7714 153.404 20.3887 154.365 20.798C155.557 21.2838 156.827 21.5267 158.174 21.5267C159.057 21.5267 159.808 21.4384 160.426 21.2617C161.045 21.0851 161.519 20.8311 161.851 20.4999C162.182 20.1466 162.347 19.7381 162.347 19.2744C162.347 18.634 162.104 18.1371 161.619 17.7838C161.133 17.4305 160.305 17.1545 159.135 16.9558L154.034 16.0615C152.157 15.7302 150.71 15.0126 149.695 13.9085C148.679 12.8044 148.171 11.4022 148.171 9.70193C148.171 8.20037 148.546 6.90859 149.297 5.82658C150.07 4.74458 151.163 3.91651 152.576 3.34239C154.012 2.76826 155.712 2.4812 157.677 2.4812C159.399 2.4812 161.133 2.7793 162.877 3.37551C164.291 3.84076 165.552 4.45826 166.661 5.22802C167.096 5.5298 167.175 6.12929 166.866 6.55952L165.003 9.15946C164.674 9.61907 164.031 9.71127 163.563 9.39358C161.46 7.9651 159.366 7.25085 157.28 7.25085C156.507 7.25085 155.833 7.33918 155.259 7.51584C154.707 7.67041 154.277 7.90227 153.967 8.21141C153.68 8.49847 153.537 8.85178 153.537 9.27133C153.537 9.84546 153.747 10.2871 154.166 10.5962C154.608 10.9054 155.314 11.1483 156.286 11.3249L161.089 12.1199C163.319 12.4732 165.008 13.2129 166.156 14.3391C167.327 15.4653 167.912 16.9227 167.912 18.7113C167.912 20.2791 167.503 21.6371 166.686 22.7854C165.869 23.9115 164.699 24.7837 163.175 25.402C161.652 26.0203 159.841 26.3295 157.743 26.3295Z" stroke="#0047BB" mask="url(#path-16-outside-16_0_1)"/>
</g>
<g id="Vector_17">
<mask id="path-17-outside-17_0_1" maskUnits="userSpaceOnUse" x="114.538" y="1.448" width="26" height="26" fill="black">
<rect fill="white" x="114.538" y="1.448" width="26" height="26"/>
<path d="M127.959 26.3625C126.215 26.3625 124.592 26.0644 123.09 25.4682C121.589 24.8499 120.264 23.9998 119.116 22.9178C117.989 21.8137 117.106 20.544 116.466 19.1087C115.847 17.6513 115.538 16.0835 115.538 14.4053C115.538 12.727 115.847 11.1703 116.466 9.73497C117.106 8.27757 117.978 7.00787 119.082 5.92587C120.209 4.82178 121.522 3.97164 123.024 3.37543C124.526 2.75714 126.138 2.448 127.86 2.448C129.825 2.448 131.68 2.85651 133.425 3.67353C134.866 4.33027 136.088 5.19801 137.092 6.27674C137.45 6.66111 137.395 7.25831 137.005 7.60977L134.491 9.87439C134.058 10.2639 133.39 10.1975 132.979 9.78556C132.403 9.20828 131.768 8.74978 131.073 8.41006C130.101 7.92427 129.03 7.68137 127.86 7.68137C126.932 7.68137 126.071 7.85802 125.276 8.21133C124.504 8.54256 123.819 9.00627 123.223 9.60248C122.649 10.1987 122.196 10.9053 121.865 11.7223C121.556 12.5393 121.401 13.4337 121.401 14.4053C121.401 15.3769 121.567 16.2822 121.898 17.1213C122.229 17.9383 122.693 18.656 123.289 19.2743C123.907 19.8705 124.614 20.3452 125.409 20.6985C126.226 21.0298 127.109 21.1954 128.059 21.1954C128.964 21.1954 129.781 21.0408 130.51 20.7317C131.261 20.4225 131.901 19.9919 132.431 19.4399C132.633 19.2291 132.813 19.007 132.97 18.7737C133.347 18.2143 132.871 17.5519 132.197 17.5519H128.297C127.745 17.5519 127.297 17.1042 127.297 16.5519V13.6166C127.297 13.0643 127.745 12.6166 128.297 12.6166H138.718C139.27 12.6166 139.718 13.0643 139.718 13.6166V14.2728C139.718 16.0172 139.42 17.6292 138.824 19.1087C138.249 20.5661 137.432 21.8468 136.372 22.9509C135.335 24.0329 134.098 24.872 132.663 25.4682C131.227 26.0644 129.66 26.3625 127.959 26.3625Z"/>
</mask>
<path d="M127.959 26.3625C126.215 26.3625 124.592 26.0644 123.09 25.4682C121.589 24.8499 120.264 23.9998 119.116 22.9178C117.989 21.8137 117.106 20.544 116.466 19.1087C115.847 17.6513 115.538 16.0835 115.538 14.4053C115.538 12.727 115.847 11.1703 116.466 9.73497C117.106 8.27757 117.978 7.00787 119.082 5.92587C120.209 4.82178 121.522 3.97164 123.024 3.37543C124.526 2.75714 126.138 2.448 127.86 2.448C129.825 2.448 131.68 2.85651 133.425 3.67353C134.866 4.33027 136.088 5.19801 137.092 6.27674C137.45 6.66111 137.395 7.25831 137.005 7.60977L134.491 9.87439C134.058 10.2639 133.39 10.1975 132.979 9.78556C132.403 9.20828 131.768 8.74978 131.073 8.41006C130.101 7.92427 129.03 7.68137 127.86 7.68137C126.932 7.68137 126.071 7.85802 125.276 8.21133C124.504 8.54256 123.819 9.00627 123.223 9.60248C122.649 10.1987 122.196 10.9053 121.865 11.7223C121.556 12.5393 121.401 13.4337 121.401 14.4053C121.401 15.3769 121.567 16.2822 121.898 17.1213C122.229 17.9383 122.693 18.656 123.289 19.2743C123.907 19.8705 124.614 20.3452 125.409 20.6985C126.226 21.0298 127.109 21.1954 128.059 21.1954C128.964 21.1954 129.781 21.0408 130.51 20.7317C131.261 20.4225 131.901 19.9919 132.431 19.4399C132.633 19.2291 132.813 19.007 132.97 18.7737C133.347 18.2143 132.871 17.5519 132.197 17.5519H128.297C127.745 17.5519 127.297 17.1042 127.297 16.5519V13.6166C127.297 13.0643 127.745 12.6166 128.297 12.6166H138.718C139.27 12.6166 139.718 13.0643 139.718 13.6166V14.2728C139.718 16.0172 139.42 17.6292 138.824 19.1087C138.249 20.5661 137.432 21.8468 136.372 22.9509C135.335 24.0329 134.098 24.872 132.663 25.4682C131.227 26.0644 129.66 26.3625 127.959 26.3625Z" fill="#C0D8FF"/>
<path d="M127.959 26.3625C126.215 26.3625 124.592 26.0644 123.09 25.4682C121.589 24.8499 120.264 23.9998 119.116 22.9178C117.989 21.8137 117.106 20.544 116.466 19.1087C115.847 17.6513 115.538 16.0835 115.538 14.4053C115.538 12.727 115.847 11.1703 116.466 9.73497C117.106 8.27757 117.978 7.00787 119.082 5.92587C120.209 4.82178 121.522 3.97164 123.024 3.37543C124.526 2.75714 126.138 2.448 127.86 2.448C129.825 2.448 131.68 2.85651 133.425 3.67353C134.866 4.33027 136.088 5.19801 137.092 6.27674C137.45 6.66111 137.395 7.25831 137.005 7.60977L134.491 9.87439C134.058 10.2639 133.39 10.1975 132.979 9.78556C132.403 9.20828 131.768 8.74978 131.073 8.41006C130.101 7.92427 129.03 7.68137 127.86 7.68137C126.932 7.68137 126.071 7.85802 125.276 8.21133C124.504 8.54256 123.819 9.00627 123.223 9.60248C122.649 10.1987 122.196 10.9053 121.865 11.7223C121.556 12.5393 121.401 13.4337 121.401 14.4053C121.401 15.3769 121.567 16.2822 121.898 17.1213C122.229 17.9383 122.693 18.656 123.289 19.2743C123.907 19.8705 124.614 20.3452 125.409 20.6985C126.226 21.0298 127.109 21.1954 128.059 21.1954C128.964 21.1954 129.781 21.0408 130.51 20.7317C131.261 20.4225 131.901 19.9919 132.431 19.4399C132.633 19.2291 132.813 19.007 132.97 18.7737C133.347 18.2143 132.871 17.5519 132.197 17.5519H128.297C127.745 17.5519 127.297 17.1042 127.297 16.5519V13.6166C127.297 13.0643 127.745 12.6166 128.297 12.6166H138.718C139.27 12.6166 139.718 13.0643 139.718 13.6166V14.2728C139.718 16.0172 139.42 17.6292 138.824 19.1087C138.249 20.5661 137.432 21.8468 136.372 22.9509C135.335 24.0329 134.098 24.872 132.663 25.4682C131.227 26.0644 129.66 26.3625 127.959 26.3625Z" stroke="#0047BB" mask="url(#path-17-outside-17_0_1)"/>
</g>
<g id="Vector_18">
<mask id="path-18-outside-18_0_1" maskUnits="userSpaceOnUse" x="90.2654" y="1.81201" width="23" height="25" fill="black">
<rect fill="white" x="90.2654" y="1.81201" width="23" height="25"/>
<path d="M92.2654 25.9978C91.7131 25.9978 91.2654 25.5501 91.2654 24.9978V3.81201C91.2654 3.25973 91.7131 2.81201 92.2654 2.81201H96.1443C96.4517 2.81201 96.742 2.95339 96.9315 3.19539L105.377 13.9779C105.963 14.7262 107.164 14.3118 107.164 13.3613V3.81201C107.164 3.25973 107.612 2.81201 108.164 2.81201H111.53C112.082 2.81201 112.53 3.25973 112.53 3.81201V24.9978C112.53 25.5501 112.082 25.9978 111.53 25.9978H107.985C107.676 25.9978 107.385 25.8552 107.195 25.6115L98.4208 14.3225C97.8364 13.5706 96.6312 13.9839 96.6312 14.9362V24.9978C96.6312 25.5501 96.1835 25.9978 95.6312 25.9978H92.2654Z"/>
</mask>
<path d="M92.2654 25.9978C91.7131 25.9978 91.2654 25.5501 91.2654 24.9978V3.81201C91.2654 3.25973 91.7131 2.81201 92.2654 2.81201H96.1443C96.4517 2.81201 96.742 2.95339 96.9315 3.19539L105.377 13.9779C105.963 14.7262 107.164 14.3118 107.164 13.3613V3.81201C107.164 3.25973 107.612 2.81201 108.164 2.81201H111.53C112.082 2.81201 112.53 3.25973 112.53 3.81201V24.9978C112.53 25.5501 112.082 25.9978 111.53 25.9978H107.985C107.676 25.9978 107.385 25.8552 107.195 25.6115L98.4208 14.3225C97.8364 13.5706 96.6312 13.9839 96.6312 14.9362V24.9978C96.6312 25.5501 96.1835 25.9978 95.6312 25.9978H92.2654Z" fill="#C0D8FF"/>
<path d="M92.2654 25.9978C91.7131 25.9978 91.2654 25.5501 91.2654 24.9978V3.81201C91.2654 3.25973 91.7131 2.81201 92.2654 2.81201H96.1443C96.4517 2.81201 96.742 2.95339 96.9315 3.19539L105.377 13.9779C105.963 14.7262 107.164 14.3118 107.164 13.3613V3.81201C107.164 3.25973 107.612 2.81201 108.164 2.81201H111.53C112.082 2.81201 112.53 3.25973 112.53 3.81201V24.9978C112.53 25.5501 112.082 25.9978 111.53 25.9978H107.985C107.676 25.9978 107.385 25.8552 107.195 25.6115L98.4208 14.3225C97.8364 13.5706 96.6312 13.9839 96.6312 14.9362V24.9978C96.6312 25.5501 96.1835 25.9978 95.6312 25.9978H92.2654Z" stroke="#0047BB" mask="url(#path-18-outside-18_0_1)"/>
</g>
<g id="Vector_19">
<mask id="path-19-outside-19_0_1" maskUnits="userSpaceOnUse" x="80.7234" y="1.81201" width="8" height="25" fill="black">
<rect fill="white" x="80.7234" y="1.81201" width="8" height="25"/>
<path d="M82.7234 25.9978C82.1711 25.9978 81.7234 25.5501 81.7234 24.9978V3.81201C81.7234 3.25973 82.1711 2.81201 82.7234 2.81201H86.4205C86.9728 2.81201 87.4205 3.25973 87.4205 3.81201V24.9978C87.4205 25.5501 86.9728 25.9978 86.4205 25.9978H82.7234Z"/>
</mask>
<path d="M82.7234 25.9978C82.1711 25.9978 81.7234 25.5501 81.7234 24.9978V3.81201C81.7234 3.25973 82.1711 2.81201 82.7234 2.81201H86.4205C86.9728 2.81201 87.4205 3.25973 87.4205 3.81201V24.9978C87.4205 25.5501 86.9728 25.9978 86.4205 25.9978H82.7234Z" fill="#C0D8FF"/>
<path d="M82.7234 25.9978C82.1711 25.9978 81.7234 25.5501 81.7234 24.9978V3.81201C81.7234 3.25973 82.1711 2.81201 82.7234 2.81201H86.4205C86.9728 2.81201 87.4205 3.25973 87.4205 3.81201V24.9978C87.4205 25.5501 86.9728 25.9978 86.4205 25.9978H82.7234Z" stroke="#0047BB" mask="url(#path-19-outside-19_0_1)"/>
</g>
<g id="Vector_20">
<mask id="path-20-outside-20_0_1" maskUnits="userSpaceOnUse" x="51.0295" y="1.81201" width="28" height="25" fill="black">
<rect fill="white" x="51.0295" y="1.81201" width="28" height="25"/>
<path d="M53.0295 25.9978C52.4773 25.9978 52.0295 25.5501 52.0295 24.9978V3.81201C52.0295 3.25973 52.4773 2.81201 53.0295 2.81201H58.6123C58.9842 2.81201 59.3253 3.01835 59.498 3.3477L64.0617 12.053C64.4361 12.7673 65.4586 12.7673 65.833 12.053L70.3967 3.3477C70.5694 3.01835 70.9105 2.81201 71.2824 2.81201H76.8652C77.4175 2.81201 77.8652 3.25973 77.8652 3.81201V24.9978C77.8652 25.5501 77.4175 25.9978 76.8652 25.9978H73.4993C72.947 25.9978 72.4993 25.5501 72.4993 24.9978V14.1636C72.4993 13.1248 71.1115 12.7748 70.6189 13.6894L65.7636 22.7034C65.3855 23.4052 64.3785 23.4042 64.0018 22.7017L59.1442 13.6412C58.6529 12.7247 57.2629 13.0738 57.2629 14.1137V24.9978C57.2629 25.5501 56.8152 25.9978 56.2629 25.9978H53.0295Z"/>
</mask>
<path d="M53.0295 25.9978C52.4773 25.9978 52.0295 25.5501 52.0295 24.9978V3.81201C52.0295 3.25973 52.4773 2.81201 53.0295 2.81201H58.6123C58.9842 2.81201 59.3253 3.01835 59.498 3.3477L64.0617 12.053C64.4361 12.7673 65.4586 12.7673 65.833 12.053L70.3967 3.3477C70.5694 3.01835 70.9105 2.81201 71.2824 2.81201H76.8652C77.4175 2.81201 77.8652 3.25973 77.8652 3.81201V24.9978C77.8652 25.5501 77.4175 25.9978 76.8652 25.9978H73.4993C72.947 25.9978 72.4993 25.5501 72.4993 24.9978V14.1636C72.4993 13.1248 71.1115 12.7748 70.6189 13.6894L65.7636 22.7034C65.3855 23.4052 64.3785 23.4042 64.0018 22.7017L59.1442 13.6412C58.6529 12.7247 57.2629 13.0738 57.2629 14.1137V24.9978C57.2629 25.5501 56.8152 25.9978 56.2629 25.9978H53.0295Z" fill="#C0D8FF"/>
<path d="M53.0295 25.9978C52.4773 25.9978 52.0295 25.5501 52.0295 24.9978V3.81201C52.0295 3.25973 52.4773 2.81201 53.0295 2.81201H58.6123C58.9842 2.81201 59.3253 3.01835 59.498 3.3477L64.0617 12.053C64.4361 12.7673 65.4586 12.7673 65.833 12.053L70.3967 3.3477C70.5694 3.01835 70.9105 2.81201 71.2824 2.81201H76.8652C77.4175 2.81201 77.8652 3.25973 77.8652 3.81201V24.9978C77.8652 25.5501 77.4175 25.9978 76.8652 25.9978H73.4993C72.947 25.9978 72.4993 25.5501 72.4993 24.9978V14.1636C72.4993 13.1248 71.1115 12.7748 70.6189 13.6894L65.7636 22.7034C65.3855 23.4052 64.3785 23.4042 64.0018 22.7017L59.1442 13.6412C58.6529 12.7247 57.2629 13.0738 57.2629 14.1137V24.9978C57.2629 25.5501 56.8152 25.9978 56.2629 25.9978H53.0295Z" stroke="#0047BB" mask="url(#path-20-outside-20_0_1)"/>
</g>
<g id="Vector_21">
<mask id="path-21-outside-21_0_1" maskUnits="userSpaceOnUse" x="23.2246" y="1.448" width="27" height="26" fill="black">
<rect fill="white" x="23.2246" y="1.448" width="27" height="26"/>
<path d="M36.6125 26.3625C34.868 26.3625 33.245 26.0644 31.7434 25.4682C30.2419 24.8499 28.928 23.9998 27.8018 22.9178C26.6757 21.8137 25.7924 20.544 25.152 19.1087C24.5338 17.6513 24.2246 16.0835 24.2246 14.4053C24.2246 12.727 24.5338 11.1703 25.152 9.73497C25.7924 8.27757 26.6757 7.00787 27.8018 5.92587C28.928 4.82178 30.2419 3.97164 31.7434 3.37543C33.245 2.75714 34.868 2.448 36.6125 2.448C38.3569 2.448 39.9799 2.75714 41.4815 3.37543C42.983 3.97164 44.2969 4.82178 45.4231 5.92587C46.5492 7.00787 47.4215 8.27757 48.0398 9.73497C48.6801 11.1703 49.0003 12.727 49.0003 14.4053C49.0003 16.0835 48.6801 17.6513 48.0398 19.1087C47.4215 20.544 46.5492 21.8137 45.4231 22.9178C44.2969 23.9998 42.983 24.8499 41.4815 25.4682C39.9799 26.0644 38.3569 26.3625 36.6125 26.3625ZM36.6125 21.1291C37.5399 21.1291 38.4011 20.9635 39.196 20.6323C39.991 20.279 40.6755 19.8042 41.2496 19.208C41.8458 18.6118 42.3095 17.9052 42.6408 17.0882C42.972 16.2491 43.1376 15.3548 43.1376 14.4053C43.1376 13.4337 42.972 12.5393 42.6408 11.7223C42.3095 10.9053 41.8458 10.1987 41.2496 9.60248C40.6755 9.00627 39.991 8.54256 39.196 8.21133C38.4011 7.85802 37.5399 7.68137 36.6125 7.68137C35.685 7.68137 34.8238 7.85802 34.0289 8.21133C33.234 8.54256 32.5384 9.00627 31.9422 9.60248C31.368 10.1987 30.9154 10.9053 30.5841 11.7223C30.2529 12.5393 30.0873 13.4226 30.0873 14.3721C30.0873 15.3437 30.2529 16.2491 30.5841 17.0882C30.9154 17.9052 31.368 18.6118 31.9422 19.208C32.5384 19.8042 33.234 20.279 34.0289 20.6323C34.8238 20.9635 35.685 21.1291 36.6125 21.1291Z"/>
</mask>
<path d="M36.6125 26.3625C34.868 26.3625 33.245 26.0644 31.7434 25.4682C30.2419 24.8499 28.928 23.9998 27.8018 22.9178C26.6757 21.8137 25.7924 20.544 25.152 19.1087C24.5338 17.6513 24.2246 16.0835 24.2246 14.4053C24.2246 12.727 24.5338 11.1703 25.152 9.73497C25.7924 8.27757 26.6757 7.00787 27.8018 5.92587C28.928 4.82178 30.2419 3.97164 31.7434 3.37543C33.245 2.75714 34.868 2.448 36.6125 2.448C38.3569 2.448 39.9799 2.75714 41.4815 3.37543C42.983 3.97164 44.2969 4.82178 45.4231 5.92587C46.5492 7.00787 47.4215 8.27757 48.0398 9.73497C48.6801 11.1703 49.0003 12.727 49.0003 14.4053C49.0003 16.0835 48.6801 17.6513 48.0398 19.1087C47.4215 20.544 46.5492 21.8137 45.4231 22.9178C44.2969 23.9998 42.983 24.8499 41.4815 25.4682C39.9799 26.0644 38.3569 26.3625 36.6125 26.3625ZM36.6125 21.1291C37.5399 21.1291 38.4011 20.9635 39.196 20.6323C39.991 20.279 40.6755 19.8042 41.2496 19.208C41.8458 18.6118 42.3095 17.9052 42.6408 17.0882C42.972 16.2491 43.1376 15.3548 43.1376 14.4053C43.1376 13.4337 42.972 12.5393 42.6408 11.7223C42.3095 10.9053 41.8458 10.1987 41.2496 9.60248C40.6755 9.00627 39.991 8.54256 39.196 8.21133C38.4011 7.85802 37.5399 7.68137 36.6125 7.68137C35.685 7.68137 34.8238 7.85802 34.0289 8.21133C33.234 8.54256 32.5384 9.00627 31.9422 9.60248C31.368 10.1987 30.9154 10.9053 30.5841 11.7223C30.2529 12.5393 30.0873 13.4226 30.0873 14.3721C30.0873 15.3437 30.2529 16.2491 30.5841 17.0882C30.9154 17.9052 31.368 18.6118 31.9422 19.208C32.5384 19.8042 33.234 20.279 34.0289 20.6323C34.8238 20.9635 35.685 21.1291 36.6125 21.1291Z" fill="#C0D8FF"/>
<path d="M36.6125 26.3625C34.868 26.3625 33.245 26.0644 31.7434 25.4682C30.2419 24.8499 28.928 23.9998 27.8018 22.9178C26.6757 21.8137 25.7924 20.544 25.152 19.1087C24.5338 17.6513 24.2246 16.0835 24.2246 14.4053C24.2246 12.727 24.5338 11.1703 25.152 9.73497C25.7924 8.27757 26.6757 7.00787 27.8018 5.92587C28.928 4.82178 30.2419 3.97164 31.7434 3.37543C33.245 2.75714 34.868 2.448 36.6125 2.448C38.3569 2.448 39.9799 2.75714 41.4815 3.37543C42.983 3.97164 44.2969 4.82178 45.4231 5.92587C46.5492 7.00787 47.4215 8.27757 48.0398 9.73497C48.6801 11.1703 49.0003 12.727 49.0003 14.4053C49.0003 16.0835 48.6801 17.6513 48.0398 19.1087C47.4215 20.544 46.5492 21.8137 45.4231 22.9178C44.2969 23.9998 42.983 24.8499 41.4815 25.4682C39.9799 26.0644 38.3569 26.3625 36.6125 26.3625ZM36.6125 21.1291C37.5399 21.1291 38.4011 20.9635 39.196 20.6323C39.991 20.279 40.6755 19.8042 41.2496 19.208C41.8458 18.6118 42.3095 17.9052 42.6408 17.0882C42.972 16.2491 43.1376 15.3548 43.1376 14.4053C43.1376 13.4337 42.972 12.5393 42.6408 11.7223C42.3095 10.9053 41.8458 10.1987 41.2496 9.60248C40.6755 9.00627 39.991 8.54256 39.196 8.21133C38.4011 7.85802 37.5399 7.68137 36.6125 7.68137C35.685 7.68137 34.8238 7.85802 34.0289 8.21133C33.234 8.54256 32.5384 9.00627 31.9422 9.60248C31.368 10.1987 30.9154 10.9053 30.5841 11.7223C30.2529 12.5393 30.0873 13.4226 30.0873 14.3721C30.0873 15.3437 30.2529 16.2491 30.5841 17.0882C30.9154 17.9052 31.368 18.6118 31.9422 19.208C32.5384 19.8042 33.234 20.279 34.0289 20.6323C34.8238 20.9635 35.685 21.1291 36.6125 21.1291Z" stroke="#0047BB" mask="url(#path-21-outside-21_0_1)"/>
</g>
<g id="Vector_22">
<mask id="path-22-outside-22_0_1" maskUnits="userSpaceOnUse" x="0" y="1.448" width="24" height="26" fill="black">
<rect fill="white" y="1.448" width="24" height="26"/>
<path d="M13.4541 26.3294C11.6876 26.3294 10.0425 26.0313 8.51883 25.4351C7.01727 24.8168 5.70341 23.9666 4.57724 22.8846C3.45107 21.8026 2.5678 20.544 1.92743 19.1087C1.30914 17.6513 1 16.0835 1 14.4053C1 12.705 1.30914 11.1372 1.92743 9.70185C2.5678 8.24445 3.45107 6.97475 4.57724 5.89275C5.72549 4.81074 7.0504 3.97164 8.55195 3.37543C10.0756 2.75714 11.7096 2.448 13.4541 2.448C14.7348 2.448 15.9935 2.63569 17.2301 3.01108C18.4666 3.38647 19.6039 3.91643 20.6417 4.60097C21.435 5.09675 22.1293 5.66675 22.7246 6.31097C23.0666 6.68099 23.022 7.25061 22.6627 7.60377L20.2455 9.97932C19.8206 10.3968 19.131 10.3477 18.712 9.92429C18.0914 9.29721 17.4208 8.80351 16.7001 8.44319C15.7064 7.93531 14.6244 7.68137 13.4541 7.68137C12.5267 7.68137 11.6544 7.85802 10.8374 8.21133C10.0425 8.54256 9.34689 9.00627 8.75069 9.60248C8.15448 10.1987 7.69076 10.9053 7.35954 11.7223C7.02831 12.5393 6.8627 13.4337 6.8627 14.4053C6.8627 15.3548 7.02831 16.238 7.35954 17.0551C7.71285 17.85 8.1876 18.5566 8.78381 19.1749C9.4021 19.7711 10.1198 20.2348 10.9368 20.5661C11.7759 20.8973 12.6812 21.0629 13.6528 21.0629C14.779 21.0629 15.8168 20.82 16.7664 20.3342C17.4394 19.9977 18.0647 19.5499 18.6424 18.9909C19.0657 18.5812 19.746 18.5378 20.1663 18.9506L22.4894 21.2326C22.852 21.5888 22.8933 22.1643 22.5464 22.536C21.9586 23.1657 21.2795 23.7346 20.5092 24.2427C19.4714 24.9051 18.3452 25.424 17.1307 25.7994C15.9162 26.1527 14.6907 26.3294 13.4541 26.3294Z"/>
</mask>
<path d="M13.4541 26.3294C11.6876 26.3294 10.0425 26.0313 8.51883 25.4351C7.01727 24.8168 5.70341 23.9666 4.57724 22.8846C3.45107 21.8026 2.5678 20.544 1.92743 19.1087C1.30914 17.6513 1 16.0835 1 14.4053C1 12.705 1.30914 11.1372 1.92743 9.70185C2.5678 8.24445 3.45107 6.97475 4.57724 5.89275C5.72549 4.81074 7.0504 3.97164 8.55195 3.37543C10.0756 2.75714 11.7096 2.448 13.4541 2.448C14.7348 2.448 15.9935 2.63569 17.2301 3.01108C18.4666 3.38647 19.6039 3.91643 20.6417 4.60097C21.435 5.09675 22.1293 5.66675 22.7246 6.31097C23.0666 6.68099 23.022 7.25061 22.6627 7.60377L20.2455 9.97932C19.8206 10.3968 19.131 10.3477 18.712 9.92429C18.0914 9.29721 17.4208 8.80351 16.7001 8.44319C15.7064 7.93531 14.6244 7.68137 13.4541 7.68137C12.5267 7.68137 11.6544 7.85802 10.8374 8.21133C10.0425 8.54256 9.34689 9.00627 8.75069 9.60248C8.15448 10.1987 7.69076 10.9053 7.35954 11.7223C7.02831 12.5393 6.8627 13.4337 6.8627 14.4053C6.8627 15.3548 7.02831 16.238 7.35954 17.0551C7.71285 17.85 8.1876 18.5566 8.78381 19.1749C9.4021 19.7711 10.1198 20.2348 10.9368 20.5661C11.7759 20.8973 12.6812 21.0629 13.6528 21.0629C14.779 21.0629 15.8168 20.82 16.7664 20.3342C17.4394 19.9977 18.0647 19.5499 18.6424 18.9909C19.0657 18.5812 19.746 18.5378 20.1663 18.9506L22.4894 21.2326C22.852 21.5888 22.8933 22.1643 22.5464 22.536C21.9586 23.1657 21.2795 23.7346 20.5092 24.2427C19.4714 24.9051 18.3452 25.424 17.1307 25.7994C15.9162 26.1527 14.6907 26.3294 13.4541 26.3294Z" fill="#C0D8FF"/>
<path d="M13.4541 26.3294C11.6876 26.3294 10.0425 26.0313 8.51883 25.4351C7.01727 24.8168 5.70341 23.9666 4.57724 22.8846C3.45107 21.8026 2.5678 20.544 1.92743 19.1087C1.30914 17.6513 1 16.0835 1 14.4053C1 12.705 1.30914 11.1372 1.92743 9.70185C2.5678 8.24445 3.45107 6.97475 4.57724 5.89275C5.72549 4.81074 7.0504 3.97164 8.55195 3.37543C10.0756 2.75714 11.7096 2.448 13.4541 2.448C14.7348 2.448 15.9935 2.63569 17.2301 3.01108C18.4666 3.38647 19.6039 3.91643 20.6417 4.60097C21.435 5.09675 22.1293 5.66675 22.7246 6.31097C23.0666 6.68099 23.022 7.25061 22.6627 7.60377L20.2455 9.97932C19.8206 10.3968 19.131 10.3477 18.712 9.92429C18.0914 9.29721 17.4208 8.80351 16.7001 8.44319C15.7064 7.93531 14.6244 7.68137 13.4541 7.68137C12.5267 7.68137 11.6544 7.85802 10.8374 8.21133C10.0425 8.54256 9.34689 9.00627 8.75069 9.60248C8.15448 10.1987 7.69076 10.9053 7.35954 11.7223C7.02831 12.5393 6.8627 13.4337 6.8627 14.4053C6.8627 15.3548 7.02831 16.238 7.35954 17.0551C7.71285 17.85 8.1876 18.5566 8.78381 19.1749C9.4021 19.7711 10.1198 20.2348 10.9368 20.5661C11.7759 20.8973 12.6812 21.0629 13.6528 21.0629C14.779 21.0629 15.8168 20.82 16.7664 20.3342C17.4394 19.9977 18.0647 19.5499 18.6424 18.9909C19.0657 18.5812 19.746 18.5378 20.1663 18.9506L22.4894 21.2326C22.852 21.5888 22.8933 22.1643 22.5464 22.536C21.9586 23.1657 21.2795 23.7346 20.5092 24.2427C19.4714 24.9051 18.3452 25.424 17.1307 25.7994C15.9162 26.1527 14.6907 26.3294 13.4541 26.3294Z" stroke="#0047BB" mask="url(#path-22-outside-22_0_1)"/>
</g>
</g>
</g>
</g>
</svg>
