<svg width="213" height="51" viewBox="0 0 213 51" fill="none" xmlns="http://www.w3.org/2000/svg">
<path d="M212.752 28.6329C212.65 29.1759 212.588 29.719 212.455 30.2518C211.829 32.7929 209.951 34.4527 207.334 34.6269C205.405 34.7499 203.465 34.6986 201.536 34.7294C201.084 34.7294 200.633 34.7089 200.181 34.7294C199.801 34.7499 199.668 34.5859 199.699 34.2273V17.1674C199.699 16.7063 199.935 16.4707 200.407 16.4707C202.326 16.4707 204.245 16.4604 206.164 16.4707C207.036 16.4707 207.909 16.5731 208.781 16.9112C208.709 17.0444 208.658 17.1469 208.586 17.2494C208.073 17.9359 207.539 18.6121 207.026 19.3088C206.862 19.524 206.687 19.5855 206.41 19.5753C205.466 19.5445 204.522 19.5445 203.578 19.5343C203.239 19.5343 203.239 19.7494 203.239 19.9851V31.01C203.239 31.6658 203.239 31.676 203.917 31.6658C204.871 31.6555 205.836 31.6863 206.79 31.5838C207.867 31.4711 208.586 30.8051 208.863 29.7805C209.068 29.012 209.202 28.2025 209.212 27.4136C209.263 25.4053 209.232 23.3868 209.232 21.3683C209.232 20.8355 209.202 20.815 208.668 20.9585C208.083 21.1122 207.498 21.2761 206.913 21.4298C206.893 21.4298 206.862 21.4093 206.811 21.3888C206.852 21.3068 206.882 21.2146 206.944 21.1429C208.832 18.6428 210.71 16.1428 212.598 13.653C212.639 13.6017 212.691 13.5505 212.742 13.489V28.6227L212.752 28.6329Z" fill="white"/>
<path d="M36.931 37.0963C35.7406 36.42 34.6015 35.836 33.5445 35.1392C32.8364 34.6782 32.3028 34.7089 31.5742 35.1392C28.865 36.7479 26.1147 38.2643 23.3849 39.832C23.1181 39.9857 22.9232 39.9857 22.6564 39.8422C15.7192 36.1741 8.78191 32.5162 1.83444 28.8583C1.44448 28.6534 1.04426 28.469 0.685086 28.2333C0.531153 28.1309 0.377234 27.8952 0.377234 27.7108C0.356709 22.9873 0.366952 18.274 0.356689 13.5505C0.356689 13.2534 0.479883 13.0894 0.726174 12.946C8.04308 8.74505 15.3497 4.53388 22.6666 0.312449C22.9027 0.169002 23.1079 0.138243 23.3747 0.291936C29.3884 3.75515 35.4122 7.21839 41.4361 10.6611C41.7953 10.866 41.9492 11.0914 41.9492 11.5218C41.9184 13.1714 41.9389 14.821 41.9389 16.4707V17.0342C41.7234 16.9317 41.6003 16.8805 41.4874 16.819C35.4943 13.3968 29.5012 9.98485 23.5081 6.55238C23.1797 6.36794 22.9334 6.34745 22.5845 6.55238C17.1251 9.71845 11.6554 12.864 6.18564 15.9994C5.83673 16.194 5.73411 16.4297 5.73411 16.8088C5.74437 19.2986 5.74437 21.7987 5.73411 24.2885C5.73411 24.6881 5.86748 24.8828 6.2164 25.0673C11.7066 27.9669 17.1969 30.8666 22.6769 33.7867C22.9437 33.9302 23.1592 33.9404 23.426 33.7867C24.6267 33.0798 25.8376 32.383 27.0485 31.676C27.0896 31.6453 27.1307 31.6043 27.2128 31.5326C26.3405 31.0305 25.499 30.549 24.6575 30.0776C21.1273 28.0591 17.5971 26.0406 14.067 24.0426C13.8001 23.8889 13.6873 23.7147 13.6873 23.4073C13.6975 21.6348 13.7078 19.8622 13.6873 18.0793C13.6873 17.7412 13.8207 17.5465 14.108 17.3826C16.8993 15.7944 19.7008 14.196 22.4819 12.5771C22.8924 12.3415 23.2105 12.3312 23.6415 12.5771C29.5833 16.0096 35.5251 19.4216 41.4771 22.8336C41.7952 23.018 41.9389 23.2127 41.9389 23.5918C41.9184 25.3234 41.9184 27.055 41.9389 28.7866C41.9389 29.1452 41.8261 29.3501 41.5079 29.5243C40.533 30.0571 39.5684 30.6207 38.5935 31.1637C38.3985 31.2764 38.2138 31.3891 37.9469 31.5531C38.7782 32.0347 39.5479 32.4752 40.3073 32.9158C40.7486 33.172 41.2001 33.3974 41.6208 33.6843C41.7747 33.7867 41.9287 34.0327 41.9287 34.2171C41.9492 36.0512 41.9287 37.875 41.9492 39.709C41.9492 40.0779 41.826 40.2931 41.4977 40.4775C37.0131 43.0186 32.5388 45.5596 28.0645 48.1109C26.5149 48.9921 24.9654 49.863 23.426 50.7544C23.1284 50.9286 22.9027 50.9286 22.6051 50.7647C17.7203 48.1724 12.8252 45.5801 7.94043 42.9981C5.56987 41.7481 3.20959 40.4775 0.828771 39.2377C0.49012 39.0635 0.366972 38.8586 0.377234 38.4795C0.397758 36.8914 0.377244 35.2929 0.387506 33.7048C0.387506 33.5511 0.407998 33.4076 0.41826 33.1822C0.623503 33.2642 0.777488 33.3154 0.921158 33.3974C5.82646 35.9897 10.7317 38.582 15.6268 41.1743C17.9871 42.4243 20.3474 43.6641 22.6974 44.9243C22.9745 45.0678 23.1798 45.0473 23.4363 44.8936C26.8433 42.9263 30.2606 40.9591 33.6676 38.9918C34.622 38.4385 35.5764 37.8955 36.5308 37.3422C36.6436 37.2704 36.7566 37.1885 36.9515 37.0655L36.931 37.0963ZM36.541 26.1943C35.915 25.8357 35.4019 25.5386 34.8888 25.2414C31.0611 23.0487 27.223 20.8561 23.3952 18.6531C23.1181 18.4892 22.8924 18.4994 22.6153 18.6634C21.7533 19.1962 20.8707 19.6982 19.9985 20.2208C19.7214 20.3847 19.4546 20.5384 19.1056 20.7434C19.5161 20.9893 19.8548 21.1839 20.1934 21.3786C24.1854 23.6738 28.1774 25.9587 32.1591 28.2641C32.4567 28.4382 32.6928 28.4382 32.9801 28.2641C33.5548 27.9157 34.1499 27.5878 34.7349 27.2497C35.2993 26.9218 35.874 26.5939 36.541 26.2046V26.1943Z" fill="white"/>
<path d="M186.491 23.6329V34.1558C186.491 34.7193 186.491 34.7296 185.927 34.7296H183.474C183.136 34.7296 182.992 34.6373 182.992 34.2685V16.9012C182.992 16.5631 183.115 16.4503 183.444 16.4606C184.295 16.4708 185.137 16.4811 185.989 16.4606C186.368 16.4503 186.574 16.5938 186.758 16.9114C188.811 20.4156 190.873 23.9096 192.936 27.4036C192.987 27.4855 193.039 27.5675 193.162 27.6392V17.0549C193.162 16.4709 193.162 16.4606 193.747 16.4606H196.076C196.641 16.4606 196.651 16.4709 196.651 17.0242V30.9692C196.651 32.0348 196.641 33.1107 196.651 34.1763C196.651 34.5656 196.548 34.7296 196.128 34.7193C195.286 34.6886 194.434 34.6988 193.583 34.7193C193.254 34.7193 193.069 34.6066 192.905 34.33C190.873 30.8667 188.821 27.4138 186.779 23.9506C186.707 23.8276 186.635 23.7149 186.553 23.6022C186.522 23.6022 186.491 23.6227 186.461 23.6329H186.491Z" fill="white"/>
<path d="M77.1894 26.8399C78.5029 29.4527 79.7959 32.0348 81.13 34.6988C80.894 34.709 80.7606 34.7295 80.6272 34.7295C79.6112 34.7295 78.5952 34.7193 77.5793 34.7295C77.2406 34.7295 77.0457 34.6271 76.8917 34.3094C75.9271 32.2295 74.9316 30.1597 73.9875 28.0592C73.7515 27.5367 73.4847 27.2703 72.8895 27.3523C72.4585 27.4035 72.0172 27.383 71.5759 27.3523C71.186 27.3318 71.0628 27.4855 71.0628 27.8646C71.0731 29.9343 71.0628 32.004 71.0628 34.0738C71.0628 34.4939 70.8576 34.709 70.4369 34.7193C69.6467 34.7193 68.8565 34.709 68.0663 34.7193C67.7071 34.7193 67.5635 34.6168 67.5635 34.2377V16.9114C67.5635 16.563 67.6968 16.4503 68.0355 16.4503C70.2419 16.4503 72.438 16.4401 74.6443 16.4606C75.6808 16.4708 76.6968 16.645 77.6306 17.1368C78.9852 17.8438 79.8883 18.9197 80.2064 20.4156C80.5758 22.1267 80.4835 23.8071 79.3239 25.2313C78.8928 25.7641 78.2566 26.133 77.7025 26.5531C77.5588 26.6658 77.3843 26.717 77.1688 26.8195L77.1894 26.8399ZM73.0537 24.4014C73.5873 24.4014 74.1312 24.4218 74.6649 24.4014C75.9887 24.3399 76.8096 23.469 76.8815 22.1062C76.9533 20.7742 76.1734 19.7394 74.8804 19.6164C73.731 19.5139 72.5714 19.5549 71.422 19.5344C71.1654 19.5344 71.0731 19.6676 71.0731 19.9033V24.0428C71.0731 24.3092 71.186 24.4219 71.4528 24.4116H73.064H73.0537V24.4014Z" fill="white"/>
<path d="M97.2313 25.5796V17.0445C97.2313 16.4809 97.2416 16.4707 97.7957 16.4707C99.7969 16.4707 101.808 16.44 103.809 16.4707C105.318 16.5014 106.744 16.8088 107.986 17.7412C109.156 18.6121 109.731 19.8212 110.008 21.1942C110.121 21.768 110.203 22.3623 110.203 22.9565C110.223 24.7701 110.244 26.5939 110.203 28.4075C110.162 29.9239 109.823 31.3789 108.828 32.588C107.812 33.8278 106.436 34.5142 104.866 34.6167C103.04 34.7396 101.203 34.6987 99.3659 34.7192C98.8323 34.7192 98.2884 34.6987 97.7547 34.7192C97.3545 34.7397 97.2211 34.5962 97.2211 34.1864C97.2313 31.3174 97.2211 28.4382 97.2211 25.5693H97.2313V25.5796ZM100.72 25.5591V31.215C100.72 31.5224 100.792 31.676 101.141 31.676C102.044 31.6555 102.947 31.6966 103.85 31.6658C104.723 31.6351 105.482 31.3277 105.995 30.5797C106.549 29.7805 106.693 28.8583 106.714 27.9259C106.744 26.4095 106.755 24.8828 106.714 23.3664C106.693 22.7516 106.59 22.1266 106.426 21.5426C106.108 20.4052 105.359 19.688 104.148 19.5958C103.183 19.524 102.209 19.5548 101.234 19.5138C100.844 19.4933 100.731 19.647 100.731 20.0261C100.751 21.8704 100.731 23.7147 100.731 25.5591H100.72Z" fill="white"/>
<path d="M83.1619 25.5796V17.0855C83.1619 16.6688 83.3604 16.4604 83.7572 16.4604H94.1835C94.5872 16.4604 94.789 16.6654 94.789 17.0752V18.8888C94.789 19.3089 94.5735 19.5138 94.1425 19.5138H87.3182C86.8769 19.5138 86.6614 19.729 86.6511 20.1696V23.3766C86.6511 23.7728 86.8461 23.9709 87.236 23.9709H93.0034C93.4002 23.9709 93.5986 24.1656 93.5986 24.555V26.4607C93.5986 27.0243 93.5985 27.0345 93.0341 27.0345H87.2258C86.8427 27.0345 86.6511 27.219 86.6511 27.5878C86.6511 28.7661 86.6614 29.9547 86.6511 31.133C86.6511 31.5326 86.7743 31.6658 87.1847 31.6658C89.5245 31.6453 91.8745 31.6658 94.2143 31.6658C94.7787 31.6658 94.789 31.6658 94.789 32.2294V34.2991C94.789 34.6065 94.6761 34.7294 94.3682 34.7294H83.5622C83.162 34.7294 83.1517 34.4938 83.1517 34.2069V25.5898H83.1619V25.5796Z" fill="white"/>
<path d="M174.71 34.7191H169.456C169.056 34.7191 168.912 34.6064 168.912 34.1966C168.923 28.4485 168.923 22.7004 168.912 16.9522C168.912 16.5526 169.056 16.4502 169.436 16.4502C172.966 16.4502 176.496 16.4604 180.026 16.4502C180.437 16.4502 180.57 16.5834 180.56 16.983C180.529 17.6592 180.539 18.3355 180.56 19.0117C180.57 19.4113 180.416 19.5138 180.037 19.5138C177.717 19.5036 175.408 19.5138 173.089 19.5138C172.648 19.5138 172.422 19.729 172.422 20.1593C172.422 21.2557 172.432 22.352 172.422 23.4586C172.422 23.8684 172.566 23.9914 172.966 23.9812C174.916 23.9607 176.866 23.9811 178.815 23.9709C179.236 23.9709 179.4 24.0836 179.38 24.5139C179.349 25.1697 179.349 25.8357 179.38 26.5017C179.4 26.9525 179.216 27.0448 178.805 27.0448C176.866 27.0243 174.936 27.0448 172.997 27.0448C172.62 27.0448 172.432 27.2326 172.432 27.6083C172.432 28.8071 172.443 30.0059 172.432 31.2047C172.432 31.5736 172.555 31.6863 172.925 31.6863C175.285 31.676 177.645 31.6863 179.996 31.6863C180.372 31.6863 180.56 31.8741 180.56 32.2498C180.56 32.9158 180.539 33.5716 180.56 34.2376C180.57 34.6269 180.427 34.7499 180.047 34.7499C178.271 34.7396 176.486 34.7499 174.71 34.7499V34.7191Z" fill="white"/>
<path d="M148.87 21.7065C148.46 21.7065 148.05 21.6963 147.639 21.7065C147.321 21.7168 147.188 21.5835 147.146 21.2762C147.064 20.5589 146.808 19.9134 146.131 19.565C144.981 18.9912 143.791 18.9708 142.682 19.6265C141.379 20.4052 141.43 22.5569 142.806 23.2127C143.534 23.5713 144.386 23.684 145.197 23.8889C146.059 24.1041 146.951 24.2168 147.783 24.514C149.866 25.2824 150.892 26.8501 150.902 29.0633C150.902 29.9649 150.82 30.8359 150.461 31.6658C149.835 33.131 148.676 34.0122 147.198 34.4733C145.505 35.0061 143.77 35.0573 142.056 34.5962C139.788 33.9917 138.506 32.4548 138.085 30.1801C137.89 29.1247 137.911 29.1247 138.988 29.1247H140.856C141.133 29.1247 141.276 29.1965 141.348 29.5038C141.759 31.2354 142.549 31.8605 144.345 31.84C144.94 31.84 145.556 31.7375 146.131 31.5941C146.705 31.4506 147.116 31.0305 147.28 30.4465C147.639 29.1862 147.465 27.7005 145.741 27.2804C144.868 27.0652 143.965 26.9423 143.083 26.7681C141.944 26.5529 140.866 26.1943 139.953 25.4464C138.608 24.3398 138.249 22.8336 138.372 21.1942C138.619 17.9359 141.153 16.4912 143.493 16.2658C144.961 16.1223 146.377 16.2145 147.701 16.8908C149.476 17.7924 150.287 19.3294 150.543 21.2249C150.595 21.5836 150.441 21.7065 150.092 21.6963C149.681 21.6758 149.271 21.6963 148.86 21.6963H148.87V21.7065Z" fill="white"/>
<path d="M156.742 25.6105C156.742 26.7171 156.711 27.8339 156.762 28.9405C156.783 29.3606 156.937 29.7909 157.09 30.2008C157.357 30.877 157.84 31.4201 158.548 31.5635C159.256 31.707 160.015 31.7992 160.713 31.6865C162.027 31.4815 162.786 30.5082 162.827 29.1659C162.837 28.7766 162.95 28.6126 163.371 28.6331C164.171 28.6638 164.982 28.6331 165.782 28.6331C166.296 28.6331 166.316 28.6536 166.316 29.1966C166.316 32.1271 164.469 34.2992 161.503 34.7911C159.943 35.0472 158.373 35.037 156.865 34.4939C155.1 33.8689 154.002 32.5984 153.529 30.836C153.283 29.9241 153.15 28.9507 153.109 28.0081C153.037 26.4097 153.057 24.801 153.109 23.1924C153.129 22.4239 153.222 21.6452 153.376 20.887C153.94 18.2332 155.736 16.6348 158.455 16.3069C159.902 16.1327 161.329 16.2045 162.714 16.6963C164.828 17.4442 166.193 19.2681 166.326 21.512C166.367 22.1678 166.06 22.4956 165.393 22.4956C164.725 22.4956 164.007 22.4854 163.32 22.4956C162.981 22.4956 162.847 22.3829 162.827 22.0345C162.755 20.8767 162.293 19.9341 161.123 19.555C159.851 19.1554 158.548 19.0939 157.562 20.2005C157.203 20.6103 156.926 21.2046 156.854 21.7374C156.69 23.0182 156.659 24.3092 156.577 25.6002H156.742V25.6105Z" fill="white"/>
<path d="M55.2181 25.6103C55.3002 26.8603 55.2899 28.1206 55.4849 29.3501C55.7415 31.0202 56.7369 31.7477 58.4302 31.7682C59.5077 31.7784 60.4826 31.5633 61.047 30.5592C61.283 30.1288 61.3959 29.6165 61.4575 29.1247C61.5088 28.7353 61.6217 28.6226 62.0014 28.6329C62.8326 28.6534 63.6638 28.6534 64.5053 28.6329C64.8542 28.6329 64.9671 28.7558 64.9671 29.1042C64.9877 32.0039 63.2329 34.1761 60.3697 34.7498C59.0972 35.006 57.8041 35.006 56.5419 34.7704C54.0585 34.3093 52.4781 32.7006 51.9958 30.1391C51.8418 29.3091 51.77 28.4689 51.7495 27.6288C51.7084 26.184 51.7187 24.7291 51.7495 23.2741C51.7803 22.0651 51.9137 20.8663 52.3857 19.7187C53.1246 17.9154 54.4792 16.8498 56.3572 16.4399C57.9683 16.0813 59.5897 16.0813 61.1599 16.6243C63.4483 17.4133 64.7516 19.022 64.9774 21.4503C65.039 22.1334 64.7277 22.4749 64.0435 22.4749C63.3662 22.4749 62.6889 22.4544 62.0116 22.4749C61.6319 22.4852 61.4882 22.3622 61.478 21.9728C61.4369 20.7535 60.7494 19.8007 59.6719 19.483C58.4404 19.1244 56.8395 19.2679 56.0904 20.2925C55.6593 20.8765 55.4439 21.563 55.4131 22.2597C55.3618 23.3663 55.4028 24.4832 55.4028 25.5897H55.2386L55.2181 25.6103Z" fill="white"/>
<path d="M126.489 27.1167V34.1763C126.489 34.5964 126.376 34.7501 125.935 34.7398C125.134 34.7091 124.323 34.7091 123.523 34.7398C123.092 34.7501 122.969 34.5964 122.969 34.1763C122.979 29.586 122.969 24.9957 122.969 20.3952C122.969 20.2722 122.959 20.139 122.969 20.016C123 19.6574 122.856 19.514 122.487 19.5242C121.286 19.5345 120.085 19.5242 118.884 19.5242C118.33 19.5242 118.31 19.514 118.31 18.9607V17.0139C118.31 16.4913 118.33 16.4708 118.864 16.4708H129.455C129.865 16.4708 130.275 16.4811 130.686 16.4708C131.004 16.4606 131.148 16.5733 131.137 16.9114C131.117 17.6287 131.117 18.3459 131.137 19.0631C131.137 19.4115 131.014 19.5344 130.665 19.5344C129.475 19.5242 128.295 19.5344 127.104 19.5344C126.684 19.5344 126.468 19.7394 126.468 20.1492V27.1269H126.489V27.1167Z" fill="white"/>
<path d="M116.483 25.6002V34.1353C116.483 34.5247 116.288 34.7193 115.898 34.7193C115.098 34.7193 114.287 34.7091 113.487 34.7193C113.127 34.7193 112.984 34.6169 112.984 34.2378V16.9217C112.984 16.5733 113.107 16.4504 113.456 16.4504C114.308 16.4606 115.149 16.4709 116.001 16.4504C116.401 16.4402 116.504 16.6041 116.504 16.9729C116.493 19.8419 116.504 22.7211 116.504 25.59H116.483V25.6002Z" fill="white"/>
</svg>
