<svg width="37" height="38" viewBox="0 0 37 38" fill="none" xmlns="http://www.w3.org/2000/svg">
<path d="M31.2161 8.79458C28.8659 7.77592 26.3456 7.02541 23.7104 6.59555C23.6624 6.58726 23.6145 6.60799 23.5898 6.64946C23.2656 7.19403 22.9066 7.90447 22.6552 8.46286C19.8209 8.06203 17.0012 8.06203 14.225 8.46286C13.9736 7.89203 13.6015 7.19403 13.2759 6.64946C13.2512 6.60937 13.2032 6.58864 13.1553 6.59555C10.5216 7.02402 8.00126 7.77454 5.64954 8.79458C5.62919 8.80288 5.61175 8.8167 5.60013 8.83467C0.819651 15.581 -0.489928 22.1615 0.152507 28.6605C0.155414 28.6923 0.174309 28.7227 0.200472 28.7421C3.35451 30.93 6.40971 32.2583 9.40823 33.1387C9.45619 33.1526 9.50706 33.136 9.53759 33.0986C10.2469 32.1837 10.8791 31.2189 11.4213 30.2044C11.4533 30.145 11.4227 30.0745 11.3573 30.051C10.3544 29.6916 9.39951 29.2535 8.48091 28.7559C8.40824 28.7158 8.40242 28.6177 8.46928 28.5707C8.66259 28.4338 8.85591 28.2915 9.0405 28.1477C9.07393 28.1215 9.12044 28.1159 9.15968 28.1325C15.1945 30.7351 21.7279 30.7351 27.6915 28.1325C27.7307 28.1145 27.7772 28.1201 27.8121 28.1463C27.9967 28.2901 28.19 28.4338 28.3848 28.5707C28.4516 28.6177 28.4473 28.7158 28.3746 28.7559C27.456 29.2631 26.5011 29.6916 25.4967 30.0496C25.4313 30.0731 25.4022 30.145 25.4342 30.2044C25.988 31.2175 26.6203 32.1823 27.3165 33.0973C27.3455 33.136 27.3979 33.1526 27.4458 33.1387C30.4589 32.2583 33.5141 30.93 36.6681 28.7421C36.6957 28.7227 36.7132 28.6937 36.7161 28.6619C37.485 21.1484 35.4283 14.6218 31.2641 8.83605C31.2539 8.8167 31.2365 8.80288 31.2161 8.79458ZM12.3224 24.7034C10.5056 24.7034 9.00852 23.1277 9.00852 21.1926C9.00852 19.2576 10.4765 17.6819 12.3224 17.6819C14.1829 17.6819 15.6654 19.2714 15.6364 21.1926C15.6364 23.1277 14.1684 24.7034 12.3224 24.7034ZM24.5752 24.7034C22.7584 24.7034 21.2613 23.1277 21.2613 21.1926C21.2613 19.2576 22.7293 17.6819 24.5752 17.6819C26.4357 17.6819 27.9182 19.2714 27.8891 21.1926C27.8891 23.1277 26.4357 24.7034 24.5752 24.7034Z" fill="#029CBE"/>
</svg>
