<svg width="317" height="260" viewBox="0 0 317 260" fill="none" xmlns="http://www.w3.org/2000/svg">
<path d="M140.968 13.9839H18.1488C8.67776 13.9839 1 21.6262 1 31.0534V111.075C1 120.503 8.67776 128.145 18.1488 128.145H140.968C150.439 128.145 158.117 120.503 158.117 111.075V31.0534C158.117 21.6262 150.439 13.9839 140.968 13.9839Z" fill="#A3ECE5" stroke="#00C9B8" stroke-miterlimit="10"/>
<path d="M140.968 1H18.1488C8.67776 1 1 8.6423 1 18.0695V98.0916C1 107.519 8.67776 115.161 18.1488 115.161H140.968C150.439 115.161 158.117 107.519 158.117 98.0916V18.0695C158.117 8.6423 150.439 1 140.968 1Z" fill="#CCF4F1" stroke="#00C9B8" stroke-miterlimit="10"/>
<path d="M180.022 13.9839H176.695C168.847 13.9839 162.484 20.3168 162.484 28.1288V114C162.484 121.812 168.847 128.145 176.695 128.145H180.022C187.87 128.145 194.232 121.812 194.232 114V28.1288C194.232 20.3168 187.87 13.9839 180.022 13.9839Z" fill="#A3ECE5" stroke="#00C9B8" stroke-miterlimit="10"/>
<path d="M180.022 1H176.695C168.847 1 162.484 7.33291 162.484 15.145V101.016C162.484 108.828 168.847 115.161 176.695 115.161H180.022C187.87 115.161 194.232 108.828 194.232 101.016V15.145C194.232 7.33291 187.87 1 180.022 1Z" fill="#CCF4F1" stroke="#00C9B8" stroke-miterlimit="10"/>
<path d="M212.707 13.9839H210.043C203.723 13.9839 198.599 19.0839 198.599 25.375V116.754C198.599 123.045 203.723 128.145 210.043 128.145H212.707C219.027 128.145 224.151 123.045 224.151 116.754V25.375C224.151 19.0839 219.027 13.9839 212.707 13.9839Z" fill="#A3ECE5" stroke="#00C9B8" stroke-miterlimit="10"/>
<path d="M212.707 1H210.043C203.723 1 198.599 6.09997 198.599 12.3911V103.77C198.599 110.061 203.723 115.161 210.043 115.161H212.707C219.027 115.161 224.151 110.061 224.151 103.77V12.3911C224.151 6.09997 219.027 1 212.707 1Z" fill="#CCF4F1" stroke="#00C9B8" stroke-miterlimit="10"/>
<path d="M241.791 13.9839H239.276C233.341 13.9839 228.53 18.7731 228.53 24.6808V117.448C228.53 123.356 233.341 128.145 239.276 128.145H241.791C247.727 128.145 252.538 123.356 252.538 117.448V24.6808C252.538 18.7731 247.727 13.9839 241.791 13.9839Z" fill="#A3ECE5" stroke="#00C9B8" stroke-miterlimit="10"/>
<path d="M241.791 1H239.276C233.341 1 228.53 5.78913 228.53 11.6969V104.464C228.53 110.372 233.341 115.161 239.276 115.161H241.791C247.727 115.161 252.538 110.372 252.538 104.464V11.6969C252.538 5.78913 247.727 1 241.791 1Z" fill="#CCF4F1" stroke="#00C9B8" stroke-miterlimit="10"/>
<path d="M267.606 13.9839H265.571C260.785 13.9839 256.905 17.8458 256.905 22.6097V119.519C256.905 124.283 260.785 128.145 265.571 128.145H267.606C272.392 128.145 276.271 124.283 276.271 119.519V22.6097C276.271 17.8458 272.392 13.9839 267.606 13.9839Z" fill="#A3ECE5" stroke="#00C9B8" stroke-miterlimit="10"/>
<path d="M267.606 1H265.571C260.785 1 256.905 4.86186 256.905 9.62576V106.535C256.905 111.299 260.785 115.161 265.571 115.161H267.606C272.392 115.161 276.271 111.299 276.271 106.535V9.62576C276.271 4.86186 272.392 1 267.606 1Z" fill="#CCF4F1" stroke="#00C9B8" stroke-miterlimit="10"/>
<path d="M286.183 13.9839H285.143C282.649 13.9839 280.627 15.9964 280.627 18.4789V123.65C280.627 126.133 282.649 128.145 285.143 128.145H286.183C288.677 128.145 290.699 126.133 290.699 123.65V18.4789C290.699 15.9964 288.677 13.9839 286.183 13.9839Z" fill="#A3ECE5" stroke="#00C9B8" stroke-miterlimit="10"/>
<path d="M286.183 1H285.143C282.649 1 280.627 3.01242 280.627 5.49492V110.666C280.627 113.149 282.649 115.161 285.143 115.161H286.183C288.677 115.161 290.699 113.149 290.699 110.666V5.49492C290.699 3.01242 288.677 1 286.183 1Z" fill="#CCF4F1" stroke="#00C9B8" stroke-miterlimit="10"/>
<path d="M298.074 13.9839H297.514C296.169 13.9839 295.079 15.0691 295.079 16.4078V125.721C295.079 127.06 296.169 128.145 297.514 128.145H298.074C299.419 128.145 300.509 127.06 300.509 125.721V16.4078C300.509 15.0691 299.419 13.9839 298.074 13.9839Z" fill="#A3ECE5" stroke="#00C9B8" stroke-miterlimit="10"/>
<path d="M298.074 1H297.514C296.169 1 295.079 2.08521 295.079 3.42388V112.737C295.079 114.076 296.169 115.161 297.514 115.161H298.074C299.419 115.161 300.509 114.076 300.509 112.737V3.42388C300.509 2.08521 299.419 1 298.074 1Z" fill="#CCF4F1" stroke="#00C9B8" stroke-miterlimit="10"/>
<path d="M307.311 13.9839H306.842C305.756 13.9839 304.876 14.8602 304.876 15.9412V126.188C304.876 127.269 305.756 128.145 306.842 128.145H307.311C308.397 128.145 309.277 127.269 309.277 126.188V15.9412C309.277 14.8602 308.397 13.9839 307.311 13.9839Z" fill="#A3ECE5" stroke="#00C9B8" stroke-miterlimit="10"/>
<path d="M307.311 1H306.842C305.756 1 304.876 1.87628 304.876 2.95727V113.204C304.876 114.285 305.756 115.161 306.842 115.161H307.311C308.397 115.161 309.277 114.285 309.277 113.204V2.95727C309.277 1.87628 308.397 1 307.311 1Z" fill="#CCF4F1" stroke="#00C9B8" stroke-miterlimit="10"/>
<path d="M314.948 13.9839H314.708C314.127 13.9839 313.656 14.4526 313.656 15.0308V127.098C313.656 127.676 314.127 128.145 314.708 128.145H314.948C315.529 128.145 316 127.676 316 127.098V15.0308C316 14.4526 315.529 13.9839 314.948 13.9839Z" fill="#A3ECE5" stroke="#00C9B8" stroke-miterlimit="10"/>
<path d="M314.948 1H314.708C314.127 1 313.656 1.46871 313.656 2.04691V114.114C313.656 114.692 314.127 115.161 314.708 115.161H314.948C315.529 115.161 316 114.692 316 114.114V2.04691C316 1.46871 315.529 1 314.948 1Z" fill="#CCF4F1" stroke="#00C9B8" stroke-miterlimit="10"/>
<path d="M170.533 145.198H105.447V144.685H170.533C174.922 144.685 178.502 141.117 178.502 136.717V128.407H179.015V136.717C179.015 141.391 175.208 145.198 170.533 145.198Z" fill="#00C9B8"/>
<path d="M203.447 161.669H87.1035V161.156H203.447C207.837 161.156 211.416 157.589 211.416 153.188V128.418H211.929V153.188C211.929 157.862 208.122 161.669 203.447 161.669Z" fill="#00C9B8"/>
<path d="M232.268 178.13H56.1963V177.617H232.268C236.658 177.617 240.237 174.049 240.237 169.649V128.407H240.75V169.649C240.75 174.322 236.943 178.13 232.268 178.13Z" fill="#00C9B8"/>
<path d="M258.501 194.59H142.214V194.077H258.501C262.89 194.077 266.47 190.509 266.47 186.109V128.407H266.983V186.109C266.983 190.783 263.175 194.59 258.501 194.59Z" fill="#00C9B8"/>
<path d="M277.552 211.05H88.4492V210.537H277.552C281.941 210.537 285.521 206.969 285.521 202.569V128.145H286.034V202.569C286.034 207.243 282.226 211.05 277.552 211.05Z" fill="#00C9B8"/>
<path d="M289.386 226.997H144.29V226.484H289.386C293.775 226.484 297.355 222.916 297.355 218.516V128.407H297.868V218.516C297.868 223.19 294.06 226.997 289.386 226.997Z" fill="#00C9B8"/>
<path d="M298.654 243.468H74.6191V242.955H298.631C303.02 242.955 306.6 239.388 306.6 234.988V128.418H307.113V234.988C307.113 239.661 303.305 243.468 298.631 243.468H298.642H298.654Z" fill="#00C9B8"/>
<path d="M306.372 259.929H101.855V259.416H306.372C310.761 259.416 314.341 255.848 314.341 251.448V128.407H314.854V251.448C314.854 256.121 311.046 259.929 306.372 259.929Z" fill="#00C9B8"/>
<path d="M33.0728 61.0825V51.5474H39.9082V52.4782H34.1191V55.8155H37.8951V56.7236H34.1191V60.1517H39.9651V61.0825H33.0728Z" fill="#00C9B8"/>
<path d="M44.7879 61.1959C44.1396 61.1959 43.5596 61.0369 43.025 60.7305C42.5018 60.4126 42.081 59.9926 41.7739 59.4591C41.4668 58.9256 41.3076 58.324 41.3076 57.6656C41.3076 57.0073 41.4668 56.4056 41.7739 55.8721C42.081 55.3386 42.5018 54.9186 43.025 54.6008C43.5482 54.2829 44.1396 54.124 44.7879 54.124C45.2884 54.124 45.766 54.2148 46.2324 54.4078C46.6987 54.5894 47.1081 54.8618 47.4607 55.2023L46.8238 55.9402C46.5508 55.6451 46.2437 55.4294 45.8912 55.2818C45.5386 55.1342 45.1746 55.0548 44.8107 55.0548C44.3444 55.0548 43.9235 55.1683 43.5482 55.4067C43.1729 55.6337 42.8658 55.9515 42.6497 56.3488C42.4222 56.7461 42.3199 57.1888 42.3199 57.6769C42.3199 58.165 42.4336 58.6078 42.6497 59.0165C42.8772 59.4138 43.1729 59.7315 43.5596 59.9586C43.9463 60.1856 44.3671 60.3105 44.8334 60.3105C45.2087 60.3105 45.5613 60.2424 45.8912 60.0948C46.221 59.9472 46.5394 59.7315 46.8238 59.4591L47.4493 60.1402C47.0854 60.4808 46.6759 60.7532 46.221 60.9461C45.766 61.1391 45.2884 61.2299 44.7993 61.2299V61.1959H44.7879Z" fill="#00C9B8"/>
<path d="M52.2822 61.2188C51.6339 61.2188 51.0425 61.0598 50.5193 60.7533C49.9961 60.4469 49.5639 60.0155 49.2568 59.482C48.9498 58.9485 48.7905 58.3468 48.7905 57.6885C48.7905 57.0301 48.9498 56.4285 49.2568 55.895C49.5639 55.3615 49.9847 54.9301 50.5193 54.6236C51.0539 54.3171 51.6453 54.1582 52.2822 54.1582C52.9191 54.1582 53.5333 54.3171 54.0565 54.6236C54.5797 54.9414 55.0005 55.3615 55.3076 55.895C55.6146 56.4285 55.7739 57.0301 55.7739 57.6885C55.7739 58.3468 55.6146 58.9485 55.3076 59.482C55.0005 60.0155 54.5797 60.4469 54.0565 60.7533C53.5333 61.0712 52.9419 61.2188 52.2822 61.2188ZM52.2822 60.322C52.7485 60.322 53.1693 60.2085 53.5447 59.9701C53.92 59.7317 54.2271 59.4139 54.4432 59.0166C54.6706 58.6193 54.773 58.1766 54.773 57.6771C54.773 57.1776 54.6593 56.7349 54.4432 56.3376C54.2157 55.9403 53.92 55.6226 53.5447 55.3955C53.1693 55.1685 52.7485 55.0436 52.2822 55.0436C51.8159 55.0436 51.3951 55.1572 51.0197 55.3955C50.6444 55.6339 50.3373 55.9517 50.1212 56.3376C49.8938 56.7349 49.7914 57.1776 49.7914 57.6771C49.7914 58.1766 49.9051 58.608 50.1212 59.0166C50.3487 59.4139 50.6444 59.7317 51.0197 59.9701C51.3951 60.2085 51.8159 60.322 52.2822 60.322Z" fill="#00C9B8"/>
<path d="M60.0509 61.2192C59.4822 61.2192 58.959 61.1284 58.4586 60.9355C57.9581 60.7538 57.5373 60.4928 57.1733 60.1522L57.7875 59.4938C58.106 59.789 58.4586 60.0046 58.8339 60.1635C59.2092 60.3224 59.6073 60.4019 60.0054 60.4019C60.5513 60.4019 60.9949 60.2884 61.3474 60.0614C61.6886 59.8344 61.8706 59.5392 61.8706 59.1759C61.8706 58.8808 61.7682 58.6424 61.5635 58.4722C61.3588 58.3019 61.0403 58.1884 60.5968 58.1203L59.4139 57.9613C58.7315 57.8592 58.2197 57.6549 57.8899 57.3484C57.56 57.0419 57.3894 56.6219 57.3894 56.0998C57.3894 55.7138 57.5032 55.3733 57.7193 55.0781C57.9354 54.783 58.2425 54.5446 58.6292 54.3743C59.0159 54.2041 59.4594 54.1133 59.9599 54.1133C60.4603 54.1133 60.9266 54.1814 61.3702 54.329C61.8024 54.4765 62.2346 54.7035 62.6554 55.01L62.1208 55.6911C61.7341 55.43 61.3702 55.2371 61.0062 55.1122C60.6423 54.9873 60.2783 54.9305 59.903 54.9305C59.4253 54.9305 59.05 55.0327 58.7543 55.2484C58.4586 55.4527 58.3221 55.7251 58.3221 56.0657C58.3221 56.3722 58.4244 56.6105 58.6178 56.7695C58.8111 56.9284 59.141 57.0419 59.5845 57.0987L60.7674 57.2576C61.4498 57.3484 61.9616 57.5527 62.3028 57.8592C62.644 58.1657 62.8146 58.5857 62.8146 59.1306C62.8146 59.5165 62.6895 59.8798 62.4507 60.1976C62.2005 60.5154 61.8706 60.7651 61.4612 60.9468C61.0517 61.1284 60.574 61.2192 60.0509 61.2192Z" fill="#00C9B8"/>
<path d="M64.793 63.9884C64.6679 63.9884 64.5428 63.9885 64.4291 63.9658C64.3153 63.9544 64.2244 63.9317 64.1447 63.9203V63.0122C64.304 63.0463 64.4859 63.069 64.7134 63.069C65.3162 63.069 65.7712 62.7171 66.0782 62.002L66.4877 61.0598L63.7012 54.249H64.8158L67.0222 59.8452L69.4107 54.249H70.5025L67.0905 62.1382C66.8971 62.5696 66.6924 62.9328 66.4763 63.2053C66.2602 63.4777 66.01 63.682 65.737 63.8069C65.4641 63.9317 65.1342 63.9998 64.7703 63.9998H64.793V63.9884Z" fill="#00C9B8"/>
<path d="M74.3131 61.2192C73.7444 61.2192 73.2212 61.1284 72.7208 60.9355C72.2203 60.7538 71.7995 60.4928 71.4355 60.1522L72.0497 59.4938C72.3682 59.789 72.7208 60.0046 73.0961 60.1635C73.4714 60.3224 73.8695 60.4019 74.2676 60.4019C74.8135 60.4019 75.2571 60.2884 75.6096 60.0614C75.9508 59.8344 76.1328 59.5392 76.1328 59.1759C76.1328 58.8808 76.0305 58.6424 75.8257 58.4722C75.621 58.3019 75.3026 58.1884 74.859 58.1203L73.6761 57.9613C72.9937 57.8592 72.4819 57.6549 72.1521 57.3484C71.8223 57.0419 71.6516 56.6219 71.6516 56.0998C71.6516 55.7138 71.7654 55.3733 71.9815 55.0781C72.1976 54.783 72.5047 54.5446 72.8914 54.3743C73.2781 54.2041 73.7216 54.1133 74.2221 54.1133C74.7225 54.1133 75.1888 54.1814 75.6324 54.329C76.0646 54.4765 76.4968 54.7035 76.9176 55.01L76.383 55.6911C75.9963 55.43 75.6324 55.2371 75.2684 55.1122C74.9045 54.9873 74.5405 54.9305 74.1652 54.9305C73.6875 54.9305 73.3122 55.0327 73.0165 55.2484C72.7208 55.4527 72.5843 55.7251 72.5843 56.0657C72.5843 56.3722 72.6866 56.6105 72.88 56.7695C73.0733 56.9284 73.4032 57.0419 73.8467 57.0987L75.0296 57.2576C75.712 57.3484 76.2238 57.5527 76.565 57.8592C76.9062 58.1657 77.0768 58.5857 77.0768 59.1306C77.0768 59.5165 76.9517 59.8798 76.7129 60.1976C76.4626 60.5154 76.1328 60.7651 75.7234 60.9468C75.3139 61.1284 74.8362 61.2192 74.3131 61.2192Z" fill="#00C9B8"/>
<path d="M81.4661 61.2188C80.8747 61.2188 80.4197 61.0825 80.1013 60.7987C79.7828 60.515 79.6236 60.1064 79.6236 59.5728V55.1231H78.145V54.2604H79.6236V52.535L80.6245 52.2739V54.2604H82.6831V55.1231H80.6245V59.3231C80.6245 59.6863 80.7041 59.9474 80.8747 60.1063C81.0339 60.2652 81.3069 60.3447 81.6822 60.3447C81.8755 60.3447 82.0461 60.3333 82.194 60.2993C82.3419 60.2766 82.5011 60.2312 82.6831 60.1631V61.0485C82.5125 61.1166 82.3191 61.162 82.103 61.1847C81.8869 61.2074 81.6822 61.2301 81.4775 61.2301L81.4661 61.2188Z" fill="#00C9B8"/>
<path d="M87.5175 61.1962C86.8578 61.1962 86.2664 61.0372 85.7318 60.7308C85.1973 60.4129 84.7765 59.9929 84.458 59.4594C84.1396 58.9259 83.9917 58.3243 83.9917 57.6659C83.9917 57.0076 84.1396 56.4173 84.4466 55.8838C84.7537 55.3503 85.1518 54.9303 85.6636 54.6124C86.1754 54.2946 86.7441 54.147 87.3696 54.147C87.9952 54.147 88.5297 54.3059 89.0188 54.6124C89.5079 54.9303 89.8946 55.3503 90.1789 55.8838C90.4632 56.4173 90.6111 57.0076 90.6111 57.6659V57.9837H85.0039C85.0608 58.4264 85.1973 58.8237 85.4361 59.187C85.6636 59.5389 85.9707 59.8226 86.346 60.027C86.7213 60.2313 87.1308 60.3335 87.5744 60.3335C87.9269 60.3335 88.2795 60.2767 88.6094 60.1745C88.9506 60.061 89.2235 59.9135 89.451 59.7092L90.0765 60.3789C89.6898 60.6626 89.2918 60.867 88.8823 61.0145C88.4729 61.1508 88.0179 61.2302 87.5289 61.2302V61.1962H87.5175ZM85.0153 57.1665H89.5875C89.5306 56.7578 89.3941 56.3945 89.1894 56.0654C88.9847 55.7362 88.7117 55.4865 88.3933 55.3048C88.0748 55.1232 87.7222 55.0211 87.3469 55.0211C86.9716 55.0211 86.5962 55.1118 86.2664 55.2935C85.9366 55.4751 85.6636 55.7248 85.4475 56.054C85.2314 56.3832 85.0836 56.7465 85.0267 57.1665H85.0153Z" fill="#00C9B8"/>
<path d="M92.6927 61.0823V54.2602H93.7049V55.0094C94.2281 54.4191 94.8878 54.124 95.7067 54.124C96.1843 54.124 96.6165 54.2375 96.9919 54.4532C97.3672 54.6689 97.6515 54.9753 97.8676 55.3613C98.152 54.9413 98.4818 54.6348 98.8799 54.4305C99.2666 54.2261 99.7215 54.124 100.222 54.124C100.722 54.124 101.155 54.2375 101.53 54.4532C101.905 54.6689 102.201 54.9867 102.406 55.384C102.622 55.7813 102.724 56.2353 102.724 56.7688V61.0823H101.723V56.9732C101.723 56.3602 101.564 55.8835 101.246 55.5316C100.927 55.1797 100.495 55.0094 99.949 55.0094C99.5737 55.0094 99.2325 55.1002 98.9254 55.2932C98.6183 55.4748 98.3567 55.7586 98.1292 56.1332C98.152 56.2353 98.1633 56.3375 98.1747 56.4397C98.1861 56.5418 98.1975 56.6553 98.1975 56.7688V61.0823H97.1966V56.9732C97.1966 56.3602 97.0374 55.8835 96.7189 55.5316C96.4004 55.1797 95.9682 55.0094 95.4337 55.0094C95.0697 55.0094 94.7399 55.0889 94.4442 55.2592C94.1485 55.4294 93.8983 55.6791 93.6822 55.997V61.0823H92.6699H92.6927Z" fill="#00C9B8"/>
<path d="M111.619 61.2302C110.367 61.2302 109.276 60.7989 108.366 59.9362L108.98 59.2664C109.401 59.6524 109.81 59.9361 110.231 60.1178C110.64 60.2994 111.107 60.3788 111.63 60.3788C112.096 60.3788 112.506 60.288 112.858 60.095C113.211 59.9021 113.484 59.641 113.689 59.2891C113.882 58.9486 113.984 58.5513 113.984 58.1085C113.984 57.4729 113.768 56.9621 113.336 56.5648C112.904 56.1675 112.335 55.9745 111.641 55.9745C111.277 55.9745 110.925 56.0199 110.572 56.0994C110.231 56.1902 109.867 56.3264 109.492 56.5194L108.809 56.3037L109.025 51.5361H114.462V52.3988H109.878L109.731 55.6907C110.095 55.5091 110.447 55.3843 110.777 55.3048C111.118 55.2253 111.471 55.1912 111.846 55.1912C112.472 55.1912 113.018 55.3161 113.495 55.5545C113.973 55.7929 114.325 56.1334 114.587 56.5648C114.849 56.9961 114.974 57.4956 114.974 58.0745C114.974 58.6989 114.837 59.2551 114.553 59.7205C114.269 60.1859 113.882 60.5605 113.381 60.8329C112.881 61.1053 112.301 61.2302 111.63 61.2302H111.619Z" fill="#00C9B8"/>
<path d="M120.808 61.2302C120.046 61.2302 119.375 61.0258 118.783 60.6058C118.203 60.1858 117.748 59.607 117.407 58.8691C117.077 58.1313 116.907 57.2799 116.907 56.3151C116.907 55.3502 117.077 54.4988 117.407 53.761C117.737 53.0232 118.192 52.4442 118.783 52.0242C119.363 51.6042 120.034 51.3999 120.808 51.3999C121.581 51.3999 122.241 51.6042 122.832 52.0242C123.412 52.4442 123.867 53.0232 124.209 53.761C124.538 54.4988 124.709 55.3502 124.709 56.3151C124.709 57.2799 124.538 58.1313 124.209 58.8691C123.879 59.607 123.424 60.1858 122.832 60.6058C122.241 61.0258 121.581 61.2302 120.808 61.2302ZM120.808 60.3448C121.399 60.3448 121.911 60.1745 122.343 59.8453C122.775 59.5161 123.105 59.0394 123.344 58.4378C123.583 57.8361 123.697 57.121 123.697 56.3151C123.697 55.5091 123.583 54.7826 123.344 54.181C123.105 53.5794 122.775 53.114 122.343 52.7734C121.911 52.4443 121.399 52.274 120.808 52.274C120.216 52.274 119.716 52.4443 119.284 52.7734C118.852 53.1026 118.51 53.568 118.272 54.181C118.033 54.794 117.919 55.4978 117.919 56.3151C117.919 57.1324 118.033 57.8361 118.272 58.4378C118.51 59.0394 118.84 59.5161 119.284 59.8453C119.727 60.1745 120.228 60.3448 120.808 60.3448Z" fill="#00C9B8"/>
</svg>
