<svg width="317" height="212" viewBox="0 0 317 212" fill="none" xmlns="http://www.w3.org/2000/svg">
<path d="M167.671 13.9841H18.1637C8.68445 13.9841 1 21.6264 1 31.0537V111.076C1 120.503 8.68445 128.145 18.1637 128.145H167.671C177.15 128.145 184.835 120.503 184.835 111.076V31.0537C184.835 21.6264 177.15 13.9841 167.671 13.9841Z" fill="#A3ECE5" stroke="#00C9B8" stroke-miterlimit="10"/>
<path d="M167.671 1H18.1637C8.68445 1 1 8.6423 1 18.0695V98.0916C1 107.519 8.68445 115.161 18.1637 115.161H167.671C177.15 115.161 184.835 107.519 184.835 98.0916V18.0695C184.835 8.6423 177.15 1 167.671 1Z" fill="#CCF4F1" stroke="#00C9B8" stroke-miterlimit="10"/>
<path d="M205.9 13.9841H202.731C195.261 13.9841 189.206 20.0062 189.206 27.4349V114.694C189.206 122.123 195.261 128.145 202.731 128.145H205.9C213.37 128.145 219.425 122.123 219.425 114.694V27.4349C219.425 20.0062 213.37 13.9841 205.9 13.9841Z" fill="#A3ECE5" stroke="#00C9B8" stroke-miterlimit="10"/>
<path d="M205.9 1H202.731C195.261 1 189.206 7.0221 189.206 14.4508V101.71C189.206 109.139 195.261 115.161 202.731 115.161H205.9C213.37 115.161 219.425 109.139 219.425 101.71V14.4508C219.425 7.0221 213.37 1 205.9 1Z" fill="#CCF4F1" stroke="#00C9B8" stroke-miterlimit="10"/>
<path d="M238.512 13.9841H235.72C229.142 13.9841 223.809 19.2879 223.809 25.8304V116.299C223.809 122.841 229.142 128.145 235.72 128.145H238.512C245.091 128.145 250.424 122.841 250.424 116.299V25.8304C250.424 19.2879 245.091 13.9841 238.512 13.9841Z" fill="#A3ECE5" stroke="#00C9B8" stroke-miterlimit="10"/>
<path d="M238.512 1H235.72C229.142 1 223.809 6.30376 223.809 12.8463V103.315C223.809 109.857 229.142 115.161 235.72 115.161H238.512C245.091 115.161 250.424 109.857 250.424 103.315V12.8463C250.424 6.30376 245.091 1 238.512 1Z" fill="#CCF4F1" stroke="#00C9B8" stroke-miterlimit="10"/>
<path d="M266.912 13.9841H264.612C259.184 13.9841 254.783 18.3606 254.783 23.7593V118.37C254.783 123.769 259.184 128.145 264.612 128.145H266.912C272.341 128.145 276.741 123.769 276.741 118.37V23.7593C276.741 18.3606 272.341 13.9841 266.912 13.9841Z" fill="#A3ECE5" stroke="#00C9B8" stroke-miterlimit="10"/>
<path d="M266.912 1H264.612C259.184 1 254.783 5.37648 254.783 10.7752V105.386C254.783 110.785 259.184 115.161 264.612 115.161H266.912C272.341 115.161 276.741 110.785 276.741 105.386V10.7752C276.741 5.37648 272.341 1 266.912 1Z" fill="#CCF4F1" stroke="#00C9B8" stroke-miterlimit="10"/>
<path d="M293.253 13.9841H290.953C285.524 13.9841 281.124 18.3606 281.124 23.7593V118.37C281.124 123.769 285.524 128.145 290.953 128.145H293.253C298.681 128.145 303.082 123.769 303.082 118.37V23.7593C303.082 18.3606 298.681 13.9841 293.253 13.9841Z" fill="#A3ECE5" stroke="#00C9B8" stroke-miterlimit="10"/>
<path d="M293.253 1H290.953C285.524 1 281.124 5.37648 281.124 10.7752V105.386C281.124 110.785 285.524 115.161 290.953 115.161H293.253C298.681 115.161 303.082 110.785 303.082 105.386V10.7752C303.082 5.37648 298.681 1 293.253 1Z" fill="#CCF4F1" stroke="#00C9B8" stroke-miterlimit="10"/>
<path d="M312.178 13.9841H311.286C309.175 13.9841 307.464 15.6858 307.464 17.7849V124.344C307.464 126.444 309.175 128.145 311.286 128.145H312.178C314.289 128.145 316 126.444 316 124.344V17.7849C316 15.6858 314.289 13.9841 312.178 13.9841Z" fill="#A3ECE5" stroke="#00C9B8" stroke-miterlimit="10"/>
<path d="M312.178 1H311.286C309.175 1 307.464 2.70168 307.464 4.80081V111.36C307.464 113.459 309.175 115.161 311.286 115.161H312.178C314.289 115.161 316 113.459 316 111.36V4.80081C316 2.70168 314.289 1 312.178 1Z" fill="#CCF4F1" stroke="#00C9B8" stroke-miterlimit="10"/>
<path d="M167.671 13.9841H18.1637C8.68445 13.9841 1 21.6264 1 31.0537V111.076C1 120.503 8.68445 128.145 18.1637 128.145H167.671C177.15 128.145 184.835 120.503 184.835 111.076V31.0537C184.835 21.6264 177.15 13.9841 167.671 13.9841Z" fill="#A3ECE5" stroke="#00C9B8" stroke-miterlimit="10"/>
<path d="M167.671 1H18.1637C8.68445 1 1 8.6423 1 18.0695V98.0916C1 107.519 8.68445 115.161 18.1637 115.161H167.671C177.15 115.161 184.835 107.519 184.835 98.0916V18.0695C184.835 8.6423 177.15 1 167.671 1Z" fill="#CCF4F1" stroke="#00C9B8" stroke-miterlimit="10"/>
<path d="M205.9 13.9841H202.731C195.261 13.9841 189.206 20.0062 189.206 27.4349V114.694C189.206 122.123 195.261 128.145 202.731 128.145H205.9C213.37 128.145 219.425 122.123 219.425 114.694V27.4349C219.425 20.0062 213.37 13.9841 205.9 13.9841Z" fill="#A3ECE5" stroke="#00C9B8" stroke-miterlimit="10"/>
<path d="M205.9 1H202.731C195.261 1 189.206 7.0221 189.206 14.4508V101.71C189.206 109.139 195.261 115.161 202.731 115.161H205.9C213.37 115.161 219.425 109.139 219.425 101.71V14.4508C219.425 7.0221 213.37 1 205.9 1Z" fill="#CCF4F1" stroke="#00C9B8" stroke-miterlimit="10"/>
<path d="M238.512 13.9841H235.72C229.142 13.9841 223.809 19.2879 223.809 25.8304V116.299C223.809 122.841 229.142 128.145 235.72 128.145H238.512C245.091 128.145 250.424 122.841 250.424 116.299V25.8304C250.424 19.2879 245.091 13.9841 238.512 13.9841Z" fill="#A3ECE5" stroke="#00C9B8" stroke-miterlimit="10"/>
<path d="M238.512 1H235.72C229.142 1 223.809 6.30376 223.809 12.8463V103.315C223.809 109.857 229.142 115.161 235.72 115.161H238.512C245.091 115.161 250.424 109.857 250.424 103.315V12.8463C250.424 6.30376 245.091 1 238.512 1Z" fill="#CCF4F1" stroke="#00C9B8" stroke-miterlimit="10"/>
<path d="M266.912 13.9841H264.612C259.184 13.9841 254.783 18.3606 254.783 23.7593V118.37C254.783 123.769 259.184 128.145 264.612 128.145H266.912C272.341 128.145 276.741 123.769 276.741 118.37V23.7593C276.741 18.3606 272.341 13.9841 266.912 13.9841Z" fill="#A3ECE5" stroke="#00C9B8" stroke-miterlimit="10"/>
<path d="M266.912 1H264.612C259.184 1 254.783 5.37648 254.783 10.7752V105.386C254.783 110.785 259.184 115.161 264.612 115.161H266.912C272.341 115.161 276.741 110.785 276.741 105.386V10.7752C276.741 5.37648 272.341 1 266.912 1Z" fill="#CCF4F1" stroke="#00C9B8" stroke-miterlimit="10"/>
<path d="M293.253 13.9841H290.953C285.524 13.9841 281.124 18.3606 281.124 23.7593V118.37C281.124 123.769 285.524 128.145 290.953 128.145H293.253C298.681 128.145 303.082 123.769 303.082 118.37V23.7593C303.082 18.3606 298.681 13.9841 293.253 13.9841Z" fill="#A3ECE5" stroke="#00C9B8" stroke-miterlimit="10"/>
<path d="M293.253 1H290.953C285.524 1 281.124 5.37648 281.124 10.7752V105.386C281.124 110.785 285.524 115.161 290.953 115.161H293.253C298.681 115.161 303.082 110.785 303.082 105.386V10.7752C303.082 5.37648 298.681 1 293.253 1Z" fill="#CCF4F1" stroke="#00C9B8" stroke-miterlimit="10"/>
<path d="M312.178 13.9841H311.286C309.175 13.9841 307.464 15.6858 307.464 17.7849V124.344C307.464 126.444 309.175 128.145 311.286 128.145H312.178C314.289 128.145 316 126.444 316 124.344V17.7849C316 15.6858 314.289 13.9841 312.178 13.9841Z" fill="#A3ECE5" stroke="#00C9B8" stroke-miterlimit="10"/>
<path d="M312.178 1H311.286C309.175 1 307.464 2.70168 307.464 4.80081V111.36C307.464 113.459 309.175 115.161 311.286 115.161H312.178C314.289 115.161 316 113.459 316 111.36V4.80081C316 2.70168 314.289 1 312.178 1Z" fill="#CCF4F1" stroke="#00C9B8" stroke-miterlimit="10"/>
<path d="M43.3823 61.0761V51.5581H50.2028V52.4872H44.4264V55.8185H48.1941V56.725H44.4264V60.147H50.2596V61.0761H43.3823Z" fill="#00C9B8"/>
<path d="M55.082 61.2005C54.4352 61.2005 53.8564 61.0419 53.323 60.7359C52.801 60.4187 52.3811 59.9994 52.0747 59.4669C51.7683 58.9343 51.6094 58.3338 51.6094 57.6766C51.6094 57.0194 51.7683 56.4188 52.0747 55.8863C52.3811 55.3537 52.801 54.9345 53.323 54.6172C53.845 54.3 54.4352 54.1414 55.082 54.1414C55.5814 54.1414 56.058 54.232 56.5233 54.4246C56.9886 54.6059 57.3972 54.8778 57.749 55.2178L57.1135 55.9543C56.8411 55.6597 56.5347 55.4444 56.1829 55.2971C55.8311 55.1498 55.4679 55.0705 55.1047 55.0705C54.6394 55.0705 54.2195 55.1838 53.845 55.4217C53.4705 55.6483 53.1641 55.9656 52.9485 56.3622C52.7215 56.7588 52.6194 57.2007 52.6194 57.6879C52.6194 58.1751 52.7329 58.6171 52.9485 59.025C53.1755 59.4216 53.4705 59.7388 53.8564 59.9654C54.2422 60.1921 54.6622 60.3167 55.1274 60.3167C55.5019 60.3167 55.8538 60.2487 56.1829 60.1014C56.512 59.9541 56.8297 59.7388 57.1135 59.4669L57.7376 60.1467C57.3745 60.4867 56.9659 60.7586 56.512 60.9512C56.058 61.1438 55.5814 61.2345 55.0934 61.2345V61.2005H55.082Z" fill="#00C9B8"/>
<path d="M62.5612 61.2121C61.9143 61.2121 61.3242 61.0535 60.8021 60.7476C60.2801 60.4416 59.8489 60.0111 59.5424 59.4785C59.236 58.946 59.0771 58.3454 59.0771 57.6882C59.0771 57.031 59.236 56.4305 59.5424 55.8979C59.8489 55.3654 60.2688 54.9348 60.8021 54.6289C61.3355 54.3229 61.9257 54.1643 62.5612 54.1643C63.1967 54.1643 63.8095 54.3229 64.3316 54.6289C64.8536 54.9461 65.2735 55.3654 65.5799 55.8979C65.8863 56.4305 66.0452 57.031 66.0452 57.6882C66.0452 58.3454 65.8863 58.946 65.5799 59.4785C65.2735 60.0111 64.8536 60.4416 64.3316 60.7476C63.8095 61.0648 63.2194 61.2121 62.5612 61.2121ZM62.5612 60.317C63.0265 60.317 63.4464 60.2037 63.8209 59.9657C64.1954 59.7278 64.5018 59.4105 64.7174 59.0139C64.9444 58.6174 65.0465 58.1755 65.0465 57.6769C65.0465 57.1783 64.933 56.7364 64.7174 56.3398C64.4904 55.9432 64.1954 55.626 63.8209 55.3994C63.4464 55.1728 63.0265 55.0481 62.5612 55.0481C62.0959 55.0481 61.676 55.1614 61.3015 55.3994C60.927 55.6373 60.6206 55.9546 60.4049 56.3398C60.178 56.7364 60.0758 57.1783 60.0758 57.6769C60.0758 58.1755 60.1893 58.606 60.4049 59.0139C60.6319 59.4105 60.927 59.7278 61.3015 59.9657C61.676 60.2037 62.0959 60.317 62.5612 60.317Z" fill="#00C9B8"/>
<path d="M70.3121 61.2121C69.7447 61.2121 69.2226 61.1214 68.7233 60.9288C68.224 60.7475 67.8041 60.4869 67.4409 60.147L68.0537 59.4897C68.3715 59.7843 68.7233 59.9997 69.0978 60.1583C69.4723 60.3169 69.8695 60.3962 70.2667 60.3962C70.8115 60.3962 71.2541 60.2829 71.6059 60.0563C71.9463 59.8297 72.1279 59.5351 72.1279 59.1725C72.1279 58.8779 72.0258 58.6399 71.8215 58.47C71.6172 58.3 71.2994 58.1867 70.8569 58.1187L69.6766 57.9601C68.9957 57.8581 68.485 57.6542 68.1559 57.3482C67.8268 57.0423 67.6565 56.623 67.6565 56.1018C67.6565 55.7166 67.77 55.3766 67.9857 55.082C68.2013 54.7874 68.5077 54.5495 68.8935 54.3795C69.2794 54.2096 69.722 54.1189 70.2213 54.1189C70.7207 54.1189 71.186 54.1869 71.6286 54.3342C72.0598 54.4815 72.4911 54.7081 72.9109 55.014L72.3776 55.6939C71.9917 55.4333 71.6286 55.2407 71.2654 55.116C70.9022 54.9914 70.5391 54.9347 70.1646 54.9347C69.6879 54.9347 69.3134 55.0367 69.0184 55.252C68.7233 55.4559 68.5871 55.7279 68.5871 56.0678C68.5871 56.3738 68.6893 56.6117 68.8822 56.7703C69.0751 56.929 69.4042 57.0423 69.8468 57.0989L71.0271 57.2576C71.708 57.3482 72.2187 57.5522 72.5591 57.8581C72.8996 58.1641 73.0698 58.5833 73.0698 59.1272C73.0698 59.5124 72.945 59.875 72.7067 60.1923C72.457 60.5096 72.1279 60.7588 71.7193 60.9401C71.3108 61.1214 70.8342 61.2121 70.3121 61.2121Z" fill="#00C9B8"/>
<path d="M75.0333 63.9885C74.9085 63.9885 74.7836 63.9885 74.6702 63.9659C74.5567 63.9545 74.4659 63.9319 74.3864 63.9205V63.0141C74.5453 63.0481 74.7269 63.0707 74.9539 63.0707C75.5554 63.0707 76.0093 62.7195 76.3157 62.0056L76.7243 61.0652L73.9438 54.2666H75.056L77.2576 59.8527L79.6408 54.2666H80.7303L77.3257 62.1416C77.1328 62.5722 76.9285 62.9348 76.7129 63.2067C76.4973 63.4787 76.2476 63.6826 75.9752 63.8073C75.7029 63.9319 75.3738 63.9999 75.0106 63.9999H75.0333V63.9885Z" fill="#00C9B8"/>
<path d="M84.5548 61.2121C83.9874 61.2121 83.4653 61.1214 82.966 60.9288C82.4666 60.7475 82.0467 60.4869 81.6836 60.147L82.2964 59.4897C82.6142 59.7843 82.966 59.9997 83.3405 60.1583C83.715 60.3169 84.1122 60.3962 84.5094 60.3962C85.0541 60.3962 85.4967 60.2829 85.8485 60.0563C86.189 59.8297 86.3706 59.5351 86.3706 59.1725C86.3706 58.8779 86.2684 58.6399 86.0642 58.47C85.8599 58.3 85.5421 58.1867 85.0995 58.1187L83.9193 57.9601C83.2383 57.8581 82.7277 57.6542 82.3986 57.3482C82.0694 57.0423 81.8992 56.623 81.8992 56.1018C81.8992 55.7166 82.0127 55.3766 82.2283 55.082C82.4439 54.7874 82.7504 54.5495 83.1362 54.3795C83.5221 54.2096 83.9647 54.1189 84.464 54.1189C84.9633 54.1189 85.4286 54.1869 85.8712 54.3342C86.3025 54.4815 86.7337 54.7081 87.1536 55.014L86.6202 55.6939C86.2344 55.4333 85.8712 55.2407 85.5081 55.116C85.1449 54.9914 84.7818 54.9347 84.4073 54.9347C83.9306 54.9347 83.5561 55.0367 83.2611 55.252C82.966 55.4559 82.8298 55.7279 82.8298 56.0678C82.8298 56.3738 82.9319 56.6117 83.1249 56.7703C83.3178 56.929 83.6469 57.0423 84.0895 57.0989L85.2698 57.2576C85.9507 57.3482 86.4614 57.5522 86.8018 57.8581C87.1423 58.1641 87.3125 58.5833 87.3125 59.1272C87.3125 59.5124 87.1877 59.875 86.9494 60.1923C86.6997 60.5096 86.3706 60.7588 85.962 60.9401C85.5535 61.1214 85.0768 61.2121 84.5548 61.2121Z" fill="#00C9B8"/>
<path d="M91.682 61.2122C91.0918 61.2122 90.6379 61.0763 90.3201 60.793C90.0024 60.5097 89.8435 60.1018 89.8435 59.5692V55.1275H88.3682V54.2664H89.8435V52.5441L90.8422 52.2834V54.2664H92.8963V55.1275H90.8422V59.3199C90.8422 59.6825 90.9216 59.9431 91.0918 60.1018C91.2507 60.2604 91.5231 60.3397 91.8976 60.3397C92.0905 60.3397 92.2607 60.3284 92.4083 60.2944C92.5558 60.2718 92.7147 60.2264 92.8963 60.1585V61.0423C92.726 61.1103 92.5331 61.1556 92.3175 61.1782C92.1019 61.2009 91.8976 61.2236 91.6933 61.2236L91.682 61.2122Z" fill="#00C9B8"/>
<path d="M97.708 61.2008C97.0498 61.2008 96.4597 61.0422 95.9263 60.7362C95.3929 60.419 94.973 59.9997 94.6552 59.4672C94.3375 58.9346 94.1899 58.3341 94.1899 57.6769C94.1899 57.0197 94.3375 56.4305 94.6439 55.8979C94.9503 55.3654 95.3475 54.9461 95.8582 54.6289C96.3689 54.3116 96.9363 54.1643 97.5605 54.1643C98.1847 54.1643 98.718 54.3229 99.206 54.6289C99.694 54.9461 100.08 55.3654 100.364 55.8979C100.647 56.4305 100.795 57.0197 100.795 57.6769V57.9942H95.2C95.2567 58.4361 95.3929 58.8327 95.6312 59.1952C95.8582 59.5465 96.1646 59.8298 96.5391 60.0337C96.9136 60.2377 97.3222 60.3396 97.7648 60.3396C98.1166 60.3396 98.4684 60.283 98.7975 60.181C99.1379 60.0677 99.4103 59.9204 99.6373 59.7165L100.261 60.385C99.8756 60.6682 99.4784 60.8722 99.0698 61.0195C98.6613 61.1555 98.2074 61.2348 97.7194 61.2348V61.2008H97.708ZM95.2113 57.1783H99.7735C99.7167 56.7704 99.5805 56.4078 99.3763 56.0792C99.172 55.7506 98.8996 55.5013 98.5819 55.32C98.2641 55.1388 97.9123 55.0368 97.5378 55.0368C97.1633 55.0368 96.7888 55.1274 96.4597 55.3087C96.1306 55.49 95.8582 55.7393 95.6426 56.0679C95.4269 56.3965 95.2794 56.7591 95.2227 57.1783H95.2113Z" fill="#00C9B8"/>
<path d="M102.871 61.0762V54.2663H103.881V55.0142C104.403 54.425 105.062 54.1304 105.879 54.1304C106.355 54.1304 106.787 54.2437 107.161 54.459C107.536 54.6743 107.819 54.9802 108.035 55.3654C108.319 54.9462 108.648 54.6403 109.045 54.4363C109.431 54.2323 109.885 54.1304 110.384 54.1304C110.883 54.1304 111.315 54.2437 111.689 54.459C112.064 54.6743 112.359 54.9915 112.563 55.3881C112.779 55.7847 112.881 56.2379 112.881 56.7705V61.0762H111.882V56.9744C111.882 56.3626 111.723 55.8867 111.405 55.5354C111.088 55.1841 110.656 55.0142 110.112 55.0142C109.737 55.0142 109.397 55.1048 109.09 55.2975C108.784 55.4788 108.523 55.762 108.296 56.1359C108.319 56.2379 108.33 56.3399 108.341 56.4419C108.353 56.5439 108.364 56.6572 108.364 56.7705V61.0762H107.365V56.9744C107.365 56.3626 107.207 55.8867 106.889 55.5354C106.571 55.1841 106.14 55.0142 105.606 55.0142C105.243 55.0142 104.914 55.0935 104.619 55.2635C104.324 55.4334 104.074 55.6827 103.859 56V61.0762H102.849H102.871Z" fill="#00C9B8"/>
<path d="M122.505 61.2124C121.767 61.2124 121.12 61.0197 120.564 60.6231C120.008 60.2379 119.565 59.694 119.248 59.0142C118.93 58.3343 118.771 57.5412 118.771 56.646C118.771 55.5922 118.953 54.6744 119.304 53.8926C119.656 53.1108 120.156 52.4989 120.802 52.0683C121.449 51.6377 122.198 51.4111 123.049 51.4111C123.447 51.4111 123.844 51.4678 124.23 51.5697C124.616 51.6831 124.967 51.8417 125.274 52.0457L124.786 52.8048C124.502 52.6462 124.207 52.5102 123.901 52.4196C123.594 52.3289 123.276 52.2836 122.959 52.2836C122.3 52.2836 121.744 52.4536 121.268 52.7935C120.791 53.1334 120.428 53.6206 120.167 54.2552C119.906 54.8897 119.77 55.6489 119.747 56.544C120.099 56.0908 120.519 55.7395 121.018 55.4789C121.506 55.2297 122.017 55.0937 122.539 55.0937C123.152 55.0937 123.708 55.2183 124.184 55.4789C124.661 55.7282 125.047 56.0795 125.319 56.5327C125.592 56.9859 125.728 57.4958 125.728 58.0624C125.728 58.6289 125.592 59.1955 125.308 59.6714C125.024 60.1473 124.638 60.5212 124.162 60.7931C123.685 61.0651 123.129 61.201 122.505 61.201V61.2124ZM122.414 55.9095C121.915 55.9095 121.438 56.0341 120.973 56.2834C120.519 56.5327 120.121 56.8726 119.781 57.3145C119.849 57.9264 120.008 58.459 120.246 58.9122C120.485 59.3654 120.802 59.728 121.188 59.9773C121.574 60.2266 122.005 60.3626 122.493 60.3626C122.925 60.3626 123.322 60.2606 123.662 60.0679C124.003 59.8753 124.275 59.6034 124.468 59.2635C124.661 58.9235 124.763 58.5383 124.763 58.1077C124.763 57.6771 124.661 57.3032 124.468 56.9746C124.264 56.646 123.991 56.3854 123.64 56.2041C123.288 56.0228 122.879 55.9208 122.425 55.9208L122.414 55.9095Z" fill="#00C9B8"/>
<path d="M130.971 61.2238C130.313 61.2238 129.734 61.1105 129.223 60.8725C128.712 60.6346 128.315 60.3173 128.02 59.8981C127.725 59.4789 127.578 59.0256 127.578 58.5044C127.578 58.1191 127.668 57.7566 127.861 57.428C128.054 57.0994 128.315 56.8161 128.656 56.5668C128.996 56.3289 129.382 56.1589 129.825 56.0569C129.269 55.8983 128.815 55.6263 128.474 55.2298C128.122 54.8332 127.952 54.3799 127.952 53.8814C127.952 53.3828 128.088 52.9862 128.349 52.6123C128.61 52.2384 128.974 51.9438 129.427 51.7285C129.881 51.5132 130.403 51.3999 130.971 51.3999C131.538 51.3999 132.072 51.5132 132.526 51.7285C132.98 51.9438 133.343 52.2384 133.604 52.6123C133.865 52.9862 134.001 53.4055 134.001 53.8814C134.001 54.3573 133.831 54.8332 133.479 55.2298C133.138 55.6263 132.685 55.9096 132.117 56.0569C132.775 56.2155 133.32 56.5102 133.74 56.9634C134.16 57.4166 134.364 57.9265 134.364 58.5044C134.364 59.0256 134.217 59.4902 133.933 59.8981C133.649 60.306 133.241 60.6346 132.73 60.8725C132.219 61.1105 131.629 61.2238 130.982 61.2238H130.971ZM130.971 60.4307C131.436 60.4307 131.845 60.34 132.208 60.17C132.571 60.0001 132.855 59.7621 133.07 59.4675C133.286 59.1729 133.388 58.833 133.388 58.4591C133.388 58.0852 133.286 57.7565 133.07 57.4506C132.855 57.156 132.571 56.9181 132.208 56.7481C131.845 56.5781 131.436 56.4875 130.971 56.4875C130.506 56.4875 130.097 56.5781 129.734 56.7481C129.371 56.9181 129.087 57.156 128.871 57.4506C128.656 57.7452 128.554 58.0852 128.554 58.4591C128.554 58.833 128.656 59.1616 128.871 59.4675C129.087 59.7621 129.371 60.0001 129.734 60.17C130.097 60.34 130.506 60.4307 130.971 60.4307ZM130.971 55.649C131.357 55.649 131.709 55.5697 132.026 55.4224C132.344 55.2637 132.582 55.0598 132.764 54.7992C132.946 54.5386 133.036 54.244 133.036 53.9267C133.036 53.6094 132.946 53.3035 132.764 53.0429C132.582 52.7823 132.333 52.5783 132.026 52.4197C131.709 52.2724 131.357 52.1931 130.971 52.1931C130.585 52.1931 130.233 52.2724 129.915 52.4197C129.598 52.567 129.359 52.771 129.178 53.0429C128.996 53.3035 128.905 53.5981 128.905 53.9267C128.905 54.2553 128.996 54.5499 129.178 54.7992C129.359 55.0598 129.609 55.2637 129.915 55.4224C130.233 55.581 130.585 55.649 130.971 55.649Z" fill="#00C9B8"/>
<path d="M137.303 61.1553C137.11 61.1553 136.951 61.0873 136.815 60.9514C136.679 60.8154 136.611 60.6568 136.611 60.4642C136.611 60.2715 136.679 60.1129 136.815 59.9769C136.951 59.841 137.11 59.7729 137.303 59.7729C137.496 59.7729 137.655 59.841 137.791 59.9769C137.927 60.1129 137.995 60.2715 137.995 60.4642C137.995 60.6568 137.927 60.8154 137.791 60.9514C137.655 61.0873 137.496 61.1553 137.303 61.1553Z" fill="#00C9B8"/>
<path d="M140.345 61.0766V60.3514L144.158 56.193C144.453 55.8644 144.691 55.5811 144.861 55.3318C145.032 55.0825 145.145 54.8446 145.213 54.6293C145.281 54.414 145.315 54.176 145.315 53.9381C145.315 53.4622 145.122 53.0656 144.748 52.7483C144.373 52.4311 143.897 52.2838 143.307 52.2838C142.864 52.2838 142.444 52.3744 142.07 52.5444C141.684 52.7144 141.264 53.0203 140.787 53.4395L140.22 52.7597C140.719 52.3064 141.218 51.9665 141.729 51.7512C142.24 51.5246 142.773 51.4226 143.318 51.4226C143.863 51.4226 144.396 51.5246 144.839 51.7399C145.281 51.9552 145.633 52.2498 145.883 52.6124C146.132 52.9863 146.269 53.4055 146.269 53.8928C146.269 54.21 146.223 54.5046 146.144 54.7652C146.064 55.0372 145.917 55.3205 145.712 55.6264C145.508 55.9323 145.202 56.2949 144.816 56.7255L141.559 60.2494H146.473V61.0879H140.333H140.345V61.0766Z" fill="#00C9B8"/>
<path d="M195.578 145.201H194.103V144.688H195.578C199.979 144.688 203.568 141.117 203.568 136.713V128.396H204.082V136.713C204.082 141.391 200.264 145.201 195.578 145.201Z" fill="#00C9B8"/>
<path d="M228.601 161.687H174.579V161.174H228.601C233.002 161.174 236.591 157.603 236.591 153.199V128.396H237.106V153.199C237.106 157.877 233.288 161.687 228.601 161.687Z" fill="#00C9B8"/>
<path d="M256.983 178.173H245.621V177.66H256.983C261.384 177.66 264.974 174.089 264.974 169.685V128.396H265.488V169.685C265.488 174.362 261.67 178.173 256.983 178.173Z" fill="#00C9B8"/>
<path d="M283.297 194.647H177.836V194.134H283.297C287.698 194.134 291.288 190.563 291.288 186.159V128.396H291.802V186.159C291.802 190.837 287.984 194.647 283.297 194.647Z" fill="#00C9B8"/>
<path d="M302.913 211.134H104.724V210.62H302.913C307.314 210.62 310.903 207.049 310.903 202.645V128.145H311.418V202.645C311.418 207.323 307.6 211.134 302.913 211.134Z" fill="#00C9B8"/>
</svg>
