<svg width="709" height="360" viewBox="0 0 709 360" fill="none" xmlns="http://www.w3.org/2000/svg">
<path d="M623.532 71.7282H586.36V70.9058H623.532C630.565 70.9058 636.28 65.19 636.28 58.1748V50.7647C636.28 43.511 642.184 37.6143 649.447 37.6143H655.933V38.4367H649.447C642.637 38.4367 637.103 43.9633 637.103 50.7647V58.1748C637.103 65.6506 631.017 71.7282 623.532 71.7282Z" fill="#029CBE"/>
<path d="M586.272 117.561L586.269 118.384L670.61 118.678L670.613 117.855L586.272 117.561Z" fill="#029CBE"/>
<path d="M671.236 197.559H648.887C641.401 197.559 635.316 191.482 635.316 184.006V176.596C635.316 169.803 629.782 164.268 622.972 164.268H586.368V163.445H622.972C630.235 163.445 636.139 169.342 636.139 176.596V184.006C636.139 191.029 641.854 196.737 648.887 196.737H671.236V197.559Z" fill="#029CBE"/>
<path d="M84.6386 110.649H47.5707C40.1062 110.649 34.0377 104.595 34.0377 97.1495V89.7692C34.0377 83.0032 28.5194 77.4905 21.7282 77.4905H0.00805664V76.6714H21.7282C28.971 76.6714 34.8588 82.5445 34.8588 89.7692V97.1495C34.8588 104.145 40.5578 109.83 47.5707 109.83H84.6386V110.649Z" fill="#029CBE"/>
<path d="M22.2868 166.35H0V165.531H22.2868C29.2996 165.531 34.9986 159.838 34.9986 152.851V145.47C34.9986 138.246 40.8864 132.373 48.1292 132.373H84.6306V133.192H48.1292C41.3381 133.192 35.8198 138.696 35.8198 145.47V152.851C35.8198 160.297 29.7513 166.35 22.2868 166.35Z" fill="#029CBE"/>
<path d="M395.864 254.648H330.228V253.827H395.864C402.895 253.827 408.609 248.124 408.609 241.125V227.874H409.432V241.125C409.432 248.584 403.348 254.648 395.864 254.648Z" fill="#00C9B8"/>
<path d="M448.557 280.905H307.652V280.084H448.557C455.588 280.084 461.302 274.382 461.302 267.383V227.874H462.125V267.383C462.125 274.841 456.041 280.905 448.557 280.905Z" fill="#00C9B8"/>
<path d="M493.84 307.162H391.977V306.342H493.84C500.871 306.342 506.585 300.639 506.585 293.64V227.874H507.408V293.64C507.408 301.098 501.324 307.162 493.84 307.162Z" fill="#00C9B8"/>
<path d="M535.83 333.42H312.114V332.599H535.83C542.861 332.599 548.575 326.896 548.575 319.897V227.874H549.398V319.897C549.398 327.356 543.314 333.42 535.83 333.42Z" fill="#00C9B8"/>
<path d="M567.116 359.677H224.495V358.856H567.116C574.147 358.856 579.861 353.154 579.861 346.154V227.463H580.685V346.154C580.685 353.613 574.6 359.677 567.116 359.677Z" fill="#00C9B8"/>
<path d="M346.473 45.6392H116.352C99.0054 45.6392 84.9434 59.6657 84.9434 76.9684V196.761C84.9434 214.064 99.0054 228.091 116.352 228.091H346.473C363.819 228.091 377.881 214.064 377.881 196.761V76.9684C377.881 59.6657 363.819 45.6392 346.473 45.6392Z" fill="#A3ECE5"/>
<path d="M346.48 228.395H116.352C98.8659 228.395 84.6387 214.203 84.6387 196.762V76.9605C84.6387 59.5189 98.8659 45.3276 116.352 45.3276H346.48C363.966 45.3276 378.193 59.5189 378.193 76.9605V196.762C378.193 214.203 363.966 228.395 346.48 228.395ZM116.352 45.9432C99.2033 45.9432 85.2558 59.8555 85.2558 76.9605V196.762C85.2558 213.867 99.2033 227.779 116.352 227.779H346.48C363.629 227.779 377.576 213.867 377.576 196.762V76.9605C377.576 59.8555 363.629 45.9432 346.48 45.9432H116.352Z" fill="#00C9B8"/>
<path d="M346.473 24.8823H116.352C99.0054 24.8823 84.9434 38.9089 84.9434 56.2115V176.005C84.9434 193.307 99.0054 207.334 116.352 207.334H346.473C363.819 207.334 377.881 193.307 377.881 176.005V56.2115C377.881 38.9089 363.819 24.8823 346.473 24.8823Z" fill="#CCF4F1"/>
<path d="M346.48 207.645H116.352C98.8659 207.645 84.6387 193.454 84.6387 176.012V56.211C84.6387 38.7694 98.8659 24.5781 116.352 24.5781H346.48C363.966 24.5781 378.193 38.7694 378.193 56.211V176.012C378.193 193.454 363.966 207.645 346.48 207.645ZM116.352 25.1937C99.2033 25.1937 85.2558 39.1059 85.2558 56.211V176.012C85.2558 193.117 99.2033 207.03 116.352 207.03H346.48C363.629 207.03 377.576 193.117 377.576 176.012V56.211C377.576 39.1059 363.629 25.1937 346.48 25.1937H116.352Z" fill="#00C9B8"/>
<path d="M408.927 45.6392C422.225 45.6392 433.012 56.3914 433.012 69.6634V204.066C433.012 217.338 422.233 228.091 408.927 228.091C395.63 228.091 384.842 217.338 384.842 204.066V69.6634C384.842 56.3914 395.622 45.6392 408.927 45.6392Z" fill="#A3ECE5"/>
<path d="M408.935 228.395C395.49 228.395 384.546 217.478 384.546 204.067V69.6556C384.546 56.244 395.49 45.3276 408.935 45.3276C422.381 45.3276 433.325 56.244 433.325 69.6556V204.067C433.325 217.478 422.381 228.395 408.935 228.395ZM408.935 45.9432C395.827 45.9432 385.163 56.5805 385.163 69.6556V204.067C385.163 217.142 395.827 227.779 408.935 227.779C422.044 227.779 432.708 217.142 432.708 204.067V69.6556C432.708 56.5805 422.044 45.9432 408.935 45.9432Z" fill="#00C9B8"/>
<path d="M408.927 24.8823C422.225 24.8823 433.012 35.6346 433.012 48.9066V183.309C433.012 196.582 422.233 207.334 408.927 207.334C395.63 207.334 384.842 196.582 384.842 183.309V48.9066C384.842 35.6346 395.622 24.8823 408.927 24.8823Z" fill="#CCF4F1"/>
<path d="M408.935 207.645C395.49 207.645 384.546 196.729 384.546 183.317V48.9061C384.546 35.4945 395.49 24.5781 408.935 24.5781C422.381 24.5781 433.325 35.4945 433.325 48.9061V183.317C433.325 196.729 422.381 207.645 408.935 207.645ZM408.935 25.1937C395.827 25.1937 385.163 35.831 385.163 48.9061V183.317C385.163 196.392 395.827 207.03 408.935 207.03C422.044 207.03 432.708 196.392 432.708 183.317V48.9061C432.708 35.831 422.044 25.1937 408.935 25.1937Z" fill="#00C9B8"/>
<path d="M461.179 45.6392C472.888 45.6392 482.384 55.111 482.384 66.7907V206.939C482.384 218.619 472.888 228.091 461.179 228.091C449.469 228.091 439.974 218.619 439.974 206.939V66.7907C439.974 55.111 449.469 45.6392 461.179 45.6392Z" fill="#A3ECE5"/>
<path d="M461.187 228.395C449.33 228.395 439.677 218.767 439.677 206.939V66.7829C439.677 54.9554 449.33 45.3276 461.187 45.3276C473.044 45.3276 482.697 54.9554 482.697 66.7829V206.939C482.697 218.767 473.044 228.395 461.187 228.395ZM461.187 45.9432C449.667 45.9432 440.295 55.2919 440.295 66.7829V206.939C440.295 218.43 449.667 227.779 461.187 227.779C472.707 227.779 482.079 218.43 482.079 206.939V66.7829C482.079 55.2919 472.707 45.9432 461.187 45.9432Z" fill="#00C9B8"/>
<path d="M461.179 24.8823C472.888 24.8823 482.384 34.3541 482.384 46.0339V186.182C482.384 197.862 472.888 207.334 461.179 207.334C449.469 207.334 439.974 197.862 439.974 186.182V46.0339C439.974 34.3541 449.469 24.8823 461.179 24.8823Z" fill="#CCF4F1"/>
<path d="M461.187 207.645C449.33 207.645 439.677 198.017 439.677 186.19V46.0333C439.677 34.2059 449.33 24.5781 461.187 24.5781C473.044 24.5781 482.697 34.2059 482.697 46.0333V186.19C482.697 198.017 473.044 207.645 461.187 207.645ZM461.187 25.1937C449.667 25.1937 440.295 34.5424 440.295 46.0333V186.19C440.295 197.681 449.667 207.03 461.187 207.03C472.707 207.03 482.079 197.681 482.079 186.19V46.0333C482.079 34.5424 472.707 25.1937 461.187 25.1937Z" fill="#00C9B8"/>
<path d="M506.848 45.6392C516.508 45.6392 524.35 53.453 524.35 63.0972V210.633C524.35 220.277 516.516 228.091 506.848 228.091C497.187 228.091 489.345 220.277 489.345 210.633V63.0972C489.345 53.453 497.179 45.6392 506.848 45.6392Z" fill="#A3ECE5"/>
<path d="M506.855 228.395C497.039 228.395 489.049 220.425 489.049 210.633V63.0893C489.049 53.2974 497.039 45.3276 506.855 45.3276C516.672 45.3276 524.662 53.2974 524.662 63.0893V210.633C524.662 220.425 516.672 228.395 506.855 228.395ZM506.855 45.9432C497.376 45.9432 489.666 53.6339 489.666 63.0893V210.633C489.666 220.088 497.376 227.779 506.855 227.779C516.335 227.779 524.045 220.088 524.045 210.633V63.0893C524.045 53.6339 516.335 45.9432 506.855 45.9432Z" fill="#00C9B8"/>
<path d="M506.848 24.8823C516.508 24.8823 524.35 32.6962 524.35 42.3403V189.876C524.35 199.52 516.516 207.334 506.848 207.334C497.187 207.334 489.345 199.52 489.345 189.876V42.3403C489.345 32.6962 497.179 24.8823 506.848 24.8823Z" fill="#CCF4F1"/>
<path d="M506.855 207.645C497.039 207.645 489.049 199.675 489.049 189.883V42.3398C489.049 32.5479 497.039 24.5781 506.855 24.5781C516.672 24.5781 524.662 32.5479 524.662 42.3398V189.883C524.662 199.675 516.672 207.645 506.855 207.645ZM506.855 25.1937C497.376 25.1937 489.666 32.8844 489.666 42.3398V189.883C489.666 199.339 497.376 207.03 506.855 207.03C516.335 207.03 524.045 199.339 524.045 189.883V42.3398C524.045 32.8844 516.335 25.1937 506.855 25.1937Z" fill="#00C9B8"/>
<path d="M548.813 45.6392C558.473 45.6392 566.315 53.453 566.315 63.0972V210.633C566.315 220.277 558.482 228.091 548.813 228.091C539.153 228.091 531.311 220.277 531.311 210.633V63.0972C531.311 53.453 539.144 45.6392 548.813 45.6392Z" fill="#A3ECE5"/>
<path d="M548.821 228.395C539.004 228.395 531.014 220.425 531.014 210.633V63.0893C531.014 53.2974 539.004 45.3276 548.821 45.3276C558.638 45.3276 566.628 53.2974 566.628 63.0893V210.633C566.628 220.425 558.638 228.395 548.821 228.395ZM548.821 45.9432C539.342 45.9432 531.631 53.6339 531.631 63.0893V210.633C531.631 220.088 539.342 227.779 548.821 227.779C558.3 227.779 566.01 220.088 566.01 210.633V63.0893C566.01 53.6339 558.3 45.9432 548.821 45.9432Z" fill="#00C9B8"/>
<path d="M548.813 24.8823C558.473 24.8823 566.315 32.6962 566.315 42.3403V189.876C566.315 199.52 558.482 207.334 548.813 207.334C539.153 207.334 531.311 199.52 531.311 189.876V42.3403C531.311 32.6962 539.144 24.8823 548.813 24.8823Z" fill="#CCF4F1"/>
<path d="M548.821 207.645C539.004 207.645 531.014 199.675 531.014 189.883V42.3398C531.014 32.5479 539.004 24.5781 548.821 24.5781C558.638 24.5781 566.628 32.5479 566.628 42.3398V189.883C566.628 199.675 558.638 207.645 548.821 207.645ZM548.821 25.1937C539.342 25.1937 531.631 32.8844 531.631 42.3398V189.883C531.631 199.339 539.342 207.03 548.821 207.03C558.3 207.03 566.01 199.339 566.01 189.883V42.3398C566.01 32.8844 558.3 25.1937 548.821 25.1937Z" fill="#00C9B8"/>
<path d="M580.082 45.6392C583.834 45.6392 586.887 48.6761 586.887 52.427V221.303C586.887 225.054 583.842 228.091 580.082 228.091C576.33 228.091 573.277 225.054 573.277 221.303V52.427C573.277 48.6761 576.321 45.6392 580.082 45.6392Z" fill="#A3ECE5"/>
<path d="M580.09 228.395C576.173 228.395 572.981 225.21 572.981 221.303V52.4192C572.981 48.5123 576.173 45.3276 580.09 45.3276C584.007 45.3276 587.2 48.5123 587.2 52.4192V221.303C587.2 225.21 584.007 228.395 580.09 228.395ZM580.09 45.9432C576.511 45.9432 573.598 48.8488 573.598 52.4192V221.303C573.598 224.874 576.511 227.779 580.09 227.779C583.67 227.779 586.583 224.874 586.583 221.303V52.4192C586.583 48.8488 583.67 45.9432 580.09 45.9432Z" fill="#00C9B8"/>
<path d="M580.082 24.8823C583.834 24.8823 586.887 27.9192 586.887 31.6702V200.546C586.887 204.297 583.842 207.334 580.082 207.334C576.33 207.334 573.277 204.297 573.277 200.546V31.6702C573.277 27.9192 576.321 24.8823 580.082 24.8823Z" fill="#CCF4F1"/>
<path d="M580.09 207.645C576.173 207.645 572.981 204.461 572.981 200.554V31.6697C572.981 27.7628 576.173 24.5781 580.09 24.5781C584.007 24.5781 587.2 27.7628 587.2 31.6697V200.554C587.2 204.461 584.007 207.645 580.09 207.645ZM580.09 25.1937C576.511 25.1937 573.598 28.0993 573.598 31.6697V200.554C573.598 204.124 576.511 207.03 580.09 207.03C583.67 207.03 586.583 204.124 586.583 200.554V31.6697C586.583 28.0993 583.67 25.1937 580.09 25.1937Z" fill="#00C9B8"/>
<path d="M121.865 130.022V118.753H130.118V119.848H123.134V123.792H127.696V124.871H123.134V128.928H130.184V130.022H121.865Z" fill="#00C9B8"/>
<path d="M136.015 130.167C135.232 130.167 134.524 129.981 133.89 129.611C133.256 129.241 132.745 128.742 132.374 128.106C132.004 127.47 131.814 126.762 131.814 125.981C131.814 125.2 132.004 124.492 132.374 123.864C132.745 123.236 133.256 122.737 133.89 122.359C134.524 121.981 135.232 121.795 136.015 121.795C136.616 121.795 137.201 121.908 137.761 122.125C138.321 122.343 138.815 122.657 139.243 123.067L138.469 123.936C138.139 123.59 137.761 123.333 137.341 123.156C136.921 122.979 136.484 122.89 136.031 122.89C135.471 122.89 134.96 123.027 134.507 123.301C134.054 123.574 133.692 123.945 133.42 124.411C133.148 124.878 133.017 125.401 133.017 125.981C133.017 126.561 133.148 127.084 133.42 127.559C133.692 128.034 134.054 128.404 134.516 128.677C134.977 128.951 135.487 129.088 136.048 129.088C136.501 129.088 136.921 128.999 137.324 128.83C137.728 128.661 138.098 128.404 138.452 128.074L139.21 128.879C138.774 129.289 138.279 129.603 137.728 129.828C137.176 130.054 136.608 130.167 136.015 130.167Z" fill="#00C9B8"/>
<path d="M145.058 130.183C144.275 130.183 143.567 129.998 142.925 129.627C142.282 129.257 141.772 128.758 141.401 128.122C141.03 127.486 140.841 126.778 140.841 125.997C140.841 125.216 141.03 124.508 141.401 123.872C141.772 123.236 142.282 122.737 142.925 122.367C143.567 121.997 144.275 121.812 145.058 121.812C145.84 121.812 146.565 121.997 147.199 122.367C147.833 122.737 148.344 123.236 148.715 123.872C149.085 124.508 149.275 125.216 149.275 125.997C149.275 126.778 149.085 127.486 148.715 128.122C148.344 128.758 147.833 129.257 147.199 129.627C146.565 129.998 145.849 130.183 145.058 130.183ZM145.058 129.12C145.618 129.12 146.129 128.983 146.582 128.702C147.035 128.42 147.397 128.05 147.669 127.575C147.94 127.1 148.072 126.577 148.072 125.997C148.072 125.418 147.94 124.878 147.669 124.411C147.397 123.945 147.035 123.574 146.582 123.293C146.129 123.011 145.618 122.874 145.058 122.874C144.498 122.874 143.987 123.011 143.534 123.293C143.081 123.574 142.719 123.945 142.447 124.411C142.175 124.878 142.043 125.41 142.043 125.997C142.043 126.585 142.175 127.1 142.447 127.575C142.719 128.05 143.081 128.42 143.534 128.702C143.987 128.983 144.498 129.12 145.058 129.12Z" fill="#00C9B8"/>
<path d="M154.43 130.183C153.746 130.183 153.112 130.07 152.511 129.853C151.91 129.635 151.391 129.321 150.954 128.927L151.696 128.154C152.083 128.5 152.503 128.766 152.964 128.951C153.425 129.136 153.895 129.233 154.381 129.233C155.039 129.233 155.575 129.096 155.995 128.83C156.415 128.565 156.621 128.211 156.621 127.784C156.621 127.43 156.497 127.156 156.25 126.955C156.003 126.754 155.616 126.617 155.089 126.544L153.656 126.351C152.832 126.23 152.223 125.989 151.819 125.627C151.416 125.265 151.218 124.766 151.218 124.146C151.218 123.695 151.35 123.293 151.613 122.938C151.877 122.584 152.239 122.302 152.709 122.101C153.178 121.9 153.713 121.795 154.315 121.795C154.916 121.795 155.484 121.884 156.011 122.053C156.538 122.222 157.057 122.496 157.56 122.858L156.917 123.663C156.456 123.349 156.011 123.124 155.575 122.979C155.138 122.834 154.702 122.761 154.249 122.761C153.68 122.761 153.219 122.882 152.865 123.132C152.511 123.381 152.338 123.703 152.338 124.097C152.338 124.46 152.462 124.741 152.7 124.927C152.939 125.112 153.335 125.248 153.87 125.321L155.303 125.514C156.127 125.619 156.744 125.86 157.156 126.222C157.568 126.585 157.774 127.084 157.774 127.72C157.774 128.178 157.626 128.597 157.329 128.975C157.033 129.354 156.637 129.643 156.135 129.861C155.632 130.078 155.064 130.183 154.43 130.183Z" fill="#00C9B8"/>
<path d="M160.146 133.467C159.99 133.467 159.85 133.467 159.709 133.443C159.569 133.427 159.462 133.411 159.372 133.386V132.308C159.561 132.348 159.792 132.372 160.064 132.372C160.788 132.372 161.34 131.954 161.711 131.117L162.205 130.006L158.845 121.957H160.195L162.864 128.573L165.747 121.957H167.064L162.946 131.277C162.716 131.793 162.469 132.211 162.205 132.533C161.941 132.855 161.645 133.089 161.307 133.241C160.97 133.394 160.583 133.467 160.146 133.467Z" fill="#00C9B8"/>
<path d="M171.66 130.183C170.976 130.183 170.342 130.07 169.741 129.853C169.139 129.635 168.621 129.321 168.184 128.927L168.925 128.154C169.312 128.5 169.732 128.766 170.194 128.951C170.655 129.136 171.124 129.233 171.61 129.233C172.269 129.233 172.804 129.096 173.225 128.83C173.645 128.565 173.85 128.211 173.85 127.784C173.85 127.43 173.727 127.156 173.48 126.955C173.233 126.754 172.846 126.617 172.319 126.544L170.885 126.351C170.062 126.23 169.452 125.989 169.049 125.627C168.645 125.265 168.448 124.766 168.448 124.146C168.448 123.695 168.579 123.293 168.843 122.938C169.107 122.584 169.469 122.302 169.938 122.101C170.408 121.9 170.943 121.795 171.544 121.795C172.146 121.795 172.714 121.884 173.241 122.053C173.768 122.222 174.287 122.496 174.789 122.858L174.147 123.663C173.686 123.349 173.241 123.124 172.804 122.979C172.368 122.834 171.931 122.761 171.478 122.761C170.91 122.761 170.449 122.882 170.095 123.132C169.741 123.381 169.568 123.703 169.568 124.097C169.568 124.46 169.691 124.741 169.93 124.927C170.169 125.112 170.564 125.248 171.1 125.321L172.533 125.514C173.356 125.619 173.974 125.86 174.386 126.222C174.798 126.585 175.003 127.084 175.003 127.72C175.003 128.178 174.855 128.597 174.559 128.975C174.262 129.354 173.867 129.643 173.365 129.861C172.862 130.078 172.294 130.183 171.66 130.183Z" fill="#00C9B8"/>
<path d="M180.275 130.183C179.558 130.183 179.015 130.014 178.628 129.684C178.241 129.354 178.051 128.871 178.051 128.235V122.971H176.272V121.956H178.051V119.912L179.254 119.606V121.956H181.741V122.971H179.254V127.929C179.254 128.355 179.352 128.669 179.55 128.854C179.748 129.04 180.069 129.136 180.522 129.136C180.753 129.136 180.958 129.12 181.14 129.088C181.321 129.056 181.519 128.999 181.724 128.927V129.973C181.519 130.046 181.28 130.102 181.024 130.134C180.769 130.166 180.514 130.183 180.275 130.183Z" fill="#00C9B8"/>
<path d="M187.572 130.166C186.781 130.166 186.065 129.981 185.422 129.611C184.78 129.24 184.269 128.741 183.891 128.106C183.512 127.47 183.322 126.761 183.322 125.981C183.322 125.2 183.503 124.508 183.866 123.88C184.228 123.252 184.714 122.753 185.332 122.383C185.95 122.012 186.633 121.827 187.391 121.827C188.149 121.827 188.791 122.012 189.376 122.383C189.96 122.753 190.43 123.252 190.776 123.88C191.122 124.508 191.295 125.208 191.295 125.981V126.351H184.525C184.591 126.874 184.764 127.349 185.044 127.767C185.324 128.186 185.686 128.516 186.139 128.757C186.592 128.999 187.086 129.12 187.621 129.12C188.05 129.12 188.47 129.055 188.873 128.927C189.277 128.798 189.623 128.613 189.895 128.379L190.652 129.168C190.191 129.498 189.713 129.748 189.211 129.917C188.709 130.086 188.165 130.166 187.572 130.166ZM184.558 125.401H190.076C190.01 124.918 189.845 124.483 189.59 124.105C189.335 123.727 189.013 123.421 188.626 123.204C188.239 122.986 187.819 122.874 187.358 122.874C186.897 122.874 186.452 122.978 186.057 123.196C185.661 123.413 185.332 123.711 185.068 124.089C184.805 124.467 184.632 124.91 184.558 125.401Z" fill="#00C9B8"/>
<path d="M193.815 130.022V121.956H195.034V122.842C195.66 122.142 196.467 121.795 197.455 121.795C198.04 121.795 198.551 121.924 199.004 122.19C199.457 122.455 199.802 122.81 200.058 123.26C200.395 122.769 200.807 122.399 201.277 122.158C201.746 121.916 202.29 121.795 202.891 121.795C203.492 121.795 204.019 121.924 204.472 122.19C204.925 122.455 205.279 122.818 205.535 123.285C205.79 123.751 205.922 124.299 205.922 124.918V130.022H204.719V125.16C204.719 124.444 204.53 123.872 204.143 123.462C203.756 123.051 203.237 122.842 202.578 122.842C202.125 122.842 201.713 122.954 201.343 123.172C200.972 123.389 200.651 123.719 200.387 124.162C200.412 124.283 200.428 124.403 200.445 124.524C200.461 124.645 200.47 124.782 200.47 124.918V130.022H199.267V125.16C199.267 124.444 199.078 123.872 198.691 123.462C198.304 123.051 197.793 122.842 197.142 122.842C196.706 122.842 196.302 122.938 195.948 123.14C195.594 123.341 195.289 123.631 195.034 124.017V130.022H193.815Z" fill="#00C9B8"/>
<path d="M217.567 130.183C216.678 130.183 215.895 129.95 215.22 129.491C214.545 129.032 214.018 128.396 213.63 127.583C213.243 126.77 213.054 125.837 213.054 124.774C213.054 123.526 213.268 122.44 213.696 121.514C214.125 120.588 214.726 119.864 215.508 119.349C216.291 118.834 217.197 118.576 218.226 118.576C218.712 118.576 219.19 118.641 219.659 118.769C220.129 118.898 220.557 119.083 220.928 119.333L220.335 120.234C219.997 120.041 219.635 119.888 219.264 119.784C218.893 119.679 218.514 119.623 218.127 119.623C217.337 119.623 216.653 119.824 216.077 120.226C215.5 120.629 215.055 121.208 214.742 121.957C214.429 122.705 214.265 123.607 214.24 124.661C214.668 124.122 215.179 123.703 215.772 123.406C216.365 123.108 216.983 122.955 217.617 122.955C218.366 122.955 219.025 123.108 219.61 123.406C220.195 123.703 220.648 124.122 220.977 124.653C221.306 125.185 221.471 125.788 221.471 126.464C221.471 127.14 221.298 127.809 220.96 128.372C220.623 128.935 220.153 129.378 219.569 129.7C218.984 130.022 218.317 130.183 217.567 130.183ZM217.452 123.905C216.851 123.905 216.266 124.05 215.714 124.347C215.162 124.645 214.676 125.048 214.273 125.563C214.363 126.279 214.553 126.915 214.841 127.454C215.129 127.994 215.508 128.42 215.978 128.718C216.447 129.016 216.966 129.169 217.551 129.169C218.078 129.169 218.547 129.056 218.959 128.823C219.371 128.589 219.692 128.275 219.931 127.865C220.17 127.454 220.285 127.004 220.285 126.497C220.285 125.989 220.162 125.547 219.923 125.152C219.684 124.758 219.346 124.452 218.926 124.235C218.506 124.017 218.012 123.905 217.452 123.905Z" fill="#00C9B8"/>
<path d="M227.797 130.199C227.006 130.199 226.306 130.062 225.688 129.781C225.071 129.499 224.585 129.121 224.23 128.63C223.876 128.139 223.695 127.591 223.695 126.98C223.695 126.521 223.81 126.094 224.041 125.7C224.272 125.305 224.593 124.967 225.005 124.685C225.416 124.404 225.886 124.203 226.413 124.082C225.746 123.897 225.194 123.575 224.774 123.1C224.354 122.625 224.14 122.094 224.14 121.506C224.14 120.951 224.296 120.452 224.617 120.009C224.939 119.566 225.375 119.22 225.927 118.963C226.479 118.705 227.105 118.576 227.797 118.576C228.488 118.576 229.123 118.705 229.674 118.963C230.226 119.22 230.655 119.566 230.976 120.009C231.297 120.452 231.453 120.951 231.453 121.506C231.453 122.094 231.248 122.625 230.827 123.1C230.407 123.575 229.864 123.897 229.18 124.082C229.979 124.267 230.638 124.621 231.14 125.152C231.643 125.684 231.898 126.295 231.898 126.98C231.898 127.591 231.725 128.139 231.371 128.63C231.017 129.121 230.531 129.499 229.913 129.781C229.296 130.062 228.587 130.199 227.797 130.199ZM227.797 129.265C228.357 129.265 228.859 129.161 229.296 128.96C229.732 128.758 230.086 128.477 230.342 128.122C230.597 127.768 230.729 127.374 230.729 126.931C230.729 126.488 230.597 126.094 230.342 125.74C230.086 125.386 229.732 125.104 229.296 124.903C228.859 124.702 228.357 124.597 227.797 124.597C227.237 124.597 226.734 124.702 226.298 124.903C225.861 125.104 225.507 125.386 225.252 125.74C224.996 126.094 224.865 126.488 224.865 126.931C224.865 127.374 224.996 127.768 225.252 128.122C225.507 128.477 225.861 128.758 226.298 128.96C226.734 129.161 227.237 129.265 227.797 129.265ZM227.797 123.599C228.266 123.599 228.694 123.51 229.073 123.325C229.452 123.14 229.749 122.899 229.971 122.593C230.193 122.287 230.3 121.941 230.3 121.554C230.3 121.168 230.193 120.822 229.971 120.508C229.749 120.194 229.452 119.953 229.073 119.775C228.694 119.598 228.266 119.51 227.797 119.51C227.327 119.51 226.899 119.598 226.52 119.775C226.141 119.953 225.845 120.194 225.622 120.508C225.4 120.822 225.293 121.168 225.293 121.554C225.293 121.941 225.4 122.287 225.622 122.593C225.845 122.899 226.141 123.14 226.52 123.325C226.899 123.51 227.327 123.599 227.797 123.599Z" fill="#00C9B8"/>
<path d="M235.456 130.118C235.225 130.118 235.028 130.038 234.863 129.877C234.698 129.716 234.616 129.522 234.616 129.297C234.616 129.072 234.698 128.879 234.863 128.718C235.028 128.557 235.225 128.476 235.456 128.476C235.686 128.476 235.884 128.557 236.049 128.718C236.213 128.879 236.296 129.072 236.296 129.297C236.296 129.522 236.213 129.716 236.049 129.877C235.884 130.038 235.686 130.118 235.456 130.118Z" fill="#00C9B8"/>
<path d="M239.146 130.022V129.169L243.758 124.243C244.12 123.856 244.4 123.518 244.606 123.221C244.812 122.923 244.952 122.649 245.034 122.391C245.117 122.134 245.158 121.86 245.158 121.57C245.158 120.999 244.927 120.532 244.474 120.162C244.021 119.792 243.437 119.606 242.736 119.606C242.201 119.606 241.699 119.711 241.237 119.912C240.776 120.114 240.257 120.468 239.689 120.975L238.997 120.17C239.599 119.631 240.208 119.236 240.826 118.971C241.443 118.705 242.086 118.576 242.753 118.576C243.42 118.576 244.062 118.705 244.598 118.954C245.133 119.204 245.561 119.55 245.866 119.993C246.171 120.436 246.327 120.935 246.327 121.506C246.327 121.884 246.278 122.23 246.179 122.544C246.08 122.858 245.907 123.196 245.652 123.559C245.397 123.921 245.034 124.347 244.565 124.855L240.628 129.024L246.574 129.008V130.022H239.146Z" fill="#00C9B8"/>
</svg>
