<svg width="674" height="414" viewBox="0 0 674 414" fill="none" xmlns="http://www.w3.org/2000/svg">
<path d="M305.206 21.062H117.253C99.8894 21.062 85.8135 35.0886 85.8135 52.3912V172.184C85.8135 189.487 99.8894 203.513 117.253 203.513H305.206C322.569 203.513 336.645 189.487 336.645 172.184V52.3912C336.645 35.0886 322.569 21.062 305.206 21.062Z" fill="#A3ECE5"/>
<path d="M305.214 203.817H117.253C99.7498 203.817 85.5085 189.625 85.5085 172.184V52.3824C85.5085 34.9408 99.7498 20.7495 117.253 20.7495H305.214C322.717 20.7495 336.958 34.9408 336.958 52.3824V172.184C336.958 189.625 322.717 203.817 305.214 203.817ZM117.253 21.3651C100.087 21.3651 86.1263 35.2773 86.1263 52.3824V172.184C86.1263 189.289 100.087 203.201 117.253 203.201H305.214C322.379 203.201 336.34 189.289 336.34 172.184V52.3824C336.34 35.2773 322.379 21.3651 305.214 21.3651H117.253Z" fill="#00C9B8"/>
<path d="M305.206 0.304688H117.253C99.8894 0.304688 85.8135 14.3312 85.8135 31.6339V151.427C85.8135 168.73 99.8894 182.756 117.253 182.756H305.206C322.569 182.756 336.645 168.73 336.645 151.427V31.6339C336.645 14.3312 322.569 0.304688 305.206 0.304688Z" fill="#CCF4F1"/>
<path d="M305.214 183.067H117.253C99.7498 183.067 85.5085 168.876 85.5085 151.434V31.6329C85.5085 14.1913 99.7498 0 117.253 0H305.214C322.717 0 336.958 14.1913 336.958 31.6329V151.434C336.958 168.876 322.717 183.067 305.214 183.067ZM117.253 0.615586C100.087 0.615586 86.1263 14.5278 86.1263 31.6329V151.434C86.1263 168.539 100.087 182.451 117.253 182.451H305.214C322.379 182.451 336.34 168.539 336.34 151.434V31.6329C336.34 14.5278 322.379 0.615586 305.214 0.615586H117.253Z" fill="#00C9B8"/>
<path d="M370.193 21.062H367.73C354.415 21.062 343.621 31.8181 343.621 45.0863V179.489C343.621 192.757 354.415 203.513 367.73 203.513H370.193C383.508 203.513 394.302 192.757 394.302 179.489V45.0863C394.302 31.8181 383.508 21.062 370.193 21.062Z" fill="#A3ECE5"/>
<path d="M370.201 203.817H367.73C354.271 203.817 343.316 192.9 343.316 179.489V45.0775C343.316 31.6659 354.271 20.7495 367.73 20.7495H370.201C383.66 20.7495 394.614 31.6659 394.614 45.0775V179.489C394.614 192.9 383.66 203.817 370.201 203.817ZM367.73 21.3651C354.609 21.3651 343.934 32.0024 343.934 45.0775V179.489C343.934 192.564 354.609 203.201 367.73 203.201H370.201C383.322 203.201 393.997 192.564 393.997 179.489V45.0775C393.997 32.0024 383.322 21.3651 370.201 21.3651H367.73Z" fill="#00C9B8"/>
<path d="M370.193 0.304688H367.73C354.415 0.304688 343.621 11.0607 343.621 24.3289V158.732C343.621 172 354.415 182.756 367.73 182.756H370.193C383.508 182.756 394.302 172 394.302 158.732V24.3289C394.302 11.0607 383.508 0.304688 370.193 0.304688Z" fill="#CCF4F1"/>
<path d="M370.2 183.067H367.729C354.271 183.067 343.316 172.151 343.316 158.739V24.3279C343.316 10.9164 354.271 0 367.729 0H370.2C383.659 0 394.614 10.9164 394.614 24.3279V158.739C394.614 172.151 383.659 183.067 370.2 183.067ZM367.729 0.615586C354.608 0.615586 343.934 11.2529 343.934 24.3279V158.739C343.934 171.814 354.608 182.451 367.729 182.451H370.2C383.321 182.451 393.996 171.814 393.996 158.739V24.3279C393.996 11.2529 383.321 0.615586 370.2 0.615586H367.729Z" fill="#00C9B8"/>
<path d="M421.681 21.062C432.948 21.062 442.083 30.1645 442.083 41.3928V183.183C442.083 194.411 432.948 203.513 421.681 203.513C410.413 203.513 401.278 194.411 401.278 183.183V41.3928C401.278 30.1645 410.413 21.062 421.681 21.062Z" fill="#A3ECE5"/>
<path d="M421.68 203.817C410.264 203.817 400.973 194.558 400.973 183.182V41.384C400.973 30.0079 410.264 20.7495 421.68 20.7495C433.096 20.7495 442.387 30.0079 442.387 41.384V183.182C442.387 194.558 433.096 203.817 421.68 203.817ZM421.68 21.3651C410.602 21.3651 401.591 30.3445 401.591 41.384V183.182C401.591 194.222 410.602 203.201 421.68 203.201C432.759 203.201 441.77 194.222 441.77 183.182V41.384C441.77 30.3445 432.759 21.3651 421.68 21.3651Z" fill="#00C9B8"/>
<path d="M421.681 0.304688C432.948 0.304688 442.083 9.40712 442.083 20.6354V162.425C442.083 173.654 432.948 182.756 421.681 182.756C410.413 182.756 401.278 173.654 401.278 162.425V20.6354C401.278 9.40712 410.413 0.304688 421.681 0.304688Z" fill="#CCF4F1"/>
<path d="M421.68 183.067C410.264 183.067 400.973 173.809 400.973 162.433V20.6344C400.973 9.25837 410.264 0 421.68 0C433.096 0 442.387 9.25837 442.387 20.6344V162.433C442.387 173.809 433.096 183.067 421.68 183.067ZM421.68 0.615586C410.602 0.615586 401.591 9.59489 401.591 20.6344V162.433C401.591 173.472 410.602 182.451 421.68 182.451C432.759 182.451 441.77 173.472 441.77 162.433V20.6344C441.77 9.59489 432.759 0.615586 421.68 0.615586Z" fill="#00C9B8"/>
<path d="M468.218 21.062C478.802 21.062 487.385 29.6146 487.385 40.1616V184.414C487.385 194.961 478.802 203.513 468.218 203.513C457.634 203.513 449.051 194.961 449.051 184.414V40.1616C449.051 29.6146 457.634 21.062 468.218 21.062Z" fill="#A3ECE5"/>
<path d="M468.217 203.817C457.476 203.817 448.746 195.108 448.746 184.413V40.1528C448.746 29.4498 457.485 20.7495 468.217 20.7495C478.95 20.7495 487.689 29.458 487.689 40.1528V184.413C487.689 195.116 478.95 203.817 468.217 203.817ZM468.217 21.3651C457.822 21.3651 449.363 29.7945 449.363 40.1528V184.413C449.363 194.772 457.822 203.201 468.217 203.201C478.612 203.201 487.071 194.772 487.071 184.413V40.1528C487.071 29.7945 478.612 21.3651 468.217 21.3651Z" fill="#00C9B8"/>
<path d="M468.218 0.304688C478.802 0.304688 487.385 8.85719 487.385 19.4042V163.657C487.385 174.204 478.802 182.756 468.218 182.756C457.634 182.756 449.051 174.204 449.051 163.657V19.4042C449.051 8.85719 457.634 0.304688 468.218 0.304688Z" fill="#CCF4F1"/>
<path d="M468.217 183.067C457.476 183.067 448.746 174.359 448.746 163.664V19.4032C448.746 8.70024 457.485 0 468.217 0C478.95 0 487.689 8.70845 487.689 19.4032V163.664C487.689 174.367 478.95 183.067 468.217 183.067ZM468.217 0.615586C457.822 0.615586 449.363 9.04497 449.363 19.4032V163.664C449.363 174.022 457.822 182.451 468.217 182.451C478.612 182.451 487.071 174.022 487.071 163.664V19.4032C487.071 9.04497 478.612 0.615586 468.217 0.615586Z" fill="#00C9B8"/>
<path d="M509.813 21.062C518.346 21.062 525.273 27.9566 525.273 36.4681V188.107C525.273 196.619 518.354 203.513 509.813 203.513C501.28 203.513 494.353 196.619 494.353 188.107V36.4681C494.353 27.9566 501.272 21.062 509.813 21.062Z" fill="#A3ECE5"/>
<path d="M509.813 203.817C501.123 203.817 494.048 196.766 494.048 188.107V36.4593C494.048 27.8 501.123 20.7495 509.813 20.7495C518.503 20.7495 525.578 27.8 525.578 36.4593V188.107C525.578 196.766 518.503 203.817 509.813 203.817ZM509.813 21.3651C501.461 21.3651 494.666 28.1366 494.666 36.4593V188.107C494.666 196.43 501.461 203.201 509.813 203.201C518.165 203.201 524.96 196.43 524.96 188.107V36.4593C524.96 28.1366 518.165 21.3651 509.813 21.3651Z" fill="#00C9B8"/>
<path d="M509.813 0.304688C518.346 0.304688 525.273 7.19922 525.273 15.7107V167.35C525.273 175.862 518.354 182.756 509.813 182.756C501.28 182.756 494.353 175.862 494.353 167.35V15.7107C494.353 7.19922 501.272 0.304688 509.813 0.304688Z" fill="#CCF4F1"/>
<path d="M509.813 183.067C501.123 183.067 494.048 176.016 494.048 167.357V15.7097C494.048 7.05047 501.123 0 509.813 0C518.503 0 525.578 7.05047 525.578 15.7097V167.357C525.578 176.016 518.503 183.067 509.813 183.067ZM509.813 0.615586C501.461 0.615586 494.666 7.38699 494.666 15.7097V167.357C494.666 175.68 501.461 182.451 509.813 182.451C518.165 182.451 524.96 175.68 524.96 167.357V15.7097C524.96 7.38699 518.165 0.615586 509.813 0.615586Z" fill="#00C9B8"/>
<path d="M540.288 21.062C544.728 21.062 548.336 24.6488 548.336 29.0811V195.494C548.336 199.927 544.736 203.513 540.288 203.513C535.849 203.513 532.241 199.927 532.241 195.494V29.0811C532.241 24.6488 535.841 21.062 540.288 21.062Z" fill="#A3ECE5"/>
<path d="M540.288 203.817C535.684 203.817 531.936 200.082 531.936 195.494V29.0722C531.936 24.4841 535.684 20.7495 540.288 20.7495C544.893 20.7495 548.64 24.4841 548.64 29.0722V195.494C548.64 200.082 544.893 203.817 540.288 203.817ZM540.288 21.3651C536.022 21.3651 532.554 24.8206 532.554 29.0722V195.494C532.554 199.745 536.022 203.201 540.288 203.201C544.555 203.201 548.023 199.745 548.023 195.494V29.0722C548.023 24.8206 544.555 21.3651 540.288 21.3651Z" fill="#00C9B8"/>
<path d="M540.288 0.304688C544.728 0.304688 548.336 3.89147 548.336 8.32369V174.737C548.336 179.169 544.736 182.756 540.288 182.756C535.849 182.756 532.241 179.169 532.241 174.737V8.32369C532.241 3.89147 535.841 0.304688 540.288 0.304688Z" fill="#CCF4F1"/>
<path d="M540.288 183.067C535.684 183.067 531.936 179.332 531.936 174.744V8.32268C531.936 3.73452 535.684 0 540.288 0C544.893 0 548.64 3.73452 548.64 8.32268V174.744C548.64 179.332 544.893 183.067 540.288 183.067ZM540.288 0.615586C536.022 0.615586 532.554 4.07104 532.554 8.32268V174.744C532.554 178.996 536.022 182.451 540.288 182.451C544.555 182.451 548.023 178.996 548.023 174.744V8.32268C548.023 4.07104 544.555 0.615586 540.288 0.615586Z" fill="#00C9B8"/>
<path d="M559.645 21.062C562.042 21.062 563.986 22.9991 563.986 25.3875V199.188C563.986 201.576 562.042 203.513 559.645 203.513C557.248 203.513 555.304 201.576 555.304 199.188V25.3875C555.304 22.9991 557.248 21.062 559.645 21.062Z" fill="#A3ECE5"/>
<path d="M559.644 203.817C557.083 203.817 554.999 201.74 554.999 199.187V25.3787C554.999 22.8261 557.083 20.7495 559.644 20.7495C562.206 20.7495 564.29 22.8261 564.29 25.3787V199.187C564.29 201.74 562.206 203.817 559.644 203.817ZM559.644 21.3651C557.42 21.3651 555.617 23.1626 555.617 25.3787V199.187C555.617 201.403 557.42 203.201 559.644 203.201C561.868 203.201 563.672 201.403 563.672 199.187V25.3787C563.672 23.1626 561.868 21.3651 559.644 21.3651Z" fill="#00C9B8"/>
<path d="M559.645 0.304688C562.042 0.304688 563.986 2.2417 563.986 4.63017V178.431C563.986 180.819 562.042 182.756 559.645 182.756C557.248 182.756 555.304 180.819 555.304 178.431V4.63017C555.304 2.2417 557.248 0.304688 559.645 0.304688Z" fill="#CCF4F1"/>
<path d="M559.644 183.067C557.083 183.067 554.999 180.99 554.999 178.438V4.62917C554.999 2.07654 557.083 0 559.644 0C562.206 0 564.29 2.07654 564.29 4.62917V178.438C564.29 180.99 562.206 183.067 559.644 183.067ZM559.644 0.615586C557.42 0.615586 555.617 2.41306 555.617 4.62917V178.438C555.617 180.654 557.42 182.451 559.644 182.451C561.868 182.451 563.672 180.654 563.672 178.438V4.62917C563.672 2.41306 561.868 0.615586 559.644 0.615586Z" fill="#00C9B8"/>
<path d="M574.47 21.062C576.414 21.062 577.987 22.6297 577.987 24.5668V200.009C577.987 201.946 576.414 203.513 574.47 203.513C572.527 203.513 570.953 201.946 570.953 200.009V24.5668C570.953 22.6297 572.527 21.062 574.47 21.062Z" fill="#A3ECE5"/>
<path d="M574.471 203.817C572.362 203.817 570.649 202.109 570.649 200.008V24.5579C570.649 22.4567 572.362 20.7495 574.471 20.7495C576.579 20.7495 578.293 22.4567 578.293 24.5579V200.008C578.293 202.109 576.579 203.817 574.471 203.817ZM574.471 21.3651C572.7 21.3651 571.267 22.8015 571.267 24.5579V200.008C571.267 201.773 572.708 203.201 574.471 203.201C576.233 203.201 577.675 201.765 577.675 200.008V24.5579C577.675 22.7933 576.233 21.3651 574.471 21.3651Z" fill="#00C9B8"/>
<path d="M574.47 0.304688C576.414 0.304688 577.987 1.87235 577.987 3.80939V179.251C577.987 181.188 576.414 182.756 574.47 182.756C572.527 182.756 570.953 181.188 570.953 179.251V3.80939C570.953 1.87235 572.527 0.304688 574.47 0.304688Z" fill="#CCF4F1"/>
<path d="M574.471 183.067C572.362 183.067 570.649 181.36 570.649 179.259V3.80839C570.649 1.70719 572.362 0 574.471 0C576.579 0 578.293 1.70719 578.293 3.80839V179.259C578.293 181.36 576.579 183.067 574.471 183.067ZM574.471 0.615586C572.7 0.615586 571.267 2.05191 571.267 3.80839V179.259C571.267 181.023 572.708 182.451 574.471 182.451C576.233 182.451 577.675 181.015 577.675 179.259V3.80839C577.675 2.04371 576.233 0.615586 574.471 0.615586Z" fill="#00C9B8"/>
<path d="M587.229 21.062H586.414C585.609 21.062 584.956 21.7125 584.956 22.5148V202.061C584.956 202.863 585.609 203.513 586.414 203.513H587.229C588.034 203.513 588.687 202.863 588.687 202.061V22.5148C588.687 21.7125 588.034 21.062 587.229 21.062Z" fill="#A3ECE5"/>
<path d="M587.238 203.817H586.414C585.442 203.817 584.651 203.029 584.651 202.06V22.506C584.651 21.5375 585.442 20.7495 586.414 20.7495H587.238C588.21 20.7495 589 21.5375 589 22.506V202.06C589 203.029 588.21 203.817 587.238 203.817ZM586.414 21.3651C585.78 21.3651 585.269 21.874 585.269 22.506V202.06C585.269 202.692 585.78 203.201 586.414 203.201H587.238C587.872 203.201 588.383 202.692 588.383 202.06V22.506C588.383 21.874 587.872 21.3651 587.238 21.3651H586.414Z" fill="#00C9B8"/>
<path d="M587.229 0.304688H586.414C585.609 0.304688 584.956 0.955086 584.956 1.75744V181.303C584.956 182.106 585.609 182.756 586.414 182.756H587.229C588.034 182.756 588.687 182.106 588.687 181.303V1.75744C588.687 0.955086 588.034 0.304688 587.229 0.304688Z" fill="#CCF4F1"/>
<path d="M587.238 183.067H586.414C585.442 183.067 584.651 182.279 584.651 181.311V1.75643C584.651 0.787912 585.442 0 586.414 0H587.238C588.21 0 589 0.787912 589 1.75643V181.311C589 182.279 588.21 183.067 587.238 183.067ZM586.414 0.615586C585.78 0.615586 585.269 1.12443 585.269 1.75643V181.311C585.269 181.943 585.78 182.451 586.414 182.451H587.238C587.872 182.451 588.383 181.943 588.383 181.311V1.75643C588.383 1.12443 587.872 0.615586 587.238 0.615586H586.414Z" fill="#00C9B8"/>
<path d="M305.206 21.062H117.253C99.8894 21.062 85.8135 35.0886 85.8135 52.3912V172.184C85.8135 189.487 99.8894 203.513 117.253 203.513H305.206C322.569 203.513 336.645 189.487 336.645 172.184V52.3912C336.645 35.0886 322.569 21.062 305.206 21.062Z" fill="#A3ECE5"/>
<path d="M305.214 203.817H117.253C99.7498 203.817 85.5085 189.625 85.5085 172.184V52.3824C85.5085 34.9408 99.7498 20.7495 117.253 20.7495H305.214C322.717 20.7495 336.958 34.9408 336.958 52.3824V172.184C336.958 189.625 322.717 203.817 305.214 203.817ZM117.253 21.3651C100.087 21.3651 86.1263 35.2773 86.1263 52.3824V172.184C86.1263 189.289 100.087 203.201 117.253 203.201H305.214C322.379 203.201 336.34 189.289 336.34 172.184V52.3824C336.34 35.2773 322.379 21.3651 305.214 21.3651H117.253Z" fill="#00C9B8"/>
<path d="M305.206 0.304688H117.253C99.8894 0.304688 85.8135 14.3312 85.8135 31.6339V151.427C85.8135 168.73 99.8894 182.756 117.253 182.756H305.206C322.569 182.756 336.645 168.73 336.645 151.427V31.6339C336.645 14.3312 322.569 0.304688 305.206 0.304688Z" fill="#CCF4F1"/>
<path d="M305.214 183.067H117.253C99.7498 183.067 85.5085 168.876 85.5085 151.434V31.6329C85.5085 14.1913 99.7498 0 117.253 0H305.214C322.717 0 336.958 14.1913 336.958 31.6329V151.434C336.958 168.876 322.717 183.067 305.214 183.067ZM117.253 0.615586C100.087 0.615586 86.1263 14.5278 86.1263 31.6329V151.434C86.1263 168.539 100.087 182.451 117.253 182.451H305.214C322.379 182.451 336.34 168.539 336.34 151.434V31.6329C336.34 14.5278 322.379 0.615586 305.214 0.615586H117.253Z" fill="#00C9B8"/>
<path d="M370.193 21.062H367.73C354.415 21.062 343.621 31.8181 343.621 45.0863V179.489C343.621 192.757 354.415 203.513 367.73 203.513H370.193C383.508 203.513 394.302 192.757 394.302 179.489V45.0863C394.302 31.8181 383.508 21.062 370.193 21.062Z" fill="#A3ECE5"/>
<path d="M370.201 203.817H367.73C354.271 203.817 343.316 192.9 343.316 179.489V45.0775C343.316 31.6659 354.271 20.7495 367.73 20.7495H370.201C383.66 20.7495 394.614 31.6659 394.614 45.0775V179.489C394.614 192.9 383.66 203.817 370.201 203.817ZM367.73 21.3651C354.609 21.3651 343.934 32.0024 343.934 45.0775V179.489C343.934 192.564 354.609 203.201 367.73 203.201H370.201C383.322 203.201 393.997 192.564 393.997 179.489V45.0775C393.997 32.0024 383.322 21.3651 370.201 21.3651H367.73Z" fill="#00C9B8"/>
<path d="M370.193 0.304688H367.73C354.415 0.304688 343.621 11.0607 343.621 24.3289V158.732C343.621 172 354.415 182.756 367.73 182.756H370.193C383.508 182.756 394.302 172 394.302 158.732V24.3289C394.302 11.0607 383.508 0.304688 370.193 0.304688Z" fill="#CCF4F1"/>
<path d="M370.2 183.067H367.729C354.271 183.067 343.316 172.151 343.316 158.739V24.3279C343.316 10.9164 354.271 0 367.729 0H370.2C383.659 0 394.614 10.9164 394.614 24.3279V158.739C394.614 172.151 383.659 183.067 370.2 183.067ZM367.729 0.615586C354.608 0.615586 343.934 11.2529 343.934 24.3279V158.739C343.934 171.814 354.608 182.451 367.729 182.451H370.2C383.321 182.451 393.996 171.814 393.996 158.739V24.3279C393.996 11.2529 383.321 0.615586 370.2 0.615586H367.729Z" fill="#00C9B8"/>
<path d="M421.681 21.062C432.948 21.062 442.083 30.1645 442.083 41.3928V183.183C442.083 194.411 432.948 203.513 421.681 203.513C410.413 203.513 401.278 194.411 401.278 183.183V41.3928C401.278 30.1645 410.413 21.062 421.681 21.062Z" fill="#A3ECE5"/>
<path d="M421.68 203.817C410.264 203.817 400.973 194.558 400.973 183.182V41.384C400.973 30.0079 410.264 20.7495 421.68 20.7495C433.096 20.7495 442.387 30.0079 442.387 41.384V183.182C442.387 194.558 433.096 203.817 421.68 203.817ZM421.68 21.3651C410.602 21.3651 401.591 30.3445 401.591 41.384V183.182C401.591 194.222 410.602 203.201 421.68 203.201C432.759 203.201 441.77 194.222 441.77 183.182V41.384C441.77 30.3445 432.759 21.3651 421.68 21.3651Z" fill="#00C9B8"/>
<path d="M421.681 0.304688C432.948 0.304688 442.083 9.40712 442.083 20.6354V162.425C442.083 173.654 432.948 182.756 421.681 182.756C410.413 182.756 401.278 173.654 401.278 162.425V20.6354C401.278 9.40712 410.413 0.304688 421.681 0.304688Z" fill="#CCF4F1"/>
<path d="M421.68 183.067C410.264 183.067 400.973 173.809 400.973 162.433V20.6344C400.973 9.25837 410.264 0 421.68 0C433.096 0 442.387 9.25837 442.387 20.6344V162.433C442.387 173.809 433.096 183.067 421.68 183.067ZM421.68 0.615586C410.602 0.615586 401.591 9.59489 401.591 20.6344V162.433C401.591 173.472 410.602 182.451 421.68 182.451C432.759 182.451 441.77 173.472 441.77 162.433V20.6344C441.77 9.59489 432.759 0.615586 421.68 0.615586Z" fill="#00C9B8"/>
<path d="M468.218 21.062C478.802 21.062 487.385 29.6146 487.385 40.1616V184.414C487.385 194.961 478.802 203.513 468.218 203.513C457.634 203.513 449.051 194.961 449.051 184.414V40.1616C449.051 29.6146 457.634 21.062 468.218 21.062Z" fill="#A3ECE5"/>
<path d="M468.217 203.817C457.476 203.817 448.746 195.108 448.746 184.413V40.1528C448.746 29.4498 457.485 20.7495 468.217 20.7495C478.95 20.7495 487.689 29.458 487.689 40.1528V184.413C487.689 195.116 478.95 203.817 468.217 203.817ZM468.217 21.3651C457.822 21.3651 449.363 29.7945 449.363 40.1528V184.413C449.363 194.772 457.822 203.201 468.217 203.201C478.612 203.201 487.071 194.772 487.071 184.413V40.1528C487.071 29.7945 478.612 21.3651 468.217 21.3651Z" fill="#00C9B8"/>
<path d="M468.218 0.304688C478.802 0.304688 487.385 8.85719 487.385 19.4042V163.657C487.385 174.204 478.802 182.756 468.218 182.756C457.634 182.756 449.051 174.204 449.051 163.657V19.4042C449.051 8.85719 457.634 0.304688 468.218 0.304688Z" fill="#CCF4F1"/>
<path d="M468.217 183.067C457.476 183.067 448.746 174.359 448.746 163.664V19.4032C448.746 8.70024 457.485 0 468.217 0C478.95 0 487.689 8.70845 487.689 19.4032V163.664C487.689 174.367 478.95 183.067 468.217 183.067ZM468.217 0.615586C457.822 0.615586 449.363 9.04497 449.363 19.4032V163.664C449.363 174.022 457.822 182.451 468.217 182.451C478.612 182.451 487.071 174.022 487.071 163.664V19.4032C487.071 9.04497 478.612 0.615586 468.217 0.615586Z" fill="#00C9B8"/>
<path d="M509.813 21.062C518.346 21.062 525.273 27.9566 525.273 36.4681V188.107C525.273 196.619 518.354 203.513 509.813 203.513C501.28 203.513 494.353 196.619 494.353 188.107V36.4681C494.353 27.9566 501.272 21.062 509.813 21.062Z" fill="#A3ECE5"/>
<path d="M509.813 203.817C501.123 203.817 494.048 196.766 494.048 188.107V36.4593C494.048 27.8 501.123 20.7495 509.813 20.7495C518.503 20.7495 525.578 27.8 525.578 36.4593V188.107C525.578 196.766 518.503 203.817 509.813 203.817ZM509.813 21.3651C501.461 21.3651 494.666 28.1366 494.666 36.4593V188.107C494.666 196.43 501.461 203.201 509.813 203.201C518.165 203.201 524.96 196.43 524.96 188.107V36.4593C524.96 28.1366 518.165 21.3651 509.813 21.3651Z" fill="#00C9B8"/>
<path d="M509.813 0.304688C518.346 0.304688 525.273 7.19922 525.273 15.7107V167.35C525.273 175.862 518.354 182.756 509.813 182.756C501.28 182.756 494.353 175.862 494.353 167.35V15.7107C494.353 7.19922 501.272 0.304688 509.813 0.304688Z" fill="#CCF4F1"/>
<path d="M509.813 183.067C501.123 183.067 494.048 176.016 494.048 167.357V15.7097C494.048 7.05047 501.123 0 509.813 0C518.503 0 525.578 7.05047 525.578 15.7097V167.357C525.578 176.016 518.503 183.067 509.813 183.067ZM509.813 0.615586C501.461 0.615586 494.666 7.38699 494.666 15.7097V167.357C494.666 175.68 501.461 182.451 509.813 182.451C518.165 182.451 524.96 175.68 524.96 167.357V15.7097C524.96 7.38699 518.165 0.615586 509.813 0.615586Z" fill="#00C9B8"/>
<path d="M540.288 21.062C544.728 21.062 548.336 24.6488 548.336 29.0811V195.494C548.336 199.927 544.736 203.513 540.288 203.513C535.849 203.513 532.241 199.927 532.241 195.494V29.0811C532.241 24.6488 535.841 21.062 540.288 21.062Z" fill="#A3ECE5"/>
<path d="M540.288 203.817C535.684 203.817 531.936 200.082 531.936 195.494V29.0722C531.936 24.4841 535.684 20.7495 540.288 20.7495C544.893 20.7495 548.64 24.4841 548.64 29.0722V195.494C548.64 200.082 544.893 203.817 540.288 203.817ZM540.288 21.3651C536.022 21.3651 532.554 24.8206 532.554 29.0722V195.494C532.554 199.745 536.022 203.201 540.288 203.201C544.555 203.201 548.023 199.745 548.023 195.494V29.0722C548.023 24.8206 544.555 21.3651 540.288 21.3651Z" fill="#00C9B8"/>
<path d="M540.288 0.304688C544.728 0.304688 548.336 3.89147 548.336 8.32369V174.737C548.336 179.169 544.736 182.756 540.288 182.756C535.849 182.756 532.241 179.169 532.241 174.737V8.32369C532.241 3.89147 535.841 0.304688 540.288 0.304688Z" fill="#CCF4F1"/>
<path d="M540.288 183.067C535.684 183.067 531.936 179.332 531.936 174.744V8.32268C531.936 3.73452 535.684 0 540.288 0C544.893 0 548.64 3.73452 548.64 8.32268V174.744C548.64 179.332 544.893 183.067 540.288 183.067ZM540.288 0.615586C536.022 0.615586 532.554 4.07104 532.554 8.32268V174.744C532.554 178.996 536.022 182.451 540.288 182.451C544.555 182.451 548.023 178.996 548.023 174.744V8.32268C548.023 4.07104 544.555 0.615586 540.288 0.615586Z" fill="#00C9B8"/>
<path d="M559.645 21.062C562.042 21.062 563.986 22.9991 563.986 25.3875V199.188C563.986 201.576 562.042 203.513 559.645 203.513C557.248 203.513 555.304 201.576 555.304 199.188V25.3875C555.304 22.9991 557.248 21.062 559.645 21.062Z" fill="#A3ECE5"/>
<path d="M559.644 203.817C557.083 203.817 554.999 201.74 554.999 199.187V25.3787C554.999 22.8261 557.083 20.7495 559.644 20.7495C562.206 20.7495 564.29 22.8261 564.29 25.3787V199.187C564.29 201.74 562.206 203.817 559.644 203.817ZM559.644 21.3651C557.42 21.3651 555.617 23.1626 555.617 25.3787V199.187C555.617 201.403 557.42 203.201 559.644 203.201C561.868 203.201 563.672 201.403 563.672 199.187V25.3787C563.672 23.1626 561.868 21.3651 559.644 21.3651Z" fill="#00C9B8"/>
<path d="M559.645 0.304688C562.042 0.304688 563.986 2.2417 563.986 4.63017V178.431C563.986 180.819 562.042 182.756 559.645 182.756C557.248 182.756 555.304 180.819 555.304 178.431V4.63017C555.304 2.2417 557.248 0.304688 559.645 0.304688Z" fill="#CCF4F1"/>
<path d="M559.644 183.067C557.083 183.067 554.999 180.99 554.999 178.438V4.62917C554.999 2.07654 557.083 0 559.644 0C562.206 0 564.29 2.07654 564.29 4.62917V178.438C564.29 180.99 562.206 183.067 559.644 183.067ZM559.644 0.615586C557.42 0.615586 555.617 2.41306 555.617 4.62917V178.438C555.617 180.654 557.42 182.451 559.644 182.451C561.868 182.451 563.672 180.654 563.672 178.438V4.62917C563.672 2.41306 561.868 0.615586 559.644 0.615586Z" fill="#00C9B8"/>
<path d="M574.47 21.062C576.414 21.062 577.987 22.6297 577.987 24.5668V200.009C577.987 201.946 576.414 203.513 574.47 203.513C572.527 203.513 570.953 201.946 570.953 200.009V24.5668C570.953 22.6297 572.527 21.062 574.47 21.062Z" fill="#A3ECE5"/>
<path d="M574.471 203.817C572.362 203.817 570.649 202.109 570.649 200.008V24.5579C570.649 22.4567 572.362 20.7495 574.471 20.7495C576.579 20.7495 578.293 22.4567 578.293 24.5579V200.008C578.293 202.109 576.579 203.817 574.471 203.817ZM574.471 21.3651C572.7 21.3651 571.267 22.8015 571.267 24.5579V200.008C571.267 201.773 572.708 203.201 574.471 203.201C576.233 203.201 577.675 201.765 577.675 200.008V24.5579C577.675 22.7933 576.233 21.3651 574.471 21.3651Z" fill="#00C9B8"/>
<path d="M574.47 0.304688C576.414 0.304688 577.987 1.87235 577.987 3.80939V179.251C577.987 181.188 576.414 182.756 574.47 182.756C572.527 182.756 570.953 181.188 570.953 179.251V3.80939C570.953 1.87235 572.527 0.304688 574.47 0.304688Z" fill="#CCF4F1"/>
<path d="M574.471 183.067C572.362 183.067 570.649 181.36 570.649 179.259V3.80839C570.649 1.70719 572.362 0 574.471 0C576.579 0 578.293 1.70719 578.293 3.80839V179.259C578.293 181.36 576.579 183.067 574.471 183.067ZM574.471 0.615586C572.7 0.615586 571.267 2.05191 571.267 3.80839V179.259C571.267 181.023 572.708 182.451 574.471 182.451C576.233 182.451 577.675 181.015 577.675 179.259V3.80839C577.675 2.04371 576.233 0.615586 574.471 0.615586Z" fill="#00C9B8"/>
<path d="M587.229 21.062H586.414C585.609 21.062 584.956 21.7125 584.956 22.5148V202.061C584.956 202.863 585.609 203.513 586.414 203.513H587.229C588.034 203.513 588.687 202.863 588.687 202.061V22.5148C588.687 21.7125 588.034 21.062 587.229 21.062Z" fill="#A3ECE5"/>
<path d="M587.238 203.817H586.414C585.442 203.817 584.651 203.029 584.651 202.06V22.506C584.651 21.5375 585.442 20.7495 586.414 20.7495H587.238C588.21 20.7495 589 21.5375 589 22.506V202.06C589 203.029 588.21 203.817 587.238 203.817ZM586.414 21.3651C585.78 21.3651 585.269 21.874 585.269 22.506V202.06C585.269 202.692 585.78 203.201 586.414 203.201H587.238C587.872 203.201 588.383 202.692 588.383 202.06V22.506C588.383 21.874 587.872 21.3651 587.238 21.3651H586.414Z" fill="#00C9B8"/>
<path d="M587.229 0.304688H586.414C585.609 0.304688 584.956 0.955086 584.956 1.75744V181.303C584.956 182.106 585.609 182.756 586.414 182.756H587.229C588.034 182.756 588.687 182.106 588.687 181.303V1.75744C588.687 0.955086 588.034 0.304688 587.229 0.304688Z" fill="#CCF4F1"/>
<path d="M587.238 183.067H586.414C585.442 183.067 584.651 182.279 584.651 181.311V1.75643C584.651 0.787912 585.442 0 586.414 0H587.238C588.21 0 589 0.787912 589 1.75643V181.311C589 182.279 588.21 183.067 587.238 183.067ZM586.414 0.615586C585.78 0.615586 585.269 1.12443 585.269 1.75643V181.311C585.269 181.943 585.78 182.451 586.414 182.451H587.238C587.872 182.451 588.383 181.943 588.383 181.311V1.75643C588.383 1.12443 587.872 0.615586 587.238 0.615586H586.414Z" fill="#00C9B8"/>
<path d="M85.5089 51.8039H48.3619C40.8815 51.8039 34.8001 45.7262 34.8001 38.2504V30.8404C34.8001 24.0472 29.27 18.5124 22.4644 18.5124H0.697998V17.6899H22.4644C29.7226 17.6899 35.623 23.5867 35.623 30.8404V38.2504C35.623 45.2739 41.3342 50.9814 48.3619 50.9814H85.5089V51.8039Z" fill="#029CBE"/>
<path d="M85.3229 97.8979L41.9148 98.0493L41.9177 98.8717L85.3257 98.7203L85.3229 97.8979Z" fill="#029CBE"/>
<path d="M23.0323 177.633H0.697998V176.811H23.0323C30.06 176.811 35.7711 171.095 35.7711 164.08V156.67C35.7711 149.416 41.6716 143.52 48.9298 143.52H85.5089V144.342H48.9298C42.1242 144.342 36.5941 149.869 36.5941 156.67V164.08C36.5941 171.556 30.5127 177.633 23.0323 177.633Z" fill="#029CBE"/>
<path d="M626.14 87.7536H589V86.9359H626.14C633.166 86.9359 638.876 81.253 638.876 74.2781V66.9107C638.876 59.6987 644.776 53.8359 652.032 53.8359H673.795V54.6536H652.032C645.228 54.6536 639.699 60.1485 639.699 66.9107V74.2781C639.699 81.7109 633.619 87.7536 626.14 87.7536Z" fill="#029CBE"/>
<path d="M673.795 143.356H651.465C643.986 143.356 637.905 137.313 637.905 129.881V122.513C637.905 115.759 632.376 110.256 625.572 110.256H589V109.438H625.572C632.829 109.438 638.728 115.301 638.728 122.513V129.881C638.728 136.864 644.438 142.538 651.465 142.538H673.795V143.356Z" fill="#029CBE"/>
<path d="M122.735 105.444V94.1753H130.931V95.2699H123.995V99.2139H128.526V100.292H123.995V104.349H130.997V105.444H122.735Z" fill="#00C9B8"/>
<path d="M136.788 105.589C136.011 105.589 135.307 105.403 134.677 105.033C134.048 104.663 133.54 104.164 133.172 103.528C132.804 102.892 132.616 102.184 132.616 101.403C132.616 100.622 132.804 99.9141 133.172 99.2863C133.54 98.6585 134.048 98.1595 134.677 97.7812C135.307 97.4029 136.011 97.2178 136.788 97.2178C137.385 97.2178 137.966 97.3304 138.522 97.5478C139.078 97.7651 139.569 98.079 139.994 98.4895L139.225 99.3587C138.898 99.0126 138.522 98.7551 138.105 98.578C137.688 98.401 137.254 98.3124 136.804 98.3124C136.248 98.3124 135.741 98.4492 135.291 98.7229C134.841 98.9966 134.481 99.3668 134.211 99.8336C133.941 100.3 133.81 100.824 133.81 101.403C133.81 101.983 133.941 102.506 134.211 102.981C134.481 103.456 134.841 103.826 135.299 104.099C135.757 104.373 136.264 104.51 136.821 104.51C137.27 104.51 137.688 104.421 138.088 104.252C138.489 104.083 138.857 103.826 139.209 103.496L139.961 104.301C139.528 104.711 139.037 105.025 138.489 105.25C137.941 105.476 137.377 105.589 136.788 105.589Z" fill="#00C9B8"/>
<path d="M145.769 105.604C144.992 105.604 144.288 105.419 143.65 105.049C143.012 104.679 142.505 104.18 142.137 103.544C141.769 102.908 141.581 102.2 141.581 101.419C141.581 100.638 141.769 99.9297 142.137 99.2939C142.505 98.658 143.012 98.159 143.65 97.7888C144.288 97.4185 144.992 97.2334 145.769 97.2334C146.546 97.2334 147.266 97.4185 147.895 97.7888C148.525 98.159 149.032 98.658 149.4 99.2939C149.769 99.9297 149.957 100.638 149.957 101.419C149.957 102.2 149.769 102.908 149.4 103.544C149.032 104.18 148.525 104.679 147.895 105.049C147.266 105.419 146.554 105.604 145.769 105.604ZM145.769 104.542C146.325 104.542 146.832 104.405 147.282 104.123C147.732 103.841 148.092 103.471 148.362 102.996C148.632 102.521 148.762 101.998 148.762 101.419C148.762 100.839 148.632 100.3 148.362 99.8332C148.092 99.3664 147.732 98.9961 147.282 98.7144C146.832 98.4327 146.325 98.2958 145.769 98.2958C145.213 98.2958 144.705 98.4327 144.255 98.7144C143.806 98.9961 143.446 99.3664 143.176 99.8332C142.906 100.3 142.775 100.831 142.775 101.419C142.775 102.006 142.906 102.521 143.176 102.996C143.446 103.471 143.806 103.841 144.255 104.123C144.705 104.405 145.213 104.542 145.769 104.542Z" fill="#00C9B8"/>
<path d="M155.078 105.605C154.399 105.605 153.769 105.492 153.172 105.275C152.575 105.057 152.059 104.743 151.626 104.349L152.362 103.576C152.746 103.922 153.163 104.188 153.622 104.373C154.08 104.558 154.546 104.655 155.028 104.655C155.683 104.655 156.214 104.518 156.632 104.252C157.049 103.987 157.253 103.633 157.253 103.206C157.253 102.852 157.131 102.578 156.885 102.377C156.64 102.176 156.255 102.039 155.732 101.967L154.309 101.773C153.491 101.653 152.885 101.411 152.485 101.049C152.084 100.687 151.887 100.188 151.887 99.568C151.887 99.1173 152.018 98.7148 152.28 98.3607C152.542 98.0065 152.902 97.7249 153.368 97.5236C153.834 97.3224 154.366 97.2178 154.963 97.2178C155.56 97.2178 156.125 97.3063 156.648 97.4753C157.171 97.6444 157.687 97.918 158.186 98.2802L157.548 99.0851C157.09 98.7712 156.648 98.5458 156.214 98.4009C155.781 98.256 155.347 98.1836 154.898 98.1836C154.333 98.1836 153.875 98.3043 153.523 98.5539C153.172 98.8034 153 99.1253 153 99.5197C153 99.8819 153.123 100.164 153.36 100.349C153.597 100.534 153.99 100.671 154.521 100.743L155.945 100.936C156.763 101.041 157.376 101.282 157.785 101.645C158.194 102.007 158.398 102.506 158.398 103.142C158.398 103.6 158.251 104.019 157.957 104.397C157.662 104.776 157.27 105.065 156.771 105.283C156.272 105.5 155.707 105.605 155.078 105.605Z" fill="#00C9B8"/>
<path d="M160.754 108.889C160.598 108.889 160.459 108.889 160.32 108.865C160.181 108.848 160.075 108.832 159.985 108.808V107.73C160.173 107.77 160.402 107.794 160.672 107.794C161.392 107.794 161.94 107.375 162.308 106.538L162.798 105.428L159.461 97.3789H160.803L163.453 103.995L166.316 97.3789H167.624L163.535 106.699C163.306 107.215 163.06 107.633 162.798 107.955C162.537 108.277 162.242 108.51 161.907 108.663C161.572 108.816 161.187 108.889 160.754 108.889Z" fill="#00C9B8"/>
<path d="M172.189 105.605C171.51 105.605 170.88 105.492 170.283 105.275C169.686 105.057 169.17 104.743 168.737 104.349L169.473 103.576C169.857 103.922 170.275 104.188 170.733 104.373C171.191 104.558 171.657 104.655 172.139 104.655C172.794 104.655 173.326 104.518 173.743 104.252C174.16 103.987 174.364 103.633 174.364 103.206C174.364 102.852 174.242 102.578 173.996 102.377C173.751 102.176 173.366 102.039 172.843 101.967L171.42 101.773C170.602 101.653 169.996 101.411 169.596 101.049C169.195 100.687 168.999 100.188 168.999 99.568C168.999 99.1173 169.129 98.7148 169.391 98.3607C169.653 98.0065 170.013 97.7249 170.479 97.5236C170.945 97.3224 171.477 97.2178 172.074 97.2178C172.671 97.2178 173.236 97.3063 173.759 97.4753C174.283 97.6444 174.798 97.918 175.297 98.2802L174.659 99.0851C174.201 98.7712 173.759 98.5458 173.326 98.4009C172.892 98.256 172.459 98.1836 172.009 98.1836C171.444 98.1836 170.986 98.3043 170.634 98.5539C170.283 98.8034 170.111 99.1253 170.111 99.5197C170.111 99.8819 170.234 100.164 170.471 100.349C170.708 100.534 171.101 100.671 171.632 100.743L173.056 100.936C173.874 101.041 174.487 101.282 174.896 101.645C175.305 102.007 175.509 102.506 175.509 103.142C175.509 103.6 175.362 104.019 175.068 104.397C174.773 104.776 174.381 105.065 173.882 105.283C173.383 105.5 172.818 105.605 172.189 105.605Z" fill="#00C9B8"/>
<path d="M180.745 105.604C180.033 105.604 179.493 105.435 179.109 105.105C178.724 104.775 178.536 104.292 178.536 103.656V98.3922H176.77V97.3781H178.536V95.3337L179.731 95.0278V97.3781H182.201V98.3922H179.731V103.35C179.731 103.777 179.829 104.091 180.025 104.276C180.221 104.461 180.54 104.558 180.99 104.558C181.219 104.558 181.424 104.542 181.604 104.509C181.784 104.477 181.98 104.421 182.184 104.348V105.395C181.98 105.467 181.743 105.523 181.489 105.556C181.236 105.588 180.982 105.604 180.745 105.604Z" fill="#00C9B8"/>
<path d="M187.992 105.589C187.206 105.589 186.495 105.404 185.857 105.034C185.219 104.663 184.712 104.164 184.335 103.529C183.959 102.893 183.771 102.184 183.771 101.404C183.771 100.623 183.951 99.9307 184.311 99.3029C184.671 98.6751 185.153 98.1761 185.767 97.8059C186.38 97.4356 187.059 97.2505 187.812 97.2505C188.564 97.2505 189.202 97.4356 189.783 97.8059C190.364 98.1761 190.83 98.6751 191.174 99.3029C191.517 99.9307 191.689 100.631 191.689 101.404V101.774H184.965C185.031 102.297 185.202 102.772 185.481 103.191C185.759 103.609 186.119 103.939 186.568 104.181C187.018 104.422 187.509 104.543 188.041 104.543C188.466 104.543 188.883 104.478 189.284 104.35C189.685 104.221 190.028 104.036 190.298 103.802L191.051 104.591C190.593 104.921 190.118 105.171 189.619 105.34C189.12 105.509 188.581 105.589 187.992 105.589ZM184.998 100.824H190.478C190.413 100.341 190.249 99.9066 189.996 99.5283C189.742 99.15 189.423 98.8442 189.039 98.6269C188.654 98.4095 188.237 98.2968 187.779 98.2968C187.321 98.2968 186.879 98.4015 186.487 98.6188C186.094 98.8361 185.767 99.1339 185.505 99.5122C185.243 99.8905 185.072 100.333 184.998 100.824Z" fill="#00C9B8"/>
<path d="M194.192 105.444V97.3788H195.402V98.2641C196.024 97.5639 196.826 97.2178 197.807 97.2178C198.388 97.2178 198.895 97.3465 199.345 97.6122C199.795 97.8778 200.138 98.2319 200.392 98.6827C200.727 98.1917 201.136 97.8214 201.603 97.58C202.069 97.3385 202.609 97.2178 203.206 97.2178C203.803 97.2178 204.326 97.3465 204.776 97.6122C205.226 97.8778 205.578 98.24 205.831 98.7068C206.085 99.1736 206.216 99.721 206.216 100.341V105.444H205.022V100.582C205.022 99.8658 204.833 99.2944 204.449 98.8839C204.065 98.4734 203.549 98.2641 202.895 98.2641C202.445 98.2641 202.036 98.3768 201.668 98.5941C201.3 98.8114 200.981 99.1414 200.719 99.5841C200.744 99.7049 200.76 99.8256 200.776 99.9463C200.793 100.067 200.801 100.204 200.801 100.341V105.444H199.607V100.582C199.607 99.8658 199.419 99.2944 199.034 98.8839C198.65 98.4734 198.143 98.2641 197.496 98.2641C197.063 98.2641 196.662 98.3607 196.31 98.5619C195.959 98.7631 195.656 99.0529 195.402 99.4393V105.444H194.192Z" fill="#00C9B8"/>
<path d="M216.899 105.621C215.394 105.621 214.093 105.114 213.005 104.091L213.741 103.303C214.24 103.761 214.739 104.1 215.238 104.309C215.737 104.518 216.293 104.623 216.915 104.623C217.471 104.623 217.962 104.51 218.387 104.285C218.813 104.059 219.14 103.745 219.377 103.335C219.614 102.924 219.729 102.458 219.729 101.934C219.729 101.186 219.467 100.574 218.952 100.115C218.436 99.6565 217.757 99.4231 216.915 99.4231C216.481 99.4231 216.056 99.4714 215.639 99.5761C215.222 99.6807 214.796 99.8417 214.347 100.067L213.529 99.8095L213.79 94.1753H220.301V95.1895H214.805L214.625 99.0851C215.058 98.8678 215.484 98.7148 215.884 98.6263C216.285 98.5378 216.71 98.4894 217.16 98.4894C217.913 98.4894 218.567 98.6343 219.132 98.9161C219.696 99.1978 220.13 99.6002 220.44 100.107C220.751 100.614 220.907 101.21 220.907 101.886C220.907 102.627 220.735 103.279 220.399 103.834C220.064 104.389 219.59 104.832 218.993 105.146C218.395 105.46 217.692 105.621 216.899 105.621Z" fill="#00C9B8"/>
<path d="M227.892 105.62C226.976 105.62 226.166 105.37 225.471 104.88C224.775 104.389 224.227 103.704 223.827 102.827C223.426 101.95 223.229 100.944 223.229 99.8088C223.229 98.6739 223.426 97.6678 223.827 96.7905C224.227 95.9132 224.775 95.229 225.471 94.738C226.166 94.2471 226.976 93.9976 227.892 93.9976C228.808 93.9976 229.618 94.2471 230.313 94.738C231.008 95.229 231.556 95.9132 231.957 96.7905C232.358 97.6678 232.554 98.6739 232.554 99.8088C232.554 100.944 232.358 101.95 231.957 102.827C231.556 103.704 231.008 104.389 230.313 104.88C229.618 105.37 228.808 105.62 227.892 105.62ZM227.892 104.574C228.603 104.574 229.217 104.381 229.732 103.986C230.248 103.592 230.648 103.036 230.935 102.32C231.221 101.604 231.36 100.767 231.36 99.8088C231.36 98.851 231.221 98.0058 230.935 97.2895C230.648 96.5732 230.248 96.0258 229.732 95.6314C229.217 95.2371 228.603 95.0439 227.892 95.0439C227.18 95.0439 226.583 95.2371 226.06 95.6314C225.536 96.0258 225.135 96.5732 224.849 97.2895C224.563 98.0058 224.424 98.8429 224.424 99.8088C224.424 100.775 224.563 101.604 224.849 102.32C225.135 103.036 225.536 103.592 226.06 103.986C226.583 104.381 227.197 104.574 227.892 104.574Z" fill="#00C9B8"/>
<path d="M356.403 230.136H225.01V229.314H356.403C363.428 229.314 369.137 223.597 369.137 216.581V203.298H369.96V216.581C369.96 224.058 363.881 230.136 356.403 230.136Z" fill="#00C9B8"/>
<path d="M409.052 256.457H203.621V255.634H409.052C416.077 255.634 421.787 249.918 421.787 242.902V203.298H422.609V242.902C422.609 250.378 416.53 256.457 409.052 256.457Z" fill="#00C9B8"/>
<path d="M455.121 282.777H165.78V281.955H455.121C462.146 281.955 467.855 276.238 467.855 269.222V203.298H468.678V269.222C468.678 276.699 462.598 282.777 455.121 282.777Z" fill="#00C9B8"/>
<path d="M497.075 309.098H269.433V308.275H497.075C504.101 308.275 509.81 302.559 509.81 295.543V203.298H510.633V295.543C510.633 303.019 504.553 309.098 497.075 309.098Z" fill="#00C9B8"/>
<path d="M527.514 335.418H205.744V334.595H527.514C534.539 334.595 540.248 328.879 540.248 321.863V202.887H541.071V321.863C541.071 329.34 534.991 335.418 527.514 335.418Z" fill="#00C9B8"/>
<path d="M546.434 360.916H272.723V360.093H546.434C553.459 360.093 559.169 354.377 559.169 347.361V203.298H559.991V347.361C559.991 354.837 553.912 360.916 546.434 360.916Z" fill="#00C9B8"/>
<path d="M561.242 387.236H187.991V386.414H561.242C568.267 386.414 573.976 380.697 573.976 373.681V203.298H574.799V373.681C574.799 381.158 568.72 387.236 561.242 387.236Z" fill="#00C9B8"/>
<path d="M573.581 413.556H219.251V412.734H573.581C580.607 412.734 586.316 407.018 586.316 400.001V203.298H587.139V400.001C587.139 407.478 581.059 413.556 573.581 413.556Z" fill="#00C9B8"/>
</svg>
