<svg width="249" height="169" viewBox="0 0 249 169" fill="none" xmlns="http://www.w3.org/2000/svg">
<mask id="path-1-inside-1_469_3" fill="white">
<path fill-rule="evenodd" clip-rule="evenodd" d="M80.2716 0C63.703 0 50.2716 13.4315 50.2716 30V31.4197H30C13.4315 31.4197 0 44.8511 0 61.4197V138.095C0 154.663 13.4315 168.095 30 168.095H219C235.569 168.095 249 154.663 249 138.095V61.4197C249 44.8511 235.569 31.4197 219 31.4197H201.871V30C201.871 13.4315 188.44 0 171.871 0H80.2716Z"/>
</mask>
<path fill-rule="evenodd" clip-rule="evenodd" d="M80.2716 0C63.703 0 50.2716 13.4315 50.2716 30V31.4197H30C13.4315 31.4197 0 44.8511 0 61.4197V138.095C0 154.663 13.4315 168.095 30 168.095H219C235.569 168.095 249 154.663 249 138.095V61.4197C249 44.8511 235.569 31.4197 219 31.4197H201.871V30C201.871 13.4315 188.44 0 171.871 0H80.2716Z" fill="#FFF3F5"/>
<path d="M50.2716 31.4197V31.9197H50.7716V31.4197H50.2716ZM201.871 31.4197H201.371V31.9197H201.871V31.4197ZM50.7716 30C50.7716 13.7076 63.9792 0.5 80.2716 0.5V-0.5C63.4269 -0.5 49.7716 13.1553 49.7716 30H50.7716ZM50.7716 31.4197V30H49.7716V31.4197H50.7716ZM30 31.9197H50.2716V30.9197H30V31.9197ZM0.5 61.4197C0.5 45.1273 13.7076 31.9197 30 31.9197V30.9197C13.1553 30.9197 -0.5 44.575 -0.5 61.4197H0.5ZM0.5 138.095V61.4197H-0.5V138.095H0.5ZM30 167.595C13.7076 167.595 0.5 154.387 0.5 138.095H-0.5C-0.5 154.939 13.1553 168.595 30 168.595V167.595ZM219 167.595H30V168.595H219V167.595ZM248.5 138.095C248.5 154.387 235.292 167.595 219 167.595V168.595C235.845 168.595 249.5 154.939 249.5 138.095H248.5ZM248.5 61.4197V138.095H249.5V61.4197H248.5ZM219 31.9197C235.292 31.9197 248.5 45.1273 248.5 61.4197H249.5C249.5 44.575 235.845 30.9197 219 30.9197V31.9197ZM201.871 31.9197H219V30.9197H201.871V31.9197ZM201.371 30V31.4197H202.371V30H201.371ZM171.871 0.5C188.163 0.5 201.371 13.7076 201.371 30H202.371C202.371 13.1553 188.716 -0.5 171.871 -0.5V0.5ZM80.2716 0.5H171.871V-0.5H80.2716V0.5Z" fill="#FF6383" mask="url(#path-1-inside-1_469_3)"/>
<path d="M76.6427 28.5185C75.8827 28.5185 75.1727 28.3785 74.5127 28.0985C73.8627 27.8185 73.2877 27.4335 72.7877 26.9435C72.2977 26.4435 71.9127 25.8685 71.6327 25.2185C71.3527 24.5585 71.2127 23.8535 71.2127 23.1035C71.2127 22.3535 71.3477 21.6535 71.6177 21.0035C71.8977 20.3435 72.2827 19.7685 72.7727 19.2785C73.2727 18.7785 73.8477 18.3885 74.4977 18.1085C75.1577 17.8285 75.8677 17.6885 76.6277 17.6885C77.4377 17.6885 78.2027 17.8385 78.9227 18.1385C79.6427 18.4385 80.2577 18.8635 80.7677 19.4135L79.9877 20.2085C79.5877 19.7485 79.0877 19.3935 78.4877 19.1435C77.8977 18.8835 77.2777 18.7535 76.6277 18.7535C76.0277 18.7535 75.4677 18.8635 74.9477 19.0835C74.4377 19.3035 73.9877 19.6135 73.5977 20.0135C73.2177 20.4035 72.9177 20.8635 72.6977 21.3935C72.4877 21.9135 72.3827 22.4835 72.3827 23.1035C72.3827 23.7135 72.4877 24.2835 72.6977 24.8135C72.9177 25.3435 73.2177 25.8085 73.5977 26.2085C73.9877 26.5985 74.4377 26.9035 74.9477 27.1235C75.4677 27.3435 76.0277 27.4535 76.6277 27.4535C77.3377 27.4535 77.9777 27.2985 78.5477 26.9885C79.1277 26.6785 79.5927 26.2535 79.9427 25.7135C80.3027 25.1735 80.5127 24.5635 80.5727 23.8835H76.8077V22.8635H81.7427V23.3285C81.7427 24.0585 81.6127 24.7385 81.3527 25.3685C81.0927 25.9985 80.7327 26.5485 80.2727 27.0185C79.8127 27.4885 79.2727 27.8585 78.6527 28.1285C78.0327 28.3885 77.3627 28.5185 76.6427 28.5185ZM82.8031 28.3535L87.1531 17.8535H88.5481L92.8681 28.3535H91.6081L90.2881 25.0535H85.3381L84.0031 28.3535H82.8031ZM85.7431 24.0635H89.8831L87.8131 18.9185L85.7431 24.0635ZM94.8288 28.3535V17.8535H96.4488L100.034 25.3085L103.604 17.8535H105.224V28.3535H104.129V19.1735L100.019 27.6035L95.9088 19.1885V28.3535H94.8288ZM108.279 28.3535V17.8535H115.794V18.8735H109.434V22.5485H113.589V23.5535H109.434V27.3335H115.854V28.3535H108.279ZM127.195 28.5185C126.435 28.5185 125.725 28.3835 125.065 28.1135C124.405 27.8335 123.825 27.4485 123.325 26.9585C122.825 26.4585 122.435 25.8835 122.155 25.2335C121.885 24.5735 121.75 23.8635 121.75 23.1035C121.75 22.3435 121.885 21.6385 122.155 20.9885C122.435 20.3285 122.825 19.7535 123.325 19.2635C123.825 18.7635 124.405 18.3785 125.065 18.1085C125.725 17.8285 126.435 17.6885 127.195 17.6885C127.745 17.6885 128.27 17.7585 128.77 17.8985C129.28 18.0285 129.75 18.2235 130.18 18.4835C130.62 18.7335 131.01 19.0435 131.35 19.4135L130.585 20.2235C130.175 19.7535 129.67 19.3935 129.07 19.1435C128.47 18.8835 127.845 18.7535 127.195 18.7535C126.585 18.7535 126.02 18.8635 125.5 19.0835C124.98 19.3035 124.525 19.6135 124.135 20.0135C123.755 20.4035 123.455 20.8635 123.235 21.3935C123.025 21.9135 122.92 22.4835 122.92 23.1035C122.92 23.7135 123.025 24.2835 123.235 24.8135C123.455 25.3435 123.76 25.8085 124.15 26.2085C124.54 26.5985 124.995 26.9035 125.515 27.1235C126.045 27.3435 126.615 27.4535 127.225 27.4535C127.875 27.4535 128.495 27.3285 129.085 27.0785C129.675 26.8185 130.17 26.4635 130.57 26.0135L131.32 26.7935C130.97 27.1535 130.575 27.4635 130.135 27.7235C129.705 27.9835 129.24 28.1835 128.74 28.3235C128.24 28.4535 127.725 28.5185 127.195 28.5185ZM133.82 28.3535V17.8535H141.335V18.8735H134.975V22.5485H139.13V23.5535H134.975V27.3335H141.395V28.3535H133.82ZM143.813 28.3535V17.8535H144.968L151.283 26.3735V17.8535H152.378V28.3535H151.358L144.908 19.6085V28.3535H143.813ZM158.327 28.3535V18.8885H154.532V17.8535H163.277V18.8885H159.482V28.3535H158.327ZM165.44 28.3535V17.8535H172.955V18.8735H166.595V22.5485H170.75V23.5535H166.595V27.3335H173.015V28.3535H165.44ZM175.433 28.3535V17.8535H179.933C180.623 17.8535 181.223 17.9785 181.733 18.2285C182.243 18.4785 182.638 18.8285 182.918 19.2785C183.208 19.7285 183.353 20.2585 183.353 20.8685C183.353 21.5585 183.148 22.1535 182.738 22.6535C182.338 23.1435 181.798 23.4885 181.118 23.6885L183.473 28.3535H182.198L179.948 23.8385H176.588V28.3535H175.433ZM176.588 22.8635H179.858C180.568 22.8635 181.133 22.6835 181.553 22.3235C181.983 21.9635 182.198 21.4785 182.198 20.8685C182.198 20.2685 181.983 19.7885 181.553 19.4285C181.133 19.0685 180.568 18.8885 179.858 18.8885H176.588V22.8635Z" fill="#FF6383"/>
</svg>
