<svg width="174" height="51" viewBox="0 0 174 51" fill="none" xmlns="http://www.w3.org/2000/svg">
<path d="M22.0711 50C18.9952 50 16.0811 49.4581 13.4279 48.401C10.7747 47.3439 8.40932 45.8337 6.39467 43.9238C4.38003 42.0139 2.79711 39.7576 1.68186 37.2348C0.566614 34.7031 0 31.9315 0 29C0 26.0685 0.566614 23.2969 1.68186 20.7652C2.79711 18.2335 4.36204 15.9861 6.33171 14.0762C8.30138 12.1663 10.6488 10.6561 13.311 9.59903C15.9642 8.54192 18.8603 8 21.9002 8C25.3719 8 28.6906 8.71067 31.7755 10.1231C34.4287 11.3401 36.6952 12.9658 38.521 14.9645C39.1685 15.6751 39.1146 16.7767 38.3951 17.4163L33.3495 21.9023C33.0257 22.1866 32.612 22.3465 32.1893 22.3465C31.6946 22.3465 31.2179 22.1421 30.8851 21.7779C29.8239 20.6409 28.6277 19.7348 27.3325 19.1041C25.6956 18.3046 23.8699 17.8959 21.9092 17.8959C20.3623 17.8959 18.9232 18.1802 17.6191 18.7399C16.315 19.2995 15.1547 20.0812 14.1834 21.0673C13.2121 22.0444 12.4476 23.217 11.917 24.5584C11.3863 25.9086 11.1075 27.401 11.1075 29.0089C11.1075 30.6168 11.3863 32.118 11.9439 33.486C12.4925 34.8452 13.284 36.0444 14.2913 37.0393C15.2986 38.0342 16.4948 38.8338 17.8439 39.3934C19.184 39.953 20.6681 40.2373 22.251 40.2373C23.8339 40.2373 25.147 39.9797 26.3702 39.4734C27.5933 38.967 28.6636 38.2564 29.5361 37.3503C29.8958 36.9772 30.2196 36.5774 30.4984 36.1599C30.6693 35.8934 30.6873 35.5736 30.5344 35.2982C30.3815 35.0229 30.1027 34.8541 29.7789 34.8541H22.233C21.2706 34.8541 20.4792 34.0812 20.4792 33.1218V27.2056C20.4792 26.2551 21.2616 25.4734 22.233 25.4734H41.2462C42.2085 25.4734 43 26.2462 43 27.2056V28.769C43 31.8071 42.4783 34.6497 41.444 37.217C40.4097 39.7843 38.9437 42.0495 37.082 43.9683C35.2202 45.8871 32.9897 47.3794 30.4444 48.4276C27.8992 49.467 25.0931 50 22.0891 50H22.0711Z" fill="#629EFF"/>
<path d="M22.3967 7.92023C25.8229 7.92023 29.0598 8.63096 32.1074 10.0524C34.7221 11.2733 36.9311 12.8952 38.7164 14.9089C39.2032 15.4556 39.1582 16.2938 38.6172 16.7768L33.559 21.3781C33.3156 21.6059 33 21.7152 32.6934 21.7152C32.3327 21.7152 31.9811 21.5695 31.7197 21.2779C30.6107 20.0569 29.3844 19.1093 28.0229 18.4351C26.3098 17.5786 24.4254 17.1503 22.3877 17.1503C20.7737 17.1503 19.277 17.451 17.9065 18.0523C16.5361 18.6537 15.3459 19.4829 14.327 20.5307C13.3082 21.5786 12.5147 22.8268 11.9557 24.2665C11.3967 25.7061 11.1172 27.2824 11.1172 28.9954C11.1172 30.7084 11.4057 32.2938 11.9828 33.7517C12.5598 35.2096 13.3803 36.4761 14.4352 37.5512C15.4901 38.6264 16.7254 39.4556 18.132 40.0661C19.5385 40.6674 21.0713 40.9681 22.7303 40.9681C24.3893 40.9681 25.7418 40.6947 27.0402 40.148C28.3295 39.6013 29.4385 38.8451 30.3672 37.8701C30.7549 37.4601 31.0885 37.0319 31.3861 36.5854C31.9541 35.7107 31.3229 34.5444 30.286 34.5444H22.7122C21.9909 34.5444 21.4049 33.9521 21.4049 33.2232V27.1549C21.4049 26.426 21.9909 25.8337 22.7122 25.8337H41.7729C42.4942 25.8337 43.0803 26.426 43.0803 27.1549V28.7585C43.0803 31.8382 42.5664 34.672 41.5475 37.2597C40.5287 39.8474 39.1041 42.107 37.2737 44.0387C35.4434 45.9704 33.2795 47.4556 30.7729 48.5034C28.2664 49.5513 25.5344 50.0797 22.568 50.0797C19.6016 50.0797 16.6893 49.5421 14.0746 48.4761C11.4508 47.4009 9.1516 45.9066 7.16799 43.9749C5.18438 42.0433 3.64258 39.8109 2.54258 37.2597C1.44257 34.7084 0.892614 31.9567 0.892614 28.9954C0.892614 26.0341 1.44257 23.2824 2.54258 20.7312C3.64258 18.1799 5.16634 15.9385 7.10487 14.0159C9.05241 12.0842 11.3336 10.5899 13.9574 9.51476C16.5811 8.43959 19.3942 7.91116 22.3967 7.91116M22.3967 7C19.286 7 16.3377 7.56489 13.6238 8.67651C10.9008 9.78813 8.50241 11.3645 6.48274 13.369C4.46306 15.3645 2.85817 17.7244 1.72211 20.3759C0.577025 23.0273 0 25.9339 0 29.0045C0 32.0751 0.577025 34.9818 1.72211 37.6333C2.86719 40.2847 4.49012 42.6447 6.54586 44.6401C8.6016 46.6356 11.027 48.2118 13.741 49.3234C16.4549 50.4351 19.4303 51 22.577 51C25.7238 51 28.5278 50.4442 31.1336 49.3508C33.7393 48.2574 36.0295 46.6811 37.941 44.6674C39.8434 42.6629 41.3492 40.2847 42.4041 37.5968C43.459 34.9089 44 31.9385 44 28.7585V27.1549C44 25.9248 43.0082 24.9225 41.791 24.9225H22.7303C21.5131 24.9225 20.5213 25.9248 20.5213 27.1549V33.2232C20.5213 34.4533 21.5131 35.4556 22.7303 35.4556H30.3041C30.5205 35.4556 30.6287 35.6105 30.6647 35.6742C30.7098 35.7563 30.7639 35.9112 30.6467 36.0934C30.3852 36.4943 30.0787 36.8861 29.7361 37.2505C28.8975 38.1253 27.8877 38.8269 26.7155 39.3189C25.5434 39.8109 24.209 40.0661 22.7574 40.0661C21.2246 40.0661 19.8 39.7836 18.5106 39.2369C17.2213 38.6811 16.0672 37.9066 15.0934 36.9225C14.1287 35.9476 13.3623 34.7722 12.8393 33.4328C12.3074 32.0842 12.0369 30.5991 12.0369 29.0137C12.0369 27.4282 12.2983 25.943 12.8123 24.6127C13.3262 23.2915 14.0566 22.1344 14.9852 21.1777C15.923 20.2118 17.0319 19.4465 18.2852 18.8907C19.5295 18.344 20.918 18.0615 22.4057 18.0615C24.2992 18.0615 26.0574 18.4624 27.6442 19.2551C28.8975 19.8838 30.0516 20.7676 31.0705 21.8975C31.4942 22.3622 32.0893 22.6264 32.7115 22.6264C33.2524 22.6264 33.7754 22.4259 34.1811 22.0524L39.2393 17.451C40.141 16.6218 40.2221 15.2096 39.4016 14.2893C37.5352 12.1936 35.209 10.4897 32.4951 9.21412C29.3483 7.74715 25.9492 7 22.4057 7H22.3967Z" fill="#629EFF"/>
<path d="M77.3167 49.9817C76.5948 49.9817 75.927 49.5148 75.6744 48.8282L72.6152 40.626C72.4889 40.2873 72.1641 40.0676 71.8121 40.0676H57.8159C57.464 40.0676 57.1391 40.2873 57.0218 40.626L53.9085 48.8465C53.6468 49.5331 52.988 49.9908 52.2661 49.9908H44.7582C44.1716 49.9908 43.6302 49.6979 43.2963 49.2036C42.9714 48.7092 42.9082 48.0867 43.1338 47.5375L58.6642 9.10769C58.9349 8.43943 59.5756 8 60.2885 8H69.9261C70.648 8 71.2887 8.43944 71.5594 9.11686L86.8732 47.5466C87.0898 48.0959 87.0266 48.7184 86.7017 49.2127C86.3769 49.7071 85.8264 50 85.2398 50H77.3167V49.9817ZM64.8907 21.2921C64.6109 21.2921 64.25 21.4385 64.0966 21.8505L61.0375 29.9338C60.9382 30.2084 60.9653 30.5013 61.1277 30.7393C61.2901 30.9774 61.5428 31.1146 61.8316 31.1146H67.8776C68.1664 31.1146 68.4191 30.9774 68.5815 30.7393C68.744 30.5013 68.78 30.2084 68.6808 29.9429L65.6938 21.8596C65.5404 21.4477 65.1795 21.2921 64.8907 21.2921Z" fill="#629EFF"/>
<path d="M69.4285 8.91359C69.962 8.91359 70.4413 9.23608 70.6402 9.72872L85.9854 47.3308C86.3291 48.1817 85.6961 49.1133 84.7738 49.1133H76.8344C76.2918 49.1133 75.8035 48.7818 75.6136 48.2713L72.5482 40.2457C72.3583 39.7441 71.87 39.4037 71.3274 39.4037H57.3024C56.7599 39.4037 56.2715 39.7351 56.0816 40.2367L52.9619 48.2802C52.772 48.7818 52.2838 49.1133 51.7412 49.1133H44.2178C43.2864 49.1133 42.6534 48.1817 43.0061 47.3218L58.5683 9.71976C58.7673 9.23607 59.2466 8.91359 59.7801 8.91359H69.4375M61.3263 31.5393H67.3849C68.2982 31.5393 68.9311 30.6347 68.6146 29.7837L65.6215 21.8746C65.4136 21.3103 64.8981 21.0326 64.3918 21.0326C63.8854 21.0326 63.3881 21.3103 63.171 21.8656L60.1056 29.7748C59.7801 30.6257 60.413 31.5393 61.3263 31.5393ZM69.4375 8.01788H59.7801C58.8758 8.01788 58.071 8.55532 57.7274 9.37938L42.1651 46.9814C41.8848 47.6622 41.9662 48.4236 42.3731 49.0327C42.7891 49.6418 43.4763 50 44.2087 50H51.7322C52.6455 50 53.4684 49.4357 53.7939 48.5937L56.9136 40.5502C56.9769 40.398 57.1216 40.2905 57.2934 40.2905H71.3184C71.4902 40.2905 71.6349 40.398 71.6982 40.5502L74.7727 48.5758C75.0982 49.4268 75.9301 49.991 76.8434 49.991H84.7828C85.5152 49.991 86.2025 49.6328 86.6184 49.0237C87.0344 48.4146 87.1158 47.6532 86.8354 46.9725L71.4902 9.37041C71.1466 8.5374 70.3418 8 69.4375 8V8.01788ZM61.3263 30.6436C61.1364 30.6436 61.037 30.5361 60.9917 30.4734C60.9465 30.4107 60.8832 30.2764 60.9465 30.1062L64.012 22.197C64.1024 21.9731 64.2833 21.9373 64.3918 21.9373C64.5003 21.9373 64.6811 21.9731 64.7715 22.197L67.7647 30.1062C67.828 30.2764 67.7646 30.4107 67.7194 30.4734C67.6742 30.5361 67.5747 30.6436 67.3849 30.6436H61.3263Z" fill="#629EFF"/>
<path d="M126.485 50C125.52 50 124.727 49.2037 124.727 48.2153V26.808C124.727 26.2406 124.276 25.9385 123.861 25.9385C123.671 25.9385 123.338 25.9935 123.121 26.3962L113.434 44.6551C113.118 45.2408 112.541 45.5886 111.892 45.5886C111.242 45.5886 110.647 45.2317 110.34 44.6459L100.644 26.2955C100.437 25.8928 100.094 25.8379 99.9047 25.8379C99.4808 25.8379 99.0388 26.1399 99.0388 26.7073V48.2062C99.0388 49.1855 98.2541 49.9908 97.28 49.9908H90.7588C89.7937 49.9908 89 49.1946 89 48.2062V9.78466C89 8.80536 89.7847 8 90.7588 8H101.213C101.871 8 102.466 8.36607 102.764 8.95182L111.242 25.3619C111.396 25.6548 111.675 25.8287 112 25.8287C112.325 25.8287 112.604 25.6548 112.758 25.3619L121.236 8.95182C121.543 8.36607 122.138 8 122.787 8H133.241C134.206 8 135 8.79621 135 9.78466V48.2062C135 49.1855 134.215 49.9908 133.241 49.9908H126.485V50Z" fill="#629EFF"/>
<path d="M133.786 8.90487C134.509 8.90487 135.097 9.48722 135.097 10.2039V47.814C135.097 48.5307 134.509 49.1131 133.786 49.1131H127.019C126.296 49.1131 125.709 48.5307 125.709 47.814V26.8588C125.709 26.0436 125.05 25.5598 124.39 25.5598C123.947 25.5598 123.514 25.7748 123.252 26.2407L113.548 44.1139C113.304 44.5708 112.852 44.7948 112.401 44.7948C111.949 44.7948 111.497 44.5708 111.244 44.1139L101.532 26.151C101.279 25.6762 100.836 25.4612 100.393 25.4612C99.7245 25.4612 99.074 25.945 99.074 26.7602V47.805C99.074 48.5217 98.4867 49.1041 97.7639 49.1041H91.2317C90.5089 49.1041 89.9216 48.5217 89.9216 47.805V10.195C89.9216 9.47825 90.5089 8.8959 91.2317 8.8959H101.703C102.191 8.8959 102.634 9.1647 102.86 9.59474L111.353 25.6583C111.596 26.1242 112.057 26.3571 112.509 26.3571C112.961 26.3571 113.422 26.1242 113.665 25.6583L122.158 9.59474C122.384 9.1647 122.827 8.8959 123.315 8.8959H133.786M133.786 8H123.315C122.493 8 121.743 8.44795 121.354 9.17363L112.861 25.2372C112.762 25.4254 112.59 25.4523 112.5 25.4523C112.41 25.4523 112.238 25.4254 112.139 25.2372L103.646 9.17363C103.266 8.44795 102.516 8 101.685 8H91.2136C89.9939 8 89 8.98551 89 10.195V47.805C89 49.0145 89.9939 50 91.2136 50H97.7459C98.9656 50 99.9594 49.0145 99.9594 47.805V26.7602C99.9594 26.6348 99.9956 26.5363 100.077 26.4646C100.158 26.393 100.267 26.3571 100.384 26.3571C100.61 26.3571 100.7 26.5184 100.727 26.5721L110.44 44.535C110.829 45.2517 111.569 45.6907 112.392 45.6907C113.214 45.6907 113.955 45.2517 114.343 44.535L124.047 26.6617C124.074 26.6079 124.164 26.4467 124.39 26.4467C124.39 26.4467 124.806 26.4467 124.806 26.8499V47.805C124.806 49.0145 125.8 50 127.019 50H133.786C135.006 50 136 49.0145 136 47.805V10.195C136 8.98551 135.006 8 133.786 8Z" fill="#629EFF"/>
<path d="M142.756 49.9817C141.792 49.9817 141 49.1856 141 48.1974V9.78432C141 8.80524 141.783 8 142.756 8H172.01C172.974 8 173.766 8.79609 173.766 9.78432V15.8785C173.766 16.8576 172.983 17.6627 172.01 17.6627H152.687C152.219 17.6627 151.832 18.0562 151.832 18.532V23.2719C151.832 23.7477 152.21 24.1412 152.687 24.1412H164.564C165.527 24.1412 166.319 24.9373 166.319 25.9255V31.7177C166.319 32.6968 165.536 33.5019 164.564 33.5019H152.687C152.219 33.5019 151.832 33.8954 151.832 34.3712V39.468C151.832 39.9438 152.21 40.3373 152.687 40.3373H172.244C173.208 40.3373 174 41.1334 174 42.1216V48.2157C174 49.1948 173.217 50 172.244 50H142.756V49.9817Z" fill="#629EFF"/>
<path d="M171.553 8.89533C172.275 8.89533 172.862 9.47731 172.862 10.1936V16.1565C172.862 16.8727 172.275 17.4547 171.553 17.4547H152.173C151.451 17.4547 150.864 18.0367 150.864 18.7529V23.3907C150.864 24.107 151.451 24.689 152.173 24.689H164.084C164.807 24.689 165.394 25.271 165.394 25.9872V31.6636C165.394 32.3799 164.807 32.9618 164.084 32.9618H152.173C151.451 32.9618 150.864 33.5438 150.864 34.2601V39.2471C150.864 39.9633 151.451 40.5453 152.173 40.5453H171.788C172.51 40.5453 173.097 41.1272 173.097 41.8435V47.8064C173.097 48.5227 172.51 49.1047 171.788 49.1047H142.212C141.49 49.1047 140.903 48.5227 140.903 47.8064V10.2205C140.903 9.50419 141.49 8.92222 142.212 8.92222H171.553M171.553 8.02689H142.212C140.993 8.02689 140 9.01176 140 10.2205V47.8064C140 49.0151 140.993 50 142.212 50H171.788C173.007 50 174 49.0151 174 47.8064V41.8435C174 40.6348 173.007 39.65 171.788 39.65H152.173C151.947 39.65 151.767 39.4709 151.767 39.2471V34.2601C151.767 34.0362 151.947 33.8572 152.173 33.8572H164.084C165.304 33.8572 166.297 32.8723 166.297 31.6636V25.9872C166.297 24.7785 165.304 23.7936 164.084 23.7936H152.173C151.947 23.7936 151.767 23.6146 151.767 23.3907V18.7529C151.767 18.5291 151.947 18.35 152.173 18.35H171.553C172.772 18.35 173.765 17.3651 173.765 16.1565V10.1936C173.765 8.98487 172.772 8 171.553 8V8.02689Z" fill="#629EFF"/>
<path d="M22.0711 43C18.9952 43 16.0811 42.4452 13.4279 41.363C10.7747 40.2807 8.40932 38.7345 6.39467 36.7792C4.38003 34.8238 2.79711 32.5229 1.68186 29.9309C0.566614 27.3388 0 24.5013 0 21.5C0 18.4987 0.566614 15.6612 1.68186 13.0692C2.79711 10.4771 4.36204 8.1762 6.33171 6.22083C8.30138 4.26546 10.6488 2.71932 13.311 1.63704C15.9642 0.554769 18.8513 0 21.9002 0C25.3719 0 28.6906 0.727593 31.7755 2.17366C34.4287 3.41964 36.6952 5.08399 38.521 7.13031C39.1685 7.85789 39.1146 8.98565 38.3951 9.64047L33.3495 14.2333C33.0257 14.5243 32.612 14.688 32.1893 14.688C31.6946 14.688 31.2179 14.4788 30.8851 14.106C29.8239 12.9418 28.6277 12.0142 27.3325 11.3684C25.6956 10.5499 23.8699 10.1316 21.9092 10.1316C20.3623 10.1316 18.9232 10.4226 17.6191 10.9956C16.315 11.5685 15.1547 12.3689 14.1834 13.3784C13.2121 14.3788 12.4476 15.5793 11.917 16.9526C11.3863 18.335 11.1075 19.863 11.1075 21.5091C11.1075 23.1553 11.3863 24.6922 11.9439 26.0928C12.4925 27.4843 13.284 28.7121 14.2913 29.7307C15.2986 30.7493 16.4948 31.5679 17.8439 32.1409C19.184 32.7138 20.6681 33.0049 22.251 33.0049C23.8339 33.0049 25.147 32.7411 26.3702 32.2227C27.5933 31.7043 28.6636 30.9768 29.5361 30.0491C29.8958 29.6671 30.2196 29.2578 30.4984 28.8304C30.6693 28.5575 30.6873 28.2301 30.5344 27.9482C30.3815 27.6663 30.1027 27.4935 29.7789 27.4935H22.233C21.2706 27.4935 20.4792 26.7022 20.4792 25.72V19.6628C20.4792 18.6897 21.2616 17.8894 22.233 17.8894H41.2462C42.2085 17.8894 43 18.6806 43 19.6628V21.2635C43 24.3739 42.4783 27.2843 41.444 29.9126C40.4097 32.541 38.9437 34.8602 37.082 36.8246C35.2202 38.7891 32.9897 40.317 30.4444 41.3902C27.8992 42.4543 25.0931 43 22.0891 43H22.0711Z" fill="white"/>
<path d="M22.3967 0.899313C25.8229 0.899313 29.0598 1.59389 32.1074 2.983C34.7221 4.17621 36.9311 5.76123 38.7164 7.72913C39.2032 8.26341 39.1582 9.08261 38.6172 9.55455L33.559 14.0513C33.3156 14.2739 33 14.3808 32.6934 14.3808C32.3327 14.3808 31.9811 14.2383 31.7197 13.9534C30.6107 12.7602 29.3844 11.8341 28.0229 11.1752C26.3098 10.3382 24.4254 9.91962 22.3877 9.91962C20.7737 9.91962 19.277 10.2135 17.9065 10.8012C16.5361 11.3889 15.3459 12.1992 14.327 13.2232C13.3082 14.2472 12.5147 15.4671 11.9557 16.8741C11.3967 18.281 11.1172 19.8215 11.1172 21.4955C11.1172 23.1696 11.4057 24.719 11.9828 26.1437C12.5598 27.5684 13.3803 28.8062 14.4352 29.8569C15.4901 30.9076 16.7254 31.7179 18.132 32.3146C19.5385 32.9023 21.0713 33.1961 22.7303 33.1961C24.3893 33.1961 25.7418 32.929 27.0402 32.3947C28.3295 31.8604 29.4385 31.1214 30.3672 30.1686C30.7549 29.7768 31.0885 29.3493 31.3861 28.913C31.9541 28.0582 31.3229 26.9184 30.286 26.9184H22.7122C21.9909 26.9184 21.4049 26.3396 21.4049 25.6272V19.6968C21.4049 18.9845 21.9909 18.4057 22.7122 18.4057H41.7729C42.4942 18.4057 43.0803 18.9845 43.0803 19.6968V21.264C43.0803 24.2738 42.5664 27.0431 41.5475 29.5719C40.5287 32.1008 39.1041 34.3092 37.2737 36.1969C35.4434 38.0847 33.2795 39.5361 30.7729 40.5602C28.2664 41.5842 25.5344 42.1006 22.568 42.1006C19.6016 42.1006 16.6893 41.5753 14.0746 40.5334C11.4508 39.4916 9.1516 38.0223 7.16799 36.1346C5.18438 34.2468 3.64258 32.0652 2.54258 29.5719C1.44257 27.0787 0.892614 24.3895 0.892614 21.4955C0.892614 18.6015 1.44257 15.9124 2.54258 13.4191C3.64258 10.9258 5.16634 8.73531 7.10487 6.85645C9.05241 4.96869 11.3336 3.50834 13.9574 2.45761C16.5811 1.40687 19.3942 0.890454 22.3967 0.890454M22.3967 0C19.286 0 16.3377 0.552051 13.6238 1.6384C10.9008 2.72476 8.50241 4.26527 6.48274 6.22426C4.46306 8.17436 2.85817 10.4806 1.72211 13.0719C0.577025 15.6631 0 18.5036 0 21.5044C0 24.5053 0.577025 27.3458 1.72211 29.9371C2.86719 32.5283 4.49012 34.8346 6.54586 36.7846C8.6016 38.7436 11.027 40.2841 13.741 41.3615C16.4549 42.4479 19.4303 43 22.577 43C25.7238 43 28.5278 42.4568 31.1336 41.3883C33.7393 40.3197 36.0295 38.7792 37.941 36.8113C39.8434 34.8523 41.3492 32.5282 42.4041 29.9014C43.459 27.2746 44 24.3717 44 21.264V19.6968C44 18.4947 43.0082 17.5152 41.791 17.5152H22.7303C21.5131 17.5152 20.5213 18.4947 20.5213 19.6968V25.6272C20.5213 26.8293 21.5131 27.8089 22.7303 27.8089H30.3041C30.5205 27.8089 30.6287 27.9602 30.6647 28.0226C30.7098 28.1027 30.7639 28.2541 30.6467 28.4322C30.3852 28.824 30.0787 29.2068 29.7361 29.563C28.8975 30.4179 27.8877 31.1035 26.7155 31.5844C25.5434 32.0652 24.209 32.3146 22.7574 32.3146C21.2246 32.3146 19.8 32.0385 18.5106 31.5043C17.2213 30.9611 16.0672 30.2042 15.0934 29.2425C14.1287 28.2897 13.3623 27.141 12.8393 25.832C12.3074 24.5142 12.0369 23.0627 12.0369 21.5133C12.0369 19.964 12.2983 18.5125 12.8123 17.2124C13.3262 15.9213 14.0566 14.7993 14.9852 13.8555C15.923 12.9116 17.0319 12.1636 18.2852 11.6204C19.5295 11.0861 20.918 10.8101 22.4057 10.8101C24.2992 10.8101 26.0574 11.2019 27.6442 11.9766C28.8975 12.591 30.0516 13.4547 31.0705 14.5589C31.4942 15.013 32.0893 15.2713 32.7115 15.2713C33.2524 15.2713 33.7754 15.0753 34.1811 14.7103L39.2393 10.2135C40.141 9.40317 40.2221 8.02299 39.4016 7.12363C37.5352 5.07559 35.209 3.41043 32.4951 2.1638C29.3483 0.730166 25.9492 0 22.4057 0H22.3967Z" fill="#629EFF"/>
<path d="M77.3167 41.9821C76.5948 41.9821 75.927 41.5263 75.6744 40.8561L72.6152 32.8492C72.4889 32.5185 72.1641 32.304 71.8121 32.304H57.8159C57.464 32.304 57.1391 32.5185 57.0218 32.8492L53.9085 40.874C53.6468 41.5442 52.988 41.9911 52.2661 41.9911H44.7582C44.1716 41.9911 43.6302 41.7051 43.2963 41.2225C42.9714 40.74 42.9082 40.1323 43.1338 39.5961L58.6642 2.08132C58.9349 1.42896 59.5756 1 60.2885 1H69.9261C70.648 1 71.2887 1.42892 71.5594 2.09021L86.8732 39.6051C87.0898 40.1412 87.0266 40.7489 86.7017 41.2315C86.3769 41.714 85.8264 42 85.2398 42H77.3167V41.9821ZM64.8907 13.9756C64.6019 13.9756 64.25 14.1186 64.0966 14.5207L61.0375 22.4115C60.9382 22.6796 60.9653 22.9655 61.1277 23.1979C61.2901 23.4302 61.5428 23.5643 61.8316 23.5643H67.8776C68.1664 23.5643 68.4191 23.4302 68.5815 23.1979C68.744 22.9655 68.78 22.6796 68.6808 22.4204L65.6938 14.5297C65.5404 14.1275 65.1795 13.9756 64.8907 13.9756Z" fill="white"/>
<path d="M69.4285 1.91364C69.962 1.91364 70.4413 2.23613 70.6402 2.72877L85.9854 40.3308C86.3291 41.1817 85.6961 42.1133 84.7738 42.1133H76.8344C76.2918 42.1133 75.8035 41.7818 75.6136 41.2713L72.5482 33.2457C72.3583 32.7441 71.87 32.4037 71.3274 32.4037H57.3024C56.7599 32.4037 56.2715 32.7352 56.0816 33.2368L52.9619 41.2802C52.772 41.7818 52.2838 42.1133 51.7412 42.1133H44.2178C43.2864 42.1133 42.6534 41.1817 43.0061 40.3218L58.5683 2.71981C58.7673 2.23612 59.2466 1.91364 59.7801 1.91364H69.4375M61.3263 24.5394H67.3849C68.2982 24.5394 68.9311 23.6347 68.6146 22.7837L65.6215 14.8746C65.4136 14.3103 64.8981 14.0327 64.3918 14.0327C63.8854 14.0327 63.3881 14.3103 63.171 14.8657L60.1056 22.7748C59.7801 23.6257 60.413 24.5394 61.3263 24.5394ZM69.4375 1.01793H59.7801C58.8758 1.01793 58.071 1.55538 57.7274 2.37943L42.1651 39.9815C41.8848 40.6622 41.9662 41.4235 42.3731 42.0326C42.7891 42.6417 43.4763 43 44.2087 43H51.7322C52.6455 43 53.4684 42.4357 53.7939 41.5937L56.9136 33.5502C56.9769 33.398 57.1216 33.2905 57.2934 33.2905H71.3184C71.4902 33.2905 71.6349 33.398 71.6982 33.5502L74.7727 41.5758C75.0982 42.4268 75.9301 42.991 76.8434 42.991H84.7828C85.5152 42.991 86.2025 42.6328 86.6184 42.0237C87.0344 41.4146 87.1158 40.6532 86.8354 39.9725L71.4902 2.37047C71.1466 1.53745 70.3418 1 69.4375 1V1.01793ZM61.3263 23.6437C61.1364 23.6437 61.037 23.5362 60.9917 23.4735C60.9465 23.4108 60.8832 23.2764 60.9465 23.1062L64.012 15.1971C64.1024 14.9732 64.2833 14.9373 64.3918 14.9373C64.5003 14.9373 64.6811 14.9732 64.7715 15.1971L67.7647 23.1062C67.828 23.2764 67.7646 23.4108 67.7194 23.4735C67.6742 23.5362 67.5747 23.6437 67.3849 23.6437H61.3263Z" fill="#629EFF"/>
<path d="M126.485 42C125.52 42 124.727 41.2227 124.727 40.2578V19.3602C124.727 18.8063 124.276 18.5115 123.861 18.5115C123.671 18.5115 123.338 18.5651 123.121 18.9582L113.434 36.7823C113.118 37.3541 112.541 37.6936 111.892 37.6936C111.242 37.6936 110.647 37.3452 110.34 36.7734L100.644 18.8599C100.437 18.4668 100.094 18.4132 99.9047 18.4132C99.4808 18.4132 99.0388 18.708 99.0388 19.2619V40.2489C99.0388 41.2049 98.2541 41.9911 97.28 41.9911H90.7588C89.7937 41.9911 89 41.2138 89 40.2489V2.74222C89 1.78624 89.7847 1 90.7588 1H101.213C101.871 1 102.466 1.35741 102.764 1.92921L111.242 17.9486C111.396 18.2345 111.675 18.4043 112 18.4043C112.325 18.4043 112.604 18.2345 112.758 17.9486L121.236 1.92921C121.543 1.35741 122.138 1 122.787 1H133.241C134.206 1 135 1.7773 135 2.74222V40.2489C135 41.2049 134.215 41.9911 133.241 41.9911H126.485V42Z" fill="white"/>
<path d="M133.786 1.90487C134.509 1.90487 135.097 2.48722 135.097 3.20394V40.814C135.097 41.5307 134.509 42.1131 133.786 42.1131H127.019C126.296 42.1131 125.709 41.5307 125.709 40.814V19.8588C125.709 19.0435 125.05 18.5598 124.39 18.5598C123.947 18.5598 123.514 18.7747 123.252 19.2406L113.548 37.1139C113.304 37.5708 112.852 37.7948 112.401 37.7948C111.949 37.7948 111.497 37.5708 111.244 37.1139L101.532 19.151C101.279 18.6762 100.836 18.4612 100.393 18.4612C99.7245 18.4612 99.074 18.945 99.074 19.7602V40.805C99.074 41.5217 98.4867 42.1041 97.7639 42.1041H91.2317C90.5089 42.1041 89.9216 41.5217 89.9216 40.805V3.19498C89.9216 2.47825 90.5089 1.8959 91.2317 1.8959H101.703C102.191 1.8959 102.634 2.1647 102.86 2.59474L111.353 18.6583C111.596 19.1242 112.057 19.3571 112.509 19.3571C112.961 19.3571 113.422 19.1242 113.665 18.6583L122.158 2.59474C122.384 2.1647 122.827 1.8959 123.315 1.8959H133.786M133.786 1H123.315C122.493 1 121.743 1.44795 121.354 2.17363L112.861 18.2372C112.762 18.4253 112.59 18.4523 112.5 18.4523C112.41 18.4523 112.238 18.4253 112.139 18.2372L103.646 2.17363C103.266 1.44795 102.516 1 101.685 1H91.2136C89.9939 1 89 1.98551 89 3.19498V40.805C89 42.0145 89.9939 43 91.2136 43H97.7459C98.9656 43 99.9594 42.0145 99.9594 40.805V19.7602C99.9594 19.6348 99.9956 19.5363 100.077 19.4735C100.158 19.4019 100.267 19.3571 100.384 19.3571C100.61 19.3571 100.7 19.5184 100.727 19.5721L110.44 37.535C110.829 38.2517 111.569 38.6907 112.392 38.6907C113.214 38.6907 113.955 38.2517 114.343 37.535L124.047 19.6617C124.074 19.6079 124.164 19.4467 124.39 19.4467C124.39 19.4467 124.806 19.4467 124.806 19.8499V40.805C124.806 42.0145 125.8 43 127.019 43H133.786C135.006 43 136 42.0145 136 40.805V3.19498C136 1.98551 135.006 1 133.786 1Z" fill="#629EFF"/>
<path d="M142.756 41.9821C141.792 41.9821 141 41.205 141 40.2403V2.74184C141 1.78607 141.783 1 142.756 1H172.01C172.974 1 173.766 1.77713 173.766 2.74184V8.69083C173.766 9.64661 172.983 10.4327 172.01 10.4327H152.687C152.219 10.4327 151.832 10.8168 151.832 11.2813V15.9083C151.832 16.3728 152.21 16.7569 152.687 16.7569H164.564C165.527 16.7569 166.319 17.534 166.319 18.4987V24.153C166.319 25.1087 165.536 25.8948 164.564 25.8948H152.687C152.219 25.8948 151.832 26.2789 151.832 26.7433V31.7187C151.832 32.1832 152.21 32.5673 152.687 32.5673H172.244C173.208 32.5673 174 33.3445 174 34.3092V40.2582C174 41.2139 173.217 42 172.244 42H142.756V41.9821Z" fill="white"/>
<path d="M171.553 1.89533C172.275 1.89533 172.862 2.47731 172.862 3.19357V9.15645C172.862 9.87272 172.275 10.4547 171.553 10.4547H152.173C151.451 10.4547 150.864 11.0367 150.864 11.7529V16.3907C150.864 17.107 151.451 17.689 152.173 17.689H164.084C164.807 17.689 165.394 18.271 165.394 18.9872V24.6636C165.394 25.3799 164.807 25.9618 164.084 25.9618H152.173C151.451 25.9618 150.864 26.5438 150.864 27.2601V32.2471C150.864 32.9633 151.451 33.5453 152.173 33.5453H171.788C172.51 33.5453 173.097 34.1272 173.097 34.8435V40.8064C173.097 41.5227 172.51 42.1047 171.788 42.1047H142.212C141.49 42.1047 140.903 41.5227 140.903 40.8064V3.2204C140.903 2.50414 141.49 1.92222 142.212 1.92222H171.553M171.553 1.02689H142.212C140.993 1.02689 140 2.01171 140 3.2204V40.8064C140 42.0151 140.993 43 142.212 43H171.788C173.007 43 174 42.0151 174 40.8064V34.8435C174 33.6348 173.007 32.6499 171.788 32.6499H152.173C151.947 32.6499 151.767 32.4709 151.767 32.2471V27.2601C151.767 27.0362 151.947 26.8572 152.173 26.8572H164.084C165.304 26.8572 166.297 25.8723 166.297 24.6636V18.9872C166.297 17.7785 165.304 16.7936 164.084 16.7936H152.173C151.947 16.7936 151.767 16.6146 151.767 16.3907V11.7529C151.767 11.5291 151.947 11.35 152.173 11.35H171.553C172.772 11.35 173.765 10.3651 173.765 9.15645V3.19357C173.765 1.98487 172.772 1 171.553 1V1.02689Z" fill="#629EFF"/>
</svg>
