<svg width="149" height="43" viewBox="0 0 149 43" fill="none" xmlns="http://www.w3.org/2000/svg">
<path d="M129.789 21.4337C136.069 27.9093 142.329 34.3746 148.6 40.84C148.559 40.922 148.528 40.9937 148.487 41.0757C147.399 41.0757 146.301 41.1167 145.223 41.0449C144.956 41.0244 144.7 40.6863 144.474 40.4506C138.676 34.4361 132.868 28.4319 127.121 22.3764C126.259 21.4645 125.407 20.9829 124.176 21.1571C123.827 21.2083 123.468 21.1571 123.088 21.1571C123.037 21.3927 122.954 21.5567 122.954 21.7309C122.985 26.69 122.975 31.6594 123.078 36.6186C123.129 39.0572 123.632 39.4977 126.064 39.9178C126.177 39.9383 126.29 39.9691 126.433 39.9998C126.464 40.1535 126.505 40.2969 126.505 40.4404C126.505 40.6146 126.464 40.7888 126.444 41.0039C126.177 41.0347 125.951 41.0757 125.715 41.0757C123.016 41.0757 120.327 41.0962 117.628 41.0552C117.341 41.0552 116.879 40.8093 116.797 40.5736C116.602 39.9998 117.074 39.9486 117.526 39.8666C119.578 39.5285 119.917 39.1699 120.194 37.1411C120.266 36.6083 120.317 36.0653 120.317 35.5325V7.89849C120.317 7.15052 120.245 6.40255 120.132 5.66482C119.927 4.23036 119.209 3.50288 117.782 3.20574C117.639 3.175 117.433 3.20573 117.351 3.12377C117.126 2.9086 116.961 2.6422 116.766 2.39629C116.992 2.2221 117.208 1.93521 117.444 1.90447C118.1 1.83275 118.757 1.87373 119.414 1.88398C123.457 1.93521 127.501 1.90447 131.534 2.06841C134.068 2.17087 136.49 2.87786 138.676 4.23036C143.694 7.3452 144.197 14.0769 139.692 17.8885C137.137 20.0505 134.068 20.8394 130.826 21.1468C130.559 21.1673 130.292 21.1878 130.025 21.2185C129.974 21.2185 129.933 21.2903 129.799 21.3927V21.4337H129.789ZM123.067 3.75903C123.006 3.96396 122.944 4.07666 122.944 4.18937V18.7082C122.944 19.2615 123.242 19.3332 123.683 19.3332C125.623 19.323 127.583 19.4152 129.512 19.282C131.082 19.1796 132.673 18.9746 134.181 18.5443C138.389 17.3455 140.431 14.1589 139.713 10.0092C139.189 6.96609 137.024 5.40867 134.274 4.53774C130.6 3.37993 126.813 3.86149 123.067 3.75903Z" fill="white"/>
<path d="M85.2102 21.1877C85.4668 22.0074 85.3333 22.3455 84.5329 22.489C82.5728 22.8373 81.9366 23.6161 81.916 25.6141C81.875 29.4154 81.875 33.2167 81.8956 37.0078C81.8956 37.6841 81.7108 38.1042 81.0951 38.4321C73.3677 42.5715 65.5685 42.8174 57.8821 38.4935C53.3052 35.9217 50.7089 31.731 49.6314 26.6284C48.4923 21.2185 49.0772 16.0339 51.9917 11.2489C55.0806 6.17704 59.6883 3.21589 65.4453 2.05807C71.3563 0.86951 77.1134 1.49453 82.6652 3.89214C83.3425 4.17903 83.5888 4.56839 83.558 5.30612C83.4965 6.86354 83.558 8.42096 83.5169 9.96813C83.5169 10.2243 83.2296 10.6854 83.127 10.6751C82.7986 10.6239 82.3984 10.4804 82.2034 10.2345C81.9058 9.84518 81.7724 9.32262 81.5261 8.87179C79.6892 5.45981 76.6721 3.83067 72.9572 3.44131C68.5342 2.98023 64.2857 3.62574 60.4271 5.98236C55.6655 8.89228 53.0384 13.2162 52.2688 18.6569C51.6325 23.155 52.2585 27.4891 54.5777 31.4646C57.1946 35.932 61.1865 38.4525 66.215 39.3542C70.3096 40.0919 74.3221 39.6718 78.2012 38.1042C78.9195 37.8173 79.1863 37.4279 79.1761 36.6492C79.135 33.268 79.1658 29.8867 79.1555 26.5055C79.1453 23.4726 78.6117 22.8783 75.6151 22.4378C75.3791 22.407 75.0918 22.4787 74.907 22.366C74.6608 22.2123 74.4965 21.9254 74.2913 21.7C74.5068 21.5258 74.7223 21.1877 74.9378 21.1877C77.0313 21.1467 79.135 21.157 81.2285 21.157H85.1999V21.1877H85.2102Z" fill="white"/>
<path d="M88.5045 31.0959C89.2742 30.809 89.6025 31.055 89.9206 31.7415C90.5261 33.0632 91.1521 34.4157 92.0141 35.5838C95.3699 40.1433 102.307 41.1167 106.863 37.756C109.388 35.8912 110.527 32.7148 109.727 29.8152C109.337 28.3909 108.485 27.2639 107.294 26.4749C105.95 25.5937 104.534 24.7945 103.097 24.0773C101.065 23.0629 98.9308 22.2432 96.94 21.1674C95.4314 20.3477 93.9126 19.405 92.6811 18.2267C87.6527 13.3803 89.3665 5.38824 95.9446 2.62177C99.7723 1.01311 103.672 1.28976 107.551 2.3861C108.926 2.77546 110.229 3.41072 111.543 3.97426C111.789 4.08697 112.097 4.4251 112.107 4.671C112.148 6.60753 112.138 8.54407 112.138 10.4704C111.338 10.7572 110.937 10.5728 110.64 9.80435C108.413 3.94353 102.133 1.55616 96.55 4.41485C91.4702 7.01738 90.8955 13.8413 95.5238 17.1611C96.7039 18.0115 98.038 18.6571 99.3515 19.2923C101.424 20.2964 103.549 21.1879 105.611 22.2022C106.73 22.7555 107.808 23.4215 108.834 24.149C114.098 27.8786 113.298 34.5899 109.686 38.0633C107.099 40.5429 103.929 41.5471 100.429 41.5573C96.355 41.5573 92.5785 40.4302 89.151 38.1965C88.6481 37.8687 88.4224 37.51 88.4429 36.885C88.484 35.2456 88.4532 33.596 88.4634 31.9566C88.4634 31.6697 88.4942 31.3726 88.5147 31.1062L88.5045 31.0959Z" fill="white"/>
<path d="M20.2303 14.62V1.49463C20.2303 0.920846 20.2714 0.52124 21.0308 0.52124C21.7902 0.52124 21.821 0.931093 21.821 1.49463V13.4212C21.821 14.7942 21.7902 14.8147 20.2406 14.62H20.2303Z" fill="white"/>
<path d="M25.3307 16.2387C24.8381 15.9211 24.4789 15.6854 24.0273 15.3883C26.5826 11.4127 29.0968 7.49871 31.6624 3.51294C32.1139 3.76909 32.4834 3.98426 33.0067 4.29164C30.4412 8.28766 27.9167 12.212 25.3307 16.2387Z" fill="white"/>
<path d="M15.8586 41.7929C15.325 41.629 14.9042 41.506 14.3706 41.3523C15.7047 36.803 17.0183 32.3357 18.3626 27.7761C18.8962 27.9401 19.317 28.0733 19.8506 28.2372C18.5165 32.7763 17.203 37.2436 15.8586 41.7929Z" fill="white"/>
<path d="M16.6489 16.1673C14.1141 12.2327 11.6102 8.32893 9.11646 4.45586C10.0606 3.34928 10.2659 3.35952 10.9637 4.43537C13.088 7.73464 15.2019 11.0237 17.3262 14.3332C18.0548 15.4705 18.0445 15.4705 16.6489 16.1673Z" fill="white"/>
<path d="M25.6488 26.4747C25.9875 26.0854 26.2748 25.7575 26.6339 25.3374C30.1949 28.4215 33.7148 31.4646 37.2245 34.4873C36.6601 35.8193 36.4445 35.8705 35.4183 34.9791C32.5039 32.4585 29.5792 29.9379 26.6647 27.4071C26.3364 27.1202 26.0182 26.8026 25.6488 26.4645V26.4747Z" fill="white"/>
<path d="M14.186 21.6897C14.2681 22.243 14.3297 22.6733 14.4118 23.2164C12.7801 23.452 11.2202 23.6877 9.66038 23.9131C6.9717 24.3025 4.27276 24.7021 1.58408 25.0709C0.229475 25.2554 0.229435 25.2349 0.260222 23.6979C4.86792 23.0319 9.48589 22.3659 14.1757 21.6897H14.186Z" fill="white"/>
<path d="M27.5369 19.3843C27.3009 18.8925 27.1059 18.5031 26.8801 18.0318C27.2804 17.8269 27.6088 17.6425 27.9577 17.4888C31.5187 15.8596 35.0899 14.2305 38.6611 12.6013C39.872 12.048 39.9849 12.1095 40.2928 13.5747C36.075 15.4908 31.847 17.4273 27.5472 19.3843H27.5369Z" fill="white"/>
<path d="M15.1608 18.0318C14.9248 18.5134 14.74 18.9028 14.504 19.3843C10.1939 17.4171 5.96591 15.4908 1.74817 13.5645C2.04577 12.13 2.16895 12.0481 3.31831 12.5706C7.00242 14.2408 10.6763 15.9211 14.3501 17.6015C14.5964 17.7142 14.8221 17.8474 15.1608 18.0318Z" fill="white"/>
<path d="M22.3033 28.2881C23.6066 27.6221 23.6374 27.6324 24.0171 28.9336C25.1459 32.776 26.2645 36.6183 27.4138 40.4504C27.5986 41.0651 27.5986 41.4647 26.8494 41.6389C26.3671 41.7516 26.1311 41.6799 25.9874 41.1983C24.7662 36.9871 23.5348 32.7657 22.3033 28.5545C22.2828 28.4726 22.3033 28.3803 22.3033 28.2984V28.2881Z" fill="white"/>
<path d="M16.3616 26.5464C14.812 27.8989 13.3035 29.2104 11.7847 30.5219C9.97855 32.0896 8.15185 33.647 6.35597 35.2249C5.89417 35.6245 5.57609 35.7577 5.11429 35.2044C4.66276 34.6614 4.90906 34.4052 5.31955 34.0466C8.35714 31.4338 11.3845 28.8006 14.4118 26.1775C15.0891 25.5935 15.7356 25.7165 16.3514 26.5566H16.3616V26.5464Z" fill="white"/>
<path d="M27.6294 23.1448C27.7012 22.653 27.773 22.2534 27.8449 21.7821C28.0809 21.7821 28.2861 21.7616 28.4811 21.7821C32.5347 22.3558 36.5882 22.9296 40.6418 23.5239C41.237 23.6059 41.9759 23.5546 41.7809 24.569C41.6885 25.0301 41.5449 25.2453 41.0215 25.1633C36.7011 24.528 32.3808 23.903 28.0604 23.278C27.9475 23.2575 27.8346 23.2063 27.6397 23.1448H27.6294Z" fill="white"/>
<path d="M21.8106 37.7865C21.8106 39.0673 21.7901 40.3481 21.8106 41.6289C21.8209 42.2436 21.6054 42.4793 20.9794 42.469C20.3842 42.469 20.2098 42.2129 20.22 41.6596C20.2406 39.098 20.2406 36.5365 20.22 33.9749C20.22 33.3704 20.415 33.1245 21.041 33.1245C21.667 33.1245 21.8106 33.3909 21.8106 33.9442C21.7901 35.225 21.8106 36.5058 21.8106 37.7865Z" fill="white"/>
<path d="M1.88159 29.4256C4.62158 28.1653 7.37182 26.8948 10.2042 25.5935C10.4402 26.0648 10.6455 26.4542 10.8815 26.9255C10.5429 27.1099 10.2761 27.2739 9.98871 27.4071C7.8234 28.4112 5.64779 29.4051 3.47221 30.4092C2.29207 30.9523 2.16893 30.8805 1.88159 29.4256Z" fill="white"/>
<path d="M15.3764 31.6901C13.7447 34.2311 12.2362 36.6595 10.625 39.0263C9.97849 39.9792 9.66036 38.7804 8.95227 38.7907C10.7174 36.0447 12.3593 33.4934 14.0525 30.8704C14.5041 31.147 14.8941 31.3827 15.3764 31.6798V31.6901Z" fill="white"/>
<path d="M12.7184 13.2983C12.3592 13.7184 12.0822 14.0463 11.723 14.4664C10.3684 13.2983 9.05484 12.1815 7.75154 11.0544C6.869 10.2962 5.9967 9.51748 5.10389 8.7695C4.72419 8.45187 4.7755 8.12399 5.10389 7.87808C5.36045 7.6834 5.88382 7.42725 6.00697 7.52971C8.25438 9.40477 10.4505 11.331 12.7184 13.2983Z" fill="white"/>
<path d="M32.0011 25.6858C32.3089 25.8087 32.4731 25.86 32.6373 25.9419C34.9771 27.0075 37.3065 28.0834 39.6566 29.1285C40.1697 29.3539 40.4263 29.5793 40.1287 30.1941C39.8516 30.7679 39.5539 30.8294 39.0101 30.5732C36.6498 29.4769 34.2792 28.4215 31.9292 27.3047C31.7137 27.2022 31.4674 26.8231 31.5084 26.6079C31.5597 26.2801 31.8369 25.9829 32.0011 25.6858Z" fill="white"/>
<path d="M29.3123 13.3084C30.8003 12.0071 32.2267 10.7776 33.6429 9.53781C34.2279 9.0255 34.823 8.52344 35.4182 8.01113C36.4547 7.10946 36.4958 7.11971 37.286 8.44146C35.0078 10.419 32.709 12.4067 30.3385 14.456C29.9896 14.0564 29.6817 13.708 29.3225 13.2879V13.3084H29.3123Z" fill="white"/>
<path d="M27.5883 1.89425C26.9315 4.13817 26.3466 6.14642 25.7514 8.15467C25.5872 8.69772 25.4127 9.24077 25.269 9.79406C25.1459 10.2961 24.9714 10.5933 24.3454 10.3883C23.781 10.2039 23.5655 9.97849 23.7605 9.35348C24.5199 6.86365 25.2383 4.36358 25.9669 1.87375C26.09 1.45366 26.2645 1.11553 26.7776 1.36144C27.0854 1.51514 27.3625 1.74055 27.5883 1.884V1.89425Z" fill="white"/>
<path d="M26.6544 31.7106C27.1265 31.4032 27.4959 31.1675 27.9679 30.8601C29.6509 33.4729 31.2929 36.0344 32.9861 38.6575C32.5551 38.9444 32.196 39.1903 31.7034 39.5284C30.0204 36.9259 28.3785 34.3746 26.6544 31.7106Z" fill="white"/>
<path d="M15.8381 1.2998C15.9716 1.69941 16.1254 2.10925 16.2486 2.53959C16.9156 4.804 17.5622 7.07866 18.2497 9.33282C18.4242 9.89636 18.3626 10.1935 17.7366 10.3882C17.0696 10.6033 16.8951 10.296 16.7412 9.76316C16.0741 7.43728 15.3763 5.12163 14.6887 2.79575C14.3296 1.57645 14.3912 1.49448 15.8279 1.2998H15.8381Z" fill="white"/>
<path d="M0.26021 19.2922C0.239685 17.745 0.239735 17.7347 1.59434 17.9294C4.05725 18.2778 6.5099 18.6466 8.96255 18.9848C9.48592 19.0565 9.63982 19.2819 9.50641 19.7635C9.40379 20.1426 9.4859 20.6549 8.80859 20.5524C5.97624 20.1323 3.13366 19.7225 0.25 19.3024H0.26021V19.2922Z" fill="white"/>
<path d="M41.3908 17.7859C41.4934 17.9703 41.6884 18.206 41.7602 18.4826C41.8628 18.913 41.8218 19.3023 41.2164 19.374C39.7899 19.5585 38.3737 19.7941 36.9576 19.9991C35.7774 20.1732 34.587 20.2962 33.4069 20.5114C32.8014 20.6241 32.5962 20.3884 32.5038 19.8556C32.4115 19.3023 32.5449 19.0462 33.1503 18.9642C35.8185 18.6056 38.4764 18.206 41.3908 17.7859Z" fill="white"/>
</svg>
