<svg width="130" height="51" viewBox="0 0 130 51" fill="none" xmlns="http://www.w3.org/2000/svg">
<path d="M50.2687 42.3432V12.9561C50.2687 11.7605 51.2384 10.7822 52.4456 10.7822H55.0975C56.2948 10.7822 57.2744 11.7506 57.2744 12.9561V42.3432C57.2744 43.5389 56.3047 44.5171 55.0975 44.5171H52.4456C51.2483 44.5171 50.2687 43.5487 50.2687 42.3432Z" fill="#629EFF" stroke="#629EFF" stroke-miterlimit="10"/>
<path d="M79.9343 45.0409C77.421 45.0409 75.0956 44.5962 72.9385 43.7167C70.7813 42.8373 68.8914 41.5923 67.2686 40.0112C65.6458 38.4204 64.3693 36.5725 63.4589 34.4678C62.5387 32.3631 62.0835 30.0904 62.0835 27.6497C62.0835 25.209 62.5387 22.9363 63.4589 20.8316C64.3792 18.7269 65.6458 16.879 67.2686 15.2881C68.8914 13.6973 70.7813 12.4621 72.9385 11.5826C75.0956 10.7032 77.421 10.2585 79.9343 10.2585C82.4477 10.2585 84.7829 10.7032 86.95 11.5826C89.117 12.4621 91.0169 13.7071 92.6397 15.2881C94.2625 16.879 95.5291 18.7269 96.4295 20.8316C97.33 22.9363 97.7852 25.209 97.7852 27.6497C97.7852 30.0904 97.33 32.3631 96.4295 34.4678C95.5291 36.5725 94.2625 38.4204 92.6397 40.0112C91.0169 41.6021 89.117 42.8373 86.95 43.7167C84.7829 44.5962 82.4378 45.0409 79.9343 45.0409ZM79.9343 38.6279C81.478 38.6279 82.893 38.3512 84.1794 37.7879C85.4657 37.2247 86.5938 36.454 87.5536 35.4757C88.5233 34.4975 89.2753 33.3315 89.8196 31.9777C90.3638 30.624 90.6409 29.1813 90.6409 27.6398C90.6409 26.0983 90.3638 24.6161 89.8196 23.2821C89.2753 21.9482 88.5134 20.7921 87.5536 19.8138C86.5839 18.8355 85.4657 18.0648 84.1794 17.5016C82.893 16.9383 81.478 16.6617 79.9343 16.6617C78.3907 16.6617 77.0252 16.9482 75.7388 17.5016C74.4524 18.0648 73.3244 18.8355 72.3645 19.8138C71.3948 20.7921 70.6428 21.9482 70.0986 23.2821C69.5543 24.6161 69.2773 26.0489 69.2773 27.5904C69.2773 29.1319 69.5543 30.624 70.0986 31.9777C70.6428 33.3315 71.4047 34.4876 72.3645 35.4757C73.3343 36.454 74.4524 37.2247 75.7388 37.7879C77.0252 38.3512 78.4204 38.6279 79.9343 38.6279Z" fill="#629EFF" stroke="#629EFF" stroke-miterlimit="10"/>
<path d="M114.676 45.0014C111.945 45.0014 109.273 44.4974 106.671 43.4796C104.771 42.7385 103.02 41.78 101.436 40.5844C100.457 39.8532 100.298 38.45 101.06 37.5014L102.367 35.871C103.109 34.9422 104.454 34.7939 105.394 35.5153C106.77 36.5627 108.106 37.3631 109.412 37.9066C111.233 38.6773 113.152 39.0627 115.181 39.0627C116.596 39.0627 117.823 38.8947 118.852 38.5587C119.881 38.2228 120.673 37.7287 121.237 37.0864C121.801 36.4441 122.078 35.6931 122.078 34.8236C122.078 33.6675 121.662 32.7781 120.821 32.1457C119.98 31.5232 118.555 31.0291 116.527 30.6734L109.818 29.5173C106.958 29.0331 104.771 28.0252 103.277 26.4837C101.783 24.9422 101.031 22.9462 101.031 20.5055C101.031 18.4206 101.565 16.6024 102.644 15.0609C103.722 13.5194 105.246 12.3336 107.225 11.5234C109.204 10.7131 111.559 10.2981 114.29 10.2981C116.764 10.2981 119.238 10.7131 121.692 11.553C123.374 12.1261 124.918 12.8475 126.333 13.7072C127.401 14.3593 127.659 15.802 126.926 16.8099L125.709 18.4897C125.036 19.4285 123.74 19.6656 122.77 19.0431C119.792 17.136 116.794 16.1775 113.795 16.1775C112.539 16.1775 111.45 16.3356 110.51 16.6617C109.58 16.9878 108.858 17.4225 108.363 17.9858C107.868 18.549 107.611 19.2111 107.611 19.9818C107.611 21.0095 107.977 21.8099 108.719 22.3632C109.461 22.9264 110.698 23.3513 112.43 23.6379L118.802 24.6952C122.177 25.2387 124.7 26.3059 126.382 27.8968C128.054 29.4877 128.895 31.5825 128.895 34.1813C128.895 36.3651 128.312 38.2722 127.154 39.8927C125.996 41.5132 124.344 42.7682 122.206 43.6476C120.069 44.527 117.546 44.9717 114.656 44.9717L114.676 45.0014Z" fill="#629EFF" stroke="#629EFF" stroke-miterlimit="10"/>
<path d="M38.0779 34.4284C38.9388 35.0015 39.3148 36.2268 38.9091 37.1754C38.5628 37.9758 38.2164 38.7762 37.8107 39.5371C36.6332 41.7702 35.2083 43.8354 33.4668 45.6734C31.4778 47.7682 29.1228 48.3117 26.4115 47.3236C25.4517 46.9678 24.5117 46.5232 23.5222 46.2465C21.3551 45.6536 19.2475 45.9599 17.1992 46.8295C16.3581 47.1852 15.4774 47.5014 14.5868 47.7188C12.3505 48.2722 10.5991 47.284 9.12473 45.7425C6.03744 42.5113 3.84072 38.7268 2.4653 34.4778C1.54505 31.6518 1.01071 28.7565 1.07998 25.7724C1.16903 22.0866 2.08928 18.6776 4.65212 15.891C6.92801 13.4207 9.75801 12.0472 13.1323 12.1954C14.4582 12.2547 15.8138 12.6796 17.0804 13.1341C20.8505 14.4978 20.3953 14.5966 24.1455 13.0946C27.1933 11.8693 30.2311 11.6322 33.3381 12.7883C34.5157 13.2329 35.6635 13.9148 36.6332 14.7744C37.6029 15.6341 37.6326 17.1262 36.6728 18.0254C34.3474 20.1894 33.0611 22.9068 33.2986 26.3949C33.5459 29.9719 35.2281 32.5608 38.0581 34.4284H38.0779Z" fill="#629EFF" stroke="#629EFF" stroke-miterlimit="10"/>
<path d="M29.2316 0.653923C29.5186 0.604516 29.7857 0.831786 29.7956 1.12823C29.8649 2.55114 29.5977 3.895 29.0535 5.18946C27.7869 8.1835 25.7089 10.3278 22.5128 11.2467C21.9785 11.4048 21.3946 11.4048 20.8405 11.474C20.3952 11.5333 20.2666 11.3258 20.2567 10.9009C20.1973 8.47006 21.1077 6.32581 22.6315 4.40883C24.2642 2.3634 26.6589 1.06894 29.2415 0.644043H29.2316V0.653923Z" fill="#629EFF" stroke="#629EFF" stroke-miterlimit="10"/>
<path d="M50.0187 15.2032V44.5903C50.0187 45.935 51.1113 47.0142 52.4456 47.0142H55.0975C56.4432 47.0142 57.5244 45.9236 57.5244 44.5903V15.2032C57.5244 13.8585 56.4318 12.7793 55.0975 12.7793H52.4456C51.0999 12.7793 50.0187 13.8699 50.0187 15.2032Z" fill="#C0D8FF" stroke="#629EFF" stroke-width="0.5" stroke-miterlimit="10"/>
<path d="M67.0935 42.4367L67.0941 42.4373C68.74 44.0407 70.6571 45.3036 72.8441 46.1952C75.0331 47.0876 77.3907 47.5378 79.9343 47.5378C82.468 47.5378 84.8452 47.0877 87.044 46.1954C89.2401 45.3041 91.1678 44.0512 92.8147 42.4367C94.4608 40.823 95.746 38.9479 96.6594 36.8131C97.5739 34.6756 98.0352 32.3692 98.0352 29.8966C98.0352 27.4241 97.5739 25.1177 96.6594 22.9802C95.746 20.8453 94.4608 18.9703 92.8147 17.3566L92.8141 17.356C91.1679 15.7522 89.2407 14.4894 87.044 13.5979C84.8453 12.7057 82.4779 12.2555 79.9343 12.2555C77.3907 12.2555 75.0331 12.7057 72.8441 13.5981C70.6577 14.4895 68.7401 15.7424 67.0935 17.3566C65.4474 18.9703 64.1627 20.8449 63.2299 22.9784C62.2948 25.1169 61.8335 27.424 61.8335 29.8966C61.8335 32.3691 62.2947 34.676 63.2297 36.8145C64.153 38.949 65.448 40.8235 67.0935 42.4367ZM72.5421 22.2368L72.543 22.2358C73.4795 21.2814 74.5805 20.5287 75.8384 19.9778C77.0923 19.4386 78.4239 19.1586 79.9343 19.1586C81.4475 19.1586 82.8278 19.4297 84.0791 19.9775C85.3363 20.528 86.4281 21.2806 87.3756 22.2363C88.312 23.1908 89.056 24.3192 89.5881 25.6235C90.1191 26.9251 90.3909 28.375 90.3909 29.8868C90.3909 31.3974 90.1195 32.8084 89.5876 34.1314C89.0549 35.4566 88.3206 36.5938 87.376 37.5467L87.3751 37.5476C86.4385 38.5022 85.3372 39.255 84.0791 39.8059C82.8278 40.3537 81.4475 40.6248 79.9343 40.6248C78.4517 40.6248 77.091 40.354 75.8391 39.8059C74.582 39.2555 73.4904 38.503 72.543 37.5476C71.6061 36.5829 70.8624 35.4545 70.3305 34.1314C69.799 32.8093 69.5273 31.3491 69.5273 29.8374C69.5273 28.3267 69.7986 26.9261 70.33 25.6235C70.8626 24.3181 71.5969 23.1902 72.5421 22.2368Z" fill="#C0D8FF" stroke="#629EFF" stroke-width="0.5" stroke-miterlimit="10"/>
<path d="M115.144 47.4885H114.676C111.914 47.4885 109.211 46.9787 106.58 45.9497C104.661 45.201 102.889 44.2318 101.286 43.0215C100.191 42.2033 100.018 40.6381 100.865 39.5823C100.865 39.5822 100.865 39.5821 100.866 39.582L102.171 37.9521L115.144 47.4885ZM115.144 47.4885L115.121 47.455M115.144 47.4885L115.121 47.455M115.121 47.455C117.843 47.4096 120.244 46.9626 122.301 46.116C124.475 45.2216 126.168 43.9397 127.357 42.2752C128.548 40.6084 129.145 38.6494 129.145 36.4185C129.145 33.7603 128.282 31.5968 126.554 29.9528L126.554 29.9523C124.822 28.3143 122.244 27.2336 118.843 26.6857C118.843 26.6857 118.842 26.6856 118.842 26.6856L112.471 25.6285L112.471 25.6284C110.75 25.3436 109.563 24.9266 108.87 24.4012L108.869 24.4C108.199 23.9005 107.861 23.1797 107.861 22.219C107.861 21.5099 108.096 20.9062 108.551 20.3879C109.008 19.8675 109.688 19.4522 110.593 19.1349C111.5 18.8203 112.559 18.6647 113.795 18.6647C116.738 18.6647 119.69 19.6047 122.636 21.4908C123.715 22.1838 125.16 21.9212 125.912 20.8732C125.912 20.873 125.912 20.8728 125.912 20.8726L127.129 19.194L115.121 47.455ZM109.508 39.9129L109.509 39.9135C111.299 40.6709 113.185 41.0498 115.181 41.0498C116.577 41.0498 117.777 40.8839 118.774 40.5582C119.771 40.233 120.52 39.7602 121.049 39.1586C121.572 38.5633 121.828 37.8714 121.828 37.0608C121.828 35.9742 121.442 35.1631 120.672 34.5833C119.879 33.9969 118.502 33.5109 116.484 33.1569C116.483 33.1569 116.483 33.1569 116.483 33.1568L109.776 32.001C106.883 31.5111 104.64 30.4864 103.097 28.8949C101.552 27.3005 100.781 25.239 100.781 22.7427C100.781 20.6129 101.327 18.7432 102.439 17.1548C103.548 15.5695 105.112 14.3555 107.13 13.5292C109.146 12.704 111.535 12.2853 114.29 12.2853C116.792 12.2853 119.293 12.7051 121.773 13.5536L109.508 39.9129ZM109.508 39.9129C108.226 39.3795 106.909 38.5913 105.546 37.5537M109.508 39.9129L105.546 37.5537M126.462 15.7307L126.463 15.7309C127.661 16.4622 127.943 18.0727 127.129 19.1938L126.462 15.7307ZM126.462 15.7307C125.031 14.8613 123.471 14.1324 121.773 13.5537L126.462 15.7307ZM105.546 37.5537C104.501 36.7518 103 36.9147 102.171 37.9519L105.546 37.5537Z" fill="#C0D8FF" stroke="#629EFF" stroke-width="0.5" stroke-miterlimit="10"/>
<path d="M38.1535 36.4254L38.2164 36.4673C39.1757 37.1059 39.593 38.4591 39.139 39.5207L39.1385 39.5216L39.1365 39.5264C38.7917 40.3232 38.4421 41.1311 38.0319 41.9006C38.0317 41.901 38.0315 41.9013 38.0313 41.9016L37.8107 41.784C36.6332 44.0172 35.2083 46.0824 33.4668 47.9203C31.4778 50.0152 29.1228 50.5586 26.4115 49.5705L38.1535 36.4254ZM38.1535 36.4254H38.1335M38.1535 36.4254H38.1335M38.1335 36.4254C35.4011 34.6006 33.7878 32.0916 33.548 28.6249C33.3161 25.2196 34.567 22.5735 36.8431 20.4554L36.8437 20.4548C37.9113 19.4546 37.8786 17.7914 36.7991 16.8343C35.806 15.9539 34.6317 15.2565 33.4265 14.8013L33.4253 14.8009C30.2499 13.6194 27.1471 13.8654 24.0526 15.1095C23.9466 15.1519 23.8442 15.193 23.745 15.2328C22.9624 15.5467 22.3851 15.7783 21.9108 15.9359C21.38 16.1123 20.997 16.1893 20.6226 16.1859C20.2471 16.1826 19.8616 16.0982 19.3248 15.9236C18.968 15.8076 18.5561 15.656 18.0444 15.4675C17.7801 15.3702 17.4892 15.2631 17.1655 15.146L17.1649 15.1458C15.8962 14.6905 14.51 14.2537 13.1434 14.1926L13.1432 14.1926C9.68467 14.0407 6.78632 15.4525 4.46826 17.9686L4.46812 17.9687C1.85136 20.8139 0.920035 24.2891 0.830051 28.0133L0.830045 28.0135C0.759992 31.0316 1.30055 33.9551 2.22745 36.8018L38.1335 36.4254Z" fill="#C0D8FF" stroke="#629EFF" stroke-width="0.5" stroke-miterlimit="10"/>
<path d="M28.9816 2.68252C26.4282 3.15226 24.0649 4.45936 22.4362 6.49982L22.4358 6.50021C20.8848 8.45139 19.9457 10.6512 20.0068 13.1539L20.2567 13.1478M28.9816 2.68252V2.9368C26.4987 3.4038 24.2093 4.67913 22.6315 6.65578C21.1077 8.57276 20.1973 10.717 20.2567 13.1478M28.9816 2.68252V2.64099H29.2316H29.2415L29.242 2.64736M28.9816 2.68252C29.0545 2.6691 29.1277 2.65636 29.2009 2.64431L29.2022 2.65237C29.212 2.65086 29.2218 2.64956 29.2316 2.64846C29.2349 2.64808 29.2382 2.64773 29.2415 2.64741C29.2417 2.64739 29.2418 2.64737 29.242 2.64736M20.2567 13.1478C20.2666 13.5727 20.3952 13.7802 20.8405 13.7209M20.2567 13.1478L20.0068 13.1536C20.0119 13.3739 20.0458 13.6148 20.2007 13.7845C20.3709 13.9709 20.6172 14.0027 20.8725 13.9689M20.8405 13.7209L20.8715 13.969C20.8718 13.969 20.8722 13.9689 20.8725 13.9689M20.8405 13.7209C21.0103 13.6997 21.1828 13.685 21.3559 13.6703C21.7477 13.6369 22.1422 13.6033 22.5128 13.4937C25.7089 12.5747 27.7869 10.4305 29.0535 7.43641C29.5977 6.14195 29.8649 4.79809 29.7956 3.37518M20.8405 13.7209L20.8735 13.9688C20.8732 13.9688 20.8728 13.9688 20.8725 13.9689M20.8725 13.9689C21.0388 13.9481 21.2007 13.9344 21.3684 13.9202C21.4785 13.9108 21.5911 13.9013 21.7091 13.8894C21.9959 13.8605 22.2934 13.8192 22.5827 13.7337C25.863 12.7903 27.9931 10.5846 29.2837 7.53381L29.2839 7.5333C29.8411 6.20816 30.1163 4.82778 30.0454 3.36493M29.242 2.64736L29.2619 2.89099H29.4816V2.90087H29.3892C29.6096 2.93905 29.7876 3.13427 29.7956 3.37518M29.242 2.64736C29.6646 2.60588 30.0303 2.94423 30.0454 3.36493M30.0454 3.36493C30.0454 3.36429 30.0454 3.36366 30.0453 3.36302L29.7956 3.37518M30.0454 3.36493C30.0454 3.36556 30.0455 3.3662 30.0455 3.36684L29.7956 3.37518" fill="#C0D8FF" stroke="#629EFF" stroke-width="0.5" stroke-miterlimit="10"/>
</svg>
