<svg width="130" height="52" viewBox="0 0 130 52" fill="none" xmlns="http://www.w3.org/2000/svg">
<path id="Vector" d="M50.1946 42.6992V13.3121C50.1946 12.1164 51.1643 11.1382 52.3715 11.1382H55.0234C56.2207 11.1382 57.2004 12.1066 57.2004 13.3121V42.6992C57.2004 43.8948 56.2306 44.8731 55.0234 44.8731H52.3715C51.1742 44.8731 50.1946 43.9047 50.1946 42.6992Z" fill="#629EFF" stroke="#629EFF" stroke-miterlimit="10"/>
<path id="Vector_2" d="M79.8604 45.3968C77.347 45.3968 75.0216 44.9521 72.8645 44.0727C70.7074 43.1933 68.8174 41.9482 67.1946 40.3672C65.5718 38.7763 64.2953 36.9285 63.3849 34.8238C62.4647 32.7191 62.0095 30.4463 62.0095 28.0057C62.0095 25.565 62.4647 23.2923 63.3849 21.1875C64.3052 19.0828 65.5718 17.235 67.1946 15.6441C68.8174 14.0532 70.7074 12.818 72.8645 11.9386C75.0216 11.0592 77.347 10.6145 79.8604 10.6145C82.3737 10.6145 84.709 11.0592 86.876 11.9386C89.043 12.818 90.9429 14.0631 92.5657 15.6441C94.1885 17.235 95.4551 19.0828 96.3555 21.1875C97.256 23.2923 97.7112 25.565 97.7112 28.0057C97.7112 30.4463 97.256 32.7191 96.3555 34.8238C95.4551 36.9285 94.1885 38.7763 92.5657 40.3672C90.9429 41.9581 89.043 43.1933 86.876 44.0727C84.709 44.9521 82.3638 45.3968 79.8604 45.3968ZM79.8604 38.9838C81.404 38.9838 82.819 38.7071 84.1054 38.1439C85.3917 37.5807 86.5198 36.8099 87.4796 35.8317C88.4493 34.8534 89.2014 33.6874 89.7456 32.3337C90.2898 30.9799 90.5669 29.5373 90.5669 27.9958C90.5669 26.4543 90.2898 24.9721 89.7456 23.6381C89.2014 22.3041 88.4394 21.148 87.4796 20.1698C86.5099 19.1915 85.3917 18.4208 84.1054 17.8575C82.819 17.2943 81.404 17.0176 79.8604 17.0176C78.3167 17.0176 76.9512 17.3042 75.6648 17.8575C74.3784 18.4208 73.2504 19.1915 72.2906 20.1698C71.3208 21.148 70.5688 22.3041 70.0246 23.6381C69.4804 24.9721 69.2033 26.4049 69.2033 27.9464C69.2033 29.4879 69.4804 30.9799 70.0246 32.3337C70.5688 33.6874 71.3307 34.8435 72.2906 35.8317C73.2603 36.8099 74.3784 37.5807 75.6648 38.1439C76.9512 38.7071 78.3464 38.9838 79.8604 38.9838Z" fill="#629EFF" stroke="#629EFF" stroke-miterlimit="10"/>
<path id="Vector_3" d="M114.602 45.3573C111.871 45.3573 109.199 44.8534 106.597 43.8356C104.697 43.0945 102.946 42.136 101.363 40.9403C100.383 40.2091 100.225 38.806 100.987 37.8574L102.293 36.227C103.035 35.2981 104.381 35.1499 105.321 35.8712C106.696 36.9186 108.032 37.719 109.338 38.2625C111.159 39.0333 113.078 39.4186 115.107 39.4186C116.522 39.4186 117.749 39.2506 118.778 38.9147C119.807 38.5787 120.599 38.0846 121.163 37.4424C121.727 36.8001 122.004 36.0491 122.004 35.1795C122.004 34.0234 121.588 33.1341 120.747 32.5017C119.906 31.8792 118.481 31.3851 116.453 31.0294L109.744 29.8733C106.884 29.3891 104.697 28.3812 103.203 26.8397C101.709 25.2982 100.957 23.3022 100.957 20.8615C100.957 18.7765 101.491 16.9583 102.57 15.4169C103.648 13.8754 105.172 12.6896 107.151 11.8793C109.13 11.0691 111.485 10.6541 114.216 10.6541C116.69 10.6541 119.164 11.0691 121.618 11.909C123.3 12.4821 124.844 13.2034 126.259 14.0631C127.327 14.7153 127.585 16.158 126.852 17.1659L125.635 18.8457C124.962 19.7844 123.666 20.0216 122.696 19.399C119.718 17.4919 116.72 16.5334 113.722 16.5334C112.465 16.5334 111.376 16.6915 110.436 17.0176C109.506 17.3437 108.784 17.7785 108.289 18.3417C107.794 18.905 107.537 19.567 107.537 20.3378C107.537 21.3654 107.903 22.1658 108.645 22.7192C109.387 23.2824 110.624 23.7073 112.356 23.9939L118.728 25.0512C122.103 25.5946 124.626 26.6618 126.308 28.2527C127.98 29.8436 128.822 31.9385 128.822 34.5372C128.822 36.721 128.238 38.6281 127.08 40.2487C125.922 41.8692 124.27 43.1241 122.132 44.0036C119.995 44.883 117.472 45.3277 114.582 45.3277L114.602 45.3573Z" fill="#629EFF" stroke="#629EFF" stroke-miterlimit="10"/>
<path id="Vector_4" d="M38.0039 34.7844C38.8648 35.3575 39.2408 36.5828 38.8351 37.5314C38.4888 38.3318 38.1425 39.1322 37.7368 39.893C36.5592 42.1262 35.1343 44.1914 33.3928 46.0293C31.4039 48.1242 29.0488 48.6676 26.3376 47.6795C25.3777 47.3238 24.4377 46.8791 23.4482 46.6024C21.2811 46.0096 19.1735 46.3159 17.1252 47.1854C16.2841 47.5412 15.4034 47.8574 14.5129 48.0748C12.2766 48.6281 10.5251 47.64 9.05075 46.0985C5.96347 42.8673 3.76675 39.0827 2.39132 34.8338C1.47108 32.0077 0.93674 29.1125 1.006 26.1283C1.09506 22.4426 2.01531 19.0335 4.57815 16.247C6.85403 13.7766 9.68404 12.4031 13.0583 12.5514C14.3842 12.6106 15.7399 13.0355 17.0064 13.4901C20.7765 14.8537 20.3213 14.9525 24.0716 13.4506C27.1193 12.2253 30.1571 11.9881 33.2642 13.1442C34.4417 13.5889 35.5895 14.2707 36.5592 15.1304C37.529 15.9901 37.5586 17.4821 36.5988 18.3813C34.2735 20.5454 32.9871 23.2627 33.2246 26.7508C33.472 30.3279 35.1541 32.9168 37.9841 34.7844H38.0039Z" fill="#629EFF" stroke="#629EFF" stroke-miterlimit="10"/>
<path id="Vector_5" d="M29.1576 1.00988C29.4445 0.960473 29.7117 1.18774 29.7216 1.48418C29.7908 2.9071 29.5237 4.25096 28.9794 5.54541C27.7129 8.53946 25.6349 10.6837 22.4388 11.6027C21.9044 11.7608 21.3206 11.7608 20.7665 11.8299C20.3212 11.8892 20.1926 11.6817 20.1827 11.2568C20.1233 8.82602 21.0337 6.68177 22.5575 4.76479C24.1902 2.71935 26.5848 1.4249 29.1675 1H29.1576V1.00988Z" fill="#629EFF" stroke="#629EFF" stroke-miterlimit="10"/>
<path id="Vector_6" d="M49.9446 15.5591V44.9462C49.9446 46.2909 51.0372 47.3701 52.3715 47.3701H55.0234C56.3691 47.3701 57.4504 46.2795 57.4504 44.9462V15.5591C57.4504 14.2145 56.3577 13.1353 55.0234 13.1353H52.3715C51.0258 13.1353 49.9446 14.2258 49.9446 15.5591Z" fill="#C0D8FF" stroke="#629EFF" stroke-width="0.5" stroke-miterlimit="10"/>
<path id="Vector_7" d="M67.0196 42.7927C68.6655 44.3962 70.5831 45.6596 72.7701 46.5512C74.9591 47.4436 77.3167 47.8937 79.8604 47.8937C82.394 47.8937 84.7713 47.4436 86.97 46.5513C89.1662 45.6601 91.0938 44.4072 92.7407 42.7927C94.3868 41.1789 95.6721 39.3039 96.5854 37.1691C97.4999 35.0316 97.9612 32.7252 97.9612 30.2526C97.9612 27.78 97.4999 25.4736 96.5854 23.3361C95.6721 21.2013 94.3868 19.3263 92.7407 17.7125C91.0945 16.1086 89.1667 14.8454 86.97 13.9539C84.7713 13.0616 82.4039 12.6115 79.8604 12.6115C77.3167 12.6115 74.9591 13.0616 72.7701 13.954C70.5837 14.8454 68.6661 16.0983 67.0196 17.7125C65.3734 19.3263 64.0887 21.2008 63.1559 23.3342C62.2208 25.4728 61.7595 27.78 61.7595 30.2526C61.7595 32.725 62.2208 35.0319 63.1557 37.1703C64.079 39.3049 65.374 41.1795 67.0196 42.7927ZM72.4681 22.5926L72.469 22.5918C73.4055 21.6373 74.5065 20.8845 75.7644 20.3337C77.0183 19.7944 78.3499 19.5146 79.8604 19.5146C81.3735 19.5146 82.7539 19.7856 84.0051 20.3335C85.2623 20.884 86.3541 21.6364 87.3016 22.5921C88.238 23.5466 88.982 24.6752 89.5141 25.9795C90.0451 27.2811 90.3169 28.7309 90.3169 30.2427C90.3169 31.7534 90.0455 33.1643 89.5136 34.4874C88.9809 35.8125 88.2466 36.9497 87.3021 37.9025L87.3012 37.9035C86.3645 38.8582 85.2633 39.611 84.0051 40.1618C82.7539 40.7097 81.3735 40.9808 79.8604 40.9808C78.3777 40.9808 77.017 40.71 75.7651 40.1618C74.508 39.6114 73.4164 38.859 72.469 37.9035C71.5322 36.9388 70.7885 35.8105 70.2565 34.4874C69.725 33.1653 69.4533 31.7051 69.4533 30.1933C69.4533 28.6826 69.7247 27.282 70.2561 25.9795C70.7886 24.6741 71.523 23.5461 72.4681 22.5926Z" fill="#C0D8FF" stroke="#629EFF" stroke-width="0.5" stroke-miterlimit="10"/>
<g id="Vector_8">
<path d="M22.4322 5.85883C24.0609 3.81837 26.4242 2.51127 28.9777 2.04152V2H29.2277H29.2376L29.2381 2.00636C29.6607 1.96489 30.0264 2.30324 30.0415 2.72393C30.1124 4.18679 29.8369 5.56768 29.2798 6.89282C27.9892 9.94365 25.859 12.1492 22.5788 13.0926C22.2895 13.1782 21.992 13.2196 21.7052 13.2484C21.5872 13.2603 21.4746 13.2699 21.3645 13.2792L21.3566 13.2798C21.1921 13.2939 21.0329 13.3074 20.8696 13.3277L20.8696 13.3278L20.8686 13.3278L20.8675 13.328L20.8675 13.328C20.6125 13.3617 20.3667 13.3297 20.1967 13.1434C20.0419 12.9738 20.008 12.7333 20.0028 12.5129C19.9417 10.0101 20.8812 7.81 22.4322 5.85883Z" fill="#C0D8FF"/>
<path d="M28.9777 2.04152C26.4242 2.51127 24.0609 3.81837 22.4322 5.85883C20.8812 7.81 19.9417 10.0101 20.0028 12.513M28.9777 2.04152V2.29581C26.4947 2.76281 24.2054 4.03814 22.6276 6.01479C21.1038 7.93177 20.1934 10.0761 20.2528 12.5069M28.9777 2.04152V2H29.2277H29.2376L29.2381 2.00636M28.9777 2.04152C29.0506 2.0281 29.1237 2.01537 29.197 2.00331L29.1983 2.01137C29.2081 2.00987 29.2179 2.00856 29.2277 2.00746C29.231 2.00709 29.2348 2.00668 29.2381 2.00636M20.0028 12.513L20.2528 12.5069M20.0028 12.513C20.008 12.7333 20.0419 12.9738 20.1967 13.1435C20.3669 13.33 20.6132 13.3617 20.8686 13.3278M20.2528 12.5069C20.2627 12.9318 20.3913 13.1392 20.8366 13.0799M29.2381 2.00636L29.258 2.25H29.4777V2.25988H29.3853C29.6057 2.29806 29.7836 2.49328 29.7917 2.73418M29.2381 2.00636C29.6607 1.96489 30.0264 2.30324 30.0415 2.72393M20.8366 13.0799L20.8675 13.328L20.8686 13.3278M20.8366 13.0799C21.0063 13.0587 21.1789 13.0441 21.352 13.0294C21.7438 12.996 22.1382 12.9624 22.5089 12.8526C25.705 11.9337 27.783 9.78945 29.0495 6.79541C29.5938 5.50096 29.8609 4.1571 29.7917 2.73418M20.8366 13.0799L20.8696 13.3278L20.8686 13.3278M20.8686 13.3278C21.0349 13.3071 21.1968 13.2935 21.3645 13.2792C21.4746 13.2699 21.5872 13.2603 21.7052 13.2484C21.992 13.2196 22.2895 13.1781 22.5788 13.0926C25.859 12.1492 27.9892 9.94365 29.2798 6.89282C29.8369 5.56768 30.1124 4.18679 30.0415 2.72393M29.7917 2.73418L30.0414 2.72203L30.0415 2.72393M29.7917 2.73418L30.0415 2.72584V2.72393" stroke="#629EFF" stroke-width="0.5" stroke-miterlimit="10"/>
</g>
<g id="Vector_9">
<mask id="path-10-outside-1_0_1" maskUnits="userSpaceOnUse" x="0" y="14" width="40" height="38" fill="black">
<rect fill="white" y="14" width="40" height="38"/>
<path d="M38.0039 37.3915C38.8648 37.9647 39.2408 39.1899 38.8351 40.1386C38.4888 40.9389 38.1425 41.7393 37.7368 42.5002C36.5592 44.7334 35.1343 46.7986 33.3928 48.6365C31.4039 50.7314 29.0488 51.2748 26.3376 50.2867C25.3777 49.931 24.4377 49.4863 23.4482 49.2096C21.2811 48.6167 19.1735 48.9231 17.1252 49.7926C16.2841 50.1484 15.4034 50.4646 14.5129 50.682C12.2766 51.2353 10.5251 50.2472 9.05075 48.7057C5.96347 45.4745 3.76675 41.6899 2.39132 37.441C1.47108 34.6149 0.936737 31.7197 1.006 28.7355C1.09506 25.0498 2.01531 21.6407 4.57815 18.8542C6.85403 16.3838 9.68404 15.0103 13.0583 15.1585C14.3842 15.2178 15.7399 15.6427 17.0064 16.0973C20.7765 17.4609 20.3213 17.5597 24.0716 16.0577C27.1193 14.8325 30.1571 14.5953 33.2642 15.7514C34.4417 16.1961 35.5895 16.8779 36.5592 17.7376C37.529 18.5972 37.5586 20.0893 36.5988 20.9885C34.2735 23.1525 32.9871 25.8699 33.2246 29.358C33.472 32.9351 35.1541 35.524 37.9841 37.3915H38.0039Z"/>
</mask>
<path d="M38.0039 37.3915C38.8648 37.9647 39.2408 39.1899 38.8351 40.1386C38.4888 40.9389 38.1425 41.7393 37.7368 42.5002C36.5592 44.7334 35.1343 46.7986 33.3928 48.6365C31.4039 50.7314 29.0488 51.2748 26.3376 50.2867C25.3777 49.931 24.4377 49.4863 23.4482 49.2096C21.2811 48.6167 19.1735 48.9231 17.1252 49.7926C16.2841 50.1484 15.4034 50.4646 14.5129 50.682C12.2766 51.2353 10.5251 50.2472 9.05075 48.7057C5.96347 45.4745 3.76675 41.6899 2.39132 37.441C1.47108 34.6149 0.936737 31.7197 1.006 28.7355C1.09506 25.0498 2.01531 21.6407 4.57815 18.8542C6.85403 16.3838 9.68404 15.0103 13.0583 15.1585C14.3842 15.2178 15.7399 15.6427 17.0064 16.0973C20.7765 17.4609 20.3213 17.5597 24.0716 16.0577C27.1193 14.8325 30.1571 14.5953 33.2642 15.7514C34.4417 16.1961 35.5895 16.8779 36.5592 17.7376C37.529 18.5972 37.5586 20.0893 36.5988 20.9885C34.2735 23.1525 32.9871 25.8699 33.2246 29.358C33.472 32.9351 35.1541 35.524 37.9841 37.3915H38.0039Z" fill="#C0D8FF"/>
<path d="M38.0039 37.3915C38.8648 37.9647 39.2408 39.1899 38.8351 40.1386C38.4888 40.9389 38.1425 41.7393 37.7368 42.5002C36.5592 44.7334 35.1343 46.7986 33.3928 48.6365C31.4039 50.7314 29.0488 51.2748 26.3376 50.2867C25.3777 49.931 24.4377 49.4863 23.4482 49.2096C21.2811 48.6167 19.1735 48.9231 17.1252 49.7926C16.2841 50.1484 15.4034 50.4646 14.5129 50.682C12.2766 51.2353 10.5251 50.2472 9.05075 48.7057C5.96347 45.4745 3.76675 41.6899 2.39132 37.441C1.47108 34.6149 0.936737 31.7197 1.006 28.7355C1.09506 25.0498 2.01531 21.6407 4.57815 18.8542C6.85403 16.3838 9.68404 15.0103 13.0583 15.1585C14.3842 15.2178 15.7399 15.6427 17.0064 16.0973C20.7765 17.4609 20.3213 17.5597 24.0716 16.0577C27.1193 14.8325 30.1571 14.5953 33.2642 15.7514C34.4417 16.1961 35.5895 16.8779 36.5592 17.7376C37.529 18.5972 37.5586 20.0893 36.5988 20.9885C34.2735 23.1525 32.9871 25.8699 33.2246 29.358C33.472 32.9351 35.1541 35.524 37.9841 37.3915H38.0039Z" stroke="#629EFF" stroke-miterlimit="10" mask="url(#path-10-outside-1_0_1)"/>
</g>
<g id="Vector_10">
<mask id="path-11-outside-2_0_1" maskUnits="userSpaceOnUse" x="100" y="11" width="30" height="37" fill="black">
<rect fill="white" x="100" y="11" width="30" height="37"/>
<path d="M115.096 46.7033C112.365 46.7033 109.693 46.1993 107.091 45.1815C105.191 44.4404 103.44 43.4819 101.856 42.2863C100.877 41.5551 100.718 40.1519 101.48 39.2033L102.787 37.5729C103.529 36.6441 104.874 36.4958 105.814 37.2172C107.19 38.2646 108.526 39.065 109.832 39.6085C111.653 40.3792 113.572 40.7646 115.601 40.7646C117.016 40.7646 118.243 40.5966 119.272 40.2606C120.301 39.9247 121.093 39.4306 121.657 38.7883C122.221 38.146 122.498 37.395 122.498 36.5255C122.498 35.3694 122.082 34.48 121.241 33.8476C120.4 33.2251 118.975 32.731 116.946 32.3753L110.238 31.2192C107.378 30.735 105.191 29.7271 103.697 28.1856C102.203 26.6441 101.451 24.6481 101.451 22.2074C101.451 20.1225 101.985 18.3043 103.064 16.7628C104.142 15.2213 105.666 14.0356 107.645 13.2253C109.624 12.415 111.979 12 114.71 12C117.184 12 119.658 12.415 122.112 13.2549C123.794 13.828 125.338 14.5494 126.753 15.4091C127.821 16.0612 128.079 17.5039 127.346 18.5118L126.129 20.1916C125.456 21.1304 124.16 21.3675 123.19 20.745C120.212 18.8379 117.214 17.8794 114.215 17.8794C112.959 17.8794 111.87 18.0375 110.93 18.3636C110 18.6897 109.278 19.1244 108.783 19.6877C108.288 20.2509 108.031 20.913 108.031 21.6837C108.031 22.7114 108.397 23.5118 109.139 24.0651C109.881 24.6283 111.118 25.0532 112.85 25.3398L119.222 26.3971C122.597 26.9406 125.12 28.0078 126.802 29.5987C128.474 31.1896 129.315 33.2844 129.315 35.8832C129.315 38.067 128.732 39.9741 127.574 41.5946C126.416 43.2151 124.764 44.4701 122.626 45.3495C120.489 46.2289 117.966 46.6736 115.076 46.6736L115.096 46.7033Z"/>
</mask>
<path d="M115.096 46.7033C112.365 46.7033 109.693 46.1993 107.091 45.1815C105.191 44.4404 103.44 43.4819 101.856 42.2863C100.877 41.5551 100.718 40.1519 101.48 39.2033L102.787 37.5729C103.529 36.6441 104.874 36.4958 105.814 37.2172C107.19 38.2646 108.526 39.065 109.832 39.6085C111.653 40.3792 113.572 40.7646 115.601 40.7646C117.016 40.7646 118.243 40.5966 119.272 40.2606C120.301 39.9247 121.093 39.4306 121.657 38.7883C122.221 38.146 122.498 37.395 122.498 36.5255C122.498 35.3694 122.082 34.48 121.241 33.8476C120.4 33.2251 118.975 32.731 116.946 32.3753L110.238 31.2192C107.378 30.735 105.191 29.7271 103.697 28.1856C102.203 26.6441 101.451 24.6481 101.451 22.2074C101.451 20.1225 101.985 18.3043 103.064 16.7628C104.142 15.2213 105.666 14.0356 107.645 13.2253C109.624 12.415 111.979 12 114.71 12C117.184 12 119.658 12.415 122.112 13.2549C123.794 13.828 125.338 14.5494 126.753 15.4091C127.821 16.0612 128.079 17.5039 127.346 18.5118L126.129 20.1916C125.456 21.1304 124.16 21.3675 123.19 20.745C120.212 18.8379 117.214 17.8794 114.215 17.8794C112.959 17.8794 111.87 18.0375 110.93 18.3636C110 18.6897 109.278 19.1244 108.783 19.6877C108.288 20.2509 108.031 20.913 108.031 21.6837C108.031 22.7114 108.397 23.5118 109.139 24.0651C109.881 24.6283 111.118 25.0532 112.85 25.3398L119.222 26.3971C122.597 26.9406 125.12 28.0078 126.802 29.5987C128.474 31.1896 129.315 33.2844 129.315 35.8832C129.315 38.067 128.732 39.9741 127.574 41.5946C126.416 43.2151 124.764 44.4701 122.626 45.3495C120.489 46.2289 117.966 46.6736 115.076 46.6736L115.096 46.7033Z" fill="#C0D8FF"/>
<path d="M115.096 46.7033C112.365 46.7033 109.693 46.1993 107.091 45.1815C105.191 44.4404 103.44 43.4819 101.856 42.2863C100.877 41.5551 100.718 40.1519 101.48 39.2033L102.787 37.5729C103.529 36.6441 104.874 36.4958 105.814 37.2172C107.19 38.2646 108.526 39.065 109.832 39.6085C111.653 40.3792 113.572 40.7646 115.601 40.7646C117.016 40.7646 118.243 40.5966 119.272 40.2606C120.301 39.9247 121.093 39.4306 121.657 38.7883C122.221 38.146 122.498 37.395 122.498 36.5255C122.498 35.3694 122.082 34.48 121.241 33.8476C120.4 33.2251 118.975 32.731 116.946 32.3753L110.238 31.2192C107.378 30.735 105.191 29.7271 103.697 28.1856C102.203 26.6441 101.451 24.6481 101.451 22.2074C101.451 20.1225 101.985 18.3043 103.064 16.7628C104.142 15.2213 105.666 14.0356 107.645 13.2253C109.624 12.415 111.979 12 114.71 12C117.184 12 119.658 12.415 122.112 13.2549C123.794 13.828 125.338 14.5494 126.753 15.4091C127.821 16.0612 128.079 17.5039 127.346 18.5118L126.129 20.1916C125.456 21.1304 124.16 21.3675 123.19 20.745C120.212 18.8379 117.214 17.8794 114.215 17.8794C112.959 17.8794 111.87 18.0375 110.93 18.3636C110 18.6897 109.278 19.1244 108.783 19.6877C108.288 20.2509 108.031 20.913 108.031 21.6837C108.031 22.7114 108.397 23.5118 109.139 24.0651C109.881 24.6283 111.118 25.0532 112.85 25.3398L119.222 26.3971C122.597 26.9406 125.12 28.0078 126.802 29.5987C128.474 31.1896 129.315 33.2844 129.315 35.8832C129.315 38.067 128.732 39.9741 127.574 41.5946C126.416 43.2151 124.764 44.4701 122.626 45.3495C120.489 46.2289 117.966 46.6736 115.076 46.6736L115.096 46.7033Z" stroke="#629EFF" stroke-miterlimit="10" mask="url(#path-11-outside-2_0_1)"/>
</g>
</svg>
