<svg width="193" height="104" viewBox="0 0 193 104" fill="none" xmlns="http://www.w3.org/2000/svg">
<g id="Frame 11">
<g id="Frame 6">
<g id="ABOUT US">
<g id="Frame 3">
<g id="Frame 1">
<path id="Rectangle 26" d="M-479 -1805H1437V4531H-479V-1805Z" fill="white"/>
</g>
</g>
<g id="Group 62">
<g id="CLOUD" opacity="0.6">
<g id="Group" filter="url(#filter0_d_0_1)">
<path id="Vector" d="M58.9667 15.2291H-78.5051C-91.2214 15.2291 -101.53 25.5224 -101.53 38.2199C-101.53 50.9174 -91.2214 61.2107 -78.5051 61.2107H58.9667C71.683 61.2107 81.9917 50.9174 81.9917 38.2199C81.9917 25.5224 71.683 15.2291 58.9667 15.2291Z" fill="white"/>
<path id="Vector_2" d="M-19.3868 -21.5143H-39.8248C-56.6955 -21.5143 -70.3719 -7.8553 -70.3719 8.99392V29.4058C-70.3719 46.255 -56.6955 59.914 -39.8248 59.914H-19.3868C-2.51607 59.914 11.1604 46.255 11.1604 29.4058V8.99392C11.1604 -7.8553 -2.51607 -21.5143 -19.3868 -21.5143Z" fill="white"/>
<path id="Vector_3" d="M16.554 -3.73364H-3.88398C-20.7547 -3.73364 -34.4312 9.92534 -34.4312 26.7746V30.6071C-34.4312 47.4564 -20.7547 61.1153 -3.88398 61.1153H16.554C33.4247 61.1153 47.1012 47.4564 47.1012 30.6071V26.7746C47.1012 9.92534 33.4247 -3.73364 16.554 -3.73364Z" fill="white"/>
</g>
</g>
<g id="ASTIAN DAPP/NFT/GAMECENTER" filter="url(#filter1_d_0_1)">
<g id="astian dapp">
<path id="Vector_4" d="M604.494 24.0649H510.302C503.959 24.0649 498.131 20.4286 495.489 14.6678C489.354 1.28846 475.837 -8 460.144 -8H21.8879C0.415438 -7.99012 -16.9901 9.38127 -16.9901 30.8337V87.3747C-16.9901 108.817 0.415438 126.198 21.8879 126.198H460.144C475.837 126.198 489.354 116.91 495.489 103.531C498.131 97.7698 503.959 94.1335 510.302 94.1335H604.494C615.705 94.1335 624.789 85.0624 624.789 73.8669V44.3513C624.789 33.1558 615.705 24.0847 604.494 24.0847V24.0649Z" fill="#F2F7FF" stroke="#629EFF" stroke-width="0.75" stroke-miterlimit="10"/>
<g id="Frame 13">
<path id="Vector_5" d="M166.634 19.5333H26.8157C12.6069 19.5333 1.08838 31.0358 1.08838 45.2248V77.8826C1.08838 92.0716 12.6069 103.574 26.8157 103.574H166.634C180.843 103.574 192.361 92.0716 192.361 77.8826V45.2248C192.361 31.0358 180.843 19.5333 166.634 19.5333Z" fill="#B2CFFF" stroke="#629EFF" stroke-width="0.75" stroke-miterlimit="10"/>
<path id="Vector_6" d="M166.634 0.823975H26.8157C12.6069 0.823975 1.08838 12.3264 1.08838 26.5154V59.1733C1.08838 73.3623 12.6069 84.8648 26.8157 84.8648H166.634C180.843 84.8648 192.361 73.3623 192.361 59.1733V26.5154C192.361 12.3264 180.843 0.823975 166.634 0.823975Z" fill="white" stroke="#629EFF" stroke-width="0.75" stroke-miterlimit="10"/>
<g id="Frame 5">
<g id="Group_2">
<path id="Vector_7" d="M81.2687 55.3432V25.9561C81.2687 24.7605 82.2384 23.7822 83.4456 23.7822H86.0975C87.2948 23.7822 88.2744 24.7506 88.2744 25.9561V55.3432C88.2744 56.5389 87.3047 57.5171 86.0975 57.5171H83.4456C82.2483 57.5171 81.2687 56.5487 81.2687 55.3432Z" fill="#629EFF" stroke="#629EFF" stroke-miterlimit="10"/>
<path id="Vector_8" d="M110.934 58.0409C108.421 58.0409 106.096 57.5962 103.938 56.7167C101.781 55.8373 99.8914 54.5923 98.2686 53.0112C96.6458 51.4204 95.3693 49.5725 94.4589 47.4678C93.5387 45.3631 93.0835 43.0904 93.0835 40.6497C93.0835 38.209 93.5387 35.9363 94.4589 33.8316C95.3792 31.7269 96.6458 29.879 98.2686 28.2881C99.8914 26.6973 101.781 25.4621 103.938 24.5826C106.096 23.7032 108.421 23.2585 110.934 23.2585C113.448 23.2585 115.783 23.7032 117.95 24.5826C120.117 25.4621 122.017 26.7071 123.64 28.2881C125.262 29.879 126.529 31.7269 127.43 33.8316C128.33 35.9363 128.785 38.209 128.785 40.6497C128.785 43.0904 128.33 45.3631 127.43 47.4678C126.529 49.5725 125.262 51.4204 123.64 53.0112C122.017 54.6021 120.117 55.8373 117.95 56.7167C115.783 57.5962 113.438 58.0409 110.934 58.0409ZM110.934 51.6279C112.478 51.6279 113.893 51.3512 115.179 50.7879C116.466 50.2247 117.594 49.454 118.554 48.4757C119.523 47.4975 120.275 46.3315 120.82 44.9777C121.364 43.624 121.641 42.1813 121.641 40.6398C121.641 39.0983 121.364 37.6161 120.82 36.2821C120.275 34.9482 119.513 33.7921 118.554 32.8138C117.584 31.8355 116.466 31.0648 115.179 30.5016C113.893 29.9383 112.478 29.6617 110.934 29.6617C109.391 29.6617 108.025 29.9482 106.739 30.5016C105.452 31.0648 104.324 31.8355 103.365 32.8138C102.395 33.7921 101.643 34.9482 101.099 36.2821C100.554 37.6161 100.277 39.0489 100.277 40.5904C100.277 42.1319 100.554 43.624 101.099 44.9777C101.643 46.3315 102.405 47.4876 103.365 48.4757C104.334 49.454 105.452 50.2247 106.739 50.7879C108.025 51.3512 109.42 51.6279 110.934 51.6279Z" fill="#629EFF" stroke="#629EFF" stroke-miterlimit="10"/>
<path id="Vector_9" d="M145.676 58.0014C142.945 58.0014 140.273 57.4974 137.671 56.4796C135.771 55.7385 134.02 54.78 132.436 53.5844C131.457 52.8532 131.298 51.45 132.06 50.5014L133.367 48.871C134.109 47.9422 135.454 47.7939 136.394 48.5153C137.77 49.5627 139.106 50.3631 140.412 50.9066C142.233 51.6773 144.152 52.0627 146.181 52.0627C147.596 52.0627 148.823 51.8947 149.852 51.5587C150.881 51.2228 151.673 50.7287 152.237 50.0864C152.801 49.4441 153.078 48.6931 153.078 47.8236C153.078 46.6675 152.662 45.7781 151.821 45.1457C150.98 44.5232 149.555 44.0291 147.527 43.6734L140.818 42.5173C137.958 42.0331 135.771 41.0252 134.277 39.4837C132.783 37.9422 132.031 35.9462 132.031 33.5055C132.031 31.4206 132.565 29.6024 133.644 28.0609C134.722 26.5194 136.246 25.3336 138.225 24.5234C140.204 23.7131 142.559 23.2981 145.29 23.2981C147.764 23.2981 150.238 23.7131 152.692 24.553C154.374 25.1261 155.918 25.8475 157.333 26.7072C158.401 27.3593 158.659 28.802 157.926 29.8099L156.709 31.4897C156.036 32.4285 154.74 32.6656 153.77 32.0431C150.792 30.136 147.794 29.1775 144.795 29.1775C143.539 29.1775 142.45 29.3356 141.51 29.6617C140.58 29.9878 139.858 30.4225 139.363 30.9858C138.868 31.549 138.611 32.2111 138.611 32.9818C138.611 34.0095 138.977 34.8099 139.719 35.3632C140.461 35.9264 141.698 36.3513 143.43 36.6379L149.802 37.6952C153.177 38.2387 155.7 39.3059 157.382 40.8968C159.054 42.4876 159.895 44.5825 159.895 47.1813C159.895 49.3651 159.312 51.2722 158.154 52.8927C156.996 54.5132 155.344 55.7682 153.206 56.6476C151.069 57.527 148.546 57.9717 145.656 57.9717L145.676 58.0014Z" fill="#629EFF" stroke="#629EFF" stroke-miterlimit="10"/>
<path id="Vector_10" d="M69.0779 47.4284C69.9388 48.0015 70.3148 49.2268 69.9091 50.1754C69.5628 50.9758 69.2164 51.7762 68.8107 52.5371C67.6332 54.7702 66.2083 56.8354 64.4668 58.6734C62.4778 60.7682 60.1228 61.3117 57.4115 60.3236C56.4517 59.9678 55.5117 59.5232 54.5222 59.2465C52.3551 58.6536 50.2475 58.9599 48.1992 59.8295C47.3581 60.1852 46.4774 60.5014 45.5868 60.7188C43.3505 61.2722 41.5991 60.284 40.1247 58.7425C37.0374 55.5113 34.8407 51.7268 33.4653 47.4778C32.5451 44.6518 32.0107 41.7565 32.08 38.7724C32.169 35.0866 33.0893 31.6776 35.6521 28.891C37.928 26.4207 40.758 25.0472 44.1323 25.1954C45.4582 25.2547 46.8138 25.6796 48.0804 26.1341C51.8505 27.4978 51.3953 27.5966 55.1455 26.0946C58.1933 24.8693 61.2311 24.6322 64.3381 25.7883C65.5157 26.2329 66.6635 26.9148 67.6332 27.7744C68.6029 28.6341 68.6326 30.1262 67.6728 31.0254C65.3474 33.1894 64.0611 35.9068 64.2985 39.3949C64.5459 42.9719 66.2281 45.5608 69.0581 47.4284H69.0779Z" fill="#629EFF" stroke="#629EFF" stroke-miterlimit="10"/>
<path id="Vector_11" d="M60.2316 13.6539C60.5186 13.6045 60.7857 13.8318 60.7956 14.1282C60.8649 15.5511 60.5977 16.895 60.0535 18.1895C58.7869 21.1835 56.7089 23.3278 53.5128 24.2467C52.9785 24.4048 52.3946 24.4048 51.8405 24.474C51.3952 24.5333 51.2666 24.3258 51.2567 23.9009C51.1973 21.4701 52.1077 19.3258 53.6315 17.4088C55.2642 15.3634 57.6589 14.0689 60.2415 13.644H60.2316V13.6539Z" fill="#629EFF" stroke="#629EFF" stroke-miterlimit="10"/>
<g id="Group 69">
<g id="Vector_12">
<mask id="path-15-outside-1_0_1" maskUnits="userSpaceOnUse" x="80.2687" y="25.0293" width="9" height="36" fill="black">
<rect fill="white" x="80.2687" y="25.0293" width="9" height="36"/>
<path d="M81.2687 57.5903V28.2032C81.2687 27.0076 82.2384 26.0293 83.4456 26.0293H86.0975C87.2948 26.0293 88.2744 26.9977 88.2744 28.2032V57.5903C88.2744 58.7859 87.3047 59.7642 86.0975 59.7642H83.4456C82.2483 59.7642 81.2687 58.7958 81.2687 57.5903Z"/>
</mask>
<path d="M81.2687 57.5903V28.2032C81.2687 27.0076 82.2384 26.0293 83.4456 26.0293H86.0975C87.2948 26.0293 88.2744 26.9977 88.2744 28.2032V57.5903C88.2744 58.7859 87.3047 59.7642 86.0975 59.7642H83.4456C82.2483 59.7642 81.2687 58.7958 81.2687 57.5903Z" fill="#C0D8FF"/>
<path d="M81.2687 57.5903V28.2032C81.2687 27.0076 82.2384 26.0293 83.4456 26.0293H86.0975C87.2948 26.0293 88.2744 26.9977 88.2744 28.2032V57.5903C88.2744 58.7859 87.3047 59.7642 86.0975 59.7642H83.4456C82.2483 59.7642 81.2687 58.7958 81.2687 57.5903Z" stroke="#629EFF" stroke-miterlimit="10" mask="url(#path-15-outside-1_0_1)"/>
</g>
<g id="Vector_13">
<mask id="path-16-outside-2_0_1" maskUnits="userSpaceOnUse" x="92.0835" y="24.5055" width="38" height="37" fill="black">
<rect fill="white" x="92.0835" y="24.5055" width="38" height="37"/>
<path d="M110.934 60.2878C108.421 60.2878 106.096 59.8431 103.938 58.9637C101.781 58.0843 99.8914 56.8392 98.2686 55.2582C96.6458 53.6673 95.3693 51.8195 94.4589 49.7148C93.5387 47.61 93.0835 45.3373 93.0835 42.8966C93.0835 40.456 93.5387 38.1832 94.4589 36.0785C95.3792 33.9738 96.6458 32.126 98.2686 30.5351C99.8914 28.9442 101.781 27.709 103.938 26.8296C106.096 25.9502 108.421 25.5055 110.934 25.5055C113.448 25.5055 115.783 25.9502 117.95 26.8296C120.117 27.709 122.017 28.9541 123.64 30.5351C125.262 32.126 126.529 33.9738 127.43 36.0785C128.33 38.1832 128.785 40.456 128.785 42.8966C128.785 45.3373 128.33 47.61 127.43 49.7148C126.529 51.8195 125.262 53.6673 123.64 55.2582C122.017 56.8491 120.117 58.0843 117.95 58.9637C115.783 59.8431 113.438 60.2878 110.934 60.2878ZM110.934 53.8748C112.478 53.8748 113.893 53.5981 115.179 53.0349C116.466 52.4717 117.594 51.7009 118.554 50.7227C119.523 49.7444 120.275 48.5784 120.82 47.2247C121.364 45.8709 121.641 44.4283 121.641 42.8868C121.641 41.3453 121.364 39.8631 120.82 38.5291C120.275 37.1951 119.513 36.039 118.554 35.0607C117.584 34.0825 116.466 33.3118 115.179 32.7485C113.893 32.1853 112.478 31.9086 110.934 31.9086C109.391 31.9086 108.025 32.1952 106.739 32.7485C105.452 33.3118 104.324 34.0825 103.365 35.0607C102.395 36.039 101.643 37.1951 101.099 38.5291C100.554 39.8631 100.277 41.2959 100.277 42.8374C100.277 44.3788 100.554 45.8709 101.099 47.2247C101.643 48.5784 102.405 49.7345 103.365 50.7227C104.334 51.7009 105.452 52.4717 106.739 53.0349C108.025 53.5981 109.42 53.8748 110.934 53.8748Z"/>
</mask>
<path d="M110.934 60.2878C108.421 60.2878 106.096 59.8431 103.938 58.9637C101.781 58.0843 99.8914 56.8392 98.2686 55.2582C96.6458 53.6673 95.3693 51.8195 94.4589 49.7148C93.5387 47.61 93.0835 45.3373 93.0835 42.8966C93.0835 40.456 93.5387 38.1832 94.4589 36.0785C95.3792 33.9738 96.6458 32.126 98.2686 30.5351C99.8914 28.9442 101.781 27.709 103.938 26.8296C106.096 25.9502 108.421 25.5055 110.934 25.5055C113.448 25.5055 115.783 25.9502 117.95 26.8296C120.117 27.709 122.017 28.9541 123.64 30.5351C125.262 32.126 126.529 33.9738 127.43 36.0785C128.33 38.1832 128.785 40.456 128.785 42.8966C128.785 45.3373 128.33 47.61 127.43 49.7148C126.529 51.8195 125.262 53.6673 123.64 55.2582C122.017 56.8491 120.117 58.0843 117.95 58.9637C115.783 59.8431 113.438 60.2878 110.934 60.2878ZM110.934 53.8748C112.478 53.8748 113.893 53.5981 115.179 53.0349C116.466 52.4717 117.594 51.7009 118.554 50.7227C119.523 49.7444 120.275 48.5784 120.82 47.2247C121.364 45.8709 121.641 44.4283 121.641 42.8868C121.641 41.3453 121.364 39.8631 120.82 38.5291C120.275 37.1951 119.513 36.039 118.554 35.0607C117.584 34.0825 116.466 33.3118 115.179 32.7485C113.893 32.1853 112.478 31.9086 110.934 31.9086C109.391 31.9086 108.025 32.1952 106.739 32.7485C105.452 33.3118 104.324 34.0825 103.365 35.0607C102.395 36.039 101.643 37.1951 101.099 38.5291C100.554 39.8631 100.277 41.2959 100.277 42.8374C100.277 44.3788 100.554 45.8709 101.099 47.2247C101.643 48.5784 102.405 49.7345 103.365 50.7227C104.334 51.7009 105.452 52.4717 106.739 53.0349C108.025 53.5981 109.42 53.8748 110.934 53.8748Z" fill="#C0D8FF"/>
<path d="M110.934 60.2878C108.421 60.2878 106.096 59.8431 103.938 58.9637C101.781 58.0843 99.8914 56.8392 98.2686 55.2582C96.6458 53.6673 95.3693 51.8195 94.4589 49.7148C93.5387 47.61 93.0835 45.3373 93.0835 42.8966C93.0835 40.456 93.5387 38.1832 94.4589 36.0785C95.3792 33.9738 96.6458 32.126 98.2686 30.5351C99.8914 28.9442 101.781 27.709 103.938 26.8296C106.096 25.9502 108.421 25.5055 110.934 25.5055C113.448 25.5055 115.783 25.9502 117.95 26.8296C120.117 27.709 122.017 28.9541 123.64 30.5351C125.262 32.126 126.529 33.9738 127.43 36.0785C128.33 38.1832 128.785 40.456 128.785 42.8966C128.785 45.3373 128.33 47.61 127.43 49.7148C126.529 51.8195 125.262 53.6673 123.64 55.2582C122.017 56.8491 120.117 58.0843 117.95 58.9637C115.783 59.8431 113.438 60.2878 110.934 60.2878ZM110.934 53.8748C112.478 53.8748 113.893 53.5981 115.179 53.0349C116.466 52.4717 117.594 51.7009 118.554 50.7227C119.523 49.7444 120.275 48.5784 120.82 47.2247C121.364 45.8709 121.641 44.4283 121.641 42.8868C121.641 41.3453 121.364 39.8631 120.82 38.5291C120.275 37.1951 119.513 36.039 118.554 35.0607C117.584 34.0825 116.466 33.3118 115.179 32.7485C113.893 32.1853 112.478 31.9086 110.934 31.9086C109.391 31.9086 108.025 32.1952 106.739 32.7485C105.452 33.3118 104.324 34.0825 103.365 35.0607C102.395 36.039 101.643 37.1951 101.099 38.5291C100.554 39.8631 100.277 41.2959 100.277 42.8374C100.277 44.3788 100.554 45.8709 101.099 47.2247C101.643 48.5784 102.405 49.7345 103.365 50.7227C104.334 51.7009 105.452 52.4717 106.739 53.0349C108.025 53.5981 109.42 53.8748 110.934 53.8748Z" stroke="#629EFF" stroke-miterlimit="10" mask="url(#path-16-outside-2_0_1)"/>
</g>
<g id="Vector_14">
<mask id="path-17-outside-3_0_1" maskUnits="userSpaceOnUse" x="130.58" y="24.5353" width="30" height="37" fill="black">
<rect fill="white" x="130.58" y="24.5353" width="30" height="37"/>
<path d="M145.676 60.2385C142.945 60.2385 140.273 59.7346 137.671 58.7168C135.771 57.9757 134.02 57.0172 132.436 55.8216C131.457 55.0904 131.298 53.6872 132.06 52.7386L133.367 51.1082C134.109 50.1793 135.454 50.0311 136.394 50.7525C137.77 51.7999 139.106 52.6003 140.412 53.1437C142.233 53.9145 144.152 54.2998 146.181 54.2998C147.596 54.2998 148.823 54.1319 149.852 53.7959C150.881 53.4599 151.673 52.9659 152.237 52.3236C152.801 51.6813 153.078 50.9303 153.078 50.0608C153.078 48.9046 152.662 48.0153 151.821 47.3829C150.98 46.7604 149.555 46.2663 147.527 45.9106L140.818 44.7545C137.958 44.2703 135.771 43.2624 134.277 41.7209C132.783 40.1794 132.031 38.1834 132.031 35.7427C132.031 33.6577 132.565 31.8396 133.644 30.2981C134.722 28.7566 136.246 27.5708 138.225 26.7606C140.204 25.9503 142.559 25.5353 145.29 25.5353C147.764 25.5353 150.238 25.9503 152.692 26.7902C154.374 27.3633 155.918 28.0847 157.333 28.9443C158.401 29.5965 158.659 31.0392 157.926 32.0471L156.709 33.7269C156.036 34.6656 154.74 34.9028 153.77 34.2803C150.792 32.3732 147.794 31.4147 144.795 31.4147C143.539 31.4147 142.45 31.5728 141.51 31.8989C140.58 32.2249 139.858 32.6597 139.363 33.223C138.868 33.7862 138.611 34.4482 138.611 35.219C138.611 36.2466 138.977 37.047 139.719 37.6004C140.461 38.1636 141.698 38.5885 143.43 38.8751L149.802 39.9324C153.177 40.4759 155.7 41.543 157.382 43.1339C159.054 44.7248 159.895 46.8197 159.895 49.4185C159.895 51.6022 159.312 53.5093 158.154 55.1299C156.996 56.7504 155.344 58.0053 153.206 58.8848C151.069 59.7642 148.546 60.2089 145.656 60.2089L145.676 60.2385Z"/>
</mask>
<path d="M145.676 60.2385C142.945 60.2385 140.273 59.7346 137.671 58.7168C135.771 57.9757 134.02 57.0172 132.436 55.8216C131.457 55.0904 131.298 53.6872 132.06 52.7386L133.367 51.1082C134.109 50.1793 135.454 50.0311 136.394 50.7525C137.77 51.7999 139.106 52.6003 140.412 53.1437C142.233 53.9145 144.152 54.2998 146.181 54.2998C147.596 54.2998 148.823 54.1319 149.852 53.7959C150.881 53.4599 151.673 52.9659 152.237 52.3236C152.801 51.6813 153.078 50.9303 153.078 50.0608C153.078 48.9046 152.662 48.0153 151.821 47.3829C150.98 46.7604 149.555 46.2663 147.527 45.9106L140.818 44.7545C137.958 44.2703 135.771 43.2624 134.277 41.7209C132.783 40.1794 132.031 38.1834 132.031 35.7427C132.031 33.6577 132.565 31.8396 133.644 30.2981C134.722 28.7566 136.246 27.5708 138.225 26.7606C140.204 25.9503 142.559 25.5353 145.29 25.5353C147.764 25.5353 150.238 25.9503 152.692 26.7902C154.374 27.3633 155.918 28.0847 157.333 28.9443C158.401 29.5965 158.659 31.0392 157.926 32.0471L156.709 33.7269C156.036 34.6656 154.74 34.9028 153.77 34.2803C150.792 32.3732 147.794 31.4147 144.795 31.4147C143.539 31.4147 142.45 31.5728 141.51 31.8989C140.58 32.2249 139.858 32.6597 139.363 33.223C138.868 33.7862 138.611 34.4482 138.611 35.219C138.611 36.2466 138.977 37.047 139.719 37.6004C140.461 38.1636 141.698 38.5885 143.43 38.8751L149.802 39.9324C153.177 40.4759 155.7 41.543 157.382 43.1339C159.054 44.7248 159.895 46.8197 159.895 49.4185C159.895 51.6022 159.312 53.5093 158.154 55.1299C156.996 56.7504 155.344 58.0053 153.206 58.8848C151.069 59.7642 148.546 60.2089 145.656 60.2089L145.676 60.2385Z" fill="#C0D8FF"/>
<path d="M145.676 60.2385C142.945 60.2385 140.273 59.7346 137.671 58.7168C135.771 57.9757 134.02 57.0172 132.436 55.8216C131.457 55.0904 131.298 53.6872 132.06 52.7386L133.367 51.1082C134.109 50.1793 135.454 50.0311 136.394 50.7525C137.77 51.7999 139.106 52.6003 140.412 53.1437C142.233 53.9145 144.152 54.2998 146.181 54.2998C147.596 54.2998 148.823 54.1319 149.852 53.7959C150.881 53.4599 151.673 52.9659 152.237 52.3236C152.801 51.6813 153.078 50.9303 153.078 50.0608C153.078 48.9046 152.662 48.0153 151.821 47.3829C150.98 46.7604 149.555 46.2663 147.527 45.9106L140.818 44.7545C137.958 44.2703 135.771 43.2624 134.277 41.7209C132.783 40.1794 132.031 38.1834 132.031 35.7427C132.031 33.6577 132.565 31.8396 133.644 30.2981C134.722 28.7566 136.246 27.5708 138.225 26.7606C140.204 25.9503 142.559 25.5353 145.29 25.5353C147.764 25.5353 150.238 25.9503 152.692 26.7902C154.374 27.3633 155.918 28.0847 157.333 28.9443C158.401 29.5965 158.659 31.0392 157.926 32.0471L156.709 33.7269C156.036 34.6656 154.74 34.9028 153.77 34.2803C150.792 32.3732 147.794 31.4147 144.795 31.4147C143.539 31.4147 142.45 31.5728 141.51 31.8989C140.58 32.2249 139.858 32.6597 139.363 33.223C138.868 33.7862 138.611 34.4482 138.611 35.219C138.611 36.2466 138.977 37.047 139.719 37.6004C140.461 38.1636 141.698 38.5885 143.43 38.8751L149.802 39.9324C153.177 40.4759 155.7 41.543 157.382 43.1339C159.054 44.7248 159.895 46.8197 159.895 49.4185C159.895 51.6022 159.312 53.5093 158.154 55.1299C156.996 56.7504 155.344 58.0053 153.206 58.8848C151.069 59.7642 148.546 60.2089 145.656 60.2089L145.676 60.2385Z" stroke="#629EFF" stroke-miterlimit="10" mask="url(#path-17-outside-3_0_1)"/>
</g>
<g id="Vector_15">
<mask id="path-18-outside-4_0_1" maskUnits="userSpaceOnUse" x="31.074" y="26.2838" width="40" height="38" fill="black">
<rect fill="white" x="31.074" y="26.2838" width="40" height="38"/>
<path d="M69.0779 49.6754C69.9388 50.2485 70.3148 51.4738 69.9091 52.4224C69.5628 53.2228 69.2164 54.0231 68.8107 54.784C67.6332 57.0172 66.2083 59.0824 64.4668 60.9203C62.4778 63.0152 60.1228 63.5586 57.4115 62.5705C56.4517 62.2148 55.5117 61.7701 54.5222 61.4934C52.3551 60.9006 50.2475 61.2069 48.1992 62.0764C47.3581 62.4322 46.4774 62.7484 45.5868 62.9658C43.3505 63.5191 41.5991 62.531 40.1247 60.9895C37.0374 57.7583 34.8407 53.9737 33.4653 49.7248C32.5451 46.8987 32.0107 44.0035 32.08 41.0193C32.169 37.3336 33.0893 33.9245 35.6521 31.138C37.928 28.6676 40.758 27.2941 44.1323 27.4424C45.4582 27.5016 46.8138 27.9265 48.0804 28.3811C51.8505 29.7447 51.3953 29.8435 55.1455 28.3416C58.1933 27.1163 61.2311 26.8791 64.3381 28.0352C65.5157 28.4799 66.6635 29.1617 67.6332 30.0214C68.6029 30.8811 68.6326 32.3731 67.6728 33.2723C65.3474 35.4364 64.0611 38.1537 64.2985 41.6418C64.5459 45.2189 66.2281 47.8078 69.0581 49.6754H69.0779Z"/>
</mask>
<path d="M69.0779 49.6754C69.9388 50.2485 70.3148 51.4738 69.9091 52.4224C69.5628 53.2228 69.2164 54.0231 68.8107 54.784C67.6332 57.0172 66.2083 59.0824 64.4668 60.9203C62.4778 63.0152 60.1228 63.5586 57.4115 62.5705C56.4517 62.2148 55.5117 61.7701 54.5222 61.4934C52.3551 60.9006 50.2475 61.2069 48.1992 62.0764C47.3581 62.4322 46.4774 62.7484 45.5868 62.9658C43.3505 63.5191 41.5991 62.531 40.1247 60.9895C37.0374 57.7583 34.8407 53.9737 33.4653 49.7248C32.5451 46.8987 32.0107 44.0035 32.08 41.0193C32.169 37.3336 33.0893 33.9245 35.6521 31.138C37.928 28.6676 40.758 27.2941 44.1323 27.4424C45.4582 27.5016 46.8138 27.9265 48.0804 28.3811C51.8505 29.7447 51.3953 29.8435 55.1455 28.3416C58.1933 27.1163 61.2311 26.8791 64.3381 28.0352C65.5157 28.4799 66.6635 29.1617 67.6332 30.0214C68.6029 30.8811 68.6326 32.3731 67.6728 33.2723C65.3474 35.4364 64.0611 38.1537 64.2985 41.6418C64.5459 45.2189 66.2281 47.8078 69.0581 49.6754H69.0779Z" fill="#C0D8FF"/>
<path d="M69.0779 49.6754C69.9388 50.2485 70.3148 51.4738 69.9091 52.4224C69.5628 53.2228 69.2164 54.0231 68.8107 54.784C67.6332 57.0172 66.2083 59.0824 64.4668 60.9203C62.4778 63.0152 60.1228 63.5586 57.4115 62.5705C56.4517 62.2148 55.5117 61.7701 54.5222 61.4934C52.3551 60.9006 50.2475 61.2069 48.1992 62.0764C47.3581 62.4322 46.4774 62.7484 45.5868 62.9658C43.3505 63.5191 41.5991 62.531 40.1247 60.9895C37.0374 57.7583 34.8407 53.9737 33.4653 49.7248C32.5451 46.8987 32.0107 44.0035 32.08 41.0193C32.169 37.3336 33.0893 33.9245 35.6521 31.138C37.928 28.6676 40.758 27.2941 44.1323 27.4424C45.4582 27.5016 46.8138 27.9265 48.0804 28.3811C51.8505 29.7447 51.3953 29.8435 55.1455 28.3416C58.1933 27.1163 61.2311 26.8791 64.3381 28.0352C65.5157 28.4799 66.6635 29.1617 67.6332 30.0214C68.6029 30.8811 68.6326 32.3731 67.6728 33.2723C65.3474 35.4364 64.0611 38.1537 64.2985 41.6418C64.5459 45.2189 66.2281 47.8078 69.0581 49.6754H69.0779Z" stroke="#629EFF" stroke-miterlimit="10" mask="url(#path-18-outside-4_0_1)"/>
</g>
<g id="Vector_16">
<mask id="path-19-outside-5_0_1" maskUnits="userSpaceOnUse" x="50.254" y="14.891" width="12" height="13" fill="black">
<rect fill="white" x="50.254" y="14.891" width="12" height="13"/>
<path d="M60.2316 15.9009C60.5186 15.8515 60.7857 16.0787 60.7956 16.3752C60.8649 17.7981 60.5977 19.142 60.0535 20.4364C58.7869 23.4305 56.7089 25.5747 53.5128 26.4937C52.9785 26.6518 52.3946 26.6518 51.8405 26.7209C51.3952 26.7802 51.2666 26.5727 51.2567 26.1478C51.1973 23.717 52.1077 21.5728 53.6315 19.6558C55.2642 17.6103 57.6589 16.3159 60.2415 15.891H60.2316V15.9009Z"/>
</mask>
<path d="M60.2316 15.9009C60.5186 15.8515 60.7857 16.0787 60.7956 16.3752C60.8649 17.7981 60.5977 19.142 60.0535 20.4364C58.7869 23.4305 56.7089 25.5747 53.5128 26.4937C52.9785 26.6518 52.3946 26.6518 51.8405 26.7209C51.3952 26.7802 51.2666 26.5727 51.2567 26.1478C51.1973 23.717 52.1077 21.5728 53.6315 19.6558C55.2642 17.6103 57.6589 16.3159 60.2415 15.891H60.2316V15.9009Z" fill="#C0D8FF"/>
<path d="M60.2316 15.9009C60.5186 15.8515 60.7857 16.0787 60.7956 16.3752C60.8649 17.7981 60.5977 19.142 60.0535 20.4364C58.7869 23.4305 56.7089 25.5747 53.5128 26.4937C52.9785 26.6518 52.3946 26.6518 51.8405 26.7209C51.3952 26.7802 51.2666 26.5727 51.2567 26.1478C51.1973 23.717 52.1077 21.5728 53.6315 19.6558C55.2642 17.6103 57.6589 16.3159 60.2415 15.891H60.2316V15.9009Z" stroke="#629EFF" stroke-miterlimit="10" mask="url(#path-19-outside-5_0_1)"/>
</g>
</g>
</g>
<g id="Group_3">
<path id="Vector_17" d="M81.2687 55.3432V25.9561C81.2687 24.7605 82.2384 23.7822 83.4456 23.7822H86.0975C87.2948 23.7822 88.2744 24.7506 88.2744 25.9561V55.3432C88.2744 56.5389 87.3047 57.5171 86.0975 57.5171H83.4456C82.2483 57.5171 81.2687 56.5487 81.2687 55.3432Z" fill="#629EFF" stroke="#629EFF" stroke-miterlimit="10"/>
<path id="Vector_18" d="M110.934 58.0409C108.421 58.0409 106.096 57.5962 103.938 56.7167C101.781 55.8373 99.8914 54.5923 98.2686 53.0112C96.6458 51.4204 95.3693 49.5725 94.4589 47.4678C93.5387 45.3631 93.0835 43.0904 93.0835 40.6497C93.0835 38.209 93.5387 35.9363 94.4589 33.8316C95.3792 31.7269 96.6458 29.879 98.2686 28.2881C99.8914 26.6973 101.781 25.4621 103.938 24.5826C106.096 23.7032 108.421 23.2585 110.934 23.2585C113.448 23.2585 115.783 23.7032 117.95 24.5826C120.117 25.4621 122.017 26.7071 123.64 28.2881C125.262 29.879 126.529 31.7269 127.43 33.8316C128.33 35.9363 128.785 38.209 128.785 40.6497C128.785 43.0904 128.33 45.3631 127.43 47.4678C126.529 49.5725 125.262 51.4204 123.64 53.0112C122.017 54.6021 120.117 55.8373 117.95 56.7167C115.783 57.5962 113.438 58.0409 110.934 58.0409ZM110.934 51.6279C112.478 51.6279 113.893 51.3512 115.179 50.7879C116.466 50.2247 117.594 49.454 118.554 48.4757C119.523 47.4975 120.275 46.3315 120.82 44.9777C121.364 43.624 121.641 42.1813 121.641 40.6398C121.641 39.0983 121.364 37.6161 120.82 36.2821C120.275 34.9482 119.513 33.7921 118.554 32.8138C117.584 31.8355 116.466 31.0648 115.179 30.5016C113.893 29.9383 112.478 29.6617 110.934 29.6617C109.391 29.6617 108.025 29.9482 106.739 30.5016C105.452 31.0648 104.324 31.8355 103.365 32.8138C102.395 33.7921 101.643 34.9482 101.099 36.2821C100.554 37.6161 100.277 39.0489 100.277 40.5904C100.277 42.1319 100.554 43.624 101.099 44.9777C101.643 46.3315 102.405 47.4876 103.365 48.4757C104.334 49.454 105.452 50.2247 106.739 50.7879C108.025 51.3512 109.42 51.6279 110.934 51.6279Z" fill="#629EFF" stroke="#629EFF" stroke-miterlimit="10"/>
<path id="Vector_19" d="M145.676 58.0014C142.945 58.0014 140.273 57.4974 137.671 56.4796C135.771 55.7385 134.02 54.78 132.436 53.5844C131.457 52.8532 131.298 51.45 132.06 50.5014L133.367 48.871C134.109 47.9422 135.454 47.7939 136.394 48.5153C137.77 49.5627 139.106 50.3631 140.412 50.9066C142.233 51.6773 144.152 52.0627 146.181 52.0627C147.596 52.0627 148.823 51.8947 149.852 51.5587C150.881 51.2228 151.673 50.7287 152.237 50.0864C152.801 49.4441 153.078 48.6931 153.078 47.8236C153.078 46.6675 152.662 45.7781 151.821 45.1457C150.98 44.5232 149.555 44.0291 147.527 43.6734L140.818 42.5173C137.958 42.0331 135.771 41.0252 134.277 39.4837C132.783 37.9422 132.031 35.9462 132.031 33.5055C132.031 31.4206 132.565 29.6024 133.644 28.0609C134.722 26.5194 136.246 25.3336 138.225 24.5234C140.204 23.7131 142.559 23.2981 145.29 23.2981C147.764 23.2981 150.238 23.7131 152.692 24.553C154.374 25.1261 155.918 25.8475 157.333 26.7072C158.401 27.3593 158.659 28.802 157.926 29.8099L156.709 31.4897C156.036 32.4285 154.74 32.6656 153.77 32.0431C150.792 30.136 147.794 29.1775 144.795 29.1775C143.539 29.1775 142.45 29.3356 141.51 29.6617C140.58 29.9878 139.858 30.4225 139.363 30.9858C138.868 31.549 138.611 32.2111 138.611 32.9818C138.611 34.0095 138.977 34.8099 139.719 35.3632C140.461 35.9264 141.698 36.3513 143.43 36.6379L149.802 37.6952C153.177 38.2387 155.7 39.3059 157.382 40.8968C159.054 42.4877 159.895 44.5825 159.895 47.1813C159.895 49.3651 159.312 51.2722 158.154 52.8927C156.996 54.5132 155.344 55.7682 153.206 56.6476C151.069 57.527 148.546 57.9717 145.656 57.9717L145.676 58.0014Z" fill="#629EFF" stroke="#629EFF" stroke-miterlimit="10"/>
<path id="Vector_20" d="M69.0779 47.4284C69.9388 48.0015 70.3148 49.2268 69.9091 50.1754C69.5628 50.9758 69.2164 51.7762 68.8107 52.5371C67.6332 54.7702 66.2083 56.8354 64.4668 58.6734C62.4778 60.7682 60.1228 61.3117 57.4115 60.3236C56.4517 59.9678 55.5117 59.5232 54.5222 59.2465C52.3551 58.6536 50.2475 58.9599 48.1992 59.8295C47.3581 60.1852 46.4774 60.5014 45.5868 60.7188C43.3505 61.2722 41.5991 60.284 40.1247 58.7425C37.0374 55.5113 34.8407 51.7268 33.4653 47.4778C32.5451 44.6518 32.0107 41.7565 32.08 38.7724C32.169 35.0866 33.0893 31.6776 35.6521 28.891C37.928 26.4207 40.758 25.0472 44.1323 25.1954C45.4582 25.2547 46.8138 25.6796 48.0804 26.1341C51.8505 27.4978 51.3953 27.5966 55.1455 26.0946C58.1933 24.8693 61.2311 24.6322 64.3381 25.7883C65.5157 26.2329 66.6635 26.9148 67.6332 27.7744C68.6029 28.6341 68.6326 30.1262 67.6728 31.0254C65.3474 33.1894 64.0611 35.9068 64.2986 39.3949C64.5459 42.9719 66.2281 45.5608 69.0581 47.4284H69.0779Z" fill="#629EFF" stroke="#629EFF" stroke-miterlimit="10"/>
<path id="Vector_21" d="M60.2316 13.6539C60.5186 13.6045 60.7857 13.8318 60.7956 14.1282C60.8649 15.5511 60.5977 16.895 60.0535 18.1895C58.7869 21.1835 56.7089 23.3278 53.5128 24.2467C52.9785 24.4048 52.3946 24.4048 51.8405 24.474C51.3952 24.5333 51.2666 24.3258 51.2567 23.9009C51.1973 21.4701 52.1077 19.3258 53.6315 17.4088C55.2642 15.3634 57.6589 14.0689 60.2415 13.644H60.2316V13.6539Z" fill="#629EFF" stroke="#629EFF" stroke-miterlimit="10"/>
<g id="Group 69_2">
<g id="Vector_22">
<mask id="path-25-outside-6_0_1" maskUnits="userSpaceOnUse" x="80.2687" y="25.0293" width="9" height="36" fill="black">
<rect fill="white" x="80.2687" y="25.0293" width="9" height="36"/>
<path d="M81.2687 57.5903V28.2032C81.2687 27.0076 82.2384 26.0293 83.4456 26.0293H86.0975C87.2948 26.0293 88.2744 26.9977 88.2744 28.2032V57.5903C88.2744 58.7859 87.3047 59.7642 86.0975 59.7642H83.4456C82.2483 59.7642 81.2687 58.7958 81.2687 57.5903Z"/>
</mask>
<path d="M81.2687 57.5903V28.2032C81.2687 27.0076 82.2384 26.0293 83.4456 26.0293H86.0975C87.2948 26.0293 88.2744 26.9977 88.2744 28.2032V57.5903C88.2744 58.7859 87.3047 59.7642 86.0975 59.7642H83.4456C82.2483 59.7642 81.2687 58.7958 81.2687 57.5903Z" fill="#C0D8FF"/>
<path d="M81.2687 57.5903V28.2032C81.2687 27.0076 82.2384 26.0293 83.4456 26.0293H86.0975C87.2948 26.0293 88.2744 26.9977 88.2744 28.2032V57.5903C88.2744 58.7859 87.3047 59.7642 86.0975 59.7642H83.4456C82.2483 59.7642 81.2687 58.7958 81.2687 57.5903Z" stroke="#629EFF" stroke-miterlimit="10" mask="url(#path-25-outside-6_0_1)"/>
</g>
<g id="Vector_23">
<mask id="path-26-outside-7_0_1" maskUnits="userSpaceOnUse" x="92.0835" y="24.5055" width="38" height="37" fill="black">
<rect fill="white" x="92.0835" y="24.5055" width="38" height="37"/>
<path d="M110.934 60.2878C108.421 60.2878 106.096 59.8431 103.938 58.9637C101.781 58.0843 99.8914 56.8392 98.2686 55.2582C96.6458 53.6673 95.3693 51.8195 94.4589 49.7148C93.5387 47.61 93.0835 45.3373 93.0835 42.8966C93.0835 40.456 93.5387 38.1832 94.4589 36.0785C95.3792 33.9738 96.6458 32.126 98.2686 30.5351C99.8914 28.9442 101.781 27.709 103.938 26.8296C106.096 25.9502 108.421 25.5055 110.934 25.5055C113.448 25.5055 115.783 25.9502 117.95 26.8296C120.117 27.709 122.017 28.9541 123.64 30.5351C125.262 32.126 126.529 33.9738 127.43 36.0785C128.33 38.1832 128.785 40.456 128.785 42.8966C128.785 45.3373 128.33 47.61 127.43 49.7148C126.529 51.8195 125.262 53.6673 123.64 55.2582C122.017 56.8491 120.117 58.0843 117.95 58.9637C115.783 59.8431 113.438 60.2878 110.934 60.2878ZM110.934 53.8748C112.478 53.8748 113.893 53.5981 115.179 53.0349C116.466 52.4717 117.594 51.7009 118.554 50.7227C119.523 49.7444 120.275 48.5784 120.82 47.2247C121.364 45.8709 121.641 44.4283 121.641 42.8868C121.641 41.3453 121.364 39.8631 120.82 38.5291C120.275 37.1951 119.513 36.039 118.554 35.0607C117.584 34.0825 116.466 33.3118 115.179 32.7485C113.893 32.1853 112.478 31.9086 110.934 31.9086C109.391 31.9086 108.025 32.1952 106.739 32.7485C105.452 33.3118 104.324 34.0825 103.365 35.0607C102.395 36.039 101.643 37.1951 101.099 38.5291C100.554 39.8631 100.277 41.2959 100.277 42.8374C100.277 44.3788 100.554 45.8709 101.099 47.2247C101.643 48.5784 102.405 49.7345 103.365 50.7227C104.334 51.7009 105.452 52.4717 106.739 53.0349C108.025 53.5981 109.42 53.8748 110.934 53.8748Z"/>
</mask>
<path d="M110.934 60.2878C108.421 60.2878 106.096 59.8431 103.938 58.9637C101.781 58.0843 99.8914 56.8392 98.2686 55.2582C96.6458 53.6673 95.3693 51.8195 94.4589 49.7148C93.5387 47.61 93.0835 45.3373 93.0835 42.8966C93.0835 40.456 93.5387 38.1832 94.4589 36.0785C95.3792 33.9738 96.6458 32.126 98.2686 30.5351C99.8914 28.9442 101.781 27.709 103.938 26.8296C106.096 25.9502 108.421 25.5055 110.934 25.5055C113.448 25.5055 115.783 25.9502 117.95 26.8296C120.117 27.709 122.017 28.9541 123.64 30.5351C125.262 32.126 126.529 33.9738 127.43 36.0785C128.33 38.1832 128.785 40.456 128.785 42.8966C128.785 45.3373 128.33 47.61 127.43 49.7148C126.529 51.8195 125.262 53.6673 123.64 55.2582C122.017 56.8491 120.117 58.0843 117.95 58.9637C115.783 59.8431 113.438 60.2878 110.934 60.2878ZM110.934 53.8748C112.478 53.8748 113.893 53.5981 115.179 53.0349C116.466 52.4717 117.594 51.7009 118.554 50.7227C119.523 49.7444 120.275 48.5784 120.82 47.2247C121.364 45.8709 121.641 44.4283 121.641 42.8868C121.641 41.3453 121.364 39.8631 120.82 38.5291C120.275 37.1951 119.513 36.039 118.554 35.0607C117.584 34.0825 116.466 33.3118 115.179 32.7485C113.893 32.1853 112.478 31.9086 110.934 31.9086C109.391 31.9086 108.025 32.1952 106.739 32.7485C105.452 33.3118 104.324 34.0825 103.365 35.0607C102.395 36.039 101.643 37.1951 101.099 38.5291C100.554 39.8631 100.277 41.2959 100.277 42.8374C100.277 44.3788 100.554 45.8709 101.099 47.2247C101.643 48.5784 102.405 49.7345 103.365 50.7227C104.334 51.7009 105.452 52.4717 106.739 53.0349C108.025 53.5981 109.42 53.8748 110.934 53.8748Z" fill="#C0D8FF"/>
<path d="M110.934 60.2878C108.421 60.2878 106.096 59.8431 103.938 58.9637C101.781 58.0843 99.8914 56.8392 98.2686 55.2582C96.6458 53.6673 95.3693 51.8195 94.4589 49.7148C93.5387 47.61 93.0835 45.3373 93.0835 42.8966C93.0835 40.456 93.5387 38.1832 94.4589 36.0785C95.3792 33.9738 96.6458 32.126 98.2686 30.5351C99.8914 28.9442 101.781 27.709 103.938 26.8296C106.096 25.9502 108.421 25.5055 110.934 25.5055C113.448 25.5055 115.783 25.9502 117.95 26.8296C120.117 27.709 122.017 28.9541 123.64 30.5351C125.262 32.126 126.529 33.9738 127.43 36.0785C128.33 38.1832 128.785 40.456 128.785 42.8966C128.785 45.3373 128.33 47.61 127.43 49.7148C126.529 51.8195 125.262 53.6673 123.64 55.2582C122.017 56.8491 120.117 58.0843 117.95 58.9637C115.783 59.8431 113.438 60.2878 110.934 60.2878ZM110.934 53.8748C112.478 53.8748 113.893 53.5981 115.179 53.0349C116.466 52.4717 117.594 51.7009 118.554 50.7227C119.523 49.7444 120.275 48.5784 120.82 47.2247C121.364 45.8709 121.641 44.4283 121.641 42.8868C121.641 41.3453 121.364 39.8631 120.82 38.5291C120.275 37.1951 119.513 36.039 118.554 35.0607C117.584 34.0825 116.466 33.3118 115.179 32.7485C113.893 32.1853 112.478 31.9086 110.934 31.9086C109.391 31.9086 108.025 32.1952 106.739 32.7485C105.452 33.3118 104.324 34.0825 103.365 35.0607C102.395 36.039 101.643 37.1951 101.099 38.5291C100.554 39.8631 100.277 41.2959 100.277 42.8374C100.277 44.3788 100.554 45.8709 101.099 47.2247C101.643 48.5784 102.405 49.7345 103.365 50.7227C104.334 51.7009 105.452 52.4717 106.739 53.0349C108.025 53.5981 109.42 53.8748 110.934 53.8748Z" stroke="#629EFF" stroke-miterlimit="10" mask="url(#path-26-outside-7_0_1)"/>
</g>
<g id="Vector_24">
<mask id="path-27-outside-8_0_1" maskUnits="userSpaceOnUse" x="130.58" y="24.5353" width="30" height="37" fill="black">
<rect fill="white" x="130.58" y="24.5353" width="30" height="37"/>
<path d="M145.676 60.2385C142.945 60.2385 140.273 59.7346 137.671 58.7168C135.771 57.9757 134.02 57.0172 132.436 55.8216C131.457 55.0904 131.298 53.6872 132.06 52.7386L133.367 51.1082C134.109 50.1793 135.454 50.0311 136.394 50.7525C137.77 51.7999 139.106 52.6003 140.412 53.1437C142.233 53.9145 144.152 54.2998 146.181 54.2998C147.596 54.2998 148.823 54.1319 149.852 53.7959C150.881 53.4599 151.673 52.9659 152.237 52.3236C152.801 51.6813 153.078 50.9303 153.078 50.0608C153.078 48.9046 152.662 48.0153 151.821 47.3829C150.98 46.7604 149.555 46.2663 147.527 45.9106L140.818 44.7545C137.958 44.2703 135.771 43.2624 134.277 41.7209C132.783 40.1794 132.031 38.1834 132.031 35.7427C132.031 33.6577 132.565 31.8396 133.644 30.2981C134.722 28.7566 136.246 27.5708 138.225 26.7606C140.204 25.9503 142.559 25.5353 145.29 25.5353C147.764 25.5353 150.238 25.9503 152.692 26.7902C154.374 27.3633 155.918 28.0847 157.333 28.9443C158.401 29.5965 158.659 31.0392 157.926 32.0471L156.709 33.7269C156.036 34.6656 154.74 34.9028 153.77 34.2803C150.792 32.3732 147.794 31.4147 144.795 31.4147C143.539 31.4147 142.45 31.5728 141.51 31.8989C140.58 32.2249 139.858 32.6597 139.363 33.223C138.868 33.7862 138.611 34.4482 138.611 35.219C138.611 36.2466 138.977 37.047 139.719 37.6004C140.461 38.1636 141.698 38.5885 143.43 38.8751L149.802 39.9324C153.177 40.4759 155.7 41.543 157.382 43.1339C159.054 44.7248 159.895 46.8197 159.895 49.4185C159.895 51.6022 159.312 53.5093 158.154 55.1299C156.996 56.7504 155.344 58.0053 153.206 58.8848C151.069 59.7642 148.546 60.2089 145.656 60.2089L145.676 60.2385Z"/>
</mask>
<path d="M145.676 60.2385C142.945 60.2385 140.273 59.7346 137.671 58.7168C135.771 57.9757 134.02 57.0172 132.436 55.8216C131.457 55.0904 131.298 53.6872 132.06 52.7386L133.367 51.1082C134.109 50.1793 135.454 50.0311 136.394 50.7525C137.77 51.7999 139.106 52.6003 140.412 53.1437C142.233 53.9145 144.152 54.2998 146.181 54.2998C147.596 54.2998 148.823 54.1319 149.852 53.7959C150.881 53.4599 151.673 52.9659 152.237 52.3236C152.801 51.6813 153.078 50.9303 153.078 50.0608C153.078 48.9046 152.662 48.0153 151.821 47.3829C150.98 46.7604 149.555 46.2663 147.527 45.9106L140.818 44.7545C137.958 44.2703 135.771 43.2624 134.277 41.7209C132.783 40.1794 132.031 38.1834 132.031 35.7427C132.031 33.6577 132.565 31.8396 133.644 30.2981C134.722 28.7566 136.246 27.5708 138.225 26.7606C140.204 25.9503 142.559 25.5353 145.29 25.5353C147.764 25.5353 150.238 25.9503 152.692 26.7902C154.374 27.3633 155.918 28.0847 157.333 28.9443C158.401 29.5965 158.659 31.0392 157.926 32.0471L156.709 33.7269C156.036 34.6656 154.74 34.9028 153.77 34.2803C150.792 32.3732 147.794 31.4147 144.795 31.4147C143.539 31.4147 142.45 31.5728 141.51 31.8989C140.58 32.2249 139.858 32.6597 139.363 33.223C138.868 33.7862 138.611 34.4482 138.611 35.219C138.611 36.2466 138.977 37.047 139.719 37.6004C140.461 38.1636 141.698 38.5885 143.43 38.8751L149.802 39.9324C153.177 40.4759 155.7 41.543 157.382 43.1339C159.054 44.7248 159.895 46.8197 159.895 49.4185C159.895 51.6022 159.312 53.5093 158.154 55.1299C156.996 56.7504 155.344 58.0053 153.206 58.8848C151.069 59.7642 148.546 60.2089 145.656 60.2089L145.676 60.2385Z" fill="#C0D8FF"/>
<path d="M145.676 60.2385C142.945 60.2385 140.273 59.7346 137.671 58.7168C135.771 57.9757 134.02 57.0172 132.436 55.8216C131.457 55.0904 131.298 53.6872 132.06 52.7386L133.367 51.1082C134.109 50.1793 135.454 50.0311 136.394 50.7525C137.77 51.7999 139.106 52.6003 140.412 53.1437C142.233 53.9145 144.152 54.2998 146.181 54.2998C147.596 54.2998 148.823 54.1319 149.852 53.7959C150.881 53.4599 151.673 52.9659 152.237 52.3236C152.801 51.6813 153.078 50.9303 153.078 50.0608C153.078 48.9046 152.662 48.0153 151.821 47.3829C150.98 46.7604 149.555 46.2663 147.527 45.9106L140.818 44.7545C137.958 44.2703 135.771 43.2624 134.277 41.7209C132.783 40.1794 132.031 38.1834 132.031 35.7427C132.031 33.6577 132.565 31.8396 133.644 30.2981C134.722 28.7566 136.246 27.5708 138.225 26.7606C140.204 25.9503 142.559 25.5353 145.29 25.5353C147.764 25.5353 150.238 25.9503 152.692 26.7902C154.374 27.3633 155.918 28.0847 157.333 28.9443C158.401 29.5965 158.659 31.0392 157.926 32.0471L156.709 33.7269C156.036 34.6656 154.74 34.9028 153.77 34.2803C150.792 32.3732 147.794 31.4147 144.795 31.4147C143.539 31.4147 142.45 31.5728 141.51 31.8989C140.58 32.2249 139.858 32.6597 139.363 33.223C138.868 33.7862 138.611 34.4482 138.611 35.219C138.611 36.2466 138.977 37.047 139.719 37.6004C140.461 38.1636 141.698 38.5885 143.43 38.8751L149.802 39.9324C153.177 40.4759 155.7 41.543 157.382 43.1339C159.054 44.7248 159.895 46.8197 159.895 49.4185C159.895 51.6022 159.312 53.5093 158.154 55.1299C156.996 56.7504 155.344 58.0053 153.206 58.8848C151.069 59.7642 148.546 60.2089 145.656 60.2089L145.676 60.2385Z" stroke="#629EFF" stroke-miterlimit="10" mask="url(#path-27-outside-8_0_1)"/>
</g>
<g id="Vector_25">
<mask id="path-28-outside-9_0_1" maskUnits="userSpaceOnUse" x="31.074" y="26.2838" width="40" height="38" fill="black">
<rect fill="white" x="31.074" y="26.2838" width="40" height="38"/>
<path d="M69.0779 49.6754C69.9388 50.2485 70.3148 51.4738 69.9091 52.4224C69.5628 53.2228 69.2164 54.0231 68.8107 54.784C67.6332 57.0172 66.2083 59.0824 64.4668 60.9203C62.4778 63.0152 60.1228 63.5586 57.4115 62.5705C56.4517 62.2148 55.5117 61.7701 54.5222 61.4934C52.3551 60.9006 50.2475 61.2069 48.1992 62.0764C47.3581 62.4322 46.4774 62.7484 45.5868 62.9658C43.3505 63.5191 41.5991 62.531 40.1247 60.9895C37.0374 57.7583 34.8407 53.9737 33.4653 49.7248C32.5451 46.8987 32.0107 44.0035 32.08 41.0193C32.169 37.3336 33.0893 33.9245 35.6521 31.138C37.928 28.6676 40.758 27.2941 44.1323 27.4424C45.4582 27.5016 46.8138 27.9265 48.0804 28.3811C51.8505 29.7447 51.3953 29.8435 55.1455 28.3416C58.1933 27.1163 61.2311 26.8791 64.3381 28.0352C65.5157 28.4799 66.6635 29.1617 67.6332 30.0214C68.6029 30.8811 68.6326 32.3731 67.6728 33.2723C65.3474 35.4364 64.0611 38.1537 64.2986 41.6418C64.5459 45.2189 66.2281 47.8078 69.0581 49.6754H69.0779Z"/>
</mask>
<path d="M69.0779 49.6754C69.9388 50.2485 70.3148 51.4738 69.9091 52.4224C69.5628 53.2228 69.2164 54.0231 68.8107 54.784C67.6332 57.0172 66.2083 59.0824 64.4668 60.9203C62.4778 63.0152 60.1228 63.5586 57.4115 62.5705C56.4517 62.2148 55.5117 61.7701 54.5222 61.4934C52.3551 60.9006 50.2475 61.2069 48.1992 62.0764C47.3581 62.4322 46.4774 62.7484 45.5868 62.9658C43.3505 63.5191 41.5991 62.531 40.1247 60.9895C37.0374 57.7583 34.8407 53.9737 33.4653 49.7248C32.5451 46.8987 32.0107 44.0035 32.08 41.0193C32.169 37.3336 33.0893 33.9245 35.6521 31.138C37.928 28.6676 40.758 27.2941 44.1323 27.4424C45.4582 27.5016 46.8138 27.9265 48.0804 28.3811C51.8505 29.7447 51.3953 29.8435 55.1455 28.3416C58.1933 27.1163 61.2311 26.8791 64.3381 28.0352C65.5157 28.4799 66.6635 29.1617 67.6332 30.0214C68.6029 30.8811 68.6326 32.3731 67.6728 33.2723C65.3474 35.4364 64.0611 38.1537 64.2986 41.6418C64.5459 45.2189 66.2281 47.8078 69.0581 49.6754H69.0779Z" fill="#C0D8FF"/>
<path d="M69.0779 49.6754C69.9388 50.2485 70.3148 51.4738 69.9091 52.4224C69.5628 53.2228 69.2164 54.0231 68.8107 54.784C67.6332 57.0172 66.2083 59.0824 64.4668 60.9203C62.4778 63.0152 60.1228 63.5586 57.4115 62.5705C56.4517 62.2148 55.5117 61.7701 54.5222 61.4934C52.3551 60.9006 50.2475 61.2069 48.1992 62.0764C47.3581 62.4322 46.4774 62.7484 45.5868 62.9658C43.3505 63.5191 41.5991 62.531 40.1247 60.9895C37.0374 57.7583 34.8407 53.9737 33.4653 49.7248C32.5451 46.8987 32.0107 44.0035 32.08 41.0193C32.169 37.3336 33.0893 33.9245 35.6521 31.138C37.928 28.6676 40.758 27.2941 44.1323 27.4424C45.4582 27.5016 46.8138 27.9265 48.0804 28.3811C51.8505 29.7447 51.3953 29.8435 55.1455 28.3416C58.1933 27.1163 61.2311 26.8791 64.3381 28.0352C65.5157 28.4799 66.6635 29.1617 67.6332 30.0214C68.6029 30.8811 68.6326 32.3731 67.6728 33.2723C65.3474 35.4364 64.0611 38.1537 64.2986 41.6418C64.5459 45.2189 66.2281 47.8078 69.0581 49.6754H69.0779Z" stroke="#629EFF" stroke-miterlimit="10" mask="url(#path-28-outside-9_0_1)"/>
</g>
<g id="Vector_26">
<mask id="path-29-outside-10_0_1" maskUnits="userSpaceOnUse" x="50.254" y="14.891" width="12" height="13" fill="black">
<rect fill="white" x="50.254" y="14.891" width="12" height="13"/>
<path d="M60.2316 15.9009C60.5186 15.8515 60.7857 16.0787 60.7956 16.3752C60.8649 17.7981 60.5977 19.142 60.0535 20.4364C58.7869 23.4305 56.7089 25.5747 53.5128 26.4937C52.9785 26.6518 52.3946 26.6518 51.8405 26.7209C51.3952 26.7802 51.2666 26.5727 51.2567 26.1478C51.1973 23.717 52.1077 21.5728 53.6315 19.6558C55.2642 17.6103 57.6589 16.3159 60.2415 15.891H60.2316V15.9009Z"/>
</mask>
<path d="M60.2316 15.9009C60.5186 15.8515 60.7857 16.0787 60.7956 16.3752C60.8649 17.7981 60.5977 19.142 60.0535 20.4364C58.7869 23.4305 56.7089 25.5747 53.5128 26.4937C52.9785 26.6518 52.3946 26.6518 51.8405 26.7209C51.3952 26.7802 51.2666 26.5727 51.2567 26.1478C51.1973 23.717 52.1077 21.5728 53.6315 19.6558C55.2642 17.6103 57.6589 16.3159 60.2415 15.891H60.2316V15.9009Z" fill="#C0D8FF"/>
<path d="M60.2316 15.9009C60.5186 15.8515 60.7857 16.0787 60.7956 16.3752C60.8649 17.7981 60.5977 19.142 60.0535 20.4364C58.7869 23.4305 56.7089 25.5747 53.5128 26.4937C52.9785 26.6518 52.3946 26.6518 51.8405 26.7209C51.3952 26.7802 51.2666 26.5727 51.2567 26.1478C51.1973 23.717 52.1077 21.5728 53.6315 19.6558C55.2642 17.6103 57.6589 16.3159 60.2415 15.891H60.2316V15.9009Z" stroke="#629EFF" stroke-miterlimit="10" mask="url(#path-29-outside-10_0_1)"/>
</g>
</g>
</g>
</g>
</g>
</g>
</g>
</g>
</g>
</g>
</g>
<defs>
<filter id="filter0_d_0_1" x="-131.53" y="-41.5143" width="243.522" height="142.725" filterUnits="userSpaceOnUse" color-interpolation-filters="sRGB">
<feFlood flood-opacity="0" result="BackgroundImageFix"/>
<feColorMatrix in="SourceAlpha" type="matrix" values="0 0 0 0 0 0 0 0 0 0 0 0 0 0 0 0 0 0 127 0" result="hardAlpha"/>
<feOffset dy="10"/>
<feGaussianBlur stdDeviation="15"/>
<feColorMatrix type="matrix" values="0 0 0 0 0.0352941 0 0 0 0 0.454902 0 0 0 0 0.709804 0 0 0 0.2 0"/>
<feBlend mode="normal" in2="BackgroundImageFix" result="effect1_dropShadow_0_1"/>
<feBlend mode="normal" in="SourceGraphic" in2="effect1_dropShadow_0_1" result="shape"/>
</filter>
<filter id="filter1_d_0_1" x="-47.375" y="-23.375" width="1048.75" height="503.375" filterUnits="userSpaceOnUse" color-interpolation-filters="sRGB">
<feFlood flood-opacity="0" result="BackgroundImageFix"/>
<feColorMatrix in="SourceAlpha" type="matrix" values="0 0 0 0 0 0 0 0 0 0 0 0 0 0 0 0 0 0 127 0" result="hardAlpha"/>
<feOffset dy="15"/>
<feGaussianBlur stdDeviation="15"/>
<feComposite in2="hardAlpha" operator="out"/>
<feColorMatrix type="matrix" values="0 0 0 0 0.0156863 0 0 0 0 0.611765 0 0 0 0 0.745098 0 0 0 0.3 0"/>
<feBlend mode="normal" in2="BackgroundImageFix" result="effect1_dropShadow_0_1"/>
<feBlend mode="normal" in="SourceGraphic" in2="effect1_dropShadow_0_1" result="shape"/>
</filter>
<linearGradient id="paint0_linear_0_1" x1="-308.68" y1="-636.711" x2="1506.81" y2="-355.013" gradientUnits="userSpaceOnUse">
<stop stop-color="#81D2E3"/>
<stop offset="1" stop-color="#029CBE"/>
</linearGradient>
<linearGradient id="paint1_linear_0_1" x1="521.582" y1="-438.438" x2="521.582" y2="83.8736" gradientUnits="userSpaceOnUse">
<stop stop-color="white"/>
<stop offset="1" stop-color="white" stop-opacity="0"/>
</linearGradient>
</defs>
</svg>
