<svg width="290" height="37" viewBox="0 0 290 37" fill="none" xmlns="http://www.w3.org/2000/svg">
<g id="Frame 35">
<g id="Group 183">
<g id="Group">
<g id="Vector">
<mask id="path-1-outside-1_0_1" maskUnits="userSpaceOnUse" x="0" y="0" width="10" height="34" fill="black">
<rect fill="white" width="10" height="34"/>
<path d="M1 30.9381V2.66323C1 1.74251 1.74829 1 2.67616 1H7.14593C8.0738 1 8.82209 1.74251 8.82209 2.66323V30.9381C8.82209 31.8589 8.0738 32.6014 7.14593 32.6014H2.67616C1.74829 32.6014 1 31.8589 1 30.9381Z"/>
</mask>
<path d="M1 30.9381V2.66323C1 1.74251 1.74829 1 2.67616 1H7.14593C8.0738 1 8.82209 1.74251 8.82209 2.66323V30.9381C8.82209 31.8589 8.0738 32.6014 7.14593 32.6014H2.67616C1.74829 32.6014 1 31.8589 1 30.9381Z" fill="#102870"/>
<path d="M1 30.9381V2.66323C1 1.74251 1.74829 1 2.67616 1H7.14593C8.0738 1 8.82209 1.74251 8.82209 2.66323V30.9381C8.82209 31.8589 8.0738 32.6014 7.14593 32.6014H2.67616C1.74829 32.6014 1 31.8589 1 30.9381Z" stroke="#102870" mask="url(#path-1-outside-1_0_1)"/>
</g>
<g id="Vector_2">
<mask id="path-2-outside-2_0_1" maskUnits="userSpaceOnUse" x="13.0996" y="0.000244141" width="30" height="34" fill="black">
<rect fill="white" x="13.0996" y="0.000244141" width="30" height="34"/>
<path d="M14.0996 30.9384V2.66347C14.0996 1.74276 14.8479 1.00024 15.7758 1.00024H30.8812C32.9764 1.00024 34.8321 1.44575 36.4584 2.33677C38.0847 3.22778 39.3618 4.43561 40.2996 5.97013C41.2375 7.50466 41.7064 9.26689 41.7064 11.2568C41.7064 13.2468 41.2375 14.8605 40.2996 16.3851C39.3618 17.9098 38.0747 19.0978 36.4285 19.9789C34.7922 20.8501 32.9365 21.2857 30.8812 21.2857H23.5979C22.67 21.2857 21.9217 22.0282 21.9217 22.9489V30.9483C21.9217 31.869 21.1734 32.6115 20.2455 32.6115H15.7758C14.8479 32.6115 14.0996 31.869 14.0996 30.9483V30.9384ZM21.9217 13.1973C21.9217 14.118 22.67 14.8605 23.5979 14.8605H29.9733C31.1306 14.8605 32.0485 14.5338 32.7469 13.8705C33.4453 13.2072 33.7945 12.3558 33.7945 11.2964C33.7945 10.2371 33.4453 9.3362 32.7469 8.65308C32.0485 7.97987 31.1206 7.63337 29.9733 7.63337H23.5979C22.67 7.63337 21.9217 8.37588 21.9217 9.2966V13.1874V13.1973Z"/>
</mask>
<path d="M14.0996 30.9384V2.66347C14.0996 1.74276 14.8479 1.00024 15.7758 1.00024H30.8812C32.9764 1.00024 34.8321 1.44575 36.4584 2.33677C38.0847 3.22778 39.3618 4.43561 40.2996 5.97013C41.2375 7.50466 41.7064 9.26689 41.7064 11.2568C41.7064 13.2468 41.2375 14.8605 40.2996 16.3851C39.3618 17.9098 38.0747 19.0978 36.4285 19.9789C34.7922 20.8501 32.9365 21.2857 30.8812 21.2857H23.5979C22.67 21.2857 21.9217 22.0282 21.9217 22.9489V30.9483C21.9217 31.869 21.1734 32.6115 20.2455 32.6115H15.7758C14.8479 32.6115 14.0996 31.869 14.0996 30.9483V30.9384ZM21.9217 13.1973C21.9217 14.118 22.67 14.8605 23.5979 14.8605H29.9733C31.1306 14.8605 32.0485 14.5338 32.7469 13.8705C33.4453 13.2072 33.7945 12.3558 33.7945 11.2964C33.7945 10.2371 33.4453 9.3362 32.7469 8.65308C32.0485 7.97987 31.1206 7.63337 29.9733 7.63337H23.5979C22.67 7.63337 21.9217 8.37588 21.9217 9.2966V13.1874V13.1973Z" fill="#102870"/>
<path d="M14.0996 30.9384V2.66347C14.0996 1.74276 14.8479 1.00024 15.7758 1.00024H30.8812C32.9764 1.00024 34.8321 1.44575 36.4584 2.33677C38.0847 3.22778 39.3618 4.43561 40.2996 5.97013C41.2375 7.50466 41.7064 9.26689 41.7064 11.2568C41.7064 13.2468 41.2375 14.8605 40.2996 16.3851C39.3618 17.9098 38.0747 19.0978 36.4285 19.9789C34.7922 20.8501 32.9365 21.2857 30.8812 21.2857H23.5979C22.67 21.2857 21.9217 22.0282 21.9217 22.9489V30.9483C21.9217 31.869 21.1734 32.6115 20.2455 32.6115H15.7758C14.8479 32.6115 14.0996 31.869 14.0996 30.9483V30.9384ZM21.9217 13.1973C21.9217 14.118 22.67 14.8605 23.5979 14.8605H29.9733C31.1306 14.8605 32.0485 14.5338 32.7469 13.8705C33.4453 13.2072 33.7945 12.3558 33.7945 11.2964C33.7945 10.2371 33.4453 9.3362 32.7469 8.65308C32.0485 7.97987 31.1206 7.63337 29.9733 7.63337H23.5979C22.67 7.63337 21.9217 8.37588 21.9217 9.2966V13.1874V13.1973Z" stroke="#102870" mask="url(#path-2-outside-2_0_1)"/>
</g>
<g id="Vector_3">
<mask id="path-3-outside-3_0_1" maskUnits="userSpaceOnUse" x="56.0317" y="0.465332" width="31" height="34" fill="black">
<rect fill="white" x="56.0317" y="0.465332" width="31" height="34"/>
<path d="M71.4986 33.5122C68.5554 33.5122 66.0012 32.938 63.8362 31.7698C61.6711 30.6115 59.995 28.968 58.8077 26.8296C57.6204 24.6912 57.0317 22.1765 57.0317 19.2956V3.12856C57.0317 2.20785 57.78 1.46533 58.7079 1.46533H63.1777C64.1055 1.46533 64.8538 2.20785 64.8538 3.12856V19.2956C64.8538 20.7113 65.1232 21.9488 65.672 23.018C66.2207 24.0872 66.9989 24.909 68.0166 25.4832C69.0343 26.0574 70.2116 26.3445 71.5385 26.3445C72.8655 26.3445 74.0827 26.0574 75.0605 25.4832C76.0482 24.909 76.8164 24.0872 77.3552 23.018C77.9039 21.9488 78.1733 20.7113 78.1733 19.2956V3.12856C78.1733 2.20785 78.9216 1.46533 79.8495 1.46533H84.3193C85.2471 1.46533 85.9954 2.20785 85.9954 3.12856V19.2956C85.9954 22.1567 85.3968 24.6516 84.1995 26.79C83.0023 28.9284 81.3161 30.5818 79.1511 31.7599C76.9861 32.938 74.4219 33.5221 71.4886 33.5221L71.4986 33.5122Z"/>
</mask>
<path d="M71.4986 33.5122C68.5554 33.5122 66.0012 32.938 63.8362 31.7698C61.6711 30.6115 59.995 28.968 58.8077 26.8296C57.6204 24.6912 57.0317 22.1765 57.0317 19.2956V3.12856C57.0317 2.20785 57.78 1.46533 58.7079 1.46533H63.1777C64.1055 1.46533 64.8538 2.20785 64.8538 3.12856V19.2956C64.8538 20.7113 65.1232 21.9488 65.672 23.018C66.2207 24.0872 66.9989 24.909 68.0166 25.4832C69.0343 26.0574 70.2116 26.3445 71.5385 26.3445C72.8655 26.3445 74.0827 26.0574 75.0605 25.4832C76.0482 24.909 76.8164 24.0872 77.3552 23.018C77.9039 21.9488 78.1733 20.7113 78.1733 19.2956V3.12856C78.1733 2.20785 78.9216 1.46533 79.8495 1.46533H84.3193C85.2471 1.46533 85.9954 2.20785 85.9954 3.12856V19.2956C85.9954 22.1567 85.3968 24.6516 84.1995 26.79C83.0023 28.9284 81.3161 30.5818 79.1511 31.7599C76.9861 32.938 74.4219 33.5221 71.4886 33.5221L71.4986 33.5122Z" fill="#102870"/>
<path d="M71.4986 33.5122C68.5554 33.5122 66.0012 32.938 63.8362 31.7698C61.6711 30.6115 59.995 28.968 58.8077 26.8296C57.6204 24.6912 57.0317 22.1765 57.0317 19.2956V3.12856C57.0317 2.20785 57.78 1.46533 58.7079 1.46533H63.1777C64.1055 1.46533 64.8538 2.20785 64.8538 3.12856V19.2956C64.8538 20.7113 65.1232 21.9488 65.672 23.018C66.2207 24.0872 66.9989 24.909 68.0166 25.4832C69.0343 26.0574 70.2116 26.3445 71.5385 26.3445C72.8655 26.3445 74.0827 26.0574 75.0605 25.4832C76.0482 24.909 76.8164 24.0872 77.3552 23.018C77.9039 21.9488 78.1733 20.7113 78.1733 19.2956V3.12856C78.1733 2.20785 78.9216 1.46533 79.8495 1.46533H84.3193C85.2471 1.46533 85.9954 2.20785 85.9954 3.12856V19.2956C85.9954 22.1567 85.3968 24.6516 84.1995 26.79C83.0023 28.9284 81.3161 30.5818 79.1511 31.7599C76.9861 32.938 74.4219 33.5221 71.4886 33.5221L71.4986 33.5122Z" stroke="#102870" mask="url(#path-3-outside-3_0_1)"/>
</g>
<g id="Vector_4">
<mask id="path-4-outside-4_0_1" maskUnits="userSpaceOnUse" x="89.8342" y="0.445557" width="31" height="34" fill="black">
<rect fill="white" x="89.8342" y="0.445557" width="31" height="34"/>
<path d="M90.8342 31.3936V3.11869C90.8342 2.19797 91.5825 1.45546 92.5104 1.45546H97.3892C97.908 1.45546 98.3869 1.69306 98.7062 2.08907L109.671 15.979C110.659 17.2264 112.674 16.5334 112.674 14.9494V3.10879C112.674 2.18807 113.423 1.44556 114.35 1.44556H118.361C119.289 1.44556 120.037 2.18807 120.037 3.10879V31.3837C120.037 32.3044 119.289 33.0469 118.361 33.0469H113.941C113.423 33.0469 112.934 32.8093 112.614 32.4034L101.2 17.8304C100.223 16.5829 98.1974 17.266 98.1974 18.8501V31.3837C98.1974 32.3044 97.4491 33.0469 96.5212 33.0469H92.5104C91.5825 33.0469 90.8342 32.3044 90.8342 31.3837V31.3936Z"/>
</mask>
<path d="M90.8342 31.3936V3.11869C90.8342 2.19797 91.5825 1.45546 92.5104 1.45546H97.3892C97.908 1.45546 98.3869 1.69306 98.7062 2.08907L109.671 15.979C110.659 17.2264 112.674 16.5334 112.674 14.9494V3.10879C112.674 2.18807 113.423 1.44556 114.35 1.44556H118.361C119.289 1.44556 120.037 2.18807 120.037 3.10879V31.3837C120.037 32.3044 119.289 33.0469 118.361 33.0469H113.941C113.423 33.0469 112.934 32.8093 112.614 32.4034L101.2 17.8304C100.223 16.5829 98.1974 17.266 98.1974 18.8501V31.3837C98.1974 32.3044 97.4491 33.0469 96.5212 33.0469H92.5104C91.5825 33.0469 90.8342 32.3044 90.8342 31.3837V31.3936Z" fill="#102870"/>
<path d="M90.8342 31.3936V3.11869C90.8342 2.19797 91.5825 1.45546 92.5104 1.45546H97.3892C97.908 1.45546 98.3869 1.69306 98.7062 2.08907L109.671 15.979C110.659 17.2264 112.674 16.5334 112.674 14.9494V3.10879C112.674 2.18807 113.423 1.44556 114.35 1.44556H118.361C119.289 1.44556 120.037 2.18807 120.037 3.10879V31.3837C120.037 32.3044 119.289 33.0469 118.361 33.0469H113.941C113.423 33.0469 112.934 32.8093 112.614 32.4034L101.2 17.8304C100.223 16.5829 98.1974 17.266 98.1974 18.8501V31.3837C98.1974 32.3044 97.4491 33.0469 96.5212 33.0469H92.5104C91.5825 33.0469 90.8342 32.3044 90.8342 31.3837V31.3936Z" stroke="#102870" mask="url(#path-4-outside-4_0_1)"/>
</g>
<g id="Vector_5">
<mask id="path-5-outside-5_0_1" maskUnits="userSpaceOnUse" x="124.326" y="0.455811" width="10" height="34" fill="black">
<rect fill="white" x="124.326" y="0.455811" width="10" height="34"/>
<path d="M125.326 31.394V3.11904C125.326 2.19832 126.074 1.45581 127.002 1.45581H131.472C132.399 1.45581 133.148 2.19832 133.148 3.11904V31.394C133.148 32.3147 132.399 33.0572 131.472 33.0572H127.002C126.074 33.0572 125.326 32.3147 125.326 31.394Z"/>
</mask>
<path d="M125.326 31.394V3.11904C125.326 2.19832 126.074 1.45581 127.002 1.45581H131.472C132.399 1.45581 133.148 2.19832 133.148 3.11904V31.394C133.148 32.3147 132.399 33.0572 131.472 33.0572H127.002C126.074 33.0572 125.326 32.3147 125.326 31.394Z" fill="#102870"/>
<path d="M125.326 31.394V3.11904C125.326 2.19832 126.074 1.45581 127.002 1.45581H131.472C132.399 1.45581 133.148 2.19832 133.148 3.11904V31.394C133.148 32.3147 132.399 33.0572 131.472 33.0572H127.002C126.074 33.0572 125.326 32.3147 125.326 31.394Z" stroke="#102870" mask="url(#path-5-outside-5_0_1)"/>
</g>
<g id="Vector_6">
<mask id="path-6-outside-6_0_1" maskUnits="userSpaceOnUse" x="135.265" y="0.445557" width="35" height="34" fill="black">
<rect fill="white" x="135.265" y="0.445557" width="35" height="34"/>
<path d="M147.914 32.0173L136.39 3.7424C135.941 2.64348 136.759 1.45546 137.946 1.45546H142.765C143.464 1.45546 144.082 1.88116 144.332 2.52468L151.426 20.939C151.974 22.3646 154 22.3646 154.558 20.9489L161.802 2.50488C162.051 1.86136 162.67 1.44556 163.368 1.44556H167.868C169.065 1.44556 169.873 2.64348 169.424 3.7424L157.741 32.0173C157.482 32.641 156.873 33.0469 156.185 33.0469H149.48C148.792 33.0469 148.183 32.6311 147.924 32.0074H147.914V32.0173Z"/>
</mask>
<path d="M147.914 32.0173L136.39 3.7424C135.941 2.64348 136.759 1.45546 137.946 1.45546H142.765C143.464 1.45546 144.082 1.88116 144.332 2.52468L151.426 20.939C151.974 22.3646 154 22.3646 154.558 20.9489L161.802 2.50488C162.051 1.86136 162.67 1.44556 163.368 1.44556H167.868C169.065 1.44556 169.873 2.64348 169.424 3.7424L157.741 32.0173C157.482 32.641 156.873 33.0469 156.185 33.0469H149.48C148.792 33.0469 148.183 32.6311 147.924 32.0074H147.914V32.0173Z" fill="#102870"/>
<path d="M147.914 32.0173L136.39 3.7424C135.941 2.64348 136.759 1.45546 137.946 1.45546H142.765C143.464 1.45546 144.082 1.88116 144.332 2.52468L151.426 20.939C151.974 22.3646 154 22.3646 154.558 20.9489L161.802 2.50488C162.051 1.86136 162.67 1.44556 163.368 1.44556H167.868C169.065 1.44556 169.873 2.64348 169.424 3.7424L157.741 32.0173C157.482 32.641 156.873 33.0469 156.185 33.0469H149.48C148.792 33.0469 148.183 32.6311 147.924 32.0074H147.914V32.0173Z" stroke="#102870" mask="url(#path-6-outside-6_0_1)"/>
</g>
<g id="Vector_7">
<mask id="path-7-outside-7_0_1" maskUnits="userSpaceOnUse" x="171.677" y="0.455811" width="27" height="34" fill="black">
<rect fill="white" x="171.677" y="0.455811" width="27" height="34"/>
<path d="M172.677 31.394V3.11904C172.677 2.19832 173.425 1.45581 174.353 1.45581H196.113C197.041 1.45581 197.789 2.19832 197.789 3.11904V6.5148C197.789 7.43552 197.041 8.17803 196.113 8.17803H182.175C181.247 8.17803 180.499 8.92055 180.499 9.84126V12.1975C180.499 13.1182 181.247 13.8607 182.175 13.8607H190.237C191.165 13.8607 191.913 14.6033 191.913 15.524V18.692C191.913 19.6127 191.165 20.3553 190.237 20.3553H182.175C181.247 20.3553 180.499 21.0978 180.499 22.0185V24.6519C180.499 25.5727 181.247 26.3152 182.175 26.3152H196.293C197.221 26.3152 197.969 27.0577 197.969 27.9784V31.3742C197.969 32.2949 197.221 33.0374 196.293 33.0374H174.353C173.425 33.0374 172.677 32.2949 172.677 31.3742V31.394Z"/>
</mask>
<path d="M172.677 31.394V3.11904C172.677 2.19832 173.425 1.45581 174.353 1.45581H196.113C197.041 1.45581 197.789 2.19832 197.789 3.11904V6.5148C197.789 7.43552 197.041 8.17803 196.113 8.17803H182.175C181.247 8.17803 180.499 8.92055 180.499 9.84126V12.1975C180.499 13.1182 181.247 13.8607 182.175 13.8607H190.237C191.165 13.8607 191.913 14.6033 191.913 15.524V18.692C191.913 19.6127 191.165 20.3553 190.237 20.3553H182.175C181.247 20.3553 180.499 21.0978 180.499 22.0185V24.6519C180.499 25.5727 181.247 26.3152 182.175 26.3152H196.293C197.221 26.3152 197.969 27.0577 197.969 27.9784V31.3742C197.969 32.2949 197.221 33.0374 196.293 33.0374H174.353C173.425 33.0374 172.677 32.2949 172.677 31.3742V31.394Z" fill="#102870"/>
<path d="M172.677 31.394V3.11904C172.677 2.19832 173.425 1.45581 174.353 1.45581H196.113C197.041 1.45581 197.789 2.19832 197.789 3.11904V6.5148C197.789 7.43552 197.041 8.17803 196.113 8.17803H182.175C181.247 8.17803 180.499 8.92055 180.499 9.84126V12.1975C180.499 13.1182 181.247 13.8607 182.175 13.8607H190.237C191.165 13.8607 191.913 14.6033 191.913 15.524V18.692C191.913 19.6127 191.165 20.3553 190.237 20.3553H182.175C181.247 20.3553 180.499 21.0978 180.499 22.0185V24.6519C180.499 25.5727 181.247 26.3152 182.175 26.3152H196.293C197.221 26.3152 197.969 27.0577 197.969 27.9784V31.3742C197.969 32.2949 197.221 33.0374 196.293 33.0374H174.353C173.425 33.0374 172.677 32.2949 172.677 31.3742V31.394Z" stroke="#102870" mask="url(#path-7-outside-7_0_1)"/>
</g>
<g id="Vector_8">
<mask id="path-8-outside-8_0_1" maskUnits="userSpaceOnUse" x="201.568" y="0.455811" width="30" height="34" fill="black">
<rect fill="white" x="201.568" y="0.455811" width="30" height="34"/>
<path d="M202.568 31.394V3.11904C202.568 2.19832 203.316 1.45581 204.244 1.45581H218.851C221.036 1.45581 222.971 1.88152 224.677 2.74283C226.374 3.60415 227.701 4.79217 228.658 6.3069C229.616 7.83153 230.095 9.56406 230.095 11.5243C230.095 13.4845 229.546 15.2864 228.459 16.8506C227.671 17.9792 226.703 18.9098 225.555 19.6523C224.797 20.1375 224.508 21.0978 224.947 21.8799L229.746 30.6019C230.355 31.7108 229.546 33.0671 228.269 33.0671H223.38C222.752 33.0671 222.183 32.7206 221.894 32.1662L216.825 22.4541C216.536 21.8997 215.967 21.5532 215.339 21.5532H212.076C211.148 21.5532 210.4 22.2957 210.4 23.2164V31.4039C210.4 32.3246 209.652 33.0671 208.724 33.0671H204.254C203.326 33.0671 202.578 32.3246 202.578 31.4039H202.568V31.394ZM210.39 13.5637C210.39 14.4844 211.138 15.227 212.066 15.227H218.122C219.34 15.227 220.317 14.9003 221.056 14.2369C221.794 13.5736 222.173 12.7222 222.173 11.6629C222.173 10.6036 221.804 9.75216 221.056 9.08885C220.307 8.42554 219.33 8.09883 218.122 8.09883H212.066C211.138 8.09883 210.39 8.84135 210.39 9.76206V13.5637Z"/>
</mask>
<path d="M202.568 31.394V3.11904C202.568 2.19832 203.316 1.45581 204.244 1.45581H218.851C221.036 1.45581 222.971 1.88152 224.677 2.74283C226.374 3.60415 227.701 4.79217 228.658 6.3069C229.616 7.83153 230.095 9.56406 230.095 11.5243C230.095 13.4845 229.546 15.2864 228.459 16.8506C227.671 17.9792 226.703 18.9098 225.555 19.6523C224.797 20.1375 224.508 21.0978 224.947 21.8799L229.746 30.6019C230.355 31.7108 229.546 33.0671 228.269 33.0671H223.38C222.752 33.0671 222.183 32.7206 221.894 32.1662L216.825 22.4541C216.536 21.8997 215.967 21.5532 215.339 21.5532H212.076C211.148 21.5532 210.4 22.2957 210.4 23.2164V31.4039C210.4 32.3246 209.652 33.0671 208.724 33.0671H204.254C203.326 33.0671 202.578 32.3246 202.578 31.4039H202.568V31.394ZM210.39 13.5637C210.39 14.4844 211.138 15.227 212.066 15.227H218.122C219.34 15.227 220.317 14.9003 221.056 14.2369C221.794 13.5736 222.173 12.7222 222.173 11.6629C222.173 10.6036 221.804 9.75216 221.056 9.08885C220.307 8.42554 219.33 8.09883 218.122 8.09883H212.066C211.138 8.09883 210.39 8.84135 210.39 9.76206V13.5637Z" fill="#102870"/>
<path d="M202.568 31.394V3.11904C202.568 2.19832 203.316 1.45581 204.244 1.45581H218.851C221.036 1.45581 222.971 1.88152 224.677 2.74283C226.374 3.60415 227.701 4.79217 228.658 6.3069C229.616 7.83153 230.095 9.56406 230.095 11.5243C230.095 13.4845 229.546 15.2864 228.459 16.8506C227.671 17.9792 226.703 18.9098 225.555 19.6523C224.797 20.1375 224.508 21.0978 224.947 21.8799L229.746 30.6019C230.355 31.7108 229.546 33.0671 228.269 33.0671H223.38C222.752 33.0671 222.183 32.7206 221.894 32.1662L216.825 22.4541C216.536 21.8997 215.967 21.5532 215.339 21.5532H212.076C211.148 21.5532 210.4 22.2957 210.4 23.2164V31.4039C210.4 32.3246 209.652 33.0671 208.724 33.0671H204.254C203.326 33.0671 202.578 32.3246 202.578 31.4039H202.568V31.394ZM210.39 13.5637C210.39 14.4844 211.138 15.227 212.066 15.227H218.122C219.34 15.227 220.317 14.9003 221.056 14.2369C221.794 13.5736 222.173 12.7222 222.173 11.6629C222.173 10.6036 221.804 9.75216 221.056 9.08885C220.307 8.42554 219.33 8.09883 218.122 8.09883H212.066C211.138 8.09883 210.39 8.84135 210.39 9.76206V13.5637Z" stroke="#102870" mask="url(#path-8-outside-8_0_1)"/>
</g>
<g id="Vector_9">
<mask id="path-9-outside-9_0_1" maskUnits="userSpaceOnUse" x="231.576" y="0.0200195" width="30" height="35" fill="black">
<rect fill="white" x="231.576" y="0.0200195" width="30" height="35"/>
<path d="M246.288 33.5124C243.714 33.5124 241.16 33.0471 238.645 32.1165C236.69 31.3938 234.894 30.4533 233.268 29.285C232.499 28.7405 232.35 27.6614 232.928 26.9189L235.253 23.9092C235.812 23.1865 236.849 23.0578 237.578 23.5924C239.024 24.6419 240.371 25.4339 241.639 25.9487C243.275 26.6219 245.021 26.9684 246.867 26.9684C248.084 26.9684 249.111 26.8496 249.959 26.612C250.808 26.3744 251.456 26.018 251.915 25.5527C252.374 25.0874 252.593 24.5329 252.593 23.9092C252.593 23.038 252.264 22.3549 251.596 21.8797C250.927 21.3946 249.79 21.0184 248.184 20.7511L241.18 19.5334C238.605 19.0779 236.61 18.1077 235.223 16.6029C233.826 15.0981 233.128 13.1873 233.128 10.8707C233.128 8.82136 233.647 7.05913 234.694 5.584C235.742 4.10888 237.239 2.98026 239.194 2.19814C241.15 1.41603 243.474 1.02002 246.178 1.02002C248.543 1.02002 250.927 1.41603 253.322 2.21794C255.118 2.81195 256.734 3.58417 258.171 4.53458C258.959 5.04939 259.138 6.11861 258.59 6.88093L256.395 9.92028C255.866 10.6529 254.848 10.8212 254.09 10.3262C251.256 8.45506 248.443 7.52444 245.639 7.52444C244.582 7.52444 243.664 7.63334 242.886 7.86104C241.728 8.19765 240.97 8.74216 240.631 9.48467C240.561 9.63318 240.521 9.80148 240.511 9.95988C240.421 10.8905 240.721 11.6033 241.379 12.0785C241.968 12.5042 242.936 12.8309 244.272 13.0685L250.867 14.1477C253.93 14.6328 256.255 15.6327 257.851 17.1771C259.448 18.7215 260.236 20.7016 260.236 23.137C260.236 25.2755 259.677 27.1169 258.55 28.6712C257.422 30.2256 255.816 31.4136 253.731 32.265C251.636 33.1065 249.151 33.5322 246.268 33.5322L246.288 33.5124Z"/>
</mask>
<path d="M246.288 33.5124C243.714 33.5124 241.16 33.0471 238.645 32.1165C236.69 31.3938 234.894 30.4533 233.268 29.285C232.499 28.7405 232.35 27.6614 232.928 26.9189L235.253 23.9092C235.812 23.1865 236.849 23.0578 237.578 23.5924C239.024 24.6419 240.371 25.4339 241.639 25.9487C243.275 26.6219 245.021 26.9684 246.867 26.9684C248.084 26.9684 249.111 26.8496 249.959 26.612C250.808 26.3744 251.456 26.018 251.915 25.5527C252.374 25.0874 252.593 24.5329 252.593 23.9092C252.593 23.038 252.264 22.3549 251.596 21.8797C250.927 21.3946 249.79 21.0184 248.184 20.7511L241.18 19.5334C238.605 19.0779 236.61 18.1077 235.223 16.6029C233.826 15.0981 233.128 13.1873 233.128 10.8707C233.128 8.82136 233.647 7.05913 234.694 5.584C235.742 4.10888 237.239 2.98026 239.194 2.19814C241.15 1.41603 243.474 1.02002 246.178 1.02002C248.543 1.02002 250.927 1.41603 253.322 2.21794C255.118 2.81195 256.734 3.58417 258.171 4.53458C258.959 5.04939 259.138 6.11861 258.59 6.88093L256.395 9.92028C255.866 10.6529 254.848 10.8212 254.09 10.3262C251.256 8.45506 248.443 7.52444 245.639 7.52444C244.582 7.52444 243.664 7.63334 242.886 7.86104C241.728 8.19765 240.97 8.74216 240.631 9.48467C240.561 9.63318 240.521 9.80148 240.511 9.95988C240.421 10.8905 240.721 11.6033 241.379 12.0785C241.968 12.5042 242.936 12.8309 244.272 13.0685L250.867 14.1477C253.93 14.6328 256.255 15.6327 257.851 17.1771C259.448 18.7215 260.236 20.7016 260.236 23.137C260.236 25.2755 259.677 27.1169 258.55 28.6712C257.422 30.2256 255.816 31.4136 253.731 32.265C251.636 33.1065 249.151 33.5322 246.268 33.5322L246.288 33.5124Z" fill="#102870"/>
<path d="M246.288 33.5124C243.714 33.5124 241.16 33.0471 238.645 32.1165C236.69 31.3938 234.894 30.4533 233.268 29.285C232.499 28.7405 232.35 27.6614 232.928 26.9189L235.253 23.9092C235.812 23.1865 236.849 23.0578 237.578 23.5924C239.024 24.6419 240.371 25.4339 241.639 25.9487C243.275 26.6219 245.021 26.9684 246.867 26.9684C248.084 26.9684 249.111 26.8496 249.959 26.612C250.808 26.3744 251.456 26.018 251.915 25.5527C252.374 25.0874 252.593 24.5329 252.593 23.9092C252.593 23.038 252.264 22.3549 251.596 21.8797C250.927 21.3946 249.79 21.0184 248.184 20.7511L241.18 19.5334C238.605 19.0779 236.61 18.1077 235.223 16.6029C233.826 15.0981 233.128 13.1873 233.128 10.8707C233.128 8.82136 233.647 7.05913 234.694 5.584C235.742 4.10888 237.239 2.98026 239.194 2.19814C241.15 1.41603 243.474 1.02002 246.178 1.02002C248.543 1.02002 250.927 1.41603 253.322 2.21794C255.118 2.81195 256.734 3.58417 258.171 4.53458C258.959 5.04939 259.138 6.11861 258.59 6.88093L256.395 9.92028C255.866 10.6529 254.848 10.8212 254.09 10.3262C251.256 8.45506 248.443 7.52444 245.639 7.52444C244.582 7.52444 243.664 7.63334 242.886 7.86104C241.728 8.19765 240.97 8.74216 240.631 9.48467C240.561 9.63318 240.521 9.80148 240.511 9.95988C240.421 10.8905 240.721 11.6033 241.379 12.0785C241.968 12.5042 242.936 12.8309 244.272 13.0685L250.867 14.1477C253.93 14.6328 256.255 15.6327 257.851 17.1771C259.448 18.7215 260.236 20.7016 260.236 23.137C260.236 25.2755 259.677 27.1169 258.55 28.6712C257.422 30.2256 255.816 31.4136 253.731 32.265C251.636 33.1065 249.151 33.5322 246.268 33.5322L246.288 33.5124Z" stroke="#102870" mask="url(#path-9-outside-9_0_1)"/>
</g>
<g id="Vector_10">
<mask id="path-10-outside-10_0_1" maskUnits="userSpaceOnUse" x="262.847" y="0.455811" width="27" height="34" fill="black">
<rect fill="white" x="262.847" y="0.455811" width="27" height="34"/>
<path d="M263.847 31.394V3.11904C263.847 2.19832 264.595 1.45581 265.523 1.45581H287.283C288.211 1.45581 288.96 2.19832 288.96 3.11904V6.5148C288.96 7.43552 288.211 8.17803 287.283 8.17803H273.345C272.418 8.17803 271.669 8.92055 271.669 9.84126V12.1975C271.669 13.1182 272.418 13.8607 273.345 13.8607H281.407C282.335 13.8607 283.083 14.6033 283.083 15.524V18.692C283.083 19.6127 282.335 20.3553 281.407 20.3553H273.345C272.418 20.3553 271.669 21.0978 271.669 22.0185V24.6519C271.669 25.5727 272.418 26.3152 273.345 26.3152H287.463C288.391 26.3152 289.139 27.0577 289.139 27.9784V31.3742C289.139 32.2949 288.391 33.0374 287.463 33.0374H265.523C264.595 33.0374 263.847 32.2949 263.847 31.3742V31.394Z"/>
</mask>
<path d="M263.847 31.394V3.11904C263.847 2.19832 264.595 1.45581 265.523 1.45581H287.283C288.211 1.45581 288.96 2.19832 288.96 3.11904V6.5148C288.96 7.43552 288.211 8.17803 287.283 8.17803H273.345C272.418 8.17803 271.669 8.92055 271.669 9.84126V12.1975C271.669 13.1182 272.418 13.8607 273.345 13.8607H281.407C282.335 13.8607 283.083 14.6033 283.083 15.524V18.692C283.083 19.6127 282.335 20.3553 281.407 20.3553H273.345C272.418 20.3553 271.669 21.0978 271.669 22.0185V24.6519C271.669 25.5727 272.418 26.3152 273.345 26.3152H287.463C288.391 26.3152 289.139 27.0577 289.139 27.9784V31.3742C289.139 32.2949 288.391 33.0374 287.463 33.0374H265.523C264.595 33.0374 263.847 32.2949 263.847 31.3742V31.394Z" fill="#102870"/>
<path d="M263.847 31.394V3.11904C263.847 2.19832 264.595 1.45581 265.523 1.45581H287.283C288.211 1.45581 288.96 2.19832 288.96 3.11904V6.5148C288.96 7.43552 288.211 8.17803 287.283 8.17803H273.345C272.418 8.17803 271.669 8.92055 271.669 9.84126V12.1975C271.669 13.1182 272.418 13.8607 273.345 13.8607H281.407C282.335 13.8607 283.083 14.6033 283.083 15.524V18.692C283.083 19.6127 282.335 20.3553 281.407 20.3553H273.345C272.418 20.3553 271.669 21.0978 271.669 22.0185V24.6519C271.669 25.5727 272.418 26.3152 273.345 26.3152H287.463C288.391 26.3152 289.139 27.0577 289.139 27.9784V31.3742C289.139 32.2949 288.391 33.0374 287.463 33.0374H265.523C264.595 33.0374 263.847 32.2949 263.847 31.3742V31.394Z" stroke="#102870" mask="url(#path-10-outside-10_0_1)"/>
</g>
</g>
<g id="Group_2">
<g id="Vector_11">
<mask id="path-11-outside-11_0_1" maskUnits="userSpaceOnUse" x="0" y="2.41602" width="10" height="34" fill="black">
<rect fill="white" y="2.41602" width="10" height="34"/>
<path d="M1 33.3542V5.07925C1 4.15853 1.74829 3.41602 2.67616 3.41602H7.14593C8.0738 3.41602 8.82209 4.15853 8.82209 5.07925V33.3542C8.82209 34.2749 8.0738 35.0174 7.14593 35.0174H2.67616C1.74829 35.0174 1 34.2749 1 33.3542Z"/>
</mask>
<path d="M1 33.3542V5.07925C1 4.15853 1.74829 3.41602 2.67616 3.41602H7.14593C8.0738 3.41602 8.82209 4.15853 8.82209 5.07925V33.3542C8.82209 34.2749 8.0738 35.0174 7.14593 35.0174H2.67616C1.74829 35.0174 1 34.2749 1 33.3542Z" fill="#629EFF"/>
<path d="M1 33.3542V5.07925C1 4.15853 1.74829 3.41602 2.67616 3.41602H7.14593C8.0738 3.41602 8.82209 4.15853 8.82209 5.07925V33.3542C8.82209 34.2749 8.0738 35.0174 7.14593 35.0174H2.67616C1.74829 35.0174 1 34.2749 1 33.3542Z" stroke="#102870" mask="url(#path-11-outside-11_0_1)"/>
</g>
<g id="Vector_12">
<mask id="path-12-outside-12_0_1" maskUnits="userSpaceOnUse" x="13.0996" y="2.41602" width="30" height="34" fill="black">
<rect fill="white" x="13.0996" y="2.41602" width="30" height="34"/>
<path d="M14.0996 33.3542V5.07925C14.0996 4.15853 14.8479 3.41602 15.7758 3.41602H30.8812C32.9764 3.41602 34.8321 3.86152 36.4584 4.75254C38.0847 5.64356 39.3618 6.85138 40.2996 8.38591C41.2375 9.92043 41.7064 11.6827 41.7064 13.6726C41.7064 15.6625 41.2375 17.2763 40.2996 18.8009C39.3618 20.3255 38.0747 21.5135 36.4285 22.3947C34.7922 23.2659 32.9365 23.7015 30.8812 23.7015H23.5979C22.67 23.7015 21.9217 24.444 21.9217 25.3647V33.3641C21.9217 34.2848 21.1734 35.0273 20.2455 35.0273H15.7758C14.8479 35.0273 14.0996 34.2848 14.0996 33.3641V33.3542ZM21.9217 15.613C21.9217 16.5338 22.67 17.2763 23.5979 17.2763H29.9733C31.1306 17.2763 32.0485 16.9496 32.7469 16.2863C33.4453 15.6229 33.7945 14.7715 33.7945 13.7122C33.7945 12.6529 33.4453 11.752 32.7469 11.0689C32.0485 10.3956 31.1206 10.0491 29.9733 10.0491H23.5979C22.67 10.0491 21.9217 10.7917 21.9217 11.7124V15.6031V15.613Z"/>
</mask>
<path d="M14.0996 33.3542V5.07925C14.0996 4.15853 14.8479 3.41602 15.7758 3.41602H30.8812C32.9764 3.41602 34.8321 3.86152 36.4584 4.75254C38.0847 5.64356 39.3618 6.85138 40.2996 8.38591C41.2375 9.92043 41.7064 11.6827 41.7064 13.6726C41.7064 15.6625 41.2375 17.2763 40.2996 18.8009C39.3618 20.3255 38.0747 21.5135 36.4285 22.3947C34.7922 23.2659 32.9365 23.7015 30.8812 23.7015H23.5979C22.67 23.7015 21.9217 24.444 21.9217 25.3647V33.3641C21.9217 34.2848 21.1734 35.0273 20.2455 35.0273H15.7758C14.8479 35.0273 14.0996 34.2848 14.0996 33.3641V33.3542ZM21.9217 15.613C21.9217 16.5338 22.67 17.2763 23.5979 17.2763H29.9733C31.1306 17.2763 32.0485 16.9496 32.7469 16.2863C33.4453 15.6229 33.7945 14.7715 33.7945 13.7122C33.7945 12.6529 33.4453 11.752 32.7469 11.0689C32.0485 10.3956 31.1206 10.0491 29.9733 10.0491H23.5979C22.67 10.0491 21.9217 10.7917 21.9217 11.7124V15.6031V15.613Z" fill="#629EFF"/>
<path d="M14.0996 33.3542V5.07925C14.0996 4.15853 14.8479 3.41602 15.7758 3.41602H30.8812C32.9764 3.41602 34.8321 3.86152 36.4584 4.75254C38.0847 5.64356 39.3618 6.85138 40.2996 8.38591C41.2375 9.92043 41.7064 11.6827 41.7064 13.6726C41.7064 15.6625 41.2375 17.2763 40.2996 18.8009C39.3618 20.3255 38.0747 21.5135 36.4285 22.3947C34.7922 23.2659 32.9365 23.7015 30.8812 23.7015H23.5979C22.67 23.7015 21.9217 24.444 21.9217 25.3647V33.3641C21.9217 34.2848 21.1734 35.0273 20.2455 35.0273H15.7758C14.8479 35.0273 14.0996 34.2848 14.0996 33.3641V33.3542ZM21.9217 15.613C21.9217 16.5338 22.67 17.2763 23.5979 17.2763H29.9733C31.1306 17.2763 32.0485 16.9496 32.7469 16.2863C33.4453 15.6229 33.7945 14.7715 33.7945 13.7122C33.7945 12.6529 33.4453 11.752 32.7469 11.0689C32.0485 10.3956 31.1206 10.0491 29.9733 10.0491H23.5979C22.67 10.0491 21.9217 10.7917 21.9217 11.7124V15.6031V15.613Z" stroke="#102870" mask="url(#path-12-outside-12_0_1)"/>
</g>
<g id="Vector_13">
<mask id="path-13-outside-13_0_1" maskUnits="userSpaceOnUse" x="56.0317" y="2.88135" width="31" height="34" fill="black">
<rect fill="white" x="56.0317" y="2.88135" width="31" height="34"/>
<path d="M71.4986 35.9282C68.5554 35.9282 66.0012 35.354 63.8362 34.1858C61.6711 33.0275 59.995 31.3841 58.8077 29.2456C57.6204 27.1072 57.0317 24.5925 57.0317 21.7116V5.54458C57.0317 4.62386 57.78 3.88135 58.7079 3.88135H63.1777C64.1055 3.88135 64.8538 4.62386 64.8538 5.54458V21.7116C64.8538 23.1273 65.1232 24.3648 65.672 25.434C66.2207 26.5033 66.9989 27.325 68.0166 27.8992C69.0343 28.4734 70.2116 28.7605 71.5385 28.7605C72.8655 28.7605 74.0827 28.4734 75.0605 27.8992C76.0482 27.325 76.8164 26.5033 77.3552 25.434C77.9039 24.3648 78.1733 23.1273 78.1733 21.7116V5.54458C78.1733 4.62386 78.9216 3.88135 79.8495 3.88135H84.3193C85.2471 3.88135 85.9954 4.62386 85.9954 5.54458V21.7116C85.9954 24.5727 85.3968 27.0676 84.1995 29.206C83.0023 31.3444 81.3161 32.9978 79.1511 34.1759C76.9861 35.354 74.4219 35.9381 71.4886 35.9381L71.4986 35.9282Z"/>
</mask>
<path d="M71.4986 35.9282C68.5554 35.9282 66.0012 35.354 63.8362 34.1858C61.6711 33.0275 59.995 31.3841 58.8077 29.2456C57.6204 27.1072 57.0317 24.5925 57.0317 21.7116V5.54458C57.0317 4.62386 57.78 3.88135 58.7079 3.88135H63.1777C64.1055 3.88135 64.8538 4.62386 64.8538 5.54458V21.7116C64.8538 23.1273 65.1232 24.3648 65.672 25.434C66.2207 26.5033 66.9989 27.325 68.0166 27.8992C69.0343 28.4734 70.2116 28.7605 71.5385 28.7605C72.8655 28.7605 74.0827 28.4734 75.0605 27.8992C76.0482 27.325 76.8164 26.5033 77.3552 25.434C77.9039 24.3648 78.1733 23.1273 78.1733 21.7116V5.54458C78.1733 4.62386 78.9216 3.88135 79.8495 3.88135H84.3193C85.2471 3.88135 85.9954 4.62386 85.9954 5.54458V21.7116C85.9954 24.5727 85.3968 27.0676 84.1995 29.206C83.0023 31.3444 81.3161 32.9978 79.1511 34.1759C76.9861 35.354 74.4219 35.9381 71.4886 35.9381L71.4986 35.9282Z" fill="#629EFF"/>
<path d="M71.4986 35.9282C68.5554 35.9282 66.0012 35.354 63.8362 34.1858C61.6711 33.0275 59.995 31.3841 58.8077 29.2456C57.6204 27.1072 57.0317 24.5925 57.0317 21.7116V5.54458C57.0317 4.62386 57.78 3.88135 58.7079 3.88135H63.1777C64.1055 3.88135 64.8538 4.62386 64.8538 5.54458V21.7116C64.8538 23.1273 65.1232 24.3648 65.672 25.434C66.2207 26.5033 66.9989 27.325 68.0166 27.8992C69.0343 28.4734 70.2116 28.7605 71.5385 28.7605C72.8655 28.7605 74.0827 28.4734 75.0605 27.8992C76.0482 27.325 76.8164 26.5033 77.3552 25.434C77.9039 24.3648 78.1733 23.1273 78.1733 21.7116V5.54458C78.1733 4.62386 78.9216 3.88135 79.8495 3.88135H84.3193C85.2471 3.88135 85.9954 4.62386 85.9954 5.54458V21.7116C85.9954 24.5727 85.3968 27.0676 84.1995 29.206C83.0023 31.3444 81.3161 32.9978 79.1511 34.1759C76.9861 35.354 74.4219 35.9381 71.4886 35.9381L71.4986 35.9282Z" stroke="#102870" mask="url(#path-13-outside-13_0_1)"/>
</g>
<g id="Vector_14">
<mask id="path-14-outside-14_0_1" maskUnits="userSpaceOnUse" x="89.8342" y="2.86157" width="31" height="34" fill="black">
<rect fill="white" x="89.8342" y="2.86157" width="31" height="34"/>
<path d="M90.8342 33.8096V5.5347C90.8342 4.61399 91.5825 3.87147 92.5104 3.87147H97.3892C97.908 3.87147 98.3869 4.10908 98.7062 4.50508L109.671 18.395C110.659 19.6425 112.674 18.9494 112.674 17.3654V5.5248C112.674 4.60409 113.423 3.86157 114.35 3.86157H118.361C119.289 3.86157 120.037 4.60409 120.037 5.5248V33.7997C120.037 34.7204 119.289 35.4629 118.361 35.4629H113.941C113.423 35.4629 112.934 35.2253 112.614 34.8194L101.2 20.2464C100.223 18.9989 98.1974 19.6821 98.1974 21.2661V33.7997C98.1974 34.7204 97.4491 35.4629 96.5212 35.4629H92.5104C91.5825 35.4629 90.8342 34.7204 90.8342 33.7997V33.8096Z"/>
</mask>
<path d="M90.8342 33.8096V5.5347C90.8342 4.61399 91.5825 3.87147 92.5104 3.87147H97.3892C97.908 3.87147 98.3869 4.10908 98.7062 4.50508L109.671 18.395C110.659 19.6425 112.674 18.9494 112.674 17.3654V5.5248C112.674 4.60409 113.423 3.86157 114.35 3.86157H118.361C119.289 3.86157 120.037 4.60409 120.037 5.5248V33.7997C120.037 34.7204 119.289 35.4629 118.361 35.4629H113.941C113.423 35.4629 112.934 35.2253 112.614 34.8194L101.2 20.2464C100.223 18.9989 98.1974 19.6821 98.1974 21.2661V33.7997C98.1974 34.7204 97.4491 35.4629 96.5212 35.4629H92.5104C91.5825 35.4629 90.8342 34.7204 90.8342 33.7997V33.8096Z" fill="#629EFF"/>
<path d="M90.8342 33.8096V5.5347C90.8342 4.61399 91.5825 3.87147 92.5104 3.87147H97.3892C97.908 3.87147 98.3869 4.10908 98.7062 4.50508L109.671 18.395C110.659 19.6425 112.674 18.9494 112.674 17.3654V5.5248C112.674 4.60409 113.423 3.86157 114.35 3.86157H118.361C119.289 3.86157 120.037 4.60409 120.037 5.5248V33.7997C120.037 34.7204 119.289 35.4629 118.361 35.4629H113.941C113.423 35.4629 112.934 35.2253 112.614 34.8194L101.2 20.2464C100.223 18.9989 98.1974 19.6821 98.1974 21.2661V33.7997C98.1974 34.7204 97.4491 35.4629 96.5212 35.4629H92.5104C91.5825 35.4629 90.8342 34.7204 90.8342 33.7997V33.8096Z" stroke="#102870" mask="url(#path-14-outside-14_0_1)"/>
</g>
<g id="Vector_15">
<mask id="path-15-outside-15_0_1" maskUnits="userSpaceOnUse" x="124.326" y="2.87158" width="10" height="34" fill="black">
<rect fill="white" x="124.326" y="2.87158" width="10" height="34"/>
<path d="M125.326 33.8097V5.53481C125.326 4.6141 126.074 3.87158 127.002 3.87158H131.472C132.399 3.87158 133.148 4.6141 133.148 5.53481V33.8097C133.148 34.7304 132.399 35.473 131.472 35.473H127.002C126.074 35.473 125.326 34.7304 125.326 33.8097Z"/>
</mask>
<path d="M125.326 33.8097V5.53481C125.326 4.6141 126.074 3.87158 127.002 3.87158H131.472C132.399 3.87158 133.148 4.6141 133.148 5.53481V33.8097C133.148 34.7304 132.399 35.473 131.472 35.473H127.002C126.074 35.473 125.326 34.7304 125.326 33.8097Z" fill="#629EFF"/>
<path d="M125.326 33.8097V5.53481C125.326 4.6141 126.074 3.87158 127.002 3.87158H131.472C132.399 3.87158 133.148 4.6141 133.148 5.53481V33.8097C133.148 34.7304 132.399 35.473 131.472 35.473H127.002C126.074 35.473 125.326 34.7304 125.326 33.8097Z" stroke="#102870" mask="url(#path-15-outside-15_0_1)"/>
</g>
<g id="Vector_16">
<mask id="path-16-outside-16_0_1" maskUnits="userSpaceOnUse" x="135.265" y="2.86157" width="35" height="34" fill="black">
<rect fill="white" x="135.265" y="2.86157" width="35" height="34"/>
<path d="M147.914 34.4333L136.39 6.15841C135.941 5.05949 136.759 3.87147 137.946 3.87147H142.765C143.464 3.87147 144.082 4.29718 144.332 4.94069L151.426 23.355C151.974 24.7807 154 24.7807 154.558 23.3649L161.802 4.92089C162.051 4.27738 162.67 3.86157 163.368 3.86157H167.868C169.065 3.86157 169.873 5.05949 169.424 6.15841L157.741 34.4333C157.482 35.057 156.873 35.4629 156.185 35.4629H149.48C148.792 35.4629 148.183 35.0471 147.924 34.4234H147.914V34.4333Z"/>
</mask>
<path d="M147.914 34.4333L136.39 6.15841C135.941 5.05949 136.759 3.87147 137.946 3.87147H142.765C143.464 3.87147 144.082 4.29718 144.332 4.94069L151.426 23.355C151.974 24.7807 154 24.7807 154.558 23.3649L161.802 4.92089C162.051 4.27738 162.67 3.86157 163.368 3.86157H167.868C169.065 3.86157 169.873 5.05949 169.424 6.15841L157.741 34.4333C157.482 35.057 156.873 35.4629 156.185 35.4629H149.48C148.792 35.4629 148.183 35.0471 147.924 34.4234H147.914V34.4333Z" fill="#629EFF"/>
<path d="M147.914 34.4333L136.39 6.15841C135.941 5.05949 136.759 3.87147 137.946 3.87147H142.765C143.464 3.87147 144.082 4.29718 144.332 4.94069L151.426 23.355C151.974 24.7807 154 24.7807 154.558 23.3649L161.802 4.92089C162.051 4.27738 162.67 3.86157 163.368 3.86157H167.868C169.065 3.86157 169.873 5.05949 169.424 6.15841L157.741 34.4333C157.482 35.057 156.873 35.4629 156.185 35.4629H149.48C148.792 35.4629 148.183 35.0471 147.924 34.4234H147.914V34.4333Z" stroke="#102870" mask="url(#path-16-outside-16_0_1)"/>
</g>
<g id="Vector_17">
<mask id="path-17-outside-17_0_1" maskUnits="userSpaceOnUse" x="171.677" y="2.87158" width="27" height="34" fill="black">
<rect fill="white" x="171.677" y="2.87158" width="27" height="34"/>
<path d="M172.677 33.8097V5.53481C172.677 4.6141 173.425 3.87158 174.353 3.87158H196.113C197.041 3.87158 197.789 4.6141 197.789 5.53481V8.93057C197.789 9.85129 197.041 10.5938 196.113 10.5938H182.175C181.247 10.5938 180.499 11.3363 180.499 12.257V14.6133C180.499 15.534 181.247 16.2765 182.175 16.2765H190.237C191.165 16.2765 191.913 17.019 191.913 17.9397V21.1078C191.913 22.0285 191.165 22.771 190.237 22.771H182.175C181.247 22.771 180.499 23.5135 180.499 24.4343V27.0677C180.499 27.9884 181.247 28.7309 182.175 28.7309H196.293C197.221 28.7309 197.969 29.4735 197.969 30.3942V33.7899C197.969 34.7106 197.221 35.4532 196.293 35.4532H174.353C173.425 35.4532 172.677 34.7106 172.677 33.7899V33.8097Z"/>
</mask>
<path d="M172.677 33.8097V5.53481C172.677 4.6141 173.425 3.87158 174.353 3.87158H196.113C197.041 3.87158 197.789 4.6141 197.789 5.53481V8.93057C197.789 9.85129 197.041 10.5938 196.113 10.5938H182.175C181.247 10.5938 180.499 11.3363 180.499 12.257V14.6133C180.499 15.534 181.247 16.2765 182.175 16.2765H190.237C191.165 16.2765 191.913 17.019 191.913 17.9397V21.1078C191.913 22.0285 191.165 22.771 190.237 22.771H182.175C181.247 22.771 180.499 23.5135 180.499 24.4343V27.0677C180.499 27.9884 181.247 28.7309 182.175 28.7309H196.293C197.221 28.7309 197.969 29.4735 197.969 30.3942V33.7899C197.969 34.7106 197.221 35.4532 196.293 35.4532H174.353C173.425 35.4532 172.677 34.7106 172.677 33.7899V33.8097Z" fill="#629EFF"/>
<path d="M172.677 33.8097V5.53481C172.677 4.6141 173.425 3.87158 174.353 3.87158H196.113C197.041 3.87158 197.789 4.6141 197.789 5.53481V8.93057C197.789 9.85129 197.041 10.5938 196.113 10.5938H182.175C181.247 10.5938 180.499 11.3363 180.499 12.257V14.6133C180.499 15.534 181.247 16.2765 182.175 16.2765H190.237C191.165 16.2765 191.913 17.019 191.913 17.9397V21.1078C191.913 22.0285 191.165 22.771 190.237 22.771H182.175C181.247 22.771 180.499 23.5135 180.499 24.4343V27.0677C180.499 27.9884 181.247 28.7309 182.175 28.7309H196.293C197.221 28.7309 197.969 29.4735 197.969 30.3942V33.7899C197.969 34.7106 197.221 35.4532 196.293 35.4532H174.353C173.425 35.4532 172.677 34.7106 172.677 33.7899V33.8097Z" stroke="#102870" mask="url(#path-17-outside-17_0_1)"/>
</g>
<g id="Vector_18">
<mask id="path-18-outside-18_0_1" maskUnits="userSpaceOnUse" x="201.568" y="2.87158" width="30" height="34" fill="black">
<rect fill="white" x="201.568" y="2.87158" width="30" height="34"/>
<path d="M202.568 33.8097V5.53481C202.568 4.6141 203.316 3.87158 204.244 3.87158H218.851C221.036 3.87158 222.971 4.29729 224.677 5.15861C226.374 6.01992 227.701 7.20794 228.658 8.72267C229.616 10.2473 230.095 11.9798 230.095 13.9401C230.095 15.9003 229.546 17.7021 228.459 19.2664C227.671 20.395 226.703 21.3256 225.555 22.0681C224.797 22.5532 224.508 23.5135 224.947 24.2957L229.746 33.0177C230.355 34.1265 229.546 35.4829 228.269 35.4829H223.38C222.752 35.4829 222.183 35.1364 221.894 34.5819L216.825 24.8699C216.536 24.3155 215.967 23.9689 215.339 23.9689H212.076C211.148 23.9689 210.4 24.7115 210.4 25.6322V33.8196C210.4 34.7403 209.652 35.4829 208.724 35.4829H204.254C203.326 35.4829 202.578 34.7403 202.578 33.8196H202.568V33.8097ZM210.39 15.9795C210.39 16.9002 211.138 17.6427 212.066 17.6427H218.122C219.34 17.6427 220.317 17.316 221.056 16.6527C221.794 15.9894 222.173 15.138 222.173 14.0787C222.173 13.0193 221.804 12.1679 221.056 11.5046C220.307 10.8413 219.33 10.5146 218.122 10.5146H212.066C211.138 10.5146 210.39 11.2571 210.39 12.1778V15.9795Z"/>
</mask>
<path d="M202.568 33.8097V5.53481C202.568 4.6141 203.316 3.87158 204.244 3.87158H218.851C221.036 3.87158 222.971 4.29729 224.677 5.15861C226.374 6.01992 227.701 7.20794 228.658 8.72267C229.616 10.2473 230.095 11.9798 230.095 13.9401C230.095 15.9003 229.546 17.7021 228.459 19.2664C227.671 20.395 226.703 21.3256 225.555 22.0681C224.797 22.5532 224.508 23.5135 224.947 24.2957L229.746 33.0177C230.355 34.1265 229.546 35.4829 228.269 35.4829H223.38C222.752 35.4829 222.183 35.1364 221.894 34.5819L216.825 24.8699C216.536 24.3155 215.967 23.9689 215.339 23.9689H212.076C211.148 23.9689 210.4 24.7115 210.4 25.6322V33.8196C210.4 34.7403 209.652 35.4829 208.724 35.4829H204.254C203.326 35.4829 202.578 34.7403 202.578 33.8196H202.568V33.8097ZM210.39 15.9795C210.39 16.9002 211.138 17.6427 212.066 17.6427H218.122C219.34 17.6427 220.317 17.316 221.056 16.6527C221.794 15.9894 222.173 15.138 222.173 14.0787C222.173 13.0193 221.804 12.1679 221.056 11.5046C220.307 10.8413 219.33 10.5146 218.122 10.5146H212.066C211.138 10.5146 210.39 11.2571 210.39 12.1778V15.9795Z" fill="#629EFF"/>
<path d="M202.568 33.8097V5.53481C202.568 4.6141 203.316 3.87158 204.244 3.87158H218.851C221.036 3.87158 222.971 4.29729 224.677 5.15861C226.374 6.01992 227.701 7.20794 228.658 8.72267C229.616 10.2473 230.095 11.9798 230.095 13.9401C230.095 15.9003 229.546 17.7021 228.459 19.2664C227.671 20.395 226.703 21.3256 225.555 22.0681C224.797 22.5532 224.508 23.5135 224.947 24.2957L229.746 33.0177C230.355 34.1265 229.546 35.4829 228.269 35.4829H223.38C222.752 35.4829 222.183 35.1364 221.894 34.5819L216.825 24.8699C216.536 24.3155 215.967 23.9689 215.339 23.9689H212.076C211.148 23.9689 210.4 24.7115 210.4 25.6322V33.8196C210.4 34.7403 209.652 35.4829 208.724 35.4829H204.254C203.326 35.4829 202.578 34.7403 202.578 33.8196H202.568V33.8097ZM210.39 15.9795C210.39 16.9002 211.138 17.6427 212.066 17.6427H218.122C219.34 17.6427 220.317 17.316 221.056 16.6527C221.794 15.9894 222.173 15.138 222.173 14.0787C222.173 13.0193 221.804 12.1679 221.056 11.5046C220.307 10.8413 219.33 10.5146 218.122 10.5146H212.066C211.138 10.5146 210.39 11.2571 210.39 12.1778V15.9795Z" stroke="#102870" mask="url(#path-18-outside-18_0_1)"/>
</g>
<g id="Vector_19">
<mask id="path-19-outside-19_0_1" maskUnits="userSpaceOnUse" x="231.576" y="2.43579" width="30" height="35" fill="black">
<rect fill="white" x="231.576" y="2.43579" width="30" height="35"/>
<path d="M246.288 35.9282C243.714 35.9282 241.16 35.4629 238.645 34.5323C236.69 33.8095 234.894 32.869 233.268 31.7008C232.499 31.1563 232.35 30.0772 232.928 29.3347L235.253 26.325C235.812 25.6023 236.849 25.4736 237.578 26.0082C239.024 27.0576 240.371 27.8496 241.639 28.3644C243.275 29.0377 245.021 29.3842 246.867 29.3842C248.084 29.3842 249.111 29.2654 249.959 29.0278C250.808 28.7902 251.456 28.4337 251.915 27.9684C252.374 27.5031 252.593 26.9487 252.593 26.325C252.593 25.4538 252.264 24.7707 251.596 24.2955C250.927 23.8104 249.79 23.4342 248.184 23.1669L241.18 21.9491C238.605 21.4937 236.61 20.5235 235.223 19.0187C233.826 17.5138 233.128 15.6031 233.128 13.2865C233.128 11.2371 233.647 9.4749 234.694 7.99977C235.742 6.52465 237.239 5.39603 239.194 4.61391C241.15 3.8318 243.474 3.43579 246.178 3.43579C248.543 3.43579 250.927 3.8318 253.322 4.63371C255.118 5.22772 256.734 5.99994 258.171 6.95036C258.959 7.46516 259.138 8.53438 258.59 9.2967L256.395 12.3361C255.866 13.0687 254.848 13.237 254.09 12.742C251.256 10.8708 248.443 9.94021 245.639 9.94021C244.582 9.94021 243.664 10.0491 242.886 10.2768C241.728 10.6134 240.97 11.1579 240.631 11.9004C240.561 12.0489 240.521 12.2173 240.511 12.3757C240.421 13.3063 240.721 14.0191 241.379 14.4943C241.968 14.92 242.936 15.2467 244.272 15.4843L250.867 16.5634C253.93 17.0485 256.255 18.0485 257.851 19.5929C259.448 21.1373 260.236 23.1174 260.236 25.5528C260.236 27.6912 259.677 29.5327 258.55 31.087C257.422 32.6413 255.816 33.8293 253.731 34.6808C251.636 35.5223 249.151 35.948 246.268 35.948L246.288 35.9282Z"/>
</mask>
<path d="M246.288 35.9282C243.714 35.9282 241.16 35.4629 238.645 34.5323C236.69 33.8095 234.894 32.869 233.268 31.7008C232.499 31.1563 232.35 30.0772 232.928 29.3347L235.253 26.325C235.812 25.6023 236.849 25.4736 237.578 26.0082C239.024 27.0576 240.371 27.8496 241.639 28.3644C243.275 29.0377 245.021 29.3842 246.867 29.3842C248.084 29.3842 249.111 29.2654 249.959 29.0278C250.808 28.7902 251.456 28.4337 251.915 27.9684C252.374 27.5031 252.593 26.9487 252.593 26.325C252.593 25.4538 252.264 24.7707 251.596 24.2955C250.927 23.8104 249.79 23.4342 248.184 23.1669L241.18 21.9491C238.605 21.4937 236.61 20.5235 235.223 19.0187C233.826 17.5138 233.128 15.6031 233.128 13.2865C233.128 11.2371 233.647 9.4749 234.694 7.99977C235.742 6.52465 237.239 5.39603 239.194 4.61391C241.15 3.8318 243.474 3.43579 246.178 3.43579C248.543 3.43579 250.927 3.8318 253.322 4.63371C255.118 5.22772 256.734 5.99994 258.171 6.95036C258.959 7.46516 259.138 8.53438 258.59 9.2967L256.395 12.3361C255.866 13.0687 254.848 13.237 254.09 12.742C251.256 10.8708 248.443 9.94021 245.639 9.94021C244.582 9.94021 243.664 10.0491 242.886 10.2768C241.728 10.6134 240.97 11.1579 240.631 11.9004C240.561 12.0489 240.521 12.2173 240.511 12.3757C240.421 13.3063 240.721 14.0191 241.379 14.4943C241.968 14.92 242.936 15.2467 244.272 15.4843L250.867 16.5634C253.93 17.0485 256.255 18.0485 257.851 19.5929C259.448 21.1373 260.236 23.1174 260.236 25.5528C260.236 27.6912 259.677 29.5327 258.55 31.087C257.422 32.6413 255.816 33.8293 253.731 34.6808C251.636 35.5223 249.151 35.948 246.268 35.948L246.288 35.9282Z" fill="#629EFF"/>
<path d="M246.288 35.9282C243.714 35.9282 241.16 35.4629 238.645 34.5323C236.69 33.8095 234.894 32.869 233.268 31.7008C232.499 31.1563 232.35 30.0772 232.928 29.3347L235.253 26.325C235.812 25.6023 236.849 25.4736 237.578 26.0082C239.024 27.0576 240.371 27.8496 241.639 28.3644C243.275 29.0377 245.021 29.3842 246.867 29.3842C248.084 29.3842 249.111 29.2654 249.959 29.0278C250.808 28.7902 251.456 28.4337 251.915 27.9684C252.374 27.5031 252.593 26.9487 252.593 26.325C252.593 25.4538 252.264 24.7707 251.596 24.2955C250.927 23.8104 249.79 23.4342 248.184 23.1669L241.18 21.9491C238.605 21.4937 236.61 20.5235 235.223 19.0187C233.826 17.5138 233.128 15.6031 233.128 13.2865C233.128 11.2371 233.647 9.4749 234.694 7.99977C235.742 6.52465 237.239 5.39603 239.194 4.61391C241.15 3.8318 243.474 3.43579 246.178 3.43579C248.543 3.43579 250.927 3.8318 253.322 4.63371C255.118 5.22772 256.734 5.99994 258.171 6.95036C258.959 7.46516 259.138 8.53438 258.59 9.2967L256.395 12.3361C255.866 13.0687 254.848 13.237 254.09 12.742C251.256 10.8708 248.443 9.94021 245.639 9.94021C244.582 9.94021 243.664 10.0491 242.886 10.2768C241.728 10.6134 240.97 11.1579 240.631 11.9004C240.561 12.0489 240.521 12.2173 240.511 12.3757C240.421 13.3063 240.721 14.0191 241.379 14.4943C241.968 14.92 242.936 15.2467 244.272 15.4843L250.867 16.5634C253.93 17.0485 256.255 18.0485 257.851 19.5929C259.448 21.1373 260.236 23.1174 260.236 25.5528C260.236 27.6912 259.677 29.5327 258.55 31.087C257.422 32.6413 255.816 33.8293 253.731 34.6808C251.636 35.5223 249.151 35.948 246.268 35.948L246.288 35.9282Z" stroke="#102870" mask="url(#path-19-outside-19_0_1)"/>
</g>
<g id="Vector_20">
<mask id="path-20-outside-20_0_1" maskUnits="userSpaceOnUse" x="262.847" y="2.87158" width="27" height="34" fill="black">
<rect fill="white" x="262.847" y="2.87158" width="27" height="34"/>
<path d="M263.847 33.8097V5.53481C263.847 4.6141 264.595 3.87158 265.523 3.87158H287.283C288.211 3.87158 288.96 4.6141 288.96 5.53481V8.93057C288.96 9.85129 288.211 10.5938 287.283 10.5938H273.345C272.418 10.5938 271.669 11.3363 271.669 12.257V14.6133C271.669 15.534 272.418 16.2765 273.345 16.2765H281.407C282.335 16.2765 283.083 17.019 283.083 17.9397V21.1078C283.083 22.0285 282.335 22.771 281.407 22.771H273.345C272.418 22.771 271.669 23.5135 271.669 24.4343V27.0677C271.669 27.9884 272.418 28.7309 273.345 28.7309H287.463C288.391 28.7309 289.139 29.4735 289.139 30.3942V33.7899C289.139 34.7106 288.391 35.4532 287.463 35.4532H265.523C264.595 35.4532 263.847 34.7106 263.847 33.7899V33.8097Z"/>
</mask>
<path d="M263.847 33.8097V5.53481C263.847 4.6141 264.595 3.87158 265.523 3.87158H287.283C288.211 3.87158 288.96 4.6141 288.96 5.53481V8.93057C288.96 9.85129 288.211 10.5938 287.283 10.5938H273.345C272.418 10.5938 271.669 11.3363 271.669 12.257V14.6133C271.669 15.534 272.418 16.2765 273.345 16.2765H281.407C282.335 16.2765 283.083 17.019 283.083 17.9397V21.1078C283.083 22.0285 282.335 22.771 281.407 22.771H273.345C272.418 22.771 271.669 23.5135 271.669 24.4343V27.0677C271.669 27.9884 272.418 28.7309 273.345 28.7309H287.463C288.391 28.7309 289.139 29.4735 289.139 30.3942V33.7899C289.139 34.7106 288.391 35.4532 287.463 35.4532H265.523C264.595 35.4532 263.847 34.7106 263.847 33.7899V33.8097Z" fill="#629EFF"/>
<path d="M263.847 33.8097V5.53481C263.847 4.6141 264.595 3.87158 265.523 3.87158H287.283C288.211 3.87158 288.96 4.6141 288.96 5.53481V8.93057C288.96 9.85129 288.211 10.5938 287.283 10.5938H273.345C272.418 10.5938 271.669 11.3363 271.669 12.257V14.6133C271.669 15.534 272.418 16.2765 273.345 16.2765H281.407C282.335 16.2765 283.083 17.019 283.083 17.9397V21.1078C283.083 22.0285 282.335 22.771 281.407 22.771H273.345C272.418 22.771 271.669 23.5135 271.669 24.4343V27.0677C271.669 27.9884 272.418 28.7309 273.345 28.7309H287.463C288.391 28.7309 289.139 29.4735 289.139 30.3942V33.7899C289.139 34.7106 288.391 35.4532 287.463 35.4532H265.523C264.595 35.4532 263.847 34.7106 263.847 33.7899V33.8097Z" stroke="#102870" mask="url(#path-20-outside-20_0_1)"/>
</g>
</g>
</g>
</g>
</svg>
