<svg width="182" height="68" viewBox="0 0 182 68" fill="none" xmlns="http://www.w3.org/2000/svg">
<path d="M80.2388 6H76.7614C75.7886 6 75 6.79675 75 7.77958V30.2205C75 31.2033 75.7886 32 76.7614 32H80.2388C81.2115 32 82 31.2033 82 30.2205V7.77958C82 6.79675 81.2115 6 80.2388 6Z" fill="#629EFF"/>
<path d="M80.0423 6.88166C80.6815 6.88166 81.2009 7.45474 81.2009 8.16007V29.84C81.2009 30.5453 80.6815 31.1183 80.0423 31.1183H76.9578C76.3186 31.1183 75.7991 30.5453 75.7991 29.84V8.16007C75.7991 7.45474 76.3186 6.88166 76.9578 6.88166H80.0423ZM80.0423 6H76.9578C75.8791 6 75 6.96983 75 8.16007V29.84C75 31.0302 75.8791 32 76.9578 32H80.0423C81.121 32 82 31.0302 82 29.84V8.16007C82 6.96983 81.121 6 80.0423 6Z" fill="#629EFF"/>
<path d="M86.7277 32C85.7797 32 85 31.2061 85 30.2205V7.77958C85 6.8031 85.7708 6 86.7277 6H98.2815C99.9473 6 101.454 6.3742 102.756 7.1134C104.058 7.85261 105.104 8.88382 105.857 10.1615C106.619 11.4482 107 12.9358 107 14.5876C107 16.2394 106.619 17.6174 105.857 18.8951C105.104 20.1636 104.05 21.1766 102.729 21.9066C101.418 22.6367 99.9207 23.0018 98.2727 23.0018H92.6995C92.2388 23.0018 91.8578 23.3942 91.8578 23.8687V30.2205C91.8578 31.197 91.087 32 90.1301 32H86.7101H86.7277ZM92.7084 12.1875C92.2477 12.1875 91.8667 12.5799 91.8667 13.0544V16.1481C91.8667 16.6227 92.2477 17.0151 92.7084 17.0151H97.5815C98.3524 17.0151 98.9461 16.7961 99.3979 16.3489C99.8409 15.9109 100.062 15.3451 100.062 14.6332C100.062 13.9214 99.8409 13.3191 99.3979 12.8628C98.9461 12.4065 98.3524 12.1875 97.5815 12.1875H92.7084Z" fill="#629EFF"/>
<path d="M98.7911 6.87283C100.402 6.87283 101.825 7.21671 103.071 7.89558C104.317 8.57445 105.304 9.50899 106.025 10.6816C106.745 11.863 107.11 13.212 107.11 14.7284C107.11 16.2449 106.745 17.4968 106.025 18.6606C105.304 19.8243 104.316 20.7413 103.053 21.4113C101.799 22.0814 100.375 22.4164 98.7911 22.4164H93.1946C92.4828 22.4164 91.9045 22.9895 91.9045 23.6948V29.8312C91.9045 30.5365 91.3262 31.1095 90.6144 31.1095H87.1798C86.468 31.1095 85.8897 30.5365 85.8897 29.8312V8.15124C85.8897 7.44592 86.468 6.87283 87.1798 6.87283H98.7822M93.1857 17.4968H98.0793C98.9601 17.4968 99.6719 17.2411 100.215 16.7386C100.749 16.2272 101.015 15.5748 101.015 14.7637C101.015 13.9525 100.749 13.256 100.215 12.7359C99.6808 12.2157 98.969 11.96 98.0793 11.96H93.1857C92.4739 11.96 91.8956 12.5331 91.8956 13.2384V16.2272C91.8956 16.9325 92.4739 17.5056 93.1857 17.5056M98.7822 6H87.1798C85.9787 6 85 6.96983 85 8.16007V29.8399C85 31.0302 85.9787 32 87.1798 32H90.6144C91.8155 32 92.7942 31.0302 92.7942 29.8399V23.7036C92.7942 23.4832 92.9721 23.3069 93.1946 23.3069H98.7911C100.517 23.3069 102.092 22.9366 103.471 22.196C104.859 21.4554 105.971 20.4239 106.781 19.1279C107.591 17.823 108 16.3506 108 14.7372C108 13.1237 107.591 11.5456 106.79 10.2319C105.989 8.92708 104.886 7.88677 103.507 7.12854C102.137 6.37914 100.544 6 98.8 6H98.7822ZM93.1857 16.6239C92.9632 16.6239 92.7853 16.4476 92.7853 16.2272V13.2384C92.7853 13.018 92.9632 12.8417 93.1857 12.8417H98.0793C98.7288 12.8417 99.2182 13.018 99.5919 13.3706C99.9478 13.7233 100.126 14.1729 100.126 14.7637C100.126 15.3544 99.9567 15.7599 99.6008 16.095C99.236 16.4476 98.7377 16.6151 98.0882 16.6151H93.1946L93.1857 16.6239Z" fill="#629EFF"/>
<path d="M11.9723 68C9.56493 68 7.43428 67.523 5.65411 66.587C3.8555 65.6421 2.44424 64.2831 1.46653 62.5372C0.488823 60.8093 0 58.7484 0 56.4175V43.764C0 42.801 0.802414 42.009 1.79857 42.009H5.35889C6.34582 42.009 7.15757 42.792 7.15757 43.764V56.4175C7.15757 57.4434 7.36041 58.3614 7.75702 59.1264C8.14442 59.8823 8.71635 60.4673 9.43579 60.8633C10.1737 61.2683 11.0408 61.4753 12.0185 61.4753C12.9962 61.4753 13.8816 61.2683 14.5918 60.8633C15.2928 60.4583 15.8555 59.8733 16.2429 59.1174C16.6395 58.3524 16.8424 57.4344 16.8424 56.4084V43.7549C16.8424 42.792 17.6448 42 18.641 42H22.2013C23.1883 42 24 42.783 24 43.7549V56.4084C24 58.7124 23.5018 60.7643 22.5149 62.4922C21.5187 64.2292 20.1076 65.5971 18.309 66.56C16.5196 67.514 14.3981 67.991 11.9815 67.991L11.9723 68Z" fill="#629EFF"/>
<path d="M21.8408 41.9036C22.5516 41.9036 23.1292 42.491 23.1292 43.2139V55.9187C23.1292 58.1687 22.6671 60.1295 21.7519 61.8102C20.8367 63.4909 19.5394 64.7921 17.8778 65.7138C16.2162 66.6355 14.2525 67.0964 11.9956 67.0964C9.73861 67.0964 7.7749 66.6446 6.11329 65.7319C4.45169 64.8193 3.16331 63.5271 2.25698 61.8464C1.35065 60.1657 0.897454 58.1958 0.897454 55.9187V43.2139C0.897454 42.491 1.47497 41.9036 2.18582 41.9036H5.61565C6.3265 41.9036 6.90412 42.491 6.90412 43.2139V55.9187C6.90412 57.0301 7.11734 58.006 7.53497 58.8464C7.95259 59.6867 8.55683 60.3283 9.32987 60.7801C10.1118 61.2319 11.0093 61.4578 12.0311 61.4578C13.053 61.4578 13.977 61.2319 14.7323 60.7801C15.4876 60.3283 16.074 59.6867 16.4916 58.8464C16.9092 58.006 17.1226 57.0301 17.1226 55.9187V43.2139C17.1226 42.491 17.7001 41.9036 18.4109 41.9036H21.8408ZM21.8408 41H18.4109C17.2114 41 16.234 41.994 16.234 43.2139V55.9187C16.234 56.8855 16.0563 57.7259 15.7009 58.4397C15.3543 59.1265 14.8922 59.6415 14.2791 60.003C13.666 60.3644 12.9019 60.5542 12.0222 60.5542C11.1426 60.5542 10.405 60.3735 9.75637 59.994C9.12549 59.6325 8.65456 59.1265 8.3169 58.4397C7.96148 57.7349 7.78379 56.8855 7.78379 55.9187V43.2139C7.78379 41.994 6.80631 41 5.60675 41H2.17693C0.977372 41 0 41.994 0 43.2139V55.9187C0 58.3313 0.497615 60.4729 1.46614 62.2801C2.45245 64.1054 3.87413 65.5331 5.67791 66.5271C7.46391 67.503 9.58754 68 11.9778 68C14.368 68 16.4916 67.494 18.2865 66.509C20.0903 65.506 21.512 64.0783 22.5072 62.253C23.4935 60.4458 24 58.3133 24 55.9277V43.2229C24 42.003 23.0225 41.009 21.823 41.009L21.8408 41Z" fill="#629EFF"/>
<path d="M44.9542 67C44.4189 67 43.9275 66.7631 43.6028 66.3419L34.9592 55.2152C34.7925 55.0046 34.5643 54.8905 34.3099 54.8905C33.8974 54.8905 33.4675 55.2064 33.4675 55.7241V65.2889C33.4675 66.2278 32.704 67 31.7562 67H28.7112C27.7723 67 27 66.2366 27 65.2889V43.7111C27 42.7722 27.7635 42 28.7112 42H32.4056C32.9321 42 33.4235 42.2369 33.7482 42.6581L42.0496 53.2584C42.2602 53.5216 42.5146 53.583 42.6901 53.583C43.1026 53.583 43.5326 53.2671 43.5326 52.7494V43.7111C43.5326 42.7722 44.296 42 45.2438 42H48.2888C49.2277 42 50 42.7634 50 43.7111V65.2889C50 66.2278 49.2365 67 48.2888 67H44.9454H44.9542Z" fill="#629EFF"/>
<path d="M48.7581 41.9241C49.4931 41.9241 50.0904 42.5188 50.0904 43.2508V65.7492C50.0904 66.4812 49.4931 67.0759 48.7581 67.0759H45.2576C44.8442 67.0759 44.4583 66.8838 44.2102 66.5635L35.1603 54.9621C34.8847 54.6052 34.4988 54.4497 34.1221 54.4497C33.4422 54.4497 32.7806 54.9621 32.7806 55.7764V65.7492C32.7806 66.4812 32.1834 67.0759 31.4484 67.0759H28.2603C27.5252 67.0759 26.928 66.4812 26.928 65.7492V43.2508C26.928 42.5188 27.5252 41.9241 28.2603 41.9241H32.1283C32.5325 41.9241 32.9276 42.1071 33.1757 42.4273L41.8673 53.4798C42.1429 53.8367 42.5288 53.9922 42.9055 53.9922C43.5854 53.9922 44.247 53.4798 44.247 52.6655V43.2416C44.247 42.5097 44.8442 41.9149 45.5792 41.9149H48.7673M48.7673 41H45.5792C44.3388 41 43.3282 42.0064 43.3282 43.2416V52.6655C43.3282 53.0041 43.025 53.0773 42.9055 53.0773C42.7769 53.0773 42.6759 53.0224 42.5932 52.9217L33.8924 41.8692C33.4606 41.3202 32.8174 41.0092 32.1191 41.0092H28.2511C27.0107 41.0092 26 42.0156 26 43.2508V65.7492C26 66.9844 27.0107 67.9908 28.2511 67.9908H31.4392C32.6795 67.9908 33.6903 66.9844 33.6903 65.7492V55.7764C33.6903 55.6483 33.7269 55.5568 33.8096 55.4836C33.8923 55.4104 34.0026 55.3646 34.1129 55.3646C34.2415 55.3646 34.3425 55.4195 34.4252 55.5293L43.4752 67.1308C43.907 67.6798 44.5502 68 45.2484 68H48.7489C49.9893 68 51 66.9935 51 65.7584V43.2599C51 42.0248 49.9893 41.0183 48.7489 41.0183L48.7673 41Z" fill="#629EFF"/>
<path d="M54.7591 42H58.241C59.2153 42 60 42.7634 60 43.7111V65.2889C60 66.2278 59.2153 67 58.241 67H54.7591C53.7939 67 53 66.2366 53 65.2889V43.7111C53 42.7634 53.7849 42 54.7591 42Z" fill="#629EFF"/>
<path d="M58.7626 41.9156C59.4932 41.9156 60.0868 42.5107 60.0868 43.2431V65.7569C60.0868 66.4893 59.4932 67.0844 58.7626 67.0844H55.2375C54.5069 67.0844 53.9132 66.4893 53.9132 65.7569V43.2431C53.9132 42.5107 54.5069 41.9156 55.2375 41.9156H58.7626ZM58.7626 41H55.2375C54.0046 41 53 42.0071 53 43.2431V65.7569C53 66.9929 54.0046 68 55.2375 68H58.7626C59.9955 68 61 66.9929 61 65.7569V43.2431C61 42.0071 59.9955 41 58.7626 41Z" fill="#629EFF"/>
<path d="M72.8064 67C72.0793 67 71.434 66.5788 71.1614 65.9295L62.1277 44.3517C61.9096 43.8252 61.9732 43.2285 62.3004 42.7546C62.6275 42.2808 63.1819 42 63.7636 42H67.5443C68.2713 42 68.9347 42.4388 69.1983 43.0969L74.7603 57.1545C74.9148 57.5493 75.2783 57.6897 75.5691 57.6897C75.8599 57.6897 76.2144 57.5493 76.3689 57.1632L82.049 43.0881C82.3126 42.43 82.967 42 83.7031 42H87.2294C87.8201 42 88.3745 42.2808 88.7017 42.7546C89.0288 43.2285 89.0924 43.8252 88.8652 44.3517L79.7043 65.9295C79.4317 66.5701 78.7864 66.9912 78.0684 66.9912H72.8064V67Z" fill="#629EFF"/>
<path d="M86.7814 41.9153C87.7208 41.9153 88.3592 42.8671 88.0035 43.7458L78.81 66.2518C78.6094 66.7461 78.126 67.0756 77.5879 67.0756H72.3073C71.7692 67.0756 71.2857 66.7461 71.0851 66.2427L62.0194 43.7366C61.6728 42.8671 62.3112 41.9153 63.2415 41.9153H67.0356C67.5829 41.9153 68.0753 42.2539 68.2669 42.7664L73.8486 57.4288C74.0675 57.9963 74.5691 58.28 75.0798 58.28C75.5906 58.28 76.0922 57.9963 76.311 57.438L82.0113 42.7573C82.212 42.2447 82.6954 41.9153 83.2427 41.9153H86.7814ZM86.7814 41H83.2427C82.3124 41 81.5006 41.5583 81.1632 42.4278L75.4629 57.1085C75.3717 57.3373 75.1893 57.3739 75.0798 57.3739C74.9704 57.3739 74.788 57.3373 74.6968 57.1085L69.1151 42.4461C68.7868 41.5858 67.9477 41.0092 67.0265 41.0092H63.2324C62.4936 41.0092 61.8004 41.3752 61.3809 41.9976C60.9614 42.62 60.8884 43.398 61.162 44.0936L70.2278 66.5996C70.5744 67.4508 71.3861 68 72.2981 68H77.5788C78.4908 68 79.3026 67.4508 79.64 66.6088L88.8335 44.1027C89.1162 43.4071 89.0341 42.6291 88.6236 42.0068C88.2041 41.3844 87.511 41.0183 86.7723 41.0183L86.7814 41Z" fill="#629EFF"/>
<path d="M91.7938 66.9737C90.8095 66.9737 90 66.211 90 65.2643V43.7093C90 42.7714 90.8003 42 91.7938 42H109.068C110.052 42 110.862 42.7626 110.862 43.7093V46.304C110.862 47.2419 110.062 48.0133 109.068 48.0133H98.0027C97.5244 48.0133 97.1288 48.3902 97.1288 48.8461V50.643C97.1288 51.0989 97.5152 51.4758 98.0027 51.4758H104.405C105.389 51.4758 106.198 52.2384 106.198 53.1851V55.6045C106.198 56.5424 105.398 57.3138 104.405 57.3138H98.0027C97.5244 57.3138 97.1288 57.6907 97.1288 58.1465V60.1539C97.1288 60.6098 97.5152 60.9866 98.0027 60.9866H109.206C110.19 60.9866 111 61.7493 111 62.696V65.2907C111 66.2286 110.2 67 109.206 67H91.7845L91.7938 66.9737Z" fill="#629EFF"/>
<path d="M108.71 41.9146C109.414 41.9146 109.987 42.5092 109.987 43.2409V45.9481C109.987 46.6798 109.414 47.2744 108.71 47.2744H98.1129C97.4082 47.2744 96.8356 47.8689 96.8356 48.6006V50.4756C96.8356 51.2073 97.4082 51.8018 98.1129 51.8018H104.244C104.948 51.8018 105.521 52.3963 105.521 53.128V55.6524C105.521 56.3842 104.948 56.9786 104.244 56.9786H98.1129C97.4082 56.9786 96.8356 57.5731 96.8356 58.3049V60.3994C96.8356 61.1311 97.4082 61.7256 98.1129 61.7256H108.842C109.547 61.7256 110.119 62.3201 110.119 63.0518V65.7591C110.119 66.4908 109.547 67.0854 108.842 67.0854H92.1582C91.4535 67.0854 90.8809 66.4908 90.8809 65.7591V43.2683C90.8809 42.5366 91.4535 41.942 92.1582 41.942H108.701M108.701 41.0274H92.1582C90.969 41.0274 90 42.0335 90 43.2683V65.7591C90 66.9939 90.969 68 92.1582 68H108.842C110.031 68 111 66.9939 111 65.7591V63.0518C111 61.817 110.031 60.8109 108.842 60.8109H98.1129C97.8927 60.8109 97.7164 60.6281 97.7164 60.3994V58.3049C97.7164 58.0762 97.8927 57.8933 98.1129 57.8933H104.244C105.433 57.8933 106.402 56.8872 106.402 55.6524V53.128C106.402 51.8933 105.433 50.8872 104.244 50.8872H98.1129C97.8927 50.8872 97.7164 50.7042 97.7164 50.4756V48.6006C97.7164 48.3719 97.8927 48.189 98.1129 48.189H108.71C109.899 48.189 110.868 47.1829 110.868 45.9481V43.2409C110.868 42.0061 109.899 41 108.71 41L108.701 41.0274Z" fill="#629EFF"/>
<path d="M129.418 66.9912C128.769 66.9912 128.182 66.6402 127.88 66.0699L123.996 58.655C123.853 58.3742 123.56 58.2074 123.249 58.2074H120.742C120.28 58.2074 119.898 58.5848 119.898 59.0411V65.2889C119.898 66.2278 119.124 67 118.164 67H114.733C113.782 67 113 66.2366 113 65.2889V43.7111C113 42.7722 113.773 42 114.733 42H125.942C127.684 42 129.249 42.351 130.609 43.0267C131.978 43.7199 133.062 44.6852 133.836 45.9049C134.609 47.1334 135 48.5462 135 50.1169C135 51.6876 134.556 53.1706 133.667 54.4342C133.036 55.338 132.236 56.1014 131.311 56.6894C130.911 56.9438 130.778 57.4264 130.991 57.8125L134.671 64.464C134.964 64.9993 134.956 65.6311 134.644 66.1576C134.333 66.6841 133.773 66.9912 133.151 66.9912H129.4H129.418ZM120.742 47.9406C120.28 47.9406 119.898 48.318 119.898 48.7743V51.6788C119.898 52.1351 120.28 52.5124 120.742 52.5124H125.391C126.218 52.5124 126.858 52.3019 127.347 51.8631C127.827 51.4419 128.058 50.9066 128.058 50.2222C128.058 49.5377 127.827 49.0112 127.347 48.5813C126.858 48.1425 126.218 47.9319 125.391 47.9319H120.742V47.9406Z" fill="#629EFF"/>
<path d="M126.45 41.8972C128.128 41.8972 129.627 42.236 130.939 42.9227C132.251 43.6093 133.269 44.5523 134.01 45.7609C134.742 46.9694 135.116 48.352 135.116 49.9176C135.116 51.4832 134.697 52.9115 133.858 54.1567C133.251 55.0539 132.501 55.7955 131.618 56.3906C131.038 56.7752 130.814 57.5351 131.145 58.1668L134.84 65.1068C135.313 65.9949 134.688 67.0661 133.706 67.0661H129.94C129.458 67.0661 129.012 66.7915 128.788 66.352L124.888 58.6155C124.665 58.176 124.228 57.9013 123.737 57.9013H121.22C120.506 57.9013 119.926 58.4964 119.926 59.2289V65.7477C119.926 66.4801 119.346 67.0753 118.632 67.0753H115.187C114.473 67.0753 113.893 66.4801 113.893 65.7477V43.234C113.893 42.5015 114.473 41.9064 115.187 41.9064H126.441M121.211 52.8748H125.879C126.816 52.8748 127.566 52.6093 128.137 52.0875C128.708 51.5564 128.994 50.8789 128.994 50.0366C128.994 49.1943 128.708 48.5167 128.137 47.9857C127.566 47.4547 126.807 47.1983 125.879 47.1983H121.211C120.497 47.1983 119.917 47.7935 119.917 48.5259V51.5564C119.917 52.2889 120.497 52.884 121.211 52.884M126.441 41H115.187C113.982 41 113 42.0071 113 43.2431V65.7569C113 66.9929 113.982 68 115.187 68H118.632C119.837 68 120.818 66.9929 120.818 65.7569V59.238C120.818 59.0091 120.997 58.826 121.22 58.826H123.737C123.889 58.826 124.023 58.9084 124.094 59.0457L127.994 66.7823C128.369 67.533 129.11 67.9908 129.931 67.9908H133.697C134.474 67.9908 135.179 67.5788 135.581 66.8921C135.982 66.2055 135.991 65.3723 135.616 64.6765L131.921 57.7365C131.823 57.5442 131.894 57.3062 132.091 57.1689C133.073 56.5188 133.912 55.6856 134.581 54.6877C135.527 53.296 136 51.6846 136 49.9268C136 48.1689 135.581 46.6399 134.759 45.294C133.938 43.9481 132.787 42.8769 131.341 42.1261C129.913 41.3845 128.271 41 126.45 41H126.441ZM121.211 51.9684C120.988 51.9684 120.809 51.7853 120.809 51.5564V48.5259C120.809 48.297 120.988 48.1139 121.211 48.1139H125.879C126.593 48.1139 127.137 48.297 127.539 48.6724C127.923 49.0295 128.101 49.4598 128.101 50.0366C128.101 50.6134 127.923 51.0529 127.539 51.4008C127.128 51.7762 126.584 51.9593 125.879 51.9593H121.211V51.9684Z" fill="#629EFF"/>
<path d="M147.408 68C145.299 68 143.199 67.6128 141.145 66.8477C139.554 66.2578 138.074 65.4742 136.742 64.5247C136.344 64.239 136.085 63.815 136.02 63.3356C135.946 62.8471 136.076 62.3677 136.372 61.9713L138.231 59.5561C138.574 59.1137 139.092 58.8556 139.656 58.8556C140.045 58.8556 140.415 58.9754 140.729 59.2058C141.849 60.0263 142.903 60.6439 143.875 61.0403C145.123 61.5565 146.465 61.8146 147.871 61.8146C148.796 61.8146 149.582 61.7224 150.212 61.5473C150.804 61.3814 151.266 61.1324 151.571 60.819C151.849 60.5333 151.988 60.2014 151.988 59.8143C151.988 59.2704 151.784 58.8556 151.377 58.5606C150.905 58.2196 150.054 57.943 148.842 57.7402L143.245 56.7631C141.09 56.3851 139.406 55.5463 138.222 54.2649C137.029 52.9744 136.427 51.3243 136.427 49.3516C136.427 47.6186 136.881 46.1069 137.769 44.8532C138.657 43.5996 139.934 42.6316 141.571 41.9771C143.181 41.3319 145.114 41 147.316 41C149.24 41 151.211 41.3319 153.163 41.9863C154.624 42.4749 155.966 43.1202 157.141 43.8945C157.548 44.1618 157.816 44.5674 157.899 45.0468C157.992 45.5261 157.871 46.0331 157.594 46.4295L155.836 48.8723C155.503 49.3425 154.957 49.619 154.374 49.619C154.014 49.619 153.662 49.5176 153.366 49.3148C151.192 47.8768 149.009 47.1485 146.872 47.1485C146.067 47.1485 145.373 47.2315 144.809 47.3974C144.023 47.6279 143.514 47.9782 143.301 48.4483C143.273 48.5128 143.255 48.5958 143.245 48.6787C143.19 49.2687 143.356 49.6743 143.754 49.9601C144.171 50.2551 144.883 50.4947 145.873 50.6791L151.137 51.5456C153.662 51.9419 155.623 52.7993 156.955 54.099C158.315 55.4172 159 57.1318 159 59.2058C159 61.0126 158.519 62.5889 157.566 63.9071C156.622 65.2161 155.263 66.2393 153.514 66.9399C151.793 67.6313 149.73 67.9908 147.381 67.9908L147.408 68Z" fill="#629EFF"/>
<path d="M147.339 41.9184C149.151 41.9184 150.98 42.2305 152.819 42.8457C154.195 43.3094 155.43 43.9068 156.531 44.638C157.135 45.0393 157.268 45.8686 156.851 46.4571L155.163 48.82C154.915 49.1677 154.524 49.355 154.124 49.355C153.875 49.355 153.627 49.2837 153.405 49.1321C151.238 47.6787 149.071 46.9564 146.921 46.9564C146.104 46.9564 145.403 47.0456 144.808 47.215C143.919 47.4736 143.342 47.9016 143.085 48.4723C143.031 48.5882 143.005 48.7219 142.996 48.8468C142.934 49.569 143.156 50.1218 143.662 50.4874C144.115 50.8173 144.852 51.0671 145.873 51.2543L150.927 52.0925C153.271 52.467 155.057 53.2516 156.282 54.4375C157.499 55.6235 158.112 57.1661 158.112 59.0565C158.112 60.715 157.686 62.1417 156.824 63.3455C155.963 64.5492 154.728 65.4766 153.129 66.1275C151.522 66.7784 149.621 67.1083 147.41 67.1083C145.429 67.1083 143.484 66.7428 141.548 66.0205C140.047 65.4587 138.68 64.7275 137.427 63.827C136.841 63.3989 136.726 62.5697 137.161 61.9901L138.946 59.6539C139.195 59.324 139.577 59.1546 139.958 59.1546C140.225 59.1546 140.5 59.2348 140.731 59.4042C141.841 60.2156 142.88 60.8309 143.848 61.2322C145.101 61.7583 146.442 62.0168 147.863 62.0168C148.795 62.0168 149.586 61.9277 150.234 61.7404C150.883 61.5531 151.389 61.2767 151.735 60.9201C152.081 60.5545 152.259 60.1354 152.259 59.645C152.259 58.9673 152.001 58.4412 151.495 58.0667C150.98 57.6922 150.11 57.3979 148.875 57.1929L143.502 56.2477C141.522 55.8999 140.003 55.142 138.937 53.9739C137.871 52.8058 137.33 51.3256 137.33 49.5244C137.33 47.9373 137.729 46.573 138.529 45.4316C139.328 44.2903 140.482 43.4164 141.983 42.8012C143.484 42.1948 145.27 41.8917 147.339 41.8917M147.339 41C145.163 41 143.253 41.3299 141.655 41.9719C140.003 42.6407 138.706 43.6304 137.809 44.9144C136.903 46.2074 136.441 47.7589 136.441 49.5244C136.441 51.5486 137.063 53.2427 138.28 54.5713C139.479 55.8821 141.184 56.7381 143.351 57.1215L148.724 58.0667C150.083 58.2985 150.696 58.5839 150.971 58.7889C151.255 58.994 151.371 59.2526 151.371 59.645C151.371 59.9036 151.291 60.1086 151.096 60.3048C150.856 60.5545 150.483 60.7507 149.985 60.8933C149.417 61.0539 148.698 61.143 147.854 61.143C146.557 61.143 145.323 60.9022 144.186 60.4207C143.289 60.0462 142.303 59.4666 141.255 58.6909C140.873 58.4145 140.429 58.2629 139.958 58.2629C139.275 58.2629 138.653 58.575 138.236 59.11L136.45 61.4462C136.095 61.9099 135.935 62.5162 136.024 63.1047C136.113 63.6932 136.424 64.2104 136.903 64.5492C138.209 65.4944 139.665 66.2702 141.229 66.8587C143.245 67.6166 145.323 68 147.401 68C149.71 68 151.753 67.6523 153.458 66.9568C155.216 66.2434 156.584 65.2001 157.543 63.8715C158.512 62.5162 159 60.9022 159 59.0654C159 56.9343 158.289 55.1598 156.904 53.8045C155.554 52.4848 153.591 51.6199 151.069 51.2186L146.016 50.3804C144.923 50.1843 144.408 49.9346 144.177 49.7652C143.991 49.6314 143.831 49.4352 143.875 48.927C143.875 48.8824 143.893 48.8468 143.893 48.8468C144.044 48.5168 144.435 48.2583 145.065 48.071C145.571 47.9194 146.202 47.8481 146.921 47.8481C148.884 47.8481 150.9 48.5257 152.907 49.8722C153.271 50.1129 153.689 50.2378 154.124 50.2378C154.826 50.2378 155.483 49.8989 155.883 49.3282L157.57 46.9653C157.916 46.4838 158.05 45.8686 157.943 45.289C157.836 44.7094 157.508 44.21 157.019 43.8801C155.856 43.1133 154.542 42.4713 153.094 41.9898C151.176 41.3388 149.239 41.0178 147.339 41.0178V41Z" fill="#629EFF"/>
<path d="M162.708 66.9737C161.771 66.9737 161 66.211 161 65.2643V43.7093C161 42.7714 161.762 42 162.708 42H179.16C180.098 42 180.869 42.7626 180.869 43.7093V46.304C180.869 47.2419 180.106 48.0133 179.16 48.0133H168.622C168.166 48.0133 167.789 48.3902 167.789 48.8461V50.643C167.789 51.0989 168.166 51.4758 168.622 51.4758H174.719C175.656 51.4758 176.427 52.2384 176.427 53.1851V55.6045C176.427 56.5424 175.665 57.3138 174.719 57.3138H168.622C168.166 57.3138 167.789 57.6907 167.789 58.1465V60.1539C167.789 60.6098 168.166 60.9866 168.622 60.9866H179.292C180.229 60.9866 181 61.7493 181 62.696V65.2907C181 66.2286 180.238 67 179.292 67H162.699L162.708 66.9737Z" fill="#629EFF"/>
<path d="M179.601 41.9146C180.339 41.9146 180.939 42.5092 180.939 43.2409V45.9481C180.939 46.6798 180.339 47.2744 179.601 47.2744H168.499C167.761 47.2744 167.161 47.8689 167.161 48.6006V50.4756C167.161 51.2073 167.761 51.8018 168.499 51.8018H174.922C175.66 51.8018 176.26 52.3963 176.26 53.128V55.6524C176.26 56.3842 175.66 56.9786 174.922 56.9786H168.499C167.761 56.9786 167.161 57.5731 167.161 58.3049V60.3994C167.161 61.1311 167.761 61.7256 168.499 61.7256H179.739C180.477 61.7256 181.077 62.3201 181.077 63.0518V65.7591C181.077 66.4908 180.477 67.0854 179.739 67.0854H162.261C161.523 67.0854 160.923 66.4908 160.923 65.7591V43.2683C160.923 42.5366 161.523 41.942 162.261 41.942H179.591M179.591 41.0274H162.261C161.015 41.0274 160 42.0335 160 43.2683V65.7591C160 66.9939 161.015 68 162.261 68H179.739C180.985 68 182 66.9939 182 65.7591V63.0518C182 61.817 180.985 60.8109 179.739 60.8109H168.499C168.268 60.8109 168.084 60.6281 168.084 60.3994V58.3049C168.084 58.0762 168.268 57.8933 168.499 57.8933H174.922C176.168 57.8933 177.183 56.8872 177.183 55.6524V53.128C177.183 51.8933 176.168 50.8872 174.922 50.8872H168.499C168.268 50.8872 168.084 50.7042 168.084 50.4756V48.6006C168.084 48.3719 168.268 48.189 168.499 48.189H179.601C180.846 48.189 181.862 47.1829 181.862 45.9481V43.2409C181.862 42.0061 180.846 41 179.601 41L179.591 41.0274Z" fill="#629EFF"/>
<path d="M80.2388 1H76.7614C75.7886 1 75 1.76611 75 2.71113V24.2889C75 25.2339 75.7886 26 76.7614 26H80.2388C81.2115 26 82 25.2339 82 24.2889V2.71113C82 1.76611 81.2115 1 80.2388 1Z" fill="white"/>
<path d="M80.0423 0.915563C80.6815 0.915563 81.2009 1.51069 81.2009 2.24314V24.7569C81.2009 25.4893 80.6815 26.0844 80.0423 26.0844H76.9578C76.3186 26.0844 75.7991 25.4893 75.7991 24.7569V2.24314C75.7991 1.51069 76.3186 0.915563 76.9578 0.915563H80.0423ZM80.0423 0H76.9578C75.8791 0 75 1.00713 75 2.24314V24.7569C75 25.9929 75.8791 27 76.9578 27H80.0423C81.121 27 82 25.9929 82 24.7569V2.24314C82 1.00713 81.121 0 80.0423 0Z" fill="#629EFF"/>
<path d="M86.7277 26C85.7797 26 85 25.2366 85 24.2889V2.71108C85 1.77216 85.7708 1 86.7277 1H98.2815C99.9473 1 101.454 1.35975 102.756 2.07053C104.058 2.7813 105.104 3.7729 105.857 5.0014C106.619 6.23868 107 7.66899 107 9.25726C107 10.8455 106.619 12.1706 105.857 13.3991C105.104 14.6188 104.05 15.5928 102.729 16.2948C101.418 16.9881 99.9207 17.3479 98.2727 17.3479H92.6995C92.2388 17.3479 91.8578 17.7251 91.8578 18.1814V24.2889C91.8578 25.2278 91.087 26 90.1301 26H86.7101H86.7277ZM92.7084 6.94943C92.2477 6.94943 91.8667 7.32677 91.8667 7.78307V10.7578C91.8667 11.2141 92.2477 11.5914 92.7084 11.5914H97.5815C98.3524 11.5914 98.9461 11.3808 99.3979 10.9508C99.8409 10.5296 100.062 9.98558 100.062 9.30113C100.062 8.61668 99.8409 8.03752 99.3979 7.59877C98.9461 7.16002 98.3524 6.94943 97.5815 6.94943H92.7084Z" fill="white"/>
<path d="M98.7911 0.9064C100.402 0.9064 101.825 1.2635 103.071 1.96849C104.317 2.67347 105.304 3.64395 106.025 4.86165C106.745 6.0885 107.11 7.48934 107.11 9.06411C107.11 10.6389 106.745 11.939 106.025 13.1476C105.304 14.3561 104.316 15.3083 103.053 16.0041C101.799 16.6999 100.375 17.0478 98.7911 17.0478H93.1946C92.4828 17.0478 91.9045 17.6429 91.9045 18.3754V24.7477C91.9045 25.4802 91.3262 26.0753 90.6144 26.0753H87.1798C86.468 26.0753 85.8897 25.4802 85.8897 24.7477V2.23398C85.8897 1.50153 86.468 0.9064 87.1798 0.9064H98.7822M93.1857 11.939H98.0793C98.9601 11.939 99.6719 11.6734 100.215 11.1516C100.749 10.6205 101.015 9.94304 101.015 9.10072C101.015 8.2584 100.749 7.53511 100.215 6.99493C99.6808 6.45475 98.969 6.18923 98.0793 6.18923H93.1857C92.4739 6.18923 91.8956 6.78436 91.8956 7.51681V10.6206C91.8956 11.353 92.4739 11.9482 93.1857 11.9482M98.7822 0H87.1798C85.9787 0 85 1.00713 85 2.24315V24.7569C85 25.9929 85.9787 27 87.1798 27H90.6144C91.8155 27 92.7942 25.9929 92.7942 24.7569V18.3846C92.7942 18.1557 92.9721 17.9725 93.1946 17.9725H98.7911C100.517 17.9725 102.092 17.588 103.471 16.8189C104.859 16.0498 105.971 14.9787 106.781 13.6328C107.591 12.2777 108 10.7488 108 9.07328C108 7.3978 107.591 5.75895 106.79 4.39476C105.989 3.03972 104.886 1.95934 103.507 1.17195C102.137 0.39372 100.544 0 98.8 0H98.7822ZM93.1857 11.0326C92.9632 11.0326 92.7853 10.8495 92.7853 10.6206V7.51681C92.7853 7.28792 92.9632 7.10479 93.1857 7.10479H98.0793C98.7288 7.10479 99.2182 7.28794 99.5919 7.65416C99.9478 8.02039 100.126 8.48729 100.126 9.10072C100.126 9.71415 99.9567 10.1353 99.6008 10.4924C99.236 10.8586 98.7377 11.0326 98.0882 11.0326H93.1946H93.1857Z" fill="#629EFF"/>
<path d="M11.9723 62C9.56493 62 7.43428 61.523 5.65411 60.587C3.8555 59.6421 2.44424 58.2831 1.46653 56.5372C0.488823 54.8093 0 52.7484 0 50.4175V37.764C0 36.801 0.802414 36.009 1.79857 36.009H5.35889C6.34582 36.009 7.15757 36.792 7.15757 37.764V50.4175C7.15757 51.4434 7.36041 52.3614 7.75702 53.1264C8.14442 53.8823 8.71635 54.4673 9.43579 54.8633C10.1737 55.2683 11.0408 55.4753 12.0185 55.4753C12.9962 55.4753 13.8816 55.2683 14.5918 54.8633C15.2928 54.4583 15.8555 53.8733 16.2429 53.1174C16.6395 52.3524 16.8424 51.4344 16.8424 50.4084V37.7549C16.8424 36.792 17.6448 36 18.641 36H22.2013C23.1883 36 24 36.783 24 37.7549V50.4084C24 52.7124 23.5018 54.7643 22.5149 56.4922C21.5187 58.2292 20.1076 59.5971 18.309 60.5601C16.5196 61.514 14.3981 61.991 11.9815 61.991L11.9723 62Z" fill="white"/>
<path d="M21.8408 36.9036C22.5516 36.9036 23.1292 37.491 23.1292 38.2139V50.9187C23.1292 53.1687 22.6671 55.1295 21.7519 56.8103C20.8367 58.491 19.5394 59.7922 17.8778 60.7139C16.2162 61.6356 14.2525 62.0964 11.9956 62.0964C9.73861 62.0964 7.7749 61.6446 6.11329 60.7319C4.45169 59.8193 3.16331 58.5271 2.25698 56.8464C1.35065 55.1657 0.897454 53.1958 0.897454 50.9187V38.2139C0.897454 37.491 1.47497 36.9036 2.18582 36.9036H5.61565C6.3265 36.9036 6.90412 37.491 6.90412 38.2139V50.9187C6.90412 52.0301 7.11734 53.006 7.53497 53.8464C7.95259 54.6867 8.55683 55.3283 9.32987 55.7801C10.1118 56.2319 11.0093 56.4578 12.0311 56.4578C13.053 56.4578 13.977 56.2319 14.7323 55.7801C15.4876 55.3283 16.074 54.6867 16.4916 53.8464C16.9092 53.006 17.1226 52.0301 17.1226 50.9187V38.2139C17.1226 37.491 17.7001 36.9036 18.4109 36.9036H21.8408ZM21.8408 36H18.4109C17.2114 36 16.234 36.994 16.234 38.2139V50.9187C16.234 51.8855 16.0563 52.7259 15.7009 53.4397C15.3543 54.1265 14.8922 54.6416 14.2791 55.003C13.666 55.3645 12.9019 55.5542 12.0222 55.5542C11.1426 55.5542 10.405 55.3735 9.75637 54.994C9.12549 54.6325 8.65456 54.1265 8.3169 53.4397C7.96148 52.7349 7.78379 51.8855 7.78379 50.9187V38.2139C7.78379 36.994 6.80631 36 5.60675 36H2.17693C0.977372 36 0 36.994 0 38.2139V50.9187C0 53.3313 0.497615 55.4729 1.46614 57.2801C2.45245 59.1054 3.87413 60.5331 5.67791 61.5271C7.46391 62.503 9.58754 63 11.9778 63C14.368 63 16.4916 62.494 18.2865 61.509C20.0903 60.506 21.512 59.0783 22.5072 57.253C23.4935 55.4458 24 53.3133 24 50.9277V38.2229C24 37.003 23.0225 36.009 21.823 36.009L21.8408 36Z" fill="#629EFF"/>
<path d="M44.9542 62C44.4189 62 43.9275 61.7536 43.6028 61.3155L34.9592 49.7438C34.7925 49.5247 34.5643 49.4061 34.3099 49.4061C33.8974 49.4061 33.4675 49.7347 33.4675 50.2731V60.2205C33.4675 61.197 32.704 62 31.7562 62H28.7112C27.7723 62 27 61.2061 27 60.2205V37.7796C27 36.8031 27.7635 36 28.7112 36H32.4056C32.9321 36 33.4235 36.2464 33.7482 36.6845L42.0496 47.7087C42.2602 47.9825 42.5146 48.0463 42.6901 48.0463C43.1026 48.0463 43.5326 47.7178 43.5326 47.1794V37.7796C43.5326 36.8031 44.296 36 45.2438 36H48.2888C49.2277 36 50 36.794 50 37.7796V60.2205C50 61.197 49.2365 62 48.2888 62H44.9454H44.9542Z" fill="white"/>
<path d="M48.7581 36.8899C49.4931 36.8899 50.0904 37.4626 50.0904 38.1674V59.8326C50.0904 60.5375 49.4931 61.1101 48.7581 61.1101H45.2576C44.8442 61.1101 44.4583 60.9251 44.2102 60.6167L35.1603 49.4449C34.8847 49.1013 34.4988 48.9515 34.1221 48.9515C33.4422 48.9515 32.7806 49.445 32.7806 50.2291V59.8326C32.7806 60.5375 32.1834 61.1101 31.4484 61.1101H28.2603C27.5252 61.1101 26.928 60.5375 26.928 59.8326V38.1674C26.928 37.4626 27.5252 36.8899 28.2603 36.8899H32.1283C32.5325 36.8899 32.9276 37.0661 33.1757 37.3744L41.8673 48.0176C42.1429 48.3612 42.5288 48.511 42.9055 48.511C43.5854 48.511 44.247 48.0176 44.247 47.2335V38.1586C44.247 37.4538 44.8442 36.8811 45.5792 36.8811H48.7673M48.7673 36H45.5792C44.3388 36 43.3282 36.9692 43.3282 38.1586V47.2335C43.3282 47.5595 43.025 47.63 42.9055 47.63C42.7769 47.63 42.6759 47.5771 42.5932 47.4802L33.8924 36.837C33.4606 36.3084 32.8174 36.0088 32.1191 36.0088H28.2511C27.0107 36.0088 26 36.978 26 38.1674V59.8326C26 61.0221 27.0107 61.9912 28.2511 61.9912H31.4392C32.6795 61.9912 33.6903 61.0221 33.6903 59.8326V50.2291C33.6903 50.1057 33.7269 50.0176 33.8096 49.9471C33.8923 49.8767 34.0026 49.8326 34.1129 49.8326C34.2415 49.8326 34.3425 49.8855 34.4252 49.9912L43.4752 61.163C43.907 61.6916 44.5502 62 45.2484 62H48.7489C49.9893 62 51 61.0308 51 59.8414V38.1762C51 36.9868 49.9893 36.0176 48.7489 36.0176L48.7673 36Z" fill="#629EFF"/>
<path d="M54.7591 36H58.241C59.2153 36 60 36.794 60 37.7796V60.2205C60 61.197 59.2153 62 58.241 62H54.7591C53.7849 62 53 61.2061 53 60.2205V37.7796C53 36.794 53.7849 36 54.7591 36Z" fill="white"/>
<path d="M58.7626 36.8817C59.4932 36.8817 60.0868 37.4547 60.0868 38.1601V59.84C60.0868 60.5453 59.4932 61.1183 58.7626 61.1183H55.2375C54.5069 61.1183 53.9132 60.5453 53.9132 59.84V38.1601C53.9132 37.4547 54.5069 36.8817 55.2375 36.8817H58.7626ZM58.7626 36H55.2375C54.0046 36 53 36.9698 53 38.1601V59.84C53 61.0302 54.0046 62 55.2375 62H58.7626C59.9955 62 61 61.0302 61 59.84V38.1601C61 36.9698 59.9955 36 58.7626 36Z" fill="#629EFF"/>
<path d="M72.8064 62C72.0793 62 71.434 61.562 71.1614 60.8867L62.1277 38.4458C61.9096 37.8982 61.9732 37.2777 62.3004 36.7849C62.6275 36.2921 63.1819 36 63.7636 36H67.5443C68.2713 36 68.9347 36.4563 69.1983 37.1408L74.7603 51.7606C74.9148 52.1713 75.2783 52.3173 75.5691 52.3173C75.8599 52.3173 76.2144 52.1713 76.3689 51.7698L82.049 37.1316C82.3126 36.4472 82.967 36 83.7031 36H87.2294C87.8201 36 88.3745 36.2921 88.7017 36.7849C89.0288 37.2777 89.0924 37.8982 88.8652 38.4458L79.7043 60.8867C79.4317 61.5529 78.7864 61.9909 78.0684 61.9909H72.8064V62Z" fill="white"/>
<path d="M86.7817 36.8814C87.721 36.8814 88.3593 37.798 88.0037 38.6441L78.8115 60.3166C78.6109 60.7926 78.1276 61.1098 77.5895 61.1098H72.3096C71.7716 61.1098 71.2882 60.7926 71.0876 60.3078L62.0232 38.6352C61.6767 37.798 62.315 36.8814 63.2451 36.8814H67.0387C67.5859 36.8814 68.0783 37.2075 68.2698 37.701L73.8507 51.8203C74.0696 52.3668 74.5711 52.64 75.0818 52.64C75.5925 52.64 76.094 52.3668 76.3128 51.8292L82.0123 37.6922C82.2129 37.1986 82.6963 36.8814 83.2435 36.8814H86.7817ZM86.7817 36H83.2435C82.3133 36 81.5017 36.5376 81.1643 37.3749L75.4648 51.5119C75.3736 51.7322 75.1912 51.7675 75.0818 51.7675C74.9723 51.7675 74.79 51.7322 74.6988 51.5119L69.1179 37.3926C68.7896 36.5641 67.9506 36.0088 67.0296 36.0088H63.236C62.4974 36.0088 61.8043 36.3614 61.3848 36.9607C60.9653 37.56 60.8833 38.3092 61.1659 38.979L70.2304 60.6516C70.577 61.4712 71.3886 62 72.3005 62H77.5804C78.4923 62 79.3039 61.4712 79.6414 60.6603L88.8335 38.9878C89.1162 38.318 89.0341 37.5688 88.6237 36.9695C88.2042 36.3702 87.5112 36.0176 86.7726 36.0176L86.7817 36Z" fill="#629EFF"/>
<path d="M91.7938 61.9726C90.8095 61.9726 90 61.1795 90 60.195V37.7777C90 36.8023 90.8003 36 91.7938 36H109.068C110.052 36 110.862 36.7931 110.862 37.7777V40.4762C110.862 41.4516 110.062 42.2539 109.068 42.2539H98.0027C97.5244 42.2539 97.1288 42.6459 97.1288 43.1199V44.9888C97.1288 45.4629 97.5152 45.8548 98.0027 45.8548H104.405C105.389 45.8548 106.198 46.648 106.198 47.6325V50.1487C106.198 51.1241 105.398 51.9264 104.405 51.9264H98.0027C97.5244 51.9264 97.1288 52.3184 97.1288 52.7925V54.8801C97.1288 55.3541 97.5152 55.7462 98.0027 55.7462H109.206C110.19 55.7462 111 56.5393 111 57.5239V60.2223C111 61.1977 110.2 62 109.206 62H91.7845L91.7938 61.9726Z" fill="white"/>
<path d="M108.71 36.8808C109.414 36.8808 109.987 37.4533 109.987 38.1579V40.7649C109.987 41.4695 109.414 42.042 108.71 42.042H98.1129C97.4082 42.042 96.8356 42.6145 96.8356 43.3191V45.1246C96.8356 45.8292 97.4082 46.4018 98.1129 46.4018H104.244C104.948 46.4018 105.521 46.9743 105.521 47.6789V50.1098C105.521 50.8144 104.948 51.3869 104.244 51.3869H98.1129C97.4082 51.3869 96.8356 51.9593 96.8356 52.6639V54.6809C96.8356 55.3855 97.4082 55.958 98.1129 55.958H108.842C109.547 55.958 110.119 56.5305 110.119 57.2351V59.8421C110.119 60.5467 109.547 61.1192 108.842 61.1192H92.1582C91.4535 61.1192 90.8809 60.5467 90.8809 59.8421V38.1843C90.8809 37.4797 91.4535 36.9072 92.1582 36.9072H108.701M108.701 36.0264H92.1582C90.969 36.0264 90 36.9952 90 38.1843V59.8421C90 61.0312 90.969 62 92.1582 62H108.842C110.031 62 111 61.0312 111 59.8421V57.2351C111 56.046 110.031 55.0773 108.842 55.0773H98.1129C97.8927 55.0773 97.7164 54.9011 97.7164 54.6809V52.6639C97.7164 52.4437 97.8927 52.2676 98.1129 52.2676H104.244C105.433 52.2676 106.402 51.2988 106.402 50.1098V47.6789C106.402 46.4898 105.433 45.521 104.244 45.521H98.1129C97.8927 45.521 97.7164 45.3448 97.7164 45.1246V43.3191C97.7164 43.0989 97.8927 42.9227 98.1129 42.9227H108.71C109.899 42.9227 110.868 41.954 110.868 40.7649V38.1579C110.868 36.9688 109.899 36 108.71 36L108.701 36.0264Z" fill="#629EFF"/>
<path d="M129.418 61.9909C128.769 61.9909 128.182 61.6258 127.88 61.0326L123.996 53.3212C123.853 53.0291 123.56 52.8558 123.249 52.8558H120.742C120.28 52.8558 119.898 53.2481 119.898 53.7227V60.2205C119.898 61.197 119.124 62 118.164 62H114.733C113.782 62 113 61.2061 113 60.2205V37.7796C113 36.8031 113.773 36 114.733 36H125.942C127.684 36 129.249 36.365 130.609 37.0677C131.978 37.7796 133.062 38.7926 133.836 40.0611C134.609 41.3387 135 42.808 135 44.4416C135 46.0751 134.556 47.6174 133.667 48.9315C133.036 49.8715 132.244 50.6655 131.311 51.2769C130.911 51.5416 130.778 52.0435 130.991 52.4451L134.671 59.3626C134.964 59.9193 134.956 60.5764 134.644 61.1239C134.333 61.6715 133.773 61.9909 133.151 61.9909H129.4H129.418ZM120.742 42.1783C120.28 42.1783 119.898 42.5708 119.898 43.0453V46.066C119.898 46.5406 120.28 46.9329 120.742 46.9329H125.391C126.218 46.9329 126.858 46.7139 127.347 46.2576C127.827 45.8196 128.058 45.2629 128.058 44.5511C128.058 43.8392 127.827 43.2917 127.347 42.8445C126.858 42.3973 126.218 42.1692 125.391 42.1692H120.742V42.1783Z" fill="white"/>
<path d="M126.45 36.864C128.128 36.864 129.627 37.1902 130.939 37.8515C132.251 38.5127 133.269 39.4208 134.01 40.5846C134.742 41.7484 135.116 43.0797 135.116 44.5873C135.116 46.0949 134.697 47.4703 133.858 48.6694C133.251 49.5334 132.501 50.2475 131.618 50.8206C131.038 51.1909 130.814 51.9227 131.145 52.531L134.84 59.214C135.313 60.0604 134.688 61.1007 133.706 61.1007H129.94C129.458 61.1007 129.012 60.8362 128.788 60.413L124.888 52.963C124.665 52.5398 124.228 52.2753 123.737 52.2753H121.22C120.506 52.2753 119.926 52.8484 119.926 53.5537V59.8311C119.926 60.5364 119.346 61.1095 118.632 61.1095H115.187C114.473 61.1095 113.893 60.5364 113.893 59.8311V38.1512C113.893 37.4459 114.473 36.8728 115.187 36.8728H126.441M121.211 47.435H125.879C126.816 47.435 127.566 47.1794 128.137 46.6768C128.708 46.1655 128.994 45.5131 128.994 44.7019C128.994 43.8908 128.708 43.2384 128.137 42.727C127.566 42.2157 126.807 41.9688 125.879 41.9688H121.211C120.497 41.9688 119.917 42.5419 119.917 43.2472V46.1655C119.917 46.8708 120.497 47.4439 121.211 47.4439M126.441 36H115.187C113.982 36 113 36.9698 113 38.1601V59.8399C113 61.0302 113.982 62 115.187 62H118.632C119.837 62 120.818 61.0302 120.818 59.8399V53.5626C120.818 53.3421 120.997 53.1658 121.22 53.1658H123.737C123.889 53.1658 124.023 53.2451 124.094 53.3774L127.994 60.8274C128.369 61.5503 129.11 61.9912 129.931 61.9912H133.697C134.474 61.9912 135.179 61.5944 135.581 60.9332C135.982 60.2719 135.991 59.4696 135.616 58.7996L131.921 52.1166C131.823 51.9315 131.894 51.7023 132.091 51.57C133.073 50.944 133.912 50.1418 134.581 49.1808C135.527 47.8406 136 46.2889 136 44.5961C136 42.9034 135.581 41.431 134.759 40.135C133.938 38.8389 132.787 37.8074 131.341 37.0844C129.913 36.3703 128.271 36 126.45 36H126.441ZM121.211 46.5622C120.988 46.5622 120.809 46.3859 120.809 46.1655V43.2472C120.809 43.0268 120.988 42.8505 121.211 42.8505H125.879C126.593 42.8505 127.137 43.0268 127.539 43.3883C127.923 43.7321 128.101 44.1465 128.101 44.7019C128.101 45.2574 127.923 45.6806 127.539 46.0156C127.128 46.3771 126.584 46.5534 125.879 46.5534H121.211V46.5622Z" fill="#629EFF"/>
<path d="M147.408 62C145.299 62 143.199 61.627 141.145 60.89C139.554 60.3217 138.074 59.567 136.742 58.6524C136.344 58.3771 136.085 57.9686 136.02 57.5068C135.946 57.0362 136.076 56.5745 136.372 56.1926L138.231 53.8661C138.574 53.4399 139.092 53.1913 139.656 53.1913C140.045 53.1913 140.415 53.3067 140.729 53.5287C141.849 54.319 142.903 54.9139 143.875 55.3047C145.123 55.8019 146.465 56.0505 147.871 56.0505C148.796 56.0505 149.582 55.9618 150.212 55.793C150.804 55.6332 151.266 55.3935 151.571 55.0916C151.849 54.8163 151.988 54.4966 151.988 54.1236C151.988 53.5997 151.784 53.2001 151.377 52.916C150.905 52.5874 150.054 52.321 148.842 52.1257L143.245 51.1844C141.09 50.8203 139.406 50.0123 138.222 48.778C137.029 47.5348 136.427 45.9454 136.427 44.0451C136.427 42.3757 136.881 40.9194 137.769 39.7117C138.657 38.5041 139.934 37.5717 141.571 36.9413C143.181 36.3197 145.114 36 147.316 36C149.24 36 151.211 36.3197 153.163 36.9501C154.624 37.4208 155.966 38.0423 157.141 38.7882C157.548 39.0457 157.816 39.4364 157.899 39.8982C157.992 40.3599 157.871 40.8483 157.594 41.2302L155.836 43.5833C155.503 44.0362 154.957 44.3026 154.374 44.3026C154.014 44.3026 153.662 44.2049 153.366 44.0095C151.192 42.6243 149.009 41.9228 146.872 41.9228C146.067 41.9228 145.373 42.0027 144.809 42.1626C144.023 42.3846 143.514 42.722 143.301 43.1748C143.273 43.237 143.255 43.3169 143.245 43.3968C143.19 43.9651 143.356 44.3559 143.754 44.6311C144.171 44.9153 144.883 45.1462 145.873 45.3238L151.137 46.1585C153.662 46.5403 155.623 47.3661 156.955 48.6181C158.315 49.888 159 51.5396 159 53.5376C159 55.278 158.519 56.7964 157.566 58.0663C156.622 59.3272 155.263 60.3128 153.514 60.9877C151.793 61.6537 149.73 62 147.381 62H147.408Z" fill="white"/>
<path d="M147.339 35.9185C149.151 35.9185 150.98 36.2305 152.819 36.8458C154.195 37.3094 155.43 37.9069 156.531 38.6381C157.135 39.0393 157.268 39.8686 156.851 40.4571L155.163 42.82C154.915 43.1678 154.524 43.355 154.124 43.355C153.875 43.355 153.627 43.2837 153.405 43.1321C151.238 41.6787 149.071 40.9564 146.921 40.9564C146.104 40.9564 145.403 41.0456 144.808 41.215C143.919 41.4736 143.342 41.9016 143.085 42.4723C143.031 42.5882 143.005 42.7219 142.996 42.8467C142.934 43.569 143.156 44.1219 143.662 44.4875C144.115 44.8174 144.852 45.067 145.873 45.2543L150.927 46.0925C153.271 46.467 155.057 47.2516 156.282 48.4376C157.499 49.6235 158.112 51.1661 158.112 53.0565C158.112 54.715 157.686 56.1417 156.824 57.3454C155.963 58.5492 154.728 59.4765 153.129 60.1274C151.522 60.7784 149.621 61.1083 147.41 61.1083C145.429 61.1083 143.484 60.7427 141.548 60.0204C140.047 59.4587 138.68 58.7275 137.427 57.8269C136.841 57.3989 136.726 56.5696 137.161 55.9901L138.946 53.6539C139.195 53.3239 139.577 53.1545 139.958 53.1545C140.225 53.1545 140.5 53.2348 140.731 53.4042C141.841 54.2156 142.88 54.8309 143.848 55.2321C145.101 55.7582 146.442 56.0168 147.863 56.0168C148.795 56.0168 149.586 55.9277 150.234 55.7404C150.883 55.5532 151.389 55.2768 151.735 54.9201C152.081 54.5545 152.259 54.1354 152.259 53.6449C152.259 52.9673 152.001 52.4412 151.495 52.0667C150.98 51.6922 150.11 51.3979 148.875 51.1928L143.502 50.2477C141.522 49.8999 140.003 49.142 138.937 47.9739C137.871 46.8058 137.33 45.3256 137.33 43.5244C137.33 41.9372 137.729 40.573 138.529 39.4317C139.328 38.2903 140.482 37.4165 141.983 36.8012C143.484 36.1949 145.27 35.8917 147.339 35.8917M147.339 35C145.163 35 143.253 35.3299 141.655 35.972C140.003 36.6407 138.706 37.6305 137.809 38.9145C136.903 40.2074 136.441 41.7589 136.441 43.5244C136.441 45.5485 137.063 47.2428 138.28 48.5713C139.479 49.8821 141.184 50.7381 143.351 51.1215L148.724 52.0667C150.083 52.2985 150.696 52.5839 150.971 52.789C151.255 52.994 151.371 53.2526 151.371 53.6449C151.371 53.9035 151.291 54.1087 151.096 54.3048C150.856 54.5545 150.483 54.7506 149.985 54.8933C149.417 55.0538 148.698 55.143 147.854 55.143C146.557 55.143 145.323 54.9023 144.186 54.4207C143.289 54.0462 142.303 53.4667 141.255 52.6909C140.873 52.4145 140.429 52.2628 139.958 52.2628C139.275 52.2628 138.653 52.5749 138.236 53.11L136.45 55.4461C136.095 55.9098 135.935 56.5161 136.024 57.1046C136.113 57.6932 136.424 58.2103 136.903 58.5492C138.209 59.4943 139.665 60.2701 141.229 60.8586C143.245 61.6166 145.323 62 147.401 62C149.71 62 151.753 61.6522 153.458 60.9567C155.216 60.2434 156.584 59.2001 157.543 57.8715C158.512 56.5162 159 54.9022 159 53.0654C159 50.9343 158.289 49.1598 156.904 47.8045C155.554 46.4848 153.591 45.6199 151.069 45.2186L146.016 44.3805C144.923 44.1843 144.408 43.9346 144.177 43.7652C143.991 43.6314 143.831 43.4353 143.875 42.927C143.875 42.8824 143.893 42.8467 143.893 42.8467C144.044 42.5168 144.435 42.2582 145.065 42.071C145.571 41.9194 146.202 41.8481 146.921 41.8481C148.884 41.8481 150.9 42.5258 152.907 43.8722C153.271 44.1129 153.689 44.2378 154.124 44.2378C154.826 44.2378 155.483 43.899 155.883 43.3283L157.57 40.9653C157.916 40.4838 158.05 39.8686 157.943 39.289C157.836 38.7094 157.508 38.21 157.019 37.8801C155.856 37.1133 154.542 36.4713 153.094 35.9897C151.176 35.3388 149.239 35.0179 147.339 35.0179V35Z" fill="#629EFF"/>
<path d="M162.708 61.9726C161.771 61.9726 161 61.1795 161 60.195V37.7777C161 36.8023 161.762 36 162.708 36H179.16C180.098 36 180.869 36.7931 180.869 37.7777V40.4762C180.869 41.4516 180.106 42.2539 179.16 42.2539H168.622C168.166 42.2539 167.789 42.6459 167.789 43.1199V44.9888C167.789 45.4629 168.166 45.8548 168.622 45.8548H174.719C175.656 45.8548 176.427 46.648 176.427 47.6325V50.1487C176.427 51.1241 175.665 51.9264 174.719 51.9264H168.622C168.166 51.9264 167.789 52.3184 167.789 52.7925V54.8801C167.789 55.3541 168.166 55.7462 168.622 55.7462H179.292C180.229 55.7462 181 56.5393 181 57.5239V60.2223C181 61.1977 180.238 62 179.292 62H162.699L162.708 61.9726Z" fill="white"/>
<path d="M179.601 36.8808C180.339 36.8808 180.939 37.4533 180.939 38.1579V40.7649C180.939 41.4695 180.339 42.042 179.601 42.042H168.499C167.761 42.042 167.161 42.6145 167.161 43.3191V45.1246C167.161 45.8292 167.761 46.4018 168.499 46.4018H174.922C175.66 46.4018 176.26 46.9743 176.26 47.6789V50.1098C176.26 50.8144 175.66 51.3869 174.922 51.3869H168.499C167.761 51.3869 167.161 51.9593 167.161 52.6639V54.6809C167.161 55.3855 167.761 55.958 168.499 55.958H179.739C180.477 55.958 181.077 56.5305 181.077 57.2351V59.8421C181.077 60.5467 180.477 61.1192 179.739 61.1192H162.261C161.523 61.1192 160.923 60.5467 160.923 59.8421V38.1843C160.923 37.4797 161.523 36.9072 162.261 36.9072H179.591M179.591 36.0264H162.261C161.015 36.0264 160 36.9952 160 38.1843V59.8421C160 61.0312 161.015 62 162.261 62H179.739C180.985 62 182 61.0312 182 59.8421V57.2351C182 56.046 180.985 55.0773 179.739 55.0773H168.499C168.268 55.0773 168.084 54.9011 168.084 54.6809V52.6639C168.084 52.4437 168.268 52.2676 168.499 52.2676H174.922C176.168 52.2676 177.183 51.2988 177.183 50.1098V47.6789C177.183 46.4898 176.168 45.521 174.922 45.521H168.499C168.268 45.521 168.084 45.3448 168.084 45.1246V43.3191C168.084 43.0989 168.268 42.9227 168.499 42.9227H179.601C180.846 42.9227 181.862 41.954 181.862 40.7649V38.1579C181.862 36.9688 180.846 36 179.601 36L179.591 36.0264Z" fill="#629EFF"/>
</svg>
