<svg width="54" height="37" viewBox="0 0 54 37" fill="none" xmlns="http://www.w3.org/2000/svg">
<path d="M24.6324 36.1282L1.09809 19.4124C-0.233217 18.4624 -0.233217 16.9285 1.09809 15.9786L22.8632 0.517722C23.8266 -0.170782 25.4732 0.317271 25.4732 1.28466V15.2465C25.4732 15.8914 25.1141 16.5102 24.4748 16.9634L16.1015 22.9072C14.7702 23.8571 14.7702 25.391 16.1015 26.341L24.6324 32.3981C25.9637 33.348 28.1271 33.348 29.4671 32.3981L37.998 26.341C39.3293 25.391 39.3293 23.8571 37.998 22.9072L29.7124 17.0244C29.073 16.5712 28.7139 15.9524 28.7139 15.3075V1.34567C28.7139 0.378278 30.3605 -0.109776 31.324 0.578729L53.0015 15.9786C54.3328 16.9285 54.3328 18.4624 53.0015 19.4124L29.4671 36.1282C28.1358 37.0782 25.9725 37.0782 24.6324 36.1282Z" fill="url(#paint0_linear_139_1709)"/>
<mask id="mask0_139_1709" style="mask-type:luminance" maskUnits="userSpaceOnUse" x="0" y="0" width="54" height="37">
<path d="M24.6324 36.1282L1.09809 19.4124C-0.233217 18.4624 -0.233217 16.9285 1.09809 15.9786L22.8632 0.517722C23.8266 -0.170782 25.4732 0.317271 25.4732 1.28466V15.2465C25.4732 15.8914 25.1141 16.5102 24.4748 16.9634L16.1015 22.9072C14.7702 23.8571 14.7702 25.391 16.1015 26.341L24.6324 32.3981C25.9637 33.348 28.1271 33.348 29.4671 32.3981L37.998 26.341C39.3293 25.391 39.3293 23.8571 37.998 22.9072L29.7124 17.0244C29.073 16.5712 28.7139 15.9524 28.7139 15.3075V1.34567C28.7139 0.378278 30.3605 -0.109776 31.324 0.578729L53.0015 15.9786C54.3328 16.9285 54.3328 18.4624 53.0015 19.4124L29.4671 36.1282C28.1358 37.0782 25.9725 37.0782 24.6324 36.1282Z" fill="white"/>
</mask>
<g mask="url(#mask0_139_1709)">
<path d="M38.997 24.7456H15.1123V50.9436H38.997V24.7456Z" fill="#B9D4FF"/>
</g>
<defs>
<linearGradient id="paint0_linear_139_1709" x1="27.0498" y1="36.8429" x2="27.0498" y2="0.195258" gradientUnits="userSpaceOnUse">
<stop stop-color="#3166FF"/>
<stop offset="0.11" stop-color="#2A73F5"/>
<stop offset="0.51" stop-color="#13A1D4"/>
<stop offset="0.82" stop-color="#05BEBF"/>
<stop offset="1" stop-color="#00C9B8"/>
</linearGradient>
</defs>
</svg>
