<svg width="196" height="63" viewBox="0 0 196 63" fill="none" xmlns="http://www.w3.org/2000/svg">
<g id="Group">
<path id="Vector" d="M76.1299 27.46V3.64595C76.1299 2.99378 76.6642 2.46021 77.3173 2.46021H80.7212C81.0874 2.46021 81.4337 2.62819 81.6613 2.92463L92.2194 16.6103C92.912 17.5095 94.3468 17.0154 94.3468 15.8889V3.64595C94.3468 2.99378 94.8812 2.46021 95.5343 2.46021H98.2554C98.9085 2.46021 99.4428 2.99378 99.4428 3.64595V27.46C99.4428 28.1121 98.9085 28.6457 98.2554 28.6457H95.2374C94.8713 28.6457 94.5151 28.4778 94.2974 28.1813L83.4127 13.9225C82.7201 13.0233 81.2853 13.5075 81.2853 14.6439V27.46C81.2853 28.1121 80.7509 28.6457 80.0978 28.6457H77.3371C76.684 28.6457 76.1497 28.1121 76.1497 27.46H76.1299Z" fill="#00C9B8" stroke="#00C9B8" stroke-miterlimit="10"/>
<path id="Vector_2" d="M104.193 27.46V3.64595C104.193 2.99378 104.727 2.46021 105.38 2.46021H123.162C123.815 2.46021 124.349 2.99378 124.349 3.64595V5.98782C124.349 6.63999 123.815 7.17359 123.162 7.17359H110.812C110.159 7.17359 109.625 7.7072 109.625 8.35936V11.9759C109.625 12.6281 110.159 13.1617 110.812 13.1617H118.145C118.798 13.1617 119.332 13.6953 119.332 14.3475V16.5411C119.332 17.1933 118.798 17.7269 118.145 17.7269H110.812C110.159 17.7269 109.625 18.2605 109.625 18.9126V22.7565C109.625 23.4086 110.159 23.9422 110.812 23.9422H123.31C123.963 23.9422 124.497 24.4758 124.497 25.128V27.4699C124.497 28.122 123.963 28.6556 123.31 28.6556H105.38C104.727 28.6556 104.193 28.122 104.193 27.4699V27.46Z" fill="#00C9B8" stroke="#00C9B8" stroke-miterlimit="10"/>
<path id="Vector_3" d="M128.347 27.46V3.64595C128.347 2.99378 128.881 2.46021 129.534 2.46021H141.161C142.932 2.46021 144.505 2.80603 145.861 3.48784C147.227 4.16965 148.285 5.12817 149.047 6.35345C149.809 7.57874 150.185 8.98189 150.185 10.5827C150.185 12.1834 149.72 13.7249 148.8 14.9996C148.097 15.968 147.207 16.7486 146.138 17.3415C145.574 17.6577 145.366 18.3593 145.673 18.9324L149.958 26.9066C150.383 27.6971 149.809 28.6556 148.909 28.6556H145.544C145.099 28.6556 144.693 28.4086 144.486 28.0133L140.013 19.2782C139.815 18.883 139.399 18.6359 138.954 18.6359H134.947C134.294 18.6359 133.759 19.1695 133.759 19.8217V27.4797C133.759 28.1319 133.225 28.6655 132.572 28.6655H129.514C128.861 28.6655 128.327 28.1319 128.327 27.4797L128.347 27.46ZM133.779 12.9838C133.779 13.636 134.313 14.1696 134.966 14.1696H140.676C141.903 14.1696 142.883 13.8435 143.615 13.2012C144.347 12.549 144.723 11.7091 144.723 10.6617C144.723 9.61428 144.357 8.76448 143.615 8.12219C142.883 7.47002 141.893 7.15384 140.676 7.15384H134.966C134.313 7.15384 133.779 7.68741 133.779 8.33958V13.0036V12.9838Z" fill="#00C9B8" stroke="#00C9B8" stroke-miterlimit="10"/>
<path id="Vector_4" d="M153.787 27.46V3.64595C153.787 2.99378 154.321 2.46021 154.974 2.46021H163.87C165.839 2.46021 167.67 2.78629 169.342 3.44834C171.014 4.11039 172.479 5.03921 173.726 6.23485C174.972 7.43049 175.952 8.83366 176.665 10.4246C177.377 12.0253 177.733 13.7447 177.733 15.5826C177.733 17.4205 177.387 19.1695 176.684 20.7407C175.982 22.3118 175.002 23.6853 173.745 24.8711C172.489 26.0568 171.014 26.9758 169.342 27.6378C167.67 28.2999 165.849 28.626 163.87 28.626H154.974C154.321 28.626 153.787 28.0924 153.787 27.4402V27.46ZM159.219 22.6379C159.219 23.29 159.754 23.8237 160.407 23.8237H163.791C164.968 23.8237 166.057 23.6161 167.066 23.211C168.076 22.796 168.966 22.2229 169.728 21.4719C170.49 20.7209 171.074 19.8514 171.489 18.8533C171.905 17.8553 172.103 16.7684 172.103 15.6024C172.103 14.4364 171.895 13.3395 171.47 12.3317C171.044 11.3238 170.46 10.4443 169.708 9.69332C168.956 8.94234 168.076 8.35934 167.066 7.93444C166.057 7.50955 164.959 7.30205 163.791 7.30205H160.407C159.754 7.30205 159.219 7.83563 159.219 8.4878V22.6577V22.6379Z" fill="#00C9B8" stroke="#00C9B8" stroke-miterlimit="10"/>
<path id="Vector_5" d="M183.641 6.83771C182.839 6.83771 182.156 6.55116 181.582 5.97804C181.009 5.40492 180.722 4.72309 180.722 3.92271C180.722 2.76659 181.286 1.86741 182.423 1.22512C182.532 1.16583 182.641 1.1263 182.76 1.09666C183.977 0.839743 184.967 1.09664 185.719 1.84762C186.471 2.5986 186.718 3.58675 186.471 4.80216C186.451 4.92074 186.401 5.03931 186.342 5.13812C185.699 6.27447 184.798 6.83771 183.641 6.83771ZM181.098 27.4601V10.3357C181.098 9.68355 181.632 9.14994 182.285 9.14994H185.046C185.699 9.14994 186.233 9.68355 186.233 10.3357V27.4601C186.233 28.1122 185.699 28.6458 185.046 28.6458H182.285C181.632 28.6458 181.098 28.1122 181.098 27.4601Z" fill="#00C9B8" stroke="#00C9B8" stroke-miterlimit="10"/>
<path id="Vector_6" d="M67.9863 58.1316V34.3176C67.9863 33.6654 68.5206 33.1318 69.1737 33.1318H74.2302C74.6754 33.1318 75.0811 33.3789 75.2889 33.784L81.0974 45.197C81.5328 46.0566 82.7697 46.0566 83.2149 45.197L89.0234 33.784C89.2213 33.3888 89.6369 33.1318 90.0822 33.1318H95.1386C95.7917 33.1318 96.326 33.6654 96.326 34.3176V58.1316C96.326 58.7838 95.7917 59.3174 95.1386 59.3174H92.3778C91.7248 59.3174 91.1904 58.7838 91.1904 58.1316V44.8709C91.1904 43.6357 89.528 43.2207 88.9541 44.3175L83.1457 55.4241C82.7004 56.2739 81.4833 56.2739 81.038 55.4241L75.2593 44.2879C74.6853 43.191 73.023 43.5962 73.023 44.8313V58.1316C73.023 58.7838 72.4886 59.3174 71.8355 59.3174H69.1836C68.5306 59.3174 67.9962 58.7838 67.9962 58.1316H67.9863Z" fill="#00C9B8" stroke="#00C9B8" stroke-miterlimit="10"/>
<path id="Vector_7" d="M113.87 59.7226C111.921 59.7226 110.11 59.3768 108.438 58.695C106.765 58.0132 105.301 57.0448 104.034 55.8096C102.778 54.5744 101.788 53.1416 101.076 51.5112C100.363 49.8808 100.007 48.112 100.007 46.2148C100.007 44.3176 100.363 42.5587 101.076 40.9184C101.788 39.288 102.778 37.8552 104.034 36.62C105.291 35.3849 106.765 34.4264 108.438 33.7347C110.11 33.0529 111.921 32.707 113.87 32.707C115.819 32.707 117.63 33.0529 119.322 33.7347C121.004 34.4165 122.479 35.3849 123.745 36.62C125.002 37.8552 125.992 39.288 126.684 40.9184C127.387 42.5488 127.733 44.3176 127.733 46.2148C127.733 48.112 127.387 49.8709 126.684 51.5112C125.982 53.1416 125.002 54.5744 123.745 55.8096C122.489 57.0448 121.014 58.0033 119.322 58.695C117.63 59.3867 115.819 59.7226 113.87 59.7226ZM113.87 54.7424C115.067 54.7424 116.166 54.525 117.165 54.0903C118.165 53.6555 119.035 53.0527 119.787 52.2918C120.539 51.531 121.123 50.6318 121.549 49.5844C121.974 48.5369 122.182 47.4105 122.182 46.2148C122.182 45.0192 121.974 43.8631 121.549 42.8255C121.123 41.788 120.539 40.8888 119.787 40.1279C119.035 39.3671 118.165 38.7643 117.165 38.3295C116.166 37.8947 115.067 37.6773 113.87 37.6773C112.673 37.6773 111.614 37.8947 110.615 38.3295C109.615 38.7643 108.744 39.3671 107.992 40.1279C107.24 40.8888 106.657 41.788 106.231 42.8255C105.806 43.8631 105.598 44.9797 105.598 46.1753C105.598 47.3709 105.806 48.5369 106.231 49.5844C106.657 50.6318 107.24 51.5409 107.992 52.2918C108.744 53.0527 109.615 53.6555 110.615 54.0903C111.614 54.525 112.702 54.7424 113.87 54.7424Z" fill="#00C9B8" stroke="#00C9B8" stroke-miterlimit="10"/>
<path id="Vector_8" d="M144.327 59.7226C142.378 59.7226 140.567 59.3768 138.895 58.695C137.223 58.0132 135.758 57.0448 134.492 55.8096C133.235 54.5744 132.245 53.1416 131.533 51.5112C130.82 49.8808 130.464 48.112 130.464 46.2148C130.464 44.3176 130.82 42.5587 131.533 40.9184C132.245 39.288 133.235 37.8552 134.492 36.62C135.748 35.3849 137.223 34.4264 138.895 33.7347C140.567 33.0529 142.378 32.707 144.327 32.707C146.277 32.707 148.087 33.0529 149.78 33.7347C151.462 34.4165 152.936 35.3849 154.203 36.62C155.459 37.8552 156.449 39.288 157.142 40.9184C157.844 42.5488 158.19 44.3176 158.19 46.2148C158.19 48.112 157.844 49.8709 157.142 51.5112C156.439 53.1416 155.459 54.5744 154.203 55.8096C152.946 57.0448 151.472 58.0033 149.78 58.695C148.097 59.3768 146.277 59.7226 144.327 59.7226ZM144.327 54.7424C145.525 54.7424 146.623 54.525 147.622 54.0903C148.622 53.6555 149.493 53.0527 150.245 52.2918C150.997 51.531 151.58 50.6318 152.006 49.5844C152.431 48.5369 152.639 47.4105 152.639 46.2148C152.639 45.0192 152.431 43.8631 152.006 42.8255C151.58 41.788 150.997 40.8888 150.245 40.1279C149.493 39.3671 148.622 38.7643 147.622 38.3295C146.623 37.8947 145.525 37.6773 144.327 37.6773C143.13 37.6773 142.071 37.8947 141.072 38.3295C140.072 38.7643 139.202 39.3671 138.45 40.1279C137.698 40.8888 137.114 41.788 136.688 42.8255C136.263 43.8631 136.055 44.9797 136.055 46.1753C136.055 47.3709 136.263 48.5369 136.688 49.5844C137.114 50.6318 137.698 51.5409 138.45 52.2918C139.202 53.0527 140.072 53.6555 141.072 54.0903C142.071 54.525 143.16 54.7424 144.327 54.7424Z" fill="#00C9B8" stroke="#00C9B8" stroke-miterlimit="10"/>
<path id="Vector_9" d="M161.941 58.1316V34.3176C161.941 33.6654 162.475 33.1318 163.128 33.1318H172.024C173.993 33.1318 175.823 33.4579 177.496 34.12C179.168 34.782 180.632 35.7109 181.879 36.9065C183.126 38.1022 184.106 39.5053 184.818 41.0962C185.531 42.697 185.887 44.4163 185.887 46.2542C185.887 48.0922 185.54 49.8412 184.838 51.4123C184.135 52.9834 183.156 54.357 181.899 55.5427C180.642 56.7285 179.168 57.6474 177.496 58.3095C175.823 58.9715 174.003 59.2976 172.024 59.2976H163.128C162.475 59.2976 161.941 58.764 161.941 58.1119V58.1316ZM167.373 53.3095C167.373 53.9617 167.907 54.4953 168.56 54.4953H171.945C173.122 54.4953 174.211 54.2878 175.22 53.8826C176.229 53.4676 177.12 52.8945 177.882 52.1435C178.644 51.3926 179.227 50.523 179.643 49.525C180.059 48.527 180.256 47.44 180.256 46.274C180.256 45.108 180.049 44.0112 179.623 43.0033C179.198 41.9954 178.614 41.116 177.862 40.365C177.11 39.614 176.229 39.031 175.22 38.6061C174.211 38.1812 173.112 37.9737 171.945 37.9737H168.56C167.907 37.9737 167.373 38.5073 167.373 39.1595V53.3293V53.3095Z" fill="#00C9B8" stroke="#00C9B8" stroke-miterlimit="10"/>
<path id="Vector_10" d="M191.794 37.4996C190.993 37.4996 190.31 37.213 189.736 36.6399C189.162 36.0668 188.875 35.385 188.875 34.5846C188.875 33.4284 189.439 32.5293 190.577 31.887C190.686 31.8277 190.795 31.7882 190.914 31.7585C192.131 31.5016 193.12 31.7585 193.872 32.5095C194.624 33.2605 194.872 34.2486 194.624 35.464C194.604 35.5826 194.555 35.7012 194.496 35.8C193.852 36.9363 192.952 37.4996 191.794 37.4996ZM189.251 58.1219V40.9976C189.251 40.3454 189.785 39.8118 190.439 39.8118H193.199C193.852 39.8118 194.387 40.3454 194.387 40.9976V58.1219C194.387 58.7741 193.852 59.3077 193.199 59.3077H190.439C189.785 59.3077 189.251 58.7741 189.251 58.1219Z" fill="#00C9B8" stroke="#00C9B8" stroke-miterlimit="10"/>
<path id="Vector_11" d="M56.1319 20.0392C56.1319 18.7349 55.9439 17.4306 55.7658 16.1361C55.6866 15.5136 55.4293 14.9207 55.2611 14.318V14.1006C54.895 13.231 54.5783 12.3219 54.1429 11.4919C53.8857 10.9879 53.4305 10.5927 53.0644 10.1381C52.8962 9.91087 52.7378 9.67371 52.5696 9.44643C51.2635 7.72708 49.5714 6.49194 47.6814 5.48404C46.4346 4.81211 45.0988 4.40698 43.7432 4.1303C42.5459 3.88327 41.2892 3.92277 40.0523 3.83384C38.7857 3.83384 37.5191 3.8042 36.2624 3.8042C34.224 3.8042 32.1955 3.84372 30.1571 3.86348C29.1577 3.86348 28.1583 3.85361 27.1589 3.84373C26.8522 3.84373 26.5553 3.83383 26.2486 3.82395H16.0467C15.4431 3.82395 14.8197 3.79431 14.2359 3.92277C13.0583 4.17969 11.8709 4.46625 10.7429 4.88126C9.79294 5.23699 8.8628 5.72117 8.02171 6.29429C7.13115 6.90693 6.28018 7.60852 5.55783 8.40891C4.66727 9.39704 3.85585 10.4741 3.12361 11.5907C2.67833 12.2824 2.48043 13.1322 2.10441 13.8634C1.32269 15.3654 1.10501 17.0254 1.06543 18.6262C0.946691 22.8653 1.02584 27.1143 1.02584 31.3534C1.02584 35.0292 0.986282 38.715 1.04565 42.3908C1.06544 43.8434 1.28313 45.2861 1.44145 46.7287C1.47114 46.9955 1.65914 47.2425 1.77788 47.4896C2.24296 48.5963 2.63876 49.7425 3.20279 50.7998C3.67775 51.699 4.33081 52.4994 4.94431 53.3196C5.23127 53.705 5.60729 54.0212 5.94373 54.367C6.04268 54.5251 6.11194 54.7326 6.25048 54.8215C7.2202 55.4935 8.18993 56.1852 9.19924 56.7879C11.5642 58.1812 14.1666 58.7642 16.8977 58.7741C23.2503 58.784 29.603 58.7939 35.9557 58.7543C38.7857 58.7346 41.6454 59.1101 44.416 58.1614C45.3066 57.8551 46.2763 57.7267 47.1075 57.3116C48.7105 56.5112 50.2641 55.5824 51.4911 54.2484C52.2233 53.4481 52.8863 52.5884 53.5294 51.7089C54.1627 50.8493 54.5487 49.871 54.9939 48.9026C55.5283 47.7268 55.8647 46.5015 55.9835 45.2762C56.1913 43.2406 56.122 41.1754 56.1319 39.1201C56.1517 32.7565 56.1715 26.3929 56.1319 20.0294V20.0392ZM52.2728 47.1734C51.7978 48.0627 51.4515 49.0311 50.8973 49.871C50.3432 50.7307 49.6902 51.5508 48.9381 52.2425C47.9288 53.1812 46.8601 54.0903 45.6925 54.8018C44.6139 55.454 43.3474 55.7504 42.061 55.9678C39.6862 56.3729 37.3014 55.9875 34.9365 56.2148C33.1257 56.3927 31.3545 56.0666 29.5535 56.1654C27.7427 56.2642 25.922 56.2049 24.1013 56.195C23.567 56.195 23.0326 56.1358 22.4884 56.116C22.4191 56.116 22.3499 56.0962 22.2905 56.116C21.2911 56.4816 20.262 56.1457 19.2527 56.1555C17.5013 56.1654 15.7498 55.8986 14.0083 55.6911C13.5432 55.6318 13.0781 55.3947 12.6428 55.1872C11.772 54.7721 10.9111 54.3374 10.0799 53.8532C9.68408 53.6259 9.32788 53.3196 9.02113 52.9836C8.32847 52.2425 7.74466 51.4026 7.01242 50.7208C5.92396 49.703 5.49845 48.3295 4.80579 47.0943C4.55842 46.6596 4.55841 46.2446 4.45946 45.8098C4.08344 44.5746 3.94492 43.3296 3.97461 42.0351C4.02408 40.2663 3.97459 38.4877 3.99439 36.7091C4.01418 35.1775 4.07355 33.6557 4.12303 32.1241C4.13292 31.7882 3.77668 31.3237 4.41987 31.1953C4.52872 31.1953 4.62767 31.1953 4.73652 31.1854H7.85348C8.08107 31.1854 8.30866 31.2051 8.53625 31.215C10.3075 31.2348 12.0787 31.2447 13.8499 31.2644C13.9291 32.8455 13.8796 34.4462 14.127 36.0075C14.3249 37.3019 14.7306 38.6161 15.2946 39.8019C15.8191 40.9185 16.5909 41.9462 17.3924 42.8948C18.1049 43.7347 18.946 44.4857 19.8167 45.1675C20.8755 46.0074 21.9838 46.7781 23.3295 47.1339C24.5466 47.46 25.734 48.0331 26.961 48.1418C28.4947 48.2801 30.0483 48.3789 31.6117 47.9738C33.0465 47.6082 34.4912 47.3315 35.7776 46.5706C36.777 45.9777 37.8654 45.4738 38.6867 44.6932C39.7653 43.6754 40.8439 42.6477 41.6454 41.3434C42.5162 39.9205 43.2484 38.4482 43.6046 36.8474C43.8718 35.6419 44.2082 34.4166 44.0895 33.1419C44.0301 32.5194 44.0895 31.887 44.0895 31.2546C46.9294 31.2546 49.7693 31.2545 52.6092 31.215C53.0842 31.215 53.0644 31.472 53.0644 31.7882V43.9422C53.0644 45.0884 52.8071 46.1655 52.2629 47.1833H52.2728V47.1734Z" fill="#00C9B8" stroke="#00C9B8" stroke-miterlimit="10"/>
<g id="Group 72">
<g id="Group 71">
<g id="Vector_12">
<mask id="path-12-outside-1_0_1" maskUnits="userSpaceOnUse" x="75.1299" y="3.81396" width="25" height="28" fill="black">
<rect fill="white" x="75.1299" y="3.81396" width="25" height="28"/>
<path d="M76.1299 29.8137V5.99971C76.1299 5.34754 76.6642 4.81396 77.3173 4.81396H80.7212C81.0874 4.81396 81.4337 4.98195 81.6613 5.27839L92.2194 18.964C92.912 19.8632 94.3468 19.3692 94.3468 18.2427V5.99971C94.3468 5.34754 94.8812 4.81396 95.5343 4.81396H98.2554C98.9085 4.81396 99.4428 5.34754 99.4428 5.99971V29.8137C99.4428 30.4659 98.9085 30.9995 98.2554 30.9995H95.2374C94.8713 30.9995 94.5151 30.8315 94.2974 30.5351L83.4127 16.2763C82.7201 15.3771 81.2853 15.8613 81.2853 16.9976V29.8137C81.2853 30.4659 80.7509 30.9995 80.0978 30.9995H77.3371C76.684 30.9995 76.1497 30.4659 76.1497 29.8137H76.1299Z"/>
</mask>
<path d="M76.1299 29.8137V5.99971C76.1299 5.34754 76.6642 4.81396 77.3173 4.81396H80.7212C81.0874 4.81396 81.4337 4.98195 81.6613 5.27839L92.2194 18.964C92.912 19.8632 94.3468 19.3692 94.3468 18.2427V5.99971C94.3468 5.34754 94.8812 4.81396 95.5343 4.81396H98.2554C98.9085 4.81396 99.4428 5.34754 99.4428 5.99971V29.8137C99.4428 30.4659 98.9085 30.9995 98.2554 30.9995H95.2374C94.8713 30.9995 94.5151 30.8315 94.2974 30.5351L83.4127 16.2763C82.7201 15.3771 81.2853 15.8613 81.2853 16.9976V29.8137C81.2853 30.4659 80.7509 30.9995 80.0978 30.9995H77.3371C76.684 30.9995 76.1497 30.4659 76.1497 29.8137H76.1299Z" fill="#99E9E3"/>
<path d="M76.1299 29.8137V5.99971C76.1299 5.34754 76.6642 4.81396 77.3173 4.81396H80.7212C81.0874 4.81396 81.4337 4.98195 81.6613 5.27839L92.2194 18.964C92.912 19.8632 94.3468 19.3692 94.3468 18.2427V5.99971C94.3468 5.34754 94.8812 4.81396 95.5343 4.81396H98.2554C98.9085 4.81396 99.4428 5.34754 99.4428 5.99971V29.8137C99.4428 30.4659 98.9085 30.9995 98.2554 30.9995H95.2374C94.8713 30.9995 94.5151 30.8315 94.2974 30.5351L83.4127 16.2763C82.7201 15.3771 81.2853 15.8613 81.2853 16.9976V29.8137C81.2853 30.4659 80.7509 30.9995 80.0978 30.9995H77.3371C76.684 30.9995 76.1497 30.4659 76.1497 29.8137H76.1299Z" stroke="#00C9B8" stroke-miterlimit="10" mask="url(#path-12-outside-1_0_1)"/>
</g>
<g id="Vector_13">
<mask id="path-13-outside-2_0_1" maskUnits="userSpaceOnUse" x="103.193" y="3.81396" width="22" height="28" fill="black">
<rect fill="white" x="103.193" y="3.81396" width="22" height="28"/>
<path d="M104.193 29.8137V5.99971C104.193 5.34754 104.727 4.81396 105.38 4.81396H123.162C123.815 4.81396 124.349 5.34754 124.349 5.99971V8.34158C124.349 8.99375 123.815 9.52735 123.162 9.52735H110.812C110.159 9.52735 109.625 10.061 109.625 10.7131V14.3297C109.625 14.9819 110.159 15.5154 110.812 15.5154H118.145C118.798 15.5154 119.332 16.049 119.332 16.7012V18.8949C119.332 19.547 118.798 20.0806 118.145 20.0806H110.812C110.159 20.0806 109.625 20.6142 109.625 21.2664V25.1102C109.625 25.7624 110.159 26.296 110.812 26.296H123.31C123.963 26.296 124.497 26.8296 124.497 27.4818V29.8236C124.497 30.4758 123.963 31.0094 123.31 31.0094H105.38C104.727 31.0094 104.193 30.4758 104.193 29.8236V29.8137Z"/>
</mask>
<path d="M104.193 29.8137V5.99971C104.193 5.34754 104.727 4.81396 105.38 4.81396H123.162C123.815 4.81396 124.349 5.34754 124.349 5.99971V8.34158C124.349 8.99375 123.815 9.52735 123.162 9.52735H110.812C110.159 9.52735 109.625 10.061 109.625 10.7131V14.3297C109.625 14.9819 110.159 15.5154 110.812 15.5154H118.145C118.798 15.5154 119.332 16.049 119.332 16.7012V18.8949C119.332 19.547 118.798 20.0806 118.145 20.0806H110.812C110.159 20.0806 109.625 20.6142 109.625 21.2664V25.1102C109.625 25.7624 110.159 26.296 110.812 26.296H123.31C123.963 26.296 124.497 26.8296 124.497 27.4818V29.8236C124.497 30.4758 123.963 31.0094 123.31 31.0094H105.38C104.727 31.0094 104.193 30.4758 104.193 29.8236V29.8137Z" fill="#99E9E3"/>
<path d="M104.193 29.8137V5.99971C104.193 5.34754 104.727 4.81396 105.38 4.81396H123.162C123.815 4.81396 124.349 5.34754 124.349 5.99971V8.34158C124.349 8.99375 123.815 9.52735 123.162 9.52735H110.812C110.159 9.52735 109.625 10.061 109.625 10.7131V14.3297C109.625 14.9819 110.159 15.5154 110.812 15.5154H118.145C118.798 15.5154 119.332 16.049 119.332 16.7012V18.8949C119.332 19.547 118.798 20.0806 118.145 20.0806H110.812C110.159 20.0806 109.625 20.6142 109.625 21.2664V25.1102C109.625 25.7624 110.159 26.296 110.812 26.296H123.31C123.963 26.296 124.497 26.8296 124.497 27.4818V29.8236C124.497 30.4758 123.963 31.0094 123.31 31.0094H105.38C104.727 31.0094 104.193 30.4758 104.193 29.8236V29.8137Z" stroke="#00C9B8" stroke-miterlimit="10" mask="url(#path-13-outside-2_0_1)"/>
</g>
<g id="Vector_14">
<mask id="path-14-outside-3_0_1" maskUnits="userSpaceOnUse" x="127.327" y="3.81396" width="24" height="28" fill="black">
<rect fill="white" x="127.327" y="3.81396" width="24" height="28"/>
<path d="M128.347 29.8137V5.99971C128.347 5.34754 128.881 4.81396 129.534 4.81396H141.161C142.932 4.81396 144.505 5.15979 145.861 5.8416C147.227 6.52341 148.285 7.48193 149.047 8.70721C149.809 9.9325 150.185 11.3356 150.185 12.9364C150.185 14.5372 149.72 16.0787 148.8 17.3534C148.097 18.3218 147.207 19.1024 146.138 19.6953C145.574 20.0115 145.366 20.713 145.673 21.2861L149.958 29.2604C150.383 30.0509 149.809 31.0094 148.909 31.0094H145.544C145.099 31.0094 144.693 30.7623 144.486 30.3671L140.013 21.632C139.815 21.2367 139.399 20.9897 138.954 20.9897H134.947C134.294 20.9897 133.759 21.5233 133.759 22.1755V29.8335C133.759 30.4857 133.225 31.0193 132.572 31.0193H129.514C128.861 31.0193 128.327 30.4857 128.327 29.8335L128.347 29.8137ZM133.779 15.3376C133.779 15.9898 134.313 16.5234 134.966 16.5234H140.676C141.903 16.5234 142.883 16.1973 143.615 15.555C144.347 14.9028 144.723 14.0629 144.723 13.0155C144.723 11.968 144.357 11.1182 143.615 10.476C142.883 9.82378 141.893 9.5076 140.676 9.5076H134.966C134.313 9.5076 133.779 10.0412 133.779 10.6933V15.3573V15.3376Z"/>
</mask>
<path d="M128.347 29.8137V5.99971C128.347 5.34754 128.881 4.81396 129.534 4.81396H141.161C142.932 4.81396 144.505 5.15979 145.861 5.8416C147.227 6.52341 148.285 7.48193 149.047 8.70721C149.809 9.9325 150.185 11.3356 150.185 12.9364C150.185 14.5372 149.72 16.0787 148.8 17.3534C148.097 18.3218 147.207 19.1024 146.138 19.6953C145.574 20.0115 145.366 20.713 145.673 21.2861L149.958 29.2604C150.383 30.0509 149.809 31.0094 148.909 31.0094H145.544C145.099 31.0094 144.693 30.7623 144.486 30.3671L140.013 21.632C139.815 21.2367 139.399 20.9897 138.954 20.9897H134.947C134.294 20.9897 133.759 21.5233 133.759 22.1755V29.8335C133.759 30.4857 133.225 31.0193 132.572 31.0193H129.514C128.861 31.0193 128.327 30.4857 128.327 29.8335L128.347 29.8137ZM133.779 15.3376C133.779 15.9898 134.313 16.5234 134.966 16.5234H140.676C141.903 16.5234 142.883 16.1973 143.615 15.555C144.347 14.9028 144.723 14.0629 144.723 13.0155C144.723 11.968 144.357 11.1182 143.615 10.476C142.883 9.82378 141.893 9.5076 140.676 9.5076H134.966C134.313 9.5076 133.779 10.0412 133.779 10.6933V15.3573V15.3376Z" fill="#99E9E3"/>
<path d="M128.347 29.8137V5.99971C128.347 5.34754 128.881 4.81396 129.534 4.81396H141.161C142.932 4.81396 144.505 5.15979 145.861 5.8416C147.227 6.52341 148.285 7.48193 149.047 8.70721C149.809 9.9325 150.185 11.3356 150.185 12.9364C150.185 14.5372 149.72 16.0787 148.8 17.3534C148.097 18.3218 147.207 19.1024 146.138 19.6953C145.574 20.0115 145.366 20.713 145.673 21.2861L149.958 29.2604C150.383 30.0509 149.809 31.0094 148.909 31.0094H145.544C145.099 31.0094 144.693 30.7623 144.486 30.3671L140.013 21.632C139.815 21.2367 139.399 20.9897 138.954 20.9897H134.947C134.294 20.9897 133.759 21.5233 133.759 22.1755V29.8335C133.759 30.4857 133.225 31.0193 132.572 31.0193H129.514C128.861 31.0193 128.327 30.4857 128.327 29.8335L128.347 29.8137ZM133.779 15.3376C133.779 15.9898 134.313 16.5234 134.966 16.5234H140.676C141.903 16.5234 142.883 16.1973 143.615 15.555C144.347 14.9028 144.723 14.0629 144.723 13.0155C144.723 11.968 144.357 11.1182 143.615 10.476C142.883 9.82378 141.893 9.5076 140.676 9.5076H134.966C134.313 9.5076 133.779 10.0412 133.779 10.6933V15.3573V15.3376Z" stroke="#00C9B8" stroke-miterlimit="10" mask="url(#path-14-outside-3_0_1)"/>
</g>
<g id="Vector_15">
<mask id="path-15-outside-4_0_1" maskUnits="userSpaceOnUse" x="152.787" y="3.81396" width="26" height="28" fill="black">
<rect fill="white" x="152.787" y="3.81396" width="26" height="28"/>
<path d="M153.787 29.8137V5.99971C153.787 5.34754 154.321 4.81396 154.974 4.81396H163.87C165.839 4.81396 167.67 5.14005 169.342 5.8021C171.014 6.46415 172.479 7.39297 173.726 8.58861C174.972 9.78425 175.952 11.1874 176.665 12.7783C177.377 14.3791 177.733 16.0985 177.733 17.9364C177.733 19.7743 177.387 21.5233 176.684 23.0944C175.982 24.6656 175.002 26.0391 173.745 27.2248C172.489 28.4106 171.014 29.3295 169.342 29.9916C167.67 30.6536 165.849 30.9797 163.87 30.9797H154.974C154.321 30.9797 153.787 30.4462 153.787 29.794V29.8137ZM159.219 24.9916C159.219 25.6438 159.754 26.1774 160.407 26.1774H163.791C164.968 26.1774 166.057 25.9699 167.066 25.5648C168.076 25.1498 168.966 24.5766 169.728 23.8256C170.49 23.0747 171.074 22.2051 171.489 21.2071C171.905 20.2091 172.103 19.1221 172.103 17.9561C172.103 16.7901 171.895 15.6933 171.47 14.6854C171.044 13.6775 170.46 12.7981 169.708 12.0471C168.956 11.2961 168.076 10.7131 167.066 10.2882C166.057 9.86331 164.959 9.65581 163.791 9.65581H160.407C159.754 9.65581 159.219 10.1894 159.219 10.8416V25.0114V24.9916Z"/>
</mask>
<path d="M153.787 29.8137V5.99971C153.787 5.34754 154.321 4.81396 154.974 4.81396H163.87C165.839 4.81396 167.67 5.14005 169.342 5.8021C171.014 6.46415 172.479 7.39297 173.726 8.58861C174.972 9.78425 175.952 11.1874 176.665 12.7783C177.377 14.3791 177.733 16.0985 177.733 17.9364C177.733 19.7743 177.387 21.5233 176.684 23.0944C175.982 24.6656 175.002 26.0391 173.745 27.2248C172.489 28.4106 171.014 29.3295 169.342 29.9916C167.67 30.6536 165.849 30.9797 163.87 30.9797H154.974C154.321 30.9797 153.787 30.4462 153.787 29.794V29.8137ZM159.219 24.9916C159.219 25.6438 159.754 26.1774 160.407 26.1774H163.791C164.968 26.1774 166.057 25.9699 167.066 25.5648C168.076 25.1498 168.966 24.5766 169.728 23.8256C170.49 23.0747 171.074 22.2051 171.489 21.2071C171.905 20.2091 172.103 19.1221 172.103 17.9561C172.103 16.7901 171.895 15.6933 171.47 14.6854C171.044 13.6775 170.46 12.7981 169.708 12.0471C168.956 11.2961 168.076 10.7131 167.066 10.2882C166.057 9.86331 164.959 9.65581 163.791 9.65581H160.407C159.754 9.65581 159.219 10.1894 159.219 10.8416V25.0114V24.9916Z" fill="#99E9E3"/>
<path d="M153.787 29.8137V5.99971C153.787 5.34754 154.321 4.81396 154.974 4.81396H163.87C165.839 4.81396 167.67 5.14005 169.342 5.8021C171.014 6.46415 172.479 7.39297 173.726 8.58861C174.972 9.78425 175.952 11.1874 176.665 12.7783C177.377 14.3791 177.733 16.0985 177.733 17.9364C177.733 19.7743 177.387 21.5233 176.684 23.0944C175.982 24.6656 175.002 26.0391 173.745 27.2248C172.489 28.4106 171.014 29.3295 169.342 29.9916C167.67 30.6536 165.849 30.9797 163.87 30.9797H154.974C154.321 30.9797 153.787 30.4462 153.787 29.794V29.8137ZM159.219 24.9916C159.219 25.6438 159.754 26.1774 160.407 26.1774H163.791C164.968 26.1774 166.057 25.9699 167.066 25.5648C168.076 25.1498 168.966 24.5766 169.728 23.8256C170.49 23.0747 171.074 22.2051 171.489 21.2071C171.905 20.2091 172.103 19.1221 172.103 17.9561C172.103 16.7901 171.895 15.6933 171.47 14.6854C171.044 13.6775 170.46 12.7981 169.708 12.0471C168.956 11.2961 168.076 10.7131 167.066 10.2882C166.057 9.86331 164.959 9.65581 163.791 9.65581H160.407C159.754 9.65581 159.219 10.1894 159.219 10.8416V25.0114V24.9916Z" stroke="#00C9B8" stroke-miterlimit="10" mask="url(#path-15-outside-4_0_1)"/>
</g>
<g id="Vector_16">
<mask id="path-16-outside-5_0_1" maskUnits="userSpaceOnUse" x="179.722" y="2.35376" width="8" height="30" fill="black">
<rect fill="white" x="179.722" y="2.35376" width="8" height="30"/>
<path d="M183.641 9.19147C182.839 9.19147 182.156 8.90491 181.582 8.3318C181.009 7.75868 180.722 7.07685 180.722 6.27646C180.722 5.12034 181.286 4.22116 182.423 3.57887C182.532 3.51959 182.641 3.48006 182.76 3.45041C183.977 3.1935 184.967 3.45042 185.719 4.2014C186.471 4.95239 186.718 5.94051 186.471 7.15591C186.451 7.27449 186.401 7.39306 186.342 7.49188C185.699 8.62823 184.798 9.19147 183.641 9.19147ZM181.098 29.8138V12.6895C181.098 12.0373 181.632 11.5037 182.285 11.5037H185.046C185.699 11.5037 186.233 12.0373 186.233 12.6895V29.8138C186.233 30.466 185.699 30.9996 185.046 30.9996H182.285C181.632 30.9996 181.098 30.466 181.098 29.8138Z"/>
</mask>
<path d="M183.641 9.19147C182.839 9.19147 182.156 8.90491 181.582 8.3318C181.009 7.75868 180.722 7.07685 180.722 6.27646C180.722 5.12034 181.286 4.22116 182.423 3.57887C182.532 3.51959 182.641 3.48006 182.76 3.45041C183.977 3.1935 184.967 3.45042 185.719 4.2014C186.471 4.95239 186.718 5.94051 186.471 7.15591C186.451 7.27449 186.401 7.39306 186.342 7.49188C185.699 8.62823 184.798 9.19147 183.641 9.19147ZM181.098 29.8138V12.6895C181.098 12.0373 181.632 11.5037 182.285 11.5037H185.046C185.699 11.5037 186.233 12.0373 186.233 12.6895V29.8138C186.233 30.466 185.699 30.9996 185.046 30.9996H182.285C181.632 30.9996 181.098 30.466 181.098 29.8138Z" fill="#99E9E3"/>
<path d="M183.641 9.19147C182.839 9.19147 182.156 8.90491 181.582 8.3318C181.009 7.75868 180.722 7.07685 180.722 6.27646C180.722 5.12034 181.286 4.22116 182.423 3.57887C182.532 3.51959 182.641 3.48006 182.76 3.45041C183.977 3.1935 184.967 3.45042 185.719 4.2014C186.471 4.95239 186.718 5.94051 186.471 7.15591C186.451 7.27449 186.401 7.39306 186.342 7.49188C185.699 8.62823 184.798 9.19147 183.641 9.19147ZM181.098 29.8138V12.6895C181.098 12.0373 181.632 11.5037 182.285 11.5037H185.046C185.699 11.5037 186.233 12.0373 186.233 12.6895V29.8138C186.233 30.466 185.699 30.9996 185.046 30.9996H182.285C181.632 30.9996 181.098 30.466 181.098 29.8138Z" stroke="#00C9B8" stroke-miterlimit="10" mask="url(#path-16-outside-5_0_1)"/>
</g>
<g id="Vector_17">
<mask id="path-17-outside-6_0_1" maskUnits="userSpaceOnUse" x="66.9863" y="34.4856" width="30" height="28" fill="black">
<rect fill="white" x="66.9863" y="34.4856" width="30" height="28"/>
<path d="M67.9863 60.4854V36.6714C67.9863 36.0192 68.5206 35.4856 69.1737 35.4856H74.2302C74.6754 35.4856 75.0811 35.7326 75.2889 36.1378L81.0974 47.5507C81.5328 48.4104 82.7697 48.4104 83.2149 47.5507L89.0234 36.1378C89.2213 35.7425 89.6369 35.4856 90.0822 35.4856H95.1386C95.7917 35.4856 96.326 36.0192 96.326 36.6714V60.4854C96.326 61.1376 95.7917 61.6711 95.1386 61.6711H92.3778C91.7248 61.6711 91.1904 61.1376 91.1904 60.4854V47.2246C91.1904 45.9895 89.528 45.5744 88.9541 46.6713L83.1457 57.7779C82.7004 58.6277 81.4833 58.6277 81.038 57.7779L75.2593 46.6416C74.6853 45.5448 73.023 45.95 73.023 47.1851V60.4854C73.023 61.1376 72.4886 61.6711 71.8355 61.6711H69.1836C68.5306 61.6711 67.9962 61.1376 67.9962 60.4854H67.9863Z"/>
</mask>
<path d="M67.9863 60.4854V36.6714C67.9863 36.0192 68.5206 35.4856 69.1737 35.4856H74.2302C74.6754 35.4856 75.0811 35.7326 75.2889 36.1378L81.0974 47.5507C81.5328 48.4104 82.7697 48.4104 83.2149 47.5507L89.0234 36.1378C89.2213 35.7425 89.6369 35.4856 90.0822 35.4856H95.1386C95.7917 35.4856 96.326 36.0192 96.326 36.6714V60.4854C96.326 61.1376 95.7917 61.6711 95.1386 61.6711H92.3778C91.7248 61.6711 91.1904 61.1376 91.1904 60.4854V47.2246C91.1904 45.9895 89.528 45.5744 88.9541 46.6713L83.1457 57.7779C82.7004 58.6277 81.4833 58.6277 81.038 57.7779L75.2593 46.6416C74.6853 45.5448 73.023 45.95 73.023 47.1851V60.4854C73.023 61.1376 72.4886 61.6711 71.8355 61.6711H69.1836C68.5306 61.6711 67.9962 61.1376 67.9962 60.4854H67.9863Z" fill="#99E9E3"/>
<path d="M67.9863 60.4854V36.6714C67.9863 36.0192 68.5206 35.4856 69.1737 35.4856H74.2302C74.6754 35.4856 75.0811 35.7326 75.2889 36.1378L81.0974 47.5507C81.5328 48.4104 82.7697 48.4104 83.2149 47.5507L89.0234 36.1378C89.2213 35.7425 89.6369 35.4856 90.0822 35.4856H95.1386C95.7917 35.4856 96.326 36.0192 96.326 36.6714V60.4854C96.326 61.1376 95.7917 61.6711 95.1386 61.6711H92.3778C91.7248 61.6711 91.1904 61.1376 91.1904 60.4854V47.2246C91.1904 45.9895 89.528 45.5744 88.9541 46.6713L83.1457 57.7779C82.7004 58.6277 81.4833 58.6277 81.038 57.7779L75.2593 46.6416C74.6853 45.5448 73.023 45.95 73.023 47.1851V60.4854C73.023 61.1376 72.4886 61.6711 71.8355 61.6711H69.1836C68.5306 61.6711 67.9962 61.1376 67.9962 60.4854H67.9863Z" stroke="#00C9B8" stroke-miterlimit="10" mask="url(#path-17-outside-6_0_1)"/>
</g>
<g id="Vector_18">
<mask id="path-18-outside-7_0_1" maskUnits="userSpaceOnUse" x="99.007" y="34.0608" width="30" height="29" fill="black">
<rect fill="white" x="99.007" y="34.0608" width="30" height="29"/>
<path d="M113.87 62.0764C111.921 62.0764 110.11 61.7305 108.438 61.0487C106.765 60.3669 105.301 59.3985 104.034 58.1634C102.778 56.9282 101.788 55.4954 101.076 53.865C100.363 52.2346 100.007 50.4658 100.007 48.5686C100.007 46.6714 100.363 44.9125 101.076 43.2722C101.788 41.6418 102.778 40.209 104.034 38.9738C105.291 37.7386 106.765 36.7802 108.438 36.0885C110.11 35.4066 111.921 35.0608 113.87 35.0608C115.819 35.0608 117.63 35.4066 119.322 36.0885C121.004 36.7703 122.479 37.7386 123.745 38.9738C125.002 40.209 125.992 41.6418 126.684 43.2722C127.387 44.9026 127.733 46.6714 127.733 48.5686C127.733 50.4658 127.387 52.2247 126.684 53.865C125.982 55.4954 125.002 56.9282 123.745 58.1634C122.489 59.3985 121.014 60.357 119.322 61.0487C117.64 61.7305 115.819 62.0764 113.87 62.0764ZM113.87 57.0962C115.067 57.0962 116.166 56.8788 117.165 56.444C118.165 56.0092 119.035 55.4065 119.787 54.6456C120.539 53.8847 121.123 52.9856 121.549 51.9381C121.974 50.8907 122.182 49.7642 122.182 48.5686C122.182 47.3729 121.974 46.2168 121.549 45.1793C121.123 44.1418 120.539 43.2425 119.787 42.4817C119.035 41.7208 118.165 41.1181 117.165 40.6833C116.166 40.2485 115.067 40.0311 113.87 40.0311C112.673 40.0311 111.614 40.2485 110.615 40.6833C109.615 41.1181 108.744 41.7208 107.992 42.4817C107.24 43.2425 106.657 44.1418 106.231 45.1793C105.806 46.2168 105.598 47.3334 105.598 48.5291C105.598 49.7247 105.806 50.8907 106.231 51.9381C106.657 52.9856 107.24 53.8946 107.992 54.6456C108.744 55.4065 109.615 56.0092 110.615 56.444C111.614 56.8788 112.702 57.0962 113.87 57.0962Z"/>
</mask>
<path d="M113.87 62.0764C111.921 62.0764 110.11 61.7305 108.438 61.0487C106.765 60.3669 105.301 59.3985 104.034 58.1634C102.778 56.9282 101.788 55.4954 101.076 53.865C100.363 52.2346 100.007 50.4658 100.007 48.5686C100.007 46.6714 100.363 44.9125 101.076 43.2722C101.788 41.6418 102.778 40.209 104.034 38.9738C105.291 37.7386 106.765 36.7802 108.438 36.0885C110.11 35.4066 111.921 35.0608 113.87 35.0608C115.819 35.0608 117.63 35.4066 119.322 36.0885C121.004 36.7703 122.479 37.7386 123.745 38.9738C125.002 40.209 125.992 41.6418 126.684 43.2722C127.387 44.9026 127.733 46.6714 127.733 48.5686C127.733 50.4658 127.387 52.2247 126.684 53.865C125.982 55.4954 125.002 56.9282 123.745 58.1634C122.489 59.3985 121.014 60.357 119.322 61.0487C117.64 61.7305 115.819 62.0764 113.87 62.0764ZM113.87 57.0962C115.067 57.0962 116.166 56.8788 117.165 56.444C118.165 56.0092 119.035 55.4065 119.787 54.6456C120.539 53.8847 121.123 52.9856 121.549 51.9381C121.974 50.8907 122.182 49.7642 122.182 48.5686C122.182 47.3729 121.974 46.2168 121.549 45.1793C121.123 44.1418 120.539 43.2425 119.787 42.4817C119.035 41.7208 118.165 41.1181 117.165 40.6833C116.166 40.2485 115.067 40.0311 113.87 40.0311C112.673 40.0311 111.614 40.2485 110.615 40.6833C109.615 41.1181 108.744 41.7208 107.992 42.4817C107.24 43.2425 106.657 44.1418 106.231 45.1793C105.806 46.2168 105.598 47.3334 105.598 48.5291C105.598 49.7247 105.806 50.8907 106.231 51.9381C106.657 52.9856 107.24 53.8946 107.992 54.6456C108.744 55.4065 109.615 56.0092 110.615 56.444C111.614 56.8788 112.702 57.0962 113.87 57.0962Z" fill="#99E9E3"/>
<path d="M113.87 62.0764C111.921 62.0764 110.11 61.7305 108.438 61.0487C106.765 60.3669 105.301 59.3985 104.034 58.1634C102.778 56.9282 101.788 55.4954 101.076 53.865C100.363 52.2346 100.007 50.4658 100.007 48.5686C100.007 46.6714 100.363 44.9125 101.076 43.2722C101.788 41.6418 102.778 40.209 104.034 38.9738C105.291 37.7386 106.765 36.7802 108.438 36.0885C110.11 35.4066 111.921 35.0608 113.87 35.0608C115.819 35.0608 117.63 35.4066 119.322 36.0885C121.004 36.7703 122.479 37.7386 123.745 38.9738C125.002 40.209 125.992 41.6418 126.684 43.2722C127.387 44.9026 127.733 46.6714 127.733 48.5686C127.733 50.4658 127.387 52.2247 126.684 53.865C125.982 55.4954 125.002 56.9282 123.745 58.1634C122.489 59.3985 121.014 60.357 119.322 61.0487C117.64 61.7305 115.819 62.0764 113.87 62.0764ZM113.87 57.0962C115.067 57.0962 116.166 56.8788 117.165 56.444C118.165 56.0092 119.035 55.4065 119.787 54.6456C120.539 53.8847 121.123 52.9856 121.549 51.9381C121.974 50.8907 122.182 49.7642 122.182 48.5686C122.182 47.3729 121.974 46.2168 121.549 45.1793C121.123 44.1418 120.539 43.2425 119.787 42.4817C119.035 41.7208 118.165 41.1181 117.165 40.6833C116.166 40.2485 115.067 40.0311 113.87 40.0311C112.673 40.0311 111.614 40.2485 110.615 40.6833C109.615 41.1181 108.744 41.7208 107.992 42.4817C107.24 43.2425 106.657 44.1418 106.231 45.1793C105.806 46.2168 105.598 47.3334 105.598 48.5291C105.598 49.7247 105.806 50.8907 106.231 51.9381C106.657 52.9856 107.24 53.8946 107.992 54.6456C108.744 55.4065 109.615 56.0092 110.615 56.444C111.614 56.8788 112.702 57.0962 113.87 57.0962Z" stroke="#00C9B8" stroke-miterlimit="10" mask="url(#path-18-outside-7_0_1)"/>
</g>
<g id="Vector_19">
<mask id="path-19-outside-8_0_1" maskUnits="userSpaceOnUse" x="129.464" y="34.0608" width="30" height="29" fill="black">
<rect fill="white" x="129.464" y="34.0608" width="30" height="29"/>
<path d="M144.327 62.0764C142.378 62.0764 140.567 61.7305 138.895 61.0487C137.223 60.3669 135.758 59.3985 134.492 58.1634C133.235 56.9282 132.245 55.4954 131.533 53.865C130.82 52.2346 130.464 50.4658 130.464 48.5686C130.464 46.6714 130.82 44.9125 131.533 43.2722C132.245 41.6418 133.235 40.209 134.492 38.9738C135.748 37.7386 137.223 36.7802 138.895 36.0885C140.567 35.4066 142.378 35.0608 144.327 35.0608C146.277 35.0608 148.087 35.4066 149.78 36.0885C151.462 36.7703 152.936 37.7386 154.203 38.9738C155.459 40.209 156.449 41.6418 157.142 43.2722C157.844 44.9026 158.19 46.6714 158.19 48.5686C158.19 50.4658 157.844 52.2247 157.142 53.865C156.439 55.4954 155.459 56.9282 154.203 58.1634C152.946 59.3985 151.472 60.357 149.78 61.0487C148.087 61.7404 146.277 62.0764 144.327 62.0764ZM144.327 57.0962C145.525 57.0962 146.623 56.8788 147.622 56.444C148.622 56.0092 149.493 55.4065 150.245 54.6456C150.997 53.8847 151.58 52.9856 152.006 51.9381C152.431 50.8907 152.639 49.7642 152.639 48.5686C152.639 47.3729 152.431 46.2168 152.006 45.1793C151.58 44.1418 150.997 43.2425 150.245 42.4817C149.493 41.7208 148.622 41.1181 147.622 40.6833C146.623 40.2485 145.525 40.0311 144.327 40.0311C143.13 40.0311 142.071 40.2485 141.072 40.6833C140.072 41.1181 139.202 41.7208 138.45 42.4817C137.698 43.2425 137.114 44.1418 136.688 45.1793C136.263 46.2168 136.055 47.3334 136.055 48.5291C136.055 49.7247 136.263 50.8907 136.688 51.9381C137.114 52.9856 137.698 53.8946 138.45 54.6456C139.202 55.4065 140.072 56.0092 141.072 56.444C142.071 56.8788 143.16 57.0962 144.327 57.0962Z"/>
</mask>
<path d="M144.327 62.0764C142.378 62.0764 140.567 61.7305 138.895 61.0487C137.223 60.3669 135.758 59.3985 134.492 58.1634C133.235 56.9282 132.245 55.4954 131.533 53.865C130.82 52.2346 130.464 50.4658 130.464 48.5686C130.464 46.6714 130.82 44.9125 131.533 43.2722C132.245 41.6418 133.235 40.209 134.492 38.9738C135.748 37.7386 137.223 36.7802 138.895 36.0885C140.567 35.4066 142.378 35.0608 144.327 35.0608C146.277 35.0608 148.087 35.4066 149.78 36.0885C151.462 36.7703 152.936 37.7386 154.203 38.9738C155.459 40.209 156.449 41.6418 157.142 43.2722C157.844 44.9026 158.19 46.6714 158.19 48.5686C158.19 50.4658 157.844 52.2247 157.142 53.865C156.439 55.4954 155.459 56.9282 154.203 58.1634C152.946 59.3985 151.472 60.357 149.78 61.0487C148.087 61.7404 146.277 62.0764 144.327 62.0764ZM144.327 57.0962C145.525 57.0962 146.623 56.8788 147.622 56.444C148.622 56.0092 149.493 55.4065 150.245 54.6456C150.997 53.8847 151.58 52.9856 152.006 51.9381C152.431 50.8907 152.639 49.7642 152.639 48.5686C152.639 47.3729 152.431 46.2168 152.006 45.1793C151.58 44.1418 150.997 43.2425 150.245 42.4817C149.493 41.7208 148.622 41.1181 147.622 40.6833C146.623 40.2485 145.525 40.0311 144.327 40.0311C143.13 40.0311 142.071 40.2485 141.072 40.6833C140.072 41.1181 139.202 41.7208 138.45 42.4817C137.698 43.2425 137.114 44.1418 136.688 45.1793C136.263 46.2168 136.055 47.3334 136.055 48.5291C136.055 49.7247 136.263 50.8907 136.688 51.9381C137.114 52.9856 137.698 53.8946 138.45 54.6456C139.202 55.4065 140.072 56.0092 141.072 56.444C142.071 56.8788 143.16 57.0962 144.327 57.0962Z" fill="#99E9E3"/>
<path d="M144.327 62.0764C142.378 62.0764 140.567 61.7305 138.895 61.0487C137.223 60.3669 135.758 59.3985 134.492 58.1634C133.235 56.9282 132.245 55.4954 131.533 53.865C130.82 52.2346 130.464 50.4658 130.464 48.5686C130.464 46.6714 130.82 44.9125 131.533 43.2722C132.245 41.6418 133.235 40.209 134.492 38.9738C135.748 37.7386 137.223 36.7802 138.895 36.0885C140.567 35.4066 142.378 35.0608 144.327 35.0608C146.277 35.0608 148.087 35.4066 149.78 36.0885C151.462 36.7703 152.936 37.7386 154.203 38.9738C155.459 40.209 156.449 41.6418 157.142 43.2722C157.844 44.9026 158.19 46.6714 158.19 48.5686C158.19 50.4658 157.844 52.2247 157.142 53.865C156.439 55.4954 155.459 56.9282 154.203 58.1634C152.946 59.3985 151.472 60.357 149.78 61.0487C148.087 61.7404 146.277 62.0764 144.327 62.0764ZM144.327 57.0962C145.525 57.0962 146.623 56.8788 147.622 56.444C148.622 56.0092 149.493 55.4065 150.245 54.6456C150.997 53.8847 151.58 52.9856 152.006 51.9381C152.431 50.8907 152.639 49.7642 152.639 48.5686C152.639 47.3729 152.431 46.2168 152.006 45.1793C151.58 44.1418 150.997 43.2425 150.245 42.4817C149.493 41.7208 148.622 41.1181 147.622 40.6833C146.623 40.2485 145.525 40.0311 144.327 40.0311C143.13 40.0311 142.071 40.2485 141.072 40.6833C140.072 41.1181 139.202 41.7208 138.45 42.4817C137.698 43.2425 137.114 44.1418 136.688 45.1793C136.263 46.2168 136.055 47.3334 136.055 48.5291C136.055 49.7247 136.263 50.8907 136.688 51.9381C137.114 52.9856 137.698 53.8946 138.45 54.6456C139.202 55.4065 140.072 56.0092 141.072 56.444C142.071 56.8788 143.16 57.0962 144.327 57.0962Z" stroke="#00C9B8" stroke-miterlimit="10" mask="url(#path-19-outside-8_0_1)"/>
</g>
<g id="Vector_20">
<mask id="path-20-outside-9_0_1" maskUnits="userSpaceOnUse" x="160.941" y="34.4856" width="26" height="28" fill="black">
<rect fill="white" x="160.941" y="34.4856" width="26" height="28"/>
<path d="M161.941 60.4854V36.6714C161.941 36.0192 162.475 35.4856 163.128 35.4856H172.024C173.993 35.4856 175.823 35.8117 177.496 36.4737C179.168 37.1358 180.632 38.0646 181.879 39.2603C183.126 40.4559 184.106 41.8591 184.818 43.45C185.531 45.0508 185.887 46.7701 185.887 48.608C185.887 50.4459 185.54 52.1949 184.838 53.7661C184.135 55.3372 183.156 56.7107 181.899 57.8965C180.642 59.0823 179.168 60.0012 177.496 60.6633C175.823 61.3253 174.003 61.6514 172.024 61.6514H163.128C162.475 61.6514 161.941 61.1178 161.941 60.4656V60.4854ZM167.373 55.6633C167.373 56.3155 167.907 56.8491 168.56 56.8491H171.945C173.122 56.8491 174.211 56.6415 175.22 56.2364C176.229 55.8214 177.12 55.2483 177.882 54.4973C178.644 53.7463 179.227 52.8768 179.643 51.8788C180.059 50.8807 180.256 49.7938 180.256 48.6278C180.256 47.4618 180.049 46.365 179.623 45.3571C179.198 44.3492 178.614 43.4697 177.862 42.7187C177.11 41.9678 176.229 41.3848 175.22 40.9599C174.211 40.535 173.112 40.3275 171.945 40.3275H168.56C167.907 40.3275 167.373 40.861 167.373 41.5132V55.6831V55.6633Z"/>
</mask>
<path d="M161.941 60.4854V36.6714C161.941 36.0192 162.475 35.4856 163.128 35.4856H172.024C173.993 35.4856 175.823 35.8117 177.496 36.4737C179.168 37.1358 180.632 38.0646 181.879 39.2603C183.126 40.4559 184.106 41.8591 184.818 43.45C185.531 45.0508 185.887 46.7701 185.887 48.608C185.887 50.4459 185.54 52.1949 184.838 53.7661C184.135 55.3372 183.156 56.7107 181.899 57.8965C180.642 59.0823 179.168 60.0012 177.496 60.6633C175.823 61.3253 174.003 61.6514 172.024 61.6514H163.128C162.475 61.6514 161.941 61.1178 161.941 60.4656V60.4854ZM167.373 55.6633C167.373 56.3155 167.907 56.8491 168.56 56.8491H171.945C173.122 56.8491 174.211 56.6415 175.22 56.2364C176.229 55.8214 177.12 55.2483 177.882 54.4973C178.644 53.7463 179.227 52.8768 179.643 51.8788C180.059 50.8807 180.256 49.7938 180.256 48.6278C180.256 47.4618 180.049 46.365 179.623 45.3571C179.198 44.3492 178.614 43.4697 177.862 42.7187C177.11 41.9678 176.229 41.3848 175.22 40.9599C174.211 40.535 173.112 40.3275 171.945 40.3275H168.56C167.907 40.3275 167.373 40.861 167.373 41.5132V55.6831V55.6633Z" fill="#99E9E3"/>
<path d="M161.941 60.4854V36.6714C161.941 36.0192 162.475 35.4856 163.128 35.4856H172.024C173.993 35.4856 175.823 35.8117 177.496 36.4737C179.168 37.1358 180.632 38.0646 181.879 39.2603C183.126 40.4559 184.106 41.8591 184.818 43.45C185.531 45.0508 185.887 46.7701 185.887 48.608C185.887 50.4459 185.54 52.1949 184.838 53.7661C184.135 55.3372 183.156 56.7107 181.899 57.8965C180.642 59.0823 179.168 60.0012 177.496 60.6633C175.823 61.3253 174.003 61.6514 172.024 61.6514H163.128C162.475 61.6514 161.941 61.1178 161.941 60.4656V60.4854ZM167.373 55.6633C167.373 56.3155 167.907 56.8491 168.56 56.8491H171.945C173.122 56.8491 174.211 56.6415 175.22 56.2364C176.229 55.8214 177.12 55.2483 177.882 54.4973C178.644 53.7463 179.227 52.8768 179.643 51.8788C180.059 50.8807 180.256 49.7938 180.256 48.6278C180.256 47.4618 180.049 46.365 179.623 45.3571C179.198 44.3492 178.614 43.4697 177.862 42.7187C177.11 41.9678 176.229 41.3848 175.22 40.9599C174.211 40.535 173.112 40.3275 171.945 40.3275H168.56C167.907 40.3275 167.373 40.861 167.373 41.5132V55.6831V55.6633Z" stroke="#00C9B8" stroke-miterlimit="10" mask="url(#path-20-outside-9_0_1)"/>
</g>
<g id="Vector_21">
<mask id="path-21-outside-10_0_1" maskUnits="userSpaceOnUse" x="187.875" y="33.0154" width="8" height="30" fill="black">
<rect fill="white" x="187.875" y="33.0154" width="8" height="30"/>
<path d="M191.794 39.8531C190.993 39.8531 190.31 39.5665 189.736 38.9934C189.162 38.4203 188.875 37.7385 188.875 36.9381C188.875 35.782 189.439 34.8828 190.577 34.2405C190.686 34.1812 190.795 34.1417 190.914 34.112C192.131 33.8551 193.12 34.112 193.872 34.863C194.624 35.614 194.872 36.6021 194.624 37.8175C194.604 37.9361 194.555 38.0547 194.496 38.1535C193.852 39.2899 192.952 39.8531 191.794 39.8531ZM189.251 60.4754V43.3511C189.251 42.6989 189.785 42.1653 190.439 42.1653H193.199C193.852 42.1653 194.387 42.6989 194.387 43.3511V60.4754C194.387 61.1276 193.852 61.6612 193.199 61.6612H190.439C189.785 61.6612 189.251 61.1276 189.251 60.4754Z"/>
</mask>
<path d="M191.794 39.8531C190.993 39.8531 190.31 39.5665 189.736 38.9934C189.162 38.4203 188.875 37.7385 188.875 36.9381C188.875 35.782 189.439 34.8828 190.577 34.2405C190.686 34.1812 190.795 34.1417 190.914 34.112C192.131 33.8551 193.12 34.112 193.872 34.863C194.624 35.614 194.872 36.6021 194.624 37.8175C194.604 37.9361 194.555 38.0547 194.496 38.1535C193.852 39.2899 192.952 39.8531 191.794 39.8531ZM189.251 60.4754V43.3511C189.251 42.6989 189.785 42.1653 190.439 42.1653H193.199C193.852 42.1653 194.387 42.6989 194.387 43.3511V60.4754C194.387 61.1276 193.852 61.6612 193.199 61.6612H190.439C189.785 61.6612 189.251 61.1276 189.251 60.4754Z" fill="#99E9E3"/>
<path d="M191.794 39.8531C190.993 39.8531 190.31 39.5665 189.736 38.9934C189.162 38.4203 188.875 37.7385 188.875 36.9381C188.875 35.782 189.439 34.8828 190.577 34.2405C190.686 34.1812 190.795 34.1417 190.914 34.112C192.131 33.8551 193.12 34.112 193.872 34.863C194.624 35.614 194.872 36.6021 194.624 37.8175C194.604 37.9361 194.555 38.0547 194.496 38.1535C193.852 39.2899 192.952 39.8531 191.794 39.8531ZM189.251 60.4754V43.3511C189.251 42.6989 189.785 42.1653 190.439 42.1653H193.199C193.852 42.1653 194.387 42.6989 194.387 43.3511V60.4754C194.387 61.1276 193.852 61.6612 193.199 61.6612H190.439C189.785 61.6612 189.251 61.1276 189.251 60.4754Z" stroke="#00C9B8" stroke-miterlimit="10" mask="url(#path-21-outside-10_0_1)"/>
</g>
<g id="Vector_22">
<mask id="path-22-outside-11_0_1" maskUnits="userSpaceOnUse" x="0" y="5.93848" width="57" height="57" fill="black">
<rect fill="white" y="5.93848" width="57" height="57"/>
<path d="M56.1319 23.1735C56.1319 21.8692 55.9439 20.5649 55.7658 19.2704C55.6866 18.6479 55.4293 18.055 55.2611 17.4522V17.2348C54.895 16.3653 54.5783 15.4562 54.1429 14.6262C53.8857 14.1222 53.4305 13.727 53.0644 13.2724C52.8962 13.0451 52.7378 12.808 52.5696 12.5807C51.2635 10.8614 49.5714 9.62621 47.6814 8.61832C46.4346 7.94639 45.0988 7.54122 43.7432 7.26455C42.5459 7.01751 41.2892 7.05705 40.0523 6.96812C38.7857 6.96812 37.5191 6.93848 36.2624 6.93848C34.224 6.93848 32.1955 6.978 30.1571 6.99776C29.1577 6.99776 28.1583 6.98789 27.1589 6.97801C26.8522 6.97801 26.5553 6.96811 26.2486 6.95823H16.0467C15.4431 6.95823 14.8197 6.92859 14.2359 7.05705C13.0583 7.31396 11.8709 7.60052 10.7429 8.01554C9.79294 8.37127 8.8628 8.85545 8.02171 9.42856C7.13115 10.0412 6.28018 10.7428 5.55783 11.5432C4.66727 12.5313 3.85585 13.6084 3.12361 14.725C2.67833 15.4167 2.48043 16.2665 2.10441 16.9977C1.32269 18.4996 1.10501 20.1597 1.06543 21.7605C0.946691 25.9996 1.02584 30.2486 1.02584 34.4876C1.02584 38.1635 0.986282 41.8492 1.04565 45.5251C1.06544 46.9776 1.28313 48.4203 1.44145 49.863C1.47114 50.1298 1.65914 50.3768 1.77788 50.6239C2.24296 51.7306 2.63876 52.8768 3.20279 53.9341C3.67775 54.8333 4.33081 55.6337 4.94431 56.4538C5.23127 56.8392 5.60729 57.1554 5.94373 57.5013C6.04268 57.6594 6.11194 57.8669 6.25048 57.9558C7.2202 58.6278 8.18993 59.3194 9.19924 59.9222C11.5642 61.3155 14.1666 61.8985 16.8977 61.9084C23.2503 61.9182 29.603 61.9281 35.9557 61.8886C38.7857 61.8688 41.6454 62.2443 44.416 61.2957C45.3066 60.9894 46.2763 60.8609 47.1075 60.4459C48.7105 59.6455 50.2641 58.7167 51.4911 57.3827C52.2233 56.5823 52.8863 55.7226 53.5294 54.8432C54.1627 53.9835 54.5487 53.0053 54.9939 52.0369C55.5283 50.861 55.8647 49.6357 55.9835 48.4105C56.1913 46.3749 56.122 44.3097 56.1319 42.2544C56.1517 35.8908 56.1715 29.5272 56.1319 23.1636V23.1735ZM52.2728 50.3077C51.7978 51.197 51.4515 52.1654 50.8973 53.0053C50.3432 53.8649 49.6902 54.6851 48.9381 55.3768C47.9288 56.3155 46.8601 57.2246 45.6925 57.936C44.6139 58.5882 43.3474 58.8847 42.061 59.1021C39.6862 59.5072 37.3014 59.1218 34.9365 59.3491C33.1257 59.527 31.3545 59.2009 29.5535 59.2997C27.7427 59.3985 25.922 59.3392 24.1013 59.3293C23.567 59.3293 23.0326 59.27 22.4884 59.2503C22.4191 59.2503 22.3499 59.2305 22.2905 59.2503C21.2911 59.6159 20.262 59.2799 19.2527 59.2898C17.5013 59.2997 15.7498 59.0329 14.0083 58.8254C13.5432 58.7661 13.0781 58.5289 12.6428 58.3214C11.772 57.9064 10.9111 57.4716 10.0799 56.9874C9.68408 56.7602 9.32788 56.4538 9.02113 56.1179C8.32847 55.3768 7.74466 54.5369 7.01242 53.8551C5.92396 52.8373 5.49845 51.4638 4.80579 50.2286C4.55842 49.7938 4.55841 49.3788 4.45946 48.9441C4.08344 47.7089 3.94492 46.4638 3.97461 45.1694C4.02408 43.4006 3.97459 41.622 3.99439 39.8433C4.01418 38.3117 4.07355 36.79 4.12303 35.2584C4.13292 34.9224 3.77668 34.458 4.41987 34.3295C4.52872 34.3295 4.62767 34.3295 4.73652 34.3197H7.85348C8.08107 34.3197 8.30866 34.3394 8.53625 34.3493C10.3075 34.3691 12.0787 34.379 13.8499 34.3987C13.9291 35.9797 13.8796 37.5805 14.127 39.1418C14.3249 40.4362 14.7306 41.7504 15.2946 42.9362C15.8191 44.0528 16.5909 45.0804 17.3924 46.029C18.1049 46.869 18.946 47.6199 19.8167 48.3017C20.8755 49.1417 21.9838 49.9124 23.3295 50.2681C24.5466 50.5942 25.734 51.1673 26.961 51.276C28.4947 51.4144 30.0483 51.5132 31.6117 51.1081C33.0465 50.7425 34.4912 50.4658 35.7776 49.7049C36.777 49.112 37.8654 48.6081 38.6867 47.8275C39.7653 46.8097 40.8439 45.782 41.6454 44.4777C42.5162 43.0548 43.2484 41.5824 43.6046 39.9817C43.8718 38.7761 44.2082 37.5509 44.0895 36.2762C44.0301 35.6536 44.0895 35.0212 44.0895 34.3888C46.9294 34.3888 49.7693 34.3888 52.6092 34.3493C53.0842 34.3493 53.0644 34.6062 53.0644 34.9224V47.0765C53.0644 48.2227 52.8071 49.2998 52.2629 50.3175H52.2728V50.3077Z"/>
</mask>
<path d="M56.1319 23.1735C56.1319 21.8692 55.9439 20.5649 55.7658 19.2704C55.6866 18.6479 55.4293 18.055 55.2611 17.4522V17.2348C54.895 16.3653 54.5783 15.4562 54.1429 14.6262C53.8857 14.1222 53.4305 13.727 53.0644 13.2724C52.8962 13.0451 52.7378 12.808 52.5696 12.5807C51.2635 10.8614 49.5714 9.62621 47.6814 8.61832C46.4346 7.94639 45.0988 7.54122 43.7432 7.26455C42.5459 7.01751 41.2892 7.05705 40.0523 6.96812C38.7857 6.96812 37.5191 6.93848 36.2624 6.93848C34.224 6.93848 32.1955 6.978 30.1571 6.99776C29.1577 6.99776 28.1583 6.98789 27.1589 6.97801C26.8522 6.97801 26.5553 6.96811 26.2486 6.95823H16.0467C15.4431 6.95823 14.8197 6.92859 14.2359 7.05705C13.0583 7.31396 11.8709 7.60052 10.7429 8.01554C9.79294 8.37127 8.8628 8.85545 8.02171 9.42856C7.13115 10.0412 6.28018 10.7428 5.55783 11.5432C4.66727 12.5313 3.85585 13.6084 3.12361 14.725C2.67833 15.4167 2.48043 16.2665 2.10441 16.9977C1.32269 18.4996 1.10501 20.1597 1.06543 21.7605C0.946691 25.9996 1.02584 30.2486 1.02584 34.4876C1.02584 38.1635 0.986282 41.8492 1.04565 45.5251C1.06544 46.9776 1.28313 48.4203 1.44145 49.863C1.47114 50.1298 1.65914 50.3768 1.77788 50.6239C2.24296 51.7306 2.63876 52.8768 3.20279 53.9341C3.67775 54.8333 4.33081 55.6337 4.94431 56.4538C5.23127 56.8392 5.60729 57.1554 5.94373 57.5013C6.04268 57.6594 6.11194 57.8669 6.25048 57.9558C7.2202 58.6278 8.18993 59.3194 9.19924 59.9222C11.5642 61.3155 14.1666 61.8985 16.8977 61.9084C23.2503 61.9182 29.603 61.9281 35.9557 61.8886C38.7857 61.8688 41.6454 62.2443 44.416 61.2957C45.3066 60.9894 46.2763 60.8609 47.1075 60.4459C48.7105 59.6455 50.2641 58.7167 51.4911 57.3827C52.2233 56.5823 52.8863 55.7226 53.5294 54.8432C54.1627 53.9835 54.5487 53.0053 54.9939 52.0369C55.5283 50.861 55.8647 49.6357 55.9835 48.4105C56.1913 46.3749 56.122 44.3097 56.1319 42.2544C56.1517 35.8908 56.1715 29.5272 56.1319 23.1636V23.1735ZM52.2728 50.3077C51.7978 51.197 51.4515 52.1654 50.8973 53.0053C50.3432 53.8649 49.6902 54.6851 48.9381 55.3768C47.9288 56.3155 46.8601 57.2246 45.6925 57.936C44.6139 58.5882 43.3474 58.8847 42.061 59.1021C39.6862 59.5072 37.3014 59.1218 34.9365 59.3491C33.1257 59.527 31.3545 59.2009 29.5535 59.2997C27.7427 59.3985 25.922 59.3392 24.1013 59.3293C23.567 59.3293 23.0326 59.27 22.4884 59.2503C22.4191 59.2503 22.3499 59.2305 22.2905 59.2503C21.2911 59.6159 20.262 59.2799 19.2527 59.2898C17.5013 59.2997 15.7498 59.0329 14.0083 58.8254C13.5432 58.7661 13.0781 58.5289 12.6428 58.3214C11.772 57.9064 10.9111 57.4716 10.0799 56.9874C9.68408 56.7602 9.32788 56.4538 9.02113 56.1179C8.32847 55.3768 7.74466 54.5369 7.01242 53.8551C5.92396 52.8373 5.49845 51.4638 4.80579 50.2286C4.55842 49.7938 4.55841 49.3788 4.45946 48.9441C4.08344 47.7089 3.94492 46.4638 3.97461 45.1694C4.02408 43.4006 3.97459 41.622 3.99439 39.8433C4.01418 38.3117 4.07355 36.79 4.12303 35.2584C4.13292 34.9224 3.77668 34.458 4.41987 34.3295C4.52872 34.3295 4.62767 34.3295 4.73652 34.3197H7.85348C8.08107 34.3197 8.30866 34.3394 8.53625 34.3493C10.3075 34.3691 12.0787 34.379 13.8499 34.3987C13.9291 35.9797 13.8796 37.5805 14.127 39.1418C14.3249 40.4362 14.7306 41.7504 15.2946 42.9362C15.8191 44.0528 16.5909 45.0804 17.3924 46.029C18.1049 46.869 18.946 47.6199 19.8167 48.3017C20.8755 49.1417 21.9838 49.9124 23.3295 50.2681C24.5466 50.5942 25.734 51.1673 26.961 51.276C28.4947 51.4144 30.0483 51.5132 31.6117 51.1081C33.0465 50.7425 34.4912 50.4658 35.7776 49.7049C36.777 49.112 37.8654 48.6081 38.6867 47.8275C39.7653 46.8097 40.8439 45.782 41.6454 44.4777C42.5162 43.0548 43.2484 41.5824 43.6046 39.9817C43.8718 38.7761 44.2082 37.5509 44.0895 36.2762C44.0301 35.6536 44.0895 35.0212 44.0895 34.3888C46.9294 34.3888 49.7693 34.3888 52.6092 34.3493C53.0842 34.3493 53.0644 34.6062 53.0644 34.9224V47.0765C53.0644 48.2227 52.8071 49.2998 52.2629 50.3175H52.2728V50.3077Z" fill="#99E9E3"/>
<path d="M56.1319 23.1735C56.1319 21.8692 55.9439 20.5649 55.7658 19.2704C55.6866 18.6479 55.4293 18.055 55.2611 17.4522V17.2348C54.895 16.3653 54.5783 15.4562 54.1429 14.6262C53.8857 14.1222 53.4305 13.727 53.0644 13.2724C52.8962 13.0451 52.7378 12.808 52.5696 12.5807C51.2635 10.8614 49.5714 9.62621 47.6814 8.61832C46.4346 7.94639 45.0988 7.54122 43.7432 7.26455C42.5459 7.01751 41.2892 7.05705 40.0523 6.96812C38.7857 6.96812 37.5191 6.93848 36.2624 6.93848C34.224 6.93848 32.1955 6.978 30.1571 6.99776C29.1577 6.99776 28.1583 6.98789 27.1589 6.97801C26.8522 6.97801 26.5553 6.96811 26.2486 6.95823H16.0467C15.4431 6.95823 14.8197 6.92859 14.2359 7.05705C13.0583 7.31396 11.8709 7.60052 10.7429 8.01554C9.79294 8.37127 8.8628 8.85545 8.02171 9.42856C7.13115 10.0412 6.28018 10.7428 5.55783 11.5432C4.66727 12.5313 3.85585 13.6084 3.12361 14.725C2.67833 15.4167 2.48043 16.2665 2.10441 16.9977C1.32269 18.4996 1.10501 20.1597 1.06543 21.7605C0.946691 25.9996 1.02584 30.2486 1.02584 34.4876C1.02584 38.1635 0.986282 41.8492 1.04565 45.5251C1.06544 46.9776 1.28313 48.4203 1.44145 49.863C1.47114 50.1298 1.65914 50.3768 1.77788 50.6239C2.24296 51.7306 2.63876 52.8768 3.20279 53.9341C3.67775 54.8333 4.33081 55.6337 4.94431 56.4538C5.23127 56.8392 5.60729 57.1554 5.94373 57.5013C6.04268 57.6594 6.11194 57.8669 6.25048 57.9558C7.2202 58.6278 8.18993 59.3194 9.19924 59.9222C11.5642 61.3155 14.1666 61.8985 16.8977 61.9084C23.2503 61.9182 29.603 61.9281 35.9557 61.8886C38.7857 61.8688 41.6454 62.2443 44.416 61.2957C45.3066 60.9894 46.2763 60.8609 47.1075 60.4459C48.7105 59.6455 50.2641 58.7167 51.4911 57.3827C52.2233 56.5823 52.8863 55.7226 53.5294 54.8432C54.1627 53.9835 54.5487 53.0053 54.9939 52.0369C55.5283 50.861 55.8647 49.6357 55.9835 48.4105C56.1913 46.3749 56.122 44.3097 56.1319 42.2544C56.1517 35.8908 56.1715 29.5272 56.1319 23.1636V23.1735ZM52.2728 50.3077C51.7978 51.197 51.4515 52.1654 50.8973 53.0053C50.3432 53.8649 49.6902 54.6851 48.9381 55.3768C47.9288 56.3155 46.8601 57.2246 45.6925 57.936C44.6139 58.5882 43.3474 58.8847 42.061 59.1021C39.6862 59.5072 37.3014 59.1218 34.9365 59.3491C33.1257 59.527 31.3545 59.2009 29.5535 59.2997C27.7427 59.3985 25.922 59.3392 24.1013 59.3293C23.567 59.3293 23.0326 59.27 22.4884 59.2503C22.4191 59.2503 22.3499 59.2305 22.2905 59.2503C21.2911 59.6159 20.262 59.2799 19.2527 59.2898C17.5013 59.2997 15.7498 59.0329 14.0083 58.8254C13.5432 58.7661 13.0781 58.5289 12.6428 58.3214C11.772 57.9064 10.9111 57.4716 10.0799 56.9874C9.68408 56.7602 9.32788 56.4538 9.02113 56.1179C8.32847 55.3768 7.74466 54.5369 7.01242 53.8551C5.92396 52.8373 5.49845 51.4638 4.80579 50.2286C4.55842 49.7938 4.55841 49.3788 4.45946 48.9441C4.08344 47.7089 3.94492 46.4638 3.97461 45.1694C4.02408 43.4006 3.97459 41.622 3.99439 39.8433C4.01418 38.3117 4.07355 36.79 4.12303 35.2584C4.13292 34.9224 3.77668 34.458 4.41987 34.3295C4.52872 34.3295 4.62767 34.3295 4.73652 34.3197H7.85348C8.08107 34.3197 8.30866 34.3394 8.53625 34.3493C10.3075 34.3691 12.0787 34.379 13.8499 34.3987C13.9291 35.9797 13.8796 37.5805 14.127 39.1418C14.3249 40.4362 14.7306 41.7504 15.2946 42.9362C15.8191 44.0528 16.5909 45.0804 17.3924 46.029C18.1049 46.869 18.946 47.6199 19.8167 48.3017C20.8755 49.1417 21.9838 49.9124 23.3295 50.2681C24.5466 50.5942 25.734 51.1673 26.961 51.276C28.4947 51.4144 30.0483 51.5132 31.6117 51.1081C33.0465 50.7425 34.4912 50.4658 35.7776 49.7049C36.777 49.112 37.8654 48.6081 38.6867 47.8275C39.7653 46.8097 40.8439 45.782 41.6454 44.4777C42.5162 43.0548 43.2484 41.5824 43.6046 39.9817C43.8718 38.7761 44.2082 37.5509 44.0895 36.2762C44.0301 35.6536 44.0895 35.0212 44.0895 34.3888C46.9294 34.3888 49.7693 34.3888 52.6092 34.3493C53.0842 34.3493 53.0644 34.6062 53.0644 34.9224V47.0765C53.0644 48.2227 52.8071 49.2998 52.2629 50.3175H52.2728V50.3077Z" stroke="#00C9B8" stroke-miterlimit="10" mask="url(#path-22-outside-11_0_1)"/>
</g>
</g>
</g>
</g>
</svg>
