<svg width="118" height="43" viewBox="0 0 118 43" fill="none" xmlns="http://www.w3.org/2000/svg">
<path d="M0.336426 38.4635V38.7135H0.364295C0.484629 39.5544 1.20369 40.1957 2.07936 40.1957H8.07142C9.03204 40.1957 9.8042 39.424 9.8042 38.4635V20.9504C9.8042 19.7862 11.2906 19.2728 12.0071 20.1997L12.0076 20.2003L27.0379 39.5299C27.0381 39.5302 27.0383 39.5304 27.0385 39.5307C27.3608 39.9479 27.8709 40.1957 28.4038 40.1957H34.599C35.5596 40.1957 36.3317 39.424 36.3317 38.4635V2.75717C36.3317 1.79666 35.5596 1.0249 34.599 1.0249H28.6069C27.6463 1.0249 26.8741 1.79666 26.8741 2.75717V19.4072C26.8741 20.5799 25.3879 21.0868 24.6705 20.1672L24.6702 20.1668L10.1877 1.68922L10.1877 1.68921L10.1861 1.68723C9.85612 1.27491 9.35881 1.0249 8.82296 1.0249H2.06921C1.10858 1.0249 0.336426 1.79666 0.336426 2.75717V38.4635Z" fill="#102870" stroke="#102870" stroke-width="0.5"/>
<path d="M44.9824 38.2236H44.9723V38.4736C44.9723 39.4341 45.7444 40.2059 46.7051 40.2059H53.2455C54.2062 40.2059 54.9783 39.4341 54.9783 38.4736V26.1891C54.9783 25.5049 55.5265 24.9568 56.2111 24.9568H67.3929C68.3535 24.9568 69.1257 24.1851 69.1257 23.2246V18.2296C69.1257 17.2691 68.3535 16.4973 67.3929 16.4973H56.2111C55.5265 16.4973 54.9783 15.9492 54.9783 15.265V10.9908C54.9783 10.3066 55.5265 9.75857 56.2111 9.75857H74.4716C75.4323 9.75857 76.2044 8.98681 76.2044 8.02631V2.75717C76.2044 1.79666 75.4323 1.0249 74.4716 1.0249H46.7152C45.7546 1.0249 44.9824 1.79666 44.9824 2.75717V38.2236Z" fill="#102870" stroke="#102870" stroke-width="0.5"/>
<path d="M94.2187 11.1533V38.4635C94.2187 39.424 94.9909 40.1957 95.9515 40.1957H102.492C103.453 40.1957 104.225 39.424 104.225 38.4635V11.1533C104.225 10.4691 104.773 9.92101 105.458 9.92101H115.146C116.107 9.92101 116.879 9.14925 116.879 8.18875V2.75717C116.879 1.79666 116.107 1.0249 115.146 1.0249H83.2971C82.3365 1.0249 81.5643 1.79666 81.5643 2.75717V8.18875C81.5643 9.14925 82.3365 9.92101 83.2971 9.92101H92.986C93.6706 9.92101 94.2187 10.4691 94.2187 11.1533Z" fill="#102870" stroke="#102870" stroke-width="0.5"/>
<path d="M0.336426 38.4635V38.7135H0.364295C0.484629 39.5544 1.20369 40.1957 2.07936 40.1957H8.07142C9.03204 40.1957 9.8042 39.424 9.8042 38.4635V20.9504C9.8042 19.7862 11.2906 19.2728 12.0071 20.1997L12.0076 20.2003L27.0379 39.5299C27.0381 39.5302 27.0383 39.5304 27.0385 39.5307C27.3608 39.9479 27.8709 40.1957 28.4038 40.1957H34.599C35.5596 40.1957 36.3317 39.424 36.3317 38.4635V2.75717C36.3317 1.79666 35.5596 1.0249 34.599 1.0249H28.6069C27.6463 1.0249 26.8741 1.79666 26.8741 2.75717V19.4072C26.8741 20.5799 25.3879 21.0868 24.6705 20.1672L24.6702 20.1668L10.1877 1.68922L10.1877 1.68921L10.1861 1.68723C9.85612 1.27491 9.35881 1.0249 8.82296 1.0249H2.06921C1.10858 1.0249 0.336426 1.79666 0.336426 2.75717V38.4635Z" fill="#102870" stroke="#102870" stroke-width="0.5"/>
<path d="M44.9824 38.2236H44.9723V38.4736C44.9723 39.4341 45.7444 40.2059 46.7051 40.2059H53.2455C54.2062 40.2059 54.9783 39.4341 54.9783 38.4736V26.1891C54.9783 25.5049 55.5265 24.9568 56.2111 24.9568H67.3929C68.3535 24.9568 69.1257 24.1851 69.1257 23.2246V18.2296C69.1257 17.2691 68.3535 16.4973 67.3929 16.4973H56.2111C55.5265 16.4973 54.9783 15.9492 54.9783 15.265V10.9908C54.9783 10.3066 55.5265 9.75857 56.2111 9.75857H74.4716C75.4323 9.75857 76.2044 8.98681 76.2044 8.02631V2.75717C76.2044 1.79666 75.4323 1.0249 74.4716 1.0249H46.7152C45.7546 1.0249 44.9824 1.79666 44.9824 2.75717V38.2236Z" fill="#102870" stroke="#102870" stroke-width="0.5"/>
<path d="M94.2187 11.1533V38.4635C94.2187 39.424 94.9909 40.1957 95.9515 40.1957H102.492C103.453 40.1957 104.225 39.424 104.225 38.4635V11.1533C104.225 10.4691 104.773 9.92101 105.458 9.92101H115.146C116.107 9.92101 116.879 9.14925 116.879 8.18875V2.75717C116.879 1.79666 116.107 1.0249 115.146 1.0249H83.2971C82.3365 1.0249 81.5643 1.79666 81.5643 2.75717V8.18875C81.5643 9.14925 82.3365 9.92101 83.2971 9.92101H92.986C93.6706 9.92101 94.2187 10.4691 94.2187 11.1533Z" fill="#102870" stroke="#102870" stroke-width="0.5"/>
<path d="M0.336426 40.8459V41.0959H0.364295C0.484629 41.9369 1.20369 42.5782 2.07936 42.5782H8.07142C9.03204 42.5782 9.8042 41.8064 9.8042 40.8459V23.3329C9.8042 22.1687 11.2906 21.6553 12.0071 22.5822L12.0076 22.5828L27.0379 41.9124C27.0381 41.9126 27.0383 41.9129 27.0385 41.9131C27.3608 42.3304 27.8709 42.5782 28.4038 42.5782H34.599C35.5596 42.5782 36.3317 41.8064 36.3317 40.8459V5.13961C36.3317 4.17911 35.5596 3.40735 34.599 3.40735H28.6069C27.6463 3.40735 26.8741 4.17911 26.8741 5.13961V21.7897C26.8741 22.9623 25.3879 23.4693 24.6705 22.5497L24.6702 22.5492L10.1877 4.07167L10.1877 4.07166L10.1861 4.06968C9.85612 3.65736 9.35881 3.40735 8.82296 3.40735H2.06921C1.10858 3.40735 0.336426 4.17911 0.336426 5.13961V40.8459Z" fill="#629EFF" stroke="#102870" stroke-width="0.5"/>
<path d="M44.9824 40.6061H44.9723V40.8561C44.9723 41.8166 45.7444 42.5883 46.7051 42.5883H53.2455C54.2062 42.5883 54.9783 41.8166 54.9783 40.8561V28.5716C54.9783 27.8874 55.5265 27.3393 56.2111 27.3393H67.3929C68.3535 27.3393 69.1257 26.5675 69.1257 25.607V20.612C69.1257 19.6515 68.3535 18.8797 67.3929 18.8797H56.2111C55.5265 18.8797 54.9783 18.3317 54.9783 17.6475V13.3733C54.9783 12.6891 55.5265 12.141 56.2111 12.141H74.4716C75.4323 12.141 76.2044 11.3693 76.2044 10.4088V5.13961C76.2044 4.17911 75.4323 3.40735 74.4716 3.40735H46.7152C45.7546 3.40735 44.9824 4.17911 44.9824 5.13961V40.6061Z" fill="#629EFF" stroke="#102870" stroke-width="0.5"/>
<path d="M94.2187 13.5357V40.8459C94.2187 41.8064 94.9909 42.5782 95.9515 42.5782H102.492C103.453 42.5782 104.225 41.8064 104.225 40.8459V13.5357C104.225 12.8515 104.773 12.3035 105.458 12.3035H115.146C116.107 12.3035 116.879 11.5317 116.879 10.5712V5.13961C116.879 4.17911 116.107 3.40735 115.146 3.40735H83.2971C82.3365 3.40735 81.5643 4.17911 81.5643 5.13961V10.5712C81.5643 11.5317 82.3365 12.3035 83.2971 12.3035H92.986C93.6706 12.3035 94.2187 12.8515 94.2187 13.5357Z" fill="#629EFF" stroke="#102870" stroke-width="0.5"/>
<path d="M0.336426 40.8459V41.0959H0.364295C0.484629 41.9369 1.20369 42.5782 2.07936 42.5782H8.07142C9.03204 42.5782 9.8042 41.8064 9.8042 40.8459V23.3329C9.8042 22.1687 11.2906 21.6553 12.0071 22.5822L12.0076 22.5828L27.0379 41.9124C27.0381 41.9126 27.0383 41.9129 27.0385 41.9131C27.3608 42.3304 27.8709 42.5782 28.4038 42.5782H34.599C35.5596 42.5782 36.3317 41.8064 36.3317 40.8459V5.13961C36.3317 4.17911 35.5596 3.40735 34.599 3.40735H28.6069C27.6463 3.40735 26.8741 4.17911 26.8741 5.13961V21.7897C26.8741 22.9623 25.3879 23.4693 24.6705 22.5497L24.6702 22.5492L10.1877 4.07167L10.1877 4.07166L10.1861 4.06968C9.85612 3.65736 9.35881 3.40735 8.82296 3.40735H2.06921C1.10858 3.40735 0.336426 4.17911 0.336426 5.13961V40.8459Z" fill="#629EFF" stroke="#102870" stroke-width="0.5"/>
<path d="M44.9824 40.6061H44.9723V40.8561C44.9723 41.8166 45.7444 42.5883 46.7051 42.5883H53.2455C54.2062 42.5883 54.9783 41.8166 54.9783 40.8561V28.5716C54.9783 27.8874 55.5265 27.3393 56.2111 27.3393H67.3929C68.3535 27.3393 69.1257 26.5675 69.1257 25.607V20.612C69.1257 19.6515 68.3535 18.8797 67.3929 18.8797H56.2111C55.5265 18.8797 54.9783 18.3317 54.9783 17.6475V13.3733C54.9783 12.6891 55.5265 12.141 56.2111 12.141H74.4716C75.4323 12.141 76.2044 11.3693 76.2044 10.4088V5.13961C76.2044 4.17911 75.4323 3.40735 74.4716 3.40735H46.7152C45.7546 3.40735 44.9824 4.17911 44.9824 5.13961V40.6061Z" fill="#629EFF" stroke="#102870" stroke-width="0.5"/>
<path d="M94.2187 13.5357V40.8459C94.2187 41.8064 94.9909 42.5782 95.9515 42.5782H102.492C103.453 42.5782 104.225 41.8064 104.225 40.8459V13.5357C104.225 12.8515 104.773 12.3035 105.458 12.3035H115.146C116.107 12.3035 116.879 11.5317 116.879 10.5712V5.13961C116.879 4.17911 116.107 3.40735 115.146 3.40735H83.2971C82.3365 3.40735 81.5643 4.17911 81.5643 5.13961V10.5712C81.5643 11.5317 82.3365 12.3035 83.2971 12.3035H92.986C93.6706 12.3035 94.2187 12.8515 94.2187 13.5357Z" fill="#629EFF" stroke="#102870" stroke-width="0.5"/>
</svg>
