<svg width="803" height="302" viewBox="0 0 803 302" fill="none" xmlns="http://www.w3.org/2000/svg">
<path d="M133.89 294.911V282.391H135.176L139.847 292.243L144.507 282.391H145.794V294.911H144.972V283.182L139.847 294.021L134.711 283.221V294.921H133.89V294.911Z" fill="white"/>
<path d="M148.327 294.911L153.561 282.391H154.58L159.795 294.911H158.905L157.163 290.672H150.949L149.197 294.911H148.327ZM151.246 289.94H156.856L154.066 283.162L151.256 289.94H151.246Z" fill="white"/>
<path d="M162.289 294.911V282.391H167.335C168.186 282.391 168.899 282.539 169.492 282.846C170.086 283.152 170.531 283.557 170.838 284.081C171.145 284.595 171.293 285.197 171.293 285.859C171.293 286.67 171.056 287.381 170.591 287.984C170.126 288.597 169.453 289.002 168.572 289.199L171.353 294.901H170.452L167.751 289.318H163.11V294.901H162.289V294.911ZM163.11 288.557H167.286C168.315 288.557 169.097 288.3 169.641 287.776C170.185 287.263 170.452 286.62 170.452 285.85C170.452 285.079 170.185 284.427 169.641 283.923C169.097 283.409 168.315 283.152 167.286 283.152H163.11V288.557Z" fill="white"/>
<path d="M174.45 294.911V282.391H175.271V288.488L182.218 282.391H183.386L176.241 288.636L183.494 294.911H182.238L175.271 288.844V294.911H174.45Z" fill="white"/>
<path d="M185.73 294.911V282.391H194.399V283.162H186.552V288.201H191.677V288.972H186.552V294.14H194.468V294.911H185.73Z" fill="white"/>
<path d="M200.88 294.911V283.162H196.219V282.391H206.352V283.162H201.691V294.911H200.87H200.88Z" fill="white"/>
<path d="M209.053 294.911V282.391H214.12C214.941 282.391 215.653 282.529 216.247 282.816C216.841 283.103 217.306 283.508 217.613 284.022C217.919 284.535 218.087 285.148 218.087 285.859C218.087 286.571 217.929 287.184 217.613 287.707C217.296 288.241 216.841 288.646 216.247 288.942C215.653 289.239 214.941 289.377 214.12 289.377H209.875V294.901H209.053V294.911ZM209.875 288.616H214.08C215.109 288.616 215.891 288.369 216.435 287.865C216.979 287.361 217.246 286.699 217.246 285.859C217.246 285.02 216.979 284.397 216.435 283.903C215.891 283.409 215.109 283.162 214.08 283.162H209.875V288.616Z" fill="white"/>
<path d="M221.244 294.911V282.391H222.065V294.14H229.803V294.911H221.244Z" fill="white"/>
<path d="M232.04 294.911L237.274 282.391H238.293L243.508 294.911H242.617L240.876 290.672H234.662L232.91 294.911H232.04ZM234.959 289.94H240.569L237.779 283.162L234.969 289.94H234.959Z" fill="white"/>
<path d="M251.098 295.108C250.188 295.108 249.346 294.94 248.565 294.604C247.783 294.268 247.1 293.804 246.526 293.221C245.942 292.628 245.497 291.946 245.161 291.165C244.834 290.385 244.666 289.545 244.666 288.655C244.666 287.766 244.834 286.926 245.161 286.146C245.487 285.365 245.942 284.683 246.526 284.09C247.1 283.497 247.783 283.043 248.565 282.707C249.346 282.371 250.188 282.203 251.098 282.203C251.721 282.203 252.315 282.272 252.899 282.42C253.483 282.559 254.027 282.776 254.541 283.063C255.056 283.349 255.521 283.705 255.937 284.14L255.402 284.762C254.888 284.199 254.245 283.764 253.473 283.448C252.701 283.132 251.909 282.974 251.098 282.974C250.286 282.974 249.564 283.122 248.881 283.408C248.208 283.705 247.615 284.11 247.11 284.624C246.605 285.138 246.21 285.74 245.933 286.432C245.656 287.124 245.517 287.865 245.517 288.655C245.517 289.446 245.656 290.197 245.933 290.879C246.21 291.561 246.605 292.163 247.11 292.687C247.615 293.201 248.208 293.616 248.881 293.902C249.554 294.189 250.296 294.337 251.098 294.337C251.899 294.337 252.701 294.179 253.473 293.853C254.245 293.527 254.888 293.092 255.402 292.549L255.937 293.171C255.521 293.596 255.056 293.962 254.541 294.248C254.027 294.535 253.483 294.752 252.899 294.891C252.325 295.029 251.721 295.108 251.098 295.108Z" fill="white"/>
<path d="M259.162 294.911V282.391H267.83V283.162H259.983V288.201H265.109V288.972H259.983V294.14H267.9V294.911H259.162Z" fill="white"/>
<g filter="url(#filter0_d_118_207)">
<path d="M612.32 101.651H611.627C605.69 101.651 600.871 96.8392 600.871 90.9104C600.871 75.6536 588.482 63.2822 573.204 63.2822H442.569C427.29 63.2822 414.902 75.6536 414.902 90.9104C414.902 96.8392 410.083 101.651 404.146 101.651H394.082C371.413 101.651 353.027 83.3018 353.027 60.6538V56.9977C353.027 34.3595 334.652 16 311.972 16H72.045C49.3753 16 31 34.3496 31 56.9977V215.623C31 238.261 49.3753 256.62 72.0549 256.62H612.32C634.989 256.62 653.375 238.271 653.375 215.623V142.639C653.375 120.001 634.999 101.642 612.32 101.642H612.33L612.32 101.651Z" fill="#F0FCFB"/>
<path d="M612.32 101.651H611.627C605.69 101.651 600.871 96.8392 600.871 90.9104C600.871 75.6536 588.482 63.2822 573.204 63.2822H442.569C427.29 63.2822 414.902 75.6536 414.902 90.9104C414.902 96.8392 410.083 101.651 404.146 101.651H394.082C371.413 101.651 353.027 83.3018 353.027 60.6538V56.9977C353.027 34.3595 334.652 16 311.972 16H72.045C49.3753 16 31 34.3496 31 56.9977V215.623C31 238.261 49.3753 256.62 72.0549 256.62H612.32C634.989 256.62 653.375 238.271 653.375 215.623V142.639C653.375 120.001 634.999 101.642 612.32 101.642H612.33L612.32 101.651Z" stroke="#00C9B8" stroke-width="0.75" stroke-miterlimit="10"/>
</g>
<path d="M442.826 96.2069V81.1873H444.478L453.523 93.3808V81.1873H455.086V96.2069H453.622L444.38 83.6971V96.2069H442.806H442.826Z" fill="#00C9B8"/>
<path d="M459.489 96.2069V81.1873H470.255V82.6497H461.142V88.0153H467.118V89.4579H461.142V96.2168H459.489V96.2069Z" fill="#00C9B8"/>
<path d="M477.756 96.2069V82.6695H472.313V81.1873H484.841V82.6695H479.398V96.2069H477.746H477.756Z" fill="#00C9B8"/>
<path d="M495.973 96.2069L492.727 81.1873H494.399L496.952 93.5883L500.673 81.1873H502.286L506.006 93.5488L508.589 81.1873H510.202L506.956 96.2069H505.284L501.484 83.4797L497.655 96.2069H495.973Z" fill="#00C9B8"/>
<path d="M520.394 96.4439C519.306 96.4439 518.296 96.2462 517.356 95.851C516.416 95.4557 515.595 94.9024 514.882 94.2008C514.17 93.4894 513.626 92.6692 513.23 91.7305C512.834 90.7918 512.636 89.7839 512.636 88.6969C512.636 87.61 512.834 86.6021 513.23 85.6633C513.626 84.7246 514.18 83.9045 514.882 83.193C515.595 82.4815 516.416 81.9381 517.356 81.5428C518.296 81.1476 519.306 80.95 520.394 80.95C521.482 80.95 522.472 81.1476 523.412 81.5428C524.352 81.9381 525.173 82.4914 525.886 83.193C526.598 83.9045 527.143 84.7246 527.538 85.6633C527.934 86.6021 528.132 87.61 528.132 88.6969C528.132 89.7839 527.934 90.7918 527.538 91.7305C527.143 92.6692 526.588 93.4894 525.886 94.2008C525.173 94.9123 524.352 95.4557 523.412 95.851C522.472 96.2462 521.463 96.4439 520.394 96.4439ZM520.394 94.9222C521.255 94.9222 522.047 94.764 522.779 94.4478C523.511 94.1316 524.154 93.6969 524.698 93.1238C525.243 92.5506 525.678 91.8985 525.985 91.1376C526.292 90.3767 526.45 89.5665 526.45 88.687C526.45 87.8076 526.292 86.9776 525.985 86.2266C525.678 85.4756 525.243 84.8136 524.698 84.2503C524.144 83.6871 523.501 83.2424 522.779 82.9262C522.047 82.61 521.255 82.4519 520.394 82.4519C519.533 82.4519 518.732 82.61 517.999 82.9262C517.257 83.2424 516.614 83.6772 516.07 84.2503C515.516 84.8136 515.09 85.4756 514.783 86.2266C514.477 86.9776 514.318 87.7878 514.318 88.6673C514.318 89.5467 514.477 90.3767 514.783 91.1376C515.09 91.8985 515.526 92.5605 516.07 93.1238C516.624 93.687 517.267 94.1316 517.999 94.4478C518.742 94.764 519.533 94.9222 520.394 94.9222Z" fill="#00C9B8"/>
<path d="M531.803 96.2069V81.1873H538.255C539.244 81.1873 540.105 81.3651 540.837 81.7209C541.569 82.0766 542.133 82.5805 542.549 83.2228C542.955 83.8651 543.163 84.626 543.163 85.4955C543.163 86.4837 542.876 87.3335 542.292 88.035C541.708 88.7465 540.936 89.2405 539.957 89.5271L543.331 96.197H541.5L538.274 89.7346H533.465V96.197H531.803V96.2069ZM533.455 88.3512H538.136C539.155 88.3512 539.966 88.0943 540.57 87.5805C541.174 87.0667 541.48 86.375 541.48 85.4955C541.48 84.6161 541.174 83.954 540.57 83.4402C539.966 82.9264 539.145 82.6695 538.136 82.6695H533.455V88.3611V88.3512Z" fill="#00C9B8"/>
<path d="M546.735 96.2069V81.1873H548.387V94.7247H557.352V96.2069H546.735Z" fill="#00C9B8"/>
<path d="M560.786 96.2069V81.1873H565.753C566.901 81.1873 567.95 81.375 568.91 81.7406C569.87 82.1161 570.701 82.6398 571.413 83.3118C572.126 83.9837 572.67 84.7742 573.066 85.6931C573.462 86.6121 573.659 87.6101 573.659 88.6971C573.659 89.784 573.462 90.782 573.076 91.701C572.69 92.62 572.145 93.4105 571.433 94.0824C570.721 94.7543 569.889 95.278 568.92 95.6535C567.95 96.029 566.901 96.2069 565.753 96.2069H560.786ZM562.438 94.7049H565.832C566.703 94.7049 567.515 94.5567 568.257 94.2504C568.999 93.9539 569.652 93.529 570.216 92.9856C570.77 92.4421 571.205 91.8097 571.512 91.0785C571.819 90.3473 571.977 89.5568 571.977 88.6971C571.977 87.8374 571.819 87.0469 571.512 86.3157C571.205 85.5845 570.77 84.9521 570.216 84.4086C569.652 83.8651 569.009 83.4402 568.257 83.1438C567.515 82.8473 566.703 82.6892 565.832 82.6892H562.438V94.7049Z" fill="#00C9B8"/>
<path d="M684.168 143.064V130.544H685.455L690.125 140.396L694.786 130.544H696.072V143.064H695.251V131.335L690.125 142.175L684.99 131.374V143.074H684.168V143.064Z" fill="white"/>
<path d="M699.961 143.064V130.544H700.782V143.064H699.961Z" fill="white"/>
<path d="M704.651 143.064V130.544H705.552L713.646 141.611V130.544H714.467V143.064H713.755L705.482 131.76V143.064H704.651Z" fill="white"/>
<path d="M718.326 143.064V130.544H719.148V143.064H718.326Z" fill="white"/>
<path d="M723.017 143.064V130.544H723.917L732.011 141.611V130.544H732.833V143.064H732.12L723.848 131.76V143.064H723.017Z" fill="white"/>
<path d="M742.48 143.261C741.57 143.261 740.729 143.094 739.957 142.758C739.185 142.422 738.503 141.957 737.919 141.374C737.335 140.781 736.88 140.099 736.553 139.319C736.227 138.538 736.068 137.698 736.068 136.809C736.068 135.92 736.237 135.08 736.563 134.299C736.89 133.518 737.345 132.837 737.929 132.244C738.503 131.651 739.185 131.196 739.967 130.86C740.749 130.524 741.59 130.356 742.5 130.356C743.411 130.356 744.311 130.524 745.142 130.851C745.973 131.177 746.706 131.661 747.339 132.293L746.805 132.916C746.29 132.352 745.647 131.918 744.875 131.602C744.103 131.285 743.312 131.127 742.5 131.127C741.689 131.127 740.966 131.275 740.284 131.562C739.611 131.858 739.017 132.264 738.512 132.777C738.008 133.291 737.612 133.894 737.335 134.586C737.058 135.277 736.919 136.018 736.919 136.809C736.919 137.599 737.058 138.35 737.335 139.032C737.612 139.714 738.008 140.317 738.512 140.841C739.017 141.354 739.601 141.769 740.274 142.056C740.947 142.352 741.689 142.491 742.48 142.491C743.45 142.491 744.311 142.273 745.073 141.839C745.835 141.404 746.438 140.811 746.904 140.05C747.359 139.289 747.616 138.439 747.665 137.501H742.847V136.73H748.467V137.175C748.467 138.024 748.319 138.815 748.012 139.546C747.705 140.277 747.28 140.92 746.735 141.473C746.191 142.026 745.558 142.461 744.835 142.777C744.113 143.093 743.331 143.252 742.48 143.252V143.261Z" fill="white"/>
<path d="M688.057 171.868C687.058 171.868 686.118 171.661 685.247 171.256C684.376 170.85 683.614 170.248 682.951 169.477L683.594 168.943C684.188 169.645 684.871 170.178 685.623 170.554C686.385 170.92 687.186 171.107 688.047 171.107C688.76 171.107 689.403 170.979 689.967 170.732C690.531 170.485 690.966 170.139 691.293 169.704C691.619 169.269 691.778 168.775 691.778 168.232C691.778 167.501 691.53 166.947 691.035 166.562C690.541 166.177 689.71 165.89 688.532 165.692L687.008 165.445C685.752 165.238 684.831 164.892 684.247 164.388C683.664 163.884 683.367 163.202 683.367 162.333C683.367 161.661 683.545 161.078 683.891 160.584C684.247 160.08 684.732 159.694 685.366 159.408C685.999 159.121 686.721 158.983 687.533 158.983C688.344 158.983 689.185 159.121 690.006 159.408C690.828 159.684 691.609 160.1 692.352 160.653L691.847 161.335C690.442 160.287 688.997 159.764 687.533 159.764C686.889 159.764 686.316 159.872 685.811 160.09C685.306 160.307 684.91 160.603 684.633 160.989C684.346 161.374 684.208 161.819 684.208 162.323C684.208 162.975 684.426 163.489 684.871 163.854C685.316 164.22 686.048 164.487 687.087 164.655L688.611 164.902C690.036 165.129 691.055 165.505 691.669 166.038C692.292 166.572 692.599 167.333 692.599 168.321C692.599 169.012 692.401 169.625 692.005 170.169C691.609 170.712 691.075 171.137 690.382 171.443C689.7 171.75 688.908 171.908 688.027 171.908L688.057 171.868Z" fill="white"/>
<path d="M698.675 171.68V159.931H694.014V159.16H704.147V159.931H699.486V171.68H698.665H698.675Z" fill="white"/>
<path d="M702.9 171.68L708.134 159.16H709.153L714.368 171.68H713.478L711.736 167.441H705.522L703.771 171.68H702.9ZM705.819 166.71H711.429L708.639 159.931L705.829 166.71H705.819Z" fill="white"/>
<path d="M716.872 171.68V159.16H717.693V165.257L724.639 159.16H725.807L718.663 165.405L725.916 171.68H724.659L717.693 165.613V171.68H716.872Z" fill="white"/>
<path d="M728.162 171.68V159.16H728.983V171.68H728.162Z" fill="white"/>
<path d="M732.852 171.68V159.16H733.753L741.847 170.228V159.16H742.668V171.68H741.956L733.684 160.376V171.68H732.852Z" fill="white"/>
<path d="M752.316 171.868C751.406 171.868 750.565 171.7 749.793 171.364C749.021 171.028 748.338 170.564 747.754 169.981C747.171 169.388 746.715 168.706 746.389 167.926C746.062 167.145 745.904 166.305 745.904 165.416C745.904 164.526 746.072 163.686 746.399 162.906C746.725 162.125 747.181 161.443 747.764 160.85C748.338 160.258 749.021 159.803 749.803 159.467C750.584 159.131 751.426 158.963 752.336 158.963C753.246 158.963 754.147 159.131 754.978 159.457C755.809 159.783 756.541 160.267 757.175 160.9L756.64 161.522C756.126 160.959 755.483 160.524 754.711 160.208C753.939 159.892 753.147 159.734 752.336 159.734C751.524 159.734 750.802 159.882 750.119 160.169C749.447 160.465 748.853 160.87 748.348 161.384C747.844 161.898 747.448 162.501 747.171 163.192C746.894 163.884 746.755 164.625 746.755 165.416C746.755 166.206 746.894 166.957 747.171 167.639C747.448 168.321 747.844 168.924 748.348 169.447C748.853 169.961 749.437 170.376 750.109 170.663C750.782 170.959 751.525 171.097 752.316 171.097C753.286 171.097 754.147 170.88 754.909 170.445C755.671 170.01 756.274 169.418 756.739 168.657C757.194 167.896 757.452 167.046 757.501 166.107H752.682V165.337H758.303V165.781C758.303 166.631 758.154 167.422 757.847 168.153C757.541 168.884 757.115 169.526 756.571 170.08C756.027 170.633 755.393 171.068 754.671 171.384C753.949 171.7 753.167 171.858 752.316 171.858V171.868Z" fill="white"/>
<path d="M684.168 200.287V187.767H685.455L690.125 197.619L694.786 187.767H696.072V200.287H695.251V188.558L690.125 199.398L684.99 188.597V200.297H684.168V200.287Z" fill="white"/>
<path d="M705.7 200.485C704.82 200.485 703.988 200.317 703.217 199.991C702.445 199.664 701.772 199.2 701.188 198.617C700.604 198.024 700.149 197.342 699.823 196.562C699.496 195.781 699.328 194.941 699.328 194.032C699.328 193.123 699.496 192.283 699.823 191.502C700.149 190.722 700.604 190.04 701.188 189.447C701.772 188.854 702.455 188.4 703.217 188.074C703.988 187.748 704.81 187.58 705.7 187.58C706.591 187.58 707.412 187.748 708.184 188.074C708.956 188.4 709.629 188.864 710.212 189.447C710.796 190.04 711.251 190.722 711.578 191.502C711.904 192.283 712.073 193.123 712.073 194.032C712.073 194.941 711.904 195.781 711.578 196.562C711.251 197.342 710.796 198.024 710.212 198.617C709.629 199.21 708.946 199.664 708.184 199.991C707.422 200.317 706.591 200.485 705.7 200.485ZM705.7 199.714C706.472 199.714 707.204 199.566 707.877 199.279C708.55 198.993 709.144 198.587 709.639 198.074C710.143 197.56 710.529 196.957 710.816 196.265C711.093 195.574 711.242 194.832 711.242 194.032C711.242 193.232 711.103 192.491 710.816 191.799C710.539 191.107 710.143 190.504 709.639 189.991C709.134 189.477 708.55 189.072 707.877 188.785C707.204 188.489 706.472 188.35 705.7 188.35C704.928 188.35 704.196 188.499 703.523 188.785C702.85 189.082 702.257 189.477 701.762 189.991C701.257 190.504 700.871 191.107 700.584 191.799C700.298 192.491 700.169 193.232 700.169 194.032C700.169 194.832 700.307 195.574 700.584 196.265C700.862 196.957 701.257 197.56 701.762 198.074C702.267 198.587 702.85 198.993 703.523 199.279C704.196 199.576 704.919 199.714 705.7 199.714Z" fill="white"/>
<path d="M720.038 200.485C719.049 200.485 718.178 200.277 717.426 199.852C716.674 199.427 716.09 198.815 715.674 198.004C715.259 197.194 715.051 196.206 715.051 195.05V187.767H715.872V195.05C715.872 196.038 716.05 196.878 716.407 197.579C716.763 198.281 717.258 198.805 717.881 199.17C718.504 199.536 719.227 199.714 720.038 199.714C720.85 199.714 721.572 199.536 722.195 199.17C722.819 198.805 723.313 198.271 723.67 197.579C724.026 196.888 724.204 196.038 724.204 195.05V187.767H725.025V195.05C725.025 196.206 724.818 197.194 724.402 198.004C723.986 198.815 723.403 199.437 722.65 199.852C721.898 200.277 721.028 200.485 720.038 200.485Z" fill="white"/>
<path d="M728.647 200.287V187.767H729.547L737.642 198.834V187.767H738.463V200.287H737.751L729.478 188.983V200.287H728.647Z" fill="white"/>
<path d="M745.795 200.287V188.538H741.135V187.767H751.267V188.538H746.607V200.287H745.785H745.795Z" fill="white"/>
<path d="M753.959 200.287V187.767H754.78V200.287H753.959Z" fill="white"/>
<path d="M758.649 200.287V187.767H759.55L767.644 198.834V187.767H768.465V200.287H767.753L759.48 188.983V200.287H758.649Z" fill="white"/>
<path d="M778.132 200.485C777.222 200.485 776.381 200.317 775.609 199.981C774.837 199.645 774.155 199.18 773.571 198.597C772.987 198.004 772.532 197.323 772.205 196.542C771.879 195.761 771.72 194.921 771.72 194.032C771.72 193.143 771.889 192.303 772.215 191.522C772.542 190.742 772.997 190.06 773.581 189.467C774.155 188.874 774.837 188.42 775.619 188.084C776.401 187.748 777.242 187.58 778.152 187.58C779.063 187.58 779.963 187.748 780.794 188.074C781.625 188.4 782.358 188.884 782.991 189.516L782.457 190.139C781.942 189.576 781.299 189.141 780.527 188.825C779.755 188.508 778.964 188.35 778.152 188.35C777.341 188.35 776.619 188.499 775.936 188.785C775.263 189.082 774.669 189.487 774.165 190.001C773.66 190.514 773.264 191.117 772.987 191.809C772.71 192.5 772.571 193.242 772.571 194.032C772.571 194.823 772.71 195.574 772.987 196.255C773.264 196.937 773.66 197.54 774.165 198.064C774.669 198.578 775.253 198.993 775.926 199.279C776.599 199.576 777.341 199.714 778.132 199.714C779.102 199.714 779.963 199.496 780.725 199.062C781.487 198.627 782.091 198.034 782.556 197.273C783.011 196.512 783.268 195.663 783.318 194.724H778.499V193.953H784.119V194.398C784.119 195.248 783.971 196.038 783.664 196.769C783.357 197.5 782.932 198.143 782.387 198.696C781.843 199.249 781.21 199.684 780.488 200C779.765 200.317 778.983 200.475 778.132 200.475V200.485Z" fill="white"/>
<path d="M689.977 229.101C689.067 229.101 688.225 228.933 687.444 228.597C686.662 228.261 685.979 227.797 685.405 227.214C684.821 226.621 684.376 225.939 684.04 225.158C683.713 224.378 683.545 223.538 683.545 222.648C683.545 221.759 683.713 220.919 684.04 220.138C684.366 219.358 684.821 218.676 685.405 218.083C685.979 217.49 686.662 217.036 687.444 216.7C688.225 216.364 689.067 216.196 689.977 216.196C690.6 216.196 691.194 216.265 691.778 216.413C692.362 216.552 692.906 216.769 693.42 217.056C693.935 217.342 694.4 217.698 694.816 218.133L694.281 218.755C693.767 218.192 693.124 217.757 692.352 217.441C691.58 217.125 690.788 216.967 689.977 216.967C689.165 216.967 688.443 217.115 687.76 217.401C687.087 217.698 686.494 218.103 685.989 218.617C685.484 219.131 685.089 219.733 684.812 220.425C684.535 221.117 684.396 221.858 684.396 222.648C684.396 223.439 684.535 224.19 684.812 224.872C685.089 225.553 685.484 226.156 685.989 226.68C686.494 227.194 687.087 227.609 687.76 227.895C688.433 228.182 689.175 228.33 689.977 228.33C690.778 228.33 691.58 228.172 692.352 227.846C693.124 227.52 693.767 227.085 694.281 226.542L694.816 227.164C694.4 227.589 693.935 227.955 693.42 228.241C692.906 228.528 692.362 228.745 691.778 228.883C691.204 229.022 690.6 229.101 689.977 229.101Z" fill="white"/>
<path d="M703.434 229.101C702.554 229.101 701.722 228.933 700.951 228.607C700.179 228.281 699.506 227.816 698.922 227.233C698.338 226.64 697.883 225.959 697.557 225.178C697.23 224.397 697.062 223.557 697.062 222.648C697.062 221.739 697.23 220.899 697.557 220.119C697.883 219.338 698.338 218.656 698.922 218.063C699.506 217.471 700.189 217.016 700.951 216.69C701.722 216.364 702.544 216.196 703.434 216.196C704.325 216.196 705.146 216.364 705.918 216.69C706.69 217.016 707.363 217.48 707.946 218.063C708.53 218.656 708.985 219.338 709.312 220.119C709.638 220.899 709.807 221.739 709.807 222.648C709.807 223.557 709.638 224.397 709.312 225.178C708.985 225.959 708.53 226.64 707.946 227.233C707.363 227.826 706.68 228.281 705.918 228.607C705.156 228.933 704.325 229.101 703.434 229.101ZM703.434 228.33C704.206 228.33 704.938 228.182 705.611 227.895C706.284 227.609 706.878 227.204 707.372 226.69C707.877 226.176 708.263 225.573 708.55 224.882C708.827 224.19 708.975 223.449 708.975 222.648C708.975 221.848 708.837 221.107 708.55 220.415C708.273 219.723 707.877 219.121 707.372 218.607C706.868 218.093 706.284 217.688 705.611 217.401C704.938 217.105 704.206 216.967 703.434 216.967C702.662 216.967 701.93 217.115 701.257 217.401C700.584 217.698 699.991 218.093 699.496 218.607C698.991 219.121 698.605 219.723 698.318 220.415C698.032 221.107 697.903 221.848 697.903 222.648C697.903 223.449 698.041 224.19 698.318 224.882C698.596 225.573 698.991 226.176 699.496 226.69C700.001 227.204 700.584 227.609 701.257 227.895C701.93 228.192 702.653 228.33 703.434 228.33Z" fill="white"/>
<path d="M713.042 228.903V216.384H713.863V228.132H721.601V228.903H713.042Z" fill="white"/>
<path d="M724.56 228.903V216.384H725.382V228.132H733.12V228.903H724.56Z" fill="white"/>
<path d="M736.078 228.903V216.384H744.746V217.154H736.899V222.194H742.025V222.965H736.899V228.132H744.816V228.903H736.078Z" fill="white"/>
<path d="M752.564 229.101C751.653 229.101 750.812 228.933 750.031 228.597C749.249 228.261 748.566 227.797 747.992 227.214C747.408 226.621 746.963 225.939 746.627 225.158C746.3 224.378 746.132 223.538 746.132 222.648C746.132 221.759 746.3 220.919 746.627 220.138C746.953 219.358 747.408 218.676 747.992 218.083C748.566 217.49 749.249 217.036 750.031 216.7C750.812 216.364 751.653 216.196 752.564 216.196C753.187 216.196 753.781 216.265 754.365 216.413C754.948 216.552 755.493 216.769 756.007 217.056C756.522 217.342 756.987 217.698 757.402 218.133L756.868 218.755C756.353 218.192 755.71 217.757 754.938 217.441C754.167 217.125 753.375 216.967 752.564 216.967C751.752 216.967 751.03 217.115 750.347 217.401C749.674 217.698 749.081 218.103 748.576 218.617C748.071 219.131 747.675 219.733 747.398 220.425C747.121 221.117 746.983 221.858 746.983 222.648C746.983 223.439 747.121 224.19 747.398 224.872C747.675 225.553 748.071 226.156 748.576 226.68C749.081 227.194 749.674 227.609 750.347 227.895C751.02 228.182 751.762 228.33 752.564 228.33C753.365 228.33 754.167 228.172 754.938 227.846C755.71 227.52 756.353 227.085 756.868 226.542L757.402 227.164C756.987 227.589 756.522 227.955 756.007 228.241C755.493 228.528 754.948 228.745 754.365 228.883C753.791 229.022 753.187 229.101 752.564 229.101Z" fill="white"/>
<path d="M764.369 228.903V217.154H759.708V216.384H769.84V217.154H765.18V228.903H764.359H764.369Z" fill="white"/>
<path d="M772.532 228.903V216.384H773.353V228.903H772.532Z" fill="white"/>
<path d="M782.971 229.101C782.091 229.101 781.259 228.933 780.488 228.607C779.716 228.281 779.043 227.816 778.459 227.233C777.875 226.64 777.42 225.959 777.094 225.178C776.767 224.397 776.599 223.557 776.599 222.648C776.599 221.739 776.767 220.899 777.094 220.119C777.42 219.338 777.875 218.656 778.459 218.063C779.043 217.471 779.726 217.016 780.488 216.69C781.259 216.364 782.081 216.196 782.971 216.196C783.862 216.196 784.683 216.364 785.455 216.69C786.227 217.016 786.9 217.48 787.483 218.063C788.067 218.656 788.522 219.338 788.849 220.119C789.175 220.899 789.344 221.739 789.344 222.648C789.344 223.557 789.175 224.397 788.849 225.178C788.522 225.959 788.067 226.64 787.483 227.233C786.9 227.826 786.217 228.281 785.455 228.607C784.693 228.933 783.862 229.101 782.971 229.101ZM782.971 228.33C783.743 228.33 784.475 228.182 785.148 227.895C785.821 227.609 786.415 227.204 786.909 226.69C787.414 226.176 787.8 225.573 788.087 224.882C788.364 224.19 788.512 223.449 788.512 222.648C788.512 221.848 788.374 221.107 788.087 220.415C787.81 219.723 787.414 219.121 786.909 218.607C786.405 218.093 785.821 217.688 785.148 217.401C784.475 217.105 783.743 216.967 782.971 216.967C782.199 216.967 781.467 217.115 780.794 217.401C780.121 217.698 779.528 218.093 779.033 218.607C778.528 219.121 778.142 219.723 777.855 220.415C777.568 221.107 777.44 221.848 777.44 222.648C777.44 223.449 777.578 224.19 777.855 224.882C778.133 225.573 778.528 226.176 779.033 226.69C779.538 227.204 780.121 227.609 780.794 227.895C781.467 228.192 782.19 228.33 782.971 228.33Z" fill="white"/>
<path d="M792.599 228.903V216.384H793.5L801.594 227.451V216.384H802.415V228.903H801.703L793.431 217.599V228.903H792.599Z" fill="white"/>
<path d="M91.9641 256.64V277.836C91.9641 284.022 96.9809 289.031 103.175 289.031H125.469" stroke="white" stroke-miterlimit="10"/>
<path d="M652.959 136.75H675.233" stroke="white" stroke-miterlimit="10"/>
<path d="M653.018 165.761H675.312" stroke="white" stroke-miterlimit="10"/>
<path d="M653.018 194.763H675.312" stroke="white" stroke-miterlimit="10"/>
<path d="M652.959 223.785H675.233" stroke="white" stroke-miterlimit="10"/>
<defs>
<filter id="filter0_d_118_207" x="0.625" y="0.625" width="683.125" height="301.37" filterUnits="userSpaceOnUse" color-interpolation-filters="sRGB">
<feFlood flood-opacity="0" result="BackgroundImageFix"/>
<feColorMatrix in="SourceAlpha" type="matrix" values="0 0 0 0 0 0 0 0 0 0 0 0 0 0 0 0 0 0 127 0" result="hardAlpha"/>
<feOffset dy="15"/>
<feGaussianBlur stdDeviation="15"/>
<feComposite in2="hardAlpha" operator="out"/>
<feColorMatrix type="matrix" values="0 0 0 0 0.0156863 0 0 0 0 0.611765 0 0 0 0 0.745098 0 0 0 0.3 0"/>
<feBlend mode="normal" in2="BackgroundImageFix" result="effect1_dropShadow_118_207"/>
<feBlend mode="normal" in="SourceGraphic" in2="effect1_dropShadow_118_207" result="shape"/>
</filter>
</defs>
</svg>
