<svg width="233" height="34" viewBox="0 0 233 34" fill="none" xmlns="http://www.w3.org/2000/svg">
<path d="M225.614 28.9735L225.614 28.9736L225.62 28.98C226.412 29.7437 227.354 30.13 228.434 30.13C229.514 30.13 230.444 29.7434 231.211 28.9768C232.002 28.1854 232.404 27.2427 232.404 26.16C232.404 25.0785 232.003 24.1485 231.211 23.3832C230.445 22.5911 229.515 22.19 228.434 22.19C227.351 22.19 226.408 22.5919 225.617 23.3832C224.85 24.1498 224.464 25.08 224.464 26.16C224.464 27.2397 224.85 28.1815 225.614 28.9735ZM224.947 2.29107L225.665 19.8511C225.692 20.521 226.243 21.05 226.914 21.05H229.954C230.624 21.05 231.175 20.521 231.203 19.8511L231.921 2.29107C231.95 1.58127 231.383 0.98999 230.672 0.98999H226.196C225.485 0.98999 224.918 1.58127 224.947 2.29107Z" fill="#005F73" stroke="#005F73" stroke-width="0.5"/>
<path d="M201.783 29.0312L201.786 29.0324C203.63 29.7649 205.622 30.13 207.758 30.13C209.841 30.13 211.767 29.7646 213.534 29.0309C215.298 28.2981 216.82 27.2656 218.098 25.9331C219.401 24.576 220.405 23.0019 221.11 21.2127C221.843 19.3939 222.208 17.4154 222.208 15.28V14.28C222.208 13.5896 221.648 13.03 220.958 13.03H207.958C207.267 13.03 206.708 13.5896 206.708 14.28V18.24C206.708 18.9304 207.267 19.49 207.958 19.49H213.158C213.413 19.49 213.623 19.6145 213.736 19.7821C213.846 19.9448 213.868 20.1491 213.747 20.3482C213.534 20.7015 213.278 21.0343 212.977 21.3469C212.363 21.987 211.619 22.4879 210.743 22.8488L210.74 22.8499C209.895 23.2083 208.942 23.39 207.878 23.39C206.762 23.39 205.729 23.1958 204.776 22.8099C203.845 22.3957 203.018 21.8403 202.295 21.1432C201.599 20.4212 201.058 19.5831 200.67 18.6272C200.283 17.6455 200.088 16.5839 200.088 15.44C200.088 14.2946 200.27 13.2459 200.631 12.2912C201.019 11.3341 201.548 10.5097 202.216 9.81511C202.913 9.11834 203.713 8.57691 204.616 8.18979L204.616 8.18981L204.619 8.18845C205.545 7.77692 206.55 7.57 207.638 7.57C209.015 7.57 210.27 7.85562 211.406 8.42362L211.408 8.4246C212.282 8.852 213.078 9.44094 213.795 10.1939C214.278 10.7008 215.101 10.7951 215.646 10.304L218.992 7.28972C219.476 6.85371 219.556 6.09964 219.104 5.59881C217.843 4.20284 216.294 3.08794 214.463 2.25304C212.322 1.25088 210.047 0.75 207.638 0.75C205.528 0.75 203.549 1.12879 201.704 1.88822C199.861 2.62016 198.247 3.66466 196.863 5.02148C195.506 6.35113 194.435 7.91114 193.649 9.69943L193.648 9.70109C192.887 11.4679 192.508 13.3819 192.508 15.44C192.508 17.4982 192.887 19.4249 193.648 21.2176L193.648 21.2177L193.649 21.2219C194.436 22.984 195.52 24.5433 196.903 25.8985L196.903 25.8986L196.906 25.9019C198.316 27.2302 199.942 28.2732 201.783 29.0312Z" fill="#005F73" stroke="#005F73" stroke-width="0.5"/>
<path d="M163.195 2.43994V28.4399C163.195 29.1303 163.755 29.6899 164.445 29.6899H168.925C169.616 29.6899 170.175 29.1303 170.175 28.4399V15.476C170.175 14.7618 171.079 14.4518 171.517 15.0158L182.548 29.207C182.784 29.5117 183.149 29.6899 183.535 29.6899H188.125C188.816 29.6899 189.375 29.1303 189.375 28.4399V2.43994C189.375 1.74959 188.816 1.18994 188.125 1.18994H183.645C182.955 1.18994 182.395 1.74958 182.395 2.43994V14.7815C182.395 15.4943 181.494 15.8051 181.055 15.2439L170.422 1.66916C170.185 1.36666 169.823 1.18994 169.438 1.18994H164.445C163.755 1.18994 163.195 1.74958 163.195 2.43994Z" fill="#005F73" stroke="#005F73" stroke-width="0.5"/>
<path d="M151.672 2.43994V28.4399C151.672 29.1303 152.232 29.6899 152.922 29.6899H157.802C158.492 29.6899 159.052 29.1303 159.052 28.4399V2.43994C159.052 1.74959 158.492 1.18994 157.802 1.18994H152.922C152.232 1.18994 151.672 1.74958 151.672 2.43994Z" fill="#005F73" stroke="#005F73" stroke-width="0.5"/>
<path d="M121.359 2.43994V28.4399C121.359 29.1303 121.919 29.6899 122.609 29.6899H127.089C127.78 29.6899 128.339 29.1303 128.339 28.4399V15.476C128.339 14.7618 129.243 14.4518 129.682 15.0158L140.712 29.207C140.949 29.5117 141.313 29.6899 141.699 29.6899H146.289C146.98 29.6899 147.539 29.1303 147.539 28.4399V2.43994C147.539 1.74959 146.98 1.18994 146.289 1.18994H141.809C141.119 1.18994 140.559 1.74958 140.559 2.43994V14.7815C140.559 15.4943 139.658 15.8051 139.219 15.2439L128.586 1.66916C128.35 1.36666 127.987 1.18994 127.602 1.18994H122.609C121.919 1.18994 121.359 1.74958 121.359 2.43994Z" fill="#005F73" stroke="#005F73" stroke-width="0.5"/>
<path d="M109.836 2.43994V28.4399C109.836 29.1303 110.396 29.6899 111.086 29.6899H115.966C116.656 29.6899 117.216 29.1303 117.216 28.4399V2.43994C117.216 1.74959 116.656 1.18994 115.966 1.18994H111.086C110.396 1.18994 109.836 1.74958 109.836 2.43994Z" fill="#005F73" stroke="#005F73" stroke-width="0.5"/>
<path d="M73.9766 2.43994V28.4399C73.9766 29.1303 74.5362 29.6899 75.2266 29.6899H79.5466C80.2369 29.6899 80.7966 29.1303 80.7966 28.4399V14.2615C80.7966 13.4816 81.839 13.2198 82.2076 13.9072L88.647 25.918C89.1178 26.7962 90.3766 26.7974 90.8491 25.9202L97.2863 13.9695C97.6557 13.2836 98.6966 13.5461 98.6966 14.3252V28.4399C98.6966 29.1303 99.2562 29.6899 99.9466 29.6899H104.427C105.117 29.6899 105.677 29.1303 105.677 28.4399V2.43994C105.677 1.74959 105.117 1.18994 104.427 1.18994H97.3514C96.8866 1.18994 96.4601 1.44787 96.2443 1.85956L90.4908 12.8344C90.21 13.3701 89.4431 13.3701 89.1623 12.8344L83.4088 1.85956C83.193 1.44787 82.7665 1.18994 82.3017 1.18994H75.2266C74.5362 1.18994 73.9766 1.74958 73.9766 2.43994Z" fill="#005F73" stroke="#005F73" stroke-width="0.5"/>
<path d="M33.7258 21.2176L33.7258 21.2177L33.7276 21.2219C34.5138 22.984 35.5986 24.5433 36.9809 25.8985L36.9827 25.9003C38.3662 27.2295 39.9796 28.2731 41.8207 29.0312L41.8237 29.0324C43.6686 29.7649 45.6602 30.13 47.7959 30.13C49.9317 30.13 51.9232 29.7649 53.7682 29.0324L53.7682 29.0324L53.7711 29.0312C55.6123 28.2731 57.2257 27.2295 58.6092 25.9003L58.611 25.8985C59.9937 24.5429 61.0655 22.9829 61.8251 21.2198C62.6129 19.4266 63.0059 17.4991 63.0059 15.44C63.0059 13.3815 62.6132 11.4672 61.8252 9.70029C61.0658 7.91089 59.9938 6.35032 58.6101 5.02062C57.2263 3.66423 55.6121 2.62001 53.7697 1.88823C51.9244 1.12863 49.9322 0.75 47.7959 0.75C45.6596 0.75 43.6675 1.12863 41.8222 1.88822C39.9798 2.62 38.3656 3.66421 36.9818 5.0206C35.5982 6.35019 34.5131 7.91046 33.7271 9.69943L33.7263 9.70109C32.9652 11.4679 32.5859 13.3819 32.5859 15.44C32.5859 17.4982 32.9652 19.4249 33.7258 21.2176ZM53.2192 21.0632L53.2191 21.0632L53.2159 21.0666C52.5467 21.7615 51.748 22.3162 50.8171 22.7303C49.8906 23.116 48.8845 23.31 47.7959 23.31C46.7074 23.31 45.7013 23.116 44.7748 22.7303C43.8438 22.3162 43.0309 21.761 42.3344 21.0649C41.6656 20.3699 41.1365 19.545 40.7481 18.5872C40.3607 17.6055 40.1659 16.5439 40.1659 15.4C40.1659 14.283 40.3606 13.2485 40.7476 12.2939C41.1361 11.3356 41.6653 10.5103 42.3344 9.81511C43.0304 9.1195 43.8423 8.57818 44.7721 8.19077L44.7721 8.19083L44.7775 8.18845C45.7034 7.77692 46.7086 7.57 47.7959 7.57C48.8833 7.57 49.8885 7.77692 50.8144 8.18845L50.8144 8.18852L50.8198 8.19077C51.7495 8.57814 52.5472 9.11908 53.2159 9.81341L53.2158 9.81344L53.2192 9.81678C53.9144 10.512 54.4562 11.3368 54.8443 12.2939C55.231 13.2478 55.4259 14.2956 55.4259 15.44C55.4259 16.5564 55.2314 17.6047 54.8439 18.587C54.4559 19.5437 53.9142 20.3682 53.2192 21.0632Z" fill="#005F73" stroke="#005F73" stroke-width="0.5"/>
<path d="M10.0248 29.0312L10.0277 29.0324C11.8727 29.7649 13.8643 30.13 16 30.13C18.0831 30.13 20.0094 29.7646 21.7759 29.0309C23.5399 28.2982 25.0623 27.2656 26.3404 25.9331C27.6432 24.576 28.6472 23.0019 29.3522 21.2127C30.085 19.3939 30.45 17.4154 30.45 15.28V14.28C30.45 13.5896 29.8904 13.03 29.2 13.03H16.2C15.5096 13.03 14.95 13.5896 14.95 14.28V18.24C14.95 18.9304 15.5096 19.49 16.2 19.49H21.3998C21.655 19.49 21.8651 19.6145 21.9783 19.7821C22.0882 19.9448 22.1098 20.1491 21.9895 20.3482C21.7761 20.7015 21.5197 21.0343 21.2197 21.3469C20.6052 21.987 19.8614 22.4879 18.9848 22.8488L18.9824 22.8499C18.1374 23.2083 17.1846 23.39 16.12 23.39C15.0045 23.39 13.9713 23.1958 13.0177 22.8099C12.087 22.3957 11.2605 21.8403 10.5368 21.1432C9.84136 20.4212 9.29984 19.5831 8.91212 18.6272C8.5248 17.6455 8.33 16.5839 8.33 15.44C8.33 14.2946 8.51197 13.2459 8.87279 12.2912C9.26118 11.3341 9.79004 10.5097 10.4584 9.81511C11.1556 9.11834 11.9552 8.57691 12.8585 8.18979L12.8585 8.18981L12.8615 8.18845C13.7875 7.77692 14.7926 7.57 15.88 7.57C17.2576 7.57 18.5122 7.85562 19.6482 8.42362L19.6502 8.4246C20.5244 8.852 21.3202 9.44094 22.0377 10.1939C22.5206 10.7008 23.3433 10.7951 23.8885 10.304L27.2347 7.28972C27.7187 6.85371 27.7983 6.09964 27.3459 5.59881C26.0848 4.20284 24.5366 3.08794 22.7048 2.25304C20.5646 1.25088 18.2888 0.75 15.88 0.75C13.7699 0.75 11.7912 1.12879 9.94629 1.88822C8.10344 2.62016 6.48894 3.66466 5.10498 5.02148C3.74821 6.35113 2.67688 7.91114 1.89111 9.69943L1.8904 9.70109C1.1293 11.4679 0.75 13.3819 0.75 15.44C0.75 17.4982 1.12931 19.4249 1.88985 21.2176L1.88981 21.2177L1.89169 21.2219C2.67786 22.984 3.76264 24.5433 5.14498 25.8985L5.14495 25.8986L5.14855 25.9019C6.55807 27.2302 8.18411 28.2732 10.0248 29.0312Z" fill="#005F73" stroke="#005F73" stroke-width="0.5"/>
<path d="M225.614 31.9735L225.614 31.9736L225.62 31.98C226.412 32.7437 227.354 33.13 228.434 33.13C229.514 33.13 230.444 32.7434 231.211 31.9768C232.002 31.1854 232.404 30.2427 232.404 29.16C232.404 28.0785 232.003 27.1485 231.211 26.3832C230.445 25.5911 229.515 25.19 228.434 25.19C227.351 25.19 226.408 25.5919 225.617 26.3832C224.85 27.1498 224.464 28.08 224.464 29.16C224.464 30.2397 224.85 31.1815 225.614 31.9735ZM224.947 5.29107L225.665 22.8511C225.692 23.521 226.243 24.05 226.914 24.05H229.954C230.624 24.05 231.175 23.521 231.203 22.8511L231.921 5.29107C231.95 4.58127 231.383 3.98999 230.672 3.98999H226.196C225.485 3.98999 224.918 4.58127 224.947 5.29107Z" fill="#A3ECE5" stroke="#005F73" stroke-width="0.5"/>
<path d="M201.783 32.0312L201.786 32.0324C203.63 32.7649 205.622 33.13 207.758 33.13C209.841 33.13 211.767 32.7646 213.534 32.0309C215.298 31.2981 216.82 30.2656 218.098 28.9331C219.401 27.576 220.405 26.0019 221.11 24.2127C221.843 22.3939 222.208 20.4154 222.208 18.28V17.28C222.208 16.5896 221.648 16.03 220.958 16.03H207.958C207.267 16.03 206.708 16.5896 206.708 17.28V21.24C206.708 21.9304 207.267 22.49 207.958 22.49H213.158C213.413 22.49 213.623 22.6145 213.736 22.7821C213.846 22.9448 213.868 23.1491 213.747 23.3482C213.534 23.7015 213.278 24.0343 212.977 24.3469C212.363 24.987 211.619 25.4879 210.743 25.8488L210.74 25.8499C209.895 26.2083 208.942 26.39 207.878 26.39C206.762 26.39 205.729 26.1958 204.776 25.8099C203.845 25.3957 203.018 24.8403 202.295 24.1432C201.599 23.4212 201.058 22.5831 200.67 21.6272C200.283 20.6455 200.088 19.5839 200.088 18.44C200.088 17.2946 200.27 16.2459 200.631 15.2912C201.019 14.3341 201.548 13.5097 202.216 12.8151C202.913 12.1183 203.713 11.5769 204.616 11.1898L204.616 11.1898L204.619 11.1885C205.545 10.7769 206.55 10.57 207.638 10.57C209.015 10.57 210.27 10.8556 211.406 11.4236L211.408 11.4246C212.282 11.852 213.078 12.4409 213.795 13.1939C214.278 13.7008 215.101 13.7951 215.646 13.304L218.992 10.2897C219.476 9.85371 219.556 9.09964 219.104 8.59881C217.843 7.20284 216.294 6.08794 214.463 5.25304C212.322 4.25088 210.047 3.75 207.638 3.75C205.528 3.75 203.549 4.12879 201.704 4.88822C199.861 5.62016 198.247 6.66466 196.863 8.02148C195.506 9.35113 194.435 10.9111 193.649 12.6994L193.648 12.7011C192.887 14.4679 192.508 16.3819 192.508 18.44C192.508 20.4982 192.887 22.4249 193.648 24.2176L193.648 24.2177L193.649 24.2219C194.436 25.984 195.52 27.5433 196.903 28.8985L196.903 28.8986L196.906 28.9019C198.316 30.2302 199.942 31.2732 201.783 32.0312Z" fill="#A3ECE5" stroke="#005F73" stroke-width="0.5"/>
<path d="M163.195 5.43994V31.4399C163.195 32.1303 163.755 32.6899 164.445 32.6899H168.925C169.616 32.6899 170.175 32.1303 170.175 31.4399V18.476C170.175 17.7618 171.079 17.4518 171.517 18.0158L182.548 32.207C182.784 32.5117 183.149 32.6899 183.535 32.6899H188.125C188.816 32.6899 189.375 32.1303 189.375 31.4399V5.43994C189.375 4.74959 188.816 4.18994 188.125 4.18994H183.645C182.955 4.18994 182.395 4.74958 182.395 5.43994V17.7815C182.395 18.4943 181.494 18.8051 181.055 18.2439L170.422 4.66916C170.185 4.36666 169.823 4.18994 169.438 4.18994H164.445C163.755 4.18994 163.195 4.74958 163.195 5.43994Z" fill="#A3ECE5" stroke="#005F73" stroke-width="0.5"/>
<path d="M151.672 5.43994V31.4399C151.672 32.1303 152.232 32.6899 152.922 32.6899H157.802C158.492 32.6899 159.052 32.1303 159.052 31.4399V5.43994C159.052 4.74959 158.492 4.18994 157.802 4.18994H152.922C152.232 4.18994 151.672 4.74958 151.672 5.43994Z" fill="#A3ECE5" stroke="#005F73" stroke-width="0.5"/>
<path d="M121.359 5.43994V31.4399C121.359 32.1303 121.919 32.6899 122.609 32.6899H127.089C127.78 32.6899 128.339 32.1303 128.339 31.4399V18.476C128.339 17.7618 129.243 17.4518 129.682 18.0158L140.712 32.207C140.949 32.5117 141.313 32.6899 141.699 32.6899H146.289C146.98 32.6899 147.539 32.1303 147.539 31.4399V5.43994C147.539 4.74959 146.98 4.18994 146.289 4.18994H141.809C141.119 4.18994 140.559 4.74958 140.559 5.43994V17.7815C140.559 18.4943 139.658 18.8051 139.219 18.2439L128.586 4.66916C128.35 4.36666 127.987 4.18994 127.602 4.18994H122.609C121.919 4.18994 121.359 4.74958 121.359 5.43994Z" fill="#A3ECE5" stroke="#005F73" stroke-width="0.5"/>
<path d="M109.836 5.43994V31.4399C109.836 32.1303 110.396 32.6899 111.086 32.6899H115.966C116.656 32.6899 117.216 32.1303 117.216 31.4399V5.43994C117.216 4.74959 116.656 4.18994 115.966 4.18994H111.086C110.396 4.18994 109.836 4.74958 109.836 5.43994Z" fill="#A3ECE5" stroke="#005F73" stroke-width="0.5"/>
<path d="M73.9766 5.43994V31.4399C73.9766 32.1303 74.5362 32.6899 75.2266 32.6899H79.5466C80.2369 32.6899 80.7966 32.1303 80.7966 31.4399V17.2615C80.7966 16.4816 81.839 16.2198 82.2076 16.9072L88.647 28.918C89.1178 29.7962 90.3766 29.7974 90.8491 28.9202L97.2863 16.9695C97.6557 16.2836 98.6966 16.5461 98.6966 17.3252V31.4399C98.6966 32.1303 99.2562 32.6899 99.9466 32.6899H104.427C105.117 32.6899 105.677 32.1303 105.677 31.4399V5.43994C105.677 4.74959 105.117 4.18994 104.427 4.18994H97.3514C96.8866 4.18994 96.4601 4.44787 96.2443 4.85956L90.4908 15.8344C90.21 16.3701 89.4431 16.3701 89.1623 15.8344L83.4088 4.85956C83.193 4.44787 82.7665 4.18994 82.3017 4.18994H75.2266C74.5362 4.18994 73.9766 4.74958 73.9766 5.43994Z" fill="#A3ECE5" stroke="#005F73" stroke-width="0.5"/>
<path d="M33.7258 24.2176L33.7258 24.2177L33.7276 24.2219C34.5138 25.984 35.5986 27.5433 36.9809 28.8985L36.9827 28.9003C38.3662 30.2295 39.9796 31.2731 41.8207 32.0312L41.8237 32.0324C43.6686 32.7649 45.6602 33.13 47.7959 33.13C49.9317 33.13 51.9232 32.7649 53.7682 32.0324L53.7682 32.0324L53.7711 32.0312C55.6123 31.2731 57.2257 30.2295 58.6092 28.9003L58.611 28.8985C59.9937 27.5429 61.0655 25.9829 61.8251 24.2198C62.6129 22.4266 63.0059 20.4991 63.0059 18.44C63.0059 16.3815 62.6132 14.4672 61.8252 12.7003C61.0658 10.9109 59.9938 9.35032 58.6101 8.02062C57.2263 6.66423 55.6121 5.62001 53.7697 4.88823C51.9244 4.12863 49.9322 3.75 47.7959 3.75C45.6596 3.75 43.6675 4.12863 41.8222 4.88822C39.9798 5.62 38.3656 6.66421 36.9818 8.0206C35.5982 9.35019 34.5131 10.9105 33.7271 12.6994L33.7263 12.7011C32.9652 14.4679 32.5859 16.3819 32.5859 18.44C32.5859 20.4982 32.9652 22.4249 33.7258 24.2176ZM53.2192 24.0632L53.2191 24.0632L53.2159 24.0666C52.5467 24.7615 51.748 25.3162 50.8171 25.7303C49.8906 26.116 48.8845 26.31 47.7959 26.31C46.7074 26.31 45.7013 26.116 44.7748 25.7303C43.8438 25.3162 43.0309 24.761 42.3344 24.0649C41.6656 23.3699 41.1365 22.545 40.7481 21.5872C40.3607 20.6055 40.1659 19.5439 40.1659 18.4C40.1659 17.283 40.3606 16.2485 40.7476 15.2939C41.1361 14.3356 41.6653 13.5103 42.3344 12.8151C43.0304 12.1195 43.8423 11.5782 44.7721 11.1908L44.7721 11.1908L44.7775 11.1885C45.7034 10.7769 46.7086 10.57 47.7959 10.57C48.8833 10.57 49.8885 10.7769 50.8144 11.1885L50.8144 11.1885L50.8198 11.1908C51.7495 11.5781 52.5472 12.1191 53.2159 12.8134L53.2158 12.8134L53.2192 12.8168C53.9144 13.512 54.4562 14.3368 54.8443 15.2939C55.231 16.2478 55.4259 17.2956 55.4259 18.44C55.4259 19.5564 55.2314 20.6047 54.8439 21.587C54.4559 22.5437 53.9142 23.3682 53.2192 24.0632Z" fill="#A3ECE5" stroke="#005F73" stroke-width="0.5"/>
<path d="M10.0248 32.0312L10.0277 32.0324C11.8727 32.7649 13.8643 33.13 16 33.13C18.0831 33.13 20.0094 32.7646 21.7759 32.0309C23.5399 31.2982 25.0623 30.2656 26.3404 28.9331C27.6432 27.576 28.6472 26.0019 29.3522 24.2127C30.085 22.3939 30.45 20.4154 30.45 18.28V17.28C30.45 16.5896 29.8904 16.03 29.2 16.03H16.2C15.5096 16.03 14.95 16.5896 14.95 17.28V21.24C14.95 21.9304 15.5096 22.49 16.2 22.49H21.3998C21.655 22.49 21.8651 22.6145 21.9783 22.7821C22.0882 22.9448 22.1098 23.1491 21.9895 23.3482C21.7761 23.7015 21.5197 24.0343 21.2197 24.3469C20.6052 24.987 19.8614 25.4879 18.9848 25.8488L18.9824 25.8499C18.1374 26.2083 17.1846 26.39 16.12 26.39C15.0045 26.39 13.9713 26.1958 13.0177 25.8099C12.087 25.3957 11.2605 24.8403 10.5368 24.1432C9.84136 23.4212 9.29984 22.5831 8.91212 21.6272C8.5248 20.6455 8.33 19.5839 8.33 18.44C8.33 17.2946 8.51197 16.2459 8.87279 15.2912C9.26118 14.3341 9.79004 13.5097 10.4584 12.8151C11.1556 12.1183 11.9552 11.5769 12.8585 11.1898L12.8585 11.1898L12.8615 11.1885C13.7875 10.7769 14.7926 10.57 15.88 10.57C17.2576 10.57 18.5122 10.8556 19.6482 11.4236L19.6502 11.4246C20.5244 11.852 21.3202 12.4409 22.0377 13.1939C22.5206 13.7008 23.3433 13.7951 23.8885 13.304L27.2347 10.2897C27.7187 9.85371 27.7983 9.09964 27.3459 8.59881C26.0848 7.20284 24.5366 6.08794 22.7048 5.25304C20.5646 4.25088 18.2888 3.75 15.88 3.75C13.7699 3.75 11.7912 4.12879 9.94629 4.88822C8.10344 5.62016 6.48894 6.66466 5.10498 8.02148C3.74821 9.35113 2.67688 10.9111 1.89111 12.6994L1.8904 12.7011C1.1293 14.4679 0.75 16.3819 0.75 18.44C0.75 20.4982 1.12931 22.4249 1.88985 24.2176L1.88981 24.2177L1.89169 24.2219C2.67786 25.984 3.76264 27.5433 5.14498 28.8985L5.14495 28.8986L5.14855 28.9019C6.55807 30.2302 8.18411 31.2732 10.0248 32.0312Z" fill="#A3ECE5" stroke="#005F73" stroke-width="0.5"/>
</svg>
