<svg width="803" height="302" viewBox="0 0 803 302" fill="none" xmlns="http://www.w3.org/2000/svg">
<g filter="url(#filter0_d_118_207)">
<path d="M612.32 101.651H611.627C605.69 101.651 600.871 96.8392 600.871 90.9104C600.871 75.6536 588.482 63.2822 573.204 63.2822H442.569C427.29 63.2822 414.902 75.6536 414.902 90.9104C414.902 96.8392 410.083 101.651 404.146 101.651H394.082C371.413 101.651 353.027 83.3018 353.027 60.6538V56.9977C353.027 34.3595 334.652 16 311.972 16H72.045C49.3753 16 31 34.3496 31 56.9977V215.623C31 238.261 49.3753 256.62 72.0549 256.62H612.32C634.989 256.62 653.375 238.271 653.375 215.623V142.639C653.375 120.001 634.999 101.642 612.32 101.642H612.33L612.32 101.651Z" fill="#F0FCFB"/>
<path d="M612.32 101.651H611.627C605.69 101.651 600.871 96.8392 600.871 90.9104C600.871 75.6536 588.482 63.2822 573.204 63.2822H442.569C427.29 63.2822 414.902 75.6536 414.902 90.9104C414.902 96.8392 410.083 101.651 404.146 101.651H394.082C371.413 101.651 353.027 83.3018 353.027 60.6538V56.9977C353.027 34.3595 334.652 16 311.972 16H72.045C49.3753 16 31 34.3496 31 56.9977V215.623C31 238.261 49.3753 256.62 72.0549 256.62H612.32C634.989 256.62 653.375 238.271 653.375 215.623V142.639C653.375 120.001 634.999 101.642 612.32 101.642H612.33L612.32 101.651Z" stroke="#00C9B8" stroke-width="0.75" stroke-miterlimit="10"/>
</g>
<path d="M442.826 96.2069V81.1873H444.478L453.523 93.3808V81.1873H455.086V96.2069H453.622L444.38 83.6971V96.2069H442.806H442.826Z" fill="#00C9B8"/>
<path d="M459.489 96.2069V81.1873H470.255V82.6497H461.142V88.0153H467.118V89.4579H461.142V96.2168H459.489V96.2069Z" fill="#00C9B8"/>
<path d="M477.756 96.2069V82.6695H472.313V81.1873H484.841V82.6695H479.398V96.2069H477.746H477.756Z" fill="#00C9B8"/>
<path d="M495.973 96.2069L492.727 81.1873H494.399L496.952 93.5883L500.673 81.1873H502.286L506.006 93.5488L508.589 81.1873H510.202L506.956 96.2069H505.284L501.484 83.4797L497.655 96.2069H495.973Z" fill="#00C9B8"/>
<path d="M520.394 96.4439C519.306 96.4439 518.296 96.2462 517.356 95.851C516.416 95.4557 515.595 94.9024 514.882 94.2008C514.17 93.4894 513.626 92.6692 513.23 91.7305C512.834 90.7918 512.636 89.7839 512.636 88.6969C512.636 87.61 512.834 86.6021 513.23 85.6633C513.626 84.7246 514.18 83.9045 514.882 83.193C515.595 82.4815 516.416 81.9381 517.356 81.5428C518.296 81.1476 519.306 80.95 520.394 80.95C521.482 80.95 522.472 81.1476 523.412 81.5428C524.352 81.9381 525.173 82.4914 525.886 83.193C526.598 83.9045 527.143 84.7246 527.538 85.6633C527.934 86.6021 528.132 87.61 528.132 88.6969C528.132 89.7839 527.934 90.7918 527.538 91.7305C527.143 92.6692 526.588 93.4894 525.886 94.2008C525.173 94.9123 524.352 95.4557 523.412 95.851C522.472 96.2462 521.463 96.4439 520.394 96.4439ZM520.394 94.9222C521.255 94.9222 522.047 94.764 522.779 94.4478C523.511 94.1316 524.154 93.6969 524.698 93.1237C525.243 92.5506 525.678 91.8985 525.985 91.1376C526.292 90.3767 526.45 89.5665 526.45 88.687C526.45 87.8076 526.292 86.9776 525.985 86.2266C525.678 85.4756 525.243 84.8136 524.698 84.2503C524.144 83.6871 523.501 83.2424 522.779 82.9262C522.047 82.61 521.255 82.4519 520.394 82.4519C519.533 82.4519 518.732 82.61 517.999 82.9262C517.257 83.2424 516.614 83.6772 516.07 84.2503C515.516 84.8136 515.09 85.4756 514.783 86.2266C514.477 86.9776 514.318 87.7878 514.318 88.6673C514.318 89.5467 514.477 90.3767 514.783 91.1376C515.09 91.8985 515.526 92.5605 516.07 93.1237C516.624 93.687 517.267 94.1316 517.999 94.4478C518.742 94.764 519.533 94.9222 520.394 94.9222Z" fill="#00C9B8"/>
<path d="M531.803 96.2069V81.1873H538.255C539.244 81.1873 540.105 81.3651 540.837 81.7209C541.569 82.0766 542.133 82.5805 542.549 83.2228C542.955 83.8651 543.163 84.626 543.163 85.4955C543.163 86.4837 542.876 87.3335 542.292 88.035C541.708 88.7465 540.936 89.2405 539.957 89.5271L543.331 96.197H541.5L538.274 89.7346H533.465V96.197H531.803V96.2069ZM533.455 88.3512H538.136C539.155 88.3512 539.966 88.0943 540.57 87.5805C541.174 87.0667 541.48 86.375 541.48 85.4955C541.48 84.6161 541.174 83.954 540.57 83.4402C539.966 82.9264 539.145 82.6695 538.136 82.6695H533.455V88.3611V88.3512Z" fill="#00C9B8"/>
<path d="M546.735 96.2069V81.1873H548.387V94.7247H557.352V96.2069H546.735Z" fill="#00C9B8"/>
<path d="M560.786 96.2069V81.1873H565.753C566.901 81.1873 567.95 81.375 568.91 81.7406C569.87 82.1161 570.701 82.6398 571.413 83.3118C572.126 83.9837 572.67 84.7742 573.066 85.6931C573.462 86.6121 573.659 87.6101 573.659 88.6971C573.659 89.784 573.462 90.782 573.076 91.701C572.69 92.62 572.145 93.4105 571.433 94.0824C570.721 94.7543 569.889 95.278 568.92 95.6535C567.95 96.029 566.901 96.2069 565.753 96.2069H560.786ZM562.438 94.7049H565.832C566.703 94.7049 567.515 94.5567 568.257 94.2504C568.999 93.9539 569.652 93.529 570.216 92.9856C570.77 92.4421 571.205 91.8097 571.512 91.0785C571.819 90.3473 571.977 89.5568 571.977 88.6971C571.977 87.8374 571.819 87.0469 571.512 86.3157C571.205 85.5845 570.77 84.9521 570.216 84.4086C569.652 83.8651 569.009 83.4402 568.257 83.1438C567.515 82.8473 566.703 82.6892 565.832 82.6892H562.438V94.7049Z" fill="#00C9B8"/>
<path d="M91.9641 256.64V277.836C91.9641 284.022 96.9809 289.031 103.175 289.031H125.469" stroke="white" stroke-miterlimit="10"/>
<path d="M652.959 136.75H675.233" stroke="white" stroke-miterlimit="10"/>
<path d="M653.019 165.761H675.312" stroke="white" stroke-miterlimit="10"/>
<path d="M653.019 194.763H675.312" stroke="white" stroke-miterlimit="10"/>
<path d="M652.959 223.785H675.233" stroke="white" stroke-miterlimit="10"/>
<defs>
<filter id="filter0_d_118_207" x="0.625" y="0.625" width="683.125" height="301.37" filterUnits="userSpaceOnUse" color-interpolation-filters="sRGB">
<feFlood flood-opacity="0" result="BackgroundImageFix"/>
<feColorMatrix in="SourceAlpha" type="matrix" values="0 0 0 0 0 0 0 0 0 0 0 0 0 0 0 0 0 0 127 0" result="hardAlpha"/>
<feOffset dy="15"/>
<feGaussianBlur stdDeviation="15"/>
<feComposite in2="hardAlpha" operator="out"/>
<feColorMatrix type="matrix" values="0 0 0 0 0.0156863 0 0 0 0 0.611765 0 0 0 0 0.745098 0 0 0 0.3 0"/>
<feBlend mode="normal" in2="BackgroundImageFix" result="effect1_dropShadow_118_207"/>
<feBlend mode="normal" in="SourceGraphic" in2="effect1_dropShadow_118_207" result="shape"/>
</filter>
</defs>
</svg>
