<svg width="155" height="61" viewBox="0 0 155 61" fill="none" xmlns="http://www.w3.org/2000/svg">
<path d="M37.3605 61C36.6089 61 35.9117 60.6577 35.4499 60.0721L15.4929 34.5226C15.1941 34.1442 14.7776 33.9369 14.3158 33.9369C13.5642 33.9369 12.7855 34.5045 12.7855 35.4505V58.5946C12.7855 59.9189 11.6989 61 10.3679 61H2.41764C1.08657 61 0 59.9189 0 58.5946V11.4054C0 10.0811 1.08657 9 2.41764 9H11.382C12.1336 9 12.8217 9.33335 13.2835 9.91894L32.5161 34.3424C32.8149 34.7207 33.2315 34.9279 33.6842 34.9279C34.4358 34.9279 35.2145 34.3604 35.2145 33.4144V11.4054C35.2145 10.0811 36.3011 9 37.6321 9H45.5823C46.9134 9 48 10.0811 48 11.4054V58.5946C48 59.9189 46.9134 61 45.5823 61H37.3605Z" fill="#629EFF"/>
<path d="M46.1235 9.88526C47.2124 9.88526 48.0926 10.7439 48.0926 11.8063V58.176C48.0926 59.2383 47.2124 60.0971 46.1235 60.0971H37.8843C37.2763 60.0971 36.7046 59.8226 36.3326 59.3534L16.3333 34.2476C15.925 33.7341 15.3533 33.5039 14.7998 33.5039C13.7926 33.5039 12.8126 34.2564 12.8126 35.4338V58.176C12.8126 59.2383 11.9324 60.0971 10.8435 60.0971H2.87647C1.78758 60.0971 0.907407 59.2383 0.907407 58.176V11.8063C0.907407 10.7439 1.78758 9.88526 2.87647 9.88526H11.8598C12.4678 9.88526 13.0394 10.1597 13.4115 10.62L32.6848 34.6193C33.0931 35.1328 33.6648 35.363 34.2183 35.363C35.2255 35.363 36.2055 34.6105 36.2055 33.4331V11.8063C36.2055 10.7439 37.0857 9.88526 38.1746 9.88526H46.1416M46.1416 9H38.1746C36.5867 9 35.2981 10.2571 35.2981 11.8063V33.4331C35.2981 34.1059 34.7446 34.4777 34.2183 34.4777C33.9914 34.4777 33.6648 34.4069 33.4017 34.0794L14.1283 10.08C13.5839 9.39839 12.7491 9 11.8598 9H2.87647C1.2885 9 0 10.2571 0 11.8063V58.176C0 59.7252 1.2885 60.9823 2.87647 60.9823H10.8435C12.4314 60.9823 13.72 59.7252 13.72 58.176V35.4338C13.72 35.0531 13.8924 34.8141 14.0466 34.6813C14.2463 34.4954 14.5276 34.398 14.7998 34.398C15.0267 34.398 15.3533 34.4689 15.6164 34.8053L35.6157 59.9111C36.1602 60.5928 37.0041 61 37.8843 61H46.1235C47.7114 61 49 59.7429 49 58.1937V11.824C49 10.2748 47.7114 9.01772 46.1235 9.01772L46.1416 9Z" fill="#629EFF"/>
<path d="M61.4352 61C60.0945 61 59 59.9189 59 58.5946V11.4054C59 10.0811 60.0945 9 61.4352 9H98.5648C99.9055 9 101 10.0811 101 11.4054V18.3694C101 19.6937 99.9055 20.7748 98.5648 20.7748H74.1492C73.3101 20.7748 72.626 21.4504 72.626 22.2793V27.9279C72.626 28.7568 73.3101 29.4324 74.1492 29.4324H89.1068C90.4475 29.4324 91.542 30.5135 91.542 31.8378V38.4415C91.542 39.7658 90.4475 40.8468 89.1068 40.8468H74.1492C73.3101 40.8468 72.626 41.5226 72.626 42.3514V58.5856C72.626 59.9099 71.5316 60.991 70.1909 60.991H61.4443L61.4352 61Z" fill="#629EFF"/>
<path d="M98.1697 9.89442C99.2411 9.89442 100.107 10.7534 100.107 11.8161V18.6615C100.107 19.7241 99.2411 20.5831 98.1697 20.5831H74.2679C73.1965 20.5831 72.3304 21.4421 72.3304 22.5048V28.0572C72.3304 29.1199 73.1965 29.9789 74.2679 29.9789H88.9107C89.9822 29.9789 90.8482 30.8379 90.8482 31.9005V38.3917C90.8482 39.4543 89.9822 40.3133 88.9107 40.3133H74.2679C73.1965 40.3133 72.3304 41.1724 72.3304 42.235V58.1927C72.3304 59.2554 71.4643 60.1144 70.3929 60.1144H61.8303C60.7589 60.1144 59.8929 59.2554 59.8929 58.1927V11.8073C59.8929 10.7446 60.7589 9.88556 61.8303 9.88556H98.1786M98.1786 9H61.8303C60.2678 9 59 10.2575 59 11.8073V58.1927C59 59.7425 60.2678 61 61.8303 61H70.3929C71.9554 61 73.2232 59.7425 73.2232 58.1927V42.235C73.2232 41.6594 73.6965 41.1989 74.2679 41.1989H88.9107C90.4732 41.1989 91.7411 39.9414 91.7411 38.3917V31.9005C91.7411 30.3508 90.4732 29.0933 88.9107 29.0933H74.2679C73.6875 29.0933 73.2232 28.624 73.2232 28.0572V22.5048C73.2232 21.9291 73.6965 21.4687 74.2679 21.4687H98.1697C99.7322 21.4687 101 20.2112 101 18.6615V11.8161C101 10.2663 99.7322 9.00886 98.1697 9.00886L98.1786 9Z" fill="#629EFF"/>
<path d="M126.161 61C124.834 61 123.75 59.9187 123.75 58.5942V22.4978C123.75 21.6689 123.073 20.9931 122.242 20.9931H109.411C108.084 20.9931 107 19.9118 107 18.5873V11.4058C107 10.0813 108.084 9 109.411 9H151.589C152.916 9 154 10.0813 154 11.4058V18.5873C154 19.9118 152.916 20.9931 151.589 20.9931H138.758C137.927 20.9931 137.25 21.6689 137.25 22.4978V58.5942C137.25 59.9187 136.166 61 134.839 61H126.179H126.161Z" fill="#629EFF"/>
<path d="M152.131 9.88571C153.217 9.88571 154.095 10.7448 154.095 11.8077V18.8668C154.095 19.9297 153.217 20.7888 152.131 20.7888H139.269C138.182 20.7888 137.304 21.6479 137.304 22.7108V58.1923C137.304 59.2551 136.426 60.1143 135.34 60.1143H126.66C125.574 60.1143 124.696 59.2551 124.696 58.1923V22.7108C124.696 21.6479 123.818 20.7888 122.731 20.7888H109.869C108.783 20.7888 107.905 19.9297 107.905 18.8668V11.8077C107.905 10.7448 108.783 9.88571 109.869 9.88571H152.149M152.149 9H109.869C108.285 9 107 10.2577 107 11.8077V18.8668C107 20.4168 108.285 21.6745 109.869 21.6745H122.731C123.32 21.6745 123.79 22.1439 123.79 22.7108V58.1923C123.79 59.7423 125.076 61 126.66 61H135.34C136.924 61 138.21 59.7423 138.21 58.1923V22.7108C138.21 22.135 138.689 21.6745 139.269 21.6745H152.131C153.715 21.6745 155 20.4168 155 18.8668V11.8077C155 10.2577 153.715 9 152.131 9H152.149Z" fill="#629EFF"/>
<path d="M37.3605 52C36.6089 52 35.9117 51.6577 35.4499 51.0721L15.4929 25.5225C15.1941 25.1441 14.7776 24.9369 14.3158 24.9369C13.5642 24.9369 12.7855 25.5045 12.7855 26.4505V49.5946C12.7855 50.9189 11.6989 52 10.3679 52H2.41764C1.08657 52 0 50.9189 0 49.5946V2.40539C0 1.08107 1.08657 0 2.41764 0H11.382C12.1336 0 12.8217 0.333296 13.2835 0.918882L32.5161 25.3424C32.8149 25.7207 33.2315 25.9279 33.6842 25.9279C34.4358 25.9279 35.2145 25.3604 35.2145 24.4144V2.40539C35.2145 1.08107 36.3011 0 37.6321 0H45.5823C46.9134 0 48 1.08107 48 2.40539V49.5946C48 50.9189 46.9134 52 45.5823 52H37.3605Z" fill="white"/>
<path d="M46.1235 0.885257C47.2124 0.885257 48.0926 1.74394 48.0926 2.80625V49.176C48.0926 50.2383 47.2124 51.097 46.1235 51.097H37.8843C37.2763 51.097 36.7046 50.8226 36.3326 50.3534L16.3333 25.2475C15.925 24.734 15.3533 24.5039 14.7998 24.5039C13.7926 24.5039 12.8126 25.2564 12.8126 26.4338V49.176C12.8126 50.2383 11.9324 51.097 10.8435 51.097H2.87647C1.78758 51.097 0.907407 50.2383 0.907407 49.176V2.80625C0.907407 1.74394 1.78758 0.885257 2.87647 0.885257H11.8598C12.4678 0.885257 13.0394 1.15965 13.4115 1.61998L32.6848 25.6193C33.0931 26.1328 33.6648 26.3629 34.2183 26.3629C35.2255 26.3629 36.2055 25.6105 36.2055 24.4331V2.80625C36.2055 1.74394 37.0857 0.885257 38.1746 0.885257H46.1416M46.1416 0H38.1746C36.5867 0 35.2981 1.25705 35.2981 2.80625V24.4331C35.2981 25.1059 34.7446 25.4777 34.2183 25.4777C33.9914 25.4777 33.6648 25.4068 33.4017 25.0793L14.1283 1.07999C13.5839 0.39834 12.7491 0 11.8598 0H2.87647C1.2885 0 0 1.25705 0 2.80625V49.176C0 50.7252 1.2885 51.9823 2.87647 51.9823H10.8435C12.4314 51.9823 13.72 50.7252 13.72 49.176V26.4338C13.72 26.0531 13.8924 25.8141 14.0466 25.6813C14.2463 25.4954 14.5276 25.398 14.7998 25.398C15.0267 25.398 15.3533 25.4688 15.6164 25.8052L35.6157 50.9111C36.1602 51.5928 37.0041 52 37.8843 52H46.1235C47.7114 52 49 50.7429 49 49.1937V2.82397C49 1.27477 47.7114 0.0176684 46.1235 0.0176684L46.1416 0Z" fill="#629EFF"/>
<path d="M61.4352 52C60.0945 52 59 50.9189 59 49.5946V2.40539C59 1.08107 60.0945 0 61.4352 0H98.5648C99.9055 0 101 1.08107 101 2.40539V9.36934C101 10.6937 99.9055 11.7748 98.5648 11.7748H74.1492C73.3101 11.7748 72.626 12.4504 72.626 13.2793V18.9279C72.626 19.7568 73.3101 20.4324 74.1492 20.4324H89.1068C90.4475 20.4324 91.542 21.5135 91.542 22.8378V29.4415C91.542 30.7658 90.4475 31.8468 89.1068 31.8468H74.1492C73.3101 31.8468 72.626 32.5225 72.626 33.3513V49.5856C72.626 50.9099 71.5316 51.991 70.1909 51.991H61.4443L61.4352 52Z" fill="white"/>
<path d="M98.1697 0.894423C99.2411 0.894423 100.107 1.7534 100.107 2.81607V9.66143C100.107 10.7241 99.2411 11.5831 98.1697 11.5831H74.2679C73.1965 11.5831 72.3304 12.4421 72.3304 13.5048V19.0572C72.3304 20.1199 73.1965 20.9789 74.2679 20.9789H88.9107C89.9822 20.9789 90.8482 21.8379 90.8482 22.9005V29.3917C90.8482 30.4544 89.9822 31.3134 88.9107 31.3134H74.2679C73.1965 31.3134 72.3304 32.1723 72.3304 33.235V49.1928C72.3304 50.2555 71.4643 51.1144 70.3929 51.1144H61.8303C60.7589 51.1144 59.8929 50.2555 59.8929 49.1928V2.80721C59.8929 1.74454 60.7589 0.885559 61.8303 0.885559H98.1786M98.1786 0H61.8303C60.2678 0 59 1.25748 59 2.80721V49.1928C59 50.7425 60.2678 52 61.8303 52H70.3929C71.9554 52 73.2232 50.7425 73.2232 49.1928V33.235C73.2232 32.6594 73.6965 32.1989 74.2679 32.1989H88.9107C90.4732 32.1989 91.7411 30.9414 91.7411 29.3917V22.9005C91.7411 21.3508 90.4732 20.0933 88.9107 20.0933H74.2679C73.6875 20.0933 73.2232 19.624 73.2232 19.0572V13.5048C73.2232 12.9292 73.6965 12.4687 74.2679 12.4687H98.1697C99.7322 12.4687 101 11.2112 101 9.66143V2.81607C101 1.26634 99.7322 0.00886424 98.1697 0.00886424L98.1786 0Z" fill="#629EFF"/>
<path d="M126.161 52C124.834 52 123.75 50.9187 123.75 49.5942V13.4978C123.75 12.6689 123.073 11.9931 122.242 11.9931H109.411C108.084 11.9931 107 10.9118 107 9.58721V2.40581C107 1.08125 108.084 0 109.411 0H151.589C152.916 0 154 1.08125 154 2.40581V9.58721C154 10.9118 152.916 11.9931 151.589 11.9931H138.758C137.927 11.9931 137.25 12.6689 137.25 13.4978V49.5942C137.25 50.9187 136.166 52 134.839 52H126.179H126.161Z" fill="white"/>
<path d="M152.131 0.88571C153.217 0.88571 154.095 1.74483 154.095 2.80769V9.86677C154.095 10.9296 153.217 11.7888 152.131 11.7888H139.269C138.182 11.7888 137.304 12.6479 137.304 13.7108V49.1923C137.304 50.2552 136.426 51.1143 135.34 51.1143H126.66C125.574 51.1143 124.696 50.2552 124.696 49.1923V13.7108C124.696 12.6479 123.818 11.7888 122.731 11.7888H109.869C108.783 11.7888 107.905 10.9296 107.905 9.86677V2.80769C107.905 1.74483 108.783 0.88571 109.869 0.88571H152.149M152.149 0H109.869C108.285 0 107 1.25769 107 2.80769V9.86677C107 11.4168 108.285 12.6745 109.869 12.6745H122.731C123.32 12.6745 123.79 13.1439 123.79 13.7108V49.1923C123.79 50.7423 125.076 52 126.66 52H135.34C136.924 52 138.21 50.7423 138.21 49.1923V13.7108C138.21 13.1351 138.689 12.6745 139.269 12.6745H152.131C153.715 12.6745 155 11.4168 155 9.86677V2.80769C155 1.25769 153.715 0 152.131 0H152.149Z" fill="#629EFF"/>
</svg>
