<svg width="261" height="53" viewBox="0 0 261 53" fill="none" xmlns="http://www.w3.org/2000/svg">
<g id="Group">
<path id="Vector" d="M65.055 40.2036C63.3332 40.2036 61.7302 39.8973 60.2558 39.2945C58.7716 38.6918 57.4753 37.842 56.367 36.7452C55.2489 35.6582 54.3781 34.3835 53.7547 32.9409C53.1214 31.4982 52.8147 29.9369 52.8147 28.2571C52.8147 26.5773 53.1313 25.016 53.7547 23.5733C54.388 22.1307 55.2588 20.856 56.367 19.769C57.4852 18.6821 58.7815 17.8323 60.2558 17.2196C61.7401 16.6169 63.3332 16.3105 65.055 16.3105C66.7767 16.3105 68.3797 16.6169 69.8739 17.2196C71.3681 17.8224 72.6643 18.6722 73.7825 19.769C74.9006 20.856 75.7615 22.1307 76.3849 23.5733C76.9984 25.016 77.3151 26.5773 77.3151 28.2571C77.3151 29.9369 77.0083 31.4982 76.3849 32.9409C75.7615 34.3835 74.9006 35.6582 73.7825 36.7452C72.6643 37.8321 71.3681 38.6819 69.8739 39.2945C68.3797 39.8973 66.7767 40.2036 65.055 40.2036ZM65.055 35.8064C66.1138 35.8064 67.0835 35.6088 67.974 35.2234C68.8547 34.8381 69.6265 34.3045 70.2895 33.6325C70.9525 32.9606 71.467 32.1602 71.843 31.2314C72.2191 30.3025 72.4071 29.3144 72.4071 28.2571C72.4071 27.1998 72.2191 26.182 71.843 25.2631C71.467 24.3441 70.9525 23.5536 70.2895 22.8817C69.6265 22.2097 68.8547 21.6761 67.974 21.2907C67.0934 20.9054 66.1237 20.7078 65.055 20.7078C63.9863 20.7078 63.0562 20.9054 62.1755 21.2907C61.2948 21.6761 60.523 22.2097 59.86 22.8817C59.1971 23.5536 58.6825 24.3441 58.3065 25.2631C57.9305 26.182 57.7425 27.1702 57.7425 28.2275C57.7425 29.2848 57.9305 30.3124 58.3065 31.2413C58.6825 32.1701 59.1971 32.9705 59.86 33.6424C60.523 34.3144 61.2948 34.848 62.1755 35.2333C63.0562 35.6187 64.016 35.8163 65.055 35.8163V35.8064Z" fill="#00C9B8" stroke="#00C9B8" stroke-miterlimit="10" stroke-linejoin="round"/>
<path id="Vector_2" d="M80.6301 38.4053V18.109C80.6301 17.3185 81.2733 16.6763 82.0649 16.6763H84.4991C84.9444 16.6763 85.36 16.8838 85.6371 17.2296L94.1667 28.2967C94.9979 29.3836 96.7394 28.7908 96.7394 27.4271V18.109C96.7394 17.3185 97.3826 16.6763 98.1742 16.6763H99.8168C100.608 16.6763 101.252 17.3185 101.252 18.109V38.4053C101.252 39.1958 100.608 39.8381 99.8168 39.8381H97.719C97.2737 39.8381 96.8483 39.6306 96.5811 39.2749L87.7546 27.7236C86.9234 26.6366 85.1819 27.2197 85.1819 28.5932V38.4053C85.1819 39.1958 84.5387 39.8381 83.7471 39.8381H82.0748C81.2832 39.8381 80.64 39.1958 80.64 38.4053H80.6301Z" fill="#00C9B8" stroke="#00C9B8" stroke-miterlimit="10" stroke-linejoin="round"/>
<path id="Vector_3" d="M105.437 38.4053V18.109C105.437 17.3185 106.08 16.6763 106.872 16.6763H121.833C122.625 16.6763 123.268 17.3185 123.268 18.109V19.4134C123.268 20.2039 122.625 20.8462 121.833 20.8462H111.681C110.889 20.8462 110.246 21.4885 110.246 22.279V24.7098C110.246 25.5003 110.889 26.1426 111.681 26.1426H117.4C118.192 26.1426 118.835 26.7849 118.835 27.5754V28.7513C118.835 29.5418 118.192 30.184 117.4 30.184H111.681C110.889 30.184 110.246 30.8263 110.246 31.6168V34.2453C110.246 35.0358 110.889 35.6781 111.681 35.6781H121.972C122.763 35.6781 123.407 36.3204 123.407 37.1109V38.4152C123.407 39.2057 122.763 39.848 121.972 39.848H106.882C106.09 39.848 105.447 39.2057 105.447 38.4152H105.437V38.4053Z" fill="#00C9B8" stroke="#00C9B8" stroke-miterlimit="10" stroke-linejoin="round"/>
<path id="Vector_4" d="M126.811 38.4053V18.109C126.811 17.3185 127.454 16.6763 128.245 16.6763H138.437C139.961 16.6763 141.307 16.9826 142.465 17.6051C143.623 18.2276 144.533 19.0774 145.196 20.1644C145.859 21.2513 146.185 22.5161 146.185 23.9489C146.185 25.3817 145.859 26.5378 145.196 27.6248C144.533 28.7018 143.613 29.5516 142.445 30.1741C141.277 30.7967 139.942 31.103 138.437 31.103H133.045C132.253 31.103 131.61 31.7453 131.61 32.5358V38.4053C131.61 39.1958 130.967 39.8381 130.175 39.8381H128.236C127.444 39.8381 126.801 39.1958 126.801 38.4053H126.811ZM131.61 25.6979C131.61 26.4884 132.253 27.1307 133.045 27.1307H137.903C138.942 27.1307 139.773 26.8442 140.407 26.271C141.04 25.6979 141.347 24.9371 141.347 23.9885C141.347 23.0398 141.03 22.2493 140.407 21.6762C139.773 21.1031 138.942 20.8166 137.903 20.8166H133.045C132.253 20.8166 131.61 21.4588 131.61 22.2493V25.7078V25.6979Z" fill="#00C9B8" stroke="#00C9B8" stroke-miterlimit="10" stroke-linejoin="round"/>
<path id="Vector_5" d="M149.362 38.4053V18.109C149.362 17.3185 150.005 16.6763 150.796 16.6763H152.736C153.527 16.6763 154.171 17.3185 154.171 18.109V34.1662C154.171 34.9567 154.814 35.599 155.605 35.599H165.431C166.223 35.599 166.866 36.2413 166.866 37.0318V38.4053C166.866 39.1958 166.223 39.8381 165.431 39.8381H150.806C150.015 39.8381 149.371 39.1958 149.371 38.4053H149.362Z" fill="#00C9B8" stroke="#00C9B8" stroke-miterlimit="10" stroke-linejoin="round"/>
<path id="Vector_6" d="M169.231 37.8619L177.593 17.5656C177.81 17.032 178.335 16.6763 178.918 16.6763H182.53C183.114 16.6763 183.638 17.032 183.856 17.5656L192.128 37.8619C192.514 38.8006 191.822 39.8282 190.803 39.8282H188.715C188.121 39.8282 187.587 39.4626 187.379 38.9093L185.736 34.6504C185.519 34.0971 184.994 33.7314 184.4 33.7314H176.791C176.197 33.7314 175.673 34.0971 175.455 34.6405L173.783 38.9093C173.565 39.4626 173.041 39.8183 172.447 39.8183H170.557C169.538 39.8183 168.845 38.7808 169.231 37.8421V37.8619ZM179.384 29.9173H181.828C182.837 29.9173 183.53 28.9094 183.163 27.9706L181.946 24.8284C181.471 23.613 179.75 23.613 179.275 24.8284L178.058 27.9706C177.691 28.9094 178.384 29.9173 179.393 29.9173H179.384Z" fill="#00C9B8" stroke="#00C9B8" stroke-miterlimit="10" stroke-linejoin="round"/>
<path id="Vector_7" d="M194.879 38.4053V18.109C194.879 17.3185 195.523 16.6763 196.314 16.6763H198.748C199.194 16.6763 199.609 16.8838 199.886 17.2296L208.416 28.2967C209.247 29.3836 210.989 28.7908 210.989 27.4271V18.109C210.989 17.3185 211.632 16.6763 212.423 16.6763H214.066C214.858 16.6763 215.501 17.3185 215.501 18.109V38.4053C215.501 39.1958 214.858 39.8381 214.066 39.8381H211.968C211.523 39.8381 211.098 39.6306 210.83 39.2749L202.004 27.7236C201.173 26.6366 199.431 27.2197 199.431 28.5932V38.4053C199.431 39.1958 198.788 39.8381 197.996 39.8381H196.324C195.532 39.8381 194.889 39.1958 194.889 38.4053H194.879Z" fill="#00C9B8" stroke="#00C9B8" stroke-miterlimit="10" stroke-linejoin="round"/>
<path id="Vector_8" d="M219.696 38.4053V18.109C219.696 17.3185 220.339 16.6763 221.131 16.6763H236.093C236.884 16.6763 237.527 17.3185 237.527 18.109V19.4134C237.527 20.2039 236.884 20.8462 236.093 20.8462H225.94C225.149 20.8462 224.505 21.4885 224.505 22.279V24.7098C224.505 25.5003 225.149 26.1426 225.94 26.1426H231.66C232.451 26.1426 233.094 26.7849 233.094 27.5754V28.7513C233.094 29.5418 232.451 30.184 231.66 30.184H225.94C225.149 30.184 224.505 30.8263 224.505 31.6168V34.2453C224.505 35.0358 225.149 35.6781 225.94 35.6781H236.231C237.023 35.6781 237.666 36.3204 237.666 37.1109V38.4152C237.666 39.2057 237.023 39.848 236.231 39.848H221.141C220.349 39.848 219.706 39.2057 219.706 38.4152H219.696V38.4053Z" fill="#00C9B8" stroke="#00C9B8" stroke-miterlimit="10" stroke-linejoin="round"/>
<path id="Vector_9" d="M247.393 38.4053V22.3481C247.393 21.5576 246.75 20.9153 245.958 20.9153H241C240.209 20.9153 239.566 20.2731 239.566 19.4826V18.109C239.566 17.3185 240.209 16.6763 241 16.6763H258.545C259.336 16.6763 259.979 17.3185 259.979 18.109V19.4826C259.979 20.2731 259.336 20.9153 258.545 20.9153H253.627C252.835 20.9153 252.192 21.5576 252.192 22.3481V38.4053C252.192 39.1958 251.549 39.8381 250.757 39.8381H248.818C248.026 39.8381 247.383 39.1958 247.383 38.4053H247.393Z" fill="#00C9B8" stroke="#00C9B8" stroke-miterlimit="10" stroke-linejoin="round"/>
<path id="Vector_10" d="M10.7802 21.538C10.3448 22.0518 9.93912 22.5558 9.50374 23.0202C9.42458 23.0992 9.20688 23.0696 9.05846 23.0696C8.39548 23.0696 7.73251 22.9708 7.08932 23.0498C6.21855 23.1585 5.9118 23.7514 6.22845 24.5814C6.63415 25.6486 7.41586 26.449 8.16789 27.2593C8.41527 27.5261 8.68244 27.7731 8.98919 28.0794C9.09804 27.862 9.1772 27.7138 9.24646 27.5656C11.4234 22.9214 14.9757 19.8779 19.8936 18.4353C20.4478 18.2772 20.4379 18.2772 20.3488 17.6942C19.765 14.1566 19.1713 10.629 18.5875 7.09147C18.4984 6.548 18.6864 6.3306 19.29 6.22191C19.8936 6.11321 20.1509 6.27132 20.2598 6.84444C20.6951 9.11714 21.1107 11.3898 21.5461 13.6626C21.5659 13.791 21.6055 13.9195 21.6649 14.1665C21.8727 13.8997 22.0409 13.7219 22.1596 13.5242C22.7335 12.5262 22.7929 11.4393 22.7335 10.3325C22.6643 8.96892 22.3179 7.67446 21.5857 6.49858C21.4274 6.24167 21.467 6.06382 21.7836 6.0243C23.5449 5.76738 25.0094 4.88793 26.4145 3.88003C27.3051 3.23775 28.1759 2.55593 29.0763 1.93341C29.5216 1.62709 30.0065 1.3603 30.5111 1.17256C32.0548 0.609322 33.351 1.46899 33.4797 3.10929C33.5588 4.11719 33.3015 5.07569 33.1333 6.05394C33.0245 6.67647 32.9849 7.30884 32.9255 7.94125C32.9156 8.08947 32.9651 8.24758 33.074 8.41556C33.1432 8.29699 33.2224 8.18829 33.2818 8.06971C33.8359 6.98276 34.2317 5.82666 34.4296 4.62114C34.489 4.26541 34.6671 4.12706 35.0035 4.08753C38.4074 3.66264 41.3958 4.57173 43.9586 6.84444C44.0971 6.97289 44.1565 7.19027 44.2555 7.35825C44.0576 7.44719 43.8696 7.60529 43.6716 7.60529C41.2473 7.68434 39.1793 8.60332 37.3684 10.1843C36.5669 10.876 35.7654 11.5677 34.9441 12.2396C34.1822 12.8622 33.351 13.3958 32.4011 13.6724C31.936 13.8108 31.4116 13.8404 30.9267 13.8009C30.4221 13.7614 30.046 13.4353 29.8778 12.9412C29.7195 12.4669 29.8778 12.042 30.2341 11.7159C30.521 11.4491 30.8673 11.2416 31.1939 11.0144C31.4314 10.8464 31.7084 10.7278 31.9162 10.54C32.035 10.4314 32.1339 10.1942 32.0943 10.0658C32.0449 9.91754 31.8371 9.74955 31.6787 9.71991C31.4709 9.68038 31.2038 9.71989 31.0356 9.82859C30.4616 10.1843 29.8877 10.54 29.3831 10.9748C28.2352 11.9531 27.1468 13.0005 26.0187 13.9985C25.1677 14.7495 24.2574 15.4017 23.0997 15.5993C22.8226 15.6487 22.5455 15.6586 22.2685 15.6784C22.031 15.6981 21.9419 15.8068 21.9914 16.044C22.0904 16.538 22.1893 17.0321 22.2685 17.5262C22.308 17.8226 22.4367 17.9313 22.7434 17.9017C24.297 17.7436 25.8307 17.8424 27.3645 18.1092C33.8953 19.2752 39.2782 24.6012 40.4656 31.1229C41.3265 35.8066 40.337 40.0754 37.5861 43.9488C37.5268 44.0378 37.4674 44.1168 37.408 44.2157C37.3882 44.2453 37.3882 44.2947 37.3882 44.3342C37.4179 44.3639 37.4476 44.4034 37.4773 44.4133C38.8131 44.8085 40.1589 45.1741 41.5739 45.0457C42.6228 44.9469 43.0285 44.2848 42.5733 43.3263C42.316 42.7829 41.94 42.2888 41.5937 41.7947C41.4452 41.5872 41.3958 41.4291 41.4947 41.1821C41.7124 40.6584 41.8905 40.1248 42.1082 39.522C42.3556 39.7394 42.5832 39.9173 42.7811 40.1149C44.1961 41.4489 45.5814 42.8224 46.6303 44.4726C47.0261 45.0951 47.3823 45.7572 47.4714 46.5081C47.5802 47.3777 47.2339 47.9706 46.4225 48.2868C45.6507 48.5832 44.8492 48.6129 44.0378 48.5437C41.5046 48.3461 39.1001 47.6247 36.7253 46.7947C31.1543 44.8481 25.9198 42.1801 20.8337 39.2355C15.9653 36.4094 11.2651 33.3165 6.99037 29.6308C5.20925 28.0992 3.50728 26.4885 2.15165 24.5617C1.6371 23.8304 1.19182 23.0696 1.0335 22.1704C0.88507 21.3305 1.2314 20.6092 2.0428 20.3819C2.76515 20.1744 3.55676 20.0558 4.29889 20.0854C6.44614 20.1645 8.49443 20.7672 10.5328 21.4095C10.6021 21.4293 10.6615 21.4787 10.7703 21.5479H10.7802V21.538Z" fill="#00C9B8" stroke="#00C9B8" stroke-miterlimit="10" stroke-linejoin="round"/>
<path id="Vector_11" d="M7.86105 33.3757C15.6782 39.4923 24.099 44.3144 33.2817 48.01C31.7083 49.0574 30.0558 49.7491 28.2945 50.1839C24.4453 51.1226 20.7148 50.757 17.1427 49.0377C13.5112 47.2887 10.8692 44.5417 9.22657 40.8559C8.18758 38.514 7.73241 36.0635 7.87094 33.3757H7.86105Z" fill="#00C9B8" stroke="#00C9B8" stroke-miterlimit="10" stroke-linejoin="round"/>
<g id="Group 74">
<g id="Vector_12">
<mask id="path-12-outside-1_0_1" maskUnits="userSpaceOnUse" x="51.8147" y="17.6646" width="27" height="26" fill="black">
<rect fill="white" x="51.8147" y="17.6646" width="27" height="26"/>
<path d="M65.055 42.5576C63.3332 42.5576 61.7302 42.2513 60.2558 41.6485C58.7716 41.0458 57.4753 40.196 56.367 39.0991C55.2489 38.0122 54.3781 36.7375 53.7547 35.2948C53.1214 33.8522 52.8147 32.2909 52.8147 30.6111C52.8147 28.9313 53.1313 27.37 53.7547 25.9273C54.388 24.4846 55.2588 23.21 56.367 22.123C57.4852 21.0361 58.7815 20.1863 60.2558 19.5736C61.7401 18.9709 63.3332 18.6646 65.055 18.6646C66.7767 18.6646 68.3797 18.9709 69.8739 19.5736C71.3681 20.1764 72.6643 21.0262 73.7825 22.123C74.9006 23.21 75.7615 24.4846 76.3849 25.9273C76.9984 27.37 77.3151 28.9313 77.3151 30.6111C77.3151 32.2909 77.0083 33.8522 76.3849 35.2948C75.7615 36.7375 74.9006 38.0122 73.7825 39.0991C72.6643 40.1861 71.3681 41.0359 69.8739 41.6485C68.3797 42.2513 66.7767 42.5576 65.055 42.5576ZM65.055 38.1604C66.1138 38.1604 67.0835 37.9628 67.974 37.5774C68.8547 37.192 69.6265 36.6585 70.2895 35.9865C70.9525 35.3146 71.467 34.5142 71.843 33.5853C72.2191 32.6565 72.4071 31.6684 72.4071 30.6111C72.4071 29.5538 72.2191 28.536 71.843 27.617C71.467 26.6981 70.9525 25.9076 70.2895 25.2356C69.6265 24.5637 68.8547 24.0301 67.974 23.6447C67.0934 23.2594 66.1237 23.0617 65.055 23.0617C63.9863 23.0617 63.0562 23.2594 62.1755 23.6447C61.2948 24.0301 60.523 24.5637 59.86 25.2356C59.1971 25.9076 58.6825 26.6981 58.3065 27.617C57.9305 28.536 57.7425 29.5241 57.7425 30.5814C57.7425 31.6387 57.9305 32.6664 58.3065 33.5952C58.6825 34.5241 59.1971 35.3245 59.86 35.9964C60.523 36.6683 61.2948 37.2019 62.1755 37.5873C63.0562 37.9727 64.016 38.1703 65.055 38.1703V38.1604Z"/>
</mask>
<path d="M65.055 42.5576C63.3332 42.5576 61.7302 42.2513 60.2558 41.6485C58.7716 41.0458 57.4753 40.196 56.367 39.0991C55.2489 38.0122 54.3781 36.7375 53.7547 35.2948C53.1214 33.8522 52.8147 32.2909 52.8147 30.6111C52.8147 28.9313 53.1313 27.37 53.7547 25.9273C54.388 24.4846 55.2588 23.21 56.367 22.123C57.4852 21.0361 58.7815 20.1863 60.2558 19.5736C61.7401 18.9709 63.3332 18.6646 65.055 18.6646C66.7767 18.6646 68.3797 18.9709 69.8739 19.5736C71.3681 20.1764 72.6643 21.0262 73.7825 22.123C74.9006 23.21 75.7615 24.4846 76.3849 25.9273C76.9984 27.37 77.3151 28.9313 77.3151 30.6111C77.3151 32.2909 77.0083 33.8522 76.3849 35.2948C75.7615 36.7375 74.9006 38.0122 73.7825 39.0991C72.6643 40.1861 71.3681 41.0359 69.8739 41.6485C68.3797 42.2513 66.7767 42.5576 65.055 42.5576ZM65.055 38.1604C66.1138 38.1604 67.0835 37.9628 67.974 37.5774C68.8547 37.192 69.6265 36.6585 70.2895 35.9865C70.9525 35.3146 71.467 34.5142 71.843 33.5853C72.2191 32.6565 72.4071 31.6684 72.4071 30.6111C72.4071 29.5538 72.2191 28.536 71.843 27.617C71.467 26.6981 70.9525 25.9076 70.2895 25.2356C69.6265 24.5637 68.8547 24.0301 67.974 23.6447C67.0934 23.2594 66.1237 23.0617 65.055 23.0617C63.9863 23.0617 63.0562 23.2594 62.1755 23.6447C61.2948 24.0301 60.523 24.5637 59.86 25.2356C59.1971 25.9076 58.6825 26.6981 58.3065 27.617C57.9305 28.536 57.7425 29.5241 57.7425 30.5814C57.7425 31.6387 57.9305 32.6664 58.3065 33.5952C58.6825 34.5241 59.1971 35.3245 59.86 35.9964C60.523 36.6683 61.2948 37.2019 62.1755 37.5873C63.0562 37.9727 64.016 38.1703 65.055 38.1703V38.1604Z" fill="#99E9E3"/>
<path d="M65.055 42.5576C63.3332 42.5576 61.7302 42.2513 60.2558 41.6485C58.7716 41.0458 57.4753 40.196 56.367 39.0991C55.2489 38.0122 54.3781 36.7375 53.7547 35.2948C53.1214 33.8522 52.8147 32.2909 52.8147 30.6111C52.8147 28.9313 53.1313 27.37 53.7547 25.9273C54.388 24.4846 55.2588 23.21 56.367 22.123C57.4852 21.0361 58.7815 20.1863 60.2558 19.5736C61.7401 18.9709 63.3332 18.6646 65.055 18.6646C66.7767 18.6646 68.3797 18.9709 69.8739 19.5736C71.3681 20.1764 72.6643 21.0262 73.7825 22.123C74.9006 23.21 75.7615 24.4846 76.3849 25.9273C76.9984 27.37 77.3151 28.9313 77.3151 30.6111C77.3151 32.2909 77.0083 33.8522 76.3849 35.2948C75.7615 36.7375 74.9006 38.0122 73.7825 39.0991C72.6643 40.1861 71.3681 41.0359 69.8739 41.6485C68.3797 42.2513 66.7767 42.5576 65.055 42.5576ZM65.055 38.1604C66.1138 38.1604 67.0835 37.9628 67.974 37.5774C68.8547 37.192 69.6265 36.6585 70.2895 35.9865C70.9525 35.3146 71.467 34.5142 71.843 33.5853C72.2191 32.6565 72.4071 31.6684 72.4071 30.6111C72.4071 29.5538 72.2191 28.536 71.843 27.617C71.467 26.6981 70.9525 25.9076 70.2895 25.2356C69.6265 24.5637 68.8547 24.0301 67.974 23.6447C67.0934 23.2594 66.1237 23.0617 65.055 23.0617C63.9863 23.0617 63.0562 23.2594 62.1755 23.6447C61.2948 24.0301 60.523 24.5637 59.86 25.2356C59.1971 25.9076 58.6825 26.6981 58.3065 27.617C57.9305 28.536 57.7425 29.5241 57.7425 30.5814C57.7425 31.6387 57.9305 32.6664 58.3065 33.5952C58.6825 34.5241 59.1971 35.3245 59.86 35.9964C60.523 36.6683 61.2948 37.2019 62.1755 37.5873C63.0562 37.9727 64.016 38.1703 65.055 38.1703V38.1604Z" stroke="#00C9B8" stroke-miterlimit="10" mask="url(#path-12-outside-1_0_1)"/>
</g>
<g id="Vector_13">
<mask id="path-13-outside-2_0_1" maskUnits="userSpaceOnUse" x="79.6301" y="18.05" width="23" height="25" fill="black">
<rect fill="white" x="79.6301" y="18.05" width="23" height="25"/>
<path d="M80.6301 40.7791V20.4829C80.6301 19.6923 81.2733 19.05 82.0649 19.05H84.4991C84.9444 19.05 85.36 19.2576 85.6371 19.6034L94.1667 30.6705C94.9979 31.7575 96.7394 31.1646 96.7394 29.8009V20.4829C96.7394 19.6923 97.3826 19.05 98.1742 19.05H99.8168C100.608 19.05 101.252 19.6923 101.252 20.4829V40.7791C101.252 41.5696 100.608 42.2119 99.8168 42.2119H97.719C97.2737 42.2119 96.8483 42.0044 96.5811 41.6487L87.7546 30.0974C86.9234 29.0104 85.1819 29.5934 85.1819 30.9669V40.7791C85.1819 41.5696 84.5387 42.2119 83.7471 42.2119H82.0748C81.2832 42.2119 80.64 41.5696 80.64 40.7791H80.6301Z"/>
</mask>
<path d="M80.6301 40.7791V20.4829C80.6301 19.6923 81.2733 19.05 82.0649 19.05H84.4991C84.9444 19.05 85.36 19.2576 85.6371 19.6034L94.1667 30.6705C94.9979 31.7575 96.7394 31.1646 96.7394 29.8009V20.4829C96.7394 19.6923 97.3826 19.05 98.1742 19.05H99.8168C100.608 19.05 101.252 19.6923 101.252 20.4829V40.7791C101.252 41.5696 100.608 42.2119 99.8168 42.2119H97.719C97.2737 42.2119 96.8483 42.0044 96.5811 41.6487L87.7546 30.0974C86.9234 29.0104 85.1819 29.5934 85.1819 30.9669V40.7791C85.1819 41.5696 84.5387 42.2119 83.7471 42.2119H82.0748C81.2832 42.2119 80.64 41.5696 80.64 40.7791H80.6301Z" fill="#99E9E3"/>
<path d="M80.6301 40.7791V20.4829C80.6301 19.6923 81.2733 19.05 82.0649 19.05H84.4991C84.9444 19.05 85.36 19.2576 85.6371 19.6034L94.1667 30.6705C94.9979 31.7575 96.7394 31.1646 96.7394 29.8009V20.4829C96.7394 19.6923 97.3826 19.05 98.1742 19.05H99.8168C100.608 19.05 101.252 19.6923 101.252 20.4829V40.7791C101.252 41.5696 100.608 42.2119 99.8168 42.2119H97.719C97.2737 42.2119 96.8483 42.0044 96.5811 41.6487L87.7546 30.0974C86.9234 29.0104 85.1819 29.5934 85.1819 30.9669V40.7791C85.1819 41.5696 84.5387 42.2119 83.7471 42.2119H82.0748C81.2832 42.2119 80.64 41.5696 80.64 40.7791H80.6301Z" stroke="#00C9B8" stroke-miterlimit="10" mask="url(#path-13-outside-2_0_1)"/>
</g>
<g id="Vector_14">
<mask id="path-14-outside-3_0_1" maskUnits="userSpaceOnUse" x="104.437" y="18.05" width="20" height="25" fill="black">
<rect fill="white" x="104.437" y="18.05" width="20" height="25"/>
<path d="M105.437 40.7791V20.4829C105.437 19.6923 106.08 19.05 106.872 19.05H121.833C122.625 19.05 123.268 19.6923 123.268 20.4829V21.7872C123.268 22.5777 122.625 23.22 121.833 23.22H111.681C110.889 23.22 110.246 23.8623 110.246 24.6528V27.0836C110.246 27.8741 110.889 28.5164 111.681 28.5164H117.4C118.192 28.5164 118.835 29.1587 118.835 29.9492V31.125C118.835 31.9156 118.192 32.5578 117.4 32.5578H111.681C110.889 32.5578 110.246 33.2001 110.246 33.9906V36.6191C110.246 37.4096 110.889 38.0519 111.681 38.0519H121.972C122.763 38.0519 123.407 38.6941 123.407 39.4846V40.789C123.407 41.5795 122.763 42.2218 121.972 42.2218H106.882C106.09 42.2218 105.447 41.5795 105.447 40.789H105.437V40.7791Z"/>
</mask>
<path d="M105.437 40.7791V20.4829C105.437 19.6923 106.08 19.05 106.872 19.05H121.833C122.625 19.05 123.268 19.6923 123.268 20.4829V21.7872C123.268 22.5777 122.625 23.22 121.833 23.22H111.681C110.889 23.22 110.246 23.8623 110.246 24.6528V27.0836C110.246 27.8741 110.889 28.5164 111.681 28.5164H117.4C118.192 28.5164 118.835 29.1587 118.835 29.9492V31.125C118.835 31.9156 118.192 32.5578 117.4 32.5578H111.681C110.889 32.5578 110.246 33.2001 110.246 33.9906V36.6191C110.246 37.4096 110.889 38.0519 111.681 38.0519H121.972C122.763 38.0519 123.407 38.6941 123.407 39.4846V40.789C123.407 41.5795 122.763 42.2218 121.972 42.2218H106.882C106.09 42.2218 105.447 41.5795 105.447 40.789H105.437V40.7791Z" fill="#99E9E3"/>
<path d="M105.437 40.7791V20.4829C105.437 19.6923 106.08 19.05 106.872 19.05H121.833C122.625 19.05 123.268 19.6923 123.268 20.4829V21.7872C123.268 22.5777 122.625 23.22 121.833 23.22H111.681C110.889 23.22 110.246 23.8623 110.246 24.6528V27.0836C110.246 27.8741 110.889 28.5164 111.681 28.5164H117.4C118.192 28.5164 118.835 29.1587 118.835 29.9492V31.125C118.835 31.9156 118.192 32.5578 117.4 32.5578H111.681C110.889 32.5578 110.246 33.2001 110.246 33.9906V36.6191C110.246 37.4096 110.889 38.0519 111.681 38.0519H121.972C122.763 38.0519 123.407 38.6941 123.407 39.4846V40.789C123.407 41.5795 122.763 42.2218 121.972 42.2218H106.882C106.09 42.2218 105.447 41.5795 105.447 40.789H105.437V40.7791Z" stroke="#00C9B8" stroke-miterlimit="10" mask="url(#path-14-outside-3_0_1)"/>
</g>
<g id="Vector_15">
<mask id="path-15-outside-4_0_1" maskUnits="userSpaceOnUse" x="125.801" y="18.05" width="21" height="25" fill="black">
<rect fill="white" x="125.801" y="18.05" width="21" height="25"/>
<path d="M126.811 40.7791V20.4829C126.811 19.6923 127.454 19.05 128.245 19.05H138.437C139.961 19.05 141.307 19.3564 142.465 19.9789C143.623 20.6014 144.533 21.4512 145.196 22.5382C145.859 23.6251 146.185 24.8899 146.185 26.3227C146.185 27.7555 145.859 28.9116 145.196 29.9986C144.533 31.0756 143.613 31.9254 142.445 32.548C141.277 33.1705 139.942 33.4768 138.437 33.4768H133.045C132.253 33.4768 131.61 34.1191 131.61 34.9096V40.7791C131.61 41.5696 130.967 42.2119 130.175 42.2119H128.236C127.444 42.2119 126.801 41.5696 126.801 40.7791H126.811ZM131.61 28.0717C131.61 28.8622 132.253 29.5045 133.045 29.5045H137.903C138.942 29.5045 139.773 29.2179 140.407 28.6448C141.04 28.0717 141.347 27.3108 141.347 26.3622C141.347 25.4136 141.03 24.6231 140.407 24.05C139.773 23.4769 138.942 23.1903 137.903 23.1903H133.045C132.253 23.1903 131.61 23.8326 131.61 24.6231V28.0816V28.0717Z"/>
</mask>
<path d="M126.811 40.7791V20.4829C126.811 19.6923 127.454 19.05 128.245 19.05H138.437C139.961 19.05 141.307 19.3564 142.465 19.9789C143.623 20.6014 144.533 21.4512 145.196 22.5382C145.859 23.6251 146.185 24.8899 146.185 26.3227C146.185 27.7555 145.859 28.9116 145.196 29.9986C144.533 31.0756 143.613 31.9254 142.445 32.548C141.277 33.1705 139.942 33.4768 138.437 33.4768H133.045C132.253 33.4768 131.61 34.1191 131.61 34.9096V40.7791C131.61 41.5696 130.967 42.2119 130.175 42.2119H128.236C127.444 42.2119 126.801 41.5696 126.801 40.7791H126.811ZM131.61 28.0717C131.61 28.8622 132.253 29.5045 133.045 29.5045H137.903C138.942 29.5045 139.773 29.2179 140.407 28.6448C141.04 28.0717 141.347 27.3108 141.347 26.3622C141.347 25.4136 141.03 24.6231 140.407 24.05C139.773 23.4769 138.942 23.1903 137.903 23.1903H133.045C132.253 23.1903 131.61 23.8326 131.61 24.6231V28.0816V28.0717Z" fill="#99E9E3"/>
<path d="M126.811 40.7791V20.4829C126.811 19.6923 127.454 19.05 128.245 19.05H138.437C139.961 19.05 141.307 19.3564 142.465 19.9789C143.623 20.6014 144.533 21.4512 145.196 22.5382C145.859 23.6251 146.185 24.8899 146.185 26.3227C146.185 27.7555 145.859 28.9116 145.196 29.9986C144.533 31.0756 143.613 31.9254 142.445 32.548C141.277 33.1705 139.942 33.4768 138.437 33.4768H133.045C132.253 33.4768 131.61 34.1191 131.61 34.9096V40.7791C131.61 41.5696 130.967 42.2119 130.175 42.2119H128.236C127.444 42.2119 126.801 41.5696 126.801 40.7791H126.811ZM131.61 28.0717C131.61 28.8622 132.253 29.5045 133.045 29.5045H137.903C138.942 29.5045 139.773 29.2179 140.407 28.6448C141.04 28.0717 141.347 27.3108 141.347 26.3622C141.347 25.4136 141.03 24.6231 140.407 24.05C139.773 23.4769 138.942 23.1903 137.903 23.1903H133.045C132.253 23.1903 131.61 23.8326 131.61 24.6231V28.0816V28.0717Z" stroke="#00C9B8" stroke-miterlimit="10" mask="url(#path-15-outside-4_0_1)"/>
</g>
<g id="Vector_16">
<mask id="path-16-outside-5_0_1" maskUnits="userSpaceOnUse" x="148.362" y="18.05" width="20" height="25" fill="black">
<rect fill="white" x="148.362" y="18.05" width="20" height="25"/>
<path d="M149.362 40.7791V20.4829C149.362 19.6923 150.005 19.05 150.796 19.05H152.736C153.527 19.05 154.171 19.6923 154.171 20.4829V36.54C154.171 37.3305 154.814 37.9728 155.605 37.9728H165.431C166.223 37.9728 166.866 38.6151 166.866 39.4056V40.7791C166.866 41.5696 166.223 42.2119 165.431 42.2119H150.806C150.015 42.2119 149.371 41.5696 149.371 40.7791H149.362Z"/>
</mask>
<path d="M149.362 40.7791V20.4829C149.362 19.6923 150.005 19.05 150.796 19.05H152.736C153.527 19.05 154.171 19.6923 154.171 20.4829V36.54C154.171 37.3305 154.814 37.9728 155.605 37.9728H165.431C166.223 37.9728 166.866 38.6151 166.866 39.4056V40.7791C166.866 41.5696 166.223 42.2119 165.431 42.2119H150.806C150.015 42.2119 149.371 41.5696 149.371 40.7791H149.362Z" fill="#99E9E3"/>
<path d="M149.362 40.7791V20.4829C149.362 19.6923 150.005 19.05 150.796 19.05H152.736C153.527 19.05 154.171 19.6923 154.171 20.4829V36.54C154.171 37.3305 154.814 37.9728 155.605 37.9728H165.431C166.223 37.9728 166.866 38.6151 166.866 39.4056V40.7791C166.866 41.5696 166.223 42.2119 165.431 42.2119H150.806C150.015 42.2119 149.371 41.5696 149.371 40.7791H149.362Z" stroke="#00C9B8" stroke-miterlimit="10" mask="url(#path-16-outside-5_0_1)"/>
</g>
<g id="Vector_17">
<mask id="path-17-outside-6_0_1" maskUnits="userSpaceOnUse" x="168.123" y="18.0403" width="25" height="25" fill="black">
<rect fill="white" x="168.123" y="18.0403" width="25" height="25"/>
<path d="M169.231 40.2259L177.593 19.9296C177.81 19.396 178.335 19.0403 178.918 19.0403H182.53C183.114 19.0403 183.638 19.396 183.856 19.9296L192.128 40.2259C192.514 41.1646 191.822 42.1923 190.803 42.1923H188.715C188.121 42.1923 187.587 41.8266 187.379 41.2733L185.736 37.0144C185.519 36.4611 184.994 36.0955 184.4 36.0955H176.791C176.197 36.0955 175.673 36.4611 175.455 37.0046L173.783 41.2733C173.565 41.8266 173.041 42.1824 172.447 42.1824H170.557C169.538 42.1824 168.845 41.1448 169.231 40.2061V40.2259ZM179.384 32.2813H181.828C182.837 32.2813 183.53 31.2734 183.163 30.3347L181.946 27.1924C181.471 25.977 179.75 25.977 179.275 27.1924L178.058 30.3347C177.691 31.2734 178.384 32.2813 179.393 32.2813H179.384Z"/>
</mask>
<path d="M169.231 40.2259L177.593 19.9296C177.81 19.396 178.335 19.0403 178.918 19.0403H182.53C183.114 19.0403 183.638 19.396 183.856 19.9296L192.128 40.2259C192.514 41.1646 191.822 42.1923 190.803 42.1923H188.715C188.121 42.1923 187.587 41.8266 187.379 41.2733L185.736 37.0144C185.519 36.4611 184.994 36.0955 184.4 36.0955H176.791C176.197 36.0955 175.673 36.4611 175.455 37.0046L173.783 41.2733C173.565 41.8266 173.041 42.1824 172.447 42.1824H170.557C169.538 42.1824 168.845 41.1448 169.231 40.2061V40.2259ZM179.384 32.2813H181.828C182.837 32.2813 183.53 31.2734 183.163 30.3347L181.946 27.1924C181.471 25.977 179.75 25.977 179.275 27.1924L178.058 30.3347C177.691 31.2734 178.384 32.2813 179.393 32.2813H179.384Z" fill="#99E9E3"/>
<path d="M169.231 40.2259L177.593 19.9296C177.81 19.396 178.335 19.0403 178.918 19.0403H182.53C183.114 19.0403 183.638 19.396 183.856 19.9296L192.128 40.2259C192.514 41.1646 191.822 42.1923 190.803 42.1923H188.715C188.121 42.1923 187.587 41.8266 187.379 41.2733L185.736 37.0144C185.519 36.4611 184.994 36.0955 184.4 36.0955H176.791C176.197 36.0955 175.673 36.4611 175.455 37.0046L173.783 41.2733C173.565 41.8266 173.041 42.1824 172.447 42.1824H170.557C169.538 42.1824 168.845 41.1448 169.231 40.2061V40.2259ZM179.384 32.2813H181.828C182.837 32.2813 183.53 31.2734 183.163 30.3347L181.946 27.1924C181.471 25.977 179.75 25.977 179.275 27.1924L178.058 30.3347C177.691 31.2734 178.384 32.2813 179.393 32.2813H179.384Z" stroke="#00C9B8" stroke-miterlimit="10" stroke-linejoin="round" mask="url(#path-17-outside-6_0_1)"/>
</g>
<g id="Vector_18">
<mask id="path-18-outside-7_0_1" maskUnits="userSpaceOnUse" x="193.879" y="18.05" width="23" height="25" fill="black">
<rect fill="white" x="193.879" y="18.05" width="23" height="25"/>
<path d="M194.879 40.7791V20.4829C194.879 19.6923 195.523 19.05 196.314 19.05H198.748C199.194 19.05 199.609 19.2576 199.886 19.6034L208.416 30.6705C209.247 31.7575 210.989 31.1646 210.989 29.8009V20.4829C210.989 19.6923 211.632 19.05 212.423 19.05H214.066C214.858 19.05 215.501 19.6923 215.501 20.4829V40.7791C215.501 41.5696 214.858 42.2119 214.066 42.2119H211.968C211.523 42.2119 211.098 42.0044 210.83 41.6487L202.004 30.0974C201.173 29.0104 199.431 29.5934 199.431 30.9669V40.7791C199.431 41.5696 198.788 42.2119 197.996 42.2119H196.324C195.532 42.2119 194.889 41.5696 194.889 40.7791H194.879Z"/>
</mask>
<path d="M194.879 40.7791V20.4829C194.879 19.6923 195.523 19.05 196.314 19.05H198.748C199.194 19.05 199.609 19.2576 199.886 19.6034L208.416 30.6705C209.247 31.7575 210.989 31.1646 210.989 29.8009V20.4829C210.989 19.6923 211.632 19.05 212.423 19.05H214.066C214.858 19.05 215.501 19.6923 215.501 20.4829V40.7791C215.501 41.5696 214.858 42.2119 214.066 42.2119H211.968C211.523 42.2119 211.098 42.0044 210.83 41.6487L202.004 30.0974C201.173 29.0104 199.431 29.5934 199.431 30.9669V40.7791C199.431 41.5696 198.788 42.2119 197.996 42.2119H196.324C195.532 42.2119 194.889 41.5696 194.889 40.7791H194.879Z" fill="#99E9E3"/>
<path d="M194.879 40.7791V20.4829C194.879 19.6923 195.523 19.05 196.314 19.05H198.748C199.194 19.05 199.609 19.2576 199.886 19.6034L208.416 30.6705C209.247 31.7575 210.989 31.1646 210.989 29.8009V20.4829C210.989 19.6923 211.632 19.05 212.423 19.05H214.066C214.858 19.05 215.501 19.6923 215.501 20.4829V40.7791C215.501 41.5696 214.858 42.2119 214.066 42.2119H211.968C211.523 42.2119 211.098 42.0044 210.83 41.6487L202.004 30.0974C201.173 29.0104 199.431 29.5934 199.431 30.9669V40.7791C199.431 41.5696 198.788 42.2119 197.996 42.2119H196.324C195.532 42.2119 194.889 41.5696 194.889 40.7791H194.879Z" stroke="#00C9B8" stroke-miterlimit="10" mask="url(#path-18-outside-7_0_1)"/>
</g>
<g id="Vector_19">
<mask id="path-19-outside-8_0_1" maskUnits="userSpaceOnUse" x="218.696" y="18.05" width="20" height="25" fill="black">
<rect fill="white" x="218.696" y="18.05" width="20" height="25"/>
<path d="M219.696 40.7791V20.4829C219.696 19.6923 220.339 19.05 221.131 19.05H236.093C236.884 19.05 237.527 19.6923 237.527 20.4829V21.7872C237.527 22.5777 236.884 23.22 236.093 23.22H225.94C225.149 23.22 224.505 23.8623 224.505 24.6528V27.0836C224.505 27.8741 225.149 28.5164 225.94 28.5164H231.66C232.451 28.5164 233.094 29.1587 233.094 29.9492V31.125C233.094 31.9156 232.451 32.5578 231.66 32.5578H225.94C225.149 32.5578 224.505 33.2001 224.505 33.9906V36.6191C224.505 37.4096 225.149 38.0519 225.94 38.0519H236.231C237.023 38.0519 237.666 38.6941 237.666 39.4846V40.789C237.666 41.5795 237.023 42.2218 236.231 42.2218H221.141C220.349 42.2218 219.706 41.5795 219.706 40.789H219.696V40.7791Z"/>
</mask>
<path d="M219.696 40.7791V20.4829C219.696 19.6923 220.339 19.05 221.131 19.05H236.093C236.884 19.05 237.527 19.6923 237.527 20.4829V21.7872C237.527 22.5777 236.884 23.22 236.093 23.22H225.94C225.149 23.22 224.505 23.8623 224.505 24.6528V27.0836C224.505 27.8741 225.149 28.5164 225.94 28.5164H231.66C232.451 28.5164 233.094 29.1587 233.094 29.9492V31.125C233.094 31.9156 232.451 32.5578 231.66 32.5578H225.94C225.149 32.5578 224.505 33.2001 224.505 33.9906V36.6191C224.505 37.4096 225.149 38.0519 225.94 38.0519H236.231C237.023 38.0519 237.666 38.6941 237.666 39.4846V40.789C237.666 41.5795 237.023 42.2218 236.231 42.2218H221.141C220.349 42.2218 219.706 41.5795 219.706 40.789H219.696V40.7791Z" fill="#99E9E3"/>
<path d="M219.696 40.7791V20.4829C219.696 19.6923 220.339 19.05 221.131 19.05H236.093C236.884 19.05 237.527 19.6923 237.527 20.4829V21.7872C237.527 22.5777 236.884 23.22 236.093 23.22H225.94C225.149 23.22 224.505 23.8623 224.505 24.6528V27.0836C224.505 27.8741 225.149 28.5164 225.94 28.5164H231.66C232.451 28.5164 233.094 29.1587 233.094 29.9492V31.125C233.094 31.9156 232.451 32.5578 231.66 32.5578H225.94C225.149 32.5578 224.505 33.2001 224.505 33.9906V36.6191C224.505 37.4096 225.149 38.0519 225.94 38.0519H236.231C237.023 38.0519 237.666 38.6941 237.666 39.4846V40.789C237.666 41.5795 237.023 42.2218 236.231 42.2218H221.141C220.349 42.2218 219.706 41.5795 219.706 40.789H219.696V40.7791Z" stroke="#00C9B8" stroke-miterlimit="10" mask="url(#path-19-outside-8_0_1)"/>
</g>
<g id="Vector_20">
<mask id="path-20-outside-9_0_1" maskUnits="userSpaceOnUse" x="238.566" y="18.05" width="22" height="25" fill="black">
<rect fill="white" x="238.566" y="18.05" width="22" height="25"/>
<path d="M247.393 40.7791V24.7219C247.393 23.9314 246.75 23.2892 245.958 23.2892H241C240.209 23.2892 239.566 22.6469 239.566 21.8563V20.4829C239.566 19.6923 240.209 19.05 241 19.05H258.545C259.336 19.05 259.979 19.6923 259.979 20.4829V21.8563C259.979 22.6469 259.336 23.2892 258.545 23.2892H253.627C252.835 23.2892 252.192 23.9314 252.192 24.7219V40.7791C252.192 41.5696 251.549 42.2119 250.757 42.2119H248.818C248.026 42.2119 247.383 41.5696 247.383 40.7791H247.393Z"/>
</mask>
<path d="M247.393 40.7791V24.7219C247.393 23.9314 246.75 23.2892 245.958 23.2892H241C240.209 23.2892 239.566 22.6469 239.566 21.8563V20.4829C239.566 19.6923 240.209 19.05 241 19.05H258.545C259.336 19.05 259.979 19.6923 259.979 20.4829V21.8563C259.979 22.6469 259.336 23.2892 258.545 23.2892H253.627C252.835 23.2892 252.192 23.9314 252.192 24.7219V40.7791C252.192 41.5696 251.549 42.2119 250.757 42.2119H248.818C248.026 42.2119 247.383 41.5696 247.383 40.7791H247.393Z" fill="#99E9E3"/>
<path d="M247.393 40.7791V24.7219C247.393 23.9314 246.75 23.2892 245.958 23.2892H241C240.209 23.2892 239.566 22.6469 239.566 21.8563V20.4829C239.566 19.6923 240.209 19.05 241 19.05H258.545C259.336 19.05 259.979 19.6923 259.979 20.4829V21.8563C259.979 22.6469 259.336 23.2892 258.545 23.2892H253.627C252.835 23.2892 252.192 23.9314 252.192 24.7219V40.7791C252.192 41.5696 251.549 42.2119 250.757 42.2119H248.818C248.026 42.2119 247.383 41.5696 247.383 40.7791H247.393Z" stroke="#00C9B8" stroke-miterlimit="10" mask="url(#path-20-outside-9_0_1)"/>
</g>
<g id="Vector_21">
<mask id="path-21-outside-10_0_1" maskUnits="userSpaceOnUse" x="0" y="1.69165" width="48" height="50" fill="black">
<rect fill="white" y="1.69165" width="48" height="50"/>
<path d="M10.7802 23.2297C10.3448 23.7435 9.93912 24.2474 9.50374 24.7119C9.42458 24.7909 9.20688 24.7613 9.05846 24.7613C8.39548 24.7613 7.73251 24.6625 7.08932 24.7415C6.21855 24.8502 5.9118 25.4431 6.22845 26.2731C6.63415 27.3403 7.41586 28.1407 8.16789 28.9509C8.41527 29.2177 8.68244 29.4648 8.98919 29.7711C9.09804 29.5537 9.1772 29.4055 9.24646 29.2573C11.4234 24.613 14.9757 21.5696 19.8936 20.1269C20.4478 19.9688 20.4379 19.9688 20.3488 19.3858C19.765 15.8483 19.1713 12.3207 18.5875 8.78315C18.4984 8.23968 18.6864 8.02228 19.29 7.91359C19.8936 7.80489 20.1509 7.963 20.2598 8.53612C20.6951 10.8088 21.1107 13.0815 21.5461 15.3542C21.5659 15.4827 21.6055 15.6111 21.6649 15.8582C21.8727 15.5914 22.0409 15.4135 22.1596 15.2159C22.7335 14.2179 22.7929 13.1309 22.7335 12.0242C22.6643 10.6606 22.3179 9.36614 21.5857 8.19026C21.4274 7.93335 21.467 7.75547 21.7836 7.71595C23.5449 7.45903 25.0094 6.57961 26.4145 5.57172C27.3051 4.92943 28.1759 4.24761 29.0763 3.62509C29.5216 3.31877 30.0065 3.05195 30.5111 2.86421C32.0548 2.30097 33.351 3.16064 33.4797 4.80094C33.5588 5.80884 33.3015 6.76734 33.1333 7.74559C33.0245 8.36812 32.9849 9.00052 32.9255 9.63293C32.9156 9.78115 32.9651 9.93926 33.074 10.1072C33.1432 9.98867 33.2224 9.87997 33.2818 9.76139C33.8359 8.67445 34.2317 7.51834 34.4296 6.31282C34.489 5.95709 34.6671 5.81874 35.0035 5.77921C38.4074 5.35432 41.3958 6.26341 43.9586 8.53612C44.0971 8.66457 44.1565 8.88195 44.2555 9.04994C44.0576 9.13887 43.8696 9.29697 43.6716 9.29697C41.2473 9.37602 39.1793 10.295 37.3684 11.876C36.5669 12.5677 35.7654 13.2594 34.9441 13.9313C34.1822 14.5538 33.351 15.0874 32.4011 15.3641C31.936 15.5024 31.4116 15.5321 30.9267 15.4926C30.4221 15.453 30.046 15.127 29.8778 14.6329C29.7195 14.1586 29.8778 13.7337 30.2341 13.4076C30.521 13.1408 30.8673 12.9333 31.1939 12.706C31.4314 12.538 31.7084 12.4195 31.9162 12.2317C32.035 12.123 32.1339 11.8859 32.0943 11.7574C32.0449 11.6092 31.8371 11.4412 31.6787 11.4116C31.4709 11.372 31.2038 11.4116 31.0356 11.5203C30.4616 11.876 29.8877 12.2317 29.3831 12.6665C28.2352 13.6448 27.1468 14.6922 26.0187 15.6902C25.1677 16.4412 24.2574 17.0933 23.0997 17.291C22.8226 17.3404 22.5455 17.3502 22.2685 17.37C22.031 17.3898 21.9419 17.4985 21.9914 17.7356C22.0904 18.2297 22.1893 18.7238 22.2685 19.2178C22.308 19.5143 22.4367 19.623 22.7434 19.5933C24.297 19.4352 25.8307 19.534 27.3645 19.8008C33.8953 20.9668 39.2782 26.2929 40.4656 32.8145C41.3265 37.4983 40.337 41.767 37.5861 45.6405C37.5268 45.7295 37.4674 45.8085 37.408 45.9073C37.3882 45.937 37.3882 45.9864 37.3882 46.0259C37.4179 46.0555 37.4476 46.0951 37.4773 46.1049C38.8131 46.5002 40.1589 46.8658 41.5739 46.7373C42.6228 46.6385 43.0285 45.9765 42.5733 45.018C42.316 44.4745 41.94 43.9805 41.5937 43.4864C41.4452 43.2789 41.3958 43.1208 41.4947 42.8738C41.7124 42.3501 41.8905 41.8164 42.1082 41.2137C42.3556 41.4311 42.5832 41.6089 42.7811 41.8066C44.1961 43.1405 45.5814 44.5141 46.6303 46.1642C47.0261 46.7868 47.3823 47.4488 47.4714 48.1998C47.5802 49.0693 47.2339 49.6622 46.4225 49.9784C45.6507 50.2749 44.8492 50.3045 44.0378 50.2353C41.5046 50.0377 39.1001 49.3164 36.7253 48.4864C31.1543 46.5397 25.9198 43.8718 20.8337 40.9271C15.9653 38.1011 11.2651 35.0082 6.99037 31.3225C5.20925 29.7909 3.50728 28.1802 2.15165 26.2533C1.6371 25.5221 1.19182 24.7613 1.0335 23.8621C0.88507 23.0221 1.2314 22.3008 2.0428 22.0735C2.76515 21.866 3.55676 21.7475 4.29889 21.7771C6.44614 21.8562 8.49443 22.4589 10.5328 23.1012C10.6021 23.121 10.6615 23.1704 10.7703 23.2395H10.7802V23.2297Z"/>
</mask>
<path d="M10.7802 23.2297C10.3448 23.7435 9.93912 24.2474 9.50374 24.7119C9.42458 24.7909 9.20688 24.7613 9.05846 24.7613C8.39548 24.7613 7.73251 24.6625 7.08932 24.7415C6.21855 24.8502 5.9118 25.4431 6.22845 26.2731C6.63415 27.3403 7.41586 28.1407 8.16789 28.9509C8.41527 29.2177 8.68244 29.4648 8.98919 29.7711C9.09804 29.5537 9.1772 29.4055 9.24646 29.2573C11.4234 24.613 14.9757 21.5696 19.8936 20.1269C20.4478 19.9688 20.4379 19.9688 20.3488 19.3858C19.765 15.8483 19.1713 12.3207 18.5875 8.78315C18.4984 8.23968 18.6864 8.02228 19.29 7.91359C19.8936 7.80489 20.1509 7.963 20.2598 8.53612C20.6951 10.8088 21.1107 13.0815 21.5461 15.3542C21.5659 15.4827 21.6055 15.6111 21.6649 15.8582C21.8727 15.5914 22.0409 15.4135 22.1596 15.2159C22.7335 14.2179 22.7929 13.1309 22.7335 12.0242C22.6643 10.6606 22.3179 9.36614 21.5857 8.19026C21.4274 7.93335 21.467 7.75547 21.7836 7.71595C23.5449 7.45903 25.0094 6.57961 26.4145 5.57172C27.3051 4.92943 28.1759 4.24761 29.0763 3.62509C29.5216 3.31877 30.0065 3.05195 30.5111 2.86421C32.0548 2.30097 33.351 3.16064 33.4797 4.80094C33.5588 5.80884 33.3015 6.76734 33.1333 7.74559C33.0245 8.36812 32.9849 9.00052 32.9255 9.63293C32.9156 9.78115 32.9651 9.93926 33.074 10.1072C33.1432 9.98867 33.2224 9.87997 33.2818 9.76139C33.8359 8.67445 34.2317 7.51834 34.4296 6.31282C34.489 5.95709 34.6671 5.81874 35.0035 5.77921C38.4074 5.35432 41.3958 6.26341 43.9586 8.53612C44.0971 8.66457 44.1565 8.88195 44.2555 9.04994C44.0576 9.13887 43.8696 9.29697 43.6716 9.29697C41.2473 9.37602 39.1793 10.295 37.3684 11.876C36.5669 12.5677 35.7654 13.2594 34.9441 13.9313C34.1822 14.5538 33.351 15.0874 32.4011 15.3641C31.936 15.5024 31.4116 15.5321 30.9267 15.4926C30.4221 15.453 30.046 15.127 29.8778 14.6329C29.7195 14.1586 29.8778 13.7337 30.2341 13.4076C30.521 13.1408 30.8673 12.9333 31.1939 12.706C31.4314 12.538 31.7084 12.4195 31.9162 12.2317C32.035 12.123 32.1339 11.8859 32.0943 11.7574C32.0449 11.6092 31.8371 11.4412 31.6787 11.4116C31.4709 11.372 31.2038 11.4116 31.0356 11.5203C30.4616 11.876 29.8877 12.2317 29.3831 12.6665C28.2352 13.6448 27.1468 14.6922 26.0187 15.6902C25.1677 16.4412 24.2574 17.0933 23.0997 17.291C22.8226 17.3404 22.5455 17.3502 22.2685 17.37C22.031 17.3898 21.9419 17.4985 21.9914 17.7356C22.0904 18.2297 22.1893 18.7238 22.2685 19.2178C22.308 19.5143 22.4367 19.623 22.7434 19.5933C24.297 19.4352 25.8307 19.534 27.3645 19.8008C33.8953 20.9668 39.2782 26.2929 40.4656 32.8145C41.3265 37.4983 40.337 41.767 37.5861 45.6405C37.5268 45.7295 37.4674 45.8085 37.408 45.9073C37.3882 45.937 37.3882 45.9864 37.3882 46.0259C37.4179 46.0555 37.4476 46.0951 37.4773 46.1049C38.8131 46.5002 40.1589 46.8658 41.5739 46.7373C42.6228 46.6385 43.0285 45.9765 42.5733 45.018C42.316 44.4745 41.94 43.9805 41.5937 43.4864C41.4452 43.2789 41.3958 43.1208 41.4947 42.8738C41.7124 42.3501 41.8905 41.8164 42.1082 41.2137C42.3556 41.4311 42.5832 41.6089 42.7811 41.8066C44.1961 43.1405 45.5814 44.5141 46.6303 46.1642C47.0261 46.7868 47.3823 47.4488 47.4714 48.1998C47.5802 49.0693 47.2339 49.6622 46.4225 49.9784C45.6507 50.2749 44.8492 50.3045 44.0378 50.2353C41.5046 50.0377 39.1001 49.3164 36.7253 48.4864C31.1543 46.5397 25.9198 43.8718 20.8337 40.9271C15.9653 38.1011 11.2651 35.0082 6.99037 31.3225C5.20925 29.7909 3.50728 28.1802 2.15165 26.2533C1.6371 25.5221 1.19182 24.7613 1.0335 23.8621C0.88507 23.0221 1.2314 22.3008 2.0428 22.0735C2.76515 21.866 3.55676 21.7475 4.29889 21.7771C6.44614 21.8562 8.49443 22.4589 10.5328 23.1012C10.6021 23.121 10.6615 23.1704 10.7703 23.2395H10.7802V23.2297Z" fill="#99E9E3"/>
<path d="M10.7802 23.2297C10.3448 23.7435 9.93912 24.2474 9.50374 24.7119C9.42458 24.7909 9.20688 24.7613 9.05846 24.7613C8.39548 24.7613 7.73251 24.6625 7.08932 24.7415C6.21855 24.8502 5.9118 25.4431 6.22845 26.2731C6.63415 27.3403 7.41586 28.1407 8.16789 28.9509C8.41527 29.2177 8.68244 29.4648 8.98919 29.7711C9.09804 29.5537 9.1772 29.4055 9.24646 29.2573C11.4234 24.613 14.9757 21.5696 19.8936 20.1269C20.4478 19.9688 20.4379 19.9688 20.3488 19.3858C19.765 15.8483 19.1713 12.3207 18.5875 8.78315C18.4984 8.23968 18.6864 8.02228 19.29 7.91359C19.8936 7.80489 20.1509 7.963 20.2598 8.53612C20.6951 10.8088 21.1107 13.0815 21.5461 15.3542C21.5659 15.4827 21.6055 15.6111 21.6649 15.8582C21.8727 15.5914 22.0409 15.4135 22.1596 15.2159C22.7335 14.2179 22.7929 13.1309 22.7335 12.0242C22.6643 10.6606 22.3179 9.36614 21.5857 8.19026C21.4274 7.93335 21.467 7.75547 21.7836 7.71595C23.5449 7.45903 25.0094 6.57961 26.4145 5.57172C27.3051 4.92943 28.1759 4.24761 29.0763 3.62509C29.5216 3.31877 30.0065 3.05195 30.5111 2.86421C32.0548 2.30097 33.351 3.16064 33.4797 4.80094C33.5588 5.80884 33.3015 6.76734 33.1333 7.74559C33.0245 8.36812 32.9849 9.00052 32.9255 9.63293C32.9156 9.78115 32.9651 9.93926 33.074 10.1072C33.1432 9.98867 33.2224 9.87997 33.2818 9.76139C33.8359 8.67445 34.2317 7.51834 34.4296 6.31282C34.489 5.95709 34.6671 5.81874 35.0035 5.77921C38.4074 5.35432 41.3958 6.26341 43.9586 8.53612C44.0971 8.66457 44.1565 8.88195 44.2555 9.04994C44.0576 9.13887 43.8696 9.29697 43.6716 9.29697C41.2473 9.37602 39.1793 10.295 37.3684 11.876C36.5669 12.5677 35.7654 13.2594 34.9441 13.9313C34.1822 14.5538 33.351 15.0874 32.4011 15.3641C31.936 15.5024 31.4116 15.5321 30.9267 15.4926C30.4221 15.453 30.046 15.127 29.8778 14.6329C29.7195 14.1586 29.8778 13.7337 30.2341 13.4076C30.521 13.1408 30.8673 12.9333 31.1939 12.706C31.4314 12.538 31.7084 12.4195 31.9162 12.2317C32.035 12.123 32.1339 11.8859 32.0943 11.7574C32.0449 11.6092 31.8371 11.4412 31.6787 11.4116C31.4709 11.372 31.2038 11.4116 31.0356 11.5203C30.4616 11.876 29.8877 12.2317 29.3831 12.6665C28.2352 13.6448 27.1468 14.6922 26.0187 15.6902C25.1677 16.4412 24.2574 17.0933 23.0997 17.291C22.8226 17.3404 22.5455 17.3502 22.2685 17.37C22.031 17.3898 21.9419 17.4985 21.9914 17.7356C22.0904 18.2297 22.1893 18.7238 22.2685 19.2178C22.308 19.5143 22.4367 19.623 22.7434 19.5933C24.297 19.4352 25.8307 19.534 27.3645 19.8008C33.8953 20.9668 39.2782 26.2929 40.4656 32.8145C41.3265 37.4983 40.337 41.767 37.5861 45.6405C37.5268 45.7295 37.4674 45.8085 37.408 45.9073C37.3882 45.937 37.3882 45.9864 37.3882 46.0259C37.4179 46.0555 37.4476 46.0951 37.4773 46.1049C38.8131 46.5002 40.1589 46.8658 41.5739 46.7373C42.6228 46.6385 43.0285 45.9765 42.5733 45.018C42.316 44.4745 41.94 43.9805 41.5937 43.4864C41.4452 43.2789 41.3958 43.1208 41.4947 42.8738C41.7124 42.3501 41.8905 41.8164 42.1082 41.2137C42.3556 41.4311 42.5832 41.6089 42.7811 41.8066C44.1961 43.1405 45.5814 44.5141 46.6303 46.1642C47.0261 46.7868 47.3823 47.4488 47.4714 48.1998C47.5802 49.0693 47.2339 49.6622 46.4225 49.9784C45.6507 50.2749 44.8492 50.3045 44.0378 50.2353C41.5046 50.0377 39.1001 49.3164 36.7253 48.4864C31.1543 46.5397 25.9198 43.8718 20.8337 40.9271C15.9653 38.1011 11.2651 35.0082 6.99037 31.3225C5.20925 29.7909 3.50728 28.1802 2.15165 26.2533C1.6371 25.5221 1.19182 24.7613 1.0335 23.8621C0.88507 23.0221 1.2314 22.3008 2.0428 22.0735C2.76515 21.866 3.55676 21.7475 4.29889 21.7771C6.44614 21.8562 8.49443 22.4589 10.5328 23.1012C10.6021 23.121 10.6615 23.1704 10.7703 23.2395H10.7802V23.2297Z" stroke="#00C9B8" stroke-miterlimit="10" stroke-linejoin="round" mask="url(#path-21-outside-10_0_1)"/>
</g>
<g id="Vector_22">
<mask id="path-22-outside-11_0_1" maskUnits="userSpaceOnUse" x="5.84668" y="34.0576" width="29" height="19" fill="black">
<rect fill="white" x="5.84668" y="34.0576" width="29" height="19"/>
<path d="M7.86105 35.0576C15.6782 41.1742 24.099 45.9963 33.2817 49.6919C31.7083 50.7393 30.0558 51.431 28.2945 51.8658C24.4453 52.8045 20.7148 52.4389 17.1427 50.7195C13.5112 48.9705 10.8692 46.2235 9.22657 42.5378C8.18758 40.1959 7.73241 37.7453 7.87094 35.0576H7.86105Z"/>
</mask>
<path d="M7.86105 35.0576C15.6782 41.1742 24.099 45.9963 33.2817 49.6919C31.7083 50.7393 30.0558 51.431 28.2945 51.8658C24.4453 52.8045 20.7148 52.4389 17.1427 50.7195C13.5112 48.9705 10.8692 46.2235 9.22657 42.5378C8.18758 40.1959 7.73241 37.7453 7.87094 35.0576H7.86105Z" fill="#99E9E3"/>
<path d="M7.86105 35.0576C15.6782 41.1742 24.099 45.9963 33.2817 49.6919C31.7083 50.7393 30.0558 51.431 28.2945 51.8658C24.4453 52.8045 20.7148 52.4389 17.1427 50.7195C13.5112 48.9705 10.8692 46.2235 9.22657 42.5378C8.18758 40.1959 7.73241 37.7453 7.87094 35.0576H7.86105Z" stroke="#00C9B8" stroke-miterlimit="10" mask="url(#path-22-outside-11_0_1)"/>
</g>
</g>
</g>
</svg>
