<svg width="243" height="47" viewBox="0 0 243 47" fill="none" xmlns="http://www.w3.org/2000/svg">
<g id="Group">
<path id="Vector" d="M73.9689 39.6342C72.0196 39.6342 70.2088 39.2884 68.5266 38.6065C66.8543 37.9247 65.38 36.9564 64.1233 35.7212C62.8567 34.486 61.8771 33.0532 61.1646 31.4129C60.4522 29.7825 60.0959 28.0138 60.0959 26.1165C60.0959 24.2193 60.4522 22.4506 61.1646 20.8201C61.8771 19.1897 62.8666 17.747 64.1233 16.5119C65.3898 15.2767 66.8543 14.3182 68.5266 13.6265C70.1989 12.9447 72.0097 12.5989 73.9689 12.5989C75.9282 12.5989 77.739 12.9447 79.4212 13.6265C81.1132 14.3182 82.5876 15.2767 83.8443 16.5119C85.1109 17.747 86.0905 19.1798 86.793 20.8201C87.4956 22.4604 87.8419 24.2193 87.8419 26.1165C87.8419 28.0138 87.4956 29.7825 86.793 31.4129C86.0905 33.0532 85.1109 34.486 83.8443 35.7212C82.5777 36.9564 81.1033 37.9149 79.4212 38.6065C77.7291 39.2884 75.9183 39.6342 73.9689 39.6342ZM73.9689 34.654C75.1662 34.654 76.2646 34.4366 77.2739 34.0018C78.2733 33.5671 79.154 32.9643 79.8961 32.2034C80.6482 31.4426 81.232 30.5335 81.6575 29.4861C82.0829 28.4387 82.2907 27.3122 82.2907 26.1165C82.2907 24.9209 82.0829 23.7648 81.6575 22.7272C81.232 21.6897 80.6482 20.7905 79.8961 20.0296C79.1441 19.2688 78.2733 18.666 77.2739 18.2312C76.2745 17.7965 75.1761 17.5791 73.9689 17.5791C72.7617 17.5791 71.7029 17.7965 70.7035 18.2312C69.7041 18.666 68.8235 19.2688 68.0813 20.0296C67.3293 20.7905 66.7455 21.6897 66.32 22.7272C65.8945 23.7648 65.6867 24.8814 65.6867 26.077C65.6867 27.2727 65.8945 28.4387 66.32 29.4861C66.7455 30.5335 67.3293 31.4426 68.0813 32.2034C68.8334 32.9643 69.7041 33.5671 70.7035 34.0018C71.7029 34.4366 72.7914 34.654 73.9689 34.654Z" fill="#00C9B8" stroke="#00C9B8" stroke-miterlimit="10"/>
<path id="Vector_2" d="M91.5923 38.0632V14.1603C91.5923 13.518 92.1068 13.0042 92.75 13.0042H104.753C106.475 13.0042 107.998 13.35 109.314 14.0516C110.631 14.7531 111.66 15.7215 112.412 16.9567C113.164 18.1919 113.54 19.6247 113.54 21.2452C113.54 22.8657 113.164 24.1799 112.412 25.4052C111.66 26.6305 110.621 27.589 109.295 28.2906C107.969 28.9922 106.455 29.338 104.753 29.338H98.1825C97.5393 29.338 97.0247 29.8518 97.0247 30.4941V38.0632C97.0247 38.7055 96.5102 39.2193 95.867 39.2193H92.75C92.1068 39.2193 91.5923 38.7055 91.5923 38.0632ZM97.0346 23.6859C97.0346 24.3282 97.5492 24.842 98.1923 24.842H104.159C105.337 24.842 106.277 24.5159 106.989 23.8637C107.702 23.2116 108.058 22.3519 108.058 21.2748C108.058 20.1978 107.702 19.2986 106.989 18.6563C106.277 18.0041 105.337 17.678 104.159 17.678H98.1923C97.5492 17.678 97.0346 18.1919 97.0346 18.8341V23.676V23.6859Z" fill="#00C9B8" stroke="#00C9B8" stroke-miterlimit="10"/>
<path id="Vector_3" d="M117.132 38.0632V14.1603C117.132 13.518 117.646 13.0042 118.289 13.0042H136.15C136.793 13.0042 137.308 13.518 137.308 14.1603V16.5614C137.308 17.2037 136.793 17.7176 136.15 17.7176H123.732C123.088 17.7176 122.574 18.2314 122.574 18.8737V22.5495C122.574 23.1918 123.088 23.7056 123.732 23.7056H131.123C131.767 23.7056 132.281 24.2195 132.281 24.8618V27.1147C132.281 27.757 131.767 28.2708 131.123 28.2708H123.732C123.088 28.2708 122.574 28.7847 122.574 29.4269V33.3301C122.574 33.9724 123.088 34.4862 123.732 34.4862H136.298C136.942 34.4862 137.456 35 137.456 35.6423V38.0435C137.456 38.6858 136.942 39.1996 136.298 39.1996H118.289C117.646 39.1996 117.132 38.6858 117.132 38.0435V38.0632Z" fill="#00C9B8" stroke="#00C9B8" stroke-miterlimit="10"/>
<path id="Vector_4" d="M141.325 38.0632V14.1603C141.325 13.518 141.84 13.0042 142.483 13.0042H145.926C146.283 13.0042 146.629 13.1721 146.847 13.4587L157.474 27.2432C158.147 28.1226 159.552 27.6384 159.552 26.5416V14.1702C159.552 13.5279 160.067 13.014 160.71 13.014H163.49C164.133 13.014 164.648 13.5279 164.648 14.1702V38.0731C164.648 38.7154 164.133 39.2292 163.49 39.2292H160.423C160.057 39.2292 159.72 39.0612 159.503 38.7747L148.539 24.427C147.866 23.5475 146.461 24.0218 146.461 25.1286V38.0731C146.461 38.7154 145.946 39.2292 145.303 39.2292H142.483C141.84 39.2292 141.325 38.7154 141.325 38.0731V38.0632Z" fill="#00C9B8" stroke="#00C9B8" stroke-miterlimit="10"/>
<path id="Vector_5" d="M178.788 39.5947C176.661 39.5947 174.583 39.1995 172.564 38.4188C170.902 37.7765 169.398 36.907 168.042 35.82C167.547 35.4248 167.458 34.6936 167.864 34.1896L169.536 32.0948C169.932 31.5908 170.664 31.5216 171.169 31.9169C172.376 32.8853 173.544 33.6066 174.682 34.0908C176.097 34.6936 177.591 34.99 179.164 34.99C180.263 34.99 181.212 34.8615 182.014 34.5948C182.815 34.328 183.429 33.9525 183.874 33.4485C184.31 32.9446 184.527 32.3616 184.527 31.6896C184.527 30.7904 184.201 30.0987 183.548 29.6145C182.895 29.1304 181.786 28.745 180.213 28.4683L174.998 27.5691C172.772 27.1936 171.08 26.4031 169.912 25.2075C168.754 24.0118 168.171 22.4605 168.171 20.5633C168.171 18.9427 168.586 17.5297 169.427 16.334C170.268 15.1384 171.456 14.2194 172.99 13.5771C174.523 12.9349 176.354 12.6187 178.481 12.6187C180.411 12.6187 182.321 12.9447 184.24 13.5969C185.744 14.1107 187.11 14.7728 188.347 15.5929C188.891 15.9586 189.03 16.7095 188.644 17.2431L187.08 19.4071C186.714 19.9111 186.012 20.0395 185.497 19.6838C183.043 18.0238 180.589 17.1937 178.115 17.1937C177.136 17.1937 176.295 17.3222 175.562 17.5692C174.84 17.8162 174.276 18.1621 173.89 18.5969C173.504 19.0316 173.306 19.5554 173.306 20.1482C173.306 20.9486 173.593 21.5613 174.167 22.0059C174.741 22.4407 175.701 22.7767 177.057 22.9941L182.004 23.8142C184.626 24.2391 186.595 25.0691 187.892 26.3043C189.188 27.5395 189.841 29.1699 189.841 31.1956C189.841 32.8952 189.396 34.3774 188.495 35.6323C187.595 36.8971 186.318 37.8655 184.656 38.5572C182.994 39.239 181.034 39.5848 178.788 39.5848V39.5947Z" fill="#00C9B8" stroke="#00C9B8" stroke-miterlimit="10"/>
<path id="Vector_6" d="M193.077 38.0632V14.1603C193.077 13.518 193.591 13.0042 194.234 13.0042H212.095C212.738 13.0042 213.253 13.518 213.253 14.1603V16.5614C213.253 17.2037 212.738 17.7176 212.095 17.7176H199.677C199.034 17.7176 198.519 18.2314 198.519 18.8737V22.5495C198.519 23.1918 199.034 23.7056 199.677 23.7056H207.068C207.712 23.7056 208.226 24.2195 208.226 24.8618V27.1147C208.226 27.757 207.712 28.2708 207.068 28.2708H199.677C199.034 28.2708 198.519 28.7847 198.519 29.4269V33.3301C198.519 33.9724 199.034 34.4862 199.677 34.4862H212.244C212.887 34.4862 213.401 35 213.401 35.6423V38.0435C213.401 38.6858 212.887 39.1996 212.244 39.1996H194.234C193.591 39.1996 193.077 38.6858 193.077 38.0435V38.0632Z" fill="#00C9B8" stroke="#00C9B8" stroke-miterlimit="10"/>
<path id="Vector_7" d="M215.826 37.6184L225.671 13.7155C225.849 13.2807 226.275 12.9941 226.74 12.9941H231.45C231.925 12.9941 232.351 13.2807 232.519 13.7155L242.265 37.6184C242.572 38.3793 242.018 39.2093 241.197 39.2093H237.823C237.348 39.2093 236.912 38.9129 236.744 38.4682L234.656 33.0631C234.488 32.6185 234.052 32.322 233.577 32.322H224.326C223.851 32.322 223.415 32.6185 223.247 33.0533L221.119 38.4682C220.941 38.9129 220.516 39.1994 220.041 39.1994H216.904C216.083 39.1994 215.519 38.3595 215.835 37.5987V37.6184H215.826ZM226.908 27.9841H231.025C231.836 27.9841 232.4 27.164 232.103 26.413L230.045 21.1067C229.659 20.1186 228.264 20.1186 227.888 21.1067L225.83 26.413C225.533 27.1739 226.097 27.9841 226.908 27.9841Z" fill="#00C9B8" stroke="#00C9B8" stroke-miterlimit="10"/>
<path id="Vector_8" d="M24.8693 43.073C21.406 43.073 17.9328 43.0829 14.4695 43.073C11.8473 43.0631 9.41307 42.4208 7.22625 41.0572C3.90148 38.9821 1.85319 36.0968 1.16053 32.3913C1.03189 31.6996 1.03189 30.998 1.0022 30.2964C0.982414 29.9011 1.09126 29.8221 1.51675 29.8221H12.9258C13.3118 29.8419 13.3909 29.9308 13.4008 30.2865C13.4206 31.3438 13.7076 32.3221 14.4695 33.1324C15.2908 34.0118 16.3397 34.4762 17.5865 34.496C19.4171 34.5157 21.2378 34.496 23.0684 34.496C23.4444 34.496 23.4741 34.4762 23.4741 34.1304C23.4741 32.9347 23.4543 31.7391 23.4642 30.5434C23.4642 30.2668 23.3553 30.1976 23.0882 30.1976H18.1703C18.0218 30.1976 17.8734 30.1976 17.725 30.168C17.3589 30.1087 17.2599 29.8913 17.4677 29.5948C17.9427 28.9031 18.4572 28.2312 18.9124 27.5197C19.7832 26.166 20.6045 24.7826 21.2576 23.3202C22.1085 21.4032 22.346 19.4269 22.0789 17.3617C21.8018 15.1977 21.2279 13.1029 20.456 11.0476C19.6545 8.91319 18.6848 6.848 17.537 4.86185C17.4479 4.70375 17.3589 4.54563 17.2995 4.38753C17.2203 4.18991 17.3193 4.09109 17.537 4.1405C17.8338 4.19979 18.1208 4.27884 18.4078 4.34801C19.991 4.75315 21.5742 5.15829 23.1475 5.55354C23.4345 5.62271 23.4939 5.58318 23.4939 5.28674C23.4939 4.53576 23.484 3.7749 23.4939 3.02392C23.5136 2.03578 24.2261 1.25516 25.2651 1.04765C26.5218 0.790737 27.7587 1.601 27.9269 2.79664C27.9566 3.00415 27.9764 3.21165 27.9764 3.42904V6.56144C27.9764 6.7393 28.0456 6.81834 28.2138 6.88751C28.4711 6.98632 28.7185 7.11478 28.9362 7.27288C31.4298 9.09105 33.6858 11.1365 35.556 13.5475C36.1102 14.259 36.6643 14.9704 37.0898 15.7511C37.5252 16.5515 37.8121 17.421 38.1189 18.2807C38.5048 19.3775 38.5048 20.504 38.2079 21.6107C37.8913 22.7569 37.3965 23.8538 36.6841 24.8518C35.3185 26.7589 33.7452 28.4881 31.9146 30.0197C31.786 30.1284 31.5584 30.1877 31.3803 30.1877C30.3908 30.2075 29.3914 30.1976 28.4018 30.1976C28.0159 30.1976 27.9961 30.2174 27.9961 30.5928V34.1205C27.9961 34.4565 28.0159 34.4861 28.3722 34.4861C29.807 34.4861 31.2418 34.5059 32.6765 34.4861C33.9134 34.4663 34.8931 33.9229 35.7341 33.1126C36.4169 32.4604 37.1096 31.8181 37.8121 31.1857C37.9704 31.0375 38.1881 30.9189 38.4058 30.8596C40.2166 30.3557 42.0373 29.8616 43.8581 29.3676C45.9756 28.7944 48.0833 28.2213 50.2008 27.6482C50.2899 27.6284 50.3789 27.5889 50.468 27.5889C50.6758 27.5692 50.8242 27.6581 50.8242 27.8656C50.8242 28.6759 50.844 29.4861 50.8242 30.2865C50.8242 30.415 50.6461 30.5928 50.4977 30.6719C50.0227 30.9288 49.5181 31.1462 49.0332 31.4031C48.5385 31.6699 48.0437 31.9466 47.5687 32.2331C46.5396 32.8656 45.7975 33.7549 45.1444 34.7233C44.1846 36.1363 43.2347 37.5592 42.2352 38.9525C41.2457 40.326 40.0583 41.5315 38.4949 42.3516C37.6142 42.8062 36.6643 43.0631 35.6451 43.0631H24.8693V43.073Z" fill="#00C9B8" stroke="#00C9B8" stroke-miterlimit="10"/>
<path id="Vector_9" d="M9.66045 25.4843H4.34677C3.93117 25.4646 3.81243 25.2472 4.03012 24.931C5.72219 22.4409 7.42415 19.9607 9.11622 17.4706C10.838 14.9508 12.5498 12.4212 14.2716 9.90147C14.3804 9.74337 14.4794 9.58526 14.5981 9.43704C14.8257 9.13072 15.0434 9.13073 15.2314 9.45681C15.3897 9.72361 15.5283 10.0003 15.6569 10.2868C16.3694 11.9074 17.0125 13.5576 17.4677 15.267C17.8734 16.7888 18.1208 18.3303 17.8734 19.8816C17.7448 20.7018 17.4677 21.5318 17.1115 22.2927C16.6365 23.3105 16.0131 24.2689 15.459 25.2571C15.3304 25.4843 15.1325 25.4843 14.9049 25.4843H9.65056H9.66045Z" fill="#00C9B8" stroke="#00C9B8" stroke-miterlimit="10"/>
<g id="Group 73">
<g id="Vector_10">
<mask id="path-10-outside-1_0_1" maskUnits="userSpaceOnUse" x="59.0959" y="13.4688" width="30" height="29" fill="black">
<rect fill="white" x="59.0959" y="13.4688" width="30" height="29"/>
<path d="M73.9689 41.5041C72.0196 41.5041 70.2088 41.1582 68.5266 40.4764C66.8543 39.7946 65.38 38.8262 64.1233 37.5911C62.8567 36.3559 61.8771 34.9231 61.1646 33.2828C60.4522 31.6524 60.0959 29.8836 60.0959 27.9864C60.0959 26.0892 60.4522 24.3205 61.1646 22.69C61.8771 21.0596 62.8666 19.6169 64.1233 18.3818C65.3898 17.1466 66.8543 16.1881 68.5266 15.4964C70.1989 14.8146 72.0097 14.4688 73.9689 14.4688C75.9282 14.4688 77.739 14.8146 79.4212 15.4964C81.1132 16.1881 82.5876 17.1466 83.8443 18.3818C85.1109 19.6169 86.0905 21.0497 86.793 22.69C87.4956 24.3303 87.8419 26.0892 87.8419 27.9864C87.8419 29.8836 87.4956 31.6524 86.793 33.2828C86.0905 34.9231 85.1109 36.3559 83.8443 37.5911C82.5777 38.8262 81.1033 39.7847 79.4212 40.4764C77.7291 41.1582 75.9183 41.5041 73.9689 41.5041ZM73.9689 36.5239C75.1662 36.5239 76.2646 36.3065 77.2739 35.8717C78.2733 35.437 79.154 34.8342 79.8961 34.0733C80.6482 33.3125 81.232 32.4034 81.6575 31.356C82.0829 30.3085 82.2907 29.1821 82.2907 27.9864C82.2907 26.7908 82.0829 25.6347 81.6575 24.5971C81.232 23.5596 80.6482 22.6604 79.8961 21.8995C79.1441 21.1387 78.2733 20.5359 77.2739 20.1011C76.2745 19.6663 75.1761 19.4489 73.9689 19.4489C72.7617 19.4489 71.7029 19.6663 70.7035 20.1011C69.7041 20.5359 68.8235 21.1387 68.0813 21.8995C67.3293 22.6604 66.7455 23.5596 66.32 24.5971C65.8945 25.6347 65.6867 26.7513 65.6867 27.9469C65.6867 29.1425 65.8945 30.3085 66.32 31.356C66.7455 32.4034 67.3293 33.3125 68.0813 34.0733C68.8334 34.8342 69.7041 35.437 70.7035 35.8717C71.7029 36.3065 72.7914 36.5239 73.9689 36.5239Z"/>
</mask>
<path d="M73.9689 41.5041C72.0196 41.5041 70.2088 41.1582 68.5266 40.4764C66.8543 39.7946 65.38 38.8262 64.1233 37.5911C62.8567 36.3559 61.8771 34.9231 61.1646 33.2828C60.4522 31.6524 60.0959 29.8836 60.0959 27.9864C60.0959 26.0892 60.4522 24.3205 61.1646 22.69C61.8771 21.0596 62.8666 19.6169 64.1233 18.3818C65.3898 17.1466 66.8543 16.1881 68.5266 15.4964C70.1989 14.8146 72.0097 14.4688 73.9689 14.4688C75.9282 14.4688 77.739 14.8146 79.4212 15.4964C81.1132 16.1881 82.5876 17.1466 83.8443 18.3818C85.1109 19.6169 86.0905 21.0497 86.793 22.69C87.4956 24.3303 87.8419 26.0892 87.8419 27.9864C87.8419 29.8836 87.4956 31.6524 86.793 33.2828C86.0905 34.9231 85.1109 36.3559 83.8443 37.5911C82.5777 38.8262 81.1033 39.7847 79.4212 40.4764C77.7291 41.1582 75.9183 41.5041 73.9689 41.5041ZM73.9689 36.5239C75.1662 36.5239 76.2646 36.3065 77.2739 35.8717C78.2733 35.437 79.154 34.8342 79.8961 34.0733C80.6482 33.3125 81.232 32.4034 81.6575 31.356C82.0829 30.3085 82.2907 29.1821 82.2907 27.9864C82.2907 26.7908 82.0829 25.6347 81.6575 24.5971C81.232 23.5596 80.6482 22.6604 79.8961 21.8995C79.1441 21.1387 78.2733 20.5359 77.2739 20.1011C76.2745 19.6663 75.1761 19.4489 73.9689 19.4489C72.7617 19.4489 71.7029 19.6663 70.7035 20.1011C69.7041 20.5359 68.8235 21.1387 68.0813 21.8995C67.3293 22.6604 66.7455 23.5596 66.32 24.5971C65.8945 25.6347 65.6867 26.7513 65.6867 27.9469C65.6867 29.1425 65.8945 30.3085 66.32 31.356C66.7455 32.4034 67.3293 33.3125 68.0813 34.0733C68.8334 34.8342 69.7041 35.437 70.7035 35.8717C71.7029 36.3065 72.7914 36.5239 73.9689 36.5239Z" fill="#99E9E3"/>
<path d="M73.9689 41.5041C72.0196 41.5041 70.2088 41.1582 68.5266 40.4764C66.8543 39.7946 65.38 38.8262 64.1233 37.5911C62.8567 36.3559 61.8771 34.9231 61.1646 33.2828C60.4522 31.6524 60.0959 29.8836 60.0959 27.9864C60.0959 26.0892 60.4522 24.3205 61.1646 22.69C61.8771 21.0596 62.8666 19.6169 64.1233 18.3818C65.3898 17.1466 66.8543 16.1881 68.5266 15.4964C70.1989 14.8146 72.0097 14.4688 73.9689 14.4688C75.9282 14.4688 77.739 14.8146 79.4212 15.4964C81.1132 16.1881 82.5876 17.1466 83.8443 18.3818C85.1109 19.6169 86.0905 21.0497 86.793 22.69C87.4956 24.3303 87.8419 26.0892 87.8419 27.9864C87.8419 29.8836 87.4956 31.6524 86.793 33.2828C86.0905 34.9231 85.1109 36.3559 83.8443 37.5911C82.5777 38.8262 81.1033 39.7847 79.4212 40.4764C77.7291 41.1582 75.9183 41.5041 73.9689 41.5041ZM73.9689 36.5239C75.1662 36.5239 76.2646 36.3065 77.2739 35.8717C78.2733 35.437 79.154 34.8342 79.8961 34.0733C80.6482 33.3125 81.232 32.4034 81.6575 31.356C82.0829 30.3085 82.2907 29.1821 82.2907 27.9864C82.2907 26.7908 82.0829 25.6347 81.6575 24.5971C81.232 23.5596 80.6482 22.6604 79.8961 21.8995C79.1441 21.1387 78.2733 20.5359 77.2739 20.1011C76.2745 19.6663 75.1761 19.4489 73.9689 19.4489C72.7617 19.4489 71.7029 19.6663 70.7035 20.1011C69.7041 20.5359 68.8235 21.1387 68.0813 21.8995C67.3293 22.6604 66.7455 23.5596 66.32 24.5971C65.8945 25.6347 65.6867 26.7513 65.6867 27.9469C65.6867 29.1425 65.8945 30.3085 66.32 31.356C66.7455 32.4034 67.3293 33.3125 68.0813 34.0733C68.8334 34.8342 69.7041 35.437 70.7035 35.8717C71.7029 36.3065 72.7914 36.5239 73.9689 36.5239Z" stroke="#00C9B8" stroke-miterlimit="10" mask="url(#path-10-outside-1_0_1)"/>
</g>
<g id="Vector_11">
<mask id="path-11-outside-2_0_1" maskUnits="userSpaceOnUse" x="90.5923" y="13.8738" width="24" height="28" fill="black">
<rect fill="white" x="90.5923" y="13.8738" width="24" height="28"/>
<path d="M91.5923 39.9328V16.0299C91.5923 15.3876 92.1068 14.8738 92.75 14.8738H104.753C106.475 14.8738 107.998 15.2196 109.314 15.9212C110.631 16.6228 111.66 17.5911 112.412 18.8263C113.164 20.0615 113.54 21.4943 113.54 23.1148C113.54 24.7353 113.164 26.0496 112.412 27.2749C111.66 28.5001 110.621 29.4586 109.295 30.1602C107.969 30.8618 106.455 31.2076 104.753 31.2076H98.1825C97.5393 31.2076 97.0247 31.7215 97.0247 32.3637V39.9328C97.0247 40.5751 96.5102 41.089 95.867 41.089H92.75C92.1068 41.089 91.5923 40.5751 91.5923 39.9328ZM97.0346 25.5555C97.0346 26.1978 97.5492 26.7116 98.1923 26.7116H104.159C105.337 26.7116 106.277 26.3855 106.989 25.7334C107.702 25.0812 108.058 24.2215 108.058 23.1445C108.058 22.0674 107.702 21.1682 106.989 20.5259C106.277 19.8737 105.337 19.5476 104.159 19.5476H98.1923C97.5492 19.5476 97.0346 20.0615 97.0346 20.7038V25.5456V25.5555Z"/>
</mask>
<path d="M91.5923 39.9328V16.0299C91.5923 15.3876 92.1068 14.8738 92.75 14.8738H104.753C106.475 14.8738 107.998 15.2196 109.314 15.9212C110.631 16.6228 111.66 17.5911 112.412 18.8263C113.164 20.0615 113.54 21.4943 113.54 23.1148C113.54 24.7353 113.164 26.0496 112.412 27.2749C111.66 28.5001 110.621 29.4586 109.295 30.1602C107.969 30.8618 106.455 31.2076 104.753 31.2076H98.1825C97.5393 31.2076 97.0247 31.7215 97.0247 32.3637V39.9328C97.0247 40.5751 96.5102 41.089 95.867 41.089H92.75C92.1068 41.089 91.5923 40.5751 91.5923 39.9328ZM97.0346 25.5555C97.0346 26.1978 97.5492 26.7116 98.1923 26.7116H104.159C105.337 26.7116 106.277 26.3855 106.989 25.7334C107.702 25.0812 108.058 24.2215 108.058 23.1445C108.058 22.0674 107.702 21.1682 106.989 20.5259C106.277 19.8737 105.337 19.5476 104.159 19.5476H98.1923C97.5492 19.5476 97.0346 20.0615 97.0346 20.7038V25.5456V25.5555Z" fill="#99E9E3"/>
<path d="M91.5923 39.9328V16.0299C91.5923 15.3876 92.1068 14.8738 92.75 14.8738H104.753C106.475 14.8738 107.998 15.2196 109.314 15.9212C110.631 16.6228 111.66 17.5911 112.412 18.8263C113.164 20.0615 113.54 21.4943 113.54 23.1148C113.54 24.7353 113.164 26.0496 112.412 27.2749C111.66 28.5001 110.621 29.4586 109.295 30.1602C107.969 30.8618 106.455 31.2076 104.753 31.2076H98.1825C97.5393 31.2076 97.0247 31.7215 97.0247 32.3637V39.9328C97.0247 40.5751 96.5102 41.089 95.867 41.089H92.75C92.1068 41.089 91.5923 40.5751 91.5923 39.9328ZM97.0346 25.5555C97.0346 26.1978 97.5492 26.7116 98.1923 26.7116H104.159C105.337 26.7116 106.277 26.3855 106.989 25.7334C107.702 25.0812 108.058 24.2215 108.058 23.1445C108.058 22.0674 107.702 21.1682 106.989 20.5259C106.277 19.8737 105.337 19.5476 104.159 19.5476H98.1923C97.5492 19.5476 97.0346 20.0615 97.0346 20.7038V25.5456V25.5555Z" stroke="#00C9B8" stroke-miterlimit="10" mask="url(#path-11-outside-2_0_1)"/>
</g>
<g id="Vector_12">
<mask id="path-12-outside-3_0_1" maskUnits="userSpaceOnUse" x="116.132" y="13.8738" width="22" height="28" fill="black">
<rect fill="white" x="116.132" y="13.8738" width="22" height="28"/>
<path d="M117.132 39.9329V16.0299C117.132 15.3876 117.646 14.8738 118.289 14.8738H136.15C136.793 14.8738 137.308 15.3876 137.308 16.0299V18.4311C137.308 19.0733 136.793 19.5872 136.15 19.5872H123.732C123.088 19.5872 122.574 20.101 122.574 20.7433V24.4192C122.574 25.0614 123.088 25.5753 123.732 25.5753H131.123C131.767 25.5753 132.281 26.0891 132.281 26.7314V28.9843C132.281 29.6266 131.767 30.1404 131.123 30.1404H123.732C123.088 30.1404 122.574 30.6543 122.574 31.2966V35.1997C122.574 35.842 123.088 36.3558 123.732 36.3558H136.298C136.942 36.3558 137.456 36.8696 137.456 37.5119V39.9131C137.456 40.5554 136.942 41.0692 136.298 41.0692H118.289C117.646 41.0692 117.132 40.5554 117.132 39.9131V39.9329Z"/>
</mask>
<path d="M117.132 39.9329V16.0299C117.132 15.3876 117.646 14.8738 118.289 14.8738H136.15C136.793 14.8738 137.308 15.3876 137.308 16.0299V18.4311C137.308 19.0733 136.793 19.5872 136.15 19.5872H123.732C123.088 19.5872 122.574 20.101 122.574 20.7433V24.4192C122.574 25.0614 123.088 25.5753 123.732 25.5753H131.123C131.767 25.5753 132.281 26.0891 132.281 26.7314V28.9843C132.281 29.6266 131.767 30.1404 131.123 30.1404H123.732C123.088 30.1404 122.574 30.6543 122.574 31.2966V35.1997C122.574 35.842 123.088 36.3558 123.732 36.3558H136.298C136.942 36.3558 137.456 36.8696 137.456 37.5119V39.9131C137.456 40.5554 136.942 41.0692 136.298 41.0692H118.289C117.646 41.0692 117.132 40.5554 117.132 39.9131V39.9329Z" fill="#99E9E3"/>
<path d="M117.132 39.9329V16.0299C117.132 15.3876 117.646 14.8738 118.289 14.8738H136.15C136.793 14.8738 137.308 15.3876 137.308 16.0299V18.4311C137.308 19.0733 136.793 19.5872 136.15 19.5872H123.732C123.088 19.5872 122.574 20.101 122.574 20.7433V24.4192C122.574 25.0614 123.088 25.5753 123.732 25.5753H131.123C131.767 25.5753 132.281 26.0891 132.281 26.7314V28.9843C132.281 29.6266 131.767 30.1404 131.123 30.1404H123.732C123.088 30.1404 122.574 30.6543 122.574 31.2966V35.1997C122.574 35.842 123.088 36.3558 123.732 36.3558H136.298C136.942 36.3558 137.456 36.8696 137.456 37.5119V39.9131C137.456 40.5554 136.942 41.0692 136.298 41.0692H118.289C117.646 41.0692 117.132 40.5554 117.132 39.9131V39.9329Z" stroke="#00C9B8" stroke-miterlimit="10" mask="url(#path-12-outside-3_0_1)"/>
</g>
<g id="Vector_13">
<mask id="path-13-outside-4_0_1" maskUnits="userSpaceOnUse" x="140.325" y="13.8738" width="25" height="28" fill="black">
<rect fill="white" x="140.325" y="13.8738" width="25" height="28"/>
<path d="M141.325 39.9328V16.0299C141.325 15.3876 141.84 14.8738 142.483 14.8738H145.926C146.283 14.8738 146.629 15.0418 146.847 15.3283L157.474 29.1128C158.147 29.9922 159.552 29.508 159.552 28.4112V16.0398C159.552 15.3975 160.067 14.8837 160.71 14.8837H163.49C164.133 14.8837 164.648 15.3975 164.648 16.0398V39.9427C164.648 40.585 164.133 41.0988 163.49 41.0988H160.423C160.057 41.0988 159.72 40.9309 159.503 40.6443L148.539 26.2966C147.866 25.4172 146.461 25.8915 146.461 26.9982V39.9427C146.461 40.585 145.946 41.0988 145.303 41.0988H142.483C141.84 41.0988 141.325 40.585 141.325 39.9427V39.9328Z"/>
</mask>
<path d="M141.325 39.9328V16.0299C141.325 15.3876 141.84 14.8738 142.483 14.8738H145.926C146.283 14.8738 146.629 15.0418 146.847 15.3283L157.474 29.1128C158.147 29.9922 159.552 29.508 159.552 28.4112V16.0398C159.552 15.3975 160.067 14.8837 160.71 14.8837H163.49C164.133 14.8837 164.648 15.3975 164.648 16.0398V39.9427C164.648 40.585 164.133 41.0988 163.49 41.0988H160.423C160.057 41.0988 159.72 40.9309 159.503 40.6443L148.539 26.2966C147.866 25.4172 146.461 25.8915 146.461 26.9982V39.9427C146.461 40.585 145.946 41.0988 145.303 41.0988H142.483C141.84 41.0988 141.325 40.585 141.325 39.9427V39.9328Z" fill="#99E9E3"/>
<path d="M141.325 39.9328V16.0299C141.325 15.3876 141.84 14.8738 142.483 14.8738H145.926C146.283 14.8738 146.629 15.0418 146.847 15.3283L157.474 29.1128C158.147 29.9922 159.552 29.508 159.552 28.4112V16.0398C159.552 15.3975 160.067 14.8837 160.71 14.8837H163.49C164.133 14.8837 164.648 15.3975 164.648 16.0398V39.9427C164.648 40.585 164.133 41.0988 163.49 41.0988H160.423C160.057 41.0988 159.72 40.9309 159.503 40.6443L148.539 26.2966C147.866 25.4172 146.461 25.8915 146.461 26.9982V39.9427C146.461 40.585 145.946 41.0988 145.303 41.0988H142.483C141.84 41.0988 141.325 40.585 141.325 39.9427V39.9328Z" stroke="#00C9B8" stroke-miterlimit="10" mask="url(#path-13-outside-4_0_1)"/>
</g>
<g id="Vector_14">
<mask id="path-14-outside-5_0_1" maskUnits="userSpaceOnUse" x="166.608" y="13.4883" width="24" height="29" fill="black">
<rect fill="white" x="166.608" y="13.4883" width="24" height="29"/>
<path d="M178.788 41.4643C176.661 41.4643 174.583 41.0691 172.564 40.2885C170.902 39.6462 169.398 38.7766 168.042 37.6897C167.547 37.2944 167.458 36.5632 167.864 36.0592L169.536 33.9644C169.932 33.4604 170.664 33.3913 171.169 33.7865C172.376 34.7549 173.544 35.4762 174.682 35.9604C176.097 36.5632 177.591 36.8596 179.164 36.8596C180.263 36.8596 181.212 36.7312 182.014 36.4644C182.815 36.1976 183.429 35.8221 183.874 35.3181C184.31 34.8142 184.527 34.2312 184.527 33.5593C184.527 32.6601 184.201 31.9684 183.548 31.4842C182.895 31 181.786 30.6146 180.213 30.3379L174.998 29.4387C172.772 29.0632 171.08 28.2727 169.912 27.0771C168.754 25.8815 168.171 24.3301 168.171 22.4329C168.171 20.8123 168.586 19.3993 169.427 18.2037C170.268 17.008 171.456 16.0891 172.99 15.4468C174.523 14.8045 176.354 14.4883 178.481 14.4883C180.411 14.4883 182.321 14.8144 184.24 15.4665C185.744 15.9804 187.11 16.6424 188.347 17.4626C188.891 17.8282 189.03 18.5791 188.644 19.1127L187.08 21.2768C186.714 21.7807 186.012 21.9092 185.497 21.5534C183.043 19.8934 180.589 19.0633 178.115 19.0633C177.136 19.0633 176.295 19.1918 175.562 19.4388C174.84 19.6859 174.276 20.0317 173.89 20.4665C173.504 20.9013 173.306 21.425 173.306 22.0179C173.306 22.8182 173.593 23.4309 174.167 23.8756C174.741 24.3103 175.701 24.6463 177.057 24.8637L182.004 25.6838C184.626 26.1087 186.595 26.9388 187.892 28.1739C189.188 29.4091 189.841 31.0395 189.841 33.0652C189.841 34.7648 189.396 36.247 188.495 37.5019C187.595 38.7667 186.318 39.7351 184.656 40.4268C182.994 41.1086 181.034 41.4544 178.788 41.4544V41.4643Z"/>
</mask>
<path d="M178.788 41.4643C176.661 41.4643 174.583 41.0691 172.564 40.2885C170.902 39.6462 169.398 38.7766 168.042 37.6897C167.547 37.2944 167.458 36.5632 167.864 36.0592L169.536 33.9644C169.932 33.4604 170.664 33.3913 171.169 33.7865C172.376 34.7549 173.544 35.4762 174.682 35.9604C176.097 36.5632 177.591 36.8596 179.164 36.8596C180.263 36.8596 181.212 36.7312 182.014 36.4644C182.815 36.1976 183.429 35.8221 183.874 35.3181C184.31 34.8142 184.527 34.2312 184.527 33.5593C184.527 32.6601 184.201 31.9684 183.548 31.4842C182.895 31 181.786 30.6146 180.213 30.3379L174.998 29.4387C172.772 29.0632 171.08 28.2727 169.912 27.0771C168.754 25.8815 168.171 24.3301 168.171 22.4329C168.171 20.8123 168.586 19.3993 169.427 18.2037C170.268 17.008 171.456 16.0891 172.99 15.4468C174.523 14.8045 176.354 14.4883 178.481 14.4883C180.411 14.4883 182.321 14.8144 184.24 15.4665C185.744 15.9804 187.11 16.6424 188.347 17.4626C188.891 17.8282 189.03 18.5791 188.644 19.1127L187.08 21.2768C186.714 21.7807 186.012 21.9092 185.497 21.5534C183.043 19.8934 180.589 19.0633 178.115 19.0633C177.136 19.0633 176.295 19.1918 175.562 19.4388C174.84 19.6859 174.276 20.0317 173.89 20.4665C173.504 20.9013 173.306 21.425 173.306 22.0179C173.306 22.8182 173.593 23.4309 174.167 23.8756C174.741 24.3103 175.701 24.6463 177.057 24.8637L182.004 25.6838C184.626 26.1087 186.595 26.9388 187.892 28.1739C189.188 29.4091 189.841 31.0395 189.841 33.0652C189.841 34.7648 189.396 36.247 188.495 37.5019C187.595 38.7667 186.318 39.7351 184.656 40.4268C182.994 41.1086 181.034 41.4544 178.788 41.4544V41.4643Z" fill="#99E9E3"/>
<path d="M178.788 41.4643C176.661 41.4643 174.583 41.0691 172.564 40.2885C170.902 39.6462 169.398 38.7766 168.042 37.6897C167.547 37.2944 167.458 36.5632 167.864 36.0592L169.536 33.9644C169.932 33.4604 170.664 33.3913 171.169 33.7865C172.376 34.7549 173.544 35.4762 174.682 35.9604C176.097 36.5632 177.591 36.8596 179.164 36.8596C180.263 36.8596 181.212 36.7312 182.014 36.4644C182.815 36.1976 183.429 35.8221 183.874 35.3181C184.31 34.8142 184.527 34.2312 184.527 33.5593C184.527 32.6601 184.201 31.9684 183.548 31.4842C182.895 31 181.786 30.6146 180.213 30.3379L174.998 29.4387C172.772 29.0632 171.08 28.2727 169.912 27.0771C168.754 25.8815 168.171 24.3301 168.171 22.4329C168.171 20.8123 168.586 19.3993 169.427 18.2037C170.268 17.008 171.456 16.0891 172.99 15.4468C174.523 14.8045 176.354 14.4883 178.481 14.4883C180.411 14.4883 182.321 14.8144 184.24 15.4665C185.744 15.9804 187.11 16.6424 188.347 17.4626C188.891 17.8282 189.03 18.5791 188.644 19.1127L187.08 21.2768C186.714 21.7807 186.012 21.9092 185.497 21.5534C183.043 19.8934 180.589 19.0633 178.115 19.0633C177.136 19.0633 176.295 19.1918 175.562 19.4388C174.84 19.6859 174.276 20.0317 173.89 20.4665C173.504 20.9013 173.306 21.425 173.306 22.0179C173.306 22.8182 173.593 23.4309 174.167 23.8756C174.741 24.3103 175.701 24.6463 177.057 24.8637L182.004 25.6838C184.626 26.1087 186.595 26.9388 187.892 28.1739C189.188 29.4091 189.841 31.0395 189.841 33.0652C189.841 34.7648 189.396 36.247 188.495 37.5019C187.595 38.7667 186.318 39.7351 184.656 40.4268C182.994 41.1086 181.034 41.4544 178.788 41.4544V41.4643Z" stroke="#00C9B8" stroke-miterlimit="10" mask="url(#path-14-outside-5_0_1)"/>
</g>
<g id="Vector_15">
<mask id="path-15-outside-6_0_1" maskUnits="userSpaceOnUse" x="192.077" y="13.8738" width="22" height="28" fill="black">
<rect fill="white" x="192.077" y="13.8738" width="22" height="28"/>
<path d="M193.077 39.9329V16.0299C193.077 15.3876 193.591 14.8738 194.234 14.8738H212.095C212.738 14.8738 213.253 15.3876 213.253 16.0299V18.4311C213.253 19.0733 212.738 19.5872 212.095 19.5872H199.677C199.034 19.5872 198.519 20.101 198.519 20.7433V24.4192C198.519 25.0614 199.034 25.5753 199.677 25.5753H207.068C207.712 25.5753 208.226 26.0891 208.226 26.7314V28.9843C208.226 29.6266 207.712 30.1404 207.068 30.1404H199.677C199.034 30.1404 198.519 30.6543 198.519 31.2966V35.1997C198.519 35.842 199.034 36.3558 199.677 36.3558H212.244C212.887 36.3558 213.401 36.8696 213.401 37.5119V39.9131C213.401 40.5554 212.887 41.0692 212.244 41.0692H194.234C193.591 41.0692 193.077 40.5554 193.077 39.9131V39.9329Z"/>
</mask>
<path d="M193.077 39.9329V16.0299C193.077 15.3876 193.591 14.8738 194.234 14.8738H212.095C212.738 14.8738 213.253 15.3876 213.253 16.0299V18.4311C213.253 19.0733 212.738 19.5872 212.095 19.5872H199.677C199.034 19.5872 198.519 20.101 198.519 20.7433V24.4192C198.519 25.0614 199.034 25.5753 199.677 25.5753H207.068C207.712 25.5753 208.226 26.0891 208.226 26.7314V28.9843C208.226 29.6266 207.712 30.1404 207.068 30.1404H199.677C199.034 30.1404 198.519 30.6543 198.519 31.2966V35.1997C198.519 35.842 199.034 36.3558 199.677 36.3558H212.244C212.887 36.3558 213.401 36.8696 213.401 37.5119V39.9131C213.401 40.5554 212.887 41.0692 212.244 41.0692H194.234C193.591 41.0692 193.077 40.5554 193.077 39.9131V39.9329Z" fill="#99E9E3"/>
<path d="M193.077 39.9329V16.0299C193.077 15.3876 193.591 14.8738 194.234 14.8738H212.095C212.738 14.8738 213.253 15.3876 213.253 16.0299V18.4311C213.253 19.0733 212.738 19.5872 212.095 19.5872H199.677C199.034 19.5872 198.519 20.101 198.519 20.7433V24.4192C198.519 25.0614 199.034 25.5753 199.677 25.5753H207.068C207.712 25.5753 208.226 26.0891 208.226 26.7314V28.9843C208.226 29.6266 207.712 30.1404 207.068 30.1404H199.677C199.034 30.1404 198.519 30.6543 198.519 31.2966V35.1997C198.519 35.842 199.034 36.3558 199.677 36.3558H212.244C212.887 36.3558 213.401 36.8696 213.401 37.5119V39.9131C213.401 40.5554 212.887 41.0692 212.244 41.0692H194.234C193.591 41.0692 193.077 40.5554 193.077 39.9131V39.9329Z" stroke="#00C9B8" stroke-miterlimit="10" mask="url(#path-15-outside-6_0_1)"/>
</g>
<g id="Vector_16">
<mask id="path-16-outside-7_0_1" maskUnits="userSpaceOnUse" x="214.746" y="13.8638" width="29" height="28" fill="black">
<rect fill="white" x="214.746" y="13.8638" width="29" height="28"/>
<path d="M215.826 39.4881L225.671 15.5851C225.849 15.1503 226.275 14.8638 226.74 14.8638H231.45C231.925 14.8638 232.351 15.1503 232.519 15.5851L242.265 39.4881C242.572 40.2489 242.018 41.079 241.197 41.079H237.823C237.348 41.079 236.912 40.7825 236.744 40.3379L234.656 34.9328C234.488 34.4881 234.052 34.1917 233.577 34.1917H224.326C223.851 34.1917 223.415 34.4881 223.247 34.9229L221.119 40.3379C220.941 40.7825 220.516 41.0691 220.041 41.0691H216.904C216.083 41.0691 215.519 40.2292 215.835 39.4683V39.4881H215.826ZM226.908 29.8538H231.025C231.836 29.8538 232.4 29.0336 232.103 28.2826L230.045 22.9764C229.659 21.9882 228.264 21.9882 227.888 22.9764L225.83 28.2826C225.533 29.0435 226.097 29.8538 226.908 29.8538Z"/>
</mask>
<path d="M215.826 39.4881L225.671 15.5851C225.849 15.1503 226.275 14.8638 226.74 14.8638H231.45C231.925 14.8638 232.351 15.1503 232.519 15.5851L242.265 39.4881C242.572 40.2489 242.018 41.079 241.197 41.079H237.823C237.348 41.079 236.912 40.7825 236.744 40.3379L234.656 34.9328C234.488 34.4881 234.052 34.1917 233.577 34.1917H224.326C223.851 34.1917 223.415 34.4881 223.247 34.9229L221.119 40.3379C220.941 40.7825 220.516 41.0691 220.041 41.0691H216.904C216.083 41.0691 215.519 40.2292 215.835 39.4683V39.4881H215.826ZM226.908 29.8538H231.025C231.836 29.8538 232.4 29.0336 232.103 28.2826L230.045 22.9764C229.659 21.9882 228.264 21.9882 227.888 22.9764L225.83 28.2826C225.533 29.0435 226.097 29.8538 226.908 29.8538Z" fill="#99E9E3"/>
<path d="M215.826 39.4881L225.671 15.5851C225.849 15.1503 226.275 14.8638 226.74 14.8638H231.45C231.925 14.8638 232.351 15.1503 232.519 15.5851L242.265 39.4881C242.572 40.2489 242.018 41.079 241.197 41.079H237.823C237.348 41.079 236.912 40.7825 236.744 40.3379L234.656 34.9328C234.488 34.4881 234.052 34.1917 233.577 34.1917H224.326C223.851 34.1917 223.415 34.4881 223.247 34.9229L221.119 40.3379C220.941 40.7825 220.516 41.0691 220.041 41.0691H216.904C216.083 41.0691 215.519 40.2292 215.835 39.4683V39.4881H215.826ZM226.908 29.8538H231.025C231.836 29.8538 232.4 29.0336 232.103 28.2826L230.045 22.9764C229.659 21.9882 228.264 21.9882 227.888 22.9764L225.83 28.2826C225.533 29.0435 226.097 29.8538 226.908 29.8538Z" stroke="#00C9B8" stroke-miterlimit="10" mask="url(#path-16-outside-7_0_1)"/>
</g>
<g id="Vector_17">
<mask id="path-17-outside-8_0_1" maskUnits="userSpaceOnUse" x="0" y="2.70947" width="52" height="44" fill="black">
<rect fill="white" y="2.70947" width="52" height="44"/>
<path d="M24.8693 45.7824C21.406 45.7824 17.9328 45.7923 14.4695 45.7824C11.8473 45.7726 9.41307 45.1303 7.22625 43.7666C3.90148 41.6916 1.85319 38.8062 1.16053 35.1007C1.03189 34.409 1.03189 33.7074 1.0022 33.0059C0.982414 32.6106 1.09126 32.5316 1.51675 32.5316H12.9258C13.3118 32.5513 13.3909 32.6403 13.4008 32.996C13.4206 34.0533 13.7076 35.0316 14.4695 35.8418C15.2908 36.7213 16.3397 37.1857 17.5865 37.2054C19.4171 37.2252 21.2378 37.2054 23.0684 37.2054C23.4444 37.2054 23.4741 37.1857 23.4741 36.8398C23.4741 35.6442 23.4543 34.4485 23.4642 33.2529C23.4642 32.9762 23.3553 32.9071 23.0882 32.9071H18.1703C18.0218 32.9071 17.8734 32.9071 17.725 32.8774C17.3589 32.8181 17.2599 32.6007 17.4677 32.3043C17.9427 31.6126 18.4572 30.9407 18.9124 30.2292C19.7832 28.8755 20.6045 27.4921 21.2576 26.0297C22.1085 24.1127 22.346 22.1364 22.0789 20.0712C21.8018 17.9072 21.2279 15.8123 20.456 13.757C19.6545 11.6227 18.6848 9.55747 17.537 7.57132C17.4479 7.41322 17.3589 7.25511 17.2995 7.09701C17.2203 6.89938 17.3193 6.80057 17.537 6.84997C17.8338 6.90926 18.1208 6.98832 18.4078 7.05749C19.991 7.46262 21.5742 7.86776 23.1475 8.26301C23.4345 8.33218 23.4939 8.29265 23.4939 7.99621C23.4939 7.24523 23.484 6.48437 23.4939 5.73339C23.5136 4.74526 24.2261 3.96463 25.2651 3.75712C26.5218 3.50021 27.7587 4.31048 27.9269 5.50612C27.9566 5.71363 27.9764 5.92114 27.9764 6.13853V9.27091C27.9764 9.44878 28.0456 9.52783 28.2138 9.597C28.4711 9.69581 28.7185 9.82427 28.9362 9.98237C31.4298 11.8005 33.6858 13.846 35.556 16.257C36.1102 16.9685 36.6643 17.6799 37.0898 18.4605C37.5252 19.2609 37.8121 20.1305 38.1189 20.9902C38.5048 22.087 38.5048 23.2135 38.2079 24.3202C37.8913 25.4664 37.3965 26.5632 36.6841 27.5613C35.3185 29.4684 33.7452 31.1976 31.9146 32.7292C31.786 32.8379 31.5584 32.8972 31.3803 32.8972C30.3908 32.9169 29.3914 32.9071 28.4018 32.9071C28.0159 32.9071 27.9961 32.9268 27.9961 33.3023V36.83C27.9961 37.1659 28.0159 37.1956 28.3722 37.1956C29.807 37.1956 31.2418 37.2153 32.6765 37.1956C33.9134 37.1758 34.8931 36.6323 35.7341 35.8221C36.4169 35.1699 37.1096 34.5276 37.8121 33.8952C37.9704 33.747 38.1881 33.6284 38.4058 33.5691C40.2166 33.0652 42.0373 32.5711 43.8581 32.077C45.9756 31.5039 48.0833 30.9308 50.2008 30.3577C50.2899 30.3379 50.3789 30.2984 50.468 30.2984C50.6758 30.2786 50.8242 30.3676 50.8242 30.5751C50.8242 31.3853 50.844 32.1956 50.8242 32.996C50.8242 33.1245 50.6461 33.3023 50.4977 33.3814C50.0227 33.6383 49.5181 33.8557 49.0332 34.1126C48.5385 34.3794 48.0437 34.6561 47.5687 34.9426C46.5396 35.575 45.7975 36.4644 45.1444 37.4327C44.1846 38.8458 43.2347 40.2687 42.2352 41.6619C41.2457 43.0354 40.0583 44.241 38.4949 45.0611C37.6142 45.5157 36.6643 45.7726 35.6451 45.7726H24.8693V45.7824Z"/>
</mask>
<path d="M24.8693 45.7824C21.406 45.7824 17.9328 45.7923 14.4695 45.7824C11.8473 45.7726 9.41307 45.1303 7.22625 43.7666C3.90148 41.6916 1.85319 38.8062 1.16053 35.1007C1.03189 34.409 1.03189 33.7074 1.0022 33.0059C0.982414 32.6106 1.09126 32.5316 1.51675 32.5316H12.9258C13.3118 32.5513 13.3909 32.6403 13.4008 32.996C13.4206 34.0533 13.7076 35.0316 14.4695 35.8418C15.2908 36.7213 16.3397 37.1857 17.5865 37.2054C19.4171 37.2252 21.2378 37.2054 23.0684 37.2054C23.4444 37.2054 23.4741 37.1857 23.4741 36.8398C23.4741 35.6442 23.4543 34.4485 23.4642 33.2529C23.4642 32.9762 23.3553 32.9071 23.0882 32.9071H18.1703C18.0218 32.9071 17.8734 32.9071 17.725 32.8774C17.3589 32.8181 17.2599 32.6007 17.4677 32.3043C17.9427 31.6126 18.4572 30.9407 18.9124 30.2292C19.7832 28.8755 20.6045 27.4921 21.2576 26.0297C22.1085 24.1127 22.346 22.1364 22.0789 20.0712C21.8018 17.9072 21.2279 15.8123 20.456 13.757C19.6545 11.6227 18.6848 9.55747 17.537 7.57132C17.4479 7.41322 17.3589 7.25511 17.2995 7.09701C17.2203 6.89938 17.3193 6.80057 17.537 6.84997C17.8338 6.90926 18.1208 6.98832 18.4078 7.05749C19.991 7.46262 21.5742 7.86776 23.1475 8.26301C23.4345 8.33218 23.4939 8.29265 23.4939 7.99621C23.4939 7.24523 23.484 6.48437 23.4939 5.73339C23.5136 4.74526 24.2261 3.96463 25.2651 3.75712C26.5218 3.50021 27.7587 4.31048 27.9269 5.50612C27.9566 5.71363 27.9764 5.92114 27.9764 6.13853V9.27091C27.9764 9.44878 28.0456 9.52783 28.2138 9.597C28.4711 9.69581 28.7185 9.82427 28.9362 9.98237C31.4298 11.8005 33.6858 13.846 35.556 16.257C36.1102 16.9685 36.6643 17.6799 37.0898 18.4605C37.5252 19.2609 37.8121 20.1305 38.1189 20.9902C38.5048 22.087 38.5048 23.2135 38.2079 24.3202C37.8913 25.4664 37.3965 26.5632 36.6841 27.5613C35.3185 29.4684 33.7452 31.1976 31.9146 32.7292C31.786 32.8379 31.5584 32.8972 31.3803 32.8972C30.3908 32.9169 29.3914 32.9071 28.4018 32.9071C28.0159 32.9071 27.9961 32.9268 27.9961 33.3023V36.83C27.9961 37.1659 28.0159 37.1956 28.3722 37.1956C29.807 37.1956 31.2418 37.2153 32.6765 37.1956C33.9134 37.1758 34.8931 36.6323 35.7341 35.8221C36.4169 35.1699 37.1096 34.5276 37.8121 33.8952C37.9704 33.747 38.1881 33.6284 38.4058 33.5691C40.2166 33.0652 42.0373 32.5711 43.8581 32.077C45.9756 31.5039 48.0833 30.9308 50.2008 30.3577C50.2899 30.3379 50.3789 30.2984 50.468 30.2984C50.6758 30.2786 50.8242 30.3676 50.8242 30.5751C50.8242 31.3853 50.844 32.1956 50.8242 32.996C50.8242 33.1245 50.6461 33.3023 50.4977 33.3814C50.0227 33.6383 49.5181 33.8557 49.0332 34.1126C48.5385 34.3794 48.0437 34.6561 47.5687 34.9426C46.5396 35.575 45.7975 36.4644 45.1444 37.4327C44.1846 38.8458 43.2347 40.2687 42.2352 41.6619C41.2457 43.0354 40.0583 44.241 38.4949 45.0611C37.6142 45.5157 36.6643 45.7726 35.6451 45.7726H24.8693V45.7824Z" fill="#99E9E3"/>
<path d="M24.8693 45.7824C21.406 45.7824 17.9328 45.7923 14.4695 45.7824C11.8473 45.7726 9.41307 45.1303 7.22625 43.7666C3.90148 41.6916 1.85319 38.8062 1.16053 35.1007C1.03189 34.409 1.03189 33.7074 1.0022 33.0059C0.982414 32.6106 1.09126 32.5316 1.51675 32.5316H12.9258C13.3118 32.5513 13.3909 32.6403 13.4008 32.996C13.4206 34.0533 13.7076 35.0316 14.4695 35.8418C15.2908 36.7213 16.3397 37.1857 17.5865 37.2054C19.4171 37.2252 21.2378 37.2054 23.0684 37.2054C23.4444 37.2054 23.4741 37.1857 23.4741 36.8398C23.4741 35.6442 23.4543 34.4485 23.4642 33.2529C23.4642 32.9762 23.3553 32.9071 23.0882 32.9071H18.1703C18.0218 32.9071 17.8734 32.9071 17.725 32.8774C17.3589 32.8181 17.2599 32.6007 17.4677 32.3043C17.9427 31.6126 18.4572 30.9407 18.9124 30.2292C19.7832 28.8755 20.6045 27.4921 21.2576 26.0297C22.1085 24.1127 22.346 22.1364 22.0789 20.0712C21.8018 17.9072 21.2279 15.8123 20.456 13.757C19.6545 11.6227 18.6848 9.55747 17.537 7.57132C17.4479 7.41322 17.3589 7.25511 17.2995 7.09701C17.2203 6.89938 17.3193 6.80057 17.537 6.84997C17.8338 6.90926 18.1208 6.98832 18.4078 7.05749C19.991 7.46262 21.5742 7.86776 23.1475 8.26301C23.4345 8.33218 23.4939 8.29265 23.4939 7.99621C23.4939 7.24523 23.484 6.48437 23.4939 5.73339C23.5136 4.74526 24.2261 3.96463 25.2651 3.75712C26.5218 3.50021 27.7587 4.31048 27.9269 5.50612C27.9566 5.71363 27.9764 5.92114 27.9764 6.13853V9.27091C27.9764 9.44878 28.0456 9.52783 28.2138 9.597C28.4711 9.69581 28.7185 9.82427 28.9362 9.98237C31.4298 11.8005 33.6858 13.846 35.556 16.257C36.1102 16.9685 36.6643 17.6799 37.0898 18.4605C37.5252 19.2609 37.8121 20.1305 38.1189 20.9902C38.5048 22.087 38.5048 23.2135 38.2079 24.3202C37.8913 25.4664 37.3965 26.5632 36.6841 27.5613C35.3185 29.4684 33.7452 31.1976 31.9146 32.7292C31.786 32.8379 31.5584 32.8972 31.3803 32.8972C30.3908 32.9169 29.3914 32.9071 28.4018 32.9071C28.0159 32.9071 27.9961 32.9268 27.9961 33.3023V36.83C27.9961 37.1659 28.0159 37.1956 28.3722 37.1956C29.807 37.1956 31.2418 37.2153 32.6765 37.1956C33.9134 37.1758 34.8931 36.6323 35.7341 35.8221C36.4169 35.1699 37.1096 34.5276 37.8121 33.8952C37.9704 33.747 38.1881 33.6284 38.4058 33.5691C40.2166 33.0652 42.0373 32.5711 43.8581 32.077C45.9756 31.5039 48.0833 30.9308 50.2008 30.3577C50.2899 30.3379 50.3789 30.2984 50.468 30.2984C50.6758 30.2786 50.8242 30.3676 50.8242 30.5751C50.8242 31.3853 50.844 32.1956 50.8242 32.996C50.8242 33.1245 50.6461 33.3023 50.4977 33.3814C50.0227 33.6383 49.5181 33.8557 49.0332 34.1126C48.5385 34.3794 48.0437 34.6561 47.5687 34.9426C46.5396 35.575 45.7975 36.4644 45.1444 37.4327C44.1846 38.8458 43.2347 40.2687 42.2352 41.6619C41.2457 43.0354 40.0583 44.241 38.4949 45.0611C37.6142 45.5157 36.6643 45.7726 35.6451 45.7726H24.8693V45.7824Z" stroke="#00C9B8" stroke-miterlimit="10" mask="url(#path-17-outside-8_0_1)"/>
</g>
<g id="Vector_18">
<mask id="path-18-outside-9_0_1" maskUnits="userSpaceOnUse" x="2.9231" y="10.9092" width="16" height="18" fill="black">
<rect fill="white" x="2.9231" y="10.9092" width="16" height="18"/>
<path d="M9.66045 28.1838H4.34677C3.93117 28.164 3.81243 27.9467 4.03012 27.6305C5.72219 25.1404 7.42415 22.6601 9.11622 20.17C10.838 17.6503 12.5498 15.1207 14.2716 12.6009C14.3804 12.4428 14.4794 12.2847 14.5981 12.1365C14.8257 11.8302 15.0434 11.8302 15.2314 12.1563C15.3897 12.4231 15.5283 12.6997 15.6569 12.9863C16.3694 14.6068 17.0125 16.257 17.4677 17.9665C17.8734 19.4882 18.1208 21.0297 17.8734 22.5811C17.7448 23.4012 17.4677 24.2313 17.1115 24.9921C16.6365 26.0099 16.0131 26.9684 15.459 27.9565C15.3304 28.1838 15.1325 28.1838 14.9049 28.1838H9.65056H9.66045Z"/>
</mask>
<path d="M9.66045 28.1838H4.34677C3.93117 28.164 3.81243 27.9467 4.03012 27.6305C5.72219 25.1404 7.42415 22.6601 9.11622 20.17C10.838 17.6503 12.5498 15.1207 14.2716 12.6009C14.3804 12.4428 14.4794 12.2847 14.5981 12.1365C14.8257 11.8302 15.0434 11.8302 15.2314 12.1563C15.3897 12.4231 15.5283 12.6997 15.6569 12.9863C16.3694 14.6068 17.0125 16.257 17.4677 17.9665C17.8734 19.4882 18.1208 21.0297 17.8734 22.5811C17.7448 23.4012 17.4677 24.2313 17.1115 24.9921C16.6365 26.0099 16.0131 26.9684 15.459 27.9565C15.3304 28.1838 15.1325 28.1838 14.9049 28.1838H9.65056H9.66045Z" fill="#99E9E3"/>
<path d="M9.66045 28.1838H4.34677C3.93117 28.164 3.81243 27.9467 4.03012 27.6305C5.72219 25.1404 7.42415 22.6601 9.11622 20.17C10.838 17.6503 12.5498 15.1207 14.2716 12.6009C14.3804 12.4428 14.4794 12.2847 14.5981 12.1365C14.8257 11.8302 15.0434 11.8302 15.2314 12.1563C15.3897 12.4231 15.5283 12.6997 15.6569 12.9863C16.3694 14.6068 17.0125 16.257 17.4677 17.9665C17.8734 19.4882 18.1208 21.0297 17.8734 22.5811C17.7448 23.4012 17.4677 24.2313 17.1115 24.9921C16.6365 26.0099 16.0131 26.9684 15.459 27.9565C15.3304 28.1838 15.1325 28.1838 14.9049 28.1838H9.65056H9.66045Z" stroke="#00C9B8" stroke-miterlimit="10" mask="url(#path-18-outside-9_0_1)"/>
</g>
</g>
</g>
</svg>
