<svg width="198" height="77" viewBox="0 0 198 77" fill="none" xmlns="http://www.w3.org/2000/svg">
<g id="GAME CENTER">
<g id="Group">
<path id="Vector" d="M81.4058 31.464V3.53938C81.4058 2.76864 82.039 2.13623 82.8109 2.13623H97.6338C99.6524 2.13623 101.453 2.57101 103.017 3.43069C104.58 4.29036 105.827 5.47612 106.727 6.9682C107.638 8.46029 108.093 10.1698 108.093 12.1065C108.093 14.0432 107.638 15.6144 106.727 17.0867C105.817 18.5689 104.57 19.725 102.987 20.5748C101.404 21.4246 99.6128 21.8495 97.6239 21.8495H90.3708C89.5989 21.8495 88.9657 22.4819 88.9657 23.2527V31.464C88.9657 32.2348 88.3323 32.8672 87.5605 32.8672H82.8109C82.039 32.8672 81.4058 32.2348 81.4058 31.464ZM88.9657 14.2112C88.9657 14.982 89.5989 15.6144 90.3708 15.6144H96.7432C97.8614 15.6144 98.752 15.2883 99.4248 14.646C100.098 14.0037 100.434 13.1638 100.434 12.146C100.434 11.1282 100.098 10.2389 99.4248 9.57688C98.752 8.91483 97.8614 8.58874 96.7432 8.58874H90.3708C89.5989 8.58874 88.9657 9.22115 88.9657 9.99189V14.2112Z" fill="#FF6383" stroke="#FF6383" stroke-miterlimit="10"/>
<path id="Vector_2" d="M111.962 31.464V3.53938C111.962 2.76864 112.595 2.13623 113.367 2.13623H118.117C118.889 2.13623 119.522 2.76864 119.522 3.53938V24.7941C119.522 25.5649 120.155 26.1973 120.927 26.1973H134.335C135.107 26.1973 135.74 26.8297 135.74 27.6004V31.464C135.74 32.2348 135.107 32.8672 134.335 32.8672H113.357C112.585 32.8672 111.952 32.2348 111.952 31.464H111.962Z" fill="#FF6383" stroke="#FF6383" stroke-miterlimit="10"/>
<path id="Vector_3" d="M138.352 30.9304L149.821 3.00579C150.038 2.48208 150.553 2.13623 151.117 2.13623H157.885C158.459 2.13623 158.974 2.48208 159.191 3.01567L170.502 30.9403C170.878 31.8593 170.195 32.8672 169.195 32.8672H164.07C163.486 32.8672 162.961 32.5016 162.754 31.9581L160.626 26.3554C160.418 25.8119 159.894 25.4463 159.31 25.4463H149.247C148.663 25.4463 148.139 25.802 147.931 26.3455L145.764 31.968C145.556 32.5115 145.031 32.8672 144.448 32.8672H139.639C138.639 32.8672 137.956 31.8494 138.342 30.9304H138.352ZM152.621 19.4286H156.025C157.005 19.4286 157.687 18.4503 157.341 17.5314L155.659 13.0551C155.204 11.8496 153.492 11.8397 153.027 13.0452L151.305 17.5215C150.949 18.4404 151.632 19.4286 152.621 19.4286Z" fill="#FF6383" stroke="#FF6383" stroke-miterlimit="10"/>
<path id="Vector_4" d="M177.567 31.464V21.8297C177.567 21.5531 177.488 21.2863 177.329 21.059L166.257 4.31013C165.643 3.38128 166.306 2.13623 167.434 2.13623H172.758C173.243 2.13623 173.688 2.38326 173.945 2.7884L180.397 12.8871C180.951 13.7468 182.208 13.7567 182.762 12.8871L189.253 2.77852C189.51 2.37338 189.956 2.13623 190.44 2.13623H195.279C196.397 2.13623 197.07 3.38128 196.457 4.31013L185.384 21.059C185.236 21.2863 185.146 21.5531 185.146 21.8297V31.464C185.146 32.2348 184.513 32.8672 183.741 32.8672H178.992C178.22 32.8672 177.587 32.2348 177.587 31.464H177.567Z" fill="#FF6383" stroke="#FF6383" stroke-miterlimit="10"/>
<path id="Vector_5" d="M78.4175 71.6319V43.7072C78.4175 42.9365 79.0508 42.3041 79.8226 42.3041H84.8592C85.2946 42.3041 85.7003 42.5017 85.9675 42.8377L97.0105 56.9186C97.8318 57.966 99.5238 57.383 99.5238 56.049V43.6973C99.5238 42.9266 100.157 42.2942 100.929 42.2942H105.243C106.015 42.2942 106.648 42.9266 106.648 43.6973V71.622C106.648 72.3927 106.015 73.0251 105.243 73.0251H100.652C100.217 73.0251 99.8108 72.8275 99.5436 72.4817L88.0652 57.7288C87.2439 56.6715 85.5519 57.2545 85.5519 58.5885V71.622C85.5519 72.3927 84.9186 73.0251 84.1468 73.0251H79.8325C79.0607 73.0251 78.4274 72.3927 78.4274 71.622H78.4175V71.6319Z" fill="#FF6383" stroke="#FF6383" stroke-miterlimit="10"/>
<path id="Vector_6" d="M127.101 73.5191C124.786 73.5191 122.629 73.114 120.64 72.3136C118.651 71.5132 116.9 70.3769 115.405 68.9342C113.911 67.4817 112.744 65.8018 111.912 63.8848C111.081 61.9679 110.656 59.8928 110.656 57.6695C110.656 55.4462 111.071 53.3711 111.912 51.4541C112.744 49.5371 113.911 47.8573 115.405 46.4048C116.9 44.9522 118.641 43.8257 120.64 43.0253C122.629 42.225 124.786 41.8198 127.101 41.8198C129.417 41.8198 131.574 42.225 133.563 43.0253C135.552 43.8356 137.303 44.9621 138.798 46.4048C140.292 47.8573 141.459 49.5371 142.29 51.4541C143.122 53.3711 143.547 55.4462 143.547 57.6695C143.547 59.8928 143.132 61.9679 142.29 63.8848C141.459 65.8018 140.292 67.4817 138.798 68.9342C137.303 70.3868 135.562 71.5132 133.563 72.3136C131.574 73.114 129.417 73.5191 127.101 73.5191ZM127.101 66.5825C128.328 66.5825 129.476 66.3552 130.535 65.9006C131.594 65.4461 132.504 64.8236 133.286 64.0331C134.058 63.2426 134.671 62.2939 135.107 61.1971C135.542 60.1003 135.77 58.9244 135.77 57.6596C135.77 56.3948 135.552 55.1893 135.107 54.1023C134.671 53.0154 134.058 52.0865 133.286 51.296C132.504 50.5055 131.594 49.883 130.535 49.4285C129.476 48.9739 128.338 48.7466 127.101 48.7466C125.865 48.7466 124.727 48.9739 123.668 49.4285C122.609 49.883 121.699 50.5055 120.917 51.296C120.135 52.0865 119.532 53.0253 119.096 54.1023C118.661 55.1893 118.433 56.3553 118.433 57.6102C118.433 58.8651 118.651 60.0904 119.096 61.1872C119.532 62.2841 120.145 63.2327 120.917 64.0232C121.689 64.8137 122.609 65.4362 123.668 65.8908C124.727 66.3453 125.865 66.5726 127.101 66.5726V66.5825Z" fill="#FF6383" stroke="#FF6383" stroke-miterlimit="10"/>
<path id="Vector_7" d="M151.958 71.9381L145.724 44.0134C145.526 43.134 146.199 42.304 147.1 42.304H151.968C152.641 42.304 153.215 42.7783 153.343 43.4403L155.718 55.5153C156.005 56.9679 158.054 57.0469 158.449 55.624L161.923 43.3316C162.091 42.7289 162.645 42.3138 163.278 42.3138H168.226C168.859 42.3138 169.403 42.7289 169.581 43.3316L173.055 55.624C173.46 57.0469 175.499 56.9679 175.786 55.5153L178.16 43.4403C178.289 42.7783 178.873 42.304 179.536 42.304H184.147C185.047 42.304 185.72 43.134 185.522 44.0134L179.288 71.9381C179.15 72.5804 178.576 73.0349 177.913 73.0349H172.105C171.471 73.0349 170.917 72.61 170.749 72.0073L166.979 58.3414C166.603 56.9679 164.654 56.9679 164.268 58.3414L160.458 72.0073C160.29 72.61 159.736 73.0349 159.102 73.0349H153.294C152.631 73.0349 152.067 72.5804 151.919 71.9381H151.958Z" fill="#FF6383" stroke="#FF6383" stroke-miterlimit="10"/>
<path id="Vector_8" d="M192.597 73.5191C191.479 73.5191 190.519 73.1139 189.718 72.3135C188.907 71.5132 188.511 70.5547 188.511 69.4381C188.511 68.3215 188.916 67.363 189.718 66.5626C190.519 65.7622 191.479 65.3571 192.597 65.3571C193.716 65.3571 194.675 65.7622 195.477 66.5626C196.278 67.3729 196.684 68.3314 196.684 69.4381C196.684 70.5448 196.278 71.5132 195.477 72.3135C194.665 73.1139 193.706 73.5191 192.597 73.5191ZM189.817 62.2049L189.055 43.5391C189.025 42.7387 189.659 42.0767 190.46 42.0767H194.745C195.546 42.0767 196.18 42.7387 196.15 43.5391L195.388 62.2049C195.358 62.9559 194.735 63.5488 193.983 63.5488H191.232C190.48 63.5488 189.856 62.9559 189.827 62.2049H189.817Z" fill="#FF6383" stroke="#FF6383" stroke-miterlimit="10"/>
<path id="Vector_9" d="M31.6134 1.01976C31.0791 1.18775 30.4854 1.27668 30.0104 1.55336C29.2584 1.98814 28.5954 2.57113 27.8731 3.05532C26.7252 3.82606 25.5378 4.5474 24.3999 5.31815C23.2619 6.08889 22.1636 6.90904 21.0355 7.68967C20.0559 8.37148 19.0466 9.01377 18.067 9.70546C17.2061 10.3082 16.3848 10.9604 15.5239 11.5632C14.3365 12.3932 13.1392 13.2035 11.932 14.0137C11.081 14.5967 10.2103 15.1501 9.37907 15.743C8.65672 16.2568 7.94422 16.7904 7.28124 17.3635C6.62816 17.9267 5.86628 18.4603 5.47047 19.1817C4.66897 20.6342 5.4012 22.4721 6.50945 23.3417C7.91456 24.4385 9.45823 25.3476 10.9227 26.3555C11.8825 27.0176 12.7632 27.8278 13.7824 28.3417C14.4354 28.6677 15.326 28.7764 16.0484 28.6381C16.7707 28.4998 17.4337 27.9563 18.0967 27.561C19.0268 26.9978 19.9569 26.4247 20.8475 25.7923C22.0448 24.9524 23.1828 24.0433 24.3801 23.2034C25.2805 22.571 26.2304 22.0176 27.1507 21.4148C28.2194 20.7133 29.2386 19.9425 30.337 19.3002C31.3463 18.7172 32.4149 18.9643 33.3846 19.4583C33.9289 19.735 34.394 20.1303 34.9085 20.4662C35.621 20.9307 36.3532 21.3654 37.0458 21.8496C37.877 22.4326 38.6687 23.065 39.4999 23.648C40.242 24.1717 41.0138 24.6362 41.7559 25.15C42.6366 25.7626 43.4678 26.4543 44.3683 27.0274C45.239 27.5808 46.1197 28.2231 47.0894 28.48C47.881 28.6974 48.8804 28.5788 49.672 28.2923C50.4538 28.0057 51.0673 27.2942 51.7797 26.8101C52.6703 26.1974 53.6202 25.6441 54.5009 25.0117C55.4211 24.3496 56.3314 23.6579 57.1923 22.9168C58.1818 22.0769 58.4787 20.3674 57.9246 19.1619C57.321 17.8279 56.0346 17.2548 54.9659 16.4347C54.0655 15.7331 53.0958 15.1204 52.1458 14.4683C50.8298 13.5691 49.5236 12.6699 48.1977 11.7805C47.4456 11.2766 46.6639 10.8023 45.9218 10.2786C45.0708 9.67582 44.2495 9.01377 43.3887 8.42089C42.3892 7.72919 41.3403 7.10667 40.3409 6.41498C39.203 5.63435 38.0947 4.8142 36.9667 4.02369C36.1454 3.44069 35.2845 2.89722 34.483 2.28458C33.632 1.63241 32.7711 1.05929 31.5936 1L31.6134 1.01976Z" fill="#FF6383" stroke="#FF6383" stroke-miterlimit="10"/>
<path id="Vector_10" d="M19.1951 39.883H19.1852C19.1852 41.1874 19.2149 42.4917 19.1852 43.796C19.1456 45.1893 19.8284 46.2565 20.7387 47.1359C21.4808 47.8375 22.4407 48.3019 23.2917 48.8948C24.2812 49.5964 25.241 50.3474 26.2305 51.0489C26.8638 51.4936 27.4971 51.9481 28.1799 52.3138C29.1001 52.8078 30.0204 53.4205 31.0099 53.6379C32.5634 53.9936 33.919 53.2327 35.1757 52.3533C35.8782 51.8592 36.5313 51.3059 37.2339 50.8217C38.2333 50.13 39.2822 49.4976 40.2816 48.8059C40.905 48.3711 41.4591 47.8276 42.1023 47.4324C43.3689 46.6419 44.0813 45.3474 44.111 44.0431C44.1803 40.7822 44.6157 37.472 43.6855 34.2606C43.5173 33.6677 43.0918 33.055 42.6169 32.6697C41.5977 31.8495 40.4597 31.1776 39.3811 30.4167C38.2729 29.6361 37.224 28.7764 36.0861 28.0551C35.0372 27.4029 33.8894 26.9088 32.8108 26.316C31.6729 25.6835 29.6245 26.4148 28.8131 26.9681C27.9918 27.5314 27.22 28.1638 26.3889 28.727C25.4884 29.3396 24.5384 29.893 23.6281 30.5056C22.8464 31.0294 22.1042 31.6222 21.3225 32.1459C20.145 32.9463 19.3633 34.0432 19.2346 35.4265C19.0961 36.8989 19.205 38.391 19.205 39.8732L19.1951 39.883Z" fill="#FF6383" stroke="#FF6383" stroke-miterlimit="10"/>
<path id="Vector_11" d="M62.3776 40.8516C62.3776 37.9069 62.3677 34.9623 62.3776 32.0176C62.3776 31.1382 62.2885 30.3477 61.675 29.6264C60.5766 28.3418 59.4288 27.5118 57.4498 28.3023C56.5394 28.6679 55.7182 29.2509 54.8969 29.8042C53.7886 30.5552 52.7199 31.3753 51.6216 32.156C50.6815 32.8279 50.0878 33.7568 50.068 34.8832C50.0087 39.2409 50.0482 43.5986 49.9789 47.9562C49.9789 48.5096 49.6029 49.1618 49.1873 49.5669C48.5244 50.2092 47.6833 50.6835 46.9214 51.2368C46.3672 51.642 45.8428 52.0965 45.2788 52.4819C44.4673 53.0352 43.6065 53.5194 42.805 54.0728C42.0826 54.5668 41.4197 55.14 40.7072 55.6439C39.787 56.2862 38.837 56.8988 37.9168 57.5312C37.1944 58.0253 36.4424 58.4799 35.7893 59.0629C35.1363 59.6459 34.3743 60.2585 34.0675 61.0194C33.7311 61.8593 33.8004 62.8869 33.7806 63.8355C33.7608 64.9027 33.7015 65.9304 34.4238 66.9383C35.0076 67.7387 35.7101 68.2426 36.5512 68.4402C37.6595 68.6972 38.7974 68.5687 39.7771 67.8276C40.4598 67.3138 41.1525 66.8098 41.855 66.3158C42.6268 65.7723 43.4086 65.2387 44.1804 64.6952C44.8731 64.2011 45.546 63.6774 46.2386 63.1933C46.8323 62.7782 47.4656 62.4126 48.0593 61.9976C48.7519 61.5134 49.4248 60.9996 50.1274 60.5154C50.9289 59.9621 51.77 59.4581 52.5715 58.8949C53.6203 58.1538 54.6297 57.3633 55.6786 56.6321C56.3415 56.1676 57.054 55.7724 57.7269 55.3079C58.6768 54.6459 59.5673 53.8752 60.5469 53.2625C61.7245 52.5313 62.3677 51.5333 62.3776 50.1598C62.3974 47.057 62.3776 43.9543 62.3776 40.8614V40.8516Z" fill="#FF6383" stroke="#FF6383" stroke-miterlimit="10"/>
<path id="Vector_12" d="M1.01768 40.8216C1.01768 43.954 0.958284 47.0963 1.05724 50.2188C1.08692 50.9994 1.45306 51.9579 2.00719 52.4816C3.15503 53.5784 4.51063 54.4579 5.80689 55.3867C6.83598 56.1179 7.9047 56.7899 8.94369 57.5013C9.77488 58.0843 10.5764 58.7069 11.4175 59.2899C12.2882 59.8926 13.1986 60.4361 14.0694 61.0388C15.049 61.7207 15.989 62.4618 16.9785 63.1534C17.6118 63.5981 18.2946 63.9637 18.918 64.4084C19.67 64.942 20.3923 65.525 21.1345 66.0684C21.7875 66.5526 22.4703 66.9973 23.1135 67.4914C24.004 68.1633 24.9639 68.6475 26.1117 68.4894C26.6164 68.4202 27.0914 68.1633 27.596 68.0348C28.6152 67.768 29.1792 66.9281 29.3078 66.0882C29.5255 64.6851 29.3969 63.2325 29.4167 61.8096C29.4365 60.4855 28.5657 59.7444 27.6158 59.0626C26.4977 58.2523 25.3795 57.442 24.2514 56.6614C23.1828 55.9203 22.0844 55.1891 21.0059 54.4678C20.2143 53.944 19.4028 53.45 18.631 52.9065C17.4436 52.0765 16.3057 51.1773 15.1083 50.3769C13.7824 49.4876 13.1788 48.2722 13.1788 46.701V35.1102C13.1788 34.6754 13.0304 34.2407 12.9413 33.8059C12.6939 32.6102 11.6253 32.1458 10.804 31.4936C9.7452 30.6537 8.57754 29.9522 7.48908 29.1616C6.45009 28.4107 5.35175 27.8376 4.04559 28.0846C3.55083 28.1735 3.10557 28.5292 2.64049 28.7565C1.58171 29.2802 1.06713 30.1893 1.05724 31.3059C1.01765 34.4877 1.04733 37.6695 1.04733 40.8414L1.01768 40.8216Z" fill="#FF6383" stroke="#FF6383" stroke-miterlimit="10"/>
<g id="Group 68">
<g id="Vector_13">
<mask id="path-13-outside-1_0_1" maskUnits="userSpaceOnUse" x="80.4058" y="3.9668" width="29" height="33" fill="black">
<rect fill="white" x="80.4058" y="3.9668" width="29" height="33"/>
<path d="M81.4058 34.2946V6.36995C81.4058 5.5992 82.039 4.9668 82.8109 4.9668H97.6338C99.6524 4.9668 101.453 5.40158 103.017 6.26125C104.58 7.12093 105.827 8.30669 106.727 9.79877C107.638 11.2909 108.093 13.0003 108.093 14.9371C108.093 16.8738 107.638 18.4449 106.727 19.9173C105.817 21.3995 104.57 22.5556 102.987 23.4054C101.404 24.2552 99.6128 24.6801 97.6239 24.6801H90.3708C89.5989 24.6801 88.9657 25.3125 88.9657 26.0832V34.2946C88.9657 35.0654 88.3323 35.6978 87.5605 35.6978H82.8109C82.039 35.6978 81.4058 35.0654 81.4058 34.2946ZM88.9657 17.0418C88.9657 17.8125 89.5989 18.4449 90.3708 18.4449H96.7432C97.8614 18.4449 98.752 18.1189 99.4248 17.4766C100.098 16.8343 100.434 15.9944 100.434 14.9766C100.434 13.9588 100.098 13.0695 99.4248 12.4074C98.752 11.7454 97.8614 11.4193 96.7432 11.4193H90.3708C89.5989 11.4193 88.9657 12.0517 88.9657 12.8225V17.0418Z"/>
</mask>
<path d="M81.4058 34.2946V6.36995C81.4058 5.5992 82.039 4.9668 82.8109 4.9668H97.6338C99.6524 4.9668 101.453 5.40158 103.017 6.26125C104.58 7.12093 105.827 8.30669 106.727 9.79877C107.638 11.2909 108.093 13.0003 108.093 14.9371C108.093 16.8738 107.638 18.4449 106.727 19.9173C105.817 21.3995 104.57 22.5556 102.987 23.4054C101.404 24.2552 99.6128 24.6801 97.6239 24.6801H90.3708C89.5989 24.6801 88.9657 25.3125 88.9657 26.0832V34.2946C88.9657 35.0654 88.3323 35.6978 87.5605 35.6978H82.8109C82.039 35.6978 81.4058 35.0654 81.4058 34.2946ZM88.9657 17.0418C88.9657 17.8125 89.5989 18.4449 90.3708 18.4449H96.7432C97.8614 18.4449 98.752 18.1189 99.4248 17.4766C100.098 16.8343 100.434 15.9944 100.434 14.9766C100.434 13.9588 100.098 13.0695 99.4248 12.4074C98.752 11.7454 97.8614 11.4193 96.7432 11.4193H90.3708C89.5989 11.4193 88.9657 12.0517 88.9657 12.8225V17.0418Z" fill="#FFC1CD"/>
<path d="M81.4058 34.2946V6.36995C81.4058 5.5992 82.039 4.9668 82.8109 4.9668H97.6338C99.6524 4.9668 101.453 5.40158 103.017 6.26125C104.58 7.12093 105.827 8.30669 106.727 9.79877C107.638 11.2909 108.093 13.0003 108.093 14.9371C108.093 16.8738 107.638 18.4449 106.727 19.9173C105.817 21.3995 104.57 22.5556 102.987 23.4054C101.404 24.2552 99.6128 24.6801 97.6239 24.6801H90.3708C89.5989 24.6801 88.9657 25.3125 88.9657 26.0832V34.2946C88.9657 35.0654 88.3323 35.6978 87.5605 35.6978H82.8109C82.039 35.6978 81.4058 35.0654 81.4058 34.2946ZM88.9657 17.0418C88.9657 17.8125 89.5989 18.4449 90.3708 18.4449H96.7432C97.8614 18.4449 98.752 18.1189 99.4248 17.4766C100.098 16.8343 100.434 15.9944 100.434 14.9766C100.434 13.9588 100.098 13.0695 99.4248 12.4074C98.752 11.7454 97.8614 11.4193 96.7432 11.4193H90.3708C89.5989 11.4193 88.9657 12.0517 88.9657 12.8225V17.0418Z" stroke="#FF6383" stroke-miterlimit="10" mask="url(#path-13-outside-1_0_1)"/>
</g>
<g id="Vector_14">
<mask id="path-14-outside-2_0_1" maskUnits="userSpaceOnUse" x="110.952" y="3.9668" width="26" height="33" fill="black">
<rect fill="white" x="110.952" y="3.9668" width="26" height="33"/>
<path d="M111.962 34.2946V6.36995C111.962 5.5992 112.595 4.9668 113.367 4.9668H118.117C118.889 4.9668 119.522 5.5992 119.522 6.36995V27.6247C119.522 28.3954 120.155 29.0279 120.927 29.0279H134.335C135.107 29.0279 135.74 29.6603 135.74 30.431V34.2946C135.74 35.0654 135.107 35.6978 134.335 35.6978H113.357C112.585 35.6978 111.952 35.0654 111.952 34.2946H111.962Z"/>
</mask>
<path d="M111.962 34.2946V6.36995C111.962 5.5992 112.595 4.9668 113.367 4.9668H118.117C118.889 4.9668 119.522 5.5992 119.522 6.36995V27.6247C119.522 28.3954 120.155 29.0279 120.927 29.0279H134.335C135.107 29.0279 135.74 29.6603 135.74 30.431V34.2946C135.74 35.0654 135.107 35.6978 134.335 35.6978H113.357C112.585 35.6978 111.952 35.0654 111.952 34.2946H111.962Z" fill="#FFC1CD"/>
<path d="M111.962 34.2946V6.36995C111.962 5.5992 112.595 4.9668 113.367 4.9668H118.117C118.889 4.9668 119.522 5.5992 119.522 6.36995V27.6247C119.522 28.3954 120.155 29.0279 120.927 29.0279H134.335C135.107 29.0279 135.74 29.6603 135.74 30.431V34.2946C135.74 35.0654 135.107 35.6978 134.335 35.6978H113.357C112.585 35.6978 111.952 35.0654 111.952 34.2946H111.962Z" stroke="#FF6383" stroke-miterlimit="10" mask="url(#path-14-outside-2_0_1)"/>
</g>
<g id="Vector_15">
<mask id="path-15-outside-3_0_1" maskUnits="userSpaceOnUse" x="137.233" y="3.97656" width="34" height="33" fill="black">
<rect fill="white" x="137.233" y="3.97656" width="34" height="33"/>
<path d="M138.352 33.7708L149.821 5.84612C150.038 5.32241 150.553 4.97656 151.117 4.97656H157.885C158.459 4.97656 158.974 5.32241 159.191 5.856L170.502 33.7807C170.878 34.6996 170.195 35.7075 169.195 35.7075H164.07C163.486 35.7075 162.961 35.3419 162.754 34.7984L160.626 29.1957C160.418 28.6522 159.894 28.2866 159.31 28.2866H149.247C148.663 28.2866 148.139 28.6424 147.931 29.1858L145.764 34.8083C145.556 35.3518 145.031 35.7075 144.448 35.7075H139.639C138.639 35.7075 137.956 34.6897 138.342 33.7708H138.352ZM152.621 22.2689H156.025C157.005 22.2689 157.687 21.2906 157.341 20.3717L155.659 15.8954C155.204 14.6899 153.492 14.68 153.027 15.8856L151.305 20.3618C150.949 21.2808 151.632 22.2689 152.621 22.2689Z"/>
</mask>
<path d="M138.352 33.7708L149.821 5.84612C150.038 5.32241 150.553 4.97656 151.117 4.97656H157.885C158.459 4.97656 158.974 5.32241 159.191 5.856L170.502 33.7807C170.878 34.6996 170.195 35.7075 169.195 35.7075H164.07C163.486 35.7075 162.961 35.3419 162.754 34.7984L160.626 29.1957C160.418 28.6522 159.894 28.2866 159.31 28.2866H149.247C148.663 28.2866 148.139 28.6424 147.931 29.1858L145.764 34.8083C145.556 35.3518 145.031 35.7075 144.448 35.7075H139.639C138.639 35.7075 137.956 34.6897 138.342 33.7708H138.352ZM152.621 22.2689H156.025C157.005 22.2689 157.687 21.2906 157.341 20.3717L155.659 15.8954C155.204 14.6899 153.492 14.68 153.027 15.8856L151.305 20.3618C150.949 21.2808 151.632 22.2689 152.621 22.2689Z" fill="#FFC1CD"/>
<path d="M138.352 33.7708L149.821 5.84612C150.038 5.32241 150.553 4.97656 151.117 4.97656H157.885C158.459 4.97656 158.974 5.32241 159.191 5.856L170.502 33.7807C170.878 34.6996 170.195 35.7075 169.195 35.7075H164.07C163.486 35.7075 162.961 35.3419 162.754 34.7984L160.626 29.1957C160.418 28.6522 159.894 28.2866 159.31 28.2866H149.247C148.663 28.2866 148.139 28.6424 147.931 29.1858L145.764 34.8083C145.556 35.3518 145.031 35.7075 144.448 35.7075H139.639C138.639 35.7075 137.956 34.6897 138.342 33.7708H138.352ZM152.621 22.2689H156.025C157.005 22.2689 157.687 21.2906 157.341 20.3717L155.659 15.8954C155.204 14.6899 153.492 14.68 153.027 15.8856L151.305 20.3618C150.949 21.2808 151.632 22.2689 152.621 22.2689Z" stroke="#FF6383" stroke-miterlimit="10" mask="url(#path-15-outside-3_0_1)"/>
</g>
<g id="Vector_16">
<mask id="path-16-outside-4_0_1" maskUnits="userSpaceOnUse" x="165.023" y="3.9668" width="33" height="33" fill="black">
<rect fill="white" x="165.023" y="3.9668" width="33" height="33"/>
<path d="M177.567 34.2946V24.6603C177.567 24.3836 177.488 24.1168 177.329 23.8896L166.257 7.14069C165.643 6.21185 166.306 4.9668 167.434 4.9668H172.758C173.243 4.9668 173.688 5.21383 173.945 5.61896L180.397 15.7177C180.951 16.5774 182.208 16.5873 182.762 15.7177L189.253 5.60909C189.51 5.20395 189.956 4.9668 190.44 4.9668H195.279C196.397 4.9668 197.07 6.21185 196.457 7.14069L185.384 23.8896C185.236 24.1168 185.146 24.3836 185.146 24.6603V34.2946C185.146 35.0654 184.513 35.6978 183.741 35.6978H178.992C178.22 35.6978 177.587 35.0654 177.587 34.2946H177.567Z"/>
</mask>
<path d="M177.567 34.2946V24.6603C177.567 24.3836 177.488 24.1168 177.329 23.8896L166.257 7.14069C165.643 6.21185 166.306 4.9668 167.434 4.9668H172.758C173.243 4.9668 173.688 5.21383 173.945 5.61896L180.397 15.7177C180.951 16.5774 182.208 16.5873 182.762 15.7177L189.253 5.60909C189.51 5.20395 189.956 4.9668 190.44 4.9668H195.279C196.397 4.9668 197.07 6.21185 196.457 7.14069L185.384 23.8896C185.236 24.1168 185.146 24.3836 185.146 24.6603V34.2946C185.146 35.0654 184.513 35.6978 183.741 35.6978H178.992C178.22 35.6978 177.587 35.0654 177.587 34.2946H177.567Z" fill="#FFC1CD"/>
<path d="M177.567 34.2946V24.6603C177.567 24.3836 177.488 24.1168 177.329 23.8896L166.257 7.14069C165.643 6.21185 166.306 4.9668 167.434 4.9668H172.758C173.243 4.9668 173.688 5.21383 173.945 5.61896L180.397 15.7177C180.951 16.5774 182.208 16.5873 182.762 15.7177L189.253 5.60909C189.51 5.20395 189.956 4.9668 190.44 4.9668H195.279C196.397 4.9668 197.07 6.21185 196.457 7.14069L185.384 23.8896C185.236 24.1168 185.146 24.3836 185.146 24.6603V34.2946C185.146 35.0654 184.513 35.6978 183.741 35.6978H178.992C178.22 35.6978 177.587 35.0654 177.587 34.2946H177.567Z" stroke="#FF6383" stroke-miterlimit="10" mask="url(#path-16-outside-4_0_1)"/>
</g>
<g id="Vector_17">
<mask id="path-17-outside-5_0_1" maskUnits="userSpaceOnUse" x="77.4175" y="44.1343" width="30" height="33" fill="black">
<rect fill="white" x="77.4175" y="44.1343" width="30" height="33"/>
<path d="M78.4175 74.472V46.5473C78.4175 45.7766 79.0508 45.1442 79.8226 45.1442H84.8592C85.2946 45.1442 85.7003 45.3418 85.9675 45.6778L97.0105 59.7587C97.8318 60.8061 99.5238 60.2231 99.5238 58.8891V46.5374C99.5238 45.7667 100.157 45.1343 100.929 45.1343H105.243C106.015 45.1343 106.648 45.7667 106.648 46.5374V74.4621C106.648 75.2328 106.015 75.8652 105.243 75.8652H100.652C100.217 75.8652 99.8108 75.6676 99.5436 75.3218L88.0652 60.5689C87.2439 59.5116 85.5519 60.0946 85.5519 61.4286V74.4621C85.5519 75.2328 84.9186 75.8652 84.1468 75.8652H79.8325C79.0607 75.8652 78.4274 75.2328 78.4274 74.4621H78.4175V74.472Z"/>
</mask>
<path d="M78.4175 74.472V46.5473C78.4175 45.7766 79.0508 45.1442 79.8226 45.1442H84.8592C85.2946 45.1442 85.7003 45.3418 85.9675 45.6778L97.0105 59.7587C97.8318 60.8061 99.5238 60.2231 99.5238 58.8891V46.5374C99.5238 45.7667 100.157 45.1343 100.929 45.1343H105.243C106.015 45.1343 106.648 45.7667 106.648 46.5374V74.4621C106.648 75.2328 106.015 75.8652 105.243 75.8652H100.652C100.217 75.8652 99.8108 75.6676 99.5436 75.3218L88.0652 60.5689C87.2439 59.5116 85.5519 60.0946 85.5519 61.4286V74.4621C85.5519 75.2328 84.9186 75.8652 84.1468 75.8652H79.8325C79.0607 75.8652 78.4274 75.2328 78.4274 74.4621H78.4175V74.472Z" fill="#FFC1CD"/>
<path d="M78.4175 74.472V46.5473C78.4175 45.7766 79.0508 45.1442 79.8226 45.1442H84.8592C85.2946 45.1442 85.7003 45.3418 85.9675 45.6778L97.0105 59.7587C97.8318 60.8061 99.5238 60.2231 99.5238 58.8891V46.5374C99.5238 45.7667 100.157 45.1343 100.929 45.1343H105.243C106.015 45.1343 106.648 45.7667 106.648 46.5374V74.4621C106.648 75.2328 106.015 75.8652 105.243 75.8652H100.652C100.217 75.8652 99.8108 75.6676 99.5436 75.3218L88.0652 60.5689C87.2439 59.5116 85.5519 60.0946 85.5519 61.4286V74.4621C85.5519 75.2328 84.9186 75.8652 84.1468 75.8652H79.8325C79.0607 75.8652 78.4274 75.2328 78.4274 74.4621H78.4175V74.472Z" stroke="#FF6383" stroke-miterlimit="10" mask="url(#path-17-outside-5_0_1)"/>
</g>
<g id="Vector_18">
<mask id="path-18-outside-6_0_1" maskUnits="userSpaceOnUse" x="109.656" y="43.6602" width="35" height="34" fill="black">
<rect fill="white" x="109.656" y="43.6602" width="35" height="34"/>
<path d="M127.101 76.3595C124.786 76.3595 122.629 75.9544 120.64 75.154C118.651 74.3536 116.9 73.2172 115.405 71.7745C113.911 70.322 112.744 68.6422 111.912 66.7252C111.081 64.8082 110.656 62.7331 110.656 60.5098C110.656 58.2865 111.071 56.2114 111.912 54.2945C112.744 52.3775 113.911 50.6977 115.405 49.2451C116.9 47.7925 118.641 46.6661 120.64 45.8657C122.629 45.0653 124.786 44.6602 127.101 44.6602C129.417 44.6602 131.574 45.0653 133.563 45.8657C135.552 46.676 137.303 47.8024 138.798 49.2451C140.292 50.6977 141.459 52.3775 142.29 54.2945C143.122 56.2114 143.547 58.2865 143.547 60.5098C143.547 62.7331 143.132 64.8082 142.29 66.7252C141.459 68.6422 140.292 70.322 138.798 71.7745C137.303 73.2271 135.562 74.3536 133.563 75.154C131.574 75.9544 129.417 76.3595 127.101 76.3595ZM127.101 69.4228C128.328 69.4228 129.476 69.1955 130.535 68.741C131.594 68.2864 132.504 67.6639 133.286 66.8734C134.058 66.0829 134.671 65.1343 135.107 64.0375C135.542 62.9406 135.77 61.7647 135.77 60.4999C135.77 59.2351 135.552 58.0296 135.107 56.9427C134.671 55.8557 134.058 54.9269 133.286 54.1364C132.504 53.3458 131.594 52.7233 130.535 52.2688C129.476 51.8142 128.338 51.587 127.101 51.587C125.865 51.587 124.727 51.8142 123.668 52.2688C122.609 52.7233 121.699 53.3458 120.917 54.1364C120.135 54.9269 119.532 55.8656 119.096 56.9427C118.661 58.0296 118.433 59.1956 118.433 60.4505C118.433 61.7055 118.651 62.9307 119.096 64.0276C119.532 65.1244 120.145 66.073 120.917 66.8635C121.689 67.654 122.609 68.2766 123.668 68.7311C124.727 69.1856 125.865 69.4129 127.101 69.4129V69.4228Z"/>
</mask>
<path d="M127.101 76.3595C124.786 76.3595 122.629 75.9544 120.64 75.154C118.651 74.3536 116.9 73.2172 115.405 71.7745C113.911 70.322 112.744 68.6422 111.912 66.7252C111.081 64.8082 110.656 62.7331 110.656 60.5098C110.656 58.2865 111.071 56.2114 111.912 54.2945C112.744 52.3775 113.911 50.6977 115.405 49.2451C116.9 47.7925 118.641 46.6661 120.64 45.8657C122.629 45.0653 124.786 44.6602 127.101 44.6602C129.417 44.6602 131.574 45.0653 133.563 45.8657C135.552 46.676 137.303 47.8024 138.798 49.2451C140.292 50.6977 141.459 52.3775 142.29 54.2945C143.122 56.2114 143.547 58.2865 143.547 60.5098C143.547 62.7331 143.132 64.8082 142.29 66.7252C141.459 68.6422 140.292 70.322 138.798 71.7745C137.303 73.2271 135.562 74.3536 133.563 75.154C131.574 75.9544 129.417 76.3595 127.101 76.3595ZM127.101 69.4228C128.328 69.4228 129.476 69.1955 130.535 68.741C131.594 68.2864 132.504 67.6639 133.286 66.8734C134.058 66.0829 134.671 65.1343 135.107 64.0375C135.542 62.9406 135.77 61.7647 135.77 60.4999C135.77 59.2351 135.552 58.0296 135.107 56.9427C134.671 55.8557 134.058 54.9269 133.286 54.1364C132.504 53.3458 131.594 52.7233 130.535 52.2688C129.476 51.8142 128.338 51.587 127.101 51.587C125.865 51.587 124.727 51.8142 123.668 52.2688C122.609 52.7233 121.699 53.3458 120.917 54.1364C120.135 54.9269 119.532 55.8656 119.096 56.9427C118.661 58.0296 118.433 59.1956 118.433 60.4505C118.433 61.7055 118.651 62.9307 119.096 64.0276C119.532 65.1244 120.145 66.073 120.917 66.8635C121.689 67.654 122.609 68.2766 123.668 68.7311C124.727 69.1856 125.865 69.4129 127.101 69.4129V69.4228Z" fill="#FFC1CD"/>
<path d="M127.101 76.3595C124.786 76.3595 122.629 75.9544 120.64 75.154C118.651 74.3536 116.9 73.2172 115.405 71.7745C113.911 70.322 112.744 68.6422 111.912 66.7252C111.081 64.8082 110.656 62.7331 110.656 60.5098C110.656 58.2865 111.071 56.2114 111.912 54.2945C112.744 52.3775 113.911 50.6977 115.405 49.2451C116.9 47.7925 118.641 46.6661 120.64 45.8657C122.629 45.0653 124.786 44.6602 127.101 44.6602C129.417 44.6602 131.574 45.0653 133.563 45.8657C135.552 46.676 137.303 47.8024 138.798 49.2451C140.292 50.6977 141.459 52.3775 142.29 54.2945C143.122 56.2114 143.547 58.2865 143.547 60.5098C143.547 62.7331 143.132 64.8082 142.29 66.7252C141.459 68.6422 140.292 70.322 138.798 71.7745C137.303 73.2271 135.562 74.3536 133.563 75.154C131.574 75.9544 129.417 76.3595 127.101 76.3595ZM127.101 69.4228C128.328 69.4228 129.476 69.1955 130.535 68.741C131.594 68.2864 132.504 67.6639 133.286 66.8734C134.058 66.0829 134.671 65.1343 135.107 64.0375C135.542 62.9406 135.77 61.7647 135.77 60.4999C135.77 59.2351 135.552 58.0296 135.107 56.9427C134.671 55.8557 134.058 54.9269 133.286 54.1364C132.504 53.3458 131.594 52.7233 130.535 52.2688C129.476 51.8142 128.338 51.587 127.101 51.587C125.865 51.587 124.727 51.8142 123.668 52.2688C122.609 52.7233 121.699 53.3458 120.917 54.1364C120.135 54.9269 119.532 55.8656 119.096 56.9427C118.661 58.0296 118.433 59.1956 118.433 60.4505C118.433 61.7055 118.651 62.9307 119.096 64.0276C119.532 65.1244 120.145 66.073 120.917 66.8635C121.689 67.654 122.609 68.2766 123.668 68.7311C124.727 69.1856 125.865 69.4129 127.101 69.4129V69.4228Z" stroke="#FF6383" stroke-miterlimit="10" mask="url(#path-18-outside-6_0_1)"/>
</g>
<g id="Vector_19">
<mask id="path-19-outside-7_0_1" maskUnits="userSpaceOnUse" x="144.689" y="44.1443" width="42" height="33" fill="black">
<rect fill="white" x="144.689" y="44.1443" width="42" height="33"/>
<path d="M151.958 74.7784L145.724 46.8538C145.526 45.9743 146.199 45.1443 147.1 45.1443H151.968C152.641 45.1443 153.215 45.6186 153.343 46.2806L155.718 58.3556C156.005 59.8082 158.054 59.8872 158.449 58.4643L161.923 46.1719C162.091 45.5692 162.645 45.1542 163.278 45.1542H168.226C168.859 45.1542 169.403 45.5692 169.581 46.1719L173.055 58.4643C173.46 59.8872 175.499 59.8082 175.786 58.3556L178.16 46.2806C178.289 45.6186 178.873 45.1443 179.536 45.1443H184.147C185.047 45.1443 185.72 45.9743 185.522 46.8538L179.288 74.7784C179.15 75.4207 178.576 75.8752 177.913 75.8752H172.105C171.471 75.8752 170.917 75.4504 170.749 74.8476L166.979 61.1817C166.603 59.8082 164.654 59.8082 164.268 61.1817L160.458 74.8476C160.29 75.4504 159.736 75.8752 159.102 75.8752H153.294C152.631 75.8752 152.067 75.4207 151.919 74.7784H151.958Z"/>
</mask>
<path d="M151.958 74.7784L145.724 46.8538C145.526 45.9743 146.199 45.1443 147.1 45.1443H151.968C152.641 45.1443 153.215 45.6186 153.343 46.2806L155.718 58.3556C156.005 59.8082 158.054 59.8872 158.449 58.4643L161.923 46.1719C162.091 45.5692 162.645 45.1542 163.278 45.1542H168.226C168.859 45.1542 169.403 45.5692 169.581 46.1719L173.055 58.4643C173.46 59.8872 175.499 59.8082 175.786 58.3556L178.16 46.2806C178.289 45.6186 178.873 45.1443 179.536 45.1443H184.147C185.047 45.1443 185.72 45.9743 185.522 46.8538L179.288 74.7784C179.15 75.4207 178.576 75.8752 177.913 75.8752H172.105C171.471 75.8752 170.917 75.4504 170.749 74.8476L166.979 61.1817C166.603 59.8082 164.654 59.8082 164.268 61.1817L160.458 74.8476C160.29 75.4504 159.736 75.8752 159.102 75.8752H153.294C152.631 75.8752 152.067 75.4207 151.919 74.7784H151.958Z" fill="#FFC1CD"/>
<path d="M151.958 74.7784L145.724 46.8538C145.526 45.9743 146.199 45.1443 147.1 45.1443H151.968C152.641 45.1443 153.215 45.6186 153.343 46.2806L155.718 58.3556C156.005 59.8082 158.054 59.8872 158.449 58.4643L161.923 46.1719C162.091 45.5692 162.645 45.1542 163.278 45.1542H168.226C168.859 45.1542 169.403 45.5692 169.581 46.1719L173.055 58.4643C173.46 59.8872 175.499 59.8082 175.786 58.3556L178.16 46.2806C178.289 45.6186 178.873 45.1443 179.536 45.1443H184.147C185.047 45.1443 185.72 45.9743 185.522 46.8538L179.288 74.7784C179.15 75.4207 178.576 75.8752 177.913 75.8752H172.105C171.471 75.8752 170.917 75.4504 170.749 74.8476L166.979 61.1817C166.603 59.8082 164.654 59.8082 164.268 61.1817L160.458 74.8476C160.29 75.4504 159.736 75.8752 159.102 75.8752H153.294C152.631 75.8752 152.067 75.4207 151.919 74.7784H151.958Z" stroke="#FF6383" stroke-miterlimit="10" mask="url(#path-19-outside-7_0_1)"/>
</g>
<g id="Vector_20">
<mask id="path-20-outside-8_0_1" maskUnits="userSpaceOnUse" x="187.511" y="43.917" width="10" height="33" fill="black">
<rect fill="white" x="187.511" y="43.917" width="10" height="33"/>
<path d="M192.597 76.3594C191.479 76.3594 190.519 75.9543 189.718 75.1539C188.907 74.3535 188.511 73.395 188.511 72.2784C188.511 71.1618 188.916 70.2033 189.718 69.4029C190.519 68.6026 191.479 68.1974 192.597 68.1974C193.716 68.1974 194.675 68.6026 195.477 69.4029C196.278 70.2132 196.684 71.1717 196.684 72.2784C196.684 73.3851 196.278 74.3535 195.477 75.1539C194.665 75.9543 193.706 76.3594 192.597 76.3594ZM189.817 65.0453L189.055 46.3794C189.025 45.579 189.659 44.917 190.46 44.917H194.745C195.546 44.917 196.18 45.579 196.15 46.3794L195.388 65.0453C195.358 65.7963 194.735 66.3891 193.983 66.3891H191.232C190.48 66.3891 189.856 65.7963 189.827 65.0453H189.817Z"/>
</mask>
<path d="M192.597 76.3594C191.479 76.3594 190.519 75.9543 189.718 75.1539C188.907 74.3535 188.511 73.395 188.511 72.2784C188.511 71.1618 188.916 70.2033 189.718 69.4029C190.519 68.6026 191.479 68.1974 192.597 68.1974C193.716 68.1974 194.675 68.6026 195.477 69.4029C196.278 70.2132 196.684 71.1717 196.684 72.2784C196.684 73.3851 196.278 74.3535 195.477 75.1539C194.665 75.9543 193.706 76.3594 192.597 76.3594ZM189.817 65.0453L189.055 46.3794C189.025 45.579 189.659 44.917 190.46 44.917H194.745C195.546 44.917 196.18 45.579 196.15 46.3794L195.388 65.0453C195.358 65.7963 194.735 66.3891 193.983 66.3891H191.232C190.48 66.3891 189.856 65.7963 189.827 65.0453H189.817Z" fill="#FFC1CD"/>
<path d="M192.597 76.3594C191.479 76.3594 190.519 75.9543 189.718 75.1539C188.907 74.3535 188.511 73.395 188.511 72.2784C188.511 71.1618 188.916 70.2033 189.718 69.4029C190.519 68.6026 191.479 68.1974 192.597 68.1974C193.716 68.1974 194.675 68.6026 195.477 69.4029C196.278 70.2132 196.684 71.1717 196.684 72.2784C196.684 73.3851 196.278 74.3535 195.477 75.1539C194.665 75.9543 193.706 76.3594 192.597 76.3594ZM189.817 65.0453L189.055 46.3794C189.025 45.579 189.659 44.917 190.46 44.917H194.745C195.546 44.917 196.18 45.579 196.15 46.3794L195.388 65.0453C195.358 65.7963 194.735 66.3891 193.983 66.3891H191.232C190.48 66.3891 189.856 65.7963 189.827 65.0453H189.817Z" stroke="#FF6383" stroke-miterlimit="10" mask="url(#path-20-outside-8_0_1)"/>
</g>
<g id="Vector_21">
<mask id="path-21-outside-9_0_1" maskUnits="userSpaceOnUse" x="4.13184" y="3.47266" width="55" height="30" fill="black">
<rect fill="white" x="4.13184" y="3.47266" width="55" height="30"/>
<path d="M31.6134 4.49242C31.0791 4.6604 30.4854 4.74934 30.0104 5.02601C29.2584 5.46079 28.5954 6.04379 27.8731 6.52798C26.7252 7.29872 25.5378 8.02006 24.3999 8.7908C23.2619 9.56155 22.1636 10.3817 21.0355 11.1623C20.0559 11.8441 19.0466 12.4864 18.067 13.1781C17.2061 13.7809 16.3848 14.433 15.5239 15.0358C14.3365 15.8658 13.1392 16.6761 11.932 17.4864C11.081 18.0694 10.2103 18.6227 9.37907 19.2156C8.65672 19.7294 7.94422 20.263 7.28124 20.8362C6.62816 21.3994 5.86628 21.933 5.47047 22.6543C4.66897 24.1069 5.4012 25.9448 6.50945 26.8144C7.91456 27.9112 9.45823 28.8203 10.9227 29.8282C11.8825 30.4902 12.7632 31.3005 13.7824 31.8143C14.4354 32.1404 15.326 32.2491 16.0484 32.1108C16.7707 31.9724 17.4337 31.4289 18.0967 31.0337C19.0268 30.4705 19.9569 29.8973 20.8475 29.2649C22.0448 28.425 23.1828 27.5159 24.3801 26.676C25.2805 26.0436 26.2304 25.4903 27.1507 24.8875C28.2194 24.1859 29.2386 23.4152 30.337 22.7729C31.3463 22.1899 32.4149 22.4369 33.3846 22.931C33.9289 23.2077 34.394 23.6029 34.9085 23.9389C35.621 24.4033 36.3532 24.8381 37.0458 25.3223C37.877 25.9053 38.6687 26.5377 39.4999 27.1207C40.242 27.6444 41.0138 28.1088 41.7559 28.6226C42.6366 29.2353 43.4678 29.927 44.3683 30.5001C45.239 31.0535 46.1197 31.6957 47.0894 31.9527C47.881 32.17 48.8804 32.0515 49.672 31.7649C50.4538 31.4784 51.0673 30.7669 51.7797 30.2827C52.6703 29.6701 53.6202 29.1167 54.5009 28.4843C55.4211 27.8223 56.3314 27.1306 57.1923 26.3895C58.1818 25.5495 58.4787 23.8401 57.9246 22.6346C57.321 21.3006 56.0346 20.7275 54.9659 19.9073C54.0655 19.2057 53.0958 18.5931 52.1458 17.9409C50.8298 17.0417 49.5236 16.1425 48.1977 15.2532C47.4456 14.7492 46.6639 14.2749 45.9218 13.7512C45.0708 13.1485 44.2495 12.4864 43.3887 11.8935C42.3892 11.2018 41.3403 10.5793 40.3409 9.88763C39.203 9.107 38.0947 8.28685 36.9667 7.49635C36.1454 6.91335 35.2845 6.36988 34.483 5.75723C33.632 5.10506 32.7711 4.53194 31.5936 4.47266L31.6134 4.49242Z"/>
</mask>
<path d="M31.6134 4.49242C31.0791 4.6604 30.4854 4.74934 30.0104 5.02601C29.2584 5.46079 28.5954 6.04379 27.8731 6.52798C26.7252 7.29872 25.5378 8.02006 24.3999 8.7908C23.2619 9.56155 22.1636 10.3817 21.0355 11.1623C20.0559 11.8441 19.0466 12.4864 18.067 13.1781C17.2061 13.7809 16.3848 14.433 15.5239 15.0358C14.3365 15.8658 13.1392 16.6761 11.932 17.4864C11.081 18.0694 10.2103 18.6227 9.37907 19.2156C8.65672 19.7294 7.94422 20.263 7.28124 20.8362C6.62816 21.3994 5.86628 21.933 5.47047 22.6543C4.66897 24.1069 5.4012 25.9448 6.50945 26.8144C7.91456 27.9112 9.45823 28.8203 10.9227 29.8282C11.8825 30.4902 12.7632 31.3005 13.7824 31.8143C14.4354 32.1404 15.326 32.2491 16.0484 32.1108C16.7707 31.9724 17.4337 31.4289 18.0967 31.0337C19.0268 30.4705 19.9569 29.8973 20.8475 29.2649C22.0448 28.425 23.1828 27.5159 24.3801 26.676C25.2805 26.0436 26.2304 25.4903 27.1507 24.8875C28.2194 24.1859 29.2386 23.4152 30.337 22.7729C31.3463 22.1899 32.4149 22.4369 33.3846 22.931C33.9289 23.2077 34.394 23.6029 34.9085 23.9389C35.621 24.4033 36.3532 24.8381 37.0458 25.3223C37.877 25.9053 38.6687 26.5377 39.4999 27.1207C40.242 27.6444 41.0138 28.1088 41.7559 28.6226C42.6366 29.2353 43.4678 29.927 44.3683 30.5001C45.239 31.0535 46.1197 31.6957 47.0894 31.9527C47.881 32.17 48.8804 32.0515 49.672 31.7649C50.4538 31.4784 51.0673 30.7669 51.7797 30.2827C52.6703 29.6701 53.6202 29.1167 54.5009 28.4843C55.4211 27.8223 56.3314 27.1306 57.1923 26.3895C58.1818 25.5495 58.4787 23.8401 57.9246 22.6346C57.321 21.3006 56.0346 20.7275 54.9659 19.9073C54.0655 19.2057 53.0958 18.5931 52.1458 17.9409C50.8298 17.0417 49.5236 16.1425 48.1977 15.2532C47.4456 14.7492 46.6639 14.2749 45.9218 13.7512C45.0708 13.1485 44.2495 12.4864 43.3887 11.8935C42.3892 11.2018 41.3403 10.5793 40.3409 9.88763C39.203 9.107 38.0947 8.28685 36.9667 7.49635C36.1454 6.91335 35.2845 6.36988 34.483 5.75723C33.632 5.10506 32.7711 4.53194 31.5936 4.47266L31.6134 4.49242Z" fill="#FFC1CD"/>
<path d="M31.6134 4.49242C31.0791 4.6604 30.4854 4.74934 30.0104 5.02601C29.2584 5.46079 28.5954 6.04379 27.8731 6.52798C26.7252 7.29872 25.5378 8.02006 24.3999 8.7908C23.2619 9.56155 22.1636 10.3817 21.0355 11.1623C20.0559 11.8441 19.0466 12.4864 18.067 13.1781C17.2061 13.7809 16.3848 14.433 15.5239 15.0358C14.3365 15.8658 13.1392 16.6761 11.932 17.4864C11.081 18.0694 10.2103 18.6227 9.37907 19.2156C8.65672 19.7294 7.94422 20.263 7.28124 20.8362C6.62816 21.3994 5.86628 21.933 5.47047 22.6543C4.66897 24.1069 5.4012 25.9448 6.50945 26.8144C7.91456 27.9112 9.45823 28.8203 10.9227 29.8282C11.8825 30.4902 12.7632 31.3005 13.7824 31.8143C14.4354 32.1404 15.326 32.2491 16.0484 32.1108C16.7707 31.9724 17.4337 31.4289 18.0967 31.0337C19.0268 30.4705 19.9569 29.8973 20.8475 29.2649C22.0448 28.425 23.1828 27.5159 24.3801 26.676C25.2805 26.0436 26.2304 25.4903 27.1507 24.8875C28.2194 24.1859 29.2386 23.4152 30.337 22.7729C31.3463 22.1899 32.4149 22.4369 33.3846 22.931C33.9289 23.2077 34.394 23.6029 34.9085 23.9389C35.621 24.4033 36.3532 24.8381 37.0458 25.3223C37.877 25.9053 38.6687 26.5377 39.4999 27.1207C40.242 27.6444 41.0138 28.1088 41.7559 28.6226C42.6366 29.2353 43.4678 29.927 44.3683 30.5001C45.239 31.0535 46.1197 31.6957 47.0894 31.9527C47.881 32.17 48.8804 32.0515 49.672 31.7649C50.4538 31.4784 51.0673 30.7669 51.7797 30.2827C52.6703 29.6701 53.6202 29.1167 54.5009 28.4843C55.4211 27.8223 56.3314 27.1306 57.1923 26.3895C58.1818 25.5495 58.4787 23.8401 57.9246 22.6346C57.321 21.3006 56.0346 20.7275 54.9659 19.9073C54.0655 19.2057 53.0958 18.5931 52.1458 17.9409C50.8298 17.0417 49.5236 16.1425 48.1977 15.2532C47.4456 14.7492 46.6639 14.2749 45.9218 13.7512C45.0708 13.1485 44.2495 12.4864 43.3887 11.8935C42.3892 11.2018 41.3403 10.5793 40.3409 9.88763C39.203 9.107 38.0947 8.28685 36.9667 7.49635C36.1454 6.91335 35.2845 6.36988 34.483 5.75723C33.632 5.10506 32.7711 4.53194 31.5936 4.47266L31.6134 4.49242Z" stroke="#FF6383" stroke-miterlimit="10" mask="url(#path-21-outside-9_0_1)"/>
</g>
<g id="Vector_22">
<mask id="path-22-outside-10_0_1" maskUnits="userSpaceOnUse" x="18.1643" y="28.5342" width="27" height="30" fill="black">
<rect fill="white" x="18.1643" y="28.5342" width="27" height="30"/>
<path d="M19.1951 43.3457H19.1852C19.1852 44.65 19.2149 45.9543 19.1852 47.2587C19.1456 48.6519 19.8284 49.7191 20.7387 50.5986C21.4808 51.3002 22.4407 51.7646 23.2917 52.3575C24.2812 53.059 25.241 53.81 26.2305 54.5116C26.8638 54.9562 27.4971 55.4108 28.1799 55.7764C29.1001 56.2705 30.0204 56.8831 31.0099 57.1005C32.5634 57.4562 33.919 56.6954 35.1757 55.8159C35.8782 55.3219 36.5313 54.7685 37.2339 54.2843C38.2333 53.5926 39.2822 52.9602 40.2816 52.2685C40.905 51.8337 41.4591 51.2903 42.1023 50.895C43.3689 50.1045 44.0813 48.8101 44.111 47.5057C44.1803 44.2449 44.6157 40.9346 43.6855 37.7232C43.5173 37.1303 43.0918 36.5177 42.6169 36.1323C41.5977 35.3122 40.4597 34.6402 39.3811 33.8794C38.2729 33.0987 37.224 32.239 36.0861 31.5177C35.0372 30.8655 33.8894 30.3715 32.8108 29.7786C31.6729 29.1462 29.6245 29.8774 28.8131 30.4308C27.9918 30.994 27.22 31.6264 26.3889 32.1896C25.4884 32.8023 24.5384 33.3556 23.6281 33.9683C22.8464 34.492 22.1042 35.0849 21.3225 35.6086C20.145 36.409 19.3633 37.5058 19.2346 38.8892C19.0961 40.3615 19.205 41.8536 19.205 43.3358L19.1951 43.3457Z"/>
</mask>
<path d="M19.1951 43.3457H19.1852C19.1852 44.65 19.2149 45.9543 19.1852 47.2587C19.1456 48.6519 19.8284 49.7191 20.7387 50.5986C21.4808 51.3002 22.4407 51.7646 23.2917 52.3575C24.2812 53.059 25.241 53.81 26.2305 54.5116C26.8638 54.9562 27.4971 55.4108 28.1799 55.7764C29.1001 56.2705 30.0204 56.8831 31.0099 57.1005C32.5634 57.4562 33.919 56.6954 35.1757 55.8159C35.8782 55.3219 36.5313 54.7685 37.2339 54.2843C38.2333 53.5926 39.2822 52.9602 40.2816 52.2685C40.905 51.8337 41.4591 51.2903 42.1023 50.895C43.3689 50.1045 44.0813 48.8101 44.111 47.5057C44.1803 44.2449 44.6157 40.9346 43.6855 37.7232C43.5173 37.1303 43.0918 36.5177 42.6169 36.1323C41.5977 35.3122 40.4597 34.6402 39.3811 33.8794C38.2729 33.0987 37.224 32.239 36.0861 31.5177C35.0372 30.8655 33.8894 30.3715 32.8108 29.7786C31.6729 29.1462 29.6245 29.8774 28.8131 30.4308C27.9918 30.994 27.22 31.6264 26.3889 32.1896C25.4884 32.8023 24.5384 33.3556 23.6281 33.9683C22.8464 34.492 22.1042 35.0849 21.3225 35.6086C20.145 36.409 19.3633 37.5058 19.2346 38.8892C19.0961 40.3615 19.205 41.8536 19.205 43.3358L19.1951 43.3457Z" fill="#FFC1CD"/>
<path d="M19.1951 43.3457H19.1852C19.1852 44.65 19.2149 45.9543 19.1852 47.2587C19.1456 48.6519 19.8284 49.7191 20.7387 50.5986C21.4808 51.3002 22.4407 51.7646 23.2917 52.3575C24.2812 53.059 25.241 53.81 26.2305 54.5116C26.8638 54.9562 27.4971 55.4108 28.1799 55.7764C29.1001 56.2705 30.0204 56.8831 31.0099 57.1005C32.5634 57.4562 33.919 56.6954 35.1757 55.8159C35.8782 55.3219 36.5313 54.7685 37.2339 54.2843C38.2333 53.5926 39.2822 52.9602 40.2816 52.2685C40.905 51.8337 41.4591 51.2903 42.1023 50.895C43.3689 50.1045 44.0813 48.8101 44.111 47.5057C44.1803 44.2449 44.6157 40.9346 43.6855 37.7232C43.5173 37.1303 43.0918 36.5177 42.6169 36.1323C41.5977 35.3122 40.4597 34.6402 39.3811 33.8794C38.2729 33.0987 37.224 32.239 36.0861 31.5177C35.0372 30.8655 33.8894 30.3715 32.8108 29.7786C31.6729 29.1462 29.6245 29.8774 28.8131 30.4308C27.9918 30.994 27.22 31.6264 26.3889 32.1896C25.4884 32.8023 24.5384 33.3556 23.6281 33.9683C22.8464 34.492 22.1042 35.0849 21.3225 35.6086C20.145 36.409 19.3633 37.5058 19.2346 38.8892C19.0961 40.3615 19.205 41.8536 19.205 43.3358L19.1951 43.3457Z" stroke="#FF6383" stroke-miterlimit="10" mask="url(#path-22-outside-10_0_1)"/>
</g>
<g id="Vector_23">
<mask id="path-23-outside-11_0_1" maskUnits="userSpaceOnUse" x="32.7705" y="30.4561" width="31" height="43" fill="black">
<rect fill="white" x="32.7705" y="30.4561" width="31" height="43"/>
<path d="M62.3776 44.3142C62.3776 41.3696 62.3677 38.4249 62.3776 35.4803C62.3776 34.6008 62.2885 33.8103 61.675 33.089C60.5766 31.8044 59.4288 30.9744 57.4498 31.7649C56.5394 32.1305 55.7182 32.7135 54.8969 33.2669C53.7886 34.0179 52.7199 34.838 51.6216 35.6186C50.6815 36.2906 50.0878 37.2194 50.068 38.3459C50.0087 42.7035 50.0482 47.0612 49.9789 51.4189C49.9789 51.9722 49.6029 52.6244 49.1873 53.0295C48.5244 53.6718 47.6833 54.1461 46.9214 54.6995C46.3672 55.1046 45.8428 55.5592 45.2788 55.9445C44.4673 56.4979 43.6065 56.9821 42.805 57.5354C42.0826 58.0295 41.4197 58.6026 40.7072 59.1066C39.787 59.7489 38.837 60.3615 37.9168 60.9939C37.1944 61.488 36.4424 61.9425 35.7893 62.5255C35.1363 63.1085 34.3743 63.7211 34.0675 64.482C33.7311 65.3219 33.8004 66.3496 33.7806 67.2982C33.7608 68.3654 33.7015 69.393 34.4238 70.4009C35.0076 71.2013 35.7101 71.7053 36.5512 71.9029C37.6595 72.1598 38.7974 72.0314 39.7771 71.2903C40.4598 70.7764 41.1525 70.2725 41.855 69.7784C42.6268 69.2349 43.4086 68.7013 44.1804 68.1579C44.8731 67.6638 45.546 67.1401 46.2386 66.6559C46.8323 66.2409 47.4656 65.8753 48.0593 65.4603C48.7519 64.9761 49.4248 64.4623 50.1274 63.9781C50.9289 63.4247 51.77 62.9208 52.5715 62.3575C53.6203 61.6164 54.6297 60.8259 55.6786 60.0947C56.3415 59.6303 57.054 59.235 57.7269 58.7706C58.6768 58.1086 59.5673 57.3378 60.5469 56.7252C61.7245 55.9939 62.3677 54.9959 62.3776 53.6224C62.3974 50.5197 62.3776 47.4169 62.3776 44.3241V44.3142Z"/>
</mask>
<path d="M62.3776 44.3142C62.3776 41.3696 62.3677 38.4249 62.3776 35.4803C62.3776 34.6008 62.2885 33.8103 61.675 33.089C60.5766 31.8044 59.4288 30.9744 57.4498 31.7649C56.5394 32.1305 55.7182 32.7135 54.8969 33.2669C53.7886 34.0179 52.7199 34.838 51.6216 35.6186C50.6815 36.2906 50.0878 37.2194 50.068 38.3459C50.0087 42.7035 50.0482 47.0612 49.9789 51.4189C49.9789 51.9722 49.6029 52.6244 49.1873 53.0295C48.5244 53.6718 47.6833 54.1461 46.9214 54.6995C46.3672 55.1046 45.8428 55.5592 45.2788 55.9445C44.4673 56.4979 43.6065 56.9821 42.805 57.5354C42.0826 58.0295 41.4197 58.6026 40.7072 59.1066C39.787 59.7489 38.837 60.3615 37.9168 60.9939C37.1944 61.488 36.4424 61.9425 35.7893 62.5255C35.1363 63.1085 34.3743 63.7211 34.0675 64.482C33.7311 65.3219 33.8004 66.3496 33.7806 67.2982C33.7608 68.3654 33.7015 69.393 34.4238 70.4009C35.0076 71.2013 35.7101 71.7053 36.5512 71.9029C37.6595 72.1598 38.7974 72.0314 39.7771 71.2903C40.4598 70.7764 41.1525 70.2725 41.855 69.7784C42.6268 69.2349 43.4086 68.7013 44.1804 68.1579C44.8731 67.6638 45.546 67.1401 46.2386 66.6559C46.8323 66.2409 47.4656 65.8753 48.0593 65.4603C48.7519 64.9761 49.4248 64.4623 50.1274 63.9781C50.9289 63.4247 51.77 62.9208 52.5715 62.3575C53.6203 61.6164 54.6297 60.8259 55.6786 60.0947C56.3415 59.6303 57.054 59.235 57.7269 58.7706C58.6768 58.1086 59.5673 57.3378 60.5469 56.7252C61.7245 55.9939 62.3677 54.9959 62.3776 53.6224C62.3974 50.5197 62.3776 47.4169 62.3776 44.3241V44.3142Z" fill="#FFC1CD"/>
<path d="M62.3776 44.3142C62.3776 41.3696 62.3677 38.4249 62.3776 35.4803C62.3776 34.6008 62.2885 33.8103 61.675 33.089C60.5766 31.8044 59.4288 30.9744 57.4498 31.7649C56.5394 32.1305 55.7182 32.7135 54.8969 33.2669C53.7886 34.0179 52.7199 34.838 51.6216 35.6186C50.6815 36.2906 50.0878 37.2194 50.068 38.3459C50.0087 42.7035 50.0482 47.0612 49.9789 51.4189C49.9789 51.9722 49.6029 52.6244 49.1873 53.0295C48.5244 53.6718 47.6833 54.1461 46.9214 54.6995C46.3672 55.1046 45.8428 55.5592 45.2788 55.9445C44.4673 56.4979 43.6065 56.9821 42.805 57.5354C42.0826 58.0295 41.4197 58.6026 40.7072 59.1066C39.787 59.7489 38.837 60.3615 37.9168 60.9939C37.1944 61.488 36.4424 61.9425 35.7893 62.5255C35.1363 63.1085 34.3743 63.7211 34.0675 64.482C33.7311 65.3219 33.8004 66.3496 33.7806 67.2982C33.7608 68.3654 33.7015 69.393 34.4238 70.4009C35.0076 71.2013 35.7101 71.7053 36.5512 71.9029C37.6595 72.1598 38.7974 72.0314 39.7771 71.2903C40.4598 70.7764 41.1525 70.2725 41.855 69.7784C42.6268 69.2349 43.4086 68.7013 44.1804 68.1579C44.8731 67.6638 45.546 67.1401 46.2386 66.6559C46.8323 66.2409 47.4656 65.8753 48.0593 65.4603C48.7519 64.9761 49.4248 64.4623 50.1274 63.9781C50.9289 63.4247 51.77 62.9208 52.5715 62.3575C53.6203 61.6164 54.6297 60.8259 55.6786 60.0947C56.3415 59.6303 57.054 59.235 57.7269 58.7706C58.6768 58.1086 59.5673 57.3378 60.5469 56.7252C61.7245 55.9939 62.3677 54.9959 62.3776 53.6224C62.3974 50.5197 62.3776 47.4169 62.3776 44.3241V44.3142Z" stroke="#FF6383" stroke-miterlimit="10" mask="url(#path-23-outside-11_0_1)"/>
</g>
<g id="Vector_24">
<mask id="path-24-outside-12_0_1" maskUnits="userSpaceOnUse" x="0" y="30.4993" width="30" height="42" fill="black">
<rect fill="white" y="30.4993" width="30" height="42"/>
<path d="M1.01768 44.2945C1.01768 47.4269 0.958284 50.5692 1.05724 53.6917C1.08692 54.4723 1.45306 55.4308 2.00719 55.9545C3.15503 57.0513 4.51063 57.9308 5.80689 58.8596C6.83598 59.5908 7.9047 60.2628 8.94369 60.9742C9.77488 61.5572 10.5764 62.1798 11.4175 62.7628C12.2882 63.3655 13.1986 63.909 14.0694 64.5117C15.049 65.1936 15.989 65.9347 16.9785 66.6263C17.6118 67.071 18.2946 67.4366 18.918 67.8813C19.67 68.4149 20.3923 68.9979 21.1345 69.5413C21.7875 70.0255 22.4703 70.4702 23.1135 70.9643C24.004 71.6362 24.9639 72.1204 26.1117 71.9623C26.6164 71.8931 27.0914 71.6362 27.596 71.5077C28.6152 71.2409 29.1792 70.401 29.3078 69.5611C29.5255 68.158 29.3969 66.7054 29.4167 65.2825C29.4365 63.9584 28.5657 63.2173 27.6158 62.5355C26.4977 61.7252 25.3795 60.9149 24.2514 60.1343C23.1828 59.3932 22.0844 58.662 21.0059 57.9407C20.2143 57.417 19.4028 56.9229 18.631 56.3794C17.4436 55.5494 16.3057 54.6502 15.1083 53.8498C13.7824 52.9605 13.1788 51.7451 13.1788 50.1739V38.5831C13.1788 38.1483 13.0304 37.7136 12.9413 37.2788C12.6939 36.0831 11.6253 35.6187 10.804 34.9666C9.7452 34.1266 8.57754 33.4251 7.48908 32.6346C6.45009 31.8836 5.35175 31.3105 4.04559 31.5575C3.55083 31.6464 3.10557 32.0021 2.64049 32.2294C1.58171 32.7531 1.06713 33.6622 1.05724 34.7788C1.01765 37.9606 1.04733 41.1424 1.04733 44.3143L1.01768 44.2945Z"/>
</mask>
<path d="M1.01768 44.2945C1.01768 47.4269 0.958284 50.5692 1.05724 53.6917C1.08692 54.4723 1.45306 55.4308 2.00719 55.9545C3.15503 57.0513 4.51063 57.9308 5.80689 58.8596C6.83598 59.5908 7.9047 60.2628 8.94369 60.9742C9.77488 61.5572 10.5764 62.1798 11.4175 62.7628C12.2882 63.3655 13.1986 63.909 14.0694 64.5117C15.049 65.1936 15.989 65.9347 16.9785 66.6263C17.6118 67.071 18.2946 67.4366 18.918 67.8813C19.67 68.4149 20.3923 68.9979 21.1345 69.5413C21.7875 70.0255 22.4703 70.4702 23.1135 70.9643C24.004 71.6362 24.9639 72.1204 26.1117 71.9623C26.6164 71.8931 27.0914 71.6362 27.596 71.5077C28.6152 71.2409 29.1792 70.401 29.3078 69.5611C29.5255 68.158 29.3969 66.7054 29.4167 65.2825C29.4365 63.9584 28.5657 63.2173 27.6158 62.5355C26.4977 61.7252 25.3795 60.9149 24.2514 60.1343C23.1828 59.3932 22.0844 58.662 21.0059 57.9407C20.2143 57.417 19.4028 56.9229 18.631 56.3794C17.4436 55.5494 16.3057 54.6502 15.1083 53.8498C13.7824 52.9605 13.1788 51.7451 13.1788 50.1739V38.5831C13.1788 38.1483 13.0304 37.7136 12.9413 37.2788C12.6939 36.0831 11.6253 35.6187 10.804 34.9666C9.7452 34.1266 8.57754 33.4251 7.48908 32.6346C6.45009 31.8836 5.35175 31.3105 4.04559 31.5575C3.55083 31.6464 3.10557 32.0021 2.64049 32.2294C1.58171 32.7531 1.06713 33.6622 1.05724 34.7788C1.01765 37.9606 1.04733 41.1424 1.04733 44.3143L1.01768 44.2945Z" fill="#FFC1CD"/>
<path d="M1.01768 44.2945C1.01768 47.4269 0.958284 50.5692 1.05724 53.6917C1.08692 54.4723 1.45306 55.4308 2.00719 55.9545C3.15503 57.0513 4.51063 57.9308 5.80689 58.8596C6.83598 59.5908 7.9047 60.2628 8.94369 60.9742C9.77488 61.5572 10.5764 62.1798 11.4175 62.7628C12.2882 63.3655 13.1986 63.909 14.0694 64.5117C15.049 65.1936 15.989 65.9347 16.9785 66.6263C17.6118 67.071 18.2946 67.4366 18.918 67.8813C19.67 68.4149 20.3923 68.9979 21.1345 69.5413C21.7875 70.0255 22.4703 70.4702 23.1135 70.9643C24.004 71.6362 24.9639 72.1204 26.1117 71.9623C26.6164 71.8931 27.0914 71.6362 27.596 71.5077C28.6152 71.2409 29.1792 70.401 29.3078 69.5611C29.5255 68.158 29.3969 66.7054 29.4167 65.2825C29.4365 63.9584 28.5657 63.2173 27.6158 62.5355C26.4977 61.7252 25.3795 60.9149 24.2514 60.1343C23.1828 59.3932 22.0844 58.662 21.0059 57.9407C20.2143 57.417 19.4028 56.9229 18.631 56.3794C17.4436 55.5494 16.3057 54.6502 15.1083 53.8498C13.7824 52.9605 13.1788 51.7451 13.1788 50.1739V38.5831C13.1788 38.1483 13.0304 37.7136 12.9413 37.2788C12.6939 36.0831 11.6253 35.6187 10.804 34.9666C9.7452 34.1266 8.57754 33.4251 7.48908 32.6346C6.45009 31.8836 5.35175 31.3105 4.04559 31.5575C3.55083 31.6464 3.10557 32.0021 2.64049 32.2294C1.58171 32.7531 1.06713 33.6622 1.05724 34.7788C1.01765 37.9606 1.04733 41.1424 1.04733 44.3143L1.01768 44.2945Z" stroke="#FF6383" stroke-miterlimit="10" mask="url(#path-24-outside-12_0_1)"/>
</g>
</g>
</g>
</g>
</svg>
