<svg width="312" height="277" viewBox="0 0 312 277" fill="none" xmlns="http://www.w3.org/2000/svg">
<path d="M264.973 1H47.1311C21.6512 1 1 21.6223 1 47.0668V123.766C1 136.967 6.56106 148.864 15.4667 157.263C17.04 158.746 17.9207 160.831 17.9207 162.995V177.767C17.9207 194.486 31.4968 208.044 48.2394 208.044H191.402C208.145 208.044 221.721 194.486 221.721 177.767C221.721 173.39 225.273 169.833 229.667 169.833H264.973C290.453 169.833 311.104 149.21 311.104 123.766V47.0668C311.104 21.6223 290.453 1 264.973 1Z" fill="#FFF3F5" stroke="#FF6383" stroke-width="0.75" stroke-miterlimit="10"/>
<path d="M240.898 169.843V230.455C240.898 236.64 235.881 241.65 229.687 241.65H219.663" stroke="white" stroke-miterlimit="10"/>
<path d="M256.552 169.843V248.211C256.552 254.397 251.535 259.407 245.341 259.407H219.673" stroke="white" stroke-miterlimit="10"/>
<path d="M271.939 169.378V265.187C271.939 271.373 266.922 276.383 260.728 276.383H219.673" stroke="white" stroke-miterlimit="10"/>
<path d="M47.3093 186.374C46.2208 186.374 45.2115 186.176 44.2715 185.771C43.3314 185.366 42.5102 184.813 41.7977 184.111C41.0853 183.4 40.5311 182.58 40.1353 181.641C39.7296 180.702 39.5317 179.694 39.5317 178.627C39.5317 177.56 39.7296 176.552 40.1254 175.613C40.5212 174.675 41.0753 173.854 41.7779 173.143C42.4903 172.432 43.3116 171.878 44.2517 171.483C45.1917 171.078 46.201 170.88 47.2895 170.88C48.4472 170.88 49.5456 171.098 50.5747 171.522C51.6038 171.947 52.4844 172.56 53.2167 173.35L52.0985 174.487C51.5246 173.825 50.8122 173.321 49.9612 172.955C49.1102 172.59 48.2196 172.412 47.2895 172.412C46.4286 172.412 45.6271 172.57 44.8949 172.886C44.1528 173.202 43.5096 173.637 42.9653 174.21C42.4112 174.773 41.9857 175.435 41.679 176.186C41.3722 176.937 41.2139 177.758 41.2139 178.647C41.2139 179.536 41.3722 180.337 41.679 181.097C41.9857 181.858 42.4211 182.52 42.9653 183.084C43.5195 183.647 44.1626 184.091 44.8949 184.408C45.637 184.724 46.4286 184.882 47.2895 184.882C48.3087 184.882 49.229 184.665 50.0503 184.22C50.8716 183.775 51.5444 183.173 52.0491 182.392C52.5537 181.621 52.8506 180.752 52.9396 179.773H47.5468V178.311H54.6218V178.973C54.6218 180.02 54.4338 180.989 54.0578 181.888C53.6818 182.787 53.1672 183.578 52.5142 184.25C51.8512 184.922 51.0793 185.445 50.1888 185.831C49.2982 186.216 48.3384 186.404 47.3093 186.404V186.374Z" fill="#FF6383"/>
<path d="M56.1456 186.147L62.3796 171.127H64.3784L70.5629 186.147H68.752L66.8621 181.423H59.7672L57.8575 186.147H56.1357H56.1456ZM60.361 180.01H66.2882L63.3196 172.649L60.3511 180.01H60.361Z" fill="#FF6383"/>
<path d="M73.373 186.147V171.127H75.6984L80.834 181.789L85.9498 171.127H88.2751V186.147H86.7117V173.014L80.8241 185.079L74.9365 173.044V186.156H73.373V186.147Z" fill="#FF6383"/>
<path d="M92.6491 186.147V171.127H103.415V172.589H94.3015V177.846H100.258V179.289H94.3015V184.694H103.494V186.156H92.6392L92.6491 186.147Z" fill="#FF6383"/>
<path d="M119.752 186.374C118.663 186.374 117.644 186.176 116.704 185.781C115.754 185.386 114.933 184.833 114.21 184.131C113.498 183.42 112.934 182.599 112.548 181.661C112.152 180.722 111.954 179.714 111.954 178.627C111.954 177.54 112.152 176.532 112.548 175.594C112.944 174.655 113.498 173.835 114.21 173.123C114.923 172.412 115.754 171.868 116.704 171.473C117.654 171.078 118.663 170.88 119.752 170.88C120.543 170.88 121.295 170.979 122.018 171.167C122.74 171.364 123.413 171.641 124.036 172.007C124.66 172.372 125.214 172.817 125.699 173.35L124.6 174.507C124.016 173.835 123.284 173.311 122.433 172.955C121.572 172.59 120.682 172.412 119.752 172.412C118.881 172.412 118.07 172.57 117.327 172.886C116.585 173.202 115.932 173.637 115.388 174.21C114.834 174.773 114.408 175.435 114.102 176.186C113.795 176.937 113.636 177.758 113.636 178.647C113.636 179.536 113.795 180.337 114.102 181.097C114.408 181.858 114.844 182.52 115.398 183.084C115.952 183.647 116.615 184.091 117.367 184.408C118.119 184.724 118.93 184.882 119.801 184.882C120.731 184.882 121.622 184.704 122.463 184.339C123.304 183.973 124.016 183.469 124.59 182.827L125.669 183.943C125.164 184.457 124.6 184.902 123.977 185.277C123.354 185.653 122.681 185.929 121.968 186.127C121.256 186.325 120.514 186.414 119.752 186.414V186.374Z" fill="#FF6383"/>
<path d="M129.251 186.147V171.127H140.017V172.589H130.904V177.846H136.86V179.289H130.904V184.694H140.096V186.156H129.241L129.251 186.147Z" fill="#FF6383"/>
<path d="M143.569 186.147V171.127H145.222L154.266 183.321V171.127H155.829V186.147H154.365L145.123 173.637V186.147H143.549H143.569Z" fill="#FF6383"/>
<path d="M164.369 186.147V172.609H158.927V171.127H171.454V172.609H166.011V186.147H164.359H164.369Z" fill="#FF6383"/>
<path d="M174.551 186.147V171.127H185.317V172.589H176.203V177.846H182.16V179.289H176.203V184.694H185.396V186.156H174.541L174.551 186.147Z" fill="#FF6383"/>
<path d="M188.859 186.147V171.127H195.311C196.301 171.127 197.161 171.305 197.894 171.661C198.626 172.016 199.19 172.52 199.605 173.163C200.011 173.805 200.219 174.566 200.219 175.435C200.219 176.423 199.932 177.273 199.348 177.975C198.764 178.686 197.993 179.18 197.013 179.467L200.387 186.137H198.557L195.331 179.674H190.522V186.137H188.859V186.147ZM190.512 178.291H195.192C196.211 178.291 197.023 178.034 197.626 177.52C198.23 177.006 198.537 176.315 198.537 175.435C198.537 174.556 198.23 173.894 197.626 173.38C197.023 172.866 196.202 172.609 195.192 172.609H190.512V178.301V178.291Z" fill="#FF6383"/>
</svg>
