<svg width="222" height="33" viewBox="0 0 222 33" fill="none" xmlns="http://www.w3.org/2000/svg">
<path d="M0.999908 28.0458V3.25449C0.999908 2.57023 1.56212 2.00879 2.24734 2.00879H15.407C17.1991 2.00879 18.7979 2.39478 20.1859 3.158C21.5739 3.92121 22.6808 4.97391 23.4802 6.29857C24.2884 7.62323 24.6925 9.14088 24.6925 10.8603C24.6925 12.5797 24.2884 13.9746 23.4802 15.2817C22.672 16.5976 21.5652 17.624 20.1596 18.3784C18.754 19.1328 17.164 19.5101 15.3982 19.5101H8.95895C8.27373 19.5101 7.71152 20.0715 7.71152 20.7558V28.0458C7.71152 28.73 7.14925 29.2915 6.46404 29.2915H2.24734C1.56212 29.2915 0.999908 28.73 0.999908 28.0458ZM7.71152 12.7289C7.71152 13.4131 8.27373 13.9746 8.95895 13.9746H14.6164C15.6091 13.9746 16.3997 13.6851 16.9971 13.1149C17.5944 12.5446 17.8931 11.799 17.8931 10.8954C17.8931 9.99182 17.5944 9.20229 16.9971 8.61453C16.3997 8.02677 15.6091 7.73727 14.6164 7.73727H8.95895C8.27373 7.73727 7.71152 8.29872 7.71152 8.98298V12.7289Z" fill="#A4003B" stroke="#A4003B" stroke-miterlimit="10"/>
<path d="M28.1277 28.0458V3.25449C28.1277 2.57023 28.6899 2.00879 29.3751 2.00879H33.5918C34.277 2.00879 34.8393 2.57023 34.8393 3.25449V22.1243C34.8393 22.8085 35.4015 23.37 36.0867 23.37H47.9901C48.6754 23.37 49.2376 23.9314 49.2376 24.6157V28.0458C49.2376 28.73 48.6754 29.2915 47.9901 29.2915H29.3663C28.6811 29.2915 28.1189 28.73 28.1189 28.0458H28.1277Z" fill="#A4003B" stroke="#A4003B" stroke-miterlimit="10"/>
<path d="M51.5564 27.572L61.738 2.78078C61.9313 2.31583 62.3881 2.00879 62.8888 2.00879H68.8976C69.4071 2.00879 69.8639 2.31583 70.0572 2.78955L80.0982 27.5808C80.4321 28.3967 79.8259 29.2915 78.9386 29.2915H74.3881C73.8698 29.2915 73.4043 28.9669 73.2198 28.4844L71.331 23.5103C71.1465 23.0279 70.6809 22.7033 70.1626 22.7033H61.2285C60.7102 22.7033 60.2446 23.0191 60.0601 23.5016L58.1362 28.4932C57.9517 28.9757 57.4862 29.2915 56.9679 29.2915H52.6984C51.8111 29.2915 51.205 28.3879 51.5476 27.572H51.5564ZM64.2241 17.3608H67.2461C68.1157 17.3608 68.7219 16.4923 68.4144 15.6764L66.921 11.7025C66.5169 10.6322 64.9972 10.6234 64.5843 11.6937L63.0557 15.6677C62.7395 16.4835 63.3456 17.3608 64.2241 17.3608Z" fill="#A4003B" stroke="#A4003B" stroke-miterlimit="10"/>
<path d="M86.3707 28.0458V19.4925C86.3707 19.2469 86.3005 19.01 86.1599 18.8082L76.3297 3.93875C75.785 3.11413 76.3736 2.00879 77.3751 2.00879H82.1013C82.5318 2.00879 82.9271 2.2281 83.1555 2.58778L88.8832 11.5533C89.3751 12.3166 90.4908 12.3253 90.9828 11.5533L96.7456 2.57901C96.974 2.21933 97.3693 2.00879 97.7998 2.00879H102.096C103.088 2.00879 103.686 3.11413 103.141 3.93875L93.3108 18.8082C93.179 19.01 93.0999 19.2469 93.0999 19.4925V28.0458C93.0999 28.73 92.5377 29.2915 91.8524 29.2915H87.6357C86.9505 29.2915 86.3883 28.73 86.3883 28.0458H86.3707Z" fill="#A4003B" stroke="#A4003B" stroke-miterlimit="10"/>
<path d="M115.542 27.4669V2.67562C115.542 1.99136 116.104 1.42992 116.789 1.42992H121.26C121.647 1.42992 122.007 1.60537 122.244 1.90364L132.048 14.4045C132.777 15.3344 134.28 14.8168 134.28 13.6325V2.66684C134.28 1.98259 134.842 1.42114 135.527 1.42114H139.357C140.042 1.42114 140.605 1.98259 140.605 2.66684V27.4581C140.605 28.1424 140.042 28.7038 139.357 28.7038H135.281C134.894 28.7038 134.534 28.5284 134.297 28.2213L124.107 15.1239C123.378 14.1852 121.875 14.7028 121.875 15.8871V27.4581C121.875 28.1424 121.313 28.7038 120.628 28.7038H116.798C116.113 28.7038 115.55 28.1424 115.55 27.4581H115.542V27.4669Z" fill="#A4003B" stroke="#A4003B" stroke-miterlimit="10"/>
<path d="M158.763 29.1424C156.708 29.1424 154.792 28.7827 153.027 28.0721C151.261 27.3615 149.706 26.3527 148.38 25.0719C147.053 23.7823 146.016 22.291 145.279 20.5891C144.541 18.8873 144.163 17.045 144.163 15.0712C144.163 13.0974 144.532 11.2551 145.279 9.55325C146.016 7.85137 147.053 6.36004 148.38 5.07047C149.706 3.7809 151.252 2.78082 153.027 2.07025C154.792 1.35967 156.708 1 158.763 1C160.819 1 162.734 1.35967 164.5 2.07025C166.265 2.7896 167.82 3.78967 169.147 5.07047C170.473 6.36004 171.51 7.85137 172.248 9.55325C172.986 11.2551 173.364 13.0974 173.364 15.0712C173.364 17.045 172.995 18.8873 172.248 20.5891C171.51 22.291 170.473 23.7823 169.147 25.0719C167.82 26.3615 166.274 27.3615 164.5 28.0721C162.734 28.7827 160.819 29.1424 158.763 29.1424ZM158.763 22.984C159.853 22.984 160.872 22.7823 161.812 22.3787C162.752 21.9752 163.56 21.4225 164.254 20.7207C164.939 20.0189 165.484 19.1767 165.87 18.203C166.257 17.2292 166.459 16.1853 166.459 15.0624C166.459 13.9395 166.265 12.8693 165.87 11.9043C165.484 10.9393 164.939 10.1147 164.254 9.41288C163.56 8.71108 162.752 8.15841 161.812 7.75487C160.872 7.35133 159.861 7.14956 158.763 7.14956C157.665 7.14956 156.655 7.35133 155.715 7.75487C154.775 8.15841 153.967 8.71108 153.273 9.41288C152.579 10.1147 152.043 10.9481 151.656 11.9043C151.27 12.8693 151.068 13.9044 151.068 15.0186C151.068 16.1327 151.261 17.2205 151.656 18.1942C152.043 19.168 152.587 20.0101 153.273 20.7119C153.958 21.4137 154.775 21.9664 155.715 22.37C156.655 22.7735 157.665 22.9753 158.763 22.9753V22.984Z" fill="#A4003B" stroke="#A4003B" stroke-miterlimit="10"/>
<path d="M180.831 27.7387L175.296 2.94746C175.12 2.1667 175.718 1.42981 176.517 1.42981H180.839C181.437 1.42981 181.946 1.85089 182.06 2.43866L184.169 13.1587C184.424 14.4483 186.242 14.5185 186.593 13.2552L189.677 2.34216C189.826 1.80703 190.318 1.43858 190.88 1.43858H195.273C195.835 1.43858 196.318 1.80703 196.476 2.34216L199.56 13.2552C199.92 14.5185 201.73 14.4483 201.984 13.1587L204.093 2.43866C204.207 1.85089 204.725 1.42981 205.314 1.42981H209.408C210.207 1.42981 210.804 2.1667 210.629 2.94746L205.094 27.7387C204.971 28.3089 204.462 28.7125 203.873 28.7125H198.716C198.154 28.7125 197.662 28.3353 197.513 27.8001L194.166 15.6677C193.832 14.4483 192.102 14.4483 191.759 15.6677L188.377 27.8001C188.227 28.3353 187.735 28.7125 187.173 28.7125H182.017C181.428 28.7125 180.927 28.3089 180.795 27.7387H180.831Z" fill="#A4003B" stroke="#A4003B" stroke-miterlimit="10"/>
<path d="M216.91 29.1426C215.917 29.1426 215.065 28.7829 214.353 28.0723C213.633 27.3617 213.281 26.5108 213.281 25.5195C213.281 24.5282 213.642 23.6773 214.353 22.9667C215.065 22.2561 215.917 21.8964 216.91 21.8964C217.902 21.8964 218.754 22.2561 219.466 22.9667C220.178 23.686 220.538 24.537 220.538 25.5195C220.538 26.502 220.178 27.3617 219.466 28.0723C218.746 28.7829 217.894 29.1426 216.91 29.1426ZM214.441 19.098L213.765 2.52661C213.738 1.81604 214.301 1.22827 215.012 1.22827H218.816C219.527 1.22827 220.09 1.81604 220.063 2.52661L219.387 19.098C219.361 19.7647 218.807 20.2911 218.14 20.2911H215.697C215.03 20.2911 214.476 19.7647 214.45 19.098H214.441Z" fill="#A4003B" stroke="#A4003B" stroke-miterlimit="10"/>
<path d="M0.749908 5.76743V30.5587C0.749908 31.3814 1.42438 32.0544 2.24734 32.0544H6.46404C7.28699 32.0544 7.96152 31.3814 7.96152 30.5587V23.2687C7.96152 22.7228 8.41148 22.273 8.95895 22.273H15.3982C17.2006 22.273 18.832 21.8876 20.2778 21.1116C21.7202 20.3374 22.8606 19.2811 23.6931 17.9258C24.5266 16.5776 24.9425 15.1369 24.9425 13.3732C24.9425 11.613 24.5283 10.0495 23.6938 8.68163C22.871 7.31844 21.7315 6.23547 20.3064 5.45187C18.877 4.66593 17.2359 4.27173 15.407 4.27173H2.24734C1.42438 4.27173 0.749908 4.94478 0.749908 5.76743ZM8.95895 16.2375C8.41148 16.2375 7.96152 15.7877 7.96152 15.2418V11.4959C7.96152 10.9501 8.41148 10.5002 8.95895 10.5002H14.6164C15.557 10.5002 16.28 10.7726 16.8217 11.3057C17.3649 11.8401 17.6431 12.5622 17.6431 13.4083C17.6431 14.2515 17.367 14.9291 16.8245 15.447C16.2819 15.9648 15.5573 16.2375 14.6164 16.2375H8.95895Z" fill="#FFC1CD" stroke="#A4003B" stroke-width="0.5" stroke-miterlimit="10"/>
<path d="M27.8777 5.76743V30.3087H27.8689V30.5587C27.8689 31.3814 28.5434 32.0544 29.3663 32.0544H47.9901C48.8131 32.0544 49.4876 31.3814 49.4876 30.5587V27.1286C49.4876 26.306 48.8131 25.6329 47.9901 25.6329H36.0867C35.5393 25.6329 35.0893 25.1831 35.0893 24.6372V5.76743C35.0893 4.94476 34.4148 4.27173 33.5918 4.27173H29.3751C28.5522 4.27173 27.8777 4.94478 27.8777 5.76743Z" fill="#FFC1CD" stroke="#A4003B" stroke-width="0.5" stroke-miterlimit="10"/>
<path d="M68.1805 18.2865L68.1804 18.2862L66.6871 14.3126C66.3638 13.4564 65.1477 13.4503 64.8176 14.3053L68.1805 18.2865ZM68.1805 18.2865C68.4259 18.9376 67.9423 19.6326 67.2461 19.6326H64.2241C63.5191 19.6326 63.0369 18.9298 63.2888 18.2799L63.2891 18.2793L64.8175 14.3055L68.1805 18.2865ZM61.5072 5.20667L61.5068 5.20765L51.3888 29.8439H51.3814L51.3171 29.9971C50.9045 30.9797 51.6346 32.0633 52.6984 32.0633H56.9679C57.588 32.0633 58.1475 31.6853 58.3696 31.1045C58.3697 31.1044 58.3697 31.1044 58.3697 31.1043L60.2934 26.1133L60.2936 26.1127C60.4404 25.7286 60.812 25.4751 61.2285 25.4751H70.1626C70.576 25.4751 70.9495 25.7346 71.0974 26.1213C71.0974 26.1213 71.0975 26.1214 71.0975 26.1215L72.9861 31.095L72.9863 31.0955C73.2073 31.6737 73.765 32.0633 74.3881 32.0633H78.9386C80.0008 32.0633 80.7315 30.9911 80.3298 30.0085C80.3298 30.0083 80.3297 30.0082 80.3296 30.008L70.2889 5.21755L70.2887 5.21696C70.0571 4.6494 69.509 4.28064 68.8976 4.28064H62.8888C62.286 4.28064 61.7388 4.64946 61.5072 5.20667Z" fill="#FFC1CD" stroke="#A4003B" stroke-width="0.5" stroke-miterlimit="10"/>
<path d="M86.1207 30.5587V30.8087H86.1594C86.2795 31.5134 86.8979 32.0544 87.6357 32.0544H91.8525C92.6754 32.0544 93.3499 31.3814 93.3499 30.5587V22.0054C93.3499 21.8139 93.4117 21.6241 93.5197 21.4584C93.5199 21.4582 93.52 21.4581 93.5201 21.4579L103.35 6.58956L103.35 6.58948C104.005 5.59716 103.286 4.27173 102.096 4.27173H97.7998C97.2873 4.27173 96.8111 4.52307 96.535 4.95722C96.5349 4.95745 96.5347 4.95769 96.5346 4.95793L90.7724 13.9312L90.7719 13.9319C90.3798 14.5473 89.4886 14.5436 89.0935 13.9312C89.0935 13.9311 89.0934 13.931 89.0933 13.9308L83.3666 4.9667C83.3665 4.96663 83.3665 4.96656 83.3664 4.96648C83.0923 4.535 82.6176 4.27173 82.1013 4.27173H77.3751C76.1746 4.27173 75.4665 5.59847 76.1211 6.58948L76.1211 6.58956L85.9514 21.4591L85.9513 21.4591L85.9548 21.4641C86.0645 21.6217 86.1207 21.8081 86.1207 22.0054V30.5587Z" fill="#FFC1CD" stroke="#A4003B" stroke-width="0.5" stroke-miterlimit="10"/>
<path d="M122.441 4.27096L122.441 4.27096L122.44 4.26964C122.155 3.91186 121.723 3.70152 121.26 3.70152H116.789C115.966 3.70152 115.292 4.37456 115.292 5.19723V29.7297V29.9797V29.9885H115.3C115.305 30.8072 115.978 31.4754 116.798 31.4754H120.628C121.451 31.4754 122.125 30.8024 122.125 29.9797V18.4087C122.125 17.4623 123.326 17.0485 123.909 17.7989L123.909 17.799L134.099 30.8958C134.099 30.8958 134.099 30.8959 134.099 30.896C134.384 31.2645 134.818 31.4754 135.281 31.4754H139.357C140.18 31.4754 140.855 30.8024 140.855 29.9797V5.18846C140.855 4.36579 140.18 3.69275 139.357 3.69275H135.527C134.704 3.69275 134.03 4.3658 134.03 5.18846V16.1542C134.03 17.101 132.827 17.5148 132.245 16.7719L132.245 16.7719L122.441 4.27096Z" fill="#FFC1CD" stroke="#A4003B" stroke-width="0.5" stroke-miterlimit="10"/>
<path d="M148.205 27.7728L148.206 27.7734C149.556 29.0769 151.138 30.1032 152.933 30.8257C154.731 31.549 156.678 31.914 158.763 31.914C160.848 31.914 162.795 31.549 164.593 30.8258C166.397 30.1034 167.971 29.0857 169.321 27.7728C170.671 26.4608 171.726 24.9426 172.477 23.2104C173.239 21.4747 173.614 19.5982 173.614 17.5928C173.614 15.5863 173.229 13.71 172.477 11.9754C171.726 10.2431 170.671 8.7248 169.321 7.41282L169.321 7.41223C167.97 6.10826 166.388 5.09112 164.594 4.36033L164.593 4.35994C162.796 3.6366 160.849 3.27161 158.763 3.27161C156.678 3.27161 154.731 3.63659 152.933 4.3599C151.13 5.08227 149.556 6.09997 148.205 7.41282C146.856 8.72468 145.8 10.2429 145.049 11.9749C144.288 13.7107 143.913 15.5873 143.913 17.5928C143.913 19.5993 144.297 21.4756 145.049 23.2102C145.8 24.9425 146.856 26.4608 148.205 27.7728ZM165.638 14.5189L165.639 14.5207C166.02 15.452 166.209 16.4896 166.209 17.584C166.209 18.6761 166.012 19.6887 165.638 20.6324C165.263 21.5764 164.736 22.3901 164.075 23.0672C163.404 23.7455 162.623 24.2798 161.713 24.6706C160.878 25.029 159.977 25.2234 159.013 25.252V25.2469H158.763C157.697 25.2469 156.72 25.0512 155.814 24.6618C154.902 24.2705 154.113 23.736 153.452 23.0589C152.79 22.3817 152.263 21.5679 151.889 20.6236L151.888 20.6218C151.506 19.6814 151.318 18.626 151.318 17.5402C151.318 16.4573 151.514 15.4538 151.888 14.5192C152.263 13.5914 152.782 12.7867 153.45 12.1103C154.122 11.4316 154.903 10.8972 155.814 10.5062C156.72 10.1169 157.697 9.92118 158.763 9.92118C159.83 9.92118 160.806 10.1169 161.713 10.5062C162.623 10.8971 163.404 11.4313 164.075 12.1097C164.738 12.788 165.264 13.5847 165.638 14.5189Z" fill="#FFC1CD" stroke="#A4003B" stroke-width="0.5" stroke-miterlimit="10"/>
<path d="M180.519 30.0106L175.052 5.5242C175.052 5.52413 175.052 5.52405 175.052 5.52397C174.841 4.58491 175.56 3.70166 176.517 3.70166H180.839C181.557 3.70166 182.169 4.20794 182.306 4.91262C182.306 4.91269 182.306 4.91276 182.306 4.91282L184.414 15.6321C184.618 16.6648 186.072 16.718 186.353 15.7101L186.353 15.7091L189.436 4.79681C189.436 4.79667 189.436 4.79653 189.436 4.79639C189.616 4.15116 190.209 3.71043 190.88 3.71043H195.273C195.948 3.71043 196.527 4.15356 196.716 4.79316L196.717 4.79603L196.717 4.79603L199.8 15.7085C199.8 15.7086 199.8 15.7086 199.8 15.7087C200.089 16.7219 201.536 16.6612 201.739 15.6323L180.519 30.0106ZM180.519 30.0106H180.481L180.552 30.3169C180.71 30.9993 181.31 31.4843 182.017 31.4843H187.173C187.848 31.4843 188.438 31.032 188.618 30.3892L188.618 30.3891L192 18.2572C192 18.2571 192 18.257 192 18.257C192.275 17.2778 193.659 17.2847 193.925 18.2555L193.925 18.256L197.272 30.3885L197.272 30.3892C197.452 31.032 198.042 31.4843 198.716 31.4843H203.873C204.576 31.4843 205.19 31.0019 205.338 30.314C205.339 30.3138 205.339 30.3135 205.339 30.3133L210.873 5.5242C211.084 4.58507 210.365 3.70166 209.408 3.70166H205.314C204.606 3.70166 203.985 4.20698 203.847 4.91282L201.739 15.6321L180.519 30.0106Z" fill="#FFC1CD" stroke="#A4003B" stroke-width="0.5" stroke-miterlimit="10"/>
<path d="M219.644 25.3123L219.643 25.3113C218.885 24.5551 217.97 24.1679 216.91 24.1679C215.849 24.1679 214.934 24.5551 214.177 25.3113C213.419 26.0674 213.031 26.9815 213.031 28.041C213.031 29.0989 213.41 30.0138 214.177 30.7712C214.934 31.527 215.849 31.914 216.91 31.914C217.962 31.914 218.876 31.5265 219.642 30.7718L219.643 30.7707C220.4 30.0143 220.788 29.0914 220.788 28.041C220.788 26.9897 220.399 26.0764 219.644 25.3123ZM214.191 21.6297L214.201 21.8695H214.229C214.369 22.5541 214.979 23.0625 215.697 23.0625H218.14C218.94 23.0625 219.605 22.4319 219.637 21.6296C219.637 21.6295 219.637 21.6294 219.637 21.6293L220.313 5.05829L220.313 5.05736C220.345 4.20619 219.67 3.49976 218.816 3.49976H215.012C214.158 3.49976 213.483 4.20619 213.515 5.05736L213.515 5.05829L214.191 21.6297Z" fill="#FFC1CD" stroke="#A4003B" stroke-width="0.5" stroke-miterlimit="10"/>
</svg>
