<svg width="168" height="44" viewBox="0 0 168 44" fill="none" xmlns="http://www.w3.org/2000/svg">
<path d="M6.76725 6.57062L6.76678 6.57108C4.8909 8.40906 3.41153 10.5442 2.34949 12.9752C1.28581 15.4099 0.75 18.0408 0.75 20.8651C0.75 23.6894 1.28581 26.3203 2.34949 28.755C3.41183 31.1867 4.90171 33.3227 6.82795 35.1614C8.75336 36.9993 10.9767 38.432 13.5161 39.4492C15.9826 40.4372 18.6341 40.9495 21.4775 40.9788V40.9997H21.7275C24.5998 40.9997 27.2507 40.5066 29.6768 39.4969C32.1005 38.498 34.198 37.073 35.9772 35.2324L35.9777 35.2319C37.7461 33.3921 39.1261 31.2365 40.118 28.7677L40.1184 28.7669C41.1018 26.2944 41.597 23.5978 41.597 20.6699V19.1568C41.597 18.3344 40.9251 17.6671 40.1018 17.6671H21.8647C21.0414 17.6671 20.3695 18.3344 20.3695 19.1568V24.8674C20.3695 25.6898 21.0414 26.3571 21.8647 26.3571H29.1007C29.8944 26.3571 30.3703 27.2319 29.9403 27.8938C29.6742 28.3006 29.3608 28.6976 29.0005 29.0658L28.999 29.0674C28.1418 29.9587 27.1119 30.6525 25.9058 31.1576C24.7045 31.6607 23.4338 31.9094 21.8843 31.9094C20.3361 31.9094 18.8987 31.6319 17.5889 31.0798C16.2744 30.5257 15.1151 29.7528 14.1286 28.7706C13.1343 27.7807 12.3778 26.6186 11.8307 25.2712C11.2852 23.9277 11.0156 22.4665 11.0156 20.8749C11.0156 19.2821 11.2757 17.8301 11.802 16.5061L11.8025 16.5046C12.3204 15.1776 13.0571 14.026 14.0118 13.0661L14.0127 13.0652C14.97 12.093 16.0903 11.3301 17.3658 10.7763C18.6356 10.225 20.0328 9.94769 21.551 9.94769C23.467 9.94769 25.2327 10.3405 26.8328 11.1322L26.8329 11.1323C28.1071 11.7618 29.2596 12.6406 30.2999 13.7626C30.8595 14.3662 31.7997 14.43 32.4153 13.8761L37.2488 9.54218L37.251 9.5401C37.8603 8.98017 37.9099 8.03278 37.3558 7.42177C35.6154 5.49104 33.4791 3.94874 30.9506 2.78385L30.9503 2.78373C28.005 1.43111 24.8809 0.75 21.5608 0.75C18.6578 0.75 15.9395 1.2631 13.3984 2.28099C10.8586 3.29836 8.6541 4.73161 6.76725 6.57062Z" fill="#102870" stroke="#102870" stroke-width="0.5"/>
<path d="M56.4604 2.27179L41.6796 38.1572H41.5872V38.3801C41.2289 39.3506 41.9408 40.3948 42.9942 40.3948H50.1714C50.7957 40.3948 51.348 40.0079 51.5711 39.4351L51.5713 39.4345L54.552 31.7227L54.5524 31.7218C54.7012 31.3318 55.0682 31.0822 55.4856 31.0822H68.8594C69.2767 31.0822 69.6437 31.3318 69.7926 31.7217C69.7926 31.7217 69.7926 31.7217 69.7926 31.7218L72.7242 39.4139L72.7249 39.4156C72.948 39.9884 73.5002 40.3753 74.1246 40.3753H81.694C82.7511 40.3753 83.4837 39.3099 83.0826 38.3229C83.0825 38.3229 83.0825 38.3229 83.0825 38.3229L68.4452 2.28603C68.445 2.28546 68.4448 2.28488 68.4446 2.2843C68.219 1.70739 67.6637 1.34583 67.0553 1.34583H57.8486C57.2373 1.34583 56.6957 1.70953 56.461 2.27048L56.4604 2.27179ZM59.3193 23.0266H59.1781C58.5568 22.9397 58.1534 22.2876 58.3856 21.6879L58.3858 21.6874L61.3076 14.1026L61.3078 14.1022C61.6385 13.2398 62.8538 13.2456 63.1738 14.1004L63.1739 14.1007L66.027 21.6854C66.2697 22.3322 65.7923 23.0266 65.0943 23.0266H59.3193Z" fill="#102870" stroke="#102870" stroke-width="0.5"/>
<path d="M86.1112 38.8758V39.1258H86.1519C86.2716 39.8293 86.8879 40.3655 87.626 40.3655H93.8619C94.6853 40.3655 95.3571 39.6982 95.3571 38.8758V18.7081C95.3571 17.6823 96.7443 17.3249 97.2402 18.2409C97.2403 18.2411 97.2403 18.2412 97.2404 18.2413L106.506 35.4508L106.506 35.4514C107.071 36.4947 108.577 36.4947 109.142 35.4514L109.142 35.4513L118.408 18.3292L118.408 18.3277C118.893 17.4174 120.281 17.7655 120.281 18.796V38.8758C120.281 39.6982 120.953 40.3655 121.776 40.3655H128.238C129.061 40.3655 129.733 39.6982 129.733 38.8758V2.83556C129.733 2.01314 129.061 1.34583 128.238 1.34583H118.247C117.684 1.34583 117.177 1.65004 116.917 2.14311C116.917 2.14315 116.917 2.14318 116.917 2.14322L108.809 17.5368C108.809 17.5369 108.809 17.5369 108.809 17.537C108.432 18.2478 107.412 18.2478 107.035 17.537C107.035 17.5369 107.035 17.5369 107.035 17.5368L98.9268 2.14322C98.9268 2.14318 98.9267 2.14315 98.9267 2.14311C98.6667 1.64907 98.149 1.34583 97.5976 1.34583H87.6064C86.7831 1.34583 86.1112 2.01313 86.1112 2.83556V38.8758Z" fill="#102870" stroke="#102870" stroke-width="0.5"/>
<path d="M135.645 2.83556V38.8465V38.8758H135.646C135.661 39.6847 136.327 40.3363 137.141 40.3363H165.379C166.202 40.3363 166.874 39.669 166.874 38.8465V33.1359C166.874 32.3135 166.202 31.6462 165.379 31.6462H146.651C146.102 31.6462 145.656 31.2007 145.656 30.6564V25.8732C145.656 25.329 146.102 24.8835 146.651 24.8835H158.035C158.858 24.8835 159.53 24.2162 159.53 23.3937V17.9565C159.53 17.134 158.858 16.4667 158.035 16.4667H146.651C146.102 16.4667 145.656 16.0212 145.656 15.477V11.0256C145.656 10.4814 146.102 10.0359 146.651 10.0359H165.163C165.986 10.0359 166.658 9.3686 166.658 8.54617V2.83556C166.658 2.01313 165.986 1.34583 165.163 1.34583H137.141C136.317 1.34583 135.645 2.01313 135.645 2.83556Z" fill="#102870" stroke="#102870" stroke-width="0.5"/>
<path d="M6.76725 8.91302L6.76678 8.91349C4.8909 10.7515 3.41153 12.8866 2.34949 15.3176C1.28581 17.7523 0.75 20.3832 0.75 23.2075C0.75 26.0318 1.28581 28.6627 2.34949 31.0974C3.41183 33.5291 4.90171 35.6651 6.82795 37.5038C8.75336 39.3417 10.9767 40.7744 13.5161 41.7916C15.9826 42.7796 18.6341 43.2919 21.4775 43.3213V43.3421H21.7275C24.5998 43.3421 27.2507 42.849 29.6768 41.8393C32.1005 40.8404 34.198 39.4154 35.9772 37.5748L35.9777 37.5743C37.7461 35.7345 39.1261 33.5789 40.118 31.1101L40.1184 31.1093C41.1018 28.6368 41.597 25.9402 41.597 23.0123V21.4992C41.597 20.6768 40.9251 20.0095 40.1018 20.0095H21.8647C21.0414 20.0095 20.3695 20.6768 20.3695 21.4992V27.2098C20.3695 28.0322 21.0414 28.6995 21.8647 28.6995H29.1007C29.8944 28.6995 30.3703 29.5743 29.9403 30.2362C29.6742 30.643 29.3608 31.04 29.0005 31.4082L28.999 31.4098C28.1418 32.3011 27.1119 32.9949 25.9058 33.5C24.7045 34.0031 23.4338 34.2518 21.8843 34.2518C20.3361 34.2518 18.8987 33.9743 17.5889 33.4222C16.2744 32.8681 15.1151 32.0952 14.1286 31.113C13.1343 30.1231 12.3778 28.961 11.8307 27.6136C11.2852 26.2701 11.0156 24.8089 11.0156 23.2173C11.0156 21.6245 11.2757 20.1725 11.802 18.8485L11.8025 18.847C12.3204 17.52 13.0571 16.3685 14.0118 15.4085L14.0127 15.4076C14.97 14.4354 16.0903 13.6725 17.3658 13.1187C18.6356 12.5674 20.0328 12.2901 21.551 12.2901C23.467 12.2901 25.2327 12.6829 26.8328 13.4746L26.8329 13.4747C28.1071 14.1042 29.2596 14.983 30.2999 16.105C30.8595 16.7086 31.7997 16.7724 32.4153 16.2185L37.2488 11.8846L37.251 11.8825C37.8603 11.3226 37.9099 10.3752 37.3558 9.76418C35.6154 7.83345 33.4791 6.29115 30.9506 5.12626L30.9503 5.12613C28.005 3.77352 24.8809 3.09241 21.5608 3.09241C18.6578 3.09241 15.9395 3.6055 13.3984 4.6234C10.8586 5.64077 8.6541 7.07402 6.76725 8.91302Z" fill="#629EFF" stroke="#102870" stroke-width="0.5"/>
<path d="M56.4604 4.61432L41.6796 40.4998H41.5872V40.7226C41.2289 41.6931 41.9408 42.7374 42.9942 42.7374H50.1714C50.7957 42.7374 51.348 42.3504 51.5711 41.7776L51.5713 41.777L54.552 34.0653L54.5524 34.0643C54.7012 33.6743 55.0682 33.4247 55.4856 33.4247H68.8594C69.2767 33.4247 69.6437 33.6743 69.7926 34.0642C69.7926 34.0642 69.7926 34.0643 69.7926 34.0643L72.7242 41.7564L72.7249 41.7581C72.948 42.3309 73.5002 42.7178 74.1246 42.7178H81.694C82.7511 42.7178 83.4837 41.6524 83.0826 40.6655C83.0825 40.6654 83.0825 40.6654 83.0825 40.6654L68.4452 4.62856C68.445 4.62799 68.4448 4.62741 68.4446 4.62683C68.219 4.04991 67.6637 3.68835 67.0553 3.68835H57.8486C57.2373 3.68835 56.6957 4.05206 56.461 4.61301L56.4604 4.61432ZM59.3193 25.3691H59.1781C58.5568 25.2822 58.1534 24.6302 58.3856 24.0304L58.3858 24.03L61.3076 16.4451L61.3078 16.4448C61.6385 15.5824 62.8538 15.5882 63.1738 16.4429L63.1739 16.4433L66.027 24.0279C66.2697 24.6748 65.7923 25.3691 65.0943 25.3691H59.3193Z" fill="#629EFF" stroke="#102870" stroke-width="0.5"/>
<path d="M86.1112 41.2183V41.4683H86.1519C86.2716 42.1718 86.8879 42.7081 87.626 42.7081H93.8619C94.6853 42.7081 95.3571 42.0408 95.3571 41.2183V21.0506C95.3571 20.0248 96.7443 19.6674 97.2402 20.5834C97.2403 20.5836 97.2403 20.5837 97.2404 20.5839L106.506 37.7933L106.506 37.7939C107.071 38.8373 108.577 38.8373 109.142 37.7939L109.142 37.7938L118.408 20.6718L118.408 20.6703C118.893 19.76 120.281 20.1081 120.281 21.1385V41.2183C120.281 42.0408 120.953 42.7081 121.776 42.7081H128.238C129.061 42.7081 129.733 42.0408 129.733 41.2183V5.17809C129.733 4.35567 129.061 3.68835 128.238 3.68835H118.247C117.684 3.68835 117.177 3.99257 116.917 4.48564C116.917 4.48568 116.917 4.48571 116.917 4.48575L108.809 19.8793C108.809 19.8794 108.809 19.8795 108.809 19.8795C108.432 20.5903 107.412 20.5903 107.035 19.8795C107.035 19.8795 107.035 19.8794 107.035 19.8793L98.9268 4.48575C98.9268 4.48571 98.9267 4.48568 98.9267 4.48564C98.6667 3.9916 98.149 3.68835 97.5976 3.68835H87.6064C86.7831 3.68835 86.1112 4.35566 86.1112 5.17809V41.2183Z" fill="#629EFF" stroke="#102870" stroke-width="0.5"/>
<path d="M135.645 5.17809V41.1891V41.2183H135.646C135.661 42.0273 136.327 42.6788 137.141 42.6788H165.379C166.202 42.6788 166.874 42.0115 166.874 41.1891V35.4785C166.874 34.656 166.202 33.9887 165.379 33.9887H146.651C146.102 33.9887 145.656 33.5432 145.656 32.999V28.2157C145.656 27.6715 146.102 27.226 146.651 27.226H158.035C158.858 27.226 159.53 26.5587 159.53 25.7363V20.299C159.53 19.4766 158.858 18.8093 158.035 18.8093H146.651C146.102 18.8093 145.656 18.3637 145.656 17.8195V13.3682C145.656 12.824 146.102 12.3784 146.651 12.3784H165.163C165.986 12.3784 166.658 11.7111 166.658 10.8887V5.17809C166.658 4.35566 165.986 3.68835 165.163 3.68835H137.141C136.317 3.68835 135.645 4.35566 135.645 5.17809Z" fill="#629EFF" stroke="#102870" stroke-width="0.5"/>
</svg>
