<svg width="191" height="56" viewBox="0 0 191 56" fill="none" xmlns="http://www.w3.org/2000/svg">
<path d="M136.89 39.7369V53.4463C136.89 53.6922 136.879 53.9381 136.89 54.184C136.9 54.4299 136.777 54.4607 136.571 54.4607C135.443 54.4607 134.314 54.4402 133.185 54.4607C132.867 54.4607 132.857 54.307 132.867 54.0816V52.0733C132.867 51.9503 132.795 51.8376 132.754 51.7147C132.682 51.7864 132.569 51.8479 132.538 51.9401C132.22 52.7598 131.471 53.1491 130.804 53.5897C129.501 54.4402 128.054 54.891 126.473 54.8705H125.519C124.185 54.9115 122.995 54.3377 121.753 54.0098C120.357 53.0569 118.931 52.186 118.048 50.6388C117.299 49.3376 116.858 47.9646 116.55 46.4993C116.252 45.1059 116.324 43.7226 116.417 42.3701C116.499 41.2533 116.837 40.1262 117.279 39.0504C117.843 37.6774 118.654 36.4888 119.772 35.5564C120.809 34.6957 121.999 34.1015 123.343 33.7121C124.678 33.3228 125.991 33.251 127.305 33.374C128.608 33.4969 129.87 33.917 130.968 34.7162C131.266 34.9314 131.584 35.1363 131.851 35.3925C132.189 35.7204 132.6 36.0073 132.754 36.4888C133.031 35.9663 132.857 35.413 132.867 34.8802C132.887 31.7141 132.867 28.548 132.877 25.3922C132.877 25.0712 133.051 24.9072 133.4 24.9004H136.356C136.879 24.9004 136.89 24.9004 136.89 25.4844V39.7266V39.7369ZM126.761 51.2639C128.023 51.4175 129.131 51.0999 130.158 50.4441C131.143 49.8089 132.087 48.7638 132.549 47.6982C132.98 46.7248 133.103 45.6694 133.287 44.6243C133.441 43.7226 133.01 42.862 133.072 41.9705C133.072 41.9193 132.99 41.8578 132.98 41.7964C132.785 40.7 132.107 39.8291 131.553 38.9069C131.256 38.4151 129.911 37.6774 129.254 37.3393C128.413 36.9192 127.551 36.9601 126.668 36.9294C125.386 36.8987 124.257 37.2266 123.179 37.9643C122.009 38.7737 121.301 39.9008 120.86 41.1508C120.501 42.1755 120.296 43.3026 120.378 44.4399C120.47 45.7514 120.737 46.9912 121.383 48.149C121.548 48.4359 121.691 48.733 121.886 48.9994C122.461 49.8191 123.251 50.4544 124.154 50.8335C124.985 51.1819 125.878 51.4483 126.771 51.2536L126.761 51.2639Z" fill="white"/>
<path d="M171.576 44.2145C171.576 44.3887 171.555 44.5731 171.576 44.7371C171.75 45.8129 171.37 46.8273 171.093 47.8109C170.826 48.7638 170.354 49.6758 169.749 50.5262C168.989 51.5815 168.066 52.4217 167.04 53.1697C165.972 53.9484 164.197 54.4197 162.812 54.7066C161.95 54.8911 161.098 54.8911 160.246 54.8706C158.912 54.8296 157.629 54.4915 156.398 53.9894C154.9 53.3746 153.596 52.473 152.591 51.2229C151.831 50.2803 151.246 49.2249 150.825 48.0569C150.179 46.274 150.128 44.4502 150.241 42.6161C150.292 41.7145 150.589 40.8128 150.918 39.9521C151.698 37.8824 153.001 36.243 154.889 35.0442C156.305 34.1528 157.917 33.8044 158.922 33.5482C159.712 33.3536 160.492 33.3536 161.272 33.374C163.12 33.4253 164.874 33.8966 166.506 34.7573C166.855 34.9417 167.142 35.2491 167.481 35.4745C169.215 36.6631 170.611 38.6303 171.186 40.905C171.473 42.0116 171.586 43.0977 171.576 44.2145ZM160.605 51.3151C161.457 51.2742 162.011 51.2741 162.596 51.1102C163.438 50.8745 164.228 50.5364 164.885 50.0241C166.506 48.7741 167.265 46.981 167.522 45.024C167.737 43.3436 167.378 41.7042 166.506 40.1878C165.88 39.1119 165.131 38.2308 163.982 37.6775C163.294 37.3393 162.596 37.0115 161.857 36.9705C160.975 36.9192 160.092 36.8578 159.189 37.1242C158.358 37.3803 157.557 37.6979 156.901 38.2102C155.115 39.6345 154.438 41.6427 154.233 43.8354C154.12 45.065 154.51 46.233 154.889 47.3601C155.289 48.5282 156.08 49.563 157.116 50.1983C158.225 50.8848 159.456 51.4893 160.605 51.3049V51.3151Z" fill="white"/>
<path d="M112.363 44.1118V53.9175C112.363 54.2795 112.171 54.4605 111.788 54.4605C110.762 54.4605 109.746 54.4503 108.72 54.4605C108.371 54.4605 108.33 54.3273 108.33 54.0301C108.35 53.19 108.33 52.3395 108.33 51.4993C108.33 51.4379 108.289 51.3764 108.258 51.3149C108.207 51.3764 108.155 51.4379 108.114 51.5096C107.211 53.1182 105.764 54.0199 104.071 54.563C103.537 54.7372 102.994 54.9113 102.398 54.8806C101.475 54.8191 100.551 54.9421 99.6276 54.6757C98.704 54.399 97.8625 54.0199 97.0518 53.4769C95.574 52.483 94.8557 51.0485 94.3118 49.4501C94.1271 48.9173 93.9424 48.3947 93.9424 47.8107V34.419C93.9424 33.9954 94.1373 33.7837 94.5273 33.7837H97.3802C97.9549 33.7837 97.9651 33.7837 97.9651 34.419V46.3353C97.9651 47.7083 98.4885 48.8661 99.3916 49.8497C100.295 50.8333 101.454 51.2842 102.809 51.2944C104.43 51.3047 105.754 50.6694 106.821 49.5116C107.447 48.8251 107.807 47.9644 108.114 47.1037C108.279 46.6222 108.34 46.1303 108.34 45.6078C108.33 41.8474 108.34 38.0871 108.34 34.3267C108.34 33.9647 108.528 33.7837 108.905 33.7837C109.931 33.7837 110.947 33.7939 111.973 33.7837C112.322 33.7837 112.363 33.9066 112.363 34.2038C112.353 36.3452 112.363 38.4867 112.363 40.6384V44.1221V44.1118Z" fill="white"/>
<path d="M72.238 39.901C71.7455 39.901 71.2426 39.8293 70.7603 39.9215C70.2164 40.0239 70.1445 39.5424 70.1035 39.3374C70.0111 38.8866 69.8162 38.5382 69.5288 38.1899C68.9952 37.5239 68.0921 36.8886 67.2917 36.7349C66.7991 36.6427 66.2962 36.5505 65.7934 36.53C64.9724 36.489 64.2233 36.7759 63.5255 37.155C62.3967 37.7698 61.904 39.2452 62.4685 40.3621C62.7147 40.8539 63.1766 41.2227 63.6999 41.3559C64.6954 41.6121 65.6497 41.9912 66.7067 42.0424C67.2301 42.0629 67.774 42.1552 68.3076 42.2269C68.7899 42.2986 69.2415 42.524 69.7238 42.6265C70.2369 42.7289 70.6885 43.0466 71.2324 43.0876C71.5608 43.1183 72.4946 44.1122 72.864 44.4605C73.449 45.0138 73.8492 45.6901 73.9415 46.438C74.0647 47.3704 74.6086 48.2926 74.0955 49.2865C73.9005 49.6553 74.2802 50.1882 73.8595 50.557C73.9313 51.2435 73.4182 51.6841 73.0795 52.1247C72.5767 52.76 71.9302 53.3338 71.2324 53.7641C70.5859 54.1739 69.8161 54.4198 69.067 54.6555C68.3794 54.8707 65.2906 55.0346 64.6133 54.8604C63.7923 54.6555 62.9816 54.4199 62.2016 54.051C61.2062 53.5797 60.3032 53.0161 59.6053 52.1657C58.6407 50.9771 57.9531 49.6759 57.9839 48.0877C57.9839 47.7393 58.1276 47.6983 58.415 47.6983C59.3283 47.7188 60.2519 47.6983 61.1652 47.6983C61.627 47.6983 61.7501 47.8418 61.8015 48.3029C61.9246 49.3685 62.5095 50.0959 63.4023 50.7005C64.6851 51.5714 66.1013 51.6431 67.5072 51.4587C68.4513 51.3358 69.3339 50.8132 69.9599 50.0037C70.1343 49.7886 69.8983 49.4095 70.2575 49.2763C70.5448 48.0467 70.0214 47.0836 68.8618 46.3766C68.2974 46.0282 67.6816 45.977 67.0864 45.813C66.6759 45.7003 66.2757 45.4749 65.8037 45.5671C65.4137 45.6389 65.0238 45.4134 64.6338 45.3417C63.5358 45.1368 62.4377 44.9114 61.3909 44.522C61.0626 44.3991 60.7444 44.1737 60.4776 43.9277C59.8208 43.3335 59.1743 42.7187 58.846 41.8683C58.4868 40.9358 58.2405 39.4399 58.5894 38.3128C58.7946 37.6571 58.8972 36.9911 59.2769 36.3763C59.985 35.2287 61.0318 34.5525 62.1914 33.9889C62.5095 33.8352 62.8995 33.825 63.2381 33.7123C63.8744 33.4971 64.5107 33.2819 65.1982 33.3537C66.1218 33.4459 67.0351 33.3127 67.9792 33.5176C69.2723 33.8045 70.4114 34.2963 71.4684 35.0648C72.7101 35.9665 73.5414 37.2472 73.8697 38.8046C73.8903 38.8969 73.9621 38.9788 73.9929 39.071C74.2289 39.8292 74.1878 39.8805 73.3874 39.8907H72.2278H72.238V39.901Z" fill="white"/>
<path d="M188.518 39.9011H187.246C186.599 39.9011 186.61 39.8908 186.363 39.2146C186.24 38.8765 186.086 38.5486 185.881 38.2617C185.409 37.5854 184.434 36.8989 183.685 36.7452C183.161 36.6325 182.618 36.5608 182.084 36.5301C181.263 36.4891 180.514 36.7657 179.816 37.1551C178.718 37.7699 178.205 39.317 178.779 40.3826C179.036 40.8642 179.498 41.2126 180.031 41.3663C181.017 41.6532 182.012 41.8888 183.038 42.0425C183.9 42.1757 184.803 42.2167 185.655 42.5958C186.076 42.7802 186.599 42.77 187.092 42.9544C187.708 43.2003 188.21 43.5077 188.693 43.9586C189.432 44.6553 189.77 45.0139 190.088 45.7927C190.273 46.2537 190.458 46.7045 190.427 47.2373C190.386 47.9341 190.376 48.6411 190.427 49.3481C190.509 50.4649 190.047 51.3768 189.391 52.1863C188.477 53.3031 187.307 54.0716 185.901 54.4507C185.06 54.6761 184.218 54.9118 183.326 54.881C182.618 54.8605 181.909 54.9322 181.212 54.8605C180.596 54.7888 180.021 54.4404 179.375 54.4609C177.712 53.6515 176.101 52.7908 175.167 51.0592C174.818 50.4137 174.582 49.7477 174.357 49.0714C174.233 48.6923 174.336 48.2312 174.336 47.8111C174.705 47.7804 175.085 47.7189 175.455 47.7087C176.163 47.6882 176.86 47.7087 177.569 47.7087C177.897 47.7087 178.112 47.8316 178.143 48.1697C178.277 49.8706 179.405 50.7928 180.842 51.2641C182.34 51.7559 183.9 51.7149 185.347 50.8748C186.466 50.2292 186.979 48.846 186.384 47.5345C186.014 46.7148 185.275 46.2435 184.454 46.0386C183.326 45.7619 182.176 45.557 181.027 45.3623C179.929 45.1779 178.831 44.9525 177.784 44.5324C177.548 44.4401 177.333 44.266 177.117 44.1123C175.998 43.3336 175.229 42.3602 174.962 40.9667C174.582 38.9994 174.705 38.8457 175.219 37.1244C175.496 36.1919 176.234 35.444 177.014 34.8395C177.343 34.5833 177.743 34.3886 178.123 34.2042C179.057 33.7329 180.627 33.3538 181.571 33.3538H183.367C183.685 33.3538 185.614 33.8456 185.963 33.9788C186.835 34.3169 187.666 34.778 188.313 35.4133C189.298 36.3662 190.16 37.4522 190.212 38.9379C190.212 39.0609 190.314 39.1736 190.355 39.2965C190.519 39.7884 190.458 39.8806 189.914 39.8806H188.539L188.518 39.9011Z" fill="white"/>
<path d="M80.4375 43.0159V37.6367C80.4375 37.3156 80.263 37.1551 79.9141 37.1551H76.5379C76.3326 37.1551 76.2095 37.1346 76.2095 36.8785V34.03C76.2095 33.7739 76.3532 33.7636 76.5379 33.7636H80.027C80.3349 33.7636 80.4477 33.7124 80.4477 33.3743C80.4272 31.6529 80.4477 29.9316 80.4477 28.2102C80.4477 27.9643 80.4272 27.7184 80.458 27.4725C80.4683 27.3803 80.5914 27.288 80.6838 27.2266C80.7351 27.1958 80.8172 27.2266 80.889 27.2266C82.0486 27.2266 83.2083 27.2266 84.3679 27.2368C84.3987 28.3844 84.4397 29.532 84.4602 30.6795C84.4705 31.489 84.4602 32.2984 84.4602 33.1079C84.4602 33.6202 84.6142 33.7636 85.1376 33.7636H90.3096C90.6175 33.7636 90.8433 33.7329 90.8023 34.194C90.7304 35.1674 90.7407 36.1408 90.7099 37.1142C89.7658 37.1244 88.8216 37.1346 87.8673 37.1449H85.117C84.6655 37.1449 84.4397 37.36 84.4397 37.7904V47.6985C84.4397 48.303 84.6347 48.8768 84.8707 49.4198C85.3325 50.4649 86.3382 51.0695 87.4978 51.0695H88.4522C89.2219 51.09 89.9813 51.1104 90.7509 51.1412C90.7612 51.9096 90.7817 52.6781 90.7817 53.4466C90.7817 54.116 90.4636 54.4507 89.8274 54.4507C88.5959 54.4507 87.3644 54.4302 86.1329 54.4507C85.5377 54.4609 85.0349 54.2355 84.5116 54.0306C83.5572 53.6515 82.6951 53.1494 82.0384 52.3502C81.32 51.4691 80.8479 50.4957 80.6119 49.3481C80.3554 48.139 80.4888 46.9402 80.4477 45.7414C80.4067 44.8295 80.4477 43.9176 80.4477 43.0057H80.4375V43.0159Z" fill="white"/>
<path d="M117.648 14.3162V20.218C117.648 20.966 117.463 21.6627 117.227 22.3595C116.878 23.4046 116.14 24.0808 115.175 24.5214C114.395 24.88 113.625 24.9313 112.804 24.921C110.906 24.9005 109.007 24.9005 107.099 24.921C106.709 24.921 106.616 24.8288 106.637 24.4497C106.678 23.7837 106.657 23.1177 106.668 22.4619C107.324 22.4312 107.981 22.3902 108.638 22.38C109.695 22.3697 110.752 22.3492 111.809 22.38C112.712 22.4005 113.369 22.0111 113.913 21.3348C113.995 21.2426 114.036 21.0992 114.046 20.9762C114.056 20.382 114.056 19.7774 114.046 19.1832C114.046 18.9475 113.943 19.0294 113.81 19.1217C113.051 19.6852 112.25 20.177 111.234 20.0438C110.937 20.0029 110.639 20.2795 110.485 20.2283C109.705 19.9414 108.864 20.0028 108.084 19.6442C106.544 18.9372 105.457 17.0724 105.128 15.7609C104.861 14.6851 104.851 13.6092 104.985 12.5846C105.169 11.1809 105.631 9.80787 106.791 8.81399C107.509 8.19922 108.289 7.73816 109.243 7.58447C109.633 7.52299 110.023 7.42054 110.424 7.3693C111.306 7.2566 112.065 7.67667 112.886 7.83036C113.04 7.8611 113.194 7.95332 113.317 8.05578C113.553 8.21972 113.769 8.4144 113.995 8.59883C114.005 8.32218 114.005 8.04555 114.046 7.77915C114.046 7.71767 114.179 7.62546 114.251 7.62546C115.308 7.61521 116.365 7.62546 117.422 7.62546C117.71 7.62546 117.628 7.85087 117.628 8.00456V14.3367L117.648 14.3162ZM114.262 14.0293C114.262 12.3899 114.118 11.9596 113.246 11.1501C111.624 9.64393 109.469 10.3407 108.638 12.1133C108.197 13.0559 108.217 14.101 108.515 15.1769C108.761 16.0478 109.223 16.6318 109.992 16.9597C110.803 17.3081 111.686 17.1339 112.527 17.0417C112.732 17.0212 112.938 16.8265 113.112 16.6831C113.964 15.9556 114.436 15.0539 114.262 14.0396V14.0293Z" fill="white"/>
<path d="M58.4457 16.1604V8.15813C58.4457 7.63558 58.4457 7.62534 58.9178 7.62534H61.3499C61.8117 7.62534 61.8219 7.62533 61.8322 8.15813V8.6807C61.8322 8.74217 61.8835 8.80363 61.904 8.85486C61.9553 8.82413 62.0169 8.80364 62.0477 8.76265C63.1766 7.61508 64.6235 7.21547 66.1218 7.44089C68.1126 7.73802 69.7546 8.46553 70.7295 11.2422C71.1708 12.4923 71.1913 13.7321 71.0784 14.9718C71.0168 15.6788 70.7911 16.4371 70.3908 17.1031C70.0419 17.6871 69.7341 18.2916 69.1902 18.7117C68.1742 19.5007 67.1172 20.1667 65.7421 20.0745C65.3521 20.0437 64.9621 20.0437 64.5824 20.0745C63.6691 20.1564 62.9405 19.8183 62.3043 19.1933C62.2119 19.1113 62.0785 19.0703 61.9656 19.0088C61.9143 19.1523 61.8219 19.2957 61.8219 19.4494C61.8219 21.1298 61.8117 22.8204 61.8219 24.5008C61.8219 24.7979 61.7706 24.9311 61.4319 24.9209C60.5905 24.9004 59.7387 24.9004 58.8972 24.9209C58.5381 24.9311 58.4149 24.8697 58.4251 24.4701C58.4457 21.6933 58.4354 18.9269 58.4354 16.1501L58.4457 16.1604ZM61.8117 13.7833C61.7912 14.5005 61.8117 15.187 62.2427 15.8223C62.6019 16.3346 62.9918 16.7854 63.5562 17.0416C64.2438 17.3489 65.1469 17.2875 65.9166 16.9494C66.3784 16.7547 66.8709 16.5908 67.1172 16.1092C67.4867 15.3715 67.9279 14.644 67.7637 13.7423C67.733 13.5681 67.7843 13.3939 67.7637 13.2198C67.5174 11.4984 66.6554 10.6479 64.9519 10.3508C63.9052 10.1664 62.2735 11.2115 61.904 12.5332C61.7911 12.9226 61.8527 13.3632 61.8322 13.7731H61.8117V13.7833Z" fill="white"/>
<path d="M126.063 20.0336C125.314 20.0439 124.544 20.1976 123.826 19.8595C123.241 19.5828 122.615 19.3676 122.092 18.9373C120.562 17.6565 120.162 16.8061 119.752 14.972C119.485 13.7937 119.444 13.6912 119.762 12.308C120.06 11.0272 120.583 10.0846 121.445 9.21367C122.297 8.34275 123.385 7.99438 124.493 7.64601C125.119 7.45133 125.765 7.3591 126.412 7.44107C127.459 7.56403 128.495 7.75871 129.439 8.28127C131.091 9.19318 132.056 10.5662 132.467 12.4002C132.59 12.9433 132.692 13.4761 132.641 13.9986C132.497 15.3511 132.2 16.6114 131.338 17.7897C130.435 19.0193 129.193 19.5214 127.92 20.0132C127.377 20.2283 126.679 20.0439 126.053 20.0439H126.063V20.0336ZM126.104 10.3408C125.837 10.3715 125.54 10.3407 125.304 10.4535C124.452 10.8121 123.764 11.3654 123.354 12.2363C123.169 12.6257 123.261 13.0662 123.118 13.4044C122.954 13.763 122.851 13.9884 123.138 14.306C123.21 14.388 123.138 14.5724 123.148 14.7159C123.179 15.3511 123.477 15.8635 123.908 16.2938C124.339 16.7241 124.832 17.1954 125.56 17.1442C125.704 17.134 125.95 17.3594 125.981 17.3286C126.145 17.1545 126.319 17.1237 126.545 17.134C127.192 17.1647 127.674 16.7959 128.156 16.4577C128.618 16.1299 128.916 15.6073 129.008 15.136C129.162 14.4187 129.583 13.6503 129.059 12.9023C129.131 12.0621 128.516 11.6215 128.003 11.1297C127.479 10.6276 126.863 10.31 126.094 10.351H126.104V10.3408Z" fill="white"/>
<path d="M78.7544 20.0643C77.8719 20.095 77.0202 20.0335 76.1684 19.6852C75.7271 19.5007 75.3474 19.2753 74.9677 19.0089C73.7465 18.1482 72.9153 17.0621 72.5664 15.5457C72.3406 14.5723 72.3406 13.6194 72.4227 12.6768C72.5151 11.5907 72.9256 10.566 73.726 9.74634C74.4444 9.02911 75.1319 8.2709 76.1479 7.96352C76.5584 7.84056 76.9278 7.62539 77.3691 7.60489C77.6975 7.59465 78.0156 7.43071 78.3337 7.41021C79.832 7.33849 81.2892 7.65613 82.5207 8.47583C83.7419 9.29552 84.6655 10.3919 85.0759 11.8878C85.2915 12.6768 85.2094 13.4452 85.2709 14.2239C85.353 15.2281 85.0349 16.181 84.5731 16.9904C84.1216 17.7896 83.475 18.5069 82.6336 19.0499C82.0897 19.3983 81.5252 19.6134 80.9505 19.8593C80.2219 20.1667 79.4625 20.0335 78.7134 20.0643H78.7544ZM81.8742 13.8551C82.1512 12.9432 81.6073 12.2259 81.2276 11.5189C80.93 10.9759 80.3246 10.7095 79.6678 10.5046C78.1387 10.023 76.5276 10.9042 75.9837 12.4001C75.6245 13.3735 75.6758 14.3571 76.0145 15.2691C76.4352 16.4064 77.5333 17.308 78.6518 17.1236C78.8879 17.0826 79.1444 17.0929 79.3907 17.1236C80.109 17.2158 80.5093 16.6113 81.0737 16.3654C81.4636 15.5764 82.1512 14.8797 81.8844 13.8653L81.8742 13.8551Z" fill="white"/>
<path d="M134.57 13.7833V8.19916C134.57 7.81664 134.748 7.62538 135.104 7.62538C135.627 7.62538 136.161 7.61513 136.684 7.62538C137.095 7.63562 137.505 7.67659 137.916 7.70733C137.916 8.08644 137.926 8.47579 137.946 8.8549C137.946 8.91638 137.977 8.97786 137.998 9.04958C138.07 9.0086 138.172 8.99837 138.213 8.93689C138.829 8.02498 139.824 7.73807 140.779 7.48192C141.364 7.32822 142.062 7.22575 142.688 7.59461C142.934 7.73806 143.252 7.74832 143.539 7.84054C143.724 7.90202 143.929 7.94299 144.083 8.0557C145.274 8.92663 146.166 10.0025 146.187 11.5497C146.218 14.2547 146.187 16.9597 146.197 19.6647C146.197 19.972 146.125 20.0847 145.797 20.0745C144.914 20.054 144.032 20.054 143.16 20.0745C142.883 20.0745 142.811 19.9925 142.811 19.7159V12.9636C142.811 12.2566 142.585 11.6521 142.051 11.1603C141.743 10.8836 141.436 10.5865 141.025 10.5763C140.42 10.566 139.783 10.4123 139.209 10.7709C138.419 11.273 137.957 11.9902 137.946 12.9329C137.926 15.1153 137.946 17.2875 137.946 19.47C137.946 20.054 137.946 20.0642 137.423 20.054C136.479 20.0437 135.545 20.0028 134.601 19.9823C134.591 19.0704 134.57 18.1585 134.57 17.2568V13.7731V13.7833Z" fill="white"/>
<path d="M94.1579 7.61524H94.8968C95.9538 7.61524 96.005 7.60499 96.2616 8.54764C96.7029 10.187 97.2263 11.7957 97.7702 13.4043C97.9754 14.0191 98.1909 14.6339 98.4064 15.2486C98.4269 15.3101 98.4782 15.3613 98.509 15.4126C98.5398 15.3613 98.6014 15.3101 98.6117 15.2486C99.0324 13.7732 99.6174 12.349 100.028 10.8838C100.315 9.87965 100.715 8.90627 100.921 7.88165C100.972 7.65623 101.034 7.60498 101.249 7.60498H104.205C104.512 7.60498 104.636 7.74842 104.482 7.95335C103.938 8.72181 103.856 9.66447 103.486 10.4944C103.024 11.56 102.717 12.6973 102.265 13.7834C101.742 15.013 101.372 16.2937 100.931 17.554C100.561 18.5991 100.13 19.6135 99.8021 20.6689C99.4326 21.8164 99.0016 22.9435 98.6117 24.0809C98.5501 24.2653 98.4269 24.4395 98.4167 24.6239C98.3962 24.8493 98.3141 24.9108 98.0986 24.9108C97.2571 24.9108 96.4053 24.8903 95.5638 24.9108C95.2559 24.9108 95.1636 24.7674 95.2457 24.5419C95.5638 23.589 95.9025 22.6361 96.2411 21.6832C96.313 21.4681 96.4258 21.2632 96.4977 21.0582C96.6516 20.6279 96.9492 20.1668 96.8774 19.7672C96.8158 19.3881 96.5695 18.9885 96.4156 18.5992C95.6459 16.6626 95.1123 14.6441 94.1784 12.7793C93.9629 11.4063 93.183 10.228 92.9059 8.8755C92.8238 8.46565 92.3723 8.17878 92.5057 7.68697C92.947 7.65623 93.3985 7.62547 93.8397 7.60498H94.1579V7.61524Z" fill="white"/>
<path d="M146.197 44.2249V53.928C146.197 54.4506 146.197 54.4609 145.715 54.4609H142.647C142.332 54.4609 142.175 54.2832 142.175 53.928V34.8496C142.175 34.5115 142.113 34.0914 142.277 33.8558C142.38 33.7021 142.862 33.7943 143.17 33.7943H145.284C145.879 33.7943 146.177 34.0812 146.177 34.6447V44.2352H146.197V44.2249Z" fill="white"/>
<path d="M12.7689 7.19515C13.6206 6.59063 14.534 6.04756 15.4371 5.5455C16.5043 4.95122 17.5613 4.30571 18.6593 3.75241C18.803 3.68069 18.9672 3.64997 19.1211 3.60898C19.388 3.59874 19.6753 3.69096 19.8703 3.39382C19.9421 3.29136 20.1064 3.17865 20.1884 3.19914C20.7016 3.31185 20.9786 2.97373 21.2147 2.6561C21.4917 2.28723 21.9638 2.39994 22.2716 2.14379C22.2922 2.12329 22.4872 2.22576 22.4872 2.27699C22.4872 2.57413 22.6103 2.98397 22.2511 3.09667C21.8714 3.21963 21.7893 3.52701 21.6661 3.79341C21.348 4.42867 21.0915 5.08444 20.8144 5.72995V5.94511L20.5989 6.16027H20.3834L20.1679 6.37547C20.0037 6.40621 19.7676 6.273 19.7471 6.59063C19.4187 6.55989 19.193 6.68285 19.1109 7.01073C18.5567 6.96974 18.2386 7.44106 17.7973 7.64599C16.6069 8.19928 15.5191 8.92674 14.38 9.5825C13.0767 10.3305 11.7735 11.1092 10.4702 11.8572C9.90575 12.185 9.31056 12.4617 8.7564 12.8101C7.98674 13.3121 7.18629 13.7629 6.37558 14.1933C5.30831 14.7671 4.29238 15.4433 3.25591 16.0786C3.18407 16.1708 3.05065 16.2528 3.05065 16.345C3.03013 17.1852 3.05064 18.0151 3.04038 18.8553C3.04038 19.1217 3.07118 19.4803 2.92751 19.6238C2.74279 19.798 2.38362 19.8082 2.09628 19.8594C1.93209 19.8902 1.74736 19.8697 1.5729 19.8594C1.30608 19.8492 0.977676 19.8902 0.782695 19.7672C0.659549 19.6852 0.721157 19.3266 0.690371 19.091C0.690371 19.0602 0.577442 19.0398 0.515869 19.0193V14.9105C0.515869 14.6134 0.556958 14.3777 0.813511 14.1831C1.17269 13.9269 1.4805 13.599 1.84994 13.3736C2.55802 12.9638 3.30721 12.6461 4.0153 12.2465C5.26728 11.5293 6.48848 10.7506 7.74046 10.0231C8.93087 9.33661 10.1417 8.70135 11.3424 8.03535C11.4143 7.99436 11.4553 7.90213 11.5066 7.83041C11.6708 7.79967 11.9068 7.93288 11.9274 7.61525C12.2865 7.63574 12.656 7.65623 12.7689 7.19515Z" fill="white"/>
<path d="M87.4156 11.1501V2.93263C87.4156 2.3486 87.4157 2.33834 87.939 2.34859C88.8831 2.35884 89.817 2.38958 90.7611 2.42032C90.7714 3.33223 90.7919 4.2339 90.7919 5.14581V19.7979C90.8022 20.0438 90.6791 20.0745 90.4738 20.0745C89.5605 20.0745 88.6472 20.054 87.7236 20.0745C87.3952 20.0745 87.3952 19.9208 87.4054 19.6954V11.1603L87.4156 11.1501Z" fill="white"/>
<path d="M20.8041 5.71953C21.0812 5.07402 21.348 4.41828 21.6559 3.78302C21.7893 3.51661 21.8714 3.21945 22.2408 3.08625C22.6 2.97354 22.4769 2.56371 22.4769 2.26657C22.4769 2.21534 22.2819 2.11287 22.2613 2.13336C21.9535 2.38952 21.4814 2.27681 21.2044 2.64567C20.9683 2.9633 20.6913 3.31167 20.1781 3.18872C20.0858 3.16823 19.9216 3.29118 19.86 3.3834C19.665 3.67029 19.3777 3.57807 19.1108 3.59856C19.5008 3.32191 19.86 2.98379 20.2807 2.76862C21.4814 2.1641 22.6103 1.44687 23.7596 0.760377C24.0367 0.596438 24.3343 0.452999 24.6319 0.319798C25.145 0.0943822 25.6273 0.227564 26.0481 0.524703C26.828 1.06775 27.7003 1.45711 28.511 1.93868C29.5167 2.54321 30.5429 3.12725 31.5691 3.71129C31.6717 3.77276 31.7231 3.92645 31.7949 4.02891C32.072 4.39778 32.2156 4.82813 32.2156 5.31994C32.2156 5.56585 32.1233 5.90395 32.2464 6.0269C32.5543 6.32404 32.2772 6.47776 32.2362 6.72367C32.1335 7.22573 31.7949 6.89783 31.5794 6.99005H31.1586C31.1381 6.67242 30.8918 6.81587 30.7379 6.77489C30.5018 6.21135 29.8759 6.24208 29.4654 5.93469C29.3422 5.70927 29.2396 5.46338 29.0959 5.24821C28.8907 4.94083 28.706 4.59246 28.4186 4.38754C28.1005 4.15188 27.7721 3.98793 27.6182 3.57808C27.4951 3.2502 27.1256 3.4039 26.869 3.42439C26.8074 3.42439 26.7562 3.7625 26.7254 3.94693C26.6125 4.53096 26.7459 5.13549 26.9922 5.61706C27.2077 6.03716 27.1051 6.41628 27.1358 6.81588C27.1564 7.05154 26.9409 7.03103 26.7664 6.92857C26.6843 6.87734 26.6022 6.82613 26.5099 6.78514L26.2943 6.56995C26.2636 6.40601 26.397 6.17038 26.0789 6.14988L25.8633 5.93469V5.71953L25.6478 5.50437C25.5452 5.36092 25.4426 5.22772 25.34 5.08427C25.1963 4.88959 25.0732 4.82811 24.8987 5.07401C24.8269 5.16623 24.6935 5.21745 24.5909 5.28918C24.2727 5.30967 24.4061 5.55558 24.3753 5.70927C24.1701 5.88346 23.8623 6.01667 23.7802 6.23184C23.6981 6.4675 23.5954 6.50849 23.4004 6.59046C22.9489 6.78514 22.7026 6.69291 22.6821 6.22158C22.6616 5.66829 22.6821 5.11502 22.6821 4.55148C22.6821 4.28508 22.3332 4.09037 22.1279 4.26456C21.9842 4.38751 21.9535 4.62318 21.8201 4.75639C21.4609 5.09451 21.5532 5.74002 20.9888 5.91421L20.7733 5.69905L20.8041 5.71953Z" fill="white"/>
<path d="M11.7119 48.7638C11.0756 48.6818 10.5522 48.3027 10.0289 47.9953C9.69021 47.8006 9.35155 47.6059 8.99238 47.4215C7.05283 46.4071 5.17486 45.2903 3.22505 44.3067C2.73247 44.0607 2.27069 43.7226 1.76785 43.487C1.89099 43.0771 2.22963 43.364 2.45539 43.2718C2.51697 43.2513 2.55804 43.2 2.60935 43.1693C2.55804 43.1386 2.49643 43.0976 2.44512 43.0669C2.36302 43.0259 2.2091 42.9951 2.19884 42.9439C2.13727 42.5033 1.94231 41.991 2.09624 41.6222C2.3528 41.0176 1.8499 40.6283 1.8499 40.116C1.8499 39.911 1.5523 39.8701 1.33679 39.9008C1.5523 39.5524 1.7576 39.1938 1.9731 38.8454L2.18857 38.6303L2.4041 38.4151C2.74275 38.2512 2.99929 38.3331 3.04034 38.62C3.06087 38.7635 3.04034 38.8967 3.04034 39.0401C3.04034 39.3577 2.9069 39.7983 3.0711 39.9623C3.42001 40.3414 3.10189 40.782 3.33792 41.1303C3.60474 41.5402 3.42003 42.0115 3.47134 42.4418C3.49186 42.5853 3.45081 42.7287 3.47134 42.8619C3.54317 43.2513 3.81002 43.4665 4.21024 43.4665H7.06309C7.26833 43.3845 7.59671 43.6611 7.69934 43.2513H7.91486C7.9867 43.364 8.03798 43.5177 8.1406 43.5689C9.62861 44.3886 11.1167 45.1776 12.6047 45.9973C13.0973 46.2637 13.5693 46.5608 14.0413 46.8375C14.0208 46.8989 13.99 47.0116 13.9695 47.0116C13.2819 46.9911 12.6867 47.3293 12.0505 47.4522C11.64 47.5342 11.4348 47.7904 11.3219 48.0875C11.2809 48.2002 11.5785 48.4461 11.7119 48.6408C11.7324 48.6613 11.7119 48.7125 11.7119 48.7432V48.7638Z" fill="white"/>
<path d="M34.7606 50.8746C34.0115 51.4382 33.17 51.848 32.3593 52.2988C31.0766 53.0161 29.763 53.6718 28.5007 54.4301C27.7824 54.8604 26.982 55.178 26.2739 55.6494C25.8839 55.9055 25.4734 55.9772 25.0219 55.9363C25.0219 55.1268 25.0424 54.3276 25.0116 53.5284C25.0013 53.2313 25.1245 53.0161 25.2374 52.7804C27.1564 51.7455 29.0754 50.7004 31.0047 49.6758C31.3536 49.4914 31.6923 49.2967 32.0309 49.102C32.4106 48.8869 32.7698 48.5282 33.2727 48.559H33.3753C33.3753 48.559 33.4368 48.6 33.4471 48.6307V48.7024C33.324 48.7844 33.1085 48.8356 33.0777 48.9483C32.9853 49.2762 33.3444 49.1533 33.4676 49.266C33.6626 49.4402 34.0526 49.5324 34.0834 49.7168C34.2168 50.3931 34.6991 50.2086 35.1198 50.2496C35.2943 50.2701 35.5611 50.1062 35.5919 50.4545C35.4277 50.4853 35.1917 50.3521 35.1711 50.6697C35.0069 50.7004 34.7709 50.5672 34.7504 50.8849L34.7606 50.8746Z" fill="white"/>
<path d="M25.2374 52.7702C25.1245 53.0059 25.0013 53.2211 25.0116 53.5182C25.0526 54.3174 25.0219 55.1269 25.0219 55.9261C24.2727 55.9875 23.7391 55.465 23.1337 55.1678C22.795 54.9937 22.4564 54.7785 22.1075 54.5941C20.9581 53.9998 19.8087 53.385 18.6696 52.76C18.372 52.596 18.1154 52.3399 17.8384 52.135C17.5613 52.012 17.8384 51.4587 17.3458 51.4997C17.2329 51.1411 17.0072 50.7722 17.0277 50.4136C17.0379 50.1984 17.4587 49.8193 17.6331 49.8501C18.0436 49.9218 18.4131 49.2968 18.8236 49.8296C19.0288 50.096 19.3059 50.2292 19.5316 49.8091C19.7164 49.9525 19.8805 50.137 20.096 50.2189C21.2249 50.6595 22.21 51.3562 23.2876 51.9095C23.7494 52.1452 24.2625 52.2989 24.6524 52.678C24.7756 52.7907 25.0424 52.7395 25.2374 52.76V52.7702Z" fill="white"/>
<path d="M35.6021 50.4545C35.5713 50.1061 35.2943 50.2701 35.1301 50.2496C34.7196 50.2086 34.227 50.393 34.0936 49.7168C34.0526 49.5324 33.6728 49.4401 33.4779 49.266C33.3444 49.143 32.9853 49.266 33.0879 48.9483C33.1187 48.8459 33.324 48.7844 33.4574 48.7024C33.4676 48.7024 33.4779 48.6512 33.4574 48.6307C33.4369 48.6 33.4163 48.5692 33.3855 48.559C33.3547 48.5487 33.3137 48.559 33.2829 48.559C34.463 47.5651 35.9408 47.0835 37.2236 46.2536C37.6854 45.9564 38.2395 45.813 38.6705 45.4134C38.845 45.2597 39.1631 45.2495 39.4094 45.1777C39.471 45.229 39.5223 45.2699 39.5838 45.3212C39.3376 45.4134 39.0707 45.4339 39.4504 45.772C39.8507 46.1306 40.2509 46.0896 40.6511 45.9155C40.8974 45.813 41.0718 45.7515 41.2976 45.9052C41.5131 46.0487 41.7799 46.1511 41.9339 46.356C42.1186 46.5917 42.5393 46.2228 42.5804 46.6634H42.3649L42.1494 46.8786C41.6568 47.3602 40.9795 47.5241 40.4151 47.8725C39.4402 48.4668 38.3832 48.9278 37.4288 49.5631C36.8644 49.9422 36.2076 50.1676 35.5919 50.4648H35.6021V50.4545Z" fill="white"/>
<path d="M146.197 27.5131V29.4086C146.197 29.6545 146.177 29.7878 145.869 29.7775C144.74 29.757 143.622 29.7673 142.493 29.7775C142.287 29.7775 142.175 29.7468 142.175 29.5008V25.7098C142.175 25.2897 142.37 25.136 142.821 25.1257H143.765C144.566 25.1462 145.356 25.1769 146.156 25.2077V27.5131H146.197Z" fill="white"/>
<path d="M19.5317 49.8193C19.306 50.2394 19.0289 50.1062 18.8236 49.8398C18.4234 49.307 18.0437 49.9217 17.6332 49.8603C17.4587 49.8295 17.038 50.2086 17.0278 50.4238C17.0072 50.7824 17.2227 51.141 17.3459 51.5099C17.8282 51.4689 17.5614 52.0222 17.8384 52.1452C17.6229 52.0734 17.4177 52.0017 17.2022 51.93L16.9867 51.7148C16.8327 51.6636 16.6583 51.6431 16.5249 51.5611C15.8168 51.1513 15.1601 50.639 14.4109 50.3418C13.7439 50.0754 13.1999 49.5734 12.5021 49.3889C12.4303 49.3684 12.3893 49.2558 12.3379 49.184C12.3893 49.1635 12.4508 49.143 12.5021 49.1226C12.3892 48.9996 12.2764 48.8766 12.143 48.7742C12.1224 48.7639 11.9891 48.9074 11.907 48.9688L11.6914 48.7537C11.6914 48.7537 11.7017 48.6717 11.6914 48.6512C11.558 48.4565 11.2604 48.2209 11.3015 48.0979C11.4143 47.8008 11.6196 47.5446 12.0301 47.4626C12.6766 47.3397 13.2718 46.9913 13.9491 47.0221C13.9696 47.0221 14.0004 46.9094 14.021 46.8479C15.0266 47.186 15.786 47.934 16.7609 48.3438C17.7153 48.7434 18.5979 49.307 19.5214 49.7988V49.8193H19.5317Z" fill="white"/>
<path d="M49.3431 14.3674C49.8049 14.6236 49.7639 15.0642 49.7639 15.4945V22.6054C49.692 22.5132 49.5689 22.4312 49.5587 22.339C49.5381 21.673 49.5381 21.0172 49.5587 20.3512C49.5587 19.9926 49.2816 20.0028 49.1481 20.0848C48.7377 20.3409 48.2964 20.2692 47.8654 20.2795C47.5986 20.2897 47.2804 20.2487 47.0752 20.3717C46.952 20.4537 47.0136 20.8123 46.9829 21.0479C46.9829 21.0787 46.8699 21.0992 46.8083 21.1197V15.8429C47.7525 15.515 48.5427 14.931 49.3431 14.3674Z" fill="white"/>
<path d="M0.49538 28.507V22.1748C0.567215 22.2261 0.700572 22.2876 0.700572 22.3388C0.659524 22.9638 0.741621 23.4864 1.47023 23.7015C1.67548 23.763 1.80889 24.0499 1.99361 24.2036C2.19886 24.3675 2.41438 24.5212 2.6504 24.6442C2.91722 24.7876 3.0301 24.7262 3.0301 24.429V20.6584C3.0301 20.5047 2.94801 20.2895 3.23535 20.2793V30.4128C3.16352 30.3206 3.06089 30.2386 3.0301 30.1361C2.98905 29.9824 3.03013 29.8697 2.80436 29.757C2.01418 29.3779 1.25477 28.9271 0.485107 28.507H0.49538Z" fill="white"/>
<path d="M42.5803 46.6531C42.5392 46.2125 42.1082 46.5814 41.9338 46.3457C41.7901 46.1511 41.513 46.0486 41.2975 45.8949C41.0717 45.7412 40.8973 45.8027 40.651 45.9051C40.2508 46.0793 39.8506 46.1101 39.4503 45.7617C39.0706 45.4236 39.3375 45.4031 39.5837 45.3109C39.5222 45.2597 39.4709 45.2187 39.4093 45.1674C39.6659 44.8088 40.1276 44.7678 40.5587 44.5936C40.6202 44.6141 40.5894 44.5731 40.5587 44.5322L40.4663 44.6244C40.4663 44.6244 40.5484 44.6961 40.5894 44.7166C40.5894 44.7166 40.6305 44.6756 40.5587 44.5936C41.0102 44.0199 41.7388 43.8457 42.3648 43.4768H48.286C48.1629 43.5588 48.0603 43.651 47.9269 43.7227C46.1413 44.6961 44.3557 45.6695 42.5701 46.6429L42.5803 46.6531Z" fill="white"/>
<path d="M0.495361 28.5071C1.26502 28.9272 2.02437 29.378 2.81455 29.7571C3.04032 29.8698 2.9993 29.9825 3.04035 30.1362C3.07114 30.2387 3.17377 30.3207 3.24561 30.4129V32.3084C3.17377 32.4007 3.05062 32.4929 3.04035 32.5851C3.01983 33.2203 2.98904 33.8556 3.04035 34.4806C3.0814 34.9212 2.81461 35.0442 2.54779 35.2081C2.41438 35.3003 2.26041 35.372 2.11674 35.4335C1.4497 35.6794 0.710826 35.1774 0.710826 34.4806C0.710826 33.6404 0.710816 32.79 0.700554 31.9498C0.700554 31.8576 0.567196 31.7654 0.495361 31.6731V28.5071Z" fill="white"/>
<path d="M42.3648 10.1458C42.7035 10.0741 42.9292 10.32 43.1858 10.4532C44.1915 10.9963 45.1766 11.57 46.1618 12.1438C46.2644 12.2053 46.3157 12.359 46.3875 12.4615C46.0181 12.3897 45.6897 12.4922 45.505 12.8303C45.1869 13.3836 44.8277 13.9267 44.7045 14.5722C44.6019 14.5722 44.4685 14.6132 44.3967 14.5722C43.5244 13.9984 42.5393 13.5988 41.7388 12.8918C41.667 12.7791 41.6054 12.5947 41.513 12.5742C41.0204 12.4922 41.0615 12.1439 41.1128 11.816C41.1436 11.6008 41.277 11.3856 41.3078 11.1705C41.3386 10.8938 41.2975 10.6172 41.318 10.3405C41.3488 10.0536 41.6567 9.95116 41.9851 10.0741C42.1083 10.1253 42.2417 10.1253 42.3751 10.1458H42.3648Z" fill="white"/>
<path d="M48.2862 43.4871H45.1152V43.2719C45.4334 43.2719 45.7515 43.3026 46.0593 43.2719C46.3877 43.2309 46.6956 43.1284 47.024 43.067C47.5473 42.9747 47.5987 42.8825 47.6602 42.36C47.7834 41.3251 47.455 40.321 47.4448 39.3066C47.0445 38.7635 47.3934 38.0463 47.024 37.493C46.7366 37.0729 46.8187 36.5811 46.8085 36.1098V32.1035C47.1266 32.124 46.9932 32.3699 47.024 32.5236C47.024 33.4663 47.0855 34.4192 47.0034 35.3516C46.9213 36.325 47.3627 37.0832 47.8245 37.8516C48.0913 38.3025 48.3889 38.7226 48.512 39.2451C48.5941 39.5832 48.7583 39.9214 48.943 40.2185C49.0354 40.3722 49.2612 40.4337 49.4253 40.5361C49.4664 40.3824 49.5485 40.2288 49.5485 40.0853V34.8393H49.764C49.764 37.0524 49.7434 39.2554 49.764 41.4685C49.7742 42.36 49.5998 43.0567 48.6146 43.2924C48.4915 43.3231 48.3889 43.4256 48.276 43.4973H48.2862V43.4871Z" fill="white"/>
<path d="M3.24565 20.2795C2.95831 20.2795 3.0404 20.5049 3.0404 20.6586V24.4293C3.0404 24.7264 2.92752 24.7879 2.6607 24.6444C2.43494 24.5112 2.20915 24.3678 2.00391 24.2038C1.81919 24.0501 1.68577 23.7632 1.48053 23.7018C0.751919 23.4866 0.669822 22.9743 0.710871 22.339C0.710871 22.2878 0.57745 22.2263 0.505615 22.1751V19.009C0.567188 19.0295 0.669855 19.05 0.680117 19.0807C0.721165 19.3164 0.649295 19.675 0.772441 19.757C0.977684 19.8902 1.29583 19.839 1.56265 19.8492C1.7371 19.8492 1.92183 19.8799 2.08603 19.8492C2.37337 19.798 2.73254 19.7877 2.91726 19.6135C3.07119 19.4701 3.03013 19.1115 3.03013 18.8451C3.04039 18.0049 3.03014 17.175 3.0404 16.3348C3.0404 16.2426 3.17382 16.1503 3.24565 16.0684V20.2898V20.2795Z" fill="white"/>
<path d="M31.5896 6.97987C31.7948 6.88765 32.1438 7.21552 32.2464 6.71346C32.2977 6.46755 32.5645 6.31386 32.2566 6.01672C32.1335 5.89377 32.2258 5.55564 32.2258 5.30973C32.2258 4.81792 32.0821 4.38757 31.8051 4.0187C31.9077 4.0187 32.0514 3.97772 32.113 4.0187C32.9237 4.7052 34.0217 4.93063 34.7708 5.69909C34.9145 5.95525 35.0993 6.20116 35.1814 6.46756C35.2942 6.84667 35.2429 7.29751 35.4276 7.62538C35.6637 8.05572 35.6123 8.48604 35.6021 8.91638C35.6021 9.18278 35.3353 9.04959 35.1916 9.08033C35.1711 8.76269 34.9248 8.90615 34.7708 8.86516C34.6682 8.86516 34.5246 8.90615 34.463 8.86516C33.5804 8.17867 32.5645 7.71758 31.5999 7.18477V6.96961H31.5896V6.97987Z" fill="white"/>
<path d="M42.3648 10.146C42.2314 10.1255 42.098 10.1152 41.9748 10.0742C41.6465 9.94104 41.3386 10.0435 41.3078 10.3407C41.277 10.6173 41.3283 10.9042 41.2975 11.1706C41.2667 11.3858 41.1333 11.6009 41.1025 11.8161C41.0615 12.144 41.0102 12.4923 41.5028 12.5743C41.5951 12.5846 41.6567 12.7792 41.7286 12.8919C41.5952 12.8715 41.4515 12.8817 41.3489 12.8202C40.7331 12.4821 40.1687 12.0722 39.5016 11.7956C39.0809 11.6214 38.732 11.2628 38.3523 10.9862H38.4549C38.4549 10.9862 38.5268 10.9349 38.5268 10.9144C38.4755 10.771 38.3626 10.6275 38.3626 10.4841C38.3318 9.9103 38.4139 9.33653 38.1573 8.77299C38.0752 8.5988 38.0957 8.3324 38.1573 8.15821C38.2086 8.01476 38.4241 7.93278 38.5678 7.82007C39.7377 8.45533 40.9076 9.0906 42.0774 9.74636C42.2109 9.81808 42.2827 10.0025 42.3751 10.1357L42.3648 10.146Z" fill="white"/>
<path d="M38.5679 7.83044C38.4242 7.94315 38.219 8.02513 38.1574 8.16858C38.0856 8.35301 38.0753 8.60914 38.1574 8.78333C38.4139 9.33662 38.3319 9.92067 38.3626 10.4945C38.3626 10.6379 38.4756 10.7813 38.5269 10.9248C38.5269 10.935 38.4858 10.9863 38.455 10.9965C38.4242 11.0068 38.3832 10.9965 38.3524 10.9965C37.4185 10.5047 36.4847 10.0231 35.5714 9.51083C35.4174 9.42886 35.3148 9.23416 35.1814 9.10096C35.3353 9.07022 35.5919 9.20345 35.5919 8.93705C35.5919 8.50671 35.6534 8.0866 35.4174 7.64602C35.2327 7.31814 35.284 6.8673 35.1711 6.48819C35.089 6.21154 34.9043 5.97588 34.7606 5.71973C34.9146 5.77096 35.0788 5.79144 35.2224 5.87341C36.1255 6.37548 37.0286 6.89803 37.9317 7.41034L38.1472 7.62553C38.2908 7.69726 38.4242 7.76897 38.5679 7.8407V7.83044Z" fill="white"/>
<path d="M44.6943 14.5825C44.8174 13.9369 45.1766 13.3939 45.4948 12.8406C45.6897 12.5127 46.0079 12.4103 46.3773 12.4717C46.3978 12.7894 46.6441 12.6459 46.7981 12.6869C47.0136 12.7586 47.2393 12.7996 47.4343 12.9021C48.0501 13.2505 48.6658 13.6193 49.261 13.9984C49.3328 14.0496 49.3123 14.2443 49.3328 14.3775C48.5221 14.9411 47.7422 15.5251 46.7981 15.853C46.1516 15.8428 45.7821 15.3407 45.3203 15.0128C45.2998 14.6952 45.0535 14.8386 44.8995 14.7976L44.6841 14.5825H44.6943Z" fill="white"/>
<path d="M49.7741 34.8394H49.5587V31.6938C49.5587 31.5606 49.5792 31.4479 49.3431 31.5504C48.7479 31.827 48.1733 31.6733 47.6396 31.3352C47.4754 31.2327 47.3009 31.1405 47.1367 31.038C47.0957 31.2225 47.0752 31.4172 47.0136 31.6016C46.9828 31.7041 46.8802 31.786 46.8083 31.8782V28.7122C46.8802 28.62 46.9828 28.5482 47.0136 28.4458C47.1265 28.0052 47.1983 27.954 47.4754 28.2409C47.7012 28.4765 47.927 28.5073 48.2143 28.497H49.261C49.4765 28.497 49.5689 28.5585 49.5689 28.7839C49.5586 29.4397 49.5586 30.1057 49.5689 30.7614C49.5689 30.8536 49.7023 30.9356 49.7741 31.0278V34.8291V34.8394Z" fill="white"/>
<path d="M0.495361 31.6731C0.567196 31.7653 0.700554 31.8575 0.700554 31.9498C0.721078 32.79 0.700564 33.6404 0.710826 34.4806C0.710826 35.1876 1.4497 35.6794 2.11674 35.4335C2.27067 35.3822 2.41438 35.3003 2.54779 35.208C2.81461 35.0339 3.09166 34.9109 3.04035 34.4806C2.97878 33.8556 3.01983 33.2203 3.04035 32.585C3.04035 32.4928 3.17377 32.4006 3.24561 32.3084V35.6896C3.18404 35.7101 3.07111 35.7409 3.07111 35.7613C3.13268 36.4991 2.45541 36.9806 2.39383 37.6774C1.84994 38.1077 1.68571 38.7737 1.3368 39.327C1.21366 39.5319 1.0803 39.7881 0.813485 39.6754C0.710864 39.6344 0.721088 39.3168 0.710826 39.1118C0.690302 38.8045 0.710816 38.4868 0.700554 38.1794C0.700554 38.118 0.567196 38.0667 0.495361 38.0155V31.6834V31.6731Z" fill="white"/>
<path d="M49.7741 31.0381C49.7023 30.9458 49.5791 30.8639 49.5689 30.7717C49.5483 30.1159 49.5483 29.4499 49.5689 28.7941C49.5689 28.5687 49.4868 28.497 49.261 28.5072C48.9121 28.5175 48.5632 28.5072 48.2143 28.5072C47.927 28.5072 47.7012 28.4867 47.4754 28.2511C47.1881 27.9539 47.1265 28.0154 47.0136 28.456C46.9828 28.5585 46.8802 28.6405 46.8083 28.7224V24.501C46.8699 24.5215 46.9726 24.542 46.9829 24.5727C47.0136 24.7059 47.0341 24.8493 47.0136 24.9825C46.952 25.4129 47.1573 25.4641 47.5473 25.6076C48.1527 25.8228 48.6556 26.1301 49.2405 25.5768C49.3637 25.4539 49.5176 25.5768 49.5689 25.8023C49.6304 26.0687 49.3123 26.4375 49.7639 26.6015V31.0278L49.7741 31.0381Z" fill="white"/>
<path d="M46.8083 21.1195C46.8699 21.099 46.9726 21.0785 46.9829 21.0478C47.0239 20.8121 46.952 20.4535 47.0752 20.3715C47.2804 20.2383 47.5986 20.2896 47.8654 20.2793C48.2964 20.2588 48.7377 20.3408 49.1481 20.0847C49.2816 20.0027 49.5689 19.9925 49.5587 20.3511C49.5381 21.0171 49.5484 21.6728 49.5587 22.3388C49.5587 22.431 49.692 22.5233 49.7639 22.6052V24.2959C49.692 24.2446 49.5689 24.1934 49.5587 24.1319C49.5381 23.8553 49.5587 23.5786 49.5587 23.302C49.5587 23.0048 49.4253 22.9536 49.179 23.097C48.6351 23.3942 48.0398 23.22 47.4754 23.22C47.2599 23.22 47.0341 22.9639 46.8186 22.8204V21.1298H46.8083V21.1195Z" fill="white"/>
<path d="M46.8083 22.8103C47.0238 22.9537 47.2496 23.2099 47.4651 23.2099C48.0295 23.2099 48.6248 23.3841 49.1686 23.087C49.4149 22.9538 49.5483 22.9947 49.5483 23.2919C49.5483 23.5685 49.5381 23.8452 49.5483 24.1218C49.5483 24.1833 49.6818 24.2345 49.7536 24.2858V26.6117C49.3021 26.4477 49.6099 26.0789 49.5586 25.8125C49.5073 25.5768 49.3534 25.4641 49.2302 25.587C48.6453 26.1403 48.1424 25.833 47.5369 25.6178C47.147 25.4846 46.952 25.4231 47.0033 24.9927C47.0238 24.8595 47.0033 24.7161 46.9725 24.5829C46.9725 24.5419 46.8597 24.5317 46.7981 24.5112V22.8206H46.8083V22.8103Z" fill="white"/>
<path d="M1.34694 39.9009C1.57271 39.8701 1.86005 39.9214 1.86005 40.116C1.86005 40.6284 2.36289 41.0177 2.10633 41.6222C1.9524 41.9809 2.14742 42.5034 2.20899 42.944C2.20899 42.9952 2.36291 43.026 2.45527 43.067C2.51685 43.0977 2.56813 43.1386 2.61944 43.1694C2.56813 43.2104 2.51686 43.2514 2.46555 43.2719C2.23978 43.3641 1.90115 43.0772 1.778 43.487C1.52145 43.3436 1.25459 43.2206 1.02882 43.0362C0.741481 42.8006 0.5465 42.4829 0.515714 42.1038C0.495189 41.7964 0.515714 41.4788 0.515714 41.1611C0.864627 40.782 1.1725 40.3824 1.35722 39.8906L1.34694 39.9009Z" fill="white"/>
<path d="M1.34712 39.9009C1.1624 40.3825 0.854528 40.7923 0.505615 41.1714V38.0053C0.57745 38.0566 0.700609 38.1078 0.710871 38.1693C0.731395 38.4767 0.710881 38.7943 0.721143 39.1017C0.721143 39.2963 0.721118 39.614 0.823739 39.6652C1.09055 39.7779 1.22397 39.5115 1.34712 39.3169C1.69603 38.7636 1.86026 38.0975 2.40415 37.6672C2.46572 36.9705 3.143 36.4991 3.08142 35.7512C3.08142 35.7307 3.19435 35.6999 3.25593 35.6794C3.28671 35.8434 3.15326 36.079 3.47139 36.0995C3.26615 36.3454 3.2354 36.6426 3.25593 36.9397L3.0404 37.1549L2.82487 37.3701C2.72225 37.739 2.3631 38.0054 2.40415 38.4254L2.18862 38.6406L1.97316 38.8558C1.75765 39.2041 1.55235 39.5628 1.33685 39.9111H1.34712V39.9009Z" fill="white"/>
<path d="M12.7687 7.19508C12.6456 7.667 12.2864 7.63623 11.9272 7.61571C12.1428 7.33871 12.4096 7.17456 12.7687 7.19508Z" fill="white"/>
<path d="M11.917 48.9794C11.9991 48.9076 12.1325 48.7639 12.1531 48.7845C12.2865 48.887 12.3993 49.0102 12.5122 49.1333C12.4609 49.1538 12.3994 49.1743 12.348 49.1948C12.2044 49.123 12.0709 49.0512 11.9273 48.9794H11.917Z" fill="white"/>
<path d="M35.1814 50.6596C35.2019 50.3415 35.4482 50.4851 35.6021 50.4441C35.5816 50.7621 35.3353 50.6185 35.1814 50.6596Z" fill="white"/>
<path d="M34.7606 50.8749C34.7811 50.5568 35.0275 50.7005 35.1814 50.6594C35.1609 50.9775 34.9146 50.8338 34.7606 50.8749Z" fill="white"/>
<path d="M11.9171 7.61523C11.8965 7.93327 11.6503 7.78963 11.4963 7.83067C11.5169 7.51263 11.7631 7.65627 11.9171 7.61523Z" fill="white"/>
<path d="M46.8084 12.6772C46.6442 12.6464 46.4082 12.7798 46.3877 12.4617C46.5519 12.4925 46.7879 12.3592 46.8084 12.6772Z" fill="white"/>
<path d="M19.7471 6.55978C19.665 6.89833 19.4392 7.01119 19.1108 6.98041C19.1929 6.64186 19.4187 6.529 19.7471 6.55978Z" fill="white"/>
<path d="M20.5886 6.56038V6.13975L20.8042 5.92432H21.0197C20.876 6.13976 20.7426 6.34494 20.5989 6.56038H20.5886Z" fill="white"/>
<path d="M20.1679 6.35474C20.1473 6.67277 19.901 6.52913 19.7471 6.57017C19.7676 6.25214 20.0139 6.39577 20.1679 6.35474Z" fill="white"/>
<path d="M21.0094 5.92494H20.7938V5.70947L21.0094 5.92494Z" fill="white"/>
<path d="M28.2031 9.94095V9.72579L27.9876 9.51063C27.4129 8.75241 27.0435 7.86099 26.5099 7.07203C26.4586 7.00031 26.5099 6.86709 26.5099 6.76463C26.592 6.81586 26.6843 6.85686 26.7664 6.90809C26.9409 7.01055 27.1461 7.03103 27.1358 6.79536C27.1051 6.40601 27.2077 6.02692 26.9922 5.59658C26.7459 5.11501 26.6228 4.51048 26.7254 3.92644C26.7562 3.74201 26.8074 3.41412 26.869 3.40388C27.1256 3.38339 27.495 3.22972 27.6182 3.5576C27.7824 3.96744 28.1005 4.13136 28.4186 4.36702C28.7059 4.57195 28.8907 4.92031 29.0959 5.2277C29.2396 5.44287 29.3422 5.67854 29.4654 5.91421H29.2498C29.178 5.96544 29.0343 6.05766 29.0446 6.07815C29.1677 6.37529 29.2498 6.6212 29.0651 6.97982C28.9522 7.18474 29.0138 7.54335 29.1575 7.86098C29.4243 8.47575 29.0959 9.21348 29.4551 9.84874C29.4859 9.89997 29.4756 10.0127 29.4346 10.0434C29.1164 10.2893 29.3114 10.6275 29.2396 10.9144C29.219 11.0168 29.1062 11.0988 29.0344 11.191C29.0652 10.8631 28.942 10.6377 28.6136 10.5557C28.5828 10.3918 28.7163 10.1561 28.3981 10.1356L28.1826 9.92047L28.2031 9.94095Z" fill="white"/>
<path d="M24.396 5.71941C24.396 5.82187 24.437 5.9653 24.396 6.02678C23.7597 6.82598 23.3595 7.76865 22.8464 8.63958C22.6206 9.01869 22.3333 9.36706 22.0767 9.72567C21.933 9.85887 21.7791 9.97159 21.656 10.115C21.5534 10.238 21.502 10.4122 21.3789 10.5044C21.307 10.5556 21.071 10.5249 21.0402 10.4737C20.8042 9.98184 20.5784 9.49001 20.3937 8.98795C20.3116 8.77278 20.3526 8.51662 20.5887 8.34243C20.6195 8.32194 20.5784 8.1375 20.5168 8.07602C20.2603 7.80962 20.4347 7.48176 20.3834 7.19486V6.77476L20.5989 6.5596C20.7426 6.34443 20.8761 6.13951 21.0197 5.92434C21.5842 5.75016 21.4918 5.0944 21.851 4.76652C21.9844 4.64357 22.0151 4.39765 22.1588 4.27469C22.3641 4.10051 22.7027 4.28494 22.7129 4.56158C22.7129 5.11488 22.7027 5.66818 22.7129 6.23172C22.7335 6.70304 22.9695 6.79527 23.4313 6.6006C23.6263 6.51863 23.7289 6.47764 23.811 6.24197C23.8828 6.0268 24.201 5.89359 24.4062 5.71941H24.396Z" fill="white"/>
<path d="M29.26 5.92432H29.4755C29.8758 6.2317 30.512 6.21119 30.748 6.76448C30.6249 6.74399 30.4812 6.75424 30.3786 6.70301C29.9579 6.50833 29.9681 6.50835 29.9065 6.97967C29.5474 6.72352 29.5063 6.26244 29.2703 5.92432H29.26Z" fill="white"/>
<path d="M31.5897 6.97998V7.19541C31.4255 7.16464 31.1895 7.29801 31.1689 6.97998H31.5897Z" fill="white"/>
<path d="M26.2944 6.56028C25.9763 6.53976 26.1097 6.29354 26.0789 6.13965C26.3971 6.16017 26.2636 6.40639 26.2944 6.56028Z" fill="white"/>
<path d="M24.6113 5.29956C24.5805 5.46371 24.7139 5.69967 24.3958 5.72019C24.4266 5.55604 24.2932 5.32008 24.6113 5.29956Z" fill="white"/>
<path d="M30.7378 6.77496C30.902 6.80574 31.138 6.67236 31.1585 6.9904C30.9943 6.95962 30.7583 7.093 30.7378 6.77496Z" fill="white"/>
<path d="M4.51802 40.116C4.5488 40.4643 4.82585 40.3209 5.00031 40.3209C6.67304 40.3311 8.34578 40.3209 10.0185 40.3209V40.5361H5.79051C5.47238 40.5361 5.16454 40.5566 4.84641 40.5361C4.53855 40.5053 4.47698 40.6693 4.52829 40.9049C4.64117 41.4582 4.76432 42.0115 4.78484 42.5853C4.78484 42.8005 4.85665 43.0976 5.01058 43.2001C5.17477 43.323 5.4621 43.2718 5.69812 43.282C6.01625 43.2923 6.32416 43.282 6.64229 43.282H7.06301V43.4972H4.21016C3.80994 43.4972 3.54309 43.282 3.47126 42.8927C3.45073 42.7595 3.47126 42.6058 3.47126 42.4726C3.41995 42.032 3.61492 41.5709 3.33784 41.1611C3.10181 40.8127 3.41993 40.3619 3.07102 39.993C2.91709 39.8188 3.04026 39.3885 3.04026 39.0708C3.04026 38.9274 3.05053 38.784 3.04026 38.6508C3.00948 38.3639 2.75293 38.2819 2.40402 38.4458C2.37323 38.0257 2.72211 37.7593 2.82474 37.3905L3.04026 37.1753L3.25579 36.9601C3.39946 36.8167 3.54312 36.5708 3.69706 36.5605C4.01518 36.5605 4.02541 36.9294 4.17935 37.1241C4.36407 37.3495 4.29223 37.5852 4.30249 37.8106C4.33327 38.2204 4.30253 38.6508 4.40515 39.0401C4.47698 39.3168 4.57955 39.5217 4.35379 39.7778C4.2409 39.911 4.24093 40.1057 4.50774 40.1262H4.51802V40.116Z" fill="white"/>
<path d="M7.05273 43.2821H6.63201C6.48834 42.6878 6.38573 42.0833 6.19075 41.5095C6.12918 41.3148 6.05734 41.2636 6.19075 41.0484C6.42678 40.6693 5.70841 40.8845 5.79051 40.5361H7.26826C7.31957 40.6079 7.38112 40.741 7.43243 40.741C7.77108 40.7103 7.94557 40.7616 7.91478 41.1816C7.86347 41.8784 7.90451 42.5751 7.90451 43.2821H7.05273Z" fill="white"/>
<path d="M7.05286 43.282H7.6891C7.58648 43.6923 7.2581 43.4153 7.05286 43.4974V43.282Z" fill="white"/>
<path d="M45.1151 43.282V43.4974H42.5803C42.6829 43.0871 43.0113 43.3641 43.2166 43.282H45.1151Z" fill="white"/>
<path d="M43.2166 43.2824C43.0113 43.3644 42.683 43.0874 42.5803 43.4978H42.3649V43.2824C42.447 43.2105 42.5188 43.0977 42.6111 43.0772C42.8061 43.0464 43.0114 43.0772 43.2064 43.0772V43.2926H43.2166V43.2824Z" fill="white"/>
<path d="M40.6613 44.6656C40.6613 44.6656 40.5997 44.7374 40.5894 44.7271C40.5484 44.7066 40.5074 44.6656 40.4663 44.6348L40.5587 44.5425C40.5587 44.5425 40.6305 44.6245 40.6613 44.6656Z" fill="white"/>
<path d="M49.5586 34.6241V40.0854C49.5586 40.2391 49.4765 40.3928 49.4355 40.5362C49.2713 40.4337 49.0455 40.362 48.9531 40.2186C48.7684 39.9214 48.6042 39.5833 48.5221 39.2452C48.399 38.7124 48.1014 38.3025 47.8345 37.8517C47.3727 37.0832 46.9315 36.325 47.0136 35.3516C47.0957 34.4192 47.0341 33.4663 47.0341 32.5237C47.106 32.5749 47.2291 32.6261 47.2394 32.6876C47.2599 33.1077 47.2394 33.5176 47.2497 33.9377C47.2497 34.1426 47.1983 34.3987 47.2907 34.5422C47.3728 34.6651 47.6498 34.6549 47.8345 34.7061C47.9885 34.7471 48.1424 34.7983 48.2963 34.8496C48.7581 34.993 49.1276 34.6446 49.5688 34.6344H49.5586V34.6241Z" fill="white"/>
<path d="M46.3877 35.6793C46.4596 35.7305 46.5314 35.7817 46.593 35.8432C46.6751 35.9252 46.7366 36.0174 46.8085 36.0994C46.8085 36.5707 46.7366 37.0523 47.024 37.4826C47.3934 38.0359 47.0548 38.7531 47.4448 39.2962C47.455 40.3208 47.7834 41.3147 47.6602 42.3496C47.5987 42.8824 47.5473 42.9746 47.024 43.0566C46.6956 43.1078 46.3877 43.2205 46.0593 43.2615C45.7515 43.2922 45.4334 43.2615 45.1152 43.2615C45.1358 42.9439 45.382 43.0873 45.536 43.0463C45.8849 43.0565 46.3056 43.0975 46.3672 42.6467C46.4288 42.1754 46.3877 41.6733 46.3159 41.202C46.2748 40.9253 46.0902 40.6692 45.967 40.4028C46.3159 40.1774 46.0901 39.9929 45.9875 39.7265C45.8849 39.4499 45.967 39.1015 45.967 38.7839C45.967 38.3945 46.0696 37.9744 45.9465 37.6363C45.6283 36.7859 45.8131 35.9354 45.7618 35.085C45.7618 35.003 45.8952 34.9006 45.967 34.8186V35.0338L46.1825 35.249V35.4641L46.398 35.6793H46.3877Z" fill="white"/>
<path d="M49.5587 34.6243C49.1276 34.6243 48.7479 34.9829 48.2861 34.8394C48.1322 34.7882 47.9783 34.737 47.8244 34.696C47.6396 34.6448 47.3625 34.655 47.2804 34.532C47.1778 34.3886 47.2394 34.1324 47.2394 33.9275C47.2394 33.5074 47.2394 33.0976 47.2291 32.6775C47.2291 32.616 47.0957 32.5648 47.0239 32.5135C46.9931 32.3496 47.1265 32.1139 46.8083 32.0934V31.8783C46.8802 31.7861 46.9828 31.7041 47.0136 31.6016C47.0752 31.4172 47.0957 31.2225 47.1367 31.0381C47.3009 31.1405 47.4754 31.2328 47.6396 31.3352C48.1733 31.6734 48.7479 31.827 49.3431 31.5504C49.5689 31.4479 49.5484 31.5504 49.5587 31.6939V34.6243Z" fill="white"/>
<path d="M35.1814 9.09076C35.0172 9.05998 34.7811 9.19333 34.7606 8.87529C34.9248 8.90607 35.1609 8.77273 35.1814 9.09076Z" fill="white"/>
<path d="M45.3307 15.0031C45.1665 14.9723 44.9304 15.1057 44.9099 14.7877C45.0741 14.8184 45.3102 14.6851 45.3307 15.0031Z" fill="white"/>
<path d="M4.51817 40.1159C4.25136 40.0954 4.24107 39.8905 4.36421 39.7676C4.58998 39.5114 4.48735 39.3167 4.41551 39.0298C4.31289 38.6405 4.3437 38.2101 4.31292 37.8003C4.29239 37.5646 4.37449 37.3392 4.18977 37.1138C4.02558 36.9191 4.02555 36.54 3.70742 36.5502C3.55349 36.5502 3.40983 36.8064 3.26616 36.9499C3.24563 36.6425 3.27644 36.3556 3.48168 36.1097C3.62535 35.915 3.8101 35.7408 3.8922 35.5256C4.08718 35.0236 4.38473 34.6035 4.74391 34.2039V34.3063C5.35964 34.4293 5.34937 34.4293 5.38016 34.8801C5.44173 35.8637 5.51359 36.8474 5.59568 37.831C5.59568 37.8925 5.7291 37.9437 5.80094 37.995C5.45203 38.7429 5.04155 39.4499 4.52844 40.1057H4.51817V40.1159Z" fill="white"/>
<path d="M20.3731 7.19507C20.4244 7.48196 20.25 7.80982 20.5065 8.07623C20.5681 8.1377 20.6091 8.32214 20.5783 8.34264C20.3423 8.51682 20.3115 8.77298 20.3833 8.98815C20.5681 9.50046 20.7938 9.99229 21.0299 10.4739C21.0606 10.5353 21.2967 10.5558 21.3685 10.5046C21.4917 10.4124 21.543 10.2279 21.6456 10.1152C21.7688 9.97179 21.9227 9.85908 22.0663 9.72588C22.0663 9.82834 22.1074 9.97178 22.0663 10.0333C21.3788 10.8427 21.153 11.939 20.3833 12.687C20.0652 12.7075 20.1987 12.9534 20.1679 13.1071C19.665 13.3838 19.3674 13.7936 19.3264 14.3777C19.1519 14.3777 18.8954 14.4494 18.8235 14.3674C18.6593 14.183 18.5157 13.9268 18.4951 13.6912C18.4746 13.3633 18.3925 13.1276 18.1565 12.8817C17.7357 12.4616 17.7152 12.2874 17.8383 11.6317C17.787 11.1706 18.0949 10.7915 18.3002 10.4841C18.998 9.42873 19.5829 8.32216 20.1679 7.20532H20.3833H20.3731V7.19507Z" fill="white"/>
<path d="M9.59794 31.253C9.5261 31.4682 9.48503 31.6936 9.38241 31.8882C9.06428 32.4723 8.7564 33.0563 8.33565 33.5686C8.03805 33.3842 7.93544 33.1075 7.90466 32.7592C7.85335 32.1239 7.78149 31.4886 7.68913 30.8636C7.65834 30.6485 7.5352 30.4435 7.43258 30.2386C7.35048 30.0747 7.12473 30.6587 7.06315 30.1874C7.06315 30.1566 7.05289 30.1156 7.06315 30.0849C7.30945 29.6238 7.54551 29.1628 7.80206 28.7119C8.03809 28.2816 8.29461 27.8717 8.54091 27.4414L8.75643 27.2262C9.31059 26.9393 9.45427 26.9803 9.59794 27.5131C9.80318 28.2611 9.96734 29.0193 10.1418 29.7775C10.1623 29.8493 10.1418 29.9517 10.1008 29.9927C9.7416 30.3308 9.68003 30.7919 9.59794 31.2427V31.253Z" fill="white"/>
<path d="M17.8384 11.6316C17.7152 12.2873 17.7357 12.4615 18.1565 12.8816C18.3925 13.1173 18.4746 13.3632 18.4952 13.6911C18.5054 13.9267 18.6594 14.1829 18.8235 14.3673C18.9056 14.4493 19.1519 14.3776 19.3264 14.3776C19.3264 14.521 19.3777 14.6849 19.3264 14.7874C18.9569 15.4329 18.5567 16.0682 18.1668 16.6932C18.1668 16.7137 18.1052 16.6932 18.0642 16.6932C17.6331 16.7956 17.6126 17.226 17.4381 17.5129C17.1405 18.0047 17.0379 18.0252 16.7198 17.5539C16.6377 17.4309 16.5967 17.2465 16.5864 17.0928C16.5659 16.8571 16.6787 16.5088 16.5556 16.3858C16.2477 16.0784 16.4222 15.7403 16.3606 15.4124C16.2888 15.064 16.217 14.7054 16.1451 14.3571C16.5762 13.5374 16.9969 12.7177 17.4484 11.9082C17.5202 11.775 17.705 11.7135 17.8384 11.6111V11.6316Z" fill="white"/>
<path d="M13.6104 24.5009C13.0767 25.4845 12.5534 26.4682 12.0197 27.4518C12.0197 27.4621 11.9581 27.4518 11.9171 27.4518C11.8966 27.2571 11.9171 27.0317 11.835 26.8575C11.5682 26.294 11.2501 25.7919 11.2398 25.1055C11.2398 24.7878 11.0551 24.2038 10.4394 24.2857C10.4394 24.1833 10.3983 24.0398 10.4394 23.9784C11.0243 23.3431 11.2911 22.5132 11.7529 21.8062C11.9479 21.509 12.1429 21.2016 12.3379 20.9045C12.4918 20.9352 12.7073 20.802 12.7586 21.0684C12.8612 21.5603 12.9946 22.0316 12.9844 22.5541C12.9741 23.2509 13.1486 23.9271 13.6104 24.4907V24.5009Z" fill="white"/>
<path d="M10.4394 24.2859C11.0654 24.2039 11.2398 24.788 11.2398 25.1056C11.2398 25.7921 11.5682 26.2941 11.8351 26.8577C11.9172 27.0319 11.8863 27.247 11.9171 27.4519L11.7017 27.6671V27.8823L11.4861 28.0975C11.4861 28.1692 11.5169 28.2512 11.4861 28.3024C10.9628 29.2246 10.4394 30.1365 9.90578 31.0484C9.8442 31.1508 9.70054 31.1918 9.58765 31.2738C9.65949 30.823 9.73131 30.3721 10.0905 30.0237C10.1315 29.9828 10.1418 29.8803 10.1315 29.8086C9.95706 29.0504 9.7929 28.2921 9.58765 27.5442C9.44398 27.0114 9.3003 26.9704 8.74615 27.2573C8.74615 27.1548 8.7051 27.0216 8.74615 26.9499C9.35162 26.1507 9.80312 25.2593 10.2547 24.3781C10.2752 24.3371 10.3676 24.3269 10.4292 24.3064V24.2859H10.4394Z" fill="white"/>
<path d="M13.6104 24.5008C13.1589 23.9373 12.9741 23.2611 12.9844 22.5643C12.9947 22.0418 12.8612 21.5704 12.7586 21.0786C12.7073 20.8122 12.4918 20.9454 12.3379 20.9147C12.7689 20.095 13.1897 19.2753 13.6412 18.4658C13.713 18.3326 13.8978 18.2712 14.0312 18.1687C14.0312 18.3429 13.9593 18.5991 14.0414 18.6708C14.3287 18.9269 14.1953 19.2343 14.2466 19.5212C14.2979 19.8081 14.4519 20.0848 14.4313 20.3614C14.4006 20.761 14.6058 20.9967 14.8726 21.2221C15.006 21.3348 15.16 21.4372 15.2934 21.5397C15.2934 21.6422 15.3344 21.7754 15.2934 21.8471C14.6879 22.6463 14.2364 23.5377 13.7848 24.4189C13.7643 24.4599 13.672 24.4701 13.6104 24.4906V24.5008Z" fill="white"/>
<path d="M5.79067 38.0053C5.71884 37.9541 5.59568 37.9029 5.58542 37.8414C5.50332 36.8578 5.43153 35.8741 5.36995 34.8905C5.33917 34.4396 5.34937 34.4397 4.73364 34.3167V33.9991L4.94917 33.7839C5.16468 33.3536 5.35966 32.913 5.59569 32.4929C5.68805 32.3392 5.87279 32.2265 6.0062 32.1035C6.14987 32.2265 6.3756 32.3392 6.41665 32.4929C6.51927 32.9335 6.74508 33.3638 6.65272 33.8454C6.50905 34.5216 6.80664 35.0442 7.2787 35.4847C6.92978 36.12 6.57058 36.7553 6.22167 37.3803L6.0062 37.5955C5.93437 37.7389 5.86251 37.8721 5.79067 38.0156V38.0053Z" fill="white"/>
<path d="M7.26835 35.4745C6.78602 35.034 6.4987 34.5114 6.64237 33.8351C6.74499 33.3536 6.50892 32.9232 6.4063 32.4826C6.37551 32.3289 6.13952 32.2265 5.99585 32.0933V31.8781L6.21131 31.663C6.22158 31.0174 6.72443 30.6486 7.05282 30.1875C7.11439 30.6588 7.32994 30.0748 7.4223 30.2387C7.52492 30.4334 7.64807 30.6486 7.67886 30.8638C7.77122 31.4888 7.84301 32.124 7.89432 32.7593C7.92511 33.1077 8.02771 33.3843 8.32531 33.5687C7.98666 34.2142 7.71988 34.8905 7.26835 35.4643V35.4745Z" fill="white"/>
<path d="M15.3036 21.5396C15.1599 21.4371 15.0162 21.3347 14.8828 21.222C14.616 20.9965 14.421 20.7711 14.4415 20.3613C14.4621 20.0846 14.2979 19.808 14.2568 19.5211C14.2055 19.2342 14.3389 18.9268 14.0516 18.6707C13.9695 18.5989 14.0413 18.3428 14.0413 18.1686C14.1131 17.9227 14.1132 17.6153 14.2671 17.4514C14.6571 17.0415 14.8315 16.5292 15.0983 16.0579C15.3651 16.0784 15.3754 16.2935 15.2625 16.396C15.0059 16.6317 15.0573 16.9288 15.1189 17.1542C15.2728 17.7382 15.519 18.3018 15.7038 18.8756C15.7551 19.0293 15.7346 19.2034 15.7859 19.3571C15.8474 19.5621 16.0835 19.5621 16.299 19.3981C16.3913 19.3264 16.5248 19.0395 16.5863 19.4186C16.2374 20.1666 15.827 20.8736 15.3138 21.5293H15.3036V21.5396Z" fill="white"/>
<path d="M16.5762 19.4291C16.5146 19.0499 16.3812 19.3266 16.2888 19.4086C16.0733 19.5725 15.8476 19.5623 15.7757 19.3676C15.7244 19.2139 15.745 19.0397 15.6937 18.886C15.4987 18.3122 15.2626 17.7487 15.1087 17.1647C15.0471 16.9392 14.9958 16.6318 15.2523 16.4064C15.3652 16.3039 15.355 16.0785 15.0882 16.0683C15.55 15.5765 15.6629 14.8593 16.1452 14.3777C16.217 14.7261 16.2888 15.0744 16.3607 15.433C16.4222 15.7507 16.2478 16.0888 16.5557 16.4064C16.6788 16.5294 16.5557 16.8675 16.5865 17.1134C16.5967 17.2671 16.6378 17.4515 16.7199 17.5745C17.038 18.0458 17.1406 18.0151 17.4382 17.5335C17.6126 17.2466 17.6332 16.8163 18.0642 16.7138C17.9924 16.929 17.9616 17.1544 17.8487 17.3491C17.4382 18.0561 17.0791 18.804 16.5865 19.4598V19.4291H16.5762Z" fill="white"/>
<path d="M20.3731 7.19541H20.1576L20.3731 6.97998V7.19541Z" fill="white"/>
<path d="M35.1814 16.2732C35.6329 16.9802 36.1357 17.6667 36.4436 18.4556C36.6078 18.886 37.1004 19.1319 37.0901 19.6442C36.9157 19.5724 36.7309 19.511 36.5565 19.4393C36.6283 19.7569 36.146 19.8491 36.341 20.3102C36.6796 21.1504 36.7617 22.093 36.8644 23.0049C36.8952 23.3123 37.0388 23.7017 36.6694 23.9578C37.0183 24.214 36.8233 24.5931 36.8746 24.9107C36.3717 24.4804 36.1973 23.8144 35.8586 23.2816C35.4995 22.718 35.1403 22.1135 34.8427 21.4987C34.7811 21.386 34.7914 21.2426 34.7606 21.1094C34.7503 20.843 34.8325 20.5663 34.5554 20.3512C34.4425 20.2692 34.3501 20.0643 34.3501 19.9208C34.3604 19.1011 33.9909 18.3327 34.1141 17.5027C34.1346 17.3593 33.9806 17.1953 33.9806 17.0416C33.9806 16.3756 33.642 15.7609 33.8781 15.0436C34.0833 14.4186 34.227 15.1871 34.3399 14.9822L34.5554 15.1973C34.5349 15.5559 34.5143 15.9248 34.9761 16.0375L35.1916 16.2527V16.2732H35.1814Z" fill="white"/>
<path d="M30.5326 8.03503C30.9021 8.72152 31.2818 9.40801 31.6512 10.1047C31.7231 10.2482 31.7538 10.4121 31.8051 10.5658C31.7333 10.6581 31.5999 10.7503 31.5999 10.8322C31.682 11.7441 31.5075 12.6356 31.7538 13.568C31.9591 14.3467 31.7949 15.2176 31.7949 16.0578C31.5384 15.6992 31.2612 15.3508 31.0355 14.9717C30.3582 13.8241 29.7014 12.6663 29.0549 11.5085C29.0138 11.4265 29.0549 11.3036 29.0549 11.2011C29.1267 11.1089 29.2396 11.0269 29.2601 10.9244C29.332 10.6375 29.137 10.2892 29.4551 10.0535C29.4962 10.0228 29.5064 9.91008 29.4757 9.85885C29.1062 9.23383 29.4448 8.48586 29.178 7.87109C29.0446 7.55345 28.9831 7.19482 29.0857 6.9899C29.2704 6.64153 29.1883 6.3854 29.0651 6.08826C29.0651 6.06777 29.1986 5.98579 29.2704 5.92432C29.5064 6.26244 29.5372 6.72352 29.9066 6.97967L30.1222 7.19483V7.41L30.3376 7.62519C30.3684 7.78913 30.235 8.02476 30.5532 8.04525H30.5326V8.03503Z" fill="white"/>
<path d="M31.7948 16.0579C31.7948 15.2279 31.959 14.3468 31.7537 13.568C31.5075 12.6356 31.6717 11.7442 31.5999 10.8323C31.5999 10.7503 31.7332 10.6581 31.805 10.5659C32.3592 11.0065 32.5542 11.6827 32.9236 12.2463C33.4573 13.0557 33.878 13.9369 34.3398 14.7976C34.3706 14.8488 34.3398 14.9308 34.3398 15.0025C34.2269 15.2074 34.0833 14.439 33.878 15.064C33.642 15.7915 33.9704 16.4062 33.9806 17.062C33.9806 17.2157 34.1346 17.3796 34.114 17.5231C33.9909 18.353 34.3604 19.1215 34.3501 19.9412C34.3501 20.0846 34.4425 20.2793 34.5554 20.3715C34.8427 20.5867 34.7503 20.8633 34.7605 21.1297C34.545 20.8531 34.2988 20.6072 34.1346 20.31C33.4881 19.1625 32.8621 17.9944 32.2258 16.8366C32.0822 16.5804 31.7024 16.4677 31.805 16.0784V16.0579H31.7948Z" fill="white"/>
<path d="M24.8166 43.2822H22.4871C22.3948 43.2105 22.3126 43.0875 22.2203 43.0772C21.5225 43.0568 20.8246 43.0465 20.1268 43.0772C19.7881 43.0875 19.8292 42.8928 19.7163 42.6777C19.3879 42.0731 19.5726 41.5301 19.7471 40.9563C19.7676 40.8743 19.8497 40.7719 19.9113 40.7514C20.4039 40.6694 20.8965 40.5669 21.3891 40.5362C22.015 40.5055 22.641 40.5362 23.2773 40.5157C23.3696 40.5157 23.462 40.3825 23.5441 40.3108H40.2509C40.1688 40.3825 40.0867 40.5054 39.9943 40.5157C39.5838 40.5362 39.1836 40.5157 38.7731 40.5157H35.6021C35.2429 40.403 34.9761 40.7309 34.6375 40.7309H33.4881C33.2521 40.6182 33.0366 40.4542 32.739 40.5157C32.503 40.5567 32.2566 40.5157 32.0104 40.5157H25.2476C24.8577 40.5157 24.4677 40.4952 24.088 40.5157C23.5339 40.5464 23.1336 40.9973 23.3696 41.4174C23.6057 41.8272 23.5543 42.2166 23.5338 42.6059C23.5133 43.026 23.6775 43.0363 24.0162 43.067C24.283 43.0875 24.6524 42.8109 24.8166 43.2617V43.2822Z" fill="white"/>
<path d="M36.8745 24.9209C36.8232 24.6033 37.0183 24.2242 36.6694 23.968C37.0285 23.7119 36.8951 23.3225 36.8643 23.0151C36.7617 22.1032 36.6796 21.1606 36.341 20.3204C36.146 19.8491 36.6283 19.7568 36.5564 19.4495C36.7309 19.5212 36.9156 19.5827 37.0901 19.6544L37.3056 19.8696C37.5622 20.3101 37.8392 20.7405 38.0855 21.1811C38.147 21.2835 38.1368 21.427 38.1573 21.5602C38.1881 21.7856 38.065 22.0418 38.301 22.2364C38.6704 22.5438 38.7423 23.0459 38.9578 23.4352C39.1938 23.8758 39.1528 24.4701 39.2041 25.0029C39.2759 25.7099 39.0707 26.4374 39.4093 27.1239C39.5222 27.3493 39.5427 27.6464 39.5325 27.9026C39.5325 28.0972 39.4093 28.2919 39.3478 28.4866C39.2349 28.3841 39.0296 28.2919 39.0091 28.169C38.9578 27.8923 38.8141 27.7489 38.5678 27.6772C38.5986 27.3493 38.4755 27.1239 38.1471 27.0419C37.6443 26.3861 37.2235 25.6792 36.8745 24.9312V24.9209Z" fill="white"/>
<path d="M38.5679 27.667C38.8142 27.7387 38.9579 27.8822 39.0092 28.1588C39.0297 28.2818 39.2247 28.374 39.3479 28.4765C39.4094 28.2818 39.5223 28.0871 39.5326 27.8924C39.5326 27.626 39.5223 27.3391 39.4094 27.1137C39.0708 26.4272 39.276 25.6997 39.2042 24.9928C39.1529 24.46 39.2042 23.8554 38.9579 23.4251C38.7424 23.0255 38.6705 22.5337 38.3011 22.2263C38.0651 22.0316 38.1882 21.7755 38.1574 21.55C38.7321 22.0931 39.0092 22.8206 39.4094 23.4763C39.9533 24.3575 40.4049 25.2899 40.8975 26.1916C40.6306 26.2121 40.6306 26.4067 40.7332 26.5399C41.0616 26.96 41.1642 27.4314 41.1129 27.9539C41.1027 28.0871 41.0616 28.2511 41.1129 28.3638C41.5747 29.3884 41.2053 30.4642 41.3079 31.5093C41.3284 31.7553 41.0514 31.6425 40.8975 31.6733V31.4684C40.8872 31.4069 40.8564 31.3454 40.8359 31.2942L40.6922 31.4684C40.292 31.2429 40.1996 30.7716 40.0251 30.4335C39.5428 29.5113 38.804 28.7224 38.5782 27.667H38.5679Z" fill="white"/>
<path d="M40.8872 31.6733C41.0411 31.6426 41.3181 31.7656 41.2976 31.5094C41.2053 30.4643 41.5644 29.3885 41.1026 28.3638C41.0513 28.2511 41.0821 28.0872 41.1026 27.954C41.1539 27.4314 41.0513 26.9704 40.7229 26.54C40.6203 26.4068 40.6204 26.2121 40.8872 26.1917L41.1026 26.4068V26.622L41.3182 26.8372C41.4618 27.1138 41.5953 27.4007 41.7389 27.6773L41.9544 27.8925C42.2623 28.4458 42.5702 28.9991 42.8678 29.5524C42.9396 29.6856 42.9601 29.8495 43.0114 30.0032C43.0114 30.4233 43.032 30.8332 43.0114 31.2533C43.0012 31.4377 42.7754 31.7246 42.8267 31.7758C43.1551 32.0627 42.9704 32.4316 43.0217 32.7492C43.073 33.0668 42.9601 33.3845 43.2064 33.7226C43.3706 33.9582 43.2782 34.3988 43.2166 34.737C43.1961 34.8702 42.9499 34.9624 42.8165 35.0649C42.683 34.9009 42.5291 34.7472 42.4265 34.5628C41.9134 33.6816 41.4105 32.7799 40.9179 31.8885C40.8871 31.8373 40.9179 31.7553 40.9179 31.6836H40.8872V31.6733Z" fill="white"/>
<path d="M42.7959 35.044C42.9396 34.9313 43.1756 34.8391 43.1962 34.7162C43.2577 34.378 43.3501 33.9272 43.1859 33.7018C42.9499 33.3637 43.0627 33.0461 43.0012 32.7284C42.9499 32.4108 43.1346 32.0419 42.8062 31.755C42.7549 31.714 42.9806 31.4169 42.9909 31.2325C43.0217 30.8226 42.9909 30.4025 42.9909 29.9824C43.6272 30.6074 43.9145 31.4579 44.4276 32.1649C44.6944 32.5337 44.8791 32.9538 45.1049 33.3534C44.4379 34.0604 44.5918 34.9006 44.8381 35.6896C44.951 36.0687 44.6739 36.54 45.1049 36.8371C44.8894 36.9703 44.9407 37.1855 44.8792 37.3802C44.8073 37.6056 44.6123 37.79 44.4687 37.995C44.1916 37.6158 43.8221 37.2675 43.6682 36.8474C43.4732 36.3146 43.0627 35.9355 42.8575 35.4334C42.8062 35.3207 42.8062 35.1773 42.7856 35.0543H42.7959V35.044Z" fill="white"/>
<path d="M44.4892 38.0055C44.6328 37.8006 44.8278 37.6162 44.8996 37.3908C44.9612 37.1961 44.8996 36.9809 45.1254 36.8477C44.7047 36.5506 44.9817 36.0793 44.8586 35.7001C44.6123 34.9112 44.4686 34.071 45.1254 33.364V33.5792L45.3409 33.7943V34.0095L45.5564 34.2247C45.7001 34.4399 45.8334 34.6448 45.9771 34.8599C45.9053 34.9522 45.7719 35.0444 45.7719 35.1264C45.8232 35.9768 45.6385 36.8375 45.9566 37.6777C46.0798 38.0158 45.9771 38.4461 45.9771 38.8252C45.9771 39.1429 45.895 39.4912 45.9977 39.7679C46.1003 40.0343 46.326 40.2187 45.9771 40.4441C46.1003 40.7105 46.285 40.9667 46.3261 41.2433C46.3979 41.7147 46.4389 42.2167 46.3774 42.688C46.3158 43.1286 45.895 43.0979 45.5461 43.0876C45.7616 42.7188 46.1516 42.4114 45.9464 41.9093C45.854 41.6737 45.7206 41.438 45.659 41.1921C45.5461 40.772 45.2793 40.7003 44.9099 40.7618V40.5466C45.1049 40.5466 45.3101 40.5671 45.5051 40.5466C45.5975 40.5363 45.6693 40.4134 45.7514 40.3417C45.3819 39.7269 45.0022 39.1121 44.6328 38.4871C44.5507 38.3539 44.5302 38.1797 44.4789 38.026V38.0055H44.4892Z" fill="white"/>
<path d="M10.0186 40.5362V40.321H17.633C17.633 40.321 17.6228 40.4133 17.633 40.4235C17.787 40.4952 17.9204 40.8641 17.8896 41.028C17.8588 41.1817 17.8588 41.3662 17.8896 41.5199C17.9204 41.6736 18.0333 41.817 18.0538 41.981C18.1086 42.5616 18.3206 42.9953 18.6901 43.2822H16.5761C16.0219 42.5342 16.1143 41.6735 16.1861 40.8334C16.2169 40.5362 16.2682 40.5362 16.0424 40.5362H10.0186Z" fill="white"/>
<path d="M18.6901 43.2822C18.1257 42.8519 18.136 42.8519 18.0539 41.981C18.0436 41.8273 17.9204 41.6838 17.8897 41.5199C17.8589 41.3559 17.8589 41.1817 17.8897 41.028C17.9204 40.8641 17.7973 40.4952 17.6331 40.4235C17.6228 40.4235 17.6331 40.362 17.6331 40.321H23.5544C23.462 40.3928 23.3799 40.5157 23.2876 40.526C22.6616 40.5465 22.0253 40.5055 21.3994 40.5465C20.9068 40.5772 20.4039 40.6694 19.9216 40.7617C19.86 40.7719 19.7779 40.8846 19.7574 40.9666C19.5829 41.5301 19.3982 42.0731 19.7266 42.6879C19.8395 42.9031 19.7984 43.108 20.1371 43.0875C20.8349 43.0568 21.5328 43.067 22.2306 43.0875C22.3229 43.0875 22.4153 43.2207 22.4974 43.2925H18.6901V43.2822Z" fill="white"/>
<path d="M43.2166 43.067C43.0216 43.067 42.8164 43.0465 42.6214 43.067C42.5291 43.0773 42.4573 43.2002 42.3752 43.2719H40.6819C40.7537 42.8621 41.0616 43.0875 41.2668 43.067C41.8518 43.0055 42.1289 42.7391 41.9236 42.2166C41.7697 41.817 41.7389 41.4481 41.7491 41.0485C41.7491 40.8436 41.7184 40.7104 41.4824 40.7309C41.3797 40.7309 41.2668 40.7411 41.1744 40.7309C41.0821 40.7104 41 40.6592 40.9076 40.6284C41 40.5977 41.0924 40.5669 41.1744 40.526C41.4207 40.4132 41.8005 40.7719 41.9647 40.3108H44.0787C44.0273 40.3825 43.9658 40.5054 43.9145 40.5157C43.5964 40.5362 43.2782 40.5157 42.9601 40.526C42.9087 40.526 42.8677 40.5977 42.8267 40.6386C42.8883 40.6694 42.9498 40.6899 43.0011 40.7309C43.268 40.9666 43.5655 41.6735 43.6784 42.0629C43.8221 42.5547 43.3398 42.7084 43.2474 43.0465L43.2166 43.067Z" fill="white"/>
<path d="M41.9441 40.321C41.7799 40.7719 41.4105 40.4133 41.154 40.5362C41.0616 40.5772 40.9795 40.6079 40.8872 40.6387C40.9795 40.6694 41.0616 40.7207 41.154 40.7411C41.2566 40.7616 41.3592 40.7514 41.4618 40.7411C41.7081 40.7207 41.7287 40.8538 41.7287 41.0588C41.7287 41.4584 41.7492 41.8273 41.9031 42.2269C42.1083 42.7494 41.821 43.0055 41.2463 43.0773C41.0513 43.0978 40.7332 42.8724 40.6614 43.2822H38.5474V43.067H39.7994C40.3022 43.0568 40.4664 42.9031 40.4356 42.3805C40.4048 41.8887 40.3125 41.3969 40.2201 40.9051C40.2098 40.8436 40.0765 40.7617 40.0046 40.7617C39.5839 40.7514 39.1631 40.7617 38.7526 40.7617V40.5465C39.1631 40.5465 39.5633 40.5567 39.9738 40.5465C40.0662 40.5465 40.1483 40.4133 40.2304 40.3416H41.9236L41.9441 40.321Z" fill="white"/>
<path d="M43.2166 43.067C43.3192 42.7187 43.8016 42.565 43.6477 42.0834C43.5348 41.694 43.2372 40.9871 42.9703 40.7514C42.919 40.7104 42.8575 40.6899 42.7959 40.6592C42.8369 40.6182 42.8883 40.5465 42.9293 40.5465C43.2474 40.5465 43.5656 40.5465 43.8837 40.5362C43.9453 40.5362 43.9966 40.403 44.0479 40.3313H45.7411C45.659 40.403 45.5872 40.5157 45.4948 40.5362C45.2999 40.567 45.0946 40.5362 44.8996 40.5362C44.8381 40.5567 44.7868 40.5874 44.7252 40.6079L44.8996 40.7514C44.8996 41.3354 44.9099 41.9195 44.8996 42.5035C44.8996 42.8621 44.7047 43.0466 44.3558 43.067C43.9761 43.0875 43.5963 43.067 43.2166 43.067Z" fill="white"/>
<path d="M19.3162 14.3672C19.3572 13.7832 19.6548 13.3733 20.1577 13.0967C20.0653 13.4451 19.6651 14.0598 19.3162 14.3672Z" fill="white"/>
<path d="M38.1369 27.0315C38.4755 27.1136 38.5986 27.3393 38.5576 27.6676C38.2189 27.5855 38.0958 27.3598 38.1369 27.0315Z" fill="white"/>
<path d="M28.6239 10.5762C28.9626 10.6582 29.0857 10.884 29.0447 11.2123C28.706 11.1302 28.5829 10.9045 28.6239 10.5762Z" fill="white"/>
<path d="M40.6819 31.4581L40.8256 31.2837C40.8461 31.3452 40.8769 31.3965 40.8872 31.4581C40.8974 31.5299 40.8872 31.5915 40.8872 31.6633L40.6716 31.4478H40.6819V31.4581Z" fill="white"/>
<path d="M20.1678 13.1076C20.1986 12.9435 20.0651 12.7075 20.3833 12.687C20.3525 12.8512 20.4859 13.0871 20.1678 13.1076Z" fill="white"/>
<path d="M28.4083 10.146C28.7264 10.1665 28.593 10.4127 28.6238 10.5666C28.3057 10.5461 28.439 10.2999 28.4083 10.146Z" fill="white"/>
<path d="M28.4084 40.5361H31.1586C31.4391 40.782 31.5794 41.0655 31.5794 41.3866V43.0669H31.3639L31.1484 43.2821H30.0914C30.0914 42.9952 29.8656 43.0772 29.7219 43.0772C28.9215 43.0772 28.121 43.0567 27.3206 43.0772C27.023 43.0874 26.7459 42.9235 26.7459 42.7493C26.7356 42.1653 26.4586 41.6837 26.3046 41.1509C26.2533 40.9767 26.2225 40.7205 26.5715 40.741C27.0948 40.7615 27.6182 40.7513 28.1416 40.741C28.234 40.741 28.316 40.6079 28.4084 40.5361Z" fill="white"/>
<path d="M28.4084 40.5362C28.316 40.6079 28.234 40.7309 28.1416 40.7411C27.6182 40.7616 27.0948 40.7616 26.5715 40.7411C26.2226 40.7309 26.2533 40.9768 26.3046 41.151C26.4586 41.6838 26.7356 42.1654 26.7459 42.7494C26.7459 42.9236 27.023 43.0875 27.3206 43.0772C28.121 43.0465 28.9215 43.067 29.722 43.0772C29.8759 43.0772 30.0914 42.9953 30.0914 43.2822H24.8064C24.6422 42.8313 24.2625 43.108 24.0059 43.0875C23.6673 43.067 23.5031 43.0465 23.5236 42.6264C23.5442 42.2371 23.5852 41.8477 23.3594 41.4379C23.1234 41.0178 23.5236 40.5772 24.0778 40.5362C24.4677 40.5157 24.8474 40.5362 25.2374 40.5362H28.4084Z" fill="white"/>
<path d="M10.0185 40.5361H11.4963C11.5681 40.7103 11.6913 40.8947 11.7015 41.0792C11.7323 41.6325 11.7323 42.196 11.7015 42.7493C11.7015 42.9337 11.5681 43.1079 11.4963 43.2924H8.96155C9.23863 43.0465 9.38227 42.7595 9.38227 42.4419V41.6017C9.37201 41.3353 9.41303 41.0177 9.28989 40.8128C9.20779 40.6898 8.84864 40.7513 8.61261 40.7206C8.58183 40.7206 8.5613 40.6078 8.54077 40.5464H10.0185V40.5361Z" fill="white"/>
<path d="M33.4881 40.7411H34.6375C34.9761 40.7411 35.243 40.4235 35.6021 40.526C35.6227 40.5875 35.6329 40.6899 35.674 40.7002C36.0434 40.8163 36.2281 41.0417 36.2281 41.3764C36.2281 41.7965 36.2076 42.2166 36.2281 42.6264C36.2486 42.8416 36.3615 43.0568 36.4334 43.2719H34.5349C34.4836 43.2002 34.422 43.067 34.3707 43.067C34.0525 43.0875 33.8063 43.067 33.8884 42.6367C33.9499 42.3395 33.8884 42.0322 33.6831 41.7965C33.406 41.4789 33.4779 41.11 33.4779 40.7411H33.4881Z" fill="white"/>
<path d="M36.4539 43.2821C36.3821 43.0669 36.2692 42.8518 36.2487 42.6366C36.2179 42.2267 36.2487 41.8066 36.2487 41.3866C36.2487 41.0518 36.064 40.8264 35.6945 40.7103C35.6945 40.7103 35.6432 40.5976 35.6227 40.5361H38.7936V40.7513H38.4858C37.9419 40.7718 37.7982 40.864 37.9727 41.3046C38.1369 41.7042 38.1061 42.0833 38.1779 42.4726C38.219 42.6878 38.4448 42.8723 38.5782 43.0669V43.2821H36.4539Z" fill="white"/>
<path d="M14.6674 40.5361H16.0425C16.2682 40.5361 16.2067 40.5361 16.1862 40.8332C16.1143 41.6734 16.022 42.5341 16.5761 43.2821H14.6776C14.575 42.8313 14.7802 42.3804 14.5032 41.8886C14.3184 41.5402 14.3389 40.9562 14.6776 40.5361H14.6674Z" fill="white"/>
<path d="M11.4963 43.2821C11.5682 43.1079 11.6913 42.9235 11.7016 42.7391C11.7324 42.1858 11.7324 41.6222 11.7016 41.0689C11.7016 40.8845 11.5682 40.7103 11.4963 40.5259H13.1896C13.1383 40.6078 13.0459 40.7001 13.0562 40.7718C13.1383 41.2636 13.1998 41.7657 13.3435 42.237C13.4256 42.5341 13.4461 42.739 13.1998 42.944C13.1075 43.0259 13.0562 43.1489 12.9844 43.2616H11.5066V43.2821H11.4963Z" fill="white"/>
<path d="M8.53055 40.5361C8.55108 40.5976 8.57161 40.7001 8.6024 40.7103C8.83842 40.7513 9.19763 40.6796 9.27973 40.8025C9.41314 41.0074 9.36179 41.3251 9.37206 41.5915C9.38232 41.8681 9.37206 42.1448 9.37206 42.4317C9.37206 42.7493 9.22841 43.0362 8.95134 43.2821H7.8943C7.8943 42.5854 7.86353 41.8784 7.90458 41.1816C7.93536 40.7616 7.76094 40.7103 7.42229 40.741C7.37098 40.741 7.30937 40.6079 7.25806 40.5361H8.53055Z" fill="white"/>
<path d="M12.9741 43.2821C13.046 43.1797 13.0973 43.0465 13.1897 42.9645C13.436 42.7596 13.4154 42.5444 13.3333 42.2575C13.1896 41.7862 13.1281 41.2841 13.046 40.7923C13.0357 40.7206 13.1383 40.6284 13.1794 40.5464H14.6571C14.3288 40.9665 14.2979 41.5505 14.4826 41.8989C14.7495 42.3907 14.5545 42.8416 14.6571 43.2924H12.9639H12.9741V43.2821Z" fill="white"/>
<path d="M33.4881 40.7412C33.4881 41.1101 33.4266 41.4789 33.6934 41.7966C33.8986 42.0425 33.9602 42.3396 33.8987 42.6367C33.8166 43.0773 34.0628 43.0876 34.3809 43.0671C34.4323 43.0671 34.4939 43.2003 34.5452 43.272H31.3741V43.0568H32.3285C32.9648 43.0466 33.0982 42.9031 33.0674 42.2474C33.0674 42.1142 33.088 41.9298 33.0059 41.858C32.698 41.5506 32.9648 41.1715 32.8416 40.8641C32.698 40.4953 32.1438 41.0179 32.0104 40.526C32.2567 40.526 32.503 40.5568 32.739 40.526C33.0366 40.4748 33.2521 40.6387 33.4881 40.7412Z" fill="white"/>
<path d="M31.3741 43.0669V43.2823H31.1586L31.3741 43.0669Z" fill="white"/>
<path d="M5.79064 40.5362C5.7188 40.8845 6.4269 40.6694 6.19087 41.0485C6.05747 41.2637 6.1293 41.3149 6.19087 41.5095C6.38586 42.0833 6.48847 42.6879 6.63214 43.2821H5.68804C5.45201 43.2821 5.16462 43.3231 5.00043 43.2002C4.8465 43.0875 4.78496 42.8006 4.77469 42.5854C4.76443 42.0116 4.63102 41.4686 4.51814 40.905C4.46683 40.6694 4.53866 40.5054 4.83626 40.5362C5.14413 40.5669 5.46224 40.5362 5.78036 40.5362H5.79064Z" fill="white"/>
<path d="M34.9658 16.058C34.4938 15.935 34.5246 15.5764 34.5451 15.2178C34.8222 15.4329 34.9863 15.6994 34.9658 16.058Z" fill="white"/>
<path d="M30.5327 8.03586C30.2146 8.01534 30.348 7.76912 30.3172 7.61523C30.6353 7.63575 30.5019 7.88198 30.5327 8.03586Z" fill="white"/>
<path d="M43.2166 43.067C43.5963 43.067 43.976 43.0773 44.3557 43.067C44.7149 43.0568 44.8996 42.8723 44.8996 42.5035C44.9098 41.9194 44.8996 41.3354 44.8996 40.7514C45.269 40.6899 45.5461 40.7514 45.6487 41.1817C45.7103 41.4277 45.8437 41.6633 45.936 41.899C46.131 42.401 45.7411 42.7084 45.5358 43.0773C45.3716 43.108 45.1356 42.9748 45.1151 43.2925H43.2166V43.0773V43.067Z" fill="white"/>
<path d="M32.0104 40.5361C32.1439 41.0279 32.698 40.5054 32.8417 40.8742C32.9648 41.1816 32.698 41.5607 33.0059 41.8681C33.0777 41.9398 33.0572 42.1243 33.0675 42.2575C33.0983 42.9132 32.9648 43.0567 32.3286 43.0669H31.5897V41.3866C31.5897 41.0587 31.4494 40.7752 31.1689 40.5361H32.0104Z" fill="white"/>
<path d="M44.9099 40.7413L44.7355 40.5977C44.797 40.5772 44.8483 40.5464 44.9099 40.5259V40.7413Z" fill="white"/>
<path d="M38.5679 43.0671C38.4242 42.8724 38.2087 42.688 38.1677 42.4728C38.0958 42.0835 38.1266 41.7044 37.9624 41.3048C37.7777 40.8642 37.9214 40.7617 38.4755 40.7515H40.0354C40.1072 40.7515 40.2407 40.8334 40.2509 40.8949C40.333 41.3867 40.4356 41.8785 40.4664 42.3703C40.4972 42.8929 40.333 43.0466 39.8301 43.0569C39.4094 43.0671 38.9887 43.0569 38.5782 43.0569H38.5679V43.0671Z" fill="white"/>
</svg>
