<svg width="189" height="39" viewBox="0 0 189 39" fill="none" xmlns="http://www.w3.org/2000/svg">
<path d="M4.26114 38.2548H1.27485C0.905417 38.2548 0.884888 38.2446 0.884888 37.8655V12.0758C0.884888 11.1332 0.905432 11.2868 1.67509 11.2766C5.20527 11.2766 8.73545 11.2459 12.2554 11.2766C13.9076 11.2971 15.529 11.5737 17.0273 12.3524C18.1869 12.9467 19.1413 13.7767 19.798 14.9037C21.0808 17.0862 21.3168 19.4121 20.7216 21.8507C20.4035 23.1314 19.7673 24.2483 18.895 25.2114C18.2587 25.9184 17.4275 26.4 16.5552 26.7688C15.3032 27.3016 13.9999 27.5885 12.6453 27.5988C10.285 27.6193 7.92472 27.5988 5.56442 27.5988C5.18472 27.5988 4.81531 27.609 4.43561 27.5988C4.26116 27.5988 4.25087 27.691 4.25087 27.8242V38.2548H4.26114ZM10.7468 24.4429V24.4737H11.301C12.3375 24.4122 13.3944 24.5044 14.4207 24.2175C15.9805 23.7769 17.0375 22.8138 17.5096 21.2974C17.838 20.2318 17.8174 19.1252 17.5711 18.0391C17.2222 16.5329 16.4013 15.4263 14.8825 14.9037C13.9999 14.5964 13.0763 14.4837 12.1527 14.4734H4.43561C4.28168 14.4734 4.26114 14.5554 4.26114 14.6783V21.8609C4.26114 22.6396 4.25088 23.4081 4.23036 24.1868C4.23036 24.4225 4.31244 24.4942 4.53821 24.4839C5.12315 24.4634 5.71836 24.4429 6.3033 24.4429H10.7571H10.7468Z" fill="white"/>
<path d="M46.0486 29.1563H38.0544C37.6233 29.1563 37.6131 29.1563 37.6849 29.5661C38.0646 31.7383 39.0806 33.5211 40.9893 34.7199C42.4158 35.6114 43.9859 35.8778 45.6484 35.6626C46.2641 35.5806 46.8593 35.4577 47.4237 35.2015C48.7783 34.597 49.7532 33.6031 50.4305 32.3018C50.5229 32.1174 50.6358 32.0559 50.8307 32.0559H53.7555C54.0428 32.0559 54.0633 32.0969 53.971 32.3633C53.2321 34.4535 51.9493 36.1339 50.0611 37.3122C48.8604 38.0602 47.5058 38.4496 46.0896 38.6442C44.7145 38.8287 43.3496 38.7467 42.0156 38.4086C40.0555 37.9168 38.4136 36.8921 37.0179 35.4474C35.376 33.7466 34.5857 31.6666 34.3292 29.3919C34.0829 27.1275 34.5139 24.9553 35.6941 22.9573C37.4181 20.0269 39.9631 18.2441 43.3599 17.8445C46.1204 17.5268 48.5833 18.367 50.7076 20.1601C51.5799 20.8978 52.3188 21.738 52.8934 22.7217C53.6323 23.9819 54.1454 25.3242 54.3199 26.7791C54.402 27.4656 54.443 28.1624 54.5046 28.8489C54.5251 29.105 54.4225 29.1768 54.1659 29.1768H46.0383V29.1563H46.0486ZM50.8513 26.1644C50.8205 26.0312 50.8102 25.939 50.7794 25.857C50.646 25.5189 50.5331 25.1705 50.3689 24.8426C49.4864 23.152 48.3371 21.738 46.418 21.1335C45.5765 20.8671 44.7248 20.6622 43.8422 20.7954C40.9278 21.2257 39.0498 22.9061 38.0031 25.5906C37.9312 25.7648 37.8799 25.9492 37.8081 26.1541H50.8513V26.1644Z" fill="white"/>
<path d="M104.112 28.4289C104.06 28.7772 104.03 29.3203 103.886 29.8223C103.619 30.7547 103.045 31.4925 102.285 32.097C101.29 32.8962 100.151 33.3265 98.8678 33.2548C97.1541 33.1626 95.7687 32.4146 94.7835 31.0007C94.2704 30.2629 93.9831 29.4227 93.942 28.5416C93.9215 27.9883 94.0036 27.4042 94.1472 26.8714C94.2601 26.4104 94.4961 25.9698 94.7219 25.5497C94.8758 25.273 95.0913 25.0374 95.2966 24.7915C95.471 24.5865 95.4608 24.4021 95.3171 24.1767C94.373 22.7115 93.4289 21.236 92.4848 19.7708C91.6946 18.5413 90.8942 17.322 90.0937 16.0925C89.909 15.8056 89.6935 15.5289 89.5088 15.2318C89.4164 15.0781 89.3035 15.0268 89.1188 15.0678C88.421 15.2113 87.7231 15.2523 87.0253 15.0268C86.2043 14.7604 85.5065 14.3506 84.9831 13.6334C84.4803 12.9469 84.2238 12.1989 84.1827 11.369C84.1109 9.82178 84.86 8.46928 86.2967 7.76229C86.9945 7.41392 87.7231 7.27047 88.4825 7.34219C89.3651 7.42416 90.1553 7.76229 90.812 8.35657C90.9762 8.51027 91.1097 8.55125 91.3149 8.41805C92.1872 7.85451 93.0595 7.30121 93.9317 6.74791C94.3422 6.49176 94.7527 6.23561 95.1632 5.96921C95.7584 5.57985 96.3331 5.14951 96.9591 4.80114C97.3696 4.57573 97.3901 4.28883 97.349 3.88923C97.2874 3.35643 97.2875 2.81338 97.5235 2.30107C98.0571 1.12276 98.9704 0.456761 100.274 0.385037C101.639 0.313314 102.706 0.897349 103.27 2.11665C104.286 4.32982 102.655 6.57373 100.479 6.60447C99.7299 6.60447 99.0936 6.35857 98.5292 5.90773C98.2726 5.70281 98.0776 5.71306 97.8006 5.89749C96.1689 6.97334 94.527 8.0287 92.885 9.08406C92.5977 9.26849 92.3103 9.44267 92.023 9.62711C91.869 9.72957 91.8177 9.85251 91.8793 10.0472C92.3411 11.5841 91.9922 12.9264 90.8839 14.0842C90.6992 14.2755 90.6786 14.4804 90.8223 14.699C91.9409 16.4203 93.0492 18.1417 94.1678 19.8528C94.6912 20.652 95.2556 21.4307 95.7892 22.2299C96.056 22.6295 96.292 23.0496 96.5486 23.4697C96.6512 23.6439 96.7641 23.6951 96.9796 23.6029C99.658 22.4451 102.542 23.7464 103.619 25.9903C103.968 26.7178 104.102 27.476 104.132 28.4494L104.112 28.4289Z" fill="white"/>
<path d="M73.7564 24.0128H73.4075C72.4942 24.023 71.5911 24.0333 70.6777 24.0538C70.4828 24.0538 70.3699 23.9923 70.3186 23.7976C69.9594 22.3939 69.005 21.5332 67.6607 21.1234C66.1521 20.6725 64.6333 20.7135 63.1351 21.2156C62.3141 21.482 61.606 21.9328 61.2161 22.7218C60.7235 23.7361 60.98 24.7915 62.1602 25.2013C63.1659 25.56 64.2229 25.7956 65.2696 26.021C66.6447 26.3182 68.0301 26.5333 69.4053 26.8305C70.3186 27.0252 71.1703 27.394 71.9708 27.8756C73.2536 28.6543 73.9103 29.8326 74.1258 31.2876C74.3721 32.968 74.0335 34.5049 72.997 35.8676C72.3915 36.6668 71.6219 37.2816 70.7188 37.7324C69.3745 38.3984 67.948 38.6853 66.4703 38.7673C64.6333 38.8697 62.858 38.5726 61.2161 37.7837C58.9379 36.6771 57.5011 34.843 57.0394 32.3327C56.9675 31.9638 57.0291 31.9126 57.3883 31.9126C58.3016 31.9126 59.2252 31.9331 60.1385 31.9228C60.3438 31.9228 60.3438 32.0663 60.3745 32.1892C60.6619 33.2753 61.2879 34.136 62.2423 34.7303C62.9811 35.1914 63.7919 35.4885 64.6641 35.591C65.9572 35.7549 67.2297 35.7447 68.4714 35.3041C69.1795 35.0479 69.826 34.6893 70.3186 34.1053C71.0267 33.2651 71.0985 32.3122 70.7085 31.3286C70.5443 30.9187 70.1749 30.6728 69.7849 30.4679C68.769 29.9351 67.671 29.6994 66.5524 29.5047C65.2901 29.2793 64.0176 29.0846 62.7554 28.8387C61.4726 28.5826 60.2514 28.1317 59.2355 27.3018C58.3016 26.5333 57.7577 25.5292 57.6756 24.2997C57.4704 21.3385 59.3997 19.2278 61.9241 18.3671C64.0176 17.6601 66.1419 17.5679 68.2969 18.1007C69.4976 18.3979 70.5854 18.8897 71.5193 19.6991C72.7199 20.734 73.4177 22.0455 73.664 23.6029C73.6846 23.7259 73.7051 23.8488 73.7359 24.0128H73.7564Z" fill="white"/>
<path d="M91.2328 21.2361C91.4996 21.6254 91.7459 21.984 91.982 22.3426C92.2385 22.7218 92.4643 23.1214 92.7413 23.48C92.9363 23.7361 92.9158 23.9308 92.7413 24.187C91.6843 25.8264 91.3046 27.6297 91.6433 29.5355C92.0743 31.9638 93.4802 33.7057 95.6558 34.8635C96.6307 35.386 97.6774 35.591 98.7755 35.632C100.099 35.6729 101.331 35.427 102.501 34.8123C103.404 34.341 104.163 33.6852 104.81 32.8962C105.897 31.5745 106.441 30.0478 106.452 28.3469C106.452 26.3079 105.795 24.5148 104.327 23.0496C102.901 21.6254 101.167 20.9184 99.1655 20.857C98.5805 20.8365 97.9956 20.9389 97.4106 21.0107C97.1848 21.0414 97.0514 20.9902 96.9283 20.7955C96.4768 20.0885 96.015 19.3815 95.5634 18.6745C95.4095 18.4286 95.4198 18.3979 95.7071 18.3057C97.9032 17.6192 100.11 17.5679 102.285 18.3364C106.174 19.6889 108.525 22.4246 109.325 26.4309C109.828 28.9719 109.325 31.3593 108.022 33.5725C106.462 36.216 104.122 37.8349 101.126 38.4702C96.3947 39.4743 91.4996 37.0767 89.4369 32.6093C88.6365 30.8777 88.3389 29.0642 88.5236 27.1686C88.7494 24.9657 89.6217 23.0394 91.0584 21.359C91.0892 21.3283 91.1302 21.2975 91.202 21.2361H91.2328Z" fill="white"/>
<path d="M151.389 33.3263V37.5887C151.389 37.7732 151.307 37.8244 151.133 37.8244H150.199C150.035 37.8244 149.994 37.7629 149.973 37.599C149.84 36.1645 149.922 34.7403 149.973 33.3058C150.014 32.2607 149.973 31.2053 149.963 30.1602C149.963 28.777 149.953 27.3835 149.943 26.0003C149.943 24.3711 149.943 22.7522 149.922 21.1231C149.922 19.3095 149.901 17.4857 149.901 15.6721C149.901 14.3504 149.932 13.0286 149.932 11.6966C149.932 11.4199 150.025 11.3175 150.302 11.338C150.569 11.3585 150.835 11.3482 151.102 11.338C151.328 11.3277 151.4 11.3995 151.4 11.6351C151.4 15.1086 151.42 18.5718 151.441 22.0452C151.441 22.1785 151.461 22.3014 151.472 22.4346C151.502 22.4449 151.523 22.4551 151.554 22.4653C151.636 22.3731 151.718 22.2912 151.8 22.1989C152.139 21.7686 152.488 21.3485 152.806 20.9079C153.267 20.2727 153.893 19.8013 154.53 19.3608C155.392 18.7562 156.367 18.3259 157.393 18.0492C158.296 17.8033 159.209 17.6906 160.143 17.7009C161.2 17.7009 162.206 17.957 163.17 18.3361C163.92 18.6333 164.638 19.0124 165.315 19.4427C166.075 19.9345 166.742 20.5596 167.316 21.2768C168.168 22.3321 168.815 23.5002 169.215 24.8015C169.913 27.0864 169.872 29.361 169.102 31.6152C168.64 32.9779 167.881 34.1562 166.885 35.2014C165.726 36.4104 164.371 37.2711 162.801 37.8039C160.861 38.4494 158.901 38.4494 156.952 37.8141C156.018 37.5068 155.135 37.0457 154.345 36.4719C153.206 35.6522 152.272 34.6276 151.574 33.4083C151.554 33.3775 151.533 33.357 151.502 33.3263C151.472 33.3263 151.451 33.3263 151.42 33.3366H151.389V33.3263ZM151.379 27.9778C151.451 28.5926 151.472 29.2176 151.595 29.8221C151.974 31.8099 152.97 33.4595 154.499 34.7915C154.93 35.1604 155.371 35.5292 155.864 35.8059C157.701 36.851 159.681 37.0662 161.723 36.6051C163.673 36.1748 165.192 35.0477 166.393 33.48C167.08 32.5783 167.614 31.5845 167.891 30.4881C168.26 29.0434 168.291 27.5987 167.994 26.1232C167.737 24.8629 167.224 23.7359 166.495 22.6908C165.561 21.3485 164.32 20.3854 162.791 19.7808C161.416 19.2378 159.979 19.0329 158.522 19.289C156.018 19.7296 154.14 21.1333 152.785 23.2338C151.851 24.6785 151.389 26.2564 151.379 27.988V27.9778Z" fill="white"/>
<path d="M78.6925 26.5535V21.8095C78.6925 21.4407 78.6925 21.4304 78.3025 21.4304H76.3219C76.0757 21.4304 75.9628 21.3485 75.9628 21.1025V18.5307C75.9628 18.3566 76.0551 18.2848 76.2193 18.2848C76.9377 18.2848 77.656 18.2439 78.3641 18.2643C78.6514 18.2643 78.713 18.1619 78.713 17.916V14.3298C78.713 14.0532 78.7951 13.9712 79.0825 13.9712C79.9958 13.9917 80.9194 13.9917 81.8327 14.0019C81.8943 14.0019 81.9867 14.0942 82.0072 14.1556C82.038 14.2683 82.0277 14.3913 82.0277 14.5142C82.0277 15.6618 82.038 16.8196 82.0277 17.9672C82.0277 18.2439 82.1201 18.3053 82.3766 18.3053C83.5773 18.2848 84.7882 18.2746 85.9889 18.2643H86.2352C86.5944 18.2848 86.5943 18.2951 86.6046 18.6537C86.6046 19.4632 86.6046 20.2828 86.6149 21.0923C86.6149 21.4202 86.5943 21.4407 86.2557 21.4407H82.315C81.9866 21.4407 81.9764 21.4714 82.0072 21.789C82.0277 21.994 82.038 22.2091 82.038 22.4141V31.0413C82.038 32.0045 82.2124 32.9062 82.7461 33.7258C83.3105 34.607 84.1725 34.9861 85.1679 35.1091C85.5784 35.1603 85.9889 35.1603 86.3994 35.1706C86.6046 35.1706 86.6764 35.2525 86.6764 35.4472C86.6764 36.2976 86.6764 37.1481 86.6662 37.9985C86.6662 38.142 86.6354 38.2547 86.461 38.2547C85.2192 38.2854 83.9775 38.2957 82.7974 37.8141C80.786 36.9944 79.6264 35.4575 79.062 33.4287C78.8259 32.5885 78.7233 31.7279 78.7233 30.8569V26.5535H78.6925Z" fill="white"/>
<path d="M130.834 23.2134C130.988 22.4449 131.245 21.7686 131.625 21.1436C132.056 20.4366 132.61 19.8321 133.267 19.371C133.903 18.9305 134.631 18.5718 135.36 18.3054C137.156 17.6497 139.013 17.5472 140.902 17.8136C141.784 17.9366 142.656 18.1005 143.477 18.4694C144.617 18.9817 145.581 19.7092 146.197 20.8158C146.587 21.5125 146.782 22.281 146.792 23.0699C146.833 24.7503 146.833 26.4307 146.843 28.111C146.843 30.3447 146.802 32.5886 146.864 34.8223C146.895 35.724 147.151 36.6154 147.305 37.5171C147.315 37.5785 147.346 37.64 147.357 37.7015C147.357 37.722 147.357 37.7527 147.336 37.8142H146.053C145.981 37.8142 145.899 37.7015 145.858 37.6195C145.509 36.9228 145.438 36.1748 145.407 35.4063C145.407 35.2321 145.376 35.0477 145.366 34.8735L145.294 34.8428C145.089 35.0477 144.883 35.2424 144.688 35.4473C144.062 36.1133 143.303 36.5846 142.492 36.974C140.501 37.9269 138.387 38.2855 136.191 38.1421C134.129 38.0089 132.251 37.3326 130.814 35.7752C130.219 35.1297 129.901 34.3305 129.808 33.48C129.736 32.7116 129.726 31.9329 129.911 31.1644C130.178 30.0988 130.793 29.2996 131.635 28.6336C132.384 28.0393 133.287 27.7729 134.18 27.486C135.483 27.0659 136.848 26.9635 138.192 26.7995C139.896 26.5946 141.62 26.4921 143.262 25.9389C143.95 25.7134 144.596 25.4061 145.006 24.7708C145.417 24.1458 145.427 23.4593 145.314 22.742C145.089 21.3178 144.227 20.4367 142.944 19.8424C141.794 19.3198 140.604 19.1456 139.352 19.1251C138.069 19.1046 136.817 19.1969 135.617 19.6784C134.139 20.2727 133.041 21.2768 132.446 22.7625C132.384 22.906 132.312 23.0494 132.24 23.1826C132.22 23.2236 132.158 23.2748 132.117 23.2748C131.686 23.2646 131.265 23.2441 130.793 23.2236H130.834V23.2134ZM145.407 26.2667C145.232 26.3794 145.14 26.4409 145.037 26.5024C144.76 26.6663 144.504 26.861 144.206 26.984C142.872 27.5372 141.476 27.8241 140.04 27.9471C138.531 28.0803 137.023 28.2135 135.545 28.5414C134.56 28.7668 133.615 29.0742 132.784 29.6685C132.261 30.0476 131.809 30.4882 131.614 31.1132C131.481 31.5333 131.399 31.9739 131.358 32.4144C131.265 33.3776 131.563 34.2485 132.24 34.9452C133.349 36.0928 134.785 36.5437 136.304 36.6666C137.967 36.7998 139.598 36.5641 141.179 36.0006C142.39 35.56 143.406 34.894 144.247 33.9104C144.965 33.0804 145.345 32.1173 145.407 31.0722C145.499 29.6172 145.458 28.152 145.468 26.6868C145.468 26.5639 145.438 26.4409 145.407 26.2565V26.2667Z" fill="white"/>
<path d="M26.8173 20.4879C26.9199 20.3957 26.9712 20.365 27.002 20.324C28.1103 18.9203 29.5983 18.1416 31.3429 17.8649C31.8971 17.7727 32.4717 17.7932 33.0464 17.7727C33.2824 17.7727 33.3851 17.8752 33.3851 18.1313V20.8158C33.3851 21.0412 33.2825 21.0822 33.0772 21.0925C32.4204 21.1334 31.7431 21.113 31.1069 21.2667C28.8902 21.7892 27.5049 23.1827 27.0431 25.4164C26.961 25.8364 26.9302 26.2668 26.9302 26.6971V37.8962C26.9302 38.1353 26.807 38.2548 26.5607 38.2548H23.9952C23.7352 38.2548 23.6052 38.1319 23.6052 37.886V19.8629C23.6052 19.4428 23.595 19.0227 23.5745 18.6026C23.5642 18.3875 23.6155 18.2748 23.8515 18.2748C24.7751 18.2748 25.709 18.285 26.6326 18.285C26.8173 18.285 26.8275 18.408 26.8275 18.5412V20.4777H26.8173V20.4879Z" fill="white"/>
<path d="M180.38 38.265C178.841 38.265 177.342 38.0191 175.916 37.435C174.202 36.7383 172.827 35.6317 172.027 33.9411C171.801 33.4698 171.668 32.9677 171.524 32.4656C171.442 32.1685 171.493 32.107 171.811 32.0968H172.714C172.889 32.0968 172.981 32.1685 173.022 32.3427C173.515 34.2997 174.797 35.5292 176.634 36.2362C177.784 36.6768 178.995 36.8305 180.216 36.8817C181.54 36.933 182.812 36.7383 184.044 36.2772C184.844 35.9801 185.593 35.5395 186.147 34.9042C186.855 34.0845 187.133 33.1214 186.989 32.0046C186.794 30.4574 185.819 29.6377 184.516 29.0639C183.161 28.4696 181.694 28.2647 180.247 28.0085C179.046 27.8036 177.835 27.6089 176.645 27.3323C175.434 27.0556 174.305 26.5228 173.443 25.6109C172.766 24.8937 172.478 24.0023 172.509 22.9981C172.53 22.3321 172.622 21.6866 172.93 21.0923C173.392 20.2112 174.038 19.5144 174.9 18.9816C176.419 18.0492 178.081 17.7521 179.816 17.6906C181.17 17.6496 182.494 17.8443 183.767 18.3156C184.588 18.623 185.357 19.0329 186.024 19.6476C186.794 20.3546 187.358 21.1743 187.728 22.1375C187.83 22.4039 187.902 22.6908 187.984 22.9777C188.025 23.1109 187.995 23.1928 187.841 23.2031C187.492 23.2133 187.143 23.2338 186.794 23.2338C186.619 23.2338 186.517 23.1518 186.455 22.9777C185.983 21.6047 185.121 20.5595 183.808 19.8935C182.33 19.1558 180.76 19.0021 179.138 19.1148C178.225 19.1763 177.332 19.3505 176.501 19.7399C175.557 20.1804 174.746 20.7747 174.254 21.7174C173.566 23.0391 174.089 24.6375 175.413 25.324C176.511 25.8978 177.712 26.1232 178.913 26.3487C180.503 26.6355 182.104 26.8917 183.674 27.2606C184.742 27.5167 185.768 27.9471 186.66 28.6233C187.656 29.3815 188.241 30.3754 188.405 31.6152C188.61 33.1316 188.313 34.5251 187.348 35.7137C186.712 36.5026 185.84 37.0252 184.895 37.4248C183.438 38.0396 181.919 38.2752 180.349 38.2445L180.38 38.265Z" fill="white"/>
<path d="M119.936 38.2651H111.891C111.665 38.2651 111.562 38.2036 111.572 37.9577V29.0538C111.572 27.732 111.542 26.4102 111.542 25.0885C111.542 22.9573 111.562 20.8363 111.572 18.7051V11.6147C111.572 11.3996 111.654 11.2869 111.88 11.2869H112.794C112.958 11.2869 113.071 11.3586 113.06 11.5533C113.04 11.9426 113.03 12.3422 113.03 12.7316V36.5745C113.03 36.7282 113.101 36.8101 113.255 36.8101H127.899C128.289 36.8101 128.3 36.8204 128.3 37.2097V37.8655C128.3 38.1114 128.18 38.2344 127.941 38.2344H119.946V38.2651H119.936Z" fill="white"/>
</svg>
