<svg width="178" height="84" viewBox="0 0 178 84" fill="none" xmlns="http://www.w3.org/2000/svg">
<path d="M14.4639 41C11.8225 41 9.17236 40.5116 6.60195 39.5437C4.44812 38.7357 2.45379 37.6524 0.681096 36.3204C0.317693 36.0452 0.0783785 35.6456 0.0163341 35.1927C-0.0457103 34.7399 0.0695194 34.2959 0.353151 33.9407L3.2604 30.1491C3.57949 29.7318 4.06698 29.492 4.58992 29.492C4.96219 29.492 5.30788 29.6075 5.60037 29.8295C7.15148 31.0016 8.61399 31.8806 9.95238 32.4401C11.5389 33.106 13.2585 33.4435 15.0578 33.4435C16.2366 33.4435 17.247 33.328 18.0536 33.0883C18.8336 32.8663 19.4275 32.5377 19.8263 32.1292C20.2074 31.7385 20.3935 31.2857 20.3935 30.7618C20.3935 30.0159 20.1188 29.4565 19.5692 29.048C18.9577 28.6041 17.8585 28.24 16.3163 27.9736L9.24325 26.7305C6.55762 26.251 4.44816 25.2032 2.98569 23.6049C1.50549 21.9976 0.760945 19.9287 0.760945 17.4691C0.760945 15.3025 1.31935 13.4022 2.42728 11.8305C3.52636 10.2677 5.12176 9.05119 7.16923 8.22539C9.1901 7.40847 11.6098 7 14.3841 7C16.8039 7 19.2767 7.41736 21.7319 8.24316C23.7439 8.91801 25.561 9.8237 27.1298 10.9248C27.5021 11.1823 27.7413 11.573 27.8211 12.017C27.9009 12.461 27.7945 12.9138 27.5286 13.2868L24.781 17.1228C24.4708 17.5579 23.9566 17.8242 23.416 17.8242C23.0703 17.8242 22.7424 17.7177 22.4587 17.5224C19.5692 15.5156 16.6709 14.5033 13.8257 14.5033C12.8064 14.5033 11.9112 14.6098 11.1755 14.8318C10.1119 15.1426 9.42941 15.6398 9.15464 16.3058C9.12805 16.368 9.11027 16.439 9.10141 16.519C9.01277 17.3448 9.23439 17.9397 9.79279 18.3393C10.3335 18.73 11.2552 19.0407 12.5316 19.2716L19.1792 20.3727C22.3435 20.8788 24.7987 21.9533 26.4562 23.5694C28.1402 25.2121 29 27.3609 29 29.9538C29 32.2181 28.3973 34.1982 27.2184 35.8409C26.0396 37.4836 24.3378 38.7623 22.1574 39.6503C20.0036 40.5294 17.4154 40.9733 14.4639 40.9733V41Z" fill="#629EFF"/>
<path d="M14.8503 6.93532C17.2447 6.93532 19.6569 7.35712 22.0869 8.19156C24.0718 8.87928 25.8431 9.77792 27.3919 10.9058C27.9616 11.3184 28.0951 12.1253 27.6856 12.703L24.9263 16.6643C24.686 17.0127 24.3032 17.1961 23.9205 17.1961C23.6801 17.1961 23.431 17.1228 23.2174 16.9669C20.2266 14.8304 17.2536 13.7667 14.2895 13.7667C13.2125 13.7667 12.2868 13.8859 11.5035 14.1243C10.2929 14.4911 9.51852 15.0871 9.18918 15.9124C9.14468 16.0224 9.1179 16.1416 9.109 16.2608C9.00218 17.2787 9.29601 18.0489 9.9814 18.5624C10.5778 19.0026 11.5568 19.351 12.9098 19.6078L19.5945 20.7448C22.701 21.2491 25.0599 22.3128 26.671 23.9267C28.2821 25.5405 29.0921 27.6312 29.0921 30.1895C29.0921 32.4361 28.5224 34.3801 27.383 36.0031C26.2437 37.6353 24.6148 38.8915 22.4963 39.781C20.3778 40.6704 17.8588 41.1106 14.9393 41.1106C12.3312 41.1106 9.74996 40.6245 7.19534 39.6434C5.05907 38.8181 3.10968 37.7269 1.36507 36.3698C0.813196 35.9389 0.697465 35.1228 1.12472 34.5543L4.04431 30.6388C4.28464 30.3087 4.65847 30.1437 5.02341 30.1437C5.28154 30.1437 5.54855 30.2262 5.77108 30.4004C7.36438 31.6475 8.85978 32.5645 10.2395 33.1513C11.8951 33.8666 13.6664 34.2242 15.5357 34.2242C16.764 34.2242 17.8054 34.0958 18.6688 33.8482C19.5322 33.5914 20.191 33.2247 20.6538 32.7295C21.1167 32.2435 21.348 31.6566 21.348 30.9964C21.348 30.0795 21.0098 29.3642 20.3333 28.8599C19.6568 28.3556 18.5087 27.9613 16.8798 27.677L9.78549 26.3933C7.17746 25.9164 5.15699 24.8894 3.75061 23.3031C2.33534 21.7168 1.63214 19.7086 1.63214 17.2695C1.63214 15.1147 2.16614 13.2624 3.22537 11.7127C4.2846 10.1631 5.8067 8.971 7.79165 8.1549C9.7766 7.32963 12.1355 6.91696 14.8681 6.91696M14.8681 6C12.0286 6 9.53627 6.44018 7.46231 7.30213C5.32604 8.19158 3.66158 9.49365 2.50443 11.1809C1.33839 12.8864 0.750832 14.9313 0.750832 17.2603C0.750832 19.9195 1.54305 22.1569 3.10965 23.9083C4.64954 25.6322 6.8481 26.7692 9.65195 27.2736L16.7462 28.5573C18.5977 28.8783 19.4432 29.2909 19.8349 29.5843C20.2799 29.9144 20.4846 30.3545 20.4846 30.9781C20.4846 31.4091 20.3422 31.7575 20.0396 32.0693C19.6924 32.4452 19.1584 32.7387 18.4552 32.9404C17.6808 33.1696 16.7105 33.2888 15.5623 33.2888C13.8177 33.2888 12.1443 32.9496 10.6044 32.2894C9.29597 31.73 7.85394 30.8406 6.33185 29.6485C5.958 29.3551 5.513 29.2083 5.05014 29.2083C4.38256 29.2083 3.76836 29.5201 3.35891 30.0611L0.439315 33.9766C0.0921712 34.4442 -0.0591217 35.0219 0.0209883 35.6088C0.101098 36.1956 0.394892 36.7183 0.85775 37.0759C2.66468 38.4789 4.70297 39.6251 6.91045 40.4687C9.54518 41.4865 12.2601 42 14.966 42C17.9835 42 20.6449 41.5323 22.8613 40.6062C25.1311 39.6617 26.9023 38.2863 28.1307 36.5166C29.3768 34.7377 30 32.6011 30 30.162C30 27.3561 29.0921 25.027 27.3118 23.239C25.5761 21.4967 23.0304 20.3413 19.7548 19.8095L13.079 18.6724C11.5836 18.3882 10.8626 18.0398 10.5244 17.7922C10.2395 17.5813 9.91901 17.2237 10.0169 16.3342C10.0169 16.2883 10.0347 16.2517 10.0347 16.2333C10.2573 15.6832 10.8358 15.2614 11.7793 14.9771C12.4825 14.7662 13.3282 14.6561 14.3162 14.6561C17.0756 14.6561 19.915 15.674 22.7367 17.6913C23.0927 17.948 23.511 18.0856 23.9472 18.0856C24.6326 18.0856 25.2823 17.7463 25.674 17.1686L28.4334 13.2074C28.7716 12.7214 28.8962 12.1345 28.7983 11.5568C28.7004 10.9699 28.3888 10.4656 27.9171 10.1263C26.2971 8.96179 24.4368 8.00819 22.3806 7.30213C19.8705 6.43101 17.3426 6 14.8592 6H14.8681Z" fill="#629EFF"/>
<path d="M48.9999 41C46.4816 41 44.1082 40.5659 41.9341 39.7066C39.76 38.8473 37.8394 37.6337 36.2088 36.0834C34.5782 34.5331 33.2919 32.717 32.377 30.6706C31.462 28.6243 31 26.3742 31 24C31 21.6258 31.462 19.3846 32.377 17.3293C33.2919 15.2829 34.5782 13.458 36.2088 11.9166C37.8394 10.3663 39.769 9.15265 41.9341 8.29335C44.1082 7.43405 46.4816 7 48.9999 7C51.5183 7 53.8918 7.43405 56.0659 8.29335C58.24 9.15265 60.1606 10.3752 61.7912 11.9166C63.4218 13.4669 64.7081 15.2829 65.623 17.3293C66.538 19.3757 67 21.617 67 24C67 26.383 66.538 28.6154 65.623 30.6706C64.7171 32.717 63.4218 34.542 61.7912 36.0834C60.1606 37.6337 58.231 38.8473 56.0659 39.7066C53.8918 40.5659 51.5183 41 48.9999 41ZM48.9999 15.1324C47.7498 15.1324 46.5813 15.3627 45.5214 15.8056C44.4524 16.2574 43.5194 16.8775 42.7313 17.6571C41.9522 18.4367 41.3271 19.3757 40.8832 20.4476C40.4394 21.5195 40.2129 22.6978 40.2129 23.9468C40.2129 25.1959 40.4394 26.4361 40.8832 27.5169C41.3271 28.6065 41.9522 29.5544 42.7313 30.334C43.5103 31.1136 44.4524 31.7337 45.5214 32.1855C46.5813 32.6284 47.7498 32.8588 48.9999 32.8588C50.2501 32.8588 51.4187 32.6284 52.4786 32.1855C53.5476 31.7337 54.4806 31.1136 55.2687 30.334C56.0478 29.5544 56.6729 28.6065 57.1168 27.5169C57.5606 26.4273 57.7871 25.2402 57.7871 23.9911C57.7871 22.742 57.5606 21.5107 57.1168 20.4388C56.6729 19.3668 56.0478 18.4278 55.2687 17.6482C54.4806 16.8686 53.5476 16.2486 52.4786 15.7968C51.4187 15.345 50.241 15.1235 48.9999 15.1235V15.1324Z" fill="#629EFF"/>
<path d="M48.9999 6.91371C51.4123 6.91371 53.648 7.34313 55.7246 8.21115C57.8012 9.07918 59.6126 10.2944 61.1678 11.8568C62.723 13.4193 63.9336 15.2284 64.8085 17.2934C65.6744 19.3584 66.1164 21.5878 66.1164 23.9909C66.1164 26.3939 65.6833 28.6233 64.8085 30.6883C63.9425 32.7533 62.723 34.5716 61.1678 36.1249C59.6126 37.6873 57.8012 38.9025 55.7246 39.7706C53.648 40.6386 51.4123 41.0681 48.9999 41.0681C46.5876 41.0681 44.352 40.6386 42.2754 39.7706C40.1988 38.9025 38.3874 37.6873 36.8322 36.1249C35.277 34.5624 34.0664 32.7533 33.1915 30.6883C32.3256 28.6233 31.8837 26.3939 31.8837 23.9909C31.8837 21.5878 32.3167 19.3584 33.1915 17.2934C34.0575 15.2284 35.277 13.4101 36.8322 11.8568C38.3874 10.2944 40.1988 9.07918 42.2754 8.21115C44.352 7.34313 46.5876 6.91371 48.9999 6.91371ZM48.9999 33.5939C50.2812 33.5939 51.4742 33.3472 52.5699 32.8629C53.6657 32.3787 54.62 31.7026 55.4329 30.8528C56.2371 30.0031 56.8733 28.9797 57.3328 27.801C57.7923 26.6223 58.0221 25.3523 58.0221 23.9909C58.0221 22.6295 57.7923 21.3229 57.3328 20.1624C56.8733 18.9929 56.2459 17.9878 55.4329 17.1381C54.62 16.2883 53.6745 15.6122 52.5699 15.1279C51.4742 14.6437 50.2812 14.397 48.9999 14.397C47.7187 14.397 46.5258 14.6437 45.4301 15.1279C44.3343 15.6213 43.38 16.2883 42.5671 17.1381C41.7541 17.9878 41.1267 19.002 40.6672 20.1624C40.2077 21.332 39.9779 22.5929 39.9779 23.9452C39.9779 25.2975 40.2077 26.6223 40.6672 27.801C41.1267 28.9797 41.7541 30.0031 42.5671 30.8528C43.3712 31.7026 44.3255 32.3787 45.4301 32.8629C46.5258 33.3563 47.7187 33.5939 48.9999 33.5939ZM48.9999 6C46.4904 6 44.1134 6.45685 41.9396 7.37056C39.7658 8.27513 37.8395 9.5726 36.2136 11.2081C34.5788 12.8437 33.2975 14.7716 32.3785 16.937C31.4684 19.1117 31 21.4873 31 24C31 26.5127 31.4595 28.8883 32.3785 31.063C33.2887 33.2284 34.5788 35.1564 36.2136 36.7919C37.8483 38.4275 39.7746 39.7157 41.9396 40.6294C44.1134 41.534 46.4815 42 48.9999 42C51.5183 42 53.8866 41.5431 56.0604 40.6294C58.2342 39.7249 60.1605 38.4366 61.7864 36.7919C63.4212 35.1564 64.7113 33.2284 65.6215 31.063C66.5316 28.8883 67 26.5127 67 24C67 21.4873 66.5405 19.1117 65.6215 16.937C64.7113 14.7716 63.4212 12.8437 61.7864 11.2081C60.1605 9.5726 58.2342 8.28427 56.0604 7.37056C53.8866 6.46599 51.5183 6 48.9999 6ZM48.9999 32.6802C47.8424 32.6802 46.7644 32.4609 45.7836 32.0223C44.7939 31.5838 43.9279 30.9716 43.2033 30.2132C42.4787 29.4548 41.9042 28.5229 41.4978 27.463C41.0825 26.3939 40.8704 25.2153 40.8704 23.9452C40.8704 22.6752 41.0824 21.5513 41.4889 20.5005C41.9042 19.4498 42.4787 18.5269 43.2033 17.7685C43.9279 17.0102 44.7939 16.3979 45.7836 15.9594C46.7644 15.5208 47.8512 15.3015 48.9999 15.3015C50.1487 15.3015 51.2356 15.5208 52.2164 15.9594C53.2061 16.3979 54.0721 17.0102 54.7967 17.7685C55.5213 18.5269 56.0957 19.4498 56.511 20.5005C56.9263 21.5513 57.1296 22.73 57.1296 23.9909C57.1296 25.2518 56.9175 26.3939 56.5022 27.463C56.0869 28.5229 55.5125 29.4548 54.7967 30.2132C54.0721 30.9716 53.2061 31.5838 52.2164 32.0223C51.2356 32.4609 50.1487 32.6802 48.9999 32.6802Z" fill="#629EFF"/>
<path d="M87.0926 40.9823C84.548 40.9823 82.1485 40.5479 79.9571 39.6879C77.7747 38.8279 75.8368 37.6133 74.2068 36.0884C72.5769 34.5546 71.291 32.7371 70.3764 30.6892C69.4618 28.6412 69 26.3893 69 24.0133C69 21.6373 69.4618 19.3499 70.3764 17.2931C71.291 15.2451 72.5859 13.4276 74.225 11.8938C75.864 10.3601 77.8109 9.15433 79.9932 8.29436C82.1756 7.43439 84.5572 7 87.0746 7C88.9219 7 90.7691 7.26594 92.553 7.79788C94.3369 8.32983 96.0031 9.07456 97.5153 10.0321C98.6653 10.7502 99.6796 11.5924 100.549 12.5144C101.174 13.1882 101.147 14.2078 100.485 14.855L96.8361 18.3659C96.5192 18.6762 96.0937 18.8446 95.6409 18.8446C95.17 18.8446 94.7082 18.6496 94.3822 18.3127C93.4948 17.3906 92.5168 16.6725 91.4936 16.1583C90.1443 15.4934 88.6592 15.1476 87.0746 15.1476C85.8249 15.1476 84.6477 15.3781 83.5701 15.8214C82.4926 16.2736 81.5327 16.8941 80.7358 17.6743C79.9389 18.4545 79.3141 19.3943 78.8613 20.467C78.4176 21.5398 78.1912 22.7367 78.1912 24.0222C78.1912 25.3077 78.4267 26.4425 78.8794 27.4975C79.3412 28.5614 79.9842 29.5012 80.7992 30.2991C81.6141 31.097 82.583 31.7176 83.6968 32.152C84.8106 32.5865 86.0422 32.8081 87.3462 32.8081C88.8584 32.8081 90.2801 32.48 91.575 31.8417C92.544 31.363 93.4495 30.7069 94.2826 29.8824C94.6176 29.5544 95.0613 29.3682 95.5322 29.3682C96.0031 29.3682 96.4015 29.5366 96.7275 29.8469L100.241 33.2248C100.902 33.8631 100.929 34.9093 100.295 35.5742C99.4351 36.4785 98.4299 37.2941 97.307 38.0123C95.8129 38.9609 94.1649 39.7056 92.4082 40.2198C90.6514 40.734 88.8585 41 87.0746 41L87.0926 40.9823Z" fill="#629EFF"/>
<path d="M86.5902 6.9151C88.4056 6.9151 90.1938 7.18048 91.9458 7.72039C93.6977 8.2603 95.3225 9.01065 96.8111 9.9715C97.9367 10.6944 98.9171 11.5272 99.7612 12.4606C100.224 12.9639 100.197 13.76 99.7068 14.2359L96.0487 17.8597C95.8036 18.1067 95.4859 18.2257 95.1682 18.2257C94.8233 18.2257 94.4874 18.0884 94.2332 17.8139C93.2983 16.8256 92.2907 16.0478 91.2106 15.4987C89.7854 14.7758 88.2423 14.4098 86.5812 14.4098C85.265 14.4098 84.0395 14.6568 82.8958 15.1418C81.752 15.636 80.7535 16.304 79.9093 17.1551C79.0651 18.0061 78.4026 19.0219 77.9396 20.184C77.4676 21.3554 77.2316 22.6365 77.2316 24.0183C77.2316 25.4001 77.4767 26.6355 77.9578 27.7885C78.4389 28.9416 79.1197 29.9482 79.982 30.8175C80.8444 31.6869 81.861 32.3549 83.041 32.8307C84.2211 33.3066 85.4919 33.5445 86.8716 33.5445C88.4692 33.5445 89.9488 33.1967 91.3104 32.5013C92.327 31.9797 93.2711 31.275 94.1425 30.3874C94.3966 30.1312 94.7325 29.9939 95.0684 29.9939C95.3861 29.9939 95.7038 30.1129 95.9488 30.36L99.4708 33.8465C99.961 34.3315 99.9792 35.1276 99.5162 35.6309C98.6811 36.5369 97.7098 37.3513 96.6024 38.0742C95.1319 39.0351 93.5342 39.7763 91.8096 40.2979C90.0849 40.8195 88.3511 41.0758 86.5902 41.0758C84.0848 41.0758 81.7611 40.6457 79.6098 39.7763C77.4676 38.907 75.5887 37.6991 73.9911 36.1526C72.3935 34.606 71.1498 32.7941 70.2511 30.726C69.3616 28.6578 68.9077 26.425 68.9077 24.0183C68.9077 21.6116 69.3525 19.333 70.2511 17.2649C71.1407 15.1968 72.3934 13.3849 74.0091 11.8383C75.6249 10.2918 77.5039 9.08387 79.6462 8.21453C81.7884 7.34518 84.1031 6.9151 86.5812 6.9151M86.5812 6C84.0033 6 81.5524 6.45755 79.3103 7.37265C77.0682 8.2786 75.0712 9.55971 73.3829 11.1794C71.6854 12.7992 70.3511 14.73 69.4161 16.8988C68.4811 19.0768 68 21.4652 68 24.0183C68 26.5714 68.4721 28.9141 69.4161 31.092C70.3511 33.2608 71.6763 35.1917 73.3556 36.8114C75.0349 38.4311 77.0228 39.7214 79.2649 40.6273C81.507 41.5333 83.9669 42 86.5812 42C88.4148 42 90.2574 41.7255 92.0547 41.1764C93.852 40.6365 95.5494 39.8496 97.0835 38.8429C98.2454 38.0834 99.2802 37.2141 100.161 36.2624C100.959 35.4022 100.923 34.0295 100.088 33.2059L96.5661 29.7194C96.1577 29.3167 95.6221 29.0971 95.0502 29.0971C94.4783 29.0971 93.8974 29.335 93.4799 29.7651C92.6811 30.5796 91.8097 31.2293 90.8838 31.7051C89.6584 32.3274 88.2967 32.6477 86.8534 32.6477C85.6008 32.6477 84.4208 32.4281 83.3587 31.998C82.3058 31.5679 81.3799 30.9639 80.6083 30.1861C79.8367 29.4082 79.2195 28.484 78.7838 27.4408C78.3481 26.4067 78.1302 25.2629 78.1302 24.0275C78.1302 22.7921 78.348 21.5842 78.7656 20.5318C79.1831 19.4794 79.7823 18.5643 80.5448 17.8048C81.3073 17.0361 82.215 16.4321 83.2407 15.9837C84.2664 15.5445 85.3921 15.3249 86.5721 15.3249C88.0789 15.3249 89.504 15.6543 90.7929 16.3131C91.7823 16.8164 92.7083 17.5302 93.5706 18.4453C93.9882 18.8846 94.5691 19.1408 95.1682 19.1408C95.7673 19.1408 96.2757 18.9212 96.6842 18.5186L100.342 14.8947C101.186 14.062 101.223 12.726 100.424 11.8475C99.5253 10.8592 98.4723 9.97154 97.2923 9.21201C95.7401 8.2054 94.0245 7.41841 92.1999 6.8602C90.3663 6.30199 88.4783 6.01826 86.5812 6.01826V6Z" fill="#629EFF"/>
<path d="M110.284 7H104.716C103.768 7 103 7.77252 103 8.72552V39.2744C103 40.2274 103.768 41 104.716 41H110.284C111.232 41 112 40.2274 112 39.2744V8.72552C112 7.77252 111.232 7 110.284 7Z" fill="#629EFF"/>
<path d="M110.802 7.88889C111.507 7.88889 112.084 8.43997 112.084 9.1333V38.8666C112.084 39.5511 111.516 40.1111 110.802 40.1111H105.198C104.493 40.1111 103.916 39.56 103.916 38.8666V9.1333C103.916 8.44886 104.484 7.88889 105.198 7.88889H110.802ZM110.802 7H105.198C103.989 7 103 7.95108 103 9.1333V38.8666C103 40.04 103.98 41 105.198 41H110.802C112.011 41 113 40.0489 113 38.8666V9.1333C113 7.95997 112.02 7 110.802 7Z" fill="#629EFF"/>
<path d="M142.216 41C141.503 41 140.844 40.5527 140.597 39.8864L138.192 33.5428C138.073 33.2234 137.762 33.0134 137.424 33.0134H126.257C125.918 33.0134 125.616 33.2234 125.498 33.5337L123.046 39.8864C122.79 40.5527 122.141 40.9909 121.428 40.9909H115.73C115.153 40.9909 114.614 40.7079 114.294 40.2241C113.974 39.7404 113.91 39.138 114.129 38.6086L126.677 8.07704C126.943 7.42899 127.574 7 128.278 7H135.887C136.601 7 137.232 7.429 137.497 8.08618L149.871 38.6177C150.091 39.1471 150.027 39.7586 149.698 40.2333C149.378 40.7079 148.838 41 148.262 41H142.225H142.216ZM131.9 18.2633C131.625 18.2633 131.287 18.4002 131.141 18.7836L128.936 24.5066C128.836 24.7621 128.872 25.036 129.028 25.2642C129.183 25.4924 129.43 25.6201 129.705 25.6201H134.058C134.332 25.6201 134.579 25.4924 134.735 25.2733C134.89 25.0451 134.927 24.7713 134.826 24.5248L132.677 18.8019C132.531 18.4094 132.183 18.2725 131.909 18.2725L131.9 18.2633Z" fill="#629EFF"/>
<path d="M135.786 7.89779C136.294 7.89779 136.749 8.2 136.936 8.67112L148.994 38.4045C149.324 39.2222 148.726 40.1111 147.843 40.1111H141.957C141.44 40.1111 140.976 39.7911 140.798 39.3111L138.452 33.1333C138.265 32.6533 137.81 32.3333 137.293 32.3333H126.404C125.886 32.3333 125.432 32.6533 125.244 33.1245L122.854 39.3111C122.667 39.7911 122.212 40.1022 121.695 40.1022H116.139C115.256 40.1022 114.649 39.2045 114.988 38.3956L127.224 8.66222C127.412 8.2 127.866 7.88889 128.375 7.88889H135.795M129.766 26.0222H134.011C134.876 26.0222 135.483 25.16 135.179 24.3511L133.084 18.7778C132.878 18.2444 132.397 17.9689 131.915 17.9689C131.434 17.9689 130.961 18.2355 130.756 18.7689L128.607 24.3422C128.294 25.1511 128.892 26.0222 129.766 26.0222ZM135.795 7H128.375C127.501 7 126.725 7.51555 126.395 8.32444L114.159 38.0578C113.891 38.7156 113.963 39.4622 114.364 40.0489C114.765 40.6355 115.425 40.9911 116.139 40.9911H121.695C122.569 40.9911 123.372 40.44 123.693 39.6222L126.083 33.4355C126.136 33.3022 126.27 33.2133 126.413 33.2133H137.302C137.445 33.2133 137.578 33.3022 137.632 33.4444L139.977 39.6222C140.289 40.4489 141.092 41 141.975 41H147.861C148.575 41 149.235 40.6533 149.636 40.0578C150.037 39.4711 150.109 38.7245 149.841 38.0667L137.783 8.33333C137.454 7.52444 136.678 7 135.804 7H135.795ZM129.766 25.1333C129.605 25.1333 129.516 25.0355 129.472 24.9822C129.427 24.9289 129.374 24.8044 129.436 24.6533L131.585 19.08C131.657 18.8844 131.826 18.8577 131.915 18.8577C132.004 18.8577 132.174 18.8844 132.245 19.0889L134.341 24.6622C134.395 24.8133 134.341 24.9289 134.305 24.9822C134.27 25.0355 134.181 25.1333 134.02 25.1333H129.775H129.766Z" fill="#629EFF"/>
<path d="M153.694 41C152.762 41 152 40.2239 152 39.2744V8.72552C152 7.77601 152.762 7 153.694 7H159.179C160.111 7 160.873 7.77601 160.873 8.72552V32.08C160.873 32.5274 161.231 32.9017 161.679 32.9017H176.306C177.238 32.9017 178 33.6777 178 34.6364V39.2744C178 40.2239 177.238 41 176.306 41H153.703H153.694Z" fill="#629EFF"/>
<path d="M158.647 7.88889C159.34 7.88889 159.907 8.43997 159.907 9.1333V31.8711C159.907 32.5555 160.465 33.1067 161.158 33.1067H175.841C176.533 33.1067 177.1 33.6577 177.1 34.3511V38.8666C177.1 39.5511 176.542 40.1111 175.841 40.1111H153.15C152.458 40.1111 151.9 39.56 151.9 38.8666V9.1333C151.9 8.44886 152.458 7.88889 153.15 7.88889H158.656M158.656 7H153.15C151.963 7 151 7.95108 151 9.1333V38.8666C151 40.04 151.963 41 153.15 41H175.841C177.028 41 178 40.0489 178 38.8666V34.3511C178 33.1777 177.037 32.2178 175.841 32.2178H161.158C160.96 32.2178 160.807 32.0578 160.807 31.8711V9.1333C160.807 7.95997 159.844 7 158.647 7H158.656Z" fill="#629EFF"/>
<path d="M41.7023 83.9909C40.7705 83.9909 40 83.2153 40 82.2571V51.7338C40 50.7848 40.7616 50 41.7023 50H47.1854C48.1172 50 48.8786 50.7757 48.8786 51.7338V75.0757C48.8786 75.5228 49.237 75.8969 49.676 75.8969H64.2977C65.2295 75.8969 66 76.6726 66 77.6307V82.2662C66 83.2152 65.2384 84 64.2977 84H41.7023V83.9909Z" fill="#629EFF"/>
<path d="M46.6449 50.8891C47.3375 50.8891 47.904 51.4404 47.904 52.1339V74.8776C47.904 75.5622 48.4617 76.1224 49.1632 76.1224H63.8415C64.5341 76.1224 65.1006 76.6737 65.1006 77.3583V81.875C65.1006 82.5596 64.5431 83.1109 63.8415 83.1109H41.1585C40.4659 83.1109 39.8994 82.5596 39.8994 81.875V52.1339C39.8994 51.4493 40.4569 50.8891 41.1585 50.8891H46.6628M46.6628 50H41.1585C39.9713 50 39 50.9514 39 52.1339V81.875C39 83.0486 39.9623 84 41.1585 84H63.8415C65.0287 84 66 83.0486 66 81.875V77.3583C66 76.1846 65.0377 75.2333 63.8415 75.2333H49.1632C48.9653 75.2333 48.8034 75.0732 48.8034 74.8776V52.1339C48.8034 50.9603 47.8411 50 46.6449 50H46.6628Z" fill="#629EFF"/>
<path d="M70.7238 50H76.2762C77.2288 50 78 50.7759 78 51.7343V82.2657C78 83.2241 77.2288 84 76.2762 84H70.7238C69.7712 84 69 83.2241 69 82.2657V51.7343C69 50.7759 69.7712 50 70.7238 50Z" fill="#629EFF"/>
<path d="M76.8022 50.8891C77.5073 50.8891 78.0843 51.4404 78.0843 52.1339V81.875C78.0843 82.5596 77.5165 83.1109 76.8022 83.1109H71.1978C70.4927 83.1109 69.9157 82.5596 69.9157 81.875V52.1339C69.9157 51.4493 70.4835 50.8891 71.1978 50.8891H76.8022ZM76.8022 50H71.1978C69.989 50 69 50.9514 69 52.1339V81.875C69 83.0486 69.9799 84 71.1978 84H76.8022C78.011 84 79 83.0486 79 81.875V52.1339C79 50.9603 78.0201 50 76.8022 50Z" fill="#629EFF"/>
<path d="M84.7135 83.9909C83.7706 83.9909 83 83.2153 83 82.2571V51.7338C83 50.7848 83.7706 50 84.7135 50H108.286C109.229 50 110 50.7757 110 51.7338V56.2324C110 57.1814 109.229 57.9571 108.286 57.9571H92.7918C92.3475 57.9571 91.9758 58.3221 91.9758 58.7783V62.4192C91.9758 62.8663 92.3384 63.2405 92.7918 63.2405H102.275C103.218 63.2405 103.998 64.0161 103.998 64.9651V69.2265C103.998 70.1755 103.227 70.9603 102.275 70.9603H92.7918C92.3475 70.9603 91.9758 71.3253 91.9758 71.7724V82.2662C91.9758 83.2152 91.2051 84 90.2622 84H84.7135V83.9909Z" fill="#629EFF"/>
<path d="M107.818 50.8889C108.518 50.8889 109.091 51.44 109.091 52.1334V56.5156C109.091 57.2 108.527 57.76 107.818 57.76H92.2818C91.5818 57.76 91.009 58.3111 91.009 58.9956V62.5422C91.009 63.2267 91.5727 63.7778 92.2818 63.7778H101.8C102.5 63.7778 103.064 64.3289 103.064 65.0222V69.1733C103.064 69.8578 102.5 70.4089 101.8 70.4089H92.2818C91.5818 70.4089 91.009 70.96 91.009 71.6533V81.8755C91.009 82.56 90.4455 83.1111 89.7364 83.1111H84.1726C83.4726 83.1111 82.9091 82.56 82.9091 81.8755V52.1422C82.9091 51.4578 83.4726 50.8978 84.1726 50.8978H107.809M107.809 50.0089H84.1726C82.9726 50.0089 82 50.96 82 52.1422V81.8755C82 83.0489 82.9726 84 84.1726 84H89.7364C90.9364 84 91.9181 83.0489 91.9181 81.8755V71.6533C91.9181 71.4578 92.0818 71.2978 92.2818 71.2978H101.8C103 71.2978 103.973 70.3467 103.973 69.1733V65.0222C103.973 63.8489 103 62.8889 101.8 62.8889H92.2818C92.0818 62.8889 91.9181 62.7289 91.9181 62.5422V58.9956C91.9181 58.8 92.0818 58.6489 92.2818 58.6489H107.818C109.018 58.6489 110 57.6978 110 56.5156V52.1334C110 50.96 109.027 50 107.818 50L107.809 50.0089Z" fill="#629EFF"/>
<path d="M114.714 83.9909C113.771 83.9909 113 83.2153 113 82.2571V51.7338C113 50.7848 113.771 50 114.714 50H138.105C139.048 50 139.819 50.7757 139.819 51.7338V56.2324C139.819 57.1814 139.048 57.9571 138.105 57.9571H122.786C122.342 57.9571 121.97 58.3221 121.97 58.7783V62.182C121.97 62.6291 122.333 63.0032 122.786 63.0032H132.046C132.989 63.0032 133.769 63.7789 133.769 64.7279V68.9893C133.769 69.9383 132.998 70.723 132.046 70.723H122.786C122.342 70.723 121.97 71.0881 121.97 71.5352V75.2217C121.97 75.6688 122.333 76.043 122.786 76.043H138.286C139.229 76.043 140 76.8186 140 77.7767V82.2662C140 83.2152 139.229 84 138.286 84H114.705L114.714 83.9909Z" fill="#629EFF"/>
<path d="M137.721 50.8889C138.396 50.8889 138.939 51.44 138.939 52.1334V56.5156C138.939 57.2 138.396 57.76 137.721 57.76H122.915C122.24 57.76 121.687 58.3111 121.687 58.9956V62.3111C121.687 62.9955 122.231 63.5467 122.915 63.5467H131.865C132.54 63.5467 133.083 64.0978 133.083 64.7911V68.9422C133.083 69.6267 132.54 70.1778 131.865 70.1778H122.915C122.24 70.1778 121.687 70.7289 121.687 71.4222V75.0133C121.687 75.6978 122.231 76.2578 122.915 76.2578H137.896C138.571 76.2578 139.123 76.8089 139.123 77.4933V81.8755C139.123 82.56 138.58 83.1111 137.896 83.1111H115.104C114.429 83.1111 113.877 82.56 113.877 81.8755V52.1422C113.877 51.4578 114.42 50.8978 115.104 50.8978H137.712M137.712 50.0089H115.104C113.947 50.0089 113 50.96 113 52.1422V81.8755C113 83.0489 113.938 84 115.104 84H137.896C139.053 84 140 83.0489 140 81.8755V77.4933C140 76.32 139.062 75.3689 137.896 75.3689H122.915C122.722 75.3689 122.564 75.2089 122.564 75.0133V71.4222C122.564 71.2266 122.722 71.0667 122.915 71.0667H131.865C133.022 71.0667 133.96 70.1156 133.96 68.9422V64.7911C133.96 63.6178 133.022 62.6578 131.865 62.6578H122.915C122.722 62.6578 122.564 62.4978 122.564 62.3111V58.9956C122.564 58.8 122.722 58.6489 122.915 58.6489H137.721C138.878 58.6489 139.816 57.6978 139.816 56.5156V52.1334C139.816 50.96 138.878 50 137.721 50L137.712 50.0089Z" fill="#629EFF"/>
<path d="M14.4639 35C11.8225 35 9.17236 34.4971 6.60195 33.5005C4.43926 32.6685 2.45379 31.553 0.681096 30.1815C0.317693 29.8981 0.0783785 29.4866 0.0163341 29.0203C-0.0457103 28.554 0.0695194 28.0969 0.353151 27.7312L3.2604 23.827C3.57949 23.3973 4.06698 23.1505 4.58992 23.1505C4.96219 23.1505 5.30788 23.2693 5.60037 23.4979C7.15148 24.7048 8.61399 25.61 9.95238 26.186C11.5389 26.8717 13.2585 27.2192 15.0578 27.2192C16.2366 27.2192 17.247 27.1003 18.0536 26.8626C18.8336 26.634 19.4275 26.2957 19.8263 25.8751C20.2074 25.4728 20.3935 25.0065 20.3935 24.4671C20.3935 23.6991 20.1188 23.123 19.5692 22.7025C18.9488 22.2453 17.8585 21.8704 16.3163 21.5961L9.24325 20.3161C6.55762 19.8224 4.44816 18.7435 2.98569 17.0977C1.50549 15.4428 0.760945 13.3125 0.760945 10.7798C0.760945 8.54888 1.31935 6.59221 2.42728 4.97388C3.52636 3.36468 5.12176 2.11207 7.16923 1.26176C9.1901 0.420589 11.6098 0 14.3841 0C16.8039 0 19.2767 0.42975 21.7319 1.28006C23.735 1.97494 25.5521 2.90751 27.1298 4.04126C27.5021 4.30641 27.7413 4.70874 27.8211 5.1659C27.9009 5.62306 27.7945 6.08935 27.5286 6.47336L24.781 10.4232C24.4708 10.8712 23.9566 11.1455 23.416 11.1455C23.0703 11.1455 22.7424 11.0358 22.4587 10.8347C19.5692 8.76831 16.6709 7.72597 13.8257 7.72597C12.8064 7.72597 11.9112 7.83569 11.1755 8.06426C10.1119 8.38427 9.42941 8.89627 9.15464 9.582C9.12805 9.646 9.11027 9.7192 9.10141 9.80148C9.01277 10.6518 9.23439 11.2644 9.79279 11.6758C10.3335 12.0781 11.2552 12.3981 12.5316 12.6358L19.1792 13.7696C22.3435 14.2907 24.7987 15.3971 26.4562 17.0611C28.1402 18.7526 29 20.9653 29 23.6351C29 25.9666 28.3973 28.0055 27.2184 29.7061C26.0396 31.3976 24.3378 32.7142 22.1574 33.6285C20.0036 34.5337 17.4154 34.9908 14.4639 34.9908V35Z" fill="white"/>
<path d="M14.8414 0.917976C17.2358 0.917976 19.648 1.32795 22.078 2.13901C24.0629 2.80746 25.8342 3.68092 27.383 4.77718C27.9527 5.17825 28.0862 5.96258 27.6767 6.52408L24.9174 10.3743C24.6771 10.713 24.2943 10.8913 23.9116 10.8913C23.6712 10.8913 23.4221 10.8199 23.2084 10.6684C20.2177 8.59178 17.2447 7.55792 14.2806 7.55792C13.2036 7.55792 12.2778 7.6738 11.4945 7.90553C10.284 8.26204 9.50962 8.84137 9.18027 9.64351C9.13577 9.75046 9.10899 9.86628 9.10009 9.98214C8.99327 10.9714 9.2871 11.7201 9.97249 12.2192C10.5689 12.647 11.5479 12.9857 12.9009 13.2353L19.5856 14.3404C22.6921 14.8306 25.051 15.8645 26.6621 17.4332C28.2732 19.0018 29.0832 21.0338 29.0832 23.5205C29.0832 25.7041 28.5134 27.5936 27.3741 29.1711C26.2348 30.7576 24.6059 31.9786 22.4874 32.8431C20.3689 33.7077 17.8499 34.1355 14.9304 34.1355C12.3223 34.1355 9.74105 33.6631 7.18643 32.7006C5.05016 31.8984 3.10078 30.8378 1.35616 29.5187C0.804287 29.0998 0.688555 28.3066 1.11581 27.754L4.0354 23.9483C4.27573 23.6275 4.64957 23.467 5.02341 23.467C5.28154 23.467 5.54855 23.5472 5.77108 23.7166C7.36438 24.9287 8.85978 25.82 10.2395 26.3904C11.8951 27.0856 13.6664 27.4332 15.5357 27.4332C16.764 27.4332 17.8054 27.3084 18.6688 27.0678C19.5322 26.8182 20.191 26.4617 20.6538 25.9804C21.1167 25.508 21.348 24.9376 21.348 24.2959C21.348 23.4046 21.0098 22.7095 20.3333 22.2193C19.6568 21.7291 18.5086 21.3458 16.8797 21.0695L9.78549 19.8218C7.17746 19.3583 5.15688 18.3601 3.7505 16.8182C2.33523 15.2763 1.63203 13.3244 1.63203 10.9536C1.63203 8.85917 2.16614 7.05881 3.22537 5.55257C4.2846 4.04633 5.8067 2.88768 7.79165 2.09445C9.7766 1.29231 12.1355 0.891267 14.8681 0.891267M14.8681 0C12.0286 0 9.53627 0.427793 7.46231 1.26558C5.32604 2.13011 3.66158 3.3957 2.50443 5.04454C1.33839 6.7023 0.750832 8.68983 0.750832 10.9536C0.750832 13.5383 1.54305 15.713 3.10965 17.4153C4.64954 19.0909 6.8481 20.1961 9.65195 20.6863L16.7462 21.9341C18.5977 22.246 19.4432 22.6471 19.8349 22.9323C20.2799 23.2531 20.4846 23.681 20.4846 24.287C20.4846 24.7059 20.3422 25.0446 20.0396 25.3476C19.6924 25.713 19.1584 25.9982 18.4552 26.1943C17.6808 26.4171 16.7105 26.533 15.5623 26.533C13.8177 26.533 12.1443 26.2032 10.6044 25.5615C9.29597 25.0178 7.85394 24.1533 6.33185 22.9947C5.958 22.7095 5.513 22.5669 5.05014 22.5669C4.38256 22.5669 3.76836 22.8699 3.35891 23.3957L0.439315 27.2014C0.0921712 27.656 -0.0591217 28.2175 0.0209883 28.7879C0.101098 29.3583 0.394783 29.8663 0.857641 30.2139C2.66457 31.5775 4.70297 32.6916 6.91045 33.5116C9.54518 34.5009 12.2601 35 14.966 35C17.9835 35 20.6449 34.5455 22.8613 33.6453C25.1311 32.7273 26.9023 31.3904 28.1307 29.6702C29.3768 27.9412 30 25.8645 30 23.4938C30 20.7665 29.0921 18.5027 27.3118 16.7647C25.5761 15.0713 23.0304 13.9483 19.7548 13.4314L13.079 12.3262C11.5836 12.0499 10.8626 11.7112 10.5244 11.4706C10.2395 11.2656 9.91901 10.918 10.0169 10.0535C10.0169 10.0089 10.0347 9.97326 10.0347 9.95543C10.2573 9.42067 10.8358 9.01069 11.7793 8.7344C12.4825 8.52941 13.3281 8.42243 14.3161 8.42243C17.0755 8.42243 19.915 9.41173 22.7367 11.3725C23.0927 11.6221 23.511 11.7558 23.9472 11.7558C24.6326 11.7558 25.2823 11.426 25.674 10.8645L28.4334 7.01426C28.7716 6.54189 28.8962 5.97149 28.7983 5.40999C28.7004 4.83958 28.3888 4.34933 27.9171 4.01957C26.2971 2.88766 24.4368 1.96078 22.3806 1.2745C19.8705 0.427801 17.3426 0.00886697 14.8592 0.00886697L14.8681 0Z" fill="#629EFF"/>
<path d="M48.9999 35C46.4816 35 44.1082 34.5531 41.9341 33.6686C39.769 32.784 37.8394 31.5347 36.2088 29.9388C34.5782 28.3429 33.2919 26.4734 32.377 24.3668C31.462 22.2603 31 19.944 31 17.5C31 15.056 31.462 12.7488 32.377 10.6331C33.2919 8.52655 34.5782 6.64798 36.2088 5.06122C37.8394 3.47445 39.769 2.21602 41.9341 1.33144C44.1082 0.446867 46.4816 0 48.9999 0C51.5183 0 53.8918 0.446867 56.0659 1.33144C58.24 2.21602 60.1606 3.47445 61.7912 5.06122C63.4218 6.6571 64.7081 8.52655 65.623 10.6331C66.538 12.7397 67 15.0469 67 17.5C67 19.9531 66.538 22.2511 65.623 24.3668C64.7171 26.4734 63.4218 28.352 61.7912 29.9388C60.1606 31.5347 58.231 32.784 56.0659 33.6686C53.8918 34.5531 51.5183 35 48.9999 35ZM48.9999 8.37154C47.7498 8.37154 46.5813 8.60865 45.5214 9.06462C44.4524 9.5297 43.5194 10.168 42.7313 10.9705C41.9522 11.773 41.3271 12.7397 40.8832 13.8431C40.4394 14.9466 40.2129 16.1595 40.2129 17.4453C40.2129 18.7311 40.4394 20.0078 40.8832 21.1203C41.3271 22.242 41.9522 23.2178 42.7313 24.0203C43.5103 24.8228 44.4524 25.4612 45.5214 25.9263C46.5813 26.3913 47.7589 26.6193 48.9999 26.6193C50.241 26.6193 51.4187 26.3822 52.4786 25.9263C53.5476 25.4612 54.4806 24.8228 55.2687 24.0203C56.0478 23.2178 56.6729 22.242 57.1168 21.1203C57.5606 19.9987 57.7871 18.7767 57.7871 17.4909C57.7871 16.205 57.5606 14.9374 57.1168 13.834C56.6729 12.7306 56.0478 11.764 55.2687 10.9615C54.4806 10.159 53.5476 9.52058 52.4786 9.05549C51.4187 8.5904 50.241 8.36241 48.9999 8.36241V8.37154Z" fill="white"/>
<path d="M48.9999 0.888324C51.4123 0.888324 53.648 1.30582 55.7246 2.14973C57.8012 2.99364 59.6126 4.1751 61.1678 5.69414C62.723 7.21317 63.9336 8.97206 64.8085 10.9797C65.6744 12.9873 66.1164 15.1548 66.1164 17.4911C66.1164 19.8274 65.6833 21.9949 64.8085 24.0025C63.9425 26.0102 62.723 27.7779 61.1678 29.288C59.6126 30.8071 57.8012 31.9886 55.7246 32.8325C53.648 33.6764 51.4123 34.0939 48.9999 34.0939C46.5876 34.0939 44.352 33.6764 42.2754 32.8325C40.1988 31.9886 38.3874 30.8071 36.8322 29.288C35.277 27.769 34.0664 26.0102 33.1915 24.0025C32.3256 21.9949 31.8837 19.8274 31.8837 17.4911C31.8837 15.1548 32.3167 12.9873 33.1915 10.9797C34.0575 8.97206 35.277 7.20429 36.8322 5.69414C38.3874 4.1751 40.1988 2.99364 42.2754 2.14973C44.352 1.30582 46.5876 0.888324 48.9999 0.888324ZM48.9999 26.8274C50.2812 26.8274 51.4742 26.5876 52.5699 26.1168C53.6657 25.6371 54.62 24.9886 55.4329 24.1624C56.2371 23.3363 56.8733 22.3413 57.3328 21.1954C57.7923 20.0495 58.0221 18.8147 58.0221 17.4911C58.0221 16.1675 57.7923 14.8972 57.3328 13.769C56.8733 12.632 56.2459 11.6548 55.4329 10.8287C54.62 10.0025 53.6745 9.34516 52.5699 8.87435C51.4742 8.39466 50.2812 8.1637 48.9999 8.1637C47.7187 8.1637 46.5258 8.40354 45.4301 8.87435C44.3343 9.34516 43.38 10.0025 42.5671 10.8287C41.7541 11.6548 41.1267 12.6409 40.6672 13.769C40.2077 14.9061 39.9779 16.132 39.9779 17.4467C39.9779 18.7614 40.2077 20.0495 40.6672 21.1954C41.1267 22.3413 41.7541 23.3363 42.5671 24.1624C43.3712 24.9886 44.3255 25.6459 45.4301 26.1168C46.5346 26.5876 47.7187 26.8274 48.9999 26.8274ZM48.9999 0C46.4904 0 44.1134 0.444162 41.9396 1.33249C39.7658 2.21193 37.8395 3.47336 36.2136 5.06346C34.5788 6.65356 33.2975 8.52789 32.3785 10.6332C31.4684 12.7474 31 15.0571 31 17.5C31 19.9429 31.4595 22.2525 32.3785 24.3667C33.2887 26.4721 34.5788 28.3464 36.2136 29.9365C37.8483 31.5266 39.7746 32.7792 41.9396 33.6675C44.1134 34.547 46.4815 35 48.9999 35C51.5183 35 53.8866 34.5558 56.0604 33.6675C58.2342 32.7881 60.1605 31.5355 61.7864 29.9365C63.4212 28.3464 64.7113 26.4721 65.6215 24.3667C66.5316 22.2525 67 19.9429 67 17.5C67 15.0571 66.5405 12.7474 65.6215 10.6332C64.7113 8.52789 63.4212 6.65356 61.7864 5.06346C60.1605 3.47336 58.2342 2.22081 56.0604 1.33249C53.8866 0.453045 51.5183 0 48.9999 0ZM48.9999 25.9391C47.8424 25.9391 46.7644 25.7259 45.7836 25.2995C44.7939 24.8731 43.9279 24.2779 43.2033 23.5406C42.4787 22.8033 41.9042 21.8972 41.4978 20.8667C41.0825 19.8274 40.8704 18.6815 40.8704 17.4467C40.8704 16.2119 41.0824 15.1193 41.4889 14.0977C41.9042 13.0761 42.4787 12.1789 43.2033 11.4416C43.9279 10.7043 44.7939 10.1092 45.7836 9.68276C46.7644 9.25636 47.8512 9.04314 48.9999 9.04314C50.1487 9.04314 51.2356 9.25636 52.2164 9.68276C53.2061 10.1092 54.0721 10.7043 54.7967 11.4416C55.5213 12.1789 56.0957 13.0761 56.511 14.0977C56.9263 15.1193 57.1296 16.2652 57.1296 17.4911C57.1296 18.717 56.9175 19.8274 56.5022 20.8667C56.0869 21.8972 55.5125 22.8033 54.7967 23.5406C54.0721 24.2779 53.2061 24.8731 52.2164 25.2995C51.2356 25.7259 50.1487 25.9391 48.9999 25.9391Z" fill="#629EFF"/>
<path d="M87.0926 34.9727C84.548 34.9727 82.1485 34.5256 79.9571 33.6405C77.7747 32.7555 75.8368 31.5055 74.2068 29.9361C72.5769 28.3577 71.291 26.4872 70.3764 24.3795C69.4618 22.2719 69 19.9635 69 17.5091C69 15.0548 69.4618 12.7098 70.3764 10.5931C71.291 8.48539 72.5859 6.61498 74.225 5.03652C75.873 3.45805 77.8109 2.21717 79.9932 1.33214C82.1756 0.4471 84.5572 0 87.0746 0C88.9219 0 90.7691 0.273745 92.553 0.82119C94.3369 1.36864 96.0031 2.13502 97.5153 3.12042C98.6653 3.85948 99.6796 4.72625 100.549 5.67516C101.174 6.36859 101.147 7.41787 100.485 8.08393L96.8361 11.6971C96.5192 12.0164 96.0937 12.1898 95.6409 12.1898C95.17 12.1898 94.7082 11.9891 94.3731 11.6423C93.4857 10.6934 92.5168 9.9544 91.4845 9.4252C90.1353 8.7409 88.6502 8.38504 87.0655 8.38504C85.8159 8.38504 84.6387 8.62228 83.5611 9.07848C82.4835 9.54381 81.5236 10.1825 80.7267 10.9854C79.9299 11.7883 79.305 12.7555 78.8522 13.8595C78.4085 14.9635 78.1821 16.1953 78.1821 17.5183C78.1821 18.8413 78.4176 20.0091 78.8704 21.0949C79.3322 22.1898 79.9751 23.1569 80.7901 23.9781C81.596 24.7993 82.5741 25.438 83.6879 25.885C84.8017 26.3321 86.0331 26.5602 87.3371 26.5602C88.8493 26.5602 90.2801 26.2317 91.566 25.5748C92.5349 25.0821 93.4495 24.3978 94.2735 23.5584C94.6086 23.2208 95.0523 23.0292 95.5141 23.0292C95.9759 23.0292 96.3835 23.2025 96.7095 23.5219L100.223 26.9982C100.884 27.6551 100.911 28.7318 100.277 29.4161C99.417 30.3467 98.4118 31.1861 97.2889 31.9252C95.7948 32.9015 94.1468 33.6679 92.39 34.1971C90.6333 34.7263 88.8403 35 87.0564 35L87.0926 34.9727Z" fill="white"/>
<path d="M86.5902 0.898585C88.4056 0.898585 90.1938 1.1566 91.9458 1.68151C93.6977 2.20642 95.3225 2.93597 96.8111 3.87014C97.9367 4.57298 98.9171 5.38257 99.7612 6.29004C100.224 6.77936 100.197 7.55338 99.7068 8.01602L96.0487 11.5392C95.8036 11.7794 95.4859 11.895 95.1682 11.895C94.8233 11.895 94.4874 11.7615 94.2332 11.4946C93.2983 10.5338 92.2907 9.77759 91.2106 9.24378C89.7854 8.54093 88.2423 8.18506 86.5812 8.18506C85.265 8.18506 84.0395 8.42526 82.8958 8.89679C81.752 9.37722 80.7535 10.0267 79.9093 10.8541C79.0651 11.6815 78.4026 12.669 77.9396 13.7989C77.4676 14.9377 77.2316 16.1833 77.2316 17.5267C77.2316 18.8701 77.4767 20.0712 77.9578 21.1922C78.4389 22.3132 79.1197 23.2918 79.982 24.137C80.8444 24.9822 81.861 25.6317 83.041 26.0943C84.212 26.5569 85.4919 26.7882 86.8716 26.7882C88.4692 26.7882 89.9488 26.4502 91.3104 25.774C92.327 25.2669 93.2711 24.5819 94.1425 23.7189C94.3966 23.4698 94.7325 23.3363 95.0684 23.3363C95.3861 23.3363 95.7038 23.4519 95.9488 23.6833L99.4708 27.0729C99.961 27.5445 99.9792 28.3185 99.5162 28.8078C98.6811 29.6886 97.7098 30.4804 96.6024 31.1832C95.1319 32.1174 93.5342 32.838 91.8096 33.3452C90.0849 33.8523 88.3511 34.1014 86.5902 34.1014C84.0848 34.1014 81.7611 33.6833 79.6098 32.8381C77.4676 31.9929 75.5887 30.8185 73.9911 29.3149C72.3935 27.8114 71.1498 26.0498 70.2511 24.0391C69.3616 22.0285 68.9077 19.8576 68.9077 17.5178C68.9077 15.1779 69.3525 12.9626 70.2511 10.9519C71.1407 8.94127 72.3934 7.17972 74.0091 5.67616C75.6249 4.1726 77.5039 2.9982 79.6462 2.15301C81.7884 1.30781 84.1031 0.889679 86.5812 0.889679M86.5812 0C84.0033 0 81.5524 0.44484 79.3103 1.33452C77.0682 2.2153 75.0712 3.46088 73.3829 5.03561C71.6854 6.61035 70.3511 8.48757 69.4161 10.5961C68.4811 12.7135 68 15.0356 68 17.5178C68 20 68.4721 22.2776 69.4161 24.395C70.3511 26.5035 71.6763 28.3807 73.3556 29.9555C75.0349 31.5302 77.0228 32.7847 79.2649 33.6655C81.507 34.5463 83.976 35 86.5812 35C88.4148 35 90.2574 34.7331 92.0547 34.1993C93.852 33.6655 95.5494 32.9092 97.0835 31.9306C98.2454 31.1922 99.2802 30.347 100.161 29.4217C100.959 28.5854 100.923 27.2509 100.088 26.4413L96.5661 23.0516C96.1577 22.6602 95.6221 22.4466 95.0502 22.4466C94.4783 22.4466 93.8974 22.6779 93.4799 23.0961C92.6811 23.8879 91.8097 24.5196 90.8838 24.9822C89.6584 25.5872 88.2967 25.8985 86.8534 25.8985C85.6008 25.8985 84.4208 25.6851 83.3587 25.2669C82.3058 24.8488 81.3799 24.2615 80.6083 23.5053C79.8367 22.7491 79.2195 21.8505 78.7838 20.8363C78.3481 19.8309 78.1302 18.7189 78.1302 17.5178C78.1302 16.3167 78.348 15.1423 78.7656 14.1192C79.1831 13.0961 79.7823 12.2064 80.5448 11.468C81.3073 10.7206 82.215 10.1335 83.2407 9.69752C84.2664 9.27048 85.3921 9.05693 86.5721 9.05693C88.0789 9.05693 89.504 9.37723 90.7929 10.0178C91.7823 10.5071 92.7083 11.2011 93.5706 12.0908C93.9882 12.5178 94.5691 12.7669 95.1682 12.7669C95.7673 12.7669 96.2757 12.5534 96.6842 12.1619L100.342 8.6388C101.186 7.8292 101.223 6.53025 100.424 5.67616C99.5253 4.7153 98.4723 3.85231 97.2923 3.11388C95.7401 2.13523 94.0245 1.3701 92.1999 0.827395C90.3663 0.284691 88.4783 0.00890548 86.5812 0.00890548V0Z" fill="#629EFF"/>
<path d="M104.724 1H110.276C111.229 1 112 1.75299 112 2.68319V32.3168C112 33.247 111.229 34 110.276 34H104.724C103.771 34 103 33.247 103 32.3168V2.67438C103 1.74417 103.771 1 104.715 1H104.724Z" fill="white"/>
<path d="M110.802 0.915512C111.507 0.915512 112.084 1.48314 112.084 2.18809V32.8119C112.084 33.5169 111.516 34.0845 110.802 34.0845H105.198C104.493 34.0845 103.916 33.5169 103.916 32.8119V2.18809C103.916 1.48314 104.484 0.915512 105.198 0.915512H110.802ZM110.802 0H105.198C103.989 0 103 0.979611 103 2.18809V32.8119C103 34.0204 103.98 35 105.198 35H110.802C112.011 35 113 34.0204 113 32.8119V2.18809C113 0.979611 112.02 0 110.802 0Z" fill="#629EFF"/>
<path d="M142.216 34C141.503 34 140.844 33.5659 140.597 32.9192L138.192 26.7622C138.073 26.4521 137.762 26.2483 137.424 26.2483H126.257C125.918 26.2483 125.616 26.4521 125.498 26.7533L123.046 32.9192C122.79 33.5659 122.141 33.9911 121.428 33.9911H115.73C115.153 33.9911 114.614 33.7165 114.294 33.247C113.974 32.7775 113.91 32.1928 114.129 31.6789L126.677 2.04536C126.943 1.41637 127.574 1 128.278 1H135.887C136.601 1 137.232 1.41638 137.497 2.05423L149.871 31.6878C150.091 32.2016 150.027 32.7951 149.698 33.2558C149.378 33.7165 148.838 34 148.262 34H142.225H142.216ZM131.9 11.9321C131.625 11.9321 131.287 12.0649 131.141 12.437L128.936 17.9917C128.836 18.2397 128.872 18.5055 129.028 18.727C129.183 18.9485 129.43 19.0725 129.705 19.0725H134.058C134.332 19.0725 134.579 18.9485 134.735 18.7359C134.89 18.5144 134.927 18.2486 134.826 18.0094L132.677 12.4548C132.531 12.0738 132.183 11.9409 131.909 11.9409L131.9 11.9321Z" fill="white"/>
<path d="M135.786 0.924192C136.294 0.924192 136.749 1.2353 136.936 1.72027L148.994 32.3281C149.324 33.17 148.726 34.085 147.843 34.085H141.957C141.44 34.085 140.976 33.7555 140.798 33.2614L138.452 26.902C138.265 26.4079 137.81 26.0784 137.293 26.0784H126.404C125.886 26.0784 125.432 26.4079 125.244 26.8928L122.854 33.2614C122.667 33.7555 122.212 34.0758 121.695 34.0758H116.139C115.256 34.0758 114.649 33.1516 114.988 32.319L127.224 1.71111C127.412 1.23529 127.866 0.915033 128.375 0.915033H135.795M129.766 19.5817H134.011C134.876 19.5817 135.483 18.6941 135.179 17.8615L133.084 12.1242C132.878 11.5752 132.397 11.2915 131.915 11.2915C131.434 11.2915 130.961 11.566 130.756 12.115L128.607 17.8523C128.294 18.685 128.892 19.5817 129.766 19.5817ZM135.795 0H128.375C127.501 0 126.725 0.53071 126.395 1.36339L114.159 31.9712C113.891 32.6484 113.963 33.417 114.364 34.0209C114.765 34.6248 115.425 34.9908 116.139 34.9908H121.695C122.569 34.9908 123.372 34.4235 123.693 33.5817L126.083 27.2131C126.136 27.0758 126.27 26.9843 126.413 26.9843H137.302C137.445 26.9843 137.578 27.0758 137.632 27.2222L139.977 33.5817C140.289 34.4327 141.092 35 141.975 35H147.861C148.575 35 149.235 34.6431 149.636 34.0301C150.037 33.4261 150.109 32.6575 149.841 31.9804L137.783 1.37255C137.454 0.539869 136.678 0 135.804 0H135.795ZM129.766 18.6667C129.605 18.6667 129.516 18.566 129.472 18.5111C129.427 18.4562 129.374 18.3281 129.436 18.1725L131.585 12.4353C131.657 12.234 131.826 12.2066 131.915 12.2066C132.004 12.2066 132.174 12.234 132.245 12.4444L134.341 18.1817C134.395 18.3373 134.341 18.4562 134.305 18.5111C134.27 18.566 134.181 18.6667 134.02 18.6667H129.775H129.766Z" fill="#629EFF"/>
<path d="M153.694 34C152.762 34 152 33.247 152 32.3168V2.68324C152 1.7619 152.762 1 153.694 1H159.179C160.111 1 160.873 1.75304 160.873 2.68324V25.3447C160.873 25.7788 161.231 26.1332 161.679 26.1332H176.306C177.238 26.1332 178 26.8862 178 27.8164V32.3168C178 33.2381 177.238 34 176.306 34H153.703H153.694Z" fill="white"/>
<path d="M158.647 0.915512C159.34 0.915512 159.907 1.48314 159.907 2.18809V25.6068C159.907 26.3118 160.465 26.8886 161.158 26.8886H175.841C176.533 26.8886 177.1 27.4562 177.1 28.1612V32.8119C177.1 33.5169 176.542 34.0845 175.841 34.0845H153.15C152.458 34.0845 151.9 33.5169 151.9 32.8119V2.18809C151.9 1.48314 152.458 0.915512 153.15 0.915512H158.656M158.656 0H153.15C151.963 0 151 0.979611 151 2.18809V32.8119C151 34.0204 151.963 35 153.15 35H175.841C177.028 35 178 34.0204 178 32.8119V28.1612C178 26.9527 177.037 25.9731 175.841 25.9731H161.158C160.96 25.9731 160.807 25.8083 160.807 25.6068V2.18809C160.807 0.979611 159.844 0 158.647 0H158.656Z" fill="#629EFF"/>
<path d="M41.7023 77C40.7705 77 40 76.247 40 75.3257V45.6832C40 44.7619 40.7616 44 41.7023 44H47.1854C48.1172 44 48.8786 44.753 48.8786 45.6832V68.3447C48.8786 68.7788 49.237 69.142 49.676 69.142H64.2977C65.2295 69.142 66 69.8951 66 70.8253V75.3257C66 76.247 65.2384 77 64.2977 77H41.7023Z" fill="white"/>
<path d="M46.6449 43.9153C47.3375 43.9153 47.904 44.4828 47.904 45.1875V68.6002C47.904 69.305 48.4617 69.8724 49.1632 69.8724H63.8415C64.5341 69.8724 65.1006 70.4399 65.1006 71.1538V75.8034C65.1006 76.5081 64.5431 77.0847 63.8415 77.0847H41.1585C40.4659 77.0847 39.8994 76.5173 39.8994 75.8034V45.1875C39.8994 44.4828 40.4569 43.9153 41.1585 43.9153H46.6628M46.6628 43H41.1585C39.9713 43 39 43.9794 39 45.1875V75.8034C39 77.0115 39.9623 78 41.1585 78H63.8415C65.0287 78 66 77.0207 66 75.8034V71.1538C66 69.9456 65.0377 68.9571 63.8415 68.9571H49.1632C48.9653 68.9571 48.8034 68.7924 48.8034 68.6002V45.1875C48.8034 43.9794 47.8411 43 46.6449 43H46.6628Z" fill="#629EFF"/>
<path d="M70.7165 44H76.2745C77.228 44 78 44.753 78 45.6832V75.3168C78 76.247 77.228 77 76.2745 77H70.7165C69.7629 77 69 76.247 69 75.3256V45.6921C69 44.7619 69.772 44.0089 70.7255 44.0089L70.7165 44Z" fill="white"/>
<path d="M76.8022 43.9153C77.5073 43.9153 78.0843 44.4828 78.0843 45.1875V75.8034C78.0843 76.5081 77.5165 77.0847 76.8022 77.0847H71.1978C70.4927 77.0847 69.9157 76.5173 69.9157 75.8034V45.1875C69.9157 44.4828 70.4835 43.9153 71.1978 43.9153H76.8022ZM76.8022 43H71.1978C69.989 43 69 43.9794 69 45.1875V75.8034C69 77.0115 69.9799 78 71.1978 78H76.8022C78.011 78 79 77.0207 79 75.8034V45.1875C79 43.9794 78.0201 43 76.8022 43Z" fill="#629EFF"/>
<path d="M84.7135 76.9823C83.7706 76.9823 83 76.2297 83 75.3089V45.6823C83 44.7615 83.7706 44 84.7135 44H108.286C109.229 44 110 44.7526 110 45.6823V50.0475C110 50.9684 109.229 51.7298 108.286 51.7298H92.7918C92.3475 51.7298 91.9758 52.084 91.9758 52.5178V56.0507C91.9758 56.4846 92.3384 56.8476 92.7918 56.8476H102.275C103.218 56.8476 103.998 57.6002 103.998 58.5299V62.6649C103.998 63.5857 103.227 64.3472 102.275 64.3472H92.7918C92.3475 64.3472 91.9758 64.7014 91.9758 65.1441V75.3265C91.9758 76.2474 91.2051 77 90.2622 77H84.7135V76.9823Z" fill="white"/>
<path d="M107.818 43.915C108.518 43.915 109.091 44.4824 109.091 45.1869V49.698C109.091 50.4026 108.527 50.97 107.818 50.97H92.2818C91.5818 50.97 91.009 51.5372 91.009 52.251V55.902C91.009 56.6066 91.5727 57.183 92.2818 57.183H101.8C102.5 57.183 103.064 57.7503 103.064 58.4549V62.7281C103.064 63.4327 102.5 64.0092 101.8 64.0092H92.2818C91.5818 64.0092 91.009 64.5765 91.009 65.2811V75.804C91.009 76.5085 90.4455 77.085 89.7364 77.085H84.1726C83.4726 77.085 82.9091 76.5177 82.9091 75.804V45.1961C82.9091 44.4915 83.4726 43.9242 84.1726 43.9242H107.809M107.809 43.0092H84.1726C82.9726 43.0092 82 43.9883 82 45.1961V75.804C82 77.0118 82.9726 78 84.1726 78H89.7364C90.9364 78 91.9181 77.0209 91.9181 75.804V65.2811C91.9181 65.0798 92.0818 64.9242 92.2818 64.9242H101.8C103 64.9242 103.973 63.9451 103.973 62.7281V58.4549C103.973 57.2471 103 56.268 101.8 56.268H92.2818C92.0818 56.268 91.9181 56.1033 91.9181 55.902V52.251C91.9181 52.0497 92.0818 51.885 92.2818 51.885H107.818C109.018 51.885 110 50.9059 110 49.698V45.1869C110 43.9791 109.027 43 107.818 43L107.809 43.0092Z" fill="#629EFF"/>
<path d="M114.714 76.9734C113.771 76.9734 113 76.221 113 75.3004V45.6819C113 44.7613 113.771 44 114.714 44H138.105C139.048 44 139.819 44.7524 139.819 45.6819V50.0459C139.819 50.9665 139.048 51.7278 138.105 51.7278H122.786C122.342 51.7278 121.97 52.0818 121.97 52.5155V55.8174C121.97 56.2511 122.333 56.614 122.786 56.614H132.046C132.989 56.614 133.769 57.3664 133.769 58.2959V62.4297C133.769 63.3503 132.998 64.1116 132.046 64.1116H122.786C122.342 64.1116 121.97 64.4656 121.97 64.9082V68.4845C121.97 68.9182 122.333 69.2811 122.786 69.2811H138.286C139.229 69.2811 140 70.0335 140 70.963V75.327C140 76.2476 139.229 77 138.286 77H114.705L114.714 76.9734Z" fill="white"/>
<path d="M137.721 43.915C138.396 43.915 138.939 44.4824 138.939 45.1869V49.698C138.939 50.4026 138.396 50.97 137.721 50.97H122.915C122.24 50.97 121.687 51.5372 121.687 52.251V55.6641C121.687 56.3687 122.231 56.9451 122.915 56.9451H131.865C132.54 56.9451 133.083 57.5124 133.083 58.217V62.4902C133.083 63.1948 132.54 63.7713 131.865 63.7713H122.915C122.24 63.7713 121.687 64.3386 121.687 65.0432V68.7399C121.687 69.4444 122.231 70.0118 122.915 70.0118H137.896C138.571 70.0118 139.123 70.5791 139.123 71.2928V75.804C139.123 76.5085 138.58 77.085 137.896 77.085H115.104C114.429 77.085 113.877 76.5177 113.877 75.804V45.1961C113.877 44.4915 114.42 43.9242 115.104 43.9242H137.712M137.712 43.0092H115.104C113.947 43.0092 113 43.9883 113 45.1961V75.804C113 77.0118 113.938 78 115.104 78H137.896C139.053 78 140 77.0209 140 75.804V71.2928C140 70.085 139.062 69.0968 137.896 69.0968H122.915C122.722 69.0968 122.564 68.932 122.564 68.7399V65.0432C122.564 64.8419 122.722 64.6863 122.915 64.6863H131.865C133.022 64.6863 133.96 63.7072 133.96 62.4902V58.217C133.96 57.0092 133.022 56.0301 131.865 56.0301H122.915C122.722 56.0301 122.564 55.8654 122.564 55.6641V52.251C122.564 52.0497 122.722 51.885 122.915 51.885H137.721C138.878 51.885 139.816 50.9059 139.816 49.698V45.1869C139.816 43.9791 138.878 43 137.721 43L137.712 43.0092Z" fill="#629EFF"/>
</svg>
