<svg width="289" height="37" viewBox="0 0 289 37" fill="none" xmlns="http://www.w3.org/2000/svg">
<g id="Group 162">
<g id="Group">
<g id="Vector">
<mask id="path-1-outside-1_0_1" maskUnits="userSpaceOnUse" x="0" y="0.0565186" width="30" height="35" fill="black">
<rect fill="white" y="0.0565186" width="30" height="35"/>
<path d="M14.7327 33.5763C12.1809 33.5763 9.6664 33.1086 7.17983 32.1733C5.09371 31.3877 3.19386 30.3495 1.48958 29.0589C0.949423 28.6473 0.837667 27.871 1.24744 27.3379L4.09722 23.6155C4.49768 23.0918 5.25203 22.9889 5.78287 23.391C7.33815 24.5695 8.80029 25.4487 10.1507 26.0098C11.7711 26.6832 13.494 27.0293 15.3194 27.0293C16.5208 27.0293 17.5359 26.9077 18.3741 26.6645C19.2122 26.4214 19.8548 26.066 20.3112 25.5983C20.7582 25.1307 20.9817 24.5789 20.9817 23.9522C20.9817 23.0824 20.6557 22.3996 19.9945 21.9227C19.3333 21.4457 18.2064 21.0622 16.6232 20.791L9.69434 19.5751C7.14257 19.1262 5.17753 18.1441 3.7992 16.6383C2.42088 15.1325 1.73172 13.2245 1.73172 10.905C1.73172 8.85677 2.25324 7.09844 3.28699 5.62069C4.32073 4.14295 5.8015 3.02061 7.73861 2.23497C9.67571 1.44934 11.976 1.05652 14.6395 1.05652C16.9771 1.05652 19.3333 1.45869 21.6988 2.25368C23.6359 2.90838 25.3681 3.76884 26.8768 4.83506C27.4263 5.22788 27.5567 5.99481 27.1655 6.54662L24.4741 10.3158C24.0922 10.8583 23.3472 10.9799 22.8071 10.6057C19.8921 8.57618 16.9864 7.55673 14.0994 7.55673C13.047 7.55673 12.1437 7.66896 11.38 7.89343C10.1972 8.23948 9.44289 8.81 9.11693 9.59564C9.07037 9.69852 9.05174 9.82011 9.03311 9.93234C8.93067 10.905 9.21006 11.6346 9.88991 12.1209C10.4766 12.5418 11.4266 12.8785 12.749 13.1123L19.2681 14.1972C22.2948 14.6836 24.5951 15.6843 26.169 17.2275C27.7429 18.7614 28.5346 20.7536 28.5346 23.1946C28.5346 25.3364 27.9758 27.1789 26.8675 28.7315C25.7593 30.2841 24.1668 31.4812 22.0993 32.323C20.0318 33.1647 17.5731 33.5856 14.7234 33.5856H14.7327V33.5763Z"/>
</mask>
<path d="M14.7327 33.5763C12.1809 33.5763 9.6664 33.1086 7.17983 32.1733C5.09371 31.3877 3.19386 30.3495 1.48958 29.0589C0.949423 28.6473 0.837667 27.871 1.24744 27.3379L4.09722 23.6155C4.49768 23.0918 5.25203 22.9889 5.78287 23.391C7.33815 24.5695 8.80029 25.4487 10.1507 26.0098C11.7711 26.6832 13.494 27.0293 15.3194 27.0293C16.5208 27.0293 17.5359 26.9077 18.3741 26.6645C19.2122 26.4214 19.8548 26.066 20.3112 25.5983C20.7582 25.1307 20.9817 24.5789 20.9817 23.9522C20.9817 23.0824 20.6557 22.3996 19.9945 21.9227C19.3333 21.4457 18.2064 21.0622 16.6232 20.791L9.69434 19.5751C7.14257 19.1262 5.17753 18.1441 3.7992 16.6383C2.42088 15.1325 1.73172 13.2245 1.73172 10.905C1.73172 8.85677 2.25324 7.09844 3.28699 5.62069C4.32073 4.14295 5.8015 3.02061 7.73861 2.23497C9.67571 1.44934 11.976 1.05652 14.6395 1.05652C16.9771 1.05652 19.3333 1.45869 21.6988 2.25368C23.6359 2.90838 25.3681 3.76884 26.8768 4.83506C27.4263 5.22788 27.5567 5.99481 27.1655 6.54662L24.4741 10.3158C24.0922 10.8583 23.3472 10.9799 22.8071 10.6057C19.8921 8.57618 16.9864 7.55673 14.0994 7.55673C13.047 7.55673 12.1437 7.66896 11.38 7.89343C10.1972 8.23948 9.44289 8.81 9.11693 9.59564C9.07037 9.69852 9.05174 9.82011 9.03311 9.93234C8.93067 10.905 9.21006 11.6346 9.88991 12.1209C10.4766 12.5418 11.4266 12.8785 12.749 13.1123L19.2681 14.1972C22.2948 14.6836 24.5951 15.6843 26.169 17.2275C27.7429 18.7614 28.5346 20.7536 28.5346 23.1946C28.5346 25.3364 27.9758 27.1789 26.8675 28.7315C25.7593 30.2841 24.1668 31.4812 22.0993 32.323C20.0318 33.1647 17.5731 33.5856 14.7234 33.5856H14.7327V33.5763Z" fill="#102870"/>
<path d="M14.7327 33.5763C12.1809 33.5763 9.6664 33.1086 7.17983 32.1733C5.09371 31.3877 3.19386 30.3495 1.48958 29.0589C0.949423 28.6473 0.837667 27.871 1.24744 27.3379L4.09722 23.6155C4.49768 23.0918 5.25203 22.9889 5.78287 23.391C7.33815 24.5695 8.80029 25.4487 10.1507 26.0098C11.7711 26.6832 13.494 27.0293 15.3194 27.0293C16.5208 27.0293 17.5359 26.9077 18.3741 26.6645C19.2122 26.4214 19.8548 26.066 20.3112 25.5983C20.7582 25.1307 20.9817 24.5789 20.9817 23.9522C20.9817 23.0824 20.6557 22.3996 19.9945 21.9227C19.3333 21.4457 18.2064 21.0622 16.6232 20.791L9.69434 19.5751C7.14257 19.1262 5.17753 18.1441 3.7992 16.6383C2.42088 15.1325 1.73172 13.2245 1.73172 10.905C1.73172 8.85677 2.25324 7.09844 3.28699 5.62069C4.32073 4.14295 5.8015 3.02061 7.73861 2.23497C9.67571 1.44934 11.976 1.05652 14.6395 1.05652C16.9771 1.05652 19.3333 1.45869 21.6988 2.25368C23.6359 2.90838 25.3681 3.76884 26.8768 4.83506C27.4263 5.22788 27.5567 5.99481 27.1655 6.54662L24.4741 10.3158C24.0922 10.8583 23.3472 10.9799 22.8071 10.6057C19.8921 8.57618 16.9864 7.55673 14.0994 7.55673C13.047 7.55673 12.1437 7.66896 11.38 7.89343C10.1972 8.23948 9.44289 8.81 9.11693 9.59564C9.07037 9.69852 9.05174 9.82011 9.03311 9.93234C8.93067 10.905 9.21006 11.6346 9.88991 12.1209C10.4766 12.5418 11.4266 12.8785 12.749 13.1123L19.2681 14.1972C22.2948 14.6836 24.5951 15.6843 26.169 17.2275C27.7429 18.7614 28.5346 20.7536 28.5346 23.1946C28.5346 25.3364 27.9758 27.1789 26.8675 28.7315C25.7593 30.2841 24.1668 31.4812 22.0993 32.323C20.0318 33.1647 17.5731 33.5856 14.7234 33.5856H14.7327V33.5763Z" stroke="#102870" mask="url(#path-1-outside-1_0_1)"/>
</g>
<g id="Vector_2">
<mask id="path-2-outside-2_0_1" maskUnits="userSpaceOnUse" x="29.9619" y="0.0181885" width="36" height="35" fill="black">
<rect fill="white" x="29.9619" y="0.0181885" width="36" height="35"/>
<path d="M47.7905 33.6221C45.425 33.6221 43.2178 33.2106 41.1783 32.3782C39.1387 31.5458 37.3506 30.386 35.8233 28.8989C34.296 27.4118 33.1039 25.6722 32.2471 23.7081C31.3903 21.7347 30.9619 19.6022 30.9619 17.3202C30.9619 15.0381 31.3903 12.8963 32.2471 10.9322C33.1039 8.95873 34.296 7.22846 35.8233 5.74136C37.3506 4.25426 39.1387 3.09451 41.1783 2.26211C43.2178 1.42971 45.425 1.01819 47.7905 1.01819C50.156 1.01819 52.3632 1.42971 54.4028 2.26211C56.4423 3.09451 58.2304 4.25426 59.7577 5.74136C61.2851 7.22846 62.4771 8.96808 63.3339 10.9322C64.1907 12.9056 64.6191 15.0381 64.6191 17.3202C64.6191 19.6022 64.1907 21.744 63.3339 23.7081C62.4771 25.6816 61.2851 27.4118 59.7577 28.8989C58.2304 30.386 56.4423 31.5458 54.4028 32.3782C52.3632 33.2106 50.156 33.6221 47.7905 33.6221ZM47.7905 26.4859C49.0478 26.4859 50.2212 26.2521 51.3015 25.7845C52.3818 25.3168 53.3224 24.6808 54.1141 23.8671C54.9057 23.0534 55.5296 22.0807 55.9767 20.949C56.4237 19.8174 56.6472 18.6108 56.6472 17.3108C56.6472 16.0108 56.4237 14.7668 55.9767 13.6538C55.5296 12.5409 54.9057 11.5775 54.1141 10.7638C53.3224 9.95013 52.3818 9.31414 51.3015 8.8465C50.2212 8.37886 49.0478 8.14504 47.7905 8.14504C46.5333 8.14504 45.3598 8.37886 44.2795 8.8465C43.1992 9.31414 42.2586 9.95013 41.467 10.7638C40.6754 11.5775 40.0514 12.5409 39.6044 13.6538C39.1574 14.7668 38.9339 15.9733 38.9339 17.264C38.9339 18.5547 39.1574 19.8174 39.6044 20.949C40.0514 22.0807 40.6754 23.0534 41.467 23.8671C42.2586 24.6808 43.1992 25.3168 44.2795 25.7845C45.3598 26.2521 46.5333 26.4859 47.7905 26.4859Z"/>
</mask>
<path d="M47.7905 33.6221C45.425 33.6221 43.2178 33.2106 41.1783 32.3782C39.1387 31.5458 37.3506 30.386 35.8233 28.8989C34.296 27.4118 33.1039 25.6722 32.2471 23.7081C31.3903 21.7347 30.9619 19.6022 30.9619 17.3202C30.9619 15.0381 31.3903 12.8963 32.2471 10.9322C33.1039 8.95873 34.296 7.22846 35.8233 5.74136C37.3506 4.25426 39.1387 3.09451 41.1783 2.26211C43.2178 1.42971 45.425 1.01819 47.7905 1.01819C50.156 1.01819 52.3632 1.42971 54.4028 2.26211C56.4423 3.09451 58.2304 4.25426 59.7577 5.74136C61.2851 7.22846 62.4771 8.96808 63.3339 10.9322C64.1907 12.9056 64.6191 15.0381 64.6191 17.3202C64.6191 19.6022 64.1907 21.744 63.3339 23.7081C62.4771 25.6816 61.2851 27.4118 59.7577 28.8989C58.2304 30.386 56.4423 31.5458 54.4028 32.3782C52.3632 33.2106 50.156 33.6221 47.7905 33.6221ZM47.7905 26.4859C49.0478 26.4859 50.2212 26.2521 51.3015 25.7845C52.3818 25.3168 53.3224 24.6808 54.1141 23.8671C54.9057 23.0534 55.5296 22.0807 55.9767 20.949C56.4237 19.8174 56.6472 18.6108 56.6472 17.3108C56.6472 16.0108 56.4237 14.7668 55.9767 13.6538C55.5296 12.5409 54.9057 11.5775 54.1141 10.7638C53.3224 9.95013 52.3818 9.31414 51.3015 8.8465C50.2212 8.37886 49.0478 8.14504 47.7905 8.14504C46.5333 8.14504 45.3598 8.37886 44.2795 8.8465C43.1992 9.31414 42.2586 9.95013 41.467 10.7638C40.6754 11.5775 40.0514 12.5409 39.6044 13.6538C39.1574 14.7668 38.9339 15.9733 38.9339 17.264C38.9339 18.5547 39.1574 19.8174 39.6044 20.949C40.0514 22.0807 40.6754 23.0534 41.467 23.8671C42.2586 24.6808 43.1992 25.3168 44.2795 25.7845C45.3598 26.2521 46.5333 26.4859 47.7905 26.4859Z" fill="#102870"/>
<path d="M47.7905 33.6221C45.425 33.6221 43.2178 33.2106 41.1783 32.3782C39.1387 31.5458 37.3506 30.386 35.8233 28.8989C34.296 27.4118 33.1039 25.6722 32.2471 23.7081C31.3903 21.7347 30.9619 19.6022 30.9619 17.3202C30.9619 15.0381 31.3903 12.8963 32.2471 10.9322C33.1039 8.95873 34.296 7.22846 35.8233 5.74136C37.3506 4.25426 39.1387 3.09451 41.1783 2.26211C43.2178 1.42971 45.425 1.01819 47.7905 1.01819C50.156 1.01819 52.3632 1.42971 54.4028 2.26211C56.4423 3.09451 58.2304 4.25426 59.7577 5.74136C61.2851 7.22846 62.4771 8.96808 63.3339 10.9322C64.1907 12.9056 64.6191 15.0381 64.6191 17.3202C64.6191 19.6022 64.1907 21.744 63.3339 23.7081C62.4771 25.6816 61.2851 27.4118 59.7577 28.8989C58.2304 30.386 56.4423 31.5458 54.4028 32.3782C52.3632 33.2106 50.156 33.6221 47.7905 33.6221ZM47.7905 26.4859C49.0478 26.4859 50.2212 26.2521 51.3015 25.7845C52.3818 25.3168 53.3224 24.6808 54.1141 23.8671C54.9057 23.0534 55.5296 22.0807 55.9767 20.949C56.4237 19.8174 56.6472 18.6108 56.6472 17.3108C56.6472 16.0108 56.4237 14.7668 55.9767 13.6538C55.5296 12.5409 54.9057 11.5775 54.1141 10.7638C53.3224 9.95013 52.3818 9.31414 51.3015 8.8465C50.2212 8.37886 49.0478 8.14504 47.7905 8.14504C46.5333 8.14504 45.3598 8.37886 44.2795 8.8465C43.1992 9.31414 42.2586 9.95013 41.467 10.7638C40.6754 11.5775 40.0514 12.5409 39.6044 13.6538C39.1574 14.7668 38.9339 15.9733 38.9339 17.264C38.9339 18.5547 39.1574 19.8174 39.6044 20.949C40.0514 22.0807 40.6754 23.0534 41.467 23.8671C42.2586 24.6808 43.1992 25.3168 44.2795 25.7845C45.3598 26.2521 46.5333 26.4859 47.7905 26.4859Z" stroke="#102870" mask="url(#path-2-outside-2_0_1)"/>
</g>
<g id="Vector_3">
<mask id="path-3-outside-3_0_1" maskUnits="userSpaceOnUse" x="66.5605" y="0.00012207" width="32" height="35" fill="black">
<rect fill="white" x="66.5605" y="0.00012207" width="32" height="35"/>
<path d="M84.473 33.576C82.0702 33.576 79.8444 33.1645 77.7955 32.3321C75.7374 31.4997 73.9493 30.3493 72.4219 28.8715C70.8946 27.3938 69.7025 25.6729 68.8457 23.6994C67.9889 21.726 67.5605 19.5935 67.5605 17.3114C67.5605 15.0293 67.9889 12.8501 68.8457 10.8767C69.7025 8.90325 70.9039 7.18234 72.4406 5.70459C73.9865 4.22684 75.7839 3.07645 77.8421 2.24405C79.9003 1.41165 82.1075 1.00012 84.473 1.00012C86.2145 1.00012 87.9188 1.25265 89.6044 1.76705C91.2808 2.28146 92.8361 2.99227 94.2609 3.90885C95.3319 4.60096 96.2726 5.39595 97.0828 6.28446C97.5205 6.77081 97.5019 7.51904 97.0362 7.97732L93.5345 11.4285C93.0503 11.9055 92.268 11.8774 91.8023 11.3818C90.9083 10.4371 89.949 9.69824 88.906 9.17448C87.5369 8.48238 86.0655 8.13632 84.473 8.13632C83.2157 8.13632 82.033 8.37014 80.9433 8.83778C79.8444 9.30542 78.8945 9.94142 78.0842 10.7551C77.274 11.5688 76.6407 12.5321 76.1937 13.6451C75.7467 14.7581 75.5232 15.9833 75.5232 17.3021C75.5232 18.6208 75.756 19.7899 76.2216 20.8936C76.6873 21.9972 77.3299 22.9605 78.1588 23.7836C78.9876 24.616 79.9562 25.252 81.083 25.7009C82.2099 26.1498 83.4299 26.3743 84.7524 26.3743C86.2797 26.3743 87.6953 26.047 88.9991 25.3829C89.977 24.8872 90.8803 24.2138 91.7092 23.3721C92.1841 22.8857 92.9478 22.867 93.4321 23.344L96.8034 26.6643C97.269 27.1225 97.297 27.8801 96.85 28.3665C96.049 29.2269 95.1177 30.0032 94.0654 30.6953C92.6591 31.6119 91.1225 32.3227 89.4741 32.8184C87.8257 33.3141 86.1586 33.5666 84.4823 33.5666H84.473V33.576Z"/>
</mask>
<path d="M84.473 33.576C82.0702 33.576 79.8444 33.1645 77.7955 32.3321C75.7374 31.4997 73.9493 30.3493 72.4219 28.8715C70.8946 27.3938 69.7025 25.6729 68.8457 23.6994C67.9889 21.726 67.5605 19.5935 67.5605 17.3114C67.5605 15.0293 67.9889 12.8501 68.8457 10.8767C69.7025 8.90325 70.9039 7.18234 72.4406 5.70459C73.9865 4.22684 75.7839 3.07645 77.8421 2.24405C79.9003 1.41165 82.1075 1.00012 84.473 1.00012C86.2145 1.00012 87.9188 1.25265 89.6044 1.76705C91.2808 2.28146 92.8361 2.99227 94.2609 3.90885C95.3319 4.60096 96.2726 5.39595 97.0828 6.28446C97.5205 6.77081 97.5019 7.51904 97.0362 7.97732L93.5345 11.4285C93.0503 11.9055 92.268 11.8774 91.8023 11.3818C90.9083 10.4371 89.949 9.69824 88.906 9.17448C87.5369 8.48238 86.0655 8.13632 84.473 8.13632C83.2157 8.13632 82.033 8.37014 80.9433 8.83778C79.8444 9.30542 78.8945 9.94142 78.0842 10.7551C77.274 11.5688 76.6407 12.5321 76.1937 13.6451C75.7467 14.7581 75.5232 15.9833 75.5232 17.3021C75.5232 18.6208 75.756 19.7899 76.2216 20.8936C76.6873 21.9972 77.3299 22.9605 78.1588 23.7836C78.9876 24.616 79.9562 25.252 81.083 25.7009C82.2099 26.1498 83.4299 26.3743 84.7524 26.3743C86.2797 26.3743 87.6953 26.047 88.9991 25.3829C89.977 24.8872 90.8803 24.2138 91.7092 23.3721C92.1841 22.8857 92.9478 22.867 93.4321 23.344L96.8034 26.6643C97.269 27.1225 97.297 27.8801 96.85 28.3665C96.049 29.2269 95.1177 30.0032 94.0654 30.6953C92.6591 31.6119 91.1225 32.3227 89.4741 32.8184C87.8257 33.3141 86.1586 33.5666 84.4823 33.5666H84.473V33.576Z" fill="#102870"/>
<path d="M84.473 33.576C82.0702 33.576 79.8444 33.1645 77.7955 32.3321C75.7374 31.4997 73.9493 30.3493 72.4219 28.8715C70.8946 27.3938 69.7025 25.6729 68.8457 23.6994C67.9889 21.726 67.5605 19.5935 67.5605 17.3114C67.5605 15.0293 67.9889 12.8501 68.8457 10.8767C69.7025 8.90325 70.9039 7.18234 72.4406 5.70459C73.9865 4.22684 75.7839 3.07645 77.8421 2.24405C79.9003 1.41165 82.1075 1.00012 84.473 1.00012C86.2145 1.00012 87.9188 1.25265 89.6044 1.76705C91.2808 2.28146 92.8361 2.99227 94.2609 3.90885C95.3319 4.60096 96.2726 5.39595 97.0828 6.28446C97.5205 6.77081 97.5019 7.51904 97.0362 7.97732L93.5345 11.4285C93.0503 11.9055 92.268 11.8774 91.8023 11.3818C90.9083 10.4371 89.949 9.69824 88.906 9.17448C87.5369 8.48238 86.0655 8.13632 84.473 8.13632C83.2157 8.13632 82.033 8.37014 80.9433 8.83778C79.8444 9.30542 78.8945 9.94142 78.0842 10.7551C77.274 11.5688 76.6407 12.5321 76.1937 13.6451C75.7467 14.7581 75.5232 15.9833 75.5232 17.3021C75.5232 18.6208 75.756 19.7899 76.2216 20.8936C76.6873 21.9972 77.3299 22.9605 78.1588 23.7836C78.9876 24.616 79.9562 25.252 81.083 25.7009C82.2099 26.1498 83.4299 26.3743 84.7524 26.3743C86.2797 26.3743 87.6953 26.047 88.9991 25.3829C89.977 24.8872 90.8803 24.2138 91.7092 23.3721C92.1841 22.8857 92.9478 22.867 93.4321 23.344L96.8034 26.6643C97.269 27.1225 97.297 27.8801 96.85 28.3665C96.049 29.2269 95.1177 30.0032 94.0654 30.6953C92.6591 31.6119 91.1225 32.3227 89.4741 32.8184C87.8257 33.3141 86.1586 33.5666 84.4823 33.5666H84.473V33.576Z" stroke="#102870" mask="url(#path-3-outside-3_0_1)"/>
</g>
<g id="Vector_4">
<mask id="path-4-outside-4_0_1" maskUnits="userSpaceOnUse" x="99.9355" y="0.505127" width="10" height="34" fill="black">
<rect fill="white" x="99.9355" y="0.505127" width="10" height="34"/>
<path d="M100.936 31.9111V2.72099C100.936 2.04759 101.476 1.50513 102.146 1.50513H107.464C108.135 1.50513 108.675 2.04759 108.675 2.72099V31.9111C108.675 32.5845 108.135 33.127 107.464 33.127H102.146C101.476 33.127 100.936 32.5845 100.936 31.9111Z"/>
</mask>
<path d="M100.936 31.9111V2.72099C100.936 2.04759 101.476 1.50513 102.146 1.50513H107.464C108.135 1.50513 108.675 2.04759 108.675 2.72099V31.9111C108.675 32.5845 108.135 33.127 107.464 33.127H102.146C101.476 33.127 100.936 32.5845 100.936 31.9111Z" fill="#102870"/>
<path d="M100.936 31.9111V2.72099C100.936 2.04759 101.476 1.50513 102.146 1.50513H107.464C108.135 1.50513 108.675 2.04759 108.675 2.72099V31.9111C108.675 32.5845 108.135 33.127 107.464 33.127H102.146C101.476 33.127 100.936 32.5845 100.936 31.9111Z" stroke="#102870" mask="url(#path-4-outside-4_0_1)"/>
</g>
<g id="Vector_5">
<mask id="path-5-outside-5_0_1" maskUnits="userSpaceOnUse" x="110.555" y="0.495605" width="35" height="34" fill="black">
<rect fill="white" x="110.555" y="0.495605" width="35" height="34"/>
<path d="M111.642 31.4433L123.562 2.25318C123.749 1.7949 124.196 1.49561 124.68 1.49561H131.907C132.4 1.49561 132.847 1.7949 133.034 2.25318L144.787 31.4433C145.113 32.2477 144.526 33.1175 143.66 33.1175H137.923C137.42 33.1175 136.964 32.8088 136.787 32.3318L134.505 26.2712C134.328 25.7942 133.872 25.4856 133.369 25.4856H122.761C122.258 25.4856 121.811 25.7942 121.634 26.2619L119.306 32.3318C119.129 32.7995 118.673 33.1081 118.179 33.1081H112.768C111.902 33.1081 111.316 32.229 111.651 31.434H111.642V31.4433ZM126.03 19.294H130.165C131.013 19.294 131.599 18.4429 131.301 17.6479L129.262 12.1765C128.871 11.129 127.399 11.1197 126.999 12.1765L124.903 17.6479C124.596 18.4429 125.183 19.3034 126.03 19.3034V19.294Z"/>
</mask>
<path d="M111.642 31.4433L123.562 2.25318C123.749 1.7949 124.196 1.49561 124.68 1.49561H131.907C132.4 1.49561 132.847 1.7949 133.034 2.25318L144.787 31.4433C145.113 32.2477 144.526 33.1175 143.66 33.1175H137.923C137.42 33.1175 136.964 32.8088 136.787 32.3318L134.505 26.2712C134.328 25.7942 133.872 25.4856 133.369 25.4856H122.761C122.258 25.4856 121.811 25.7942 121.634 26.2619L119.306 32.3318C119.129 32.7995 118.673 33.1081 118.179 33.1081H112.768C111.902 33.1081 111.316 32.229 111.651 31.434H111.642V31.4433ZM126.03 19.294H130.165C131.013 19.294 131.599 18.4429 131.301 17.6479L129.262 12.1765C128.871 11.129 127.399 11.1197 126.999 12.1765L124.903 17.6479C124.596 18.4429 125.183 19.3034 126.03 19.3034V19.294Z" fill="#102870"/>
<path d="M111.642 31.4433L123.562 2.25318C123.749 1.7949 124.196 1.49561 124.68 1.49561H131.907C132.4 1.49561 132.847 1.7949 133.034 2.25318L144.787 31.4433C145.113 32.2477 144.526 33.1175 143.66 33.1175H137.923C137.42 33.1175 136.964 32.8088 136.787 32.3318L134.505 26.2712C134.328 25.7942 133.872 25.4856 133.369 25.4856H122.761C122.258 25.4856 121.811 25.7942 121.634 26.2619L119.306 32.3318C119.129 32.7995 118.673 33.1081 118.179 33.1081H112.768C111.902 33.1081 111.316 32.229 111.651 31.434H111.642V31.4433ZM126.03 19.294H130.165C131.013 19.294 131.599 18.4429 131.301 17.6479L129.262 12.1765C128.871 11.129 127.399 11.1197 126.999 12.1765L124.903 17.6479C124.596 18.4429 125.183 19.3034 126.03 19.3034V19.294Z" stroke="#102870" mask="url(#path-5-outside-5_0_1)"/>
</g>
<g id="Vector_6">
<mask id="path-6-outside-6_0_1" maskUnits="userSpaceOnUse" x="146.774" y="0.505127" width="26" height="34" fill="black">
<rect fill="white" x="146.774" y="0.505127" width="26" height="34"/>
<path d="M147.774 31.9111V2.72099C147.774 2.04759 148.315 1.50513 148.985 1.50513H154.303C154.973 1.50513 155.514 2.04759 155.514 2.72099V25.0462C155.514 25.7196 156.054 26.262 156.724 26.262H170.899C171.569 26.262 172.109 26.8045 172.109 27.4779V31.9111C172.109 32.5845 171.569 33.127 170.899 33.127H148.985C148.315 33.127 147.774 32.5845 147.774 31.9111Z"/>
</mask>
<path d="M147.774 31.9111V2.72099C147.774 2.04759 148.315 1.50513 148.985 1.50513H154.303C154.973 1.50513 155.514 2.04759 155.514 2.72099V25.0462C155.514 25.7196 156.054 26.262 156.724 26.262H170.899C171.569 26.262 172.109 26.8045 172.109 27.4779V31.9111C172.109 32.5845 171.569 33.127 170.899 33.127H148.985C148.315 33.127 147.774 32.5845 147.774 31.9111Z" fill="#102870"/>
<path d="M147.774 31.9111V2.72099C147.774 2.04759 148.315 1.50513 148.985 1.50513H154.303C154.973 1.50513 155.514 2.04759 155.514 2.72099V25.0462C155.514 25.7196 156.054 26.262 156.724 26.262H170.899C171.569 26.262 172.109 26.8045 172.109 27.4779V31.9111C172.109 32.5845 171.569 33.127 170.899 33.127H148.985C148.315 33.127 147.774 32.5845 147.774 31.9111Z" stroke="#102870" mask="url(#path-6-outside-6_0_1)"/>
</g>
<g id="Vector_7">
<mask id="path-7-outside-7_0_1" maskUnits="userSpaceOnUse" x="190.579" y="0.477051" width="26" height="34" fill="black">
<rect fill="white" x="190.579" y="0.477051" width="26" height="34"/>
<path d="M191.579 31.8831V2.69292C191.579 2.01951 192.12 1.47705 192.79 1.47705H198.108C198.778 1.47705 199.318 2.01951 199.318 2.69292V25.0181C199.318 25.6915 199.859 26.234 200.529 26.234H214.704C215.374 26.234 215.914 26.7764 215.914 27.4498V31.8831C215.914 32.5565 215.374 33.0989 214.704 33.0989H192.79C192.12 33.0989 191.579 32.5565 191.579 31.8831Z"/>
</mask>
<path d="M191.579 31.8831V2.69292C191.579 2.01951 192.12 1.47705 192.79 1.47705H198.108C198.778 1.47705 199.318 2.01951 199.318 2.69292V25.0181C199.318 25.6915 199.859 26.234 200.529 26.234H214.704C215.374 26.234 215.914 26.7764 215.914 27.4498V31.8831C215.914 32.5565 215.374 33.0989 214.704 33.0989H192.79C192.12 33.0989 191.579 32.5565 191.579 31.8831Z" fill="#102870"/>
<path d="M191.579 31.8831V2.69292C191.579 2.01951 192.12 1.47705 192.79 1.47705H198.108C198.778 1.47705 199.318 2.01951 199.318 2.69292V25.0181C199.318 25.6915 199.859 26.234 200.529 26.234H214.704C215.374 26.234 215.914 26.7764 215.914 27.4498V31.8831C215.914 32.5565 215.374 33.0989 214.704 33.0989H192.79C192.12 33.0989 191.579 32.5565 191.579 31.8831Z" stroke="#102870" mask="url(#path-7-outside-7_0_1)"/>
</g>
<g id="Vector_8">
<mask id="path-8-outside-8_0_1" maskUnits="userSpaceOnUse" x="219.404" y="0.477051" width="10" height="34" fill="black">
<rect fill="white" x="219.404" y="0.477051" width="10" height="34"/>
<path d="M220.404 31.8831V2.69292C220.404 2.01951 220.944 1.47705 221.614 1.47705H226.932C227.603 1.47705 228.143 2.01951 228.143 2.69292V31.8831C228.143 32.5565 227.603 33.0989 226.932 33.0989H221.614C220.944 33.0989 220.404 32.5565 220.404 31.8831Z"/>
</mask>
<path d="M220.404 31.8831V2.69292C220.404 2.01951 220.944 1.47705 221.614 1.47705H226.932C227.603 1.47705 228.143 2.01951 228.143 2.69292V31.8831C228.143 32.5565 227.603 33.0989 226.932 33.0989H221.614C220.944 33.0989 220.404 32.5565 220.404 31.8831Z" fill="#102870"/>
<path d="M220.404 31.8831V2.69292C220.404 2.01951 220.944 1.47705 221.614 1.47705H226.932C227.603 1.47705 228.143 2.01951 228.143 2.69292V31.8831C228.143 32.5565 227.603 33.0989 226.932 33.0989H221.614C220.944 33.0989 220.404 32.5565 220.404 31.8831Z" stroke="#102870" mask="url(#path-8-outside-8_0_1)"/>
</g>
<g id="Vector_9">
<mask id="path-9-outside-9_0_1" maskUnits="userSpaceOnUse" x="232.299" y="0.477051" width="27" height="34" fill="black">
<rect fill="white" x="232.299" y="0.477051" width="27" height="34"/>
<path d="M233.308 31.8831V2.69292C233.308 2.01951 233.848 1.47705 234.519 1.47705H257.103C257.773 1.47705 258.313 2.01951 258.313 2.69292V6.98586C258.313 7.65926 257.773 8.20173 257.103 8.20173H242.248C241.578 8.20173 241.038 8.74419 241.038 9.41759V12.8968C241.038 13.5702 241.578 14.1127 242.248 14.1127H251.338C252.008 14.1127 252.549 14.6552 252.549 15.3286V19.397C252.549 20.0705 252.008 20.6129 251.338 20.6129H242.248C241.578 20.6129 241.038 21.1554 241.038 21.8288V31.8644C241.038 32.5378 240.498 33.0802 239.827 33.0802H234.509C233.839 33.0802 233.299 32.5378 233.299 31.8644V31.8831H233.308Z"/>
</mask>
<path d="M233.308 31.8831V2.69292C233.308 2.01951 233.848 1.47705 234.519 1.47705H257.103C257.773 1.47705 258.313 2.01951 258.313 2.69292V6.98586C258.313 7.65926 257.773 8.20173 257.103 8.20173H242.248C241.578 8.20173 241.038 8.74419 241.038 9.41759V12.8968C241.038 13.5702 241.578 14.1127 242.248 14.1127H251.338C252.008 14.1127 252.549 14.6552 252.549 15.3286V19.397C252.549 20.0705 252.008 20.6129 251.338 20.6129H242.248C241.578 20.6129 241.038 21.1554 241.038 21.8288V31.8644C241.038 32.5378 240.498 33.0802 239.827 33.0802H234.509C233.839 33.0802 233.299 32.5378 233.299 31.8644V31.8831H233.308Z" fill="#102870"/>
<path d="M233.308 31.8831V2.69292C233.308 2.01951 233.848 1.47705 234.519 1.47705H257.103C257.773 1.47705 258.313 2.01951 258.313 2.69292V6.98586C258.313 7.65926 257.773 8.20173 257.103 8.20173H242.248C241.578 8.20173 241.038 8.74419 241.038 9.41759V12.8968C241.038 13.5702 241.578 14.1127 242.248 14.1127H251.338C252.008 14.1127 252.549 14.6552 252.549 15.3286V19.397C252.549 20.0705 252.008 20.6129 251.338 20.6129H242.248C241.578 20.6129 241.038 21.1554 241.038 21.8288V31.8644C241.038 32.5378 240.498 33.0802 239.827 33.0802H234.509C233.839 33.0802 233.299 32.5378 233.299 31.8644V31.8831H233.308Z" stroke="#102870" mask="url(#path-9-outside-9_0_1)"/>
</g>
<g id="Vector_10">
<mask id="path-10-outside-10_0_1" maskUnits="userSpaceOnUse" x="261.691" y="0.477051" width="27" height="34" fill="black">
<rect fill="white" x="261.691" y="0.477051" width="27" height="34"/>
<path d="M262.691 31.8831V2.69292C262.691 2.01951 263.231 1.47705 263.902 1.47705H286.309C286.979 1.47705 287.519 2.01951 287.519 2.69292V6.98586C287.519 7.65927 286.979 8.20173 286.309 8.20173H271.641C270.97 8.20173 270.43 8.74419 270.43 9.41759V12.6724C270.43 13.3458 270.97 13.8882 271.641 13.8882H280.507C281.177 13.8882 281.717 14.4307 281.717 15.1041V19.1726C281.717 19.846 281.177 20.3885 280.507 20.3885H271.641C270.97 20.3885 270.43 20.9309 270.43 21.6043V25.1303C270.43 25.8037 270.97 26.3462 271.641 26.3462H286.495C287.166 26.3462 287.706 26.8887 287.706 27.5621V31.855C287.706 32.5284 287.166 33.0709 286.495 33.0709H263.911C263.24 33.0709 262.7 32.5284 262.7 31.855V31.8831H262.691Z"/>
</mask>
<path d="M262.691 31.8831V2.69292C262.691 2.01951 263.231 1.47705 263.902 1.47705H286.309C286.979 1.47705 287.519 2.01951 287.519 2.69292V6.98586C287.519 7.65927 286.979 8.20173 286.309 8.20173H271.641C270.97 8.20173 270.43 8.74419 270.43 9.41759V12.6724C270.43 13.3458 270.97 13.8882 271.641 13.8882H280.507C281.177 13.8882 281.717 14.4307 281.717 15.1041V19.1726C281.717 19.846 281.177 20.3885 280.507 20.3885H271.641C270.97 20.3885 270.43 20.9309 270.43 21.6043V25.1303C270.43 25.8037 270.97 26.3462 271.641 26.3462H286.495C287.166 26.3462 287.706 26.8887 287.706 27.5621V31.855C287.706 32.5284 287.166 33.0709 286.495 33.0709H263.911C263.24 33.0709 262.7 32.5284 262.7 31.855V31.8831H262.691Z" fill="#102870"/>
<path d="M262.691 31.8831V2.69292C262.691 2.01951 263.231 1.47705 263.902 1.47705H286.309C286.979 1.47705 287.519 2.01951 287.519 2.69292V6.98586C287.519 7.65927 286.979 8.20173 286.309 8.20173H271.641C270.97 8.20173 270.43 8.74419 270.43 9.41759V12.6724C270.43 13.3458 270.97 13.8882 271.641 13.8882H280.507C281.177 13.8882 281.717 14.4307 281.717 15.1041V19.1726C281.717 19.846 281.177 20.3885 280.507 20.3885H271.641C270.97 20.3885 270.43 20.9309 270.43 21.6043V25.1303C270.43 25.8037 270.97 26.3462 271.641 26.3462H286.495C287.166 26.3462 287.706 26.8887 287.706 27.5621V31.855C287.706 32.5284 287.166 33.0709 286.495 33.0709H263.911C263.24 33.0709 262.7 32.5284 262.7 31.855V31.8831H262.691Z" stroke="#102870" mask="url(#path-10-outside-10_0_1)"/>
</g>
</g>
<g id="Group_2">
<g id="Vector_11">
<mask id="path-11-outside-11_0_1" maskUnits="userSpaceOnUse" x="0" y="2.26318" width="30" height="35" fill="black">
<rect fill="white" y="2.26318" width="30" height="35"/>
<path d="M14.7327 35.7829C12.1809 35.7829 9.6664 35.3153 7.17983 34.38C5.09371 33.5944 3.19386 32.5562 1.48958 31.2655C0.949423 30.854 0.837667 30.0777 1.24744 29.5446L4.09722 25.8222C4.49768 25.2984 5.25203 25.1955 5.78287 25.5977C7.33815 26.7762 8.80029 27.6553 10.1507 28.2165C11.7711 28.8899 13.494 29.236 15.3194 29.236C16.5208 29.236 17.5359 29.1144 18.3741 28.8712C19.2122 28.628 19.8548 28.2726 20.3112 27.805C20.7582 27.3373 20.9817 26.7855 20.9817 26.1589C20.9817 25.2891 20.6557 24.6063 19.9945 24.1293C19.3333 23.6523 18.2064 23.2689 16.6232 22.9976L9.69434 21.7818C7.14257 21.3328 5.17753 20.3508 3.7992 18.845C2.42088 17.3392 1.73172 15.4312 1.73172 13.1117C1.73172 11.0634 2.25324 9.3051 3.28699 7.82736C4.32073 6.34961 5.8015 5.22728 7.73861 4.44164C9.67571 3.656 11.976 3.26318 14.6395 3.26318C16.9771 3.26318 19.3333 3.66535 21.6988 4.46034C23.6359 5.11504 25.3681 5.9755 26.8768 7.04172C27.4263 7.43454 27.5567 8.20147 27.1655 8.75329L24.4741 12.5225C24.0922 13.0649 23.3472 13.1865 22.8071 12.8124C19.8921 10.7828 16.9864 9.76339 14.0994 9.76339C13.047 9.76339 12.1437 9.87563 11.38 10.1001C10.1972 10.4461 9.44289 11.0167 9.11693 11.8023C9.07037 11.9052 9.05174 12.0268 9.03311 12.139C8.93067 13.1117 9.21006 13.8412 9.88991 14.3276C10.4766 14.7484 11.4266 15.0851 12.749 15.319L19.2681 16.4039C22.2948 16.8902 24.5951 17.891 26.169 19.4342C27.7429 20.9681 28.5346 22.9602 28.5346 25.4013C28.5346 27.5431 27.9758 29.3856 26.8675 30.9382C25.7593 32.4907 24.1668 33.6879 22.0993 34.5297C20.0318 35.3714 17.5731 35.7923 14.7234 35.7923H14.7327V35.7829Z"/>
</mask>
<path d="M14.7327 35.7829C12.1809 35.7829 9.6664 35.3153 7.17983 34.38C5.09371 33.5944 3.19386 32.5562 1.48958 31.2655C0.949423 30.854 0.837667 30.0777 1.24744 29.5446L4.09722 25.8222C4.49768 25.2984 5.25203 25.1955 5.78287 25.5977C7.33815 26.7762 8.80029 27.6553 10.1507 28.2165C11.7711 28.8899 13.494 29.236 15.3194 29.236C16.5208 29.236 17.5359 29.1144 18.3741 28.8712C19.2122 28.628 19.8548 28.2726 20.3112 27.805C20.7582 27.3373 20.9817 26.7855 20.9817 26.1589C20.9817 25.2891 20.6557 24.6063 19.9945 24.1293C19.3333 23.6523 18.2064 23.2689 16.6232 22.9976L9.69434 21.7818C7.14257 21.3328 5.17753 20.3508 3.7992 18.845C2.42088 17.3392 1.73172 15.4312 1.73172 13.1117C1.73172 11.0634 2.25324 9.3051 3.28699 7.82736C4.32073 6.34961 5.8015 5.22728 7.73861 4.44164C9.67571 3.656 11.976 3.26318 14.6395 3.26318C16.9771 3.26318 19.3333 3.66535 21.6988 4.46034C23.6359 5.11504 25.3681 5.9755 26.8768 7.04172C27.4263 7.43454 27.5567 8.20147 27.1655 8.75329L24.4741 12.5225C24.0922 13.0649 23.3472 13.1865 22.8071 12.8124C19.8921 10.7828 16.9864 9.76339 14.0994 9.76339C13.047 9.76339 12.1437 9.87563 11.38 10.1001C10.1972 10.4461 9.44289 11.0167 9.11693 11.8023C9.07037 11.9052 9.05174 12.0268 9.03311 12.139C8.93067 13.1117 9.21006 13.8412 9.88991 14.3276C10.4766 14.7484 11.4266 15.0851 12.749 15.319L19.2681 16.4039C22.2948 16.8902 24.5951 17.891 26.169 19.4342C27.7429 20.9681 28.5346 22.9602 28.5346 25.4013C28.5346 27.5431 27.9758 29.3856 26.8675 30.9382C25.7593 32.4907 24.1668 33.6879 22.0993 34.5297C20.0318 35.3714 17.5731 35.7923 14.7234 35.7923H14.7327V35.7829Z" fill="#629EFF"/>
<path d="M14.7327 35.7829C12.1809 35.7829 9.6664 35.3153 7.17983 34.38C5.09371 33.5944 3.19386 32.5562 1.48958 31.2655C0.949423 30.854 0.837667 30.0777 1.24744 29.5446L4.09722 25.8222C4.49768 25.2984 5.25203 25.1955 5.78287 25.5977C7.33815 26.7762 8.80029 27.6553 10.1507 28.2165C11.7711 28.8899 13.494 29.236 15.3194 29.236C16.5208 29.236 17.5359 29.1144 18.3741 28.8712C19.2122 28.628 19.8548 28.2726 20.3112 27.805C20.7582 27.3373 20.9817 26.7855 20.9817 26.1589C20.9817 25.2891 20.6557 24.6063 19.9945 24.1293C19.3333 23.6523 18.2064 23.2689 16.6232 22.9976L9.69434 21.7818C7.14257 21.3328 5.17753 20.3508 3.7992 18.845C2.42088 17.3392 1.73172 15.4312 1.73172 13.1117C1.73172 11.0634 2.25324 9.3051 3.28699 7.82736C4.32073 6.34961 5.8015 5.22728 7.73861 4.44164C9.67571 3.656 11.976 3.26318 14.6395 3.26318C16.9771 3.26318 19.3333 3.66535 21.6988 4.46034C23.6359 5.11504 25.3681 5.9755 26.8768 7.04172C27.4263 7.43454 27.5567 8.20147 27.1655 8.75329L24.4741 12.5225C24.0922 13.0649 23.3472 13.1865 22.8071 12.8124C19.8921 10.7828 16.9864 9.76339 14.0994 9.76339C13.047 9.76339 12.1437 9.87563 11.38 10.1001C10.1972 10.4461 9.44289 11.0167 9.11693 11.8023C9.07037 11.9052 9.05174 12.0268 9.03311 12.139C8.93067 13.1117 9.21006 13.8412 9.88991 14.3276C10.4766 14.7484 11.4266 15.0851 12.749 15.319L19.2681 16.4039C22.2948 16.8902 24.5951 17.891 26.169 19.4342C27.7429 20.9681 28.5346 22.9602 28.5346 25.4013C28.5346 27.5431 27.9758 29.3856 26.8675 30.9382C25.7593 32.4907 24.1668 33.6879 22.0993 34.5297C20.0318 35.3714 17.5731 35.7923 14.7234 35.7923H14.7327V35.7829Z" stroke="#102870" mask="url(#path-11-outside-11_0_1)"/>
</g>
<g id="Vector_12">
<mask id="path-12-outside-12_0_1" maskUnits="userSpaceOnUse" x="29.9619" y="2.22473" width="36" height="35" fill="black">
<rect fill="white" x="29.9619" y="2.22473" width="36" height="35"/>
<path d="M47.7905 35.8287C45.425 35.8287 43.2178 35.4171 41.1783 34.5847C39.1387 33.7523 37.3506 32.5926 35.8233 31.1055C34.296 29.6184 33.1039 27.8788 32.2471 25.9147C31.3903 23.9412 30.9619 21.8088 30.9619 19.5267C30.9619 17.2446 31.3903 15.1028 32.2471 13.1387C33.1039 11.1653 34.296 9.435 35.8233 7.94791C37.3506 6.46081 39.1387 5.30106 41.1783 4.46866C43.2178 3.63626 45.425 3.22473 47.7905 3.22473C50.156 3.22473 52.3632 3.63626 54.4028 4.46866C56.4423 5.30106 58.2304 6.46081 59.7577 7.94791C61.2851 9.435 62.4771 11.1746 63.3339 13.1387C64.1907 15.1122 64.6191 17.2446 64.6191 19.5267C64.6191 21.8088 64.1907 23.9506 63.3339 25.9147C62.4771 27.8881 61.2851 29.6184 59.7577 31.1055C58.2304 32.5926 56.4423 33.7523 54.4028 34.5847C52.3632 35.4171 50.156 35.8287 47.7905 35.8287ZM47.7905 28.6925C49.0478 28.6925 50.2212 28.4586 51.3015 27.991C52.3818 27.5234 53.3224 26.8874 54.1141 26.0737C54.9057 25.26 55.5296 24.2873 55.9767 23.1556C56.4237 22.0239 56.6472 20.8174 56.6472 19.5173C56.6472 18.2173 56.4237 16.9734 55.9767 15.8604C55.5296 14.7474 54.9057 13.7841 54.1141 12.9704C53.3224 12.1567 52.3818 11.5207 51.3015 11.053C50.2212 10.5854 49.0478 10.3516 47.7905 10.3516C46.5333 10.3516 45.3598 10.5854 44.2795 11.053C43.1992 11.5207 42.2586 12.1567 41.467 12.9704C40.6754 13.7841 40.0514 14.7474 39.6044 15.8604C39.1574 16.9734 38.9339 18.1799 38.9339 19.4706C38.9339 20.7613 39.1574 22.0239 39.6044 23.1556C40.0514 24.2873 40.6754 25.26 41.467 26.0737C42.2586 26.8874 43.1992 27.5234 44.2795 27.991C45.3598 28.4586 46.5333 28.6925 47.7905 28.6925Z"/>
</mask>
<path d="M47.7905 35.8287C45.425 35.8287 43.2178 35.4171 41.1783 34.5847C39.1387 33.7523 37.3506 32.5926 35.8233 31.1055C34.296 29.6184 33.1039 27.8788 32.2471 25.9147C31.3903 23.9412 30.9619 21.8088 30.9619 19.5267C30.9619 17.2446 31.3903 15.1028 32.2471 13.1387C33.1039 11.1653 34.296 9.435 35.8233 7.94791C37.3506 6.46081 39.1387 5.30106 41.1783 4.46866C43.2178 3.63626 45.425 3.22473 47.7905 3.22473C50.156 3.22473 52.3632 3.63626 54.4028 4.46866C56.4423 5.30106 58.2304 6.46081 59.7577 7.94791C61.2851 9.435 62.4771 11.1746 63.3339 13.1387C64.1907 15.1122 64.6191 17.2446 64.6191 19.5267C64.6191 21.8088 64.1907 23.9506 63.3339 25.9147C62.4771 27.8881 61.2851 29.6184 59.7577 31.1055C58.2304 32.5926 56.4423 33.7523 54.4028 34.5847C52.3632 35.4171 50.156 35.8287 47.7905 35.8287ZM47.7905 28.6925C49.0478 28.6925 50.2212 28.4586 51.3015 27.991C52.3818 27.5234 53.3224 26.8874 54.1141 26.0737C54.9057 25.26 55.5296 24.2873 55.9767 23.1556C56.4237 22.0239 56.6472 20.8174 56.6472 19.5173C56.6472 18.2173 56.4237 16.9734 55.9767 15.8604C55.5296 14.7474 54.9057 13.7841 54.1141 12.9704C53.3224 12.1567 52.3818 11.5207 51.3015 11.053C50.2212 10.5854 49.0478 10.3516 47.7905 10.3516C46.5333 10.3516 45.3598 10.5854 44.2795 11.053C43.1992 11.5207 42.2586 12.1567 41.467 12.9704C40.6754 13.7841 40.0514 14.7474 39.6044 15.8604C39.1574 16.9734 38.9339 18.1799 38.9339 19.4706C38.9339 20.7613 39.1574 22.0239 39.6044 23.1556C40.0514 24.2873 40.6754 25.26 41.467 26.0737C42.2586 26.8874 43.1992 27.5234 44.2795 27.991C45.3598 28.4586 46.5333 28.6925 47.7905 28.6925Z" fill="#629EFF"/>
<path d="M47.7905 35.8287C45.425 35.8287 43.2178 35.4171 41.1783 34.5847C39.1387 33.7523 37.3506 32.5926 35.8233 31.1055C34.296 29.6184 33.1039 27.8788 32.2471 25.9147C31.3903 23.9412 30.9619 21.8088 30.9619 19.5267C30.9619 17.2446 31.3903 15.1028 32.2471 13.1387C33.1039 11.1653 34.296 9.435 35.8233 7.94791C37.3506 6.46081 39.1387 5.30106 41.1783 4.46866C43.2178 3.63626 45.425 3.22473 47.7905 3.22473C50.156 3.22473 52.3632 3.63626 54.4028 4.46866C56.4423 5.30106 58.2304 6.46081 59.7577 7.94791C61.2851 9.435 62.4771 11.1746 63.3339 13.1387C64.1907 15.1122 64.6191 17.2446 64.6191 19.5267C64.6191 21.8088 64.1907 23.9506 63.3339 25.9147C62.4771 27.8881 61.2851 29.6184 59.7577 31.1055C58.2304 32.5926 56.4423 33.7523 54.4028 34.5847C52.3632 35.4171 50.156 35.8287 47.7905 35.8287ZM47.7905 28.6925C49.0478 28.6925 50.2212 28.4586 51.3015 27.991C52.3818 27.5234 53.3224 26.8874 54.1141 26.0737C54.9057 25.26 55.5296 24.2873 55.9767 23.1556C56.4237 22.0239 56.6472 20.8174 56.6472 19.5173C56.6472 18.2173 56.4237 16.9734 55.9767 15.8604C55.5296 14.7474 54.9057 13.7841 54.1141 12.9704C53.3224 12.1567 52.3818 11.5207 51.3015 11.053C50.2212 10.5854 49.0478 10.3516 47.7905 10.3516C46.5333 10.3516 45.3598 10.5854 44.2795 11.053C43.1992 11.5207 42.2586 12.1567 41.467 12.9704C40.6754 13.7841 40.0514 14.7474 39.6044 15.8604C39.1574 16.9734 38.9339 18.1799 38.9339 19.4706C38.9339 20.7613 39.1574 22.0239 39.6044 23.1556C40.0514 24.2873 40.6754 25.26 41.467 26.0737C42.2586 26.8874 43.1992 27.5234 44.2795 27.991C45.3598 28.4586 46.5333 28.6925 47.7905 28.6925Z" stroke="#102870" mask="url(#path-12-outside-12_0_1)"/>
</g>
<g id="Vector_13">
<mask id="path-13-outside-13_0_1" maskUnits="userSpaceOnUse" x="66.5605" y="2.20618" width="32" height="35" fill="black">
<rect fill="white" x="66.5605" y="2.20618" width="32" height="35"/>
<path d="M84.473 35.782C82.0702 35.782 79.8444 35.3705 77.7955 34.5381C75.7374 33.7057 73.9493 32.5553 72.4219 31.0776C70.8946 29.5998 69.7025 27.8789 68.8457 25.9055C67.9889 23.932 67.5605 21.7996 67.5605 19.5175C67.5605 17.2354 67.9889 15.0562 68.8457 13.0828C69.7025 11.1093 70.9039 9.38839 72.4406 7.91064C73.9865 6.4329 75.7839 5.2825 77.8421 4.4501C79.9003 3.6177 82.1075 3.20618 84.473 3.20618C86.2145 3.20618 87.9188 3.4587 89.6044 3.97311C91.2808 4.48751 92.8361 5.19833 94.2609 6.1149C95.3319 6.80701 96.2726 7.602 97.0828 8.49052C97.5205 8.97687 97.5019 9.72509 97.0362 10.1834L93.5345 13.6346C93.0503 14.1116 92.268 14.0835 91.8023 13.5878C90.9083 12.6432 89.949 11.9043 88.906 11.3805C87.5369 10.6884 86.0655 10.3424 84.473 10.3424C83.2157 10.3424 82.033 10.5762 80.9433 11.0438C79.8444 11.5115 78.8945 12.1475 78.0842 12.9612C77.274 13.7749 76.6407 14.7382 76.1937 15.8512C75.7467 16.9642 75.5232 18.1894 75.5232 19.5081C75.5232 20.8269 75.756 21.996 76.2216 23.0996C76.6873 24.2033 77.3299 25.1666 78.1588 25.9896C78.9876 26.822 79.9562 27.458 81.083 27.907C82.2099 28.3559 83.4299 28.5804 84.7524 28.5804C86.2797 28.5804 87.6953 28.253 88.9991 27.589C89.977 27.0933 90.8803 26.4199 91.7092 25.5781C92.1841 25.0918 92.9478 25.0731 93.4321 25.5501L96.8034 28.8703C97.269 29.3286 97.297 30.0862 96.85 30.5725C96.049 31.433 95.1177 32.2093 94.0654 32.9014C92.6591 33.818 91.1225 34.5288 89.4741 35.0245C87.8257 35.5202 86.1586 35.7727 84.4823 35.7727H84.473V35.782Z"/>
</mask>
<path d="M84.473 35.782C82.0702 35.782 79.8444 35.3705 77.7955 34.5381C75.7374 33.7057 73.9493 32.5553 72.4219 31.0776C70.8946 29.5998 69.7025 27.8789 68.8457 25.9055C67.9889 23.932 67.5605 21.7996 67.5605 19.5175C67.5605 17.2354 67.9889 15.0562 68.8457 13.0828C69.7025 11.1093 70.9039 9.38839 72.4406 7.91064C73.9865 6.4329 75.7839 5.2825 77.8421 4.4501C79.9003 3.6177 82.1075 3.20618 84.473 3.20618C86.2145 3.20618 87.9188 3.4587 89.6044 3.97311C91.2808 4.48751 92.8361 5.19833 94.2609 6.1149C95.3319 6.80701 96.2726 7.602 97.0828 8.49052C97.5205 8.97687 97.5019 9.72509 97.0362 10.1834L93.5345 13.6346C93.0503 14.1116 92.268 14.0835 91.8023 13.5878C90.9083 12.6432 89.949 11.9043 88.906 11.3805C87.5369 10.6884 86.0655 10.3424 84.473 10.3424C83.2157 10.3424 82.033 10.5762 80.9433 11.0438C79.8444 11.5115 78.8945 12.1475 78.0842 12.9612C77.274 13.7749 76.6407 14.7382 76.1937 15.8512C75.7467 16.9642 75.5232 18.1894 75.5232 19.5081C75.5232 20.8269 75.756 21.996 76.2216 23.0996C76.6873 24.2033 77.3299 25.1666 78.1588 25.9896C78.9876 26.822 79.9562 27.458 81.083 27.907C82.2099 28.3559 83.4299 28.5804 84.7524 28.5804C86.2797 28.5804 87.6953 28.253 88.9991 27.589C89.977 27.0933 90.8803 26.4199 91.7092 25.5781C92.1841 25.0918 92.9478 25.0731 93.4321 25.5501L96.8034 28.8703C97.269 29.3286 97.297 30.0862 96.85 30.5725C96.049 31.433 95.1177 32.2093 94.0654 32.9014C92.6591 33.818 91.1225 34.5288 89.4741 35.0245C87.8257 35.5202 86.1586 35.7727 84.4823 35.7727H84.473V35.782Z" fill="#629EFF"/>
<path d="M84.473 35.782C82.0702 35.782 79.8444 35.3705 77.7955 34.5381C75.7374 33.7057 73.9493 32.5553 72.4219 31.0776C70.8946 29.5998 69.7025 27.8789 68.8457 25.9055C67.9889 23.932 67.5605 21.7996 67.5605 19.5175C67.5605 17.2354 67.9889 15.0562 68.8457 13.0828C69.7025 11.1093 70.9039 9.38839 72.4406 7.91064C73.9865 6.4329 75.7839 5.2825 77.8421 4.4501C79.9003 3.6177 82.1075 3.20618 84.473 3.20618C86.2145 3.20618 87.9188 3.4587 89.6044 3.97311C91.2808 4.48751 92.8361 5.19833 94.2609 6.1149C95.3319 6.80701 96.2726 7.602 97.0828 8.49052C97.5205 8.97687 97.5019 9.72509 97.0362 10.1834L93.5345 13.6346C93.0503 14.1116 92.268 14.0835 91.8023 13.5878C90.9083 12.6432 89.949 11.9043 88.906 11.3805C87.5369 10.6884 86.0655 10.3424 84.473 10.3424C83.2157 10.3424 82.033 10.5762 80.9433 11.0438C79.8444 11.5115 78.8945 12.1475 78.0842 12.9612C77.274 13.7749 76.6407 14.7382 76.1937 15.8512C75.7467 16.9642 75.5232 18.1894 75.5232 19.5081C75.5232 20.8269 75.756 21.996 76.2216 23.0996C76.6873 24.2033 77.3299 25.1666 78.1588 25.9896C78.9876 26.822 79.9562 27.458 81.083 27.907C82.2099 28.3559 83.4299 28.5804 84.7524 28.5804C86.2797 28.5804 87.6953 28.253 88.9991 27.589C89.977 27.0933 90.8803 26.4199 91.7092 25.5781C92.1841 25.0918 92.9478 25.0731 93.4321 25.5501L96.8034 28.8703C97.269 29.3286 97.297 30.0862 96.85 30.5725C96.049 31.433 95.1177 32.2093 94.0654 32.9014C92.6591 33.818 91.1225 34.5288 89.4741 35.0245C87.8257 35.5202 86.1586 35.7727 84.4823 35.7727H84.473V35.782Z" stroke="#102870" mask="url(#path-13-outside-13_0_1)"/>
</g>
<g id="Vector_14">
<mask id="path-14-outside-14_0_1" maskUnits="userSpaceOnUse" x="99.9355" y="2.71143" width="10" height="34" fill="black">
<rect fill="white" x="99.9355" y="2.71143" width="10" height="34"/>
<path d="M100.936 34.1174V4.92729C100.936 4.25389 101.476 3.71143 102.146 3.71143H107.464C108.135 3.71143 108.675 4.25389 108.675 4.92729V34.1174C108.675 34.7908 108.135 35.3333 107.464 35.3333H102.146C101.476 35.3333 100.936 34.7908 100.936 34.1174Z"/>
</mask>
<path d="M100.936 34.1174V4.92729C100.936 4.25389 101.476 3.71143 102.146 3.71143H107.464C108.135 3.71143 108.675 4.25389 108.675 4.92729V34.1174C108.675 34.7908 108.135 35.3333 107.464 35.3333H102.146C101.476 35.3333 100.936 34.7908 100.936 34.1174Z" fill="#629EFF"/>
<path d="M100.936 34.1174V4.92729C100.936 4.25389 101.476 3.71143 102.146 3.71143H107.464C108.135 3.71143 108.675 4.25389 108.675 4.92729V34.1174C108.675 34.7908 108.135 35.3333 107.464 35.3333H102.146C101.476 35.3333 100.936 34.7908 100.936 34.1174Z" stroke="#102870" mask="url(#path-14-outside-14_0_1)"/>
</g>
<g id="Vector_15">
<mask id="path-15-outside-15_0_1" maskUnits="userSpaceOnUse" x="110.555" y="2.70215" width="35" height="34" fill="black">
<rect fill="white" x="110.555" y="2.70215" width="35" height="34"/>
<path d="M111.642 33.6499L123.562 4.45973C123.749 4.00144 124.196 3.70215 124.68 3.70215H131.907C132.4 3.70215 132.847 4.00144 133.034 4.45973L144.787 33.6499C145.113 34.4542 144.526 35.324 143.66 35.324H137.923C137.42 35.324 136.964 35.0154 136.787 34.5384L134.505 28.4778C134.328 28.0008 133.872 27.6921 133.369 27.6921H122.761C122.258 27.6921 121.811 28.0008 121.634 28.4684L119.306 34.5384C119.129 35.006 118.673 35.3147 118.179 35.3147H112.768C111.902 35.3147 111.316 34.4355 111.651 33.6405H111.642V33.6499ZM126.03 21.5006H130.165C131.013 21.5006 131.599 20.6495 131.301 19.8545L129.262 14.3831C128.871 13.3356 127.399 13.3262 126.999 14.3831L124.903 19.8545C124.596 20.6495 125.183 21.5099 126.03 21.5099V21.5006Z"/>
</mask>
<path d="M111.642 33.6499L123.562 4.45973C123.749 4.00144 124.196 3.70215 124.68 3.70215H131.907C132.4 3.70215 132.847 4.00144 133.034 4.45973L144.787 33.6499C145.113 34.4542 144.526 35.324 143.66 35.324H137.923C137.42 35.324 136.964 35.0154 136.787 34.5384L134.505 28.4778C134.328 28.0008 133.872 27.6921 133.369 27.6921H122.761C122.258 27.6921 121.811 28.0008 121.634 28.4684L119.306 34.5384C119.129 35.006 118.673 35.3147 118.179 35.3147H112.768C111.902 35.3147 111.316 34.4355 111.651 33.6405H111.642V33.6499ZM126.03 21.5006H130.165C131.013 21.5006 131.599 20.6495 131.301 19.8545L129.262 14.3831C128.871 13.3356 127.399 13.3262 126.999 14.3831L124.903 19.8545C124.596 20.6495 125.183 21.5099 126.03 21.5099V21.5006Z" fill="#629EFF"/>
<path d="M111.642 33.6499L123.562 4.45973C123.749 4.00144 124.196 3.70215 124.68 3.70215H131.907C132.4 3.70215 132.847 4.00144 133.034 4.45973L144.787 33.6499C145.113 34.4542 144.526 35.324 143.66 35.324H137.923C137.42 35.324 136.964 35.0154 136.787 34.5384L134.505 28.4778C134.328 28.0008 133.872 27.6921 133.369 27.6921H122.761C122.258 27.6921 121.811 28.0008 121.634 28.4684L119.306 34.5384C119.129 35.006 118.673 35.3147 118.179 35.3147H112.768C111.902 35.3147 111.316 34.4355 111.651 33.6405H111.642V33.6499ZM126.03 21.5006H130.165C131.013 21.5006 131.599 20.6495 131.301 19.8545L129.262 14.3831C128.871 13.3356 127.399 13.3262 126.999 14.3831L124.903 19.8545C124.596 20.6495 125.183 21.5099 126.03 21.5099V21.5006Z" stroke="#102870" mask="url(#path-15-outside-15_0_1)"/>
</g>
<g id="Vector_16">
<mask id="path-16-outside-16_0_1" maskUnits="userSpaceOnUse" x="146.774" y="2.71143" width="26" height="34" fill="black">
<rect fill="white" x="146.774" y="2.71143" width="26" height="34"/>
<path d="M147.774 34.1174V4.92729C147.774 4.25389 148.315 3.71143 148.985 3.71143H154.303C154.973 3.71143 155.514 4.25389 155.514 4.92729V27.2525C155.514 27.9259 156.054 28.4683 156.724 28.4683H170.899C171.569 28.4683 172.109 29.0108 172.109 29.6842V34.1174C172.109 34.7908 171.569 35.3333 170.899 35.3333H148.985C148.315 35.3333 147.774 34.7908 147.774 34.1174Z"/>
</mask>
<path d="M147.774 34.1174V4.92729C147.774 4.25389 148.315 3.71143 148.985 3.71143H154.303C154.973 3.71143 155.514 4.25389 155.514 4.92729V27.2525C155.514 27.9259 156.054 28.4683 156.724 28.4683H170.899C171.569 28.4683 172.109 29.0108 172.109 29.6842V34.1174C172.109 34.7908 171.569 35.3333 170.899 35.3333H148.985C148.315 35.3333 147.774 34.7908 147.774 34.1174Z" fill="#629EFF"/>
<path d="M147.774 34.1174V4.92729C147.774 4.25389 148.315 3.71143 148.985 3.71143H154.303C154.973 3.71143 155.514 4.25389 155.514 4.92729V27.2525C155.514 27.9259 156.054 28.4683 156.724 28.4683H170.899C171.569 28.4683 172.109 29.0108 172.109 29.6842V34.1174C172.109 34.7908 171.569 35.3333 170.899 35.3333H148.985C148.315 35.3333 147.774 34.7908 147.774 34.1174Z" stroke="#102870" mask="url(#path-16-outside-16_0_1)"/>
</g>
<g id="Vector_17">
<mask id="path-17-outside-17_0_1" maskUnits="userSpaceOnUse" x="190.579" y="2.68359" width="26" height="34" fill="black">
<rect fill="white" x="190.579" y="2.68359" width="26" height="34"/>
<path d="M191.579 34.0896V4.89946C191.579 4.22606 192.12 3.68359 192.79 3.68359H198.108C198.778 3.68359 199.318 4.22606 199.318 4.89946V27.2246C199.318 27.898 199.859 28.4405 200.529 28.4405H214.704C215.374 28.4405 215.914 28.983 215.914 29.6564V34.0896C215.914 34.763 215.374 35.3055 214.704 35.3055H192.79C192.12 35.3055 191.579 34.763 191.579 34.0896Z"/>
</mask>
<path d="M191.579 34.0896V4.89946C191.579 4.22606 192.12 3.68359 192.79 3.68359H198.108C198.778 3.68359 199.318 4.22606 199.318 4.89946V27.2246C199.318 27.898 199.859 28.4405 200.529 28.4405H214.704C215.374 28.4405 215.914 28.983 215.914 29.6564V34.0896C215.914 34.763 215.374 35.3055 214.704 35.3055H192.79C192.12 35.3055 191.579 34.763 191.579 34.0896Z" fill="#629EFF"/>
<path d="M191.579 34.0896V4.89946C191.579 4.22606 192.12 3.68359 192.79 3.68359H198.108C198.778 3.68359 199.318 4.22606 199.318 4.89946V27.2246C199.318 27.898 199.859 28.4405 200.529 28.4405H214.704C215.374 28.4405 215.914 28.983 215.914 29.6564V34.0896C215.914 34.763 215.374 35.3055 214.704 35.3055H192.79C192.12 35.3055 191.579 34.763 191.579 34.0896Z" stroke="#102870" mask="url(#path-17-outside-17_0_1)"/>
</g>
<g id="Vector_18">
<mask id="path-18-outside-18_0_1" maskUnits="userSpaceOnUse" x="219.404" y="2.68359" width="10" height="34" fill="black">
<rect fill="white" x="219.404" y="2.68359" width="10" height="34"/>
<path d="M220.404 34.0896V4.89946C220.404 4.22606 220.944 3.68359 221.614 3.68359H226.932C227.603 3.68359 228.143 4.22606 228.143 4.89946V34.0896C228.143 34.763 227.603 35.3055 226.932 35.3055H221.614C220.944 35.3055 220.404 34.763 220.404 34.0896Z"/>
</mask>
<path d="M220.404 34.0896V4.89946C220.404 4.22606 220.944 3.68359 221.614 3.68359H226.932C227.603 3.68359 228.143 4.22606 228.143 4.89946V34.0896C228.143 34.763 227.603 35.3055 226.932 35.3055H221.614C220.944 35.3055 220.404 34.763 220.404 34.0896Z" fill="#629EFF"/>
<path d="M220.404 34.0896V4.89946C220.404 4.22606 220.944 3.68359 221.614 3.68359H226.932C227.603 3.68359 228.143 4.22606 228.143 4.89946V34.0896C228.143 34.763 227.603 35.3055 226.932 35.3055H221.614C220.944 35.3055 220.404 34.763 220.404 34.0896Z" stroke="#102870" mask="url(#path-18-outside-18_0_1)"/>
</g>
<g id="Vector_19">
<mask id="path-19-outside-19_0_1" maskUnits="userSpaceOnUse" x="232.299" y="2.68359" width="27" height="34" fill="black">
<rect fill="white" x="232.299" y="2.68359" width="27" height="34"/>
<path d="M233.308 34.0896V4.89946C233.308 4.22606 233.848 3.68359 234.519 3.68359H257.103C257.773 3.68359 258.313 4.22606 258.313 4.89946V9.1924C258.313 9.86581 257.773 10.4083 257.103 10.4083H242.248C241.578 10.4083 241.038 10.9507 241.038 11.6241V15.1034C241.038 15.7768 241.578 16.3193 242.248 16.3193H251.338C252.008 16.3193 252.549 16.8617 252.549 17.5351V21.6036C252.549 22.277 252.008 22.8195 251.338 22.8195H242.248C241.578 22.8195 241.038 23.3619 241.038 24.0353V34.0709C241.038 34.7443 240.498 35.2868 239.827 35.2868H234.509C233.839 35.2868 233.299 34.7443 233.299 34.0709V34.0896H233.308Z"/>
</mask>
<path d="M233.308 34.0896V4.89946C233.308 4.22606 233.848 3.68359 234.519 3.68359H257.103C257.773 3.68359 258.313 4.22606 258.313 4.89946V9.1924C258.313 9.86581 257.773 10.4083 257.103 10.4083H242.248C241.578 10.4083 241.038 10.9507 241.038 11.6241V15.1034C241.038 15.7768 241.578 16.3193 242.248 16.3193H251.338C252.008 16.3193 252.549 16.8617 252.549 17.5351V21.6036C252.549 22.277 252.008 22.8195 251.338 22.8195H242.248C241.578 22.8195 241.038 23.3619 241.038 24.0353V34.0709C241.038 34.7443 240.498 35.2868 239.827 35.2868H234.509C233.839 35.2868 233.299 34.7443 233.299 34.0709V34.0896H233.308Z" fill="#629EFF"/>
<path d="M233.308 34.0896V4.89946C233.308 4.22606 233.848 3.68359 234.519 3.68359H257.103C257.773 3.68359 258.313 4.22606 258.313 4.89946V9.1924C258.313 9.86581 257.773 10.4083 257.103 10.4083H242.248C241.578 10.4083 241.038 10.9507 241.038 11.6241V15.1034C241.038 15.7768 241.578 16.3193 242.248 16.3193H251.338C252.008 16.3193 252.549 16.8617 252.549 17.5351V21.6036C252.549 22.277 252.008 22.8195 251.338 22.8195H242.248C241.578 22.8195 241.038 23.3619 241.038 24.0353V34.0709C241.038 34.7443 240.498 35.2868 239.827 35.2868H234.509C233.839 35.2868 233.299 34.7443 233.299 34.0709V34.0896H233.308Z" stroke="#102870" mask="url(#path-19-outside-19_0_1)"/>
</g>
<g id="Vector_20">
<mask id="path-20-outside-20_0_1" maskUnits="userSpaceOnUse" x="261.691" y="2.68359" width="27" height="34" fill="black">
<rect fill="white" x="261.691" y="2.68359" width="27" height="34"/>
<path d="M262.691 34.0896V4.89946C262.691 4.22606 263.231 3.68359 263.902 3.68359H286.309C286.979 3.68359 287.519 4.22606 287.519 4.89946V9.19241C287.519 9.86581 286.979 10.4083 286.309 10.4083H271.641C270.97 10.4083 270.43 10.9507 270.43 11.6241V14.8789C270.43 15.5523 270.97 16.0948 271.641 16.0948H280.507C281.177 16.0948 281.717 16.6372 281.717 17.3107V21.3791C281.717 22.0525 281.177 22.595 280.507 22.595H271.641C270.97 22.595 270.43 23.1375 270.43 23.8109V27.3369C270.43 28.0103 270.97 28.5527 271.641 28.5527H286.495C287.166 28.5527 287.706 29.0952 287.706 29.7686V34.0616C287.706 34.735 287.166 35.2774 286.495 35.2774H263.911C263.24 35.2774 262.7 34.735 262.7 34.0616V34.0896H262.691Z"/>
</mask>
<path d="M262.691 34.0896V4.89946C262.691 4.22606 263.231 3.68359 263.902 3.68359H286.309C286.979 3.68359 287.519 4.22606 287.519 4.89946V9.19241C287.519 9.86581 286.979 10.4083 286.309 10.4083H271.641C270.97 10.4083 270.43 10.9507 270.43 11.6241V14.8789C270.43 15.5523 270.97 16.0948 271.641 16.0948H280.507C281.177 16.0948 281.717 16.6372 281.717 17.3107V21.3791C281.717 22.0525 281.177 22.595 280.507 22.595H271.641C270.97 22.595 270.43 23.1375 270.43 23.8109V27.3369C270.43 28.0103 270.97 28.5527 271.641 28.5527H286.495C287.166 28.5527 287.706 29.0952 287.706 29.7686V34.0616C287.706 34.735 287.166 35.2774 286.495 35.2774H263.911C263.24 35.2774 262.7 34.735 262.7 34.0616V34.0896H262.691Z" fill="#629EFF"/>
<path d="M262.691 34.0896V4.89946C262.691 4.22606 263.231 3.68359 263.902 3.68359H286.309C286.979 3.68359 287.519 4.22606 287.519 4.89946V9.19241C287.519 9.86581 286.979 10.4083 286.309 10.4083H271.641C270.97 10.4083 270.43 10.9507 270.43 11.6241V14.8789C270.43 15.5523 270.97 16.0948 271.641 16.0948H280.507C281.177 16.0948 281.717 16.6372 281.717 17.3107V21.3791C281.717 22.0525 281.177 22.595 280.507 22.595H271.641C270.97 22.595 270.43 23.1375 270.43 23.8109V27.3369C270.43 28.0103 270.97 28.5527 271.641 28.5527H286.495C287.166 28.5527 287.706 29.0952 287.706 29.7686V34.0616C287.706 34.735 287.166 35.2774 286.495 35.2774H263.911C263.24 35.2774 262.7 34.735 262.7 34.0616V34.0896H262.691Z" stroke="#102870" mask="url(#path-20-outside-20_0_1)"/>
</g>
</g>
</g>
</svg>
