<svg width="568" height="38" viewBox="0 0 568 38" fill="none" xmlns="http://www.w3.org/2000/svg">
<path d="M8.2181 37.4213L0 0.599609H9.32439L13.8022 23.3239L20.2292 0.599609H28.7107L35.1377 23.3239L39.6155 0.599609H48.6238L40.4057 37.4213H30.8179L24.3382 13.9606L17.8059 37.4213H8.2181Z" fill="url(#paint0_linear_99_2302)"/>
<path d="M55.5248 37.4213V0.599609H84.6043V8.43737H64.5858V15.0653H77.8085V22.64H64.5858V29.5836H84.815V37.4213H55.5248Z" fill="url(#paint1_linear_99_2302)"/>
<path d="M92.7698 37.4213V0.599609H111.05C113.578 0.599609 115.802 1.04147 117.719 1.91467C119.637 2.78787 121.133 4.00825 122.218 5.5758C123.303 7.14335 123.851 8.93184 123.851 10.9623C123.851 12.4667 123.472 13.8765 122.713 15.1915C121.955 16.5066 120.933 17.6218 119.637 18.5265C121.291 19.3997 122.597 20.5465 123.556 21.9457C124.525 23.3449 125.01 24.8914 125.01 26.5747C125.01 28.7104 124.462 30.604 123.377 32.2347C122.292 33.8654 120.764 35.1384 118.794 36.0431C116.824 36.9584 114.548 37.4108 111.945 37.4108H92.7698V37.4213ZM101.831 15.2757H110.47C111.808 15.2757 112.862 14.939 113.631 14.2762C114.4 13.6135 114.79 12.7297 114.79 11.6461C114.79 10.5625 114.4 9.63671 113.631 8.99496C112.862 8.34269 111.808 8.01655 110.47 8.01655H101.831V15.2757ZM101.831 30.0044H111.26C112.662 30.0044 113.779 29.6572 114.6 28.9523C115.422 28.2474 115.833 27.3006 115.833 26.1118C115.833 24.923 115.422 23.9761 114.6 23.2713C113.779 22.5664 112.662 22.2192 111.26 22.2192H101.831V30.0044Z" fill="url(#paint2_linear_99_2302)"/>
<path d="M158.462 37.9999C155.512 37.9999 152.762 37.4739 150.212 36.4219C147.662 35.3698 145.566 33.918 143.922 32.0559L149.401 27.006C150.771 28.4789 152.098 29.4994 153.373 30.057C154.658 30.6146 156.312 30.8986 158.356 30.8986C159.695 30.8986 160.864 30.7198 161.854 30.3515C162.855 29.9833 163.624 29.4573 164.172 28.7735C164.72 28.0896 164.994 27.2901 164.994 26.3748C164.994 25.5647 164.794 24.8809 164.383 24.3233C163.983 23.7657 163.414 23.3239 162.697 23.0082C161.981 22.6926 161.127 22.5348 160.137 22.5348H155.396V15.8543H159.294C160.801 15.8543 161.981 15.4966 162.824 14.7812C163.667 14.0658 164.088 13.0559 164.088 11.7513C164.088 10.8781 163.835 10.0891 163.329 9.40525C162.824 8.72142 162.139 8.18487 161.275 7.80613C160.411 7.41688 159.421 7.22751 158.293 7.22751C156.502 7.22751 154.985 7.5326 153.742 8.15331C152.498 8.7635 151.15 9.85763 149.706 11.4357L144.175 6.43847C145.934 4.43958 148.084 2.87203 150.623 1.73581C153.173 0.5996 155.828 0.0314941 158.609 0.0314941C161.391 0.0314941 163.688 0.473355 165.721 1.37812C167.755 2.27236 169.356 3.51378 170.515 5.11289C171.674 6.712 172.253 8.55309 172.253 10.6572C172.253 12.7613 171.6 14.413 170.304 15.9174C169.008 17.4219 167.323 18.4739 165.247 19.0736C167.67 19.526 169.598 20.4728 171.042 21.8931C172.485 23.3133 173.202 25.0387 173.202 27.0691C173.202 29.0996 172.57 31.0459 171.305 32.6976C170.041 34.3493 168.302 35.6433 166.09 36.5902C163.877 37.537 161.338 37.9999 158.462 37.9999Z" fill="url(#paint3_linear_99_2302)"/>
<path d="M204.083 37.4213V8.59518H192.019V0.599609H225.208V8.59518H213.144V37.4213H204.083Z" fill="url(#paint4_linear_99_2302)"/>
<path d="M231.845 37.4213V0.599609H240.906V14.7497H256.078V0.599609H265.139V37.4213H256.078V23.0082H240.906V37.4213H231.845Z" fill="url(#paint5_linear_99_2302)"/>
<path d="M273.884 37.4213V0.599609H302.963V8.43737H282.945V15.0653H296.168V22.64H282.945V29.5836H303.174V37.4213H273.884Z" fill="url(#paint6_linear_99_2302)"/>
<path d="M311.129 37.4213V0.599609H322.561L331.674 17.9584L340.788 0.599609H352.219V37.4213H343.685V12.33L331.569 34.7912L319.452 12.2247V37.4213H311.129Z" fill="url(#paint7_linear_99_2302)"/>
<path d="M360.964 37.4213V0.599609H390.044V8.43737H370.025V15.0653H383.248V22.64H370.025V29.5836H390.255V37.4213H360.964Z" fill="url(#paint8_linear_99_2302)"/>
<path d="M411.116 37.4213V0.599609H430.555C432.978 0.599609 435.127 1.11511 437.003 2.15664C438.878 3.19817 440.364 4.59739 441.46 6.38588C442.545 8.17436 443.093 10.2259 443.093 12.5404C443.093 14.8549 442.545 16.738 441.46 18.5055C440.374 20.2729 438.878 21.6721 436.982 22.6821C435.085 23.7026 432.946 24.2076 430.555 24.2076H420.177V37.4108H411.116V37.4213ZM420.177 16.7486H429.501C430.839 16.7486 431.903 16.3593 432.715 15.5913C433.526 14.8233 433.926 13.8239 433.926 12.593C433.926 11.3621 433.526 10.31 432.715 9.52098C431.903 8.73195 430.839 8.34269 429.501 8.34269H420.177V16.7486Z" fill="url(#paint9_linear_99_2302)"/>
<path d="M446.938 37.4213L462.058 0.599609H472.436L487.344 37.4213H477.546L474.174 28.5315H459.792L456.368 37.4213H446.938ZM462.532 21.325H471.487L467.062 9.54202L462.532 21.325Z" fill="url(#paint10_linear_99_2302)"/>
<path d="M492.665 37.4213V0.599609H511.524C514.053 0.599609 516.297 1.10459 518.267 2.09352C520.237 3.09296 521.776 4.48167 522.882 6.24911C523.988 8.01655 524.547 10.047 524.547 12.33C524.547 14.6129 523.915 16.717 522.65 18.537C521.386 20.3571 519.721 21.7458 517.646 22.6926L525.706 37.4213H515.591L508.637 24.0077H501.736V37.4213H492.665ZM501.726 16.6434H510.681C512.083 16.6434 513.22 16.2541 514.074 15.4861C514.927 14.7181 515.37 13.7187 515.37 12.4878C515.37 11.2569 514.938 10.2574 514.074 9.48942C513.21 8.72143 512.083 8.33217 510.681 8.33217H501.726V16.6434Z" fill="url(#paint11_linear_99_2302)"/>
<path d="M531.806 37.4213V0.599609H540.867V16.696L555.775 0.599609H566.733L549.665 17.9058L567.681 37.4213H555.67L540.867 20.5359V37.4213H531.806Z" fill="url(#paint12_linear_99_2302)"/>
<defs>
<linearGradient id="paint0_linear_99_2302" x1="0" y1="19.0105" x2="708.011" y2="19.0105" gradientUnits="userSpaceOnUse">
<stop stop-color="#2BC1D6"/>
<stop offset="1" stop-color="#049CBE"/>
</linearGradient>
<linearGradient id="paint1_linear_99_2302" x1="-2.73778e-05" y1="19.0105" x2="708.021" y2="19.0105" gradientUnits="userSpaceOnUse">
<stop stop-color="#2BC1D6"/>
<stop offset="1" stop-color="#049CBE"/>
</linearGradient>
<linearGradient id="paint2_linear_99_2302" x1="4.40027e-05" y1="-61.829" x2="708.021" y2="-61.829" gradientUnits="userSpaceOnUse">
<stop stop-color="#2BC1D6"/>
<stop offset="1" stop-color="#049CBE"/>
</linearGradient>
<linearGradient id="paint3_linear_99_2302" x1="1.81484e-05" y1="19.021" x2="708.021" y2="19.021" gradientUnits="userSpaceOnUse">
<stop stop-color="#2BC1D6"/>
<stop offset="1" stop-color="#049CBE"/>
</linearGradient>
<linearGradient id="paint4_linear_99_2302" x1="4.98293e-05" y1="-61.829" x2="708.021" y2="-61.829" gradientUnits="userSpaceOnUse">
<stop stop-color="#2BC1D6"/>
<stop offset="1" stop-color="#049CBE"/>
</linearGradient>
<linearGradient id="paint5_linear_99_2302" x1="0.000104563" y1="-61.829" x2="708.021" y2="-61.829" gradientUnits="userSpaceOnUse">
<stop stop-color="#2BC1D6"/>
<stop offset="1" stop-color="#049CBE"/>
</linearGradient>
<linearGradient id="paint6_linear_99_2302" x1="9.14319e-05" y1="19.0105" x2="708.021" y2="19.0105" gradientUnits="userSpaceOnUse">
<stop stop-color="#2BC1D6"/>
<stop offset="1" stop-color="#049CBE"/>
</linearGradient>
<linearGradient id="paint7_linear_99_2302" x1="-2.8432e-05" y1="-61.829" x2="708.021" y2="-61.829" gradientUnits="userSpaceOnUse">
<stop stop-color="#2BC1D6"/>
<stop offset="1" stop-color="#049CBE"/>
</linearGradient>
<linearGradient id="paint8_linear_99_2302" x1="0.000188038" y1="19.0105" x2="708.021" y2="19.0105" gradientUnits="userSpaceOnUse">
<stop stop-color="#2BC1D6"/>
<stop offset="1" stop-color="#049CBE"/>
</linearGradient>
<linearGradient id="paint9_linear_99_2302" x1="0.000373868" y1="-61.829" x2="708.021" y2="-61.829" gradientUnits="userSpaceOnUse">
<stop stop-color="#2BC1D6"/>
<stop offset="1" stop-color="#049CBE"/>
</linearGradient>
<linearGradient id="paint10_linear_99_2302" x1="0.000293291" y1="-61.829" x2="708.021" y2="-61.829" gradientUnits="userSpaceOnUse">
<stop stop-color="#2BC1D6"/>
<stop offset="1" stop-color="#049CBE"/>
</linearGradient>
<linearGradient id="paint11_linear_99_2302" x1="0.00021944" y1="19.0105" x2="708.021" y2="19.0105" gradientUnits="userSpaceOnUse">
<stop stop-color="#2BC1D6"/>
<stop offset="1" stop-color="#049CBE"/>
</linearGradient>
<linearGradient id="paint12_linear_99_2302" x1="0.000178803" y1="-61.829" x2="708.021" y2="-61.829" gradientUnits="userSpaceOnUse">
<stop stop-color="#2BC1D6"/>
<stop offset="1" stop-color="#049CBE"/>
</linearGradient>
</defs>
</svg>
